ISO-10303-21;
HEADER;
/* Generated by software containing ST-Developer
 * from STEP Tools, Inc. (www.steptools.com) 
 */

FILE_DESCRIPTION(
/* description */ (''),
/* implementation_level */ '2;1');

FILE_NAME(
/* name */ 'Welle_Schraube.stp',
/* time_stamp */ '2026-09-02T18:21:47+02:00',
/* author */ ('bluhm'),
/* organization */ (''),
/* preprocessor_version */ 'ST-DEVELOPER v20.1',
/* originating_system */ 'Autodesk Inventor 2026',
/* authorisation */ '');

FILE_SCHEMA (('AUTOMOTIVE_DESIGN { 1 0 10303 214 3 1 1 }'));
ENDSEC;

DATA;
#10=MECHANICAL_DESIGN_GEOMETRIC_PRESENTATION_REPRESENTATION('',(#194,#195,
#196,#197,#198,#199,#200,#201,#202,#203,#204,#205),#374);
#11=SHAPE_REPRESENTATION_RELATIONSHIP('SRR','None',#381,#12);
#12=ADVANCED_BREP_SHAPE_REPRESENTATION('',(#13),#373);
#13=MANIFOLD_SOLID_BREP('Volumenk\X\F6rper1',#217);
#14=CYLINDRICAL_SURFACE('',#256,15.);
#15=CIRCLE('',#244,15.);
#16=CIRCLE('',#246,15.);
#17=CIRCLE('',#247,15.);
#18=CIRCLE('',#252,15.);
#19=CIRCLE('',#254,15.);
#20=CIRCLE('',#255,15.);
#21=FACE_OUTER_BOUND('',#32,.T.);
#22=FACE_OUTER_BOUND('',#33,.T.);
#23=FACE_OUTER_BOUND('',#34,.T.);
#24=FACE_OUTER_BOUND('',#35,.T.);
#25=FACE_OUTER_BOUND('',#36,.T.);
#26=FACE_OUTER_BOUND('',#37,.T.);
#27=FACE_OUTER_BOUND('',#38,.T.);
#28=FACE_OUTER_BOUND('',#39,.T.);
#29=FACE_OUTER_BOUND('',#40,.T.);
#30=FACE_OUTER_BOUND('',#41,.T.);
#31=FACE_OUTER_BOUND('',#42,.T.);
#32=EDGE_LOOP('',(#130,#131,#132,#133));
#33=EDGE_LOOP('',(#134,#135,#136,#137));
#34=EDGE_LOOP('',(#138,#139,#140,#141));
#35=EDGE_LOOP('',(#142,#143,#144,#145));
#36=EDGE_LOOP('',(#146,#147,#148,#149,#150));
#37=EDGE_LOOP('',(#151,#152,#153,#154));
#38=EDGE_LOOP('',(#155,#156,#157,#158));
#39=EDGE_LOOP('',(#159,#160,#161,#162));
#40=EDGE_LOOP('',(#163,#164,#165,#166));
#41=EDGE_LOOP('',(#167,#168,#169,#170,#171));
#42=EDGE_LOOP('',(#172,#173,#174,#175,#176,#177,#178,#179,#180,#181,#182,
#183));
#43=LINE('',#318,#64);
#44=LINE('',#320,#65);
#45=LINE('',#322,#66);
#46=LINE('',#323,#67);
#47=LINE('',#327,#68);
#48=LINE('',#329,#69);
#49=LINE('',#331,#70);
#50=LINE('',#332,#71);
#51=LINE('',#334,#72);
#52=LINE('',#335,#73);
#53=LINE('',#345,#74);
#54=LINE('',#347,#75);
#55=LINE('',#349,#76);
#56=LINE('',#350,#77);
#57=LINE('',#354,#78);
#58=LINE('',#356,#79);
#59=LINE('',#358,#80);
#60=LINE('',#359,#81);
#61=LINE('',#361,#82);
#62=LINE('',#362,#83);
#63=LINE('',#370,#84);
#64=VECTOR('',#261,10.);
#65=VECTOR('',#262,10.);
#66=VECTOR('',#263,10.);
#67=VECTOR('',#264,10.);
#68=VECTOR('',#267,10.);
#69=VECTOR('',#268,10.);
#70=VECTOR('',#269,10.);
#71=VECTOR('',#270,10.);
#72=VECTOR('',#273,10.);
#73=VECTOR('',#274,10.);
#74=VECTOR('',#287,10.);
#75=VECTOR('',#288,10.);
#76=VECTOR('',#289,10.);
#77=VECTOR('',#290,10.);
#78=VECTOR('',#293,10.);
#79=VECTOR('',#294,10.);
#80=VECTOR('',#295,10.);
#81=VECTOR('',#296,10.);
#82=VECTOR('',#299,10.);
#83=VECTOR('',#300,10.);
#84=VECTOR('',#313,15.);
#85=VERTEX_POINT('',#316);
#86=VERTEX_POINT('',#317);
#87=VERTEX_POINT('',#319);
#88=VERTEX_POINT('',#321);
#89=VERTEX_POINT('',#325);
#90=VERTEX_POINT('',#326);
#91=VERTEX_POINT('',#328);
#92=VERTEX_POINT('',#330);
#93=VERTEX_POINT('',#339);
#94=VERTEX_POINT('',#343);
#95=VERTEX_POINT('',#344);
#96=VERTEX_POINT('',#346);
#97=VERTEX_POINT('',#348);
#98=VERTEX_POINT('',#352);
#99=VERTEX_POINT('',#353);
#100=VERTEX_POINT('',#355);
#101=VERTEX_POINT('',#357);
#102=VERTEX_POINT('',#366);
#103=EDGE_CURVE('',#85,#86,#43,.T.);
#104=EDGE_CURVE('',#85,#87,#44,.T.);
#105=EDGE_CURVE('',#88,#87,#45,.T.);
#106=EDGE_CURVE('',#86,#88,#46,.T.);
#107=EDGE_CURVE('',#89,#90,#47,.T.);
#108=EDGE_CURVE('',#91,#89,#48,.T.);
#109=EDGE_CURVE('',#91,#92,#49,.T.);
#110=EDGE_CURVE('',#92,#90,#50,.T.);
#111=EDGE_CURVE('',#88,#91,#51,.T.);
#112=EDGE_CURVE('',#87,#92,#52,.T.);
#113=EDGE_CURVE('',#90,#85,#15,.T.);
#114=EDGE_CURVE('',#93,#89,#16,.T.);
#115=EDGE_CURVE('',#86,#93,#17,.T.);
#116=EDGE_CURVE('',#94,#95,#53,.T.);
#117=EDGE_CURVE('',#94,#96,#54,.T.);
#118=EDGE_CURVE('',#97,#96,#55,.T.);
#119=EDGE_CURVE('',#95,#97,#56,.T.);
#120=EDGE_CURVE('',#98,#99,#57,.T.);
#121=EDGE_CURVE('',#100,#98,#58,.T.);
#122=EDGE_CURVE('',#100,#101,#59,.T.);
#123=EDGE_CURVE('',#101,#99,#60,.T.);
#124=EDGE_CURVE('',#97,#100,#61,.T.);
#125=EDGE_CURVE('',#96,#101,#62,.T.);
#126=EDGE_CURVE('',#99,#94,#18,.T.);
#127=EDGE_CURVE('',#98,#102,#19,.T.);
#128=EDGE_CURVE('',#102,#95,#20,.T.);
#129=EDGE_CURVE('',#102,#93,#63,.T.);
#130=ORIENTED_EDGE('',*,*,#103,.F.);
#131=ORIENTED_EDGE('',*,*,#104,.T.);
#132=ORIENTED_EDGE('',*,*,#105,.F.);
#133=ORIENTED_EDGE('',*,*,#106,.F.);
#134=ORIENTED_EDGE('',*,*,#107,.F.);
#135=ORIENTED_EDGE('',*,*,#108,.F.);
#136=ORIENTED_EDGE('',*,*,#109,.T.);
#137=ORIENTED_EDGE('',*,*,#110,.T.);
#138=ORIENTED_EDGE('',*,*,#111,.F.);
#139=ORIENTED_EDGE('',*,*,#105,.T.);
#140=ORIENTED_EDGE('',*,*,#112,.T.);
#141=ORIENTED_EDGE('',*,*,#109,.F.);
#142=ORIENTED_EDGE('',*,*,#113,.F.);
#143=ORIENTED_EDGE('',*,*,#110,.F.);
#144=ORIENTED_EDGE('',*,*,#112,.F.);
#145=ORIENTED_EDGE('',*,*,#104,.F.);
#146=ORIENTED_EDGE('',*,*,#106,.T.);
#147=ORIENTED_EDGE('',*,*,#111,.T.);
#148=ORIENTED_EDGE('',*,*,#108,.T.);
#149=ORIENTED_EDGE('',*,*,#114,.F.);
#150=ORIENTED_EDGE('',*,*,#115,.F.);
#151=ORIENTED_EDGE('',*,*,#116,.F.);
#152=ORIENTED_EDGE('',*,*,#117,.T.);
#153=ORIENTED_EDGE('',*,*,#118,.F.);
#154=ORIENTED_EDGE('',*,*,#119,.F.);
#155=ORIENTED_EDGE('',*,*,#120,.F.);
#156=ORIENTED_EDGE('',*,*,#121,.F.);
#157=ORIENTED_EDGE('',*,*,#122,.T.);
#158=ORIENTED_EDGE('',*,*,#123,.T.);
#159=ORIENTED_EDGE('',*,*,#124,.F.);
#160=ORIENTED_EDGE('',*,*,#118,.T.);
#161=ORIENTED_EDGE('',*,*,#125,.T.);
#162=ORIENTED_EDGE('',*,*,#122,.F.);
#163=ORIENTED_EDGE('',*,*,#126,.F.);
#164=ORIENTED_EDGE('',*,*,#123,.F.);
#165=ORIENTED_EDGE('',*,*,#125,.F.);
#166=ORIENTED_EDGE('',*,*,#117,.F.);
#167=ORIENTED_EDGE('',*,*,#119,.T.);
#168=ORIENTED_EDGE('',*,*,#124,.T.);
#169=ORIENTED_EDGE('',*,*,#121,.T.);
#170=ORIENTED_EDGE('',*,*,#127,.T.);
#171=ORIENTED_EDGE('',*,*,#128,.T.);
#172=ORIENTED_EDGE('',*,*,#116,.T.);
#173=ORIENTED_EDGE('',*,*,#128,.F.);
#174=ORIENTED_EDGE('',*,*,#129,.T.);
#175=ORIENTED_EDGE('',*,*,#114,.T.);
#176=ORIENTED_EDGE('',*,*,#107,.T.);
#177=ORIENTED_EDGE('',*,*,#113,.T.);
#178=ORIENTED_EDGE('',*,*,#103,.T.);
#179=ORIENTED_EDGE('',*,*,#115,.T.);
#180=ORIENTED_EDGE('',*,*,#129,.F.);
#181=ORIENTED_EDGE('',*,*,#127,.F.);
#182=ORIENTED_EDGE('',*,*,#120,.T.);
#183=ORIENTED_EDGE('',*,*,#126,.T.);
#184=PLANE('',#240);
#185=PLANE('',#241);
#186=PLANE('',#242);
#187=PLANE('',#243);
#188=PLANE('',#245);
#189=PLANE('',#248);
#190=PLANE('',#249);
#191=PLANE('',#250);
#192=PLANE('',#251);
#193=PLANE('',#253);
#194=STYLED_ITEM('',(#391),#206);
#195=STYLED_ITEM('',(#391),#207);
#196=STYLED_ITEM('',(#391),#208);
#197=STYLED_ITEM('',(#391),#209);
#198=STYLED_ITEM('',(#391),#210);
#199=STYLED_ITEM('',(#391),#211);
#200=STYLED_ITEM('',(#391),#212);
#201=STYLED_ITEM('',(#391),#213);
#202=STYLED_ITEM('',(#391),#214);
#203=STYLED_ITEM('',(#391),#215);
#204=STYLED_ITEM('',(#391),#216);
#205=STYLED_ITEM('',(#390),#13);
#206=ADVANCED_FACE('',(#21),#184,.F.);
#207=ADVANCED_FACE('',(#22),#185,.F.);
#208=ADVANCED_FACE('',(#23),#186,.F.);
#209=ADVANCED_FACE('',(#24),#187,.F.);
#210=ADVANCED_FACE('',(#25),#188,.F.);
#211=ADVANCED_FACE('',(#26),#189,.F.);
#212=ADVANCED_FACE('',(#27),#190,.F.);
#213=ADVANCED_FACE('',(#28),#191,.F.);
#214=ADVANCED_FACE('',(#29),#192,.F.);
#215=ADVANCED_FACE('',(#30),#193,.T.);
#216=ADVANCED_FACE('',(#31),#14,.T.);
#217=CLOSED_SHELL('',(#206,#207,#208,#209,#210,#211,#212,#213,#214,#215,
#216));
#218=DERIVED_UNIT_ELEMENT(#221,1.);
#219=DERIVED_UNIT_ELEMENT(#376,-3.);
#220=DIMENSIONAL_EXPONENTS(0.,1.,0.,0.,0.,0.,0.);
#221=(
CONVERSION_BASED_UNIT('gram',#223)
MASS_UNIT()
NAMED_UNIT(#220)
);
#222=(
MASS_UNIT()
NAMED_UNIT(*)
SI_UNIT(.KILO.,.GRAM.)
);
#223=MASS_MEASURE_WITH_UNIT(MASS_MEASURE(0.001),#222);
#224=DERIVED_UNIT((#218,#219));
#225=MEASURE_REPRESENTATION_ITEM('density measure',
POSITIVE_RATIO_MEASURE(1.),#224);
#226=PROPERTY_DEFINITION_REPRESENTATION(#231,#228);
#227=PROPERTY_DEFINITION_REPRESENTATION(#232,#229);
#228=REPRESENTATION('material name',(#230),#373);
#229=REPRESENTATION('density',(#225),#373);
#230=DESCRIPTIVE_REPRESENTATION_ITEM('Generisch','Generisch');
#231=PROPERTY_DEFINITION('material property','material name',#383);
#232=PROPERTY_DEFINITION('material property','density of part',#383);
#233=DATE_TIME_ROLE('creation_date');
#234=APPLIED_DATE_AND_TIME_ASSIGNMENT(#235,#233,(#383));
#235=DATE_AND_TIME(#236,#237);
#236=CALENDAR_DATE(2026,21,1);
#237=LOCAL_TIME(0,0,0.,#238);
#238=COORDINATED_UNIVERSAL_TIME_OFFSET(0,0,.BEHIND.);
#239=AXIS2_PLACEMENT_3D('',#314,#257,#258);
#240=AXIS2_PLACEMENT_3D('',#315,#259,#260);
#241=AXIS2_PLACEMENT_3D('',#324,#265,#266);
#242=AXIS2_PLACEMENT_3D('',#333,#271,#272);
#243=AXIS2_PLACEMENT_3D('',#336,#275,#276);
#244=AXIS2_PLACEMENT_3D('',#337,#277,#278);
#245=AXIS2_PLACEMENT_3D('',#338,#279,#280);
#246=AXIS2_PLACEMENT_3D('',#340,#281,#282);
#247=AXIS2_PLACEMENT_3D('',#341,#283,#284);
#248=AXIS2_PLACEMENT_3D('',#342,#285,#286);
#249=AXIS2_PLACEMENT_3D('',#351,#291,#292);
#250=AXIS2_PLACEMENT_3D('',#360,#297,#298);
#251=AXIS2_PLACEMENT_3D('',#363,#301,#302);
#252=AXIS2_PLACEMENT_3D('',#364,#303,#304);
#253=AXIS2_PLACEMENT_3D('',#365,#305,#306);
#254=AXIS2_PLACEMENT_3D('',#367,#307,#308);
#255=AXIS2_PLACEMENT_3D('',#368,#309,#310);
#256=AXIS2_PLACEMENT_3D('',#369,#311,#312);
#257=DIRECTION('axis',(0.,0.,1.));
#258=DIRECTION('refdir',(1.,0.,0.));
#259=DIRECTION('center_axis',(-4.62592926927149E-17,0.,1.));
#260=DIRECTION('ref_axis',(1.,0.,4.62592926927149E-17));
#261=DIRECTION('',(0.,-1.,0.));
#262=DIRECTION('',(1.,0.,4.62592926927149E-17));
#263=DIRECTION('',(0.,1.,0.));
#264=DIRECTION('',(1.,0.,4.62592926927149E-17));
#265=DIRECTION('center_axis',(-4.62592926927149E-17,0.,-1.));
#266=DIRECTION('ref_axis',(-1.,0.,4.62592926927149E-17));
#267=DIRECTION('',(0.,1.,0.));
#268=DIRECTION('',(-1.,0.,4.62592926927149E-17));
#269=DIRECTION('',(0.,1.,0.));
#270=DIRECTION('',(-1.,0.,4.62592926927149E-17));
#271=DIRECTION('center_axis',(1.,0.,0.));
#272=DIRECTION('ref_axis',(0.,0.,-1.));
#273=DIRECTION('',(0.,0.,-1.));
#274=DIRECTION('',(0.,0.,-1.));
#275=DIRECTION('center_axis',(0.,1.,0.));
#276=DIRECTION('ref_axis',(0.,0.,1.));
#277=DIRECTION('center_axis',(0.,1.,0.));
#278=DIRECTION('ref_axis',(-1.,0.,0.));
#279=DIRECTION('center_axis',(0.,1.,0.));
#280=DIRECTION('ref_axis',(0.,0.,1.));
#281=DIRECTION('center_axis',(0.,1.,0.));
#282=DIRECTION('ref_axis',(-1.,0.,0.));
#283=DIRECTION('center_axis',(0.,1.,0.));
#284=DIRECTION('ref_axis',(-1.,0.,0.));
#285=DIRECTION('center_axis',(5.55111512312578E-17,0.,-1.));
#286=DIRECTION('ref_axis',(1.,0.,5.55111512312578E-17));
#287=DIRECTION('',(0.,1.,0.));
#288=DIRECTION('',(1.,0.,5.55111512312578E-17));
#289=DIRECTION('',(0.,-1.,0.));
#290=DIRECTION('',(1.,0.,5.55111512312578E-17));
#291=DIRECTION('center_axis',(5.55111512312578E-17,0.,1.));
#292=DIRECTION('ref_axis',(-1.,0.,5.55111512312578E-17));
#293=DIRECTION('',(0.,-1.,0.));
#294=DIRECTION('',(-1.,0.,5.55111512312578E-17));
#295=DIRECTION('',(0.,-1.,0.));
#296=DIRECTION('',(-1.,0.,5.55111512312578E-17));
#297=DIRECTION('center_axis',(1.,0.,-2.22044604925031E-16));
#298=DIRECTION('ref_axis',(2.22044604925031E-16,0.,1.));
#299=DIRECTION('',(2.22044604925031E-16,0.,1.));
#300=DIRECTION('',(2.22044604925031E-16,0.,1.));
#301=DIRECTION('center_axis',(0.,-1.,0.));
#302=DIRECTION('ref_axis',(0.,0.,-1.));
#303=DIRECTION('center_axis',(0.,-1.,0.));
#304=DIRECTION('ref_axis',(-1.,0.,0.));
#305=DIRECTION('center_axis',(0.,1.,0.));
#306=DIRECTION('ref_axis',(0.,0.,1.));
#307=DIRECTION('center_axis',(0.,1.,0.));
#308=DIRECTION('ref_axis',(-1.,0.,0.));
#309=DIRECTION('center_axis',(0.,1.,0.));
#310=DIRECTION('ref_axis',(-1.,0.,0.));
#311=DIRECTION('center_axis',(0.,1.,0.));
#312=DIRECTION('ref_axis',(-1.,0.,0.));
#313=DIRECTION('',(0.,-1.,0.));
#314=CARTESIAN_POINT('',(0.,0.,0.));
#315=CARTESIAN_POINT('Origin',(-18.,0.,3.));
#316=CARTESIAN_POINT('',(-14.6969384566991,20.,3.));
#317=CARTESIAN_POINT('',(-14.6969384566991,0.,3.));
#318=CARTESIAN_POINT('',(-14.6969384566991,0.,3.));
#319=CARTESIAN_POINT('',(-6.,20.,3.));
#320=CARTESIAN_POINT('',(-6.,20.,3.));
#321=CARTESIAN_POINT('',(-6.,0.,3.));
#322=CARTESIAN_POINT('',(-6.,0.,3.));
#323=CARTESIAN_POINT('',(-9.,0.,3.));
#324=CARTESIAN_POINT('Origin',(-6.,0.,-3.));
#325=CARTESIAN_POINT('',(-14.6969384566991,0.,-3.));
#326=CARTESIAN_POINT('',(-14.6969384566991,20.,-3.));
#327=CARTESIAN_POINT('',(-14.6969384566991,0.,-3.));
#328=CARTESIAN_POINT('',(-6.,0.,-3.));
#329=CARTESIAN_POINT('',(-3.,0.,-3.));
#330=CARTESIAN_POINT('',(-6.,20.,-3.));
#331=CARTESIAN_POINT('',(-6.,0.,-3.));
#332=CARTESIAN_POINT('',(-18.,20.,-3.));
#333=CARTESIAN_POINT('Origin',(-6.,0.,3.));
#334=CARTESIAN_POINT('',(-6.,0.,1.5));
#335=CARTESIAN_POINT('',(-6.,20.,-3.));
#336=CARTESIAN_POINT('Origin',(-12.,20.,0.));
#337=CARTESIAN_POINT('Origin',(0.,20.,0.));
#338=CARTESIAN_POINT('Origin',(0.,0.,0.));
#339=CARTESIAN_POINT('',(15.,0.,-1.83697019872103E-15));
#340=CARTESIAN_POINT('Origin',(0.,0.,0.));
#341=CARTESIAN_POINT('Origin',(0.,0.,0.));
#342=CARTESIAN_POINT('Origin',(-16.,150.,-5.));
#343=CARTESIAN_POINT('',(-14.142135623731,105.4,-5.));
#344=CARTESIAN_POINT('',(-14.142135623731,150.,-5.));
#345=CARTESIAN_POINT('',(-14.142135623731,0.,-5.));
#346=CARTESIAN_POINT('',(-6.,105.4,-5.));
#347=CARTESIAN_POINT('',(-6.,105.4,-5.));
#348=CARTESIAN_POINT('',(-6.,150.,-5.));
#349=CARTESIAN_POINT('',(-6.,150.,-5.));
#350=CARTESIAN_POINT('',(-8.,150.,-5.));
#351=CARTESIAN_POINT('Origin',(-6.,150.,5.));
#352=CARTESIAN_POINT('',(-14.142135623731,150.,5.));
#353=CARTESIAN_POINT('',(-14.142135623731,105.4,5.));
#354=CARTESIAN_POINT('',(-14.142135623731,0.,5.));
#355=CARTESIAN_POINT('',(-6.,150.,5.));
#356=CARTESIAN_POINT('',(-3.,150.,5.));
#357=CARTESIAN_POINT('',(-6.,105.4,5.));
#358=CARTESIAN_POINT('',(-6.,150.,5.));
#359=CARTESIAN_POINT('',(-16.,105.4,5.));
#360=CARTESIAN_POINT('Origin',(-6.,150.,-5.));
#361=CARTESIAN_POINT('',(-6.,150.,-2.5));
#362=CARTESIAN_POINT('',(-6.,105.4,5.));
#363=CARTESIAN_POINT('Origin',(-11.,105.4,0.));
#364=CARTESIAN_POINT('Origin',(0.,105.4,0.));
#365=CARTESIAN_POINT('Origin',(0.,150.,0.));
#366=CARTESIAN_POINT('',(15.,150.,-1.83697019872103E-15));
#367=CARTESIAN_POINT('Origin',(0.,150.,0.));
#368=CARTESIAN_POINT('Origin',(0.,150.,0.));
#369=CARTESIAN_POINT('Origin',(0.,0.,0.));
#370=CARTESIAN_POINT('',(15.,0.,-1.83697019872103E-15));
#371=UNCERTAINTY_MEASURE_WITH_UNIT(LENGTH_MEASURE(0.01),#375,
'DISTANCE_ACCURACY_VALUE',
'Maximum model space distance between geometric entities at asserted c
onnectivities');
#372=UNCERTAINTY_MEASURE_WITH_UNIT(LENGTH_MEASURE(0.01),#375,
'DISTANCE_ACCURACY_VALUE',
'Maximum model space distance between geometric entities at asserted c
onnectivities');
#373=(
GEOMETRIC_REPRESENTATION_CONTEXT(3)
GLOBAL_UNCERTAINTY_ASSIGNED_CONTEXT((#371))
GLOBAL_UNIT_ASSIGNED_CONTEXT((#375,#377,#378))
REPRESENTATION_CONTEXT('','3D')
);
#374=(
GEOMETRIC_REPRESENTATION_CONTEXT(3)
GLOBAL_UNCERTAINTY_ASSIGNED_CONTEXT((#372))
GLOBAL_UNIT_ASSIGNED_CONTEXT((#375,#377,#378))
REPRESENTATION_CONTEXT('','3D')
);
#375=(
LENGTH_UNIT()
NAMED_UNIT(*)
SI_UNIT(.MILLI.,.METRE.)
);
#376=(
LENGTH_UNIT()
NAMED_UNIT(*)
SI_UNIT(.CENTI.,.METRE.)
);
#377=(
NAMED_UNIT(*)
PLANE_ANGLE_UNIT()
SI_UNIT($,.RADIAN.)
);
#378=(
NAMED_UNIT(*)
SI_UNIT($,.STERADIAN.)
SOLID_ANGLE_UNIT()
);
#379=SHAPE_DEFINITION_REPRESENTATION(#380,#381);
#380=PRODUCT_DEFINITION_SHAPE('',$,#383);
#381=SHAPE_REPRESENTATION('',(#239),#373);
#382=PRODUCT_DEFINITION_CONTEXT('part definition',#387,'design');
#383=PRODUCT_DEFINITION('Welle_000','Welle_Schraube',#384,#382);
#384=PRODUCT_DEFINITION_FORMATION('',$,#389);
#385=PRODUCT_RELATED_PRODUCT_CATEGORY('Welle_Schraube','Welle_Schraube',
(#389));
#386=APPLICATION_PROTOCOL_DEFINITION('international standard',
'automotive_design',2009,#387);
#387=APPLICATION_CONTEXT(
'Core Data for Automotive Mechanical Design Process');
#388=PRODUCT_CONTEXT('part definition',#387,'mechanical');
#389=PRODUCT('Welle_000','Welle_Schraube',$,(#388));
#390=PRESENTATION_STYLE_ASSIGNMENT((#392));
#391=PRESENTATION_STYLE_ASSIGNMENT((#393));
#392=SURFACE_STYLE_USAGE(.BOTH.,#398);
#393=SURFACE_STYLE_USAGE(.BOTH.,#399);
#394=SURFACE_STYLE_RENDERING_WITH_PROPERTIES($,#406,(#396));
#395=SURFACE_STYLE_RENDERING_WITH_PROPERTIES($,#407,(#397));
#396=SURFACE_STYLE_TRANSPARENT(0.);
#397=SURFACE_STYLE_TRANSPARENT(0.);
#398=SURFACE_SIDE_STYLE('',(#400,#394));
#399=SURFACE_SIDE_STYLE('',(#401,#395));
#400=SURFACE_STYLE_FILL_AREA(#402);
#401=SURFACE_STYLE_FILL_AREA(#403);
#402=FILL_AREA_STYLE('',(#404));
#403=FILL_AREA_STYLE('',(#405));
#404=FILL_AREA_STYLE_COLOUR('',#406);
#405=FILL_AREA_STYLE_COLOUR('',#407);
#406=COLOUR_RGB('',0.749019607843137,0.749019607843137,0.749019607843137);
#407=COLOUR_RGB('',0.63921568627451,0.72156862745098,0.811764705882353);
ENDSEC;
END-ISO-10303-21;
