ISO-10303-21;
HEADER;
/* Generated by software containing ST-Developer
 * from STEP Tools, Inc. (www.steptools.com) 
 */

FILE_DESCRIPTION(
/* description */ (''),
/* implementation_level */ '2;1');

FILE_NAME(
/* name */ 'Auenrumpf_schnittig.stp',
/* time_stamp */ '2026-09-02T21:25:54+02:00',
/* author */ ('bluhm'),
/* organization */ (''),
/* preprocessor_version */ 'ST-DEVELOPER v20.1',
/* originating_system */ 'Autodesk Inventor 2026',
/* authorisation */ '');

FILE_SCHEMA (('AUTOMOTIVE_DESIGN { 1 0 10303 214 3 1 1 }'));
ENDSEC;

DATA;
#10=MECHANICAL_DESIGN_GEOMETRIC_PRESENTATION_REPRESENTATION('',(#487,#488,
#489,#490,#491,#492,#493,#494,#495,#496,#497,#498,#499,#500,#501,#502,#503,
#504,#505,#506,#507,#508,#509,#510,#511,#512,#513,#514,#515,#516,#517,#518,
#519,#520,#521,#522,#523,#524,#525),#1041);
#11=SHAPE_REPRESENTATION_RELATIONSHIP('SRR','None',#1048,#12);
#12=ADVANCED_BREP_SHAPE_REPRESENTATION('',(#13),#1040);
#13=MANIFOLD_SOLID_BREP('Volumenk\X\F6rper1',#564);
#14=FACE_BOUND('',#179,.T.);
#15=FACE_BOUND('',#180,.T.);
#16=FACE_BOUND('',#181,.T.);
#17=FACE_BOUND('',#182,.T.);
#18=FACE_BOUND('',#183,.T.);
#19=FACE_BOUND('',#184,.T.);
#20=FACE_BOUND('',#185,.T.);
#21=FACE_BOUND('',#186,.T.);
#22=FACE_BOUND('',#187,.T.);
#23=CONICAL_SURFACE('',#602,3383.85703099657,0.785398163397451);
#24=CONICAL_SURFACE('',#604,3383.85703099657,0.785398163397447);
#25=CONICAL_SURFACE('',#608,3383.85703099657,0.785398163397451);
#26=CONICAL_SURFACE('',#610,3383.85703099657,0.785398163397447);
#27=PLANE('',#601);
#28=PLANE('',#606);
#29=PLANE('',#607);
#30=PLANE('',#612);
#31=PLANE('',#620);
#32=PLANE('',#624);
#33=PLANE('',#628);
#34=PLANE('',#632);
#35=PLANE('',#636);
#36=PLANE('',#640);
#37=PLANE('',#644);
#38=PLANE('',#648);
#39=PLANE('',#652);
#40=PLANE('',#657);
#41=PLANE('',#658);
#42=LINE('',#854,#65);
#43=LINE('',#864,#66);
#44=LINE('',#893,#67);
#45=LINE('',#895,#68);
#46=LINE('',#914,#69);
#47=LINE('',#940,#70);
#48=LINE('',#952,#71);
#49=LINE('',#954,#72);
#50=LINE('',#955,#73);
#51=LINE('',#958,#74);
#52=LINE('',#962,#75);
#53=LINE('',#968,#76);
#54=LINE('',#975,#77);
#55=LINE('',#982,#78);
#56=LINE('',#989,#79);
#57=LINE('',#996,#80);
#58=LINE('',#1003,#81);
#59=LINE('',#1010,#82);
#60=LINE('',#1017,#83);
#61=LINE('',#1024,#84);
#62=LINE('',#1030,#85);
#63=LINE('',#1034,#86);
#64=LINE('',#1036,#87);
#65=VECTOR('',#669,10.);
#66=VECTOR('',#670,10.);
#67=VECTOR('',#685,10.);
#68=VECTOR('',#686,10.);
#69=VECTOR('',#695,10.);
#70=VECTOR('',#708,10.);
#71=VECTOR('',#719,10.);
#72=VECTOR('',#720,10.);
#73=VECTOR('',#721,10.);
#74=VECTOR('',#724,10.);
#75=VECTOR('',#729,10.);
#76=VECTOR('',#736,20.);
#77=VECTOR('',#745,20.);
#78=VECTOR('',#754,20.);
#79=VECTOR('',#763,20.);
#80=VECTOR('',#772,20.);
#81=VECTOR('',#781,20.);
#82=VECTOR('',#790,20.);
#83=VECTOR('',#799,20.);
#84=VECTOR('',#808,20.);
#85=VECTOR('',#817,10.);
#86=VECTOR('',#822,10.);
#87=VECTOR('',#825,10.);
#88=CYLINDRICAL_SURFACE('',#590,100.);
#89=CYLINDRICAL_SURFACE('',#597,100.);
#90=CYLINDRICAL_SURFACE('',#613,3443.85703099657);
#91=CYLINDRICAL_SURFACE('',#615,3443.85703099657);
#92=CYLINDRICAL_SURFACE('',#617,20.);
#93=CYLINDRICAL_SURFACE('',#621,20.);
#94=CYLINDRICAL_SURFACE('',#625,20.);
#95=CYLINDRICAL_SURFACE('',#629,20.);
#96=CYLINDRICAL_SURFACE('',#633,20.);
#97=CYLINDRICAL_SURFACE('',#637,20.);
#98=CYLINDRICAL_SURFACE('',#641,20.);
#99=CYLINDRICAL_SURFACE('',#645,20.);
#100=CYLINDRICAL_SURFACE('',#649,20.);
#101=CYLINDRICAL_SURFACE('',#653,3443.85703099657);
#102=CYLINDRICAL_SURFACE('',#655,3443.85703099657);
#103=FACE_OUTER_BOUND('',#141,.T.);
#104=FACE_OUTER_BOUND('',#142,.T.);
#105=FACE_OUTER_BOUND('',#143,.T.);
#106=FACE_OUTER_BOUND('',#144,.T.);
#107=FACE_OUTER_BOUND('',#145,.T.);
#108=FACE_OUTER_BOUND('',#146,.T.);
#109=FACE_OUTER_BOUND('',#147,.T.);
#110=FACE_OUTER_BOUND('',#148,.T.);
#111=FACE_OUTER_BOUND('',#149,.T.);
#112=FACE_OUTER_BOUND('',#150,.T.);
#113=FACE_OUTER_BOUND('',#151,.T.);
#114=FACE_OUTER_BOUND('',#152,.T.);
#115=FACE_OUTER_BOUND('',#153,.T.);
#116=FACE_OUTER_BOUND('',#154,.T.);
#117=FACE_OUTER_BOUND('',#155,.T.);
#118=FACE_OUTER_BOUND('',#156,.T.);
#119=FACE_OUTER_BOUND('',#157,.T.);
#120=FACE_OUTER_BOUND('',#158,.T.);
#121=FACE_OUTER_BOUND('',#159,.T.);
#122=FACE_OUTER_BOUND('',#160,.T.);
#123=FACE_OUTER_BOUND('',#161,.T.);
#124=FACE_OUTER_BOUND('',#162,.T.);
#125=FACE_OUTER_BOUND('',#163,.T.);
#126=FACE_OUTER_BOUND('',#164,.T.);
#127=FACE_OUTER_BOUND('',#165,.T.);
#128=FACE_OUTER_BOUND('',#166,.T.);
#129=FACE_OUTER_BOUND('',#167,.T.);
#130=FACE_OUTER_BOUND('',#168,.T.);
#131=FACE_OUTER_BOUND('',#169,.T.);
#132=FACE_OUTER_BOUND('',#170,.T.);
#133=FACE_OUTER_BOUND('',#171,.T.);
#134=FACE_OUTER_BOUND('',#172,.T.);
#135=FACE_OUTER_BOUND('',#173,.T.);
#136=FACE_OUTER_BOUND('',#174,.T.);
#137=FACE_OUTER_BOUND('',#175,.T.);
#138=FACE_OUTER_BOUND('',#176,.T.);
#139=FACE_OUTER_BOUND('',#177,.T.);
#140=FACE_OUTER_BOUND('',#178,.T.);
#141=EDGE_LOOP('',(#345,#346,#347,#348));
#142=EDGE_LOOP('',(#349,#350,#351,#352));
#143=EDGE_LOOP('',(#353,#354,#355,#356));
#144=EDGE_LOOP('',(#357,#358,#359,#360));
#145=EDGE_LOOP('',(#361,#362,#363,#364));
#146=EDGE_LOOP('',(#365,#366,#367,#368));
#147=EDGE_LOOP('',(#369,#370,#371,#372));
#148=EDGE_LOOP('',(#373,#374,#375,#376));
#149=EDGE_LOOP('',(#377,#378,#379,#380));
#150=EDGE_LOOP('',(#381,#382,#383,#384,#385,#386));
#151=EDGE_LOOP('',(#387,#388,#389,#390));
#152=EDGE_LOOP('',(#391,#392,#393,#394));
#153=EDGE_LOOP('',(#395,#396,#397,#398));
#154=EDGE_LOOP('',(#399,#400,#401,#402));
#155=EDGE_LOOP('',(#403,#404,#405,#406));
#156=EDGE_LOOP('',(#407,#408,#409,#410));
#157=EDGE_LOOP('',(#411,#412,#413,#414));
#158=EDGE_LOOP('',(#415));
#159=EDGE_LOOP('',(#416,#417,#418,#419));
#160=EDGE_LOOP('',(#420));
#161=EDGE_LOOP('',(#421,#422,#423,#424));
#162=EDGE_LOOP('',(#425));
#163=EDGE_LOOP('',(#426,#427,#428,#429));
#164=EDGE_LOOP('',(#430));
#165=EDGE_LOOP('',(#431,#432,#433,#434));
#166=EDGE_LOOP('',(#435));
#167=EDGE_LOOP('',(#436,#437,#438,#439));
#168=EDGE_LOOP('',(#440));
#169=EDGE_LOOP('',(#441,#442,#443,#444));
#170=EDGE_LOOP('',(#445));
#171=EDGE_LOOP('',(#446,#447,#448,#449));
#172=EDGE_LOOP('',(#450));
#173=EDGE_LOOP('',(#451,#452,#453,#454));
#174=EDGE_LOOP('',(#455));
#175=EDGE_LOOP('',(#456,#457,#458,#459));
#176=EDGE_LOOP('',(#460,#461,#462,#463));
#177=EDGE_LOOP('',(#464,#465,#466,#467));
#178=EDGE_LOOP('',(#468,#469,#470,#471,#472,#473));
#179=EDGE_LOOP('',(#474));
#180=EDGE_LOOP('',(#475));
#181=EDGE_LOOP('',(#476));
#182=EDGE_LOOP('',(#477));
#183=EDGE_LOOP('',(#478));
#184=EDGE_LOOP('',(#479));
#185=EDGE_LOOP('',(#480));
#186=EDGE_LOOP('',(#481));
#187=EDGE_LOOP('',(#482));
#188=B_SPLINE_CURVE_WITH_KNOTS('',3,(#834,#835,#836,#837,#838,#839,#840,
#841),.UNSPECIFIED.,.F.,.F.,(4,2,2,4),(0.,24.632779446442,39.7837064597583,
39.8080438040656),.UNSPECIFIED.);
#189=B_SPLINE_CURVE_WITH_KNOTS('',3,(#844,#845,#846,#847,#848,#849,#850,
#851),.UNSPECIFIED.,.F.,.F.,(4,2,2,4),(-0.0134168700201673,0.,3.95938774258347,
7.86600340179074),.UNSPECIFIED.);
#190=B_SPLINE_CURVE_WITH_KNOTS('',3,(#856,#857,#858,#859,#860,#861,#862,
#863),.UNSPECIFIED.,.F.,.F.,(4,2,2,4),(-7.87940979734684,-7.86599294515046,
-3.90661046620985,0.),.UNSPECIFIED.);
#191=B_SPLINE_CURVE_WITH_KNOTS('',3,(#869,#870,#871,#872,#873,#874,#875,
#876),.UNSPECIFIED.,.F.,.F.,(4,2,2,4),(-0.0264716082948607,0.,16.4795879174784,
43.272539542365),.UNSPECIFIED.);
#192=B_SPLINE_CURVE_WITH_KNOTS('',3,(#883,#884,#885,#886,#887,#888,#889,
#890),.UNSPECIFIED.,.F.,.F.,(4,2,2,4),(-0.0134168700413582,0.,3.95938774510792,
7.8660034072948),.UNSPECIFIED.);
#193=B_SPLINE_CURVE_WITH_KNOTS('',3,(#896,#897,#898,#899,#900,#901,#902,
#903),.UNSPECIFIED.,.F.,.F.,(4,2,2,4),(-7.87940979736652,-7.86599294517053,
-3.90661046621308,0.),.UNSPECIFIED.);
#194=B_SPLINE_CURVE_WITH_KNOTS('',3,(#909,#910,#911,#912),.UNSPECIFIED.,
 .F.,.F.,(4,4),(4.14202034726176,16.9694406648812),.UNSPECIFIED.);
#195=B_SPLINE_CURVE_WITH_KNOTS('',3,(#915,#916,#917,#918),.UNSPECIFIED.,
 .F.,.F.,(4,4),(4.14202034625897,16.9694405635876),.UNSPECIFIED.);
#196=B_SPLINE_CURVE_WITH_KNOTS('',3,(#921,#922,#923,#924),.UNSPECIFIED.,
 .F.,.F.,(4,4),(0.,34.8093921152938),.UNSPECIFIED.);
#197=B_SPLINE_CURVE_WITH_KNOTS('',3,(#928,#929,#930,#931),.UNSPECIFIED.,
 .F.,.F.,(4,4),(4.14202034665412,16.9694406070168),.UNSPECIFIED.);
#198=B_SPLINE_CURVE_WITH_KNOTS('',3,(#936,#937,#938,#939),.UNSPECIFIED.,
 .F.,.F.,(4,4),(4.14202035274533,16.9694411901456),.UNSPECIFIED.);
#199=B_SPLINE_CURVE_WITH_KNOTS('',3,(#943,#944,#945,#946),.UNSPECIFIED.,
 .F.,.F.,(4,4),(14.7128507382534,49.5359707672293),.UNSPECIFIED.);
#200=CIRCLE('',#588,3353.14635287791);
#201=CIRCLE('',#589,3282.43567475926);
#202=CIRCLE('',#592,3282.43567475926);
#203=CIRCLE('',#593,3353.14635287791);
#204=CIRCLE('',#595,3353.14635287791);
#205=CIRCLE('',#596,3282.43567475926);
#206=CIRCLE('',#599,3353.14635287791);
#207=CIRCLE('',#600,3282.43567475926);
#208=CIRCLE('',#603,3443.85703099657);
#209=CIRCLE('',#605,3443.85703099657);
#210=CIRCLE('',#609,3443.85703099657);
#211=CIRCLE('',#611,3443.85703099657);
#212=CIRCLE('',#614,3443.85703099657);
#213=CIRCLE('',#616,3443.85703099657);
#214=CIRCLE('',#618,20.);
#215=CIRCLE('',#619,20.);
#216=CIRCLE('',#622,20.);
#217=CIRCLE('',#623,20.);
#218=CIRCLE('',#626,20.);
#219=CIRCLE('',#627,20.);
#220=CIRCLE('',#630,20.);
#221=CIRCLE('',#631,20.);
#222=CIRCLE('',#634,20.);
#223=CIRCLE('',#635,20.);
#224=CIRCLE('',#638,20.);
#225=CIRCLE('',#639,20.);
#226=CIRCLE('',#642,20.);
#227=CIRCLE('',#643,20.);
#228=CIRCLE('',#646,20.);
#229=CIRCLE('',#647,20.);
#230=CIRCLE('',#650,20.);
#231=CIRCLE('',#651,20.);
#232=CIRCLE('',#654,3443.85703099657);
#233=CIRCLE('',#656,3443.85703099657);
#234=VERTEX_POINT('',#830);
#235=VERTEX_POINT('',#831);
#236=VERTEX_POINT('',#833);
#237=VERTEX_POINT('',#842);
#238=VERTEX_POINT('',#853);
#239=VERTEX_POINT('',#855);
#240=VERTEX_POINT('',#866);
#241=VERTEX_POINT('',#868);
#242=VERTEX_POINT('',#879);
#243=VERTEX_POINT('',#881);
#244=VERTEX_POINT('',#892);
#245=VERTEX_POINT('',#894);
#246=VERTEX_POINT('',#908);
#247=VERTEX_POINT('',#913);
#248=VERTEX_POINT('',#920);
#249=VERTEX_POINT('',#927);
#250=VERTEX_POINT('',#935);
#251=VERTEX_POINT('',#942);
#252=VERTEX_POINT('',#951);
#253=VERTEX_POINT('',#953);
#254=VERTEX_POINT('',#957);
#255=VERTEX_POINT('',#961);
#256=VERTEX_POINT('',#965);
#257=VERTEX_POINT('',#967);
#258=VERTEX_POINT('',#972);
#259=VERTEX_POINT('',#974);
#260=VERTEX_POINT('',#979);
#261=VERTEX_POINT('',#981);
#262=VERTEX_POINT('',#986);
#263=VERTEX_POINT('',#988);
#264=VERTEX_POINT('',#993);
#265=VERTEX_POINT('',#995);
#266=VERTEX_POINT('',#1000);
#267=VERTEX_POINT('',#1002);
#268=VERTEX_POINT('',#1007);
#269=VERTEX_POINT('',#1009);
#270=VERTEX_POINT('',#1014);
#271=VERTEX_POINT('',#1016);
#272=VERTEX_POINT('',#1021);
#273=VERTEX_POINT('',#1023);
#274=VERTEX_POINT('',#1028);
#275=VERTEX_POINT('',#1032);
#276=EDGE_CURVE('',#234,#235,#200,.T.);
#277=EDGE_CURVE('',#235,#236,#188,.T.);
#278=EDGE_CURVE('',#236,#237,#201,.T.);
#279=EDGE_CURVE('',#237,#234,#189,.T.);
#280=EDGE_CURVE('',#237,#238,#42,.T.);
#281=EDGE_CURVE('',#238,#239,#190,.T.);
#282=EDGE_CURVE('',#239,#234,#43,.T.);
#283=EDGE_CURVE('',#238,#240,#202,.T.);
#284=EDGE_CURVE('',#240,#241,#191,.T.);
#285=EDGE_CURVE('',#241,#239,#203,.T.);
#286=EDGE_CURVE('',#242,#241,#204,.T.);
#287=EDGE_CURVE('',#240,#243,#205,.T.);
#288=EDGE_CURVE('',#243,#242,#192,.T.);
#289=EDGE_CURVE('',#244,#242,#44,.T.);
#290=EDGE_CURVE('',#243,#245,#45,.T.);
#291=EDGE_CURVE('',#245,#244,#193,.T.);
#292=EDGE_CURVE('',#235,#244,#206,.T.);
#293=EDGE_CURVE('',#245,#236,#207,.T.);
#294=EDGE_CURVE('',#244,#246,#194,.T.);
#295=EDGE_CURVE('',#246,#247,#46,.T.);
#296=EDGE_CURVE('',#242,#247,#195,.T.);
#297=EDGE_CURVE('',#248,#235,#196,.T.);
#298=EDGE_CURVE('',#248,#246,#208,.T.);
#299=EDGE_CURVE('',#234,#249,#197,.T.);
#300=EDGE_CURVE('',#249,#248,#209,.T.);
#301=EDGE_CURVE('',#239,#250,#198,.T.);
#302=EDGE_CURVE('',#250,#249,#47,.T.);
#303=EDGE_CURVE('',#241,#251,#199,.T.);
#304=EDGE_CURVE('',#251,#250,#210,.T.);
#305=EDGE_CURVE('',#247,#251,#211,.T.);
#306=EDGE_CURVE('',#246,#252,#48,.T.);
#307=EDGE_CURVE('',#253,#252,#49,.T.);
#308=EDGE_CURVE('',#247,#253,#50,.T.);
#309=EDGE_CURVE('',#248,#254,#51,.T.);
#310=EDGE_CURVE('',#252,#254,#212,.T.);
#311=EDGE_CURVE('',#249,#255,#52,.T.);
#312=EDGE_CURVE('',#254,#255,#213,.T.);
#313=EDGE_CURVE('',#256,#256,#214,.T.);
#314=EDGE_CURVE('',#256,#257,#53,.T.);
#315=EDGE_CURVE('',#257,#257,#215,.T.);
#316=EDGE_CURVE('',#258,#258,#216,.T.);
#317=EDGE_CURVE('',#258,#259,#54,.T.);
#318=EDGE_CURVE('',#259,#259,#217,.T.);
#319=EDGE_CURVE('',#260,#260,#218,.T.);
#320=EDGE_CURVE('',#260,#261,#55,.T.);
#321=EDGE_CURVE('',#261,#261,#219,.T.);
#322=EDGE_CURVE('',#262,#262,#220,.T.);
#323=EDGE_CURVE('',#262,#263,#56,.T.);
#324=EDGE_CURVE('',#263,#263,#221,.T.);
#325=EDGE_CURVE('',#264,#264,#222,.T.);
#326=EDGE_CURVE('',#264,#265,#57,.T.);
#327=EDGE_CURVE('',#265,#265,#223,.T.);
#328=EDGE_CURVE('',#266,#266,#224,.T.);
#329=EDGE_CURVE('',#266,#267,#58,.T.);
#330=EDGE_CURVE('',#267,#267,#225,.T.);
#331=EDGE_CURVE('',#268,#268,#226,.T.);
#332=EDGE_CURVE('',#268,#269,#59,.T.);
#333=EDGE_CURVE('',#269,#269,#227,.T.);
#334=EDGE_CURVE('',#270,#270,#228,.T.);
#335=EDGE_CURVE('',#270,#271,#60,.T.);
#336=EDGE_CURVE('',#271,#271,#229,.T.);
#337=EDGE_CURVE('',#272,#272,#230,.T.);
#338=EDGE_CURVE('',#272,#273,#61,.T.);
#339=EDGE_CURVE('',#273,#273,#231,.T.);
#340=EDGE_CURVE('',#274,#253,#232,.T.);
#341=EDGE_CURVE('',#251,#274,#62,.T.);
#342=EDGE_CURVE('',#275,#274,#233,.T.);
#343=EDGE_CURVE('',#250,#275,#63,.T.);
#344=EDGE_CURVE('',#255,#275,#64,.T.);
#345=ORIENTED_EDGE('',*,*,#276,.T.);
#346=ORIENTED_EDGE('',*,*,#277,.T.);
#347=ORIENTED_EDGE('',*,*,#278,.T.);
#348=ORIENTED_EDGE('',*,*,#279,.T.);
#349=ORIENTED_EDGE('',*,*,#280,.T.);
#350=ORIENTED_EDGE('',*,*,#281,.T.);
#351=ORIENTED_EDGE('',*,*,#282,.T.);
#352=ORIENTED_EDGE('',*,*,#279,.F.);
#353=ORIENTED_EDGE('',*,*,#283,.T.);
#354=ORIENTED_EDGE('',*,*,#284,.T.);
#355=ORIENTED_EDGE('',*,*,#285,.T.);
#356=ORIENTED_EDGE('',*,*,#281,.F.);
#357=ORIENTED_EDGE('',*,*,#286,.T.);
#358=ORIENTED_EDGE('',*,*,#284,.F.);
#359=ORIENTED_EDGE('',*,*,#287,.T.);
#360=ORIENTED_EDGE('',*,*,#288,.T.);
#361=ORIENTED_EDGE('',*,*,#289,.T.);
#362=ORIENTED_EDGE('',*,*,#288,.F.);
#363=ORIENTED_EDGE('',*,*,#290,.T.);
#364=ORIENTED_EDGE('',*,*,#291,.T.);
#365=ORIENTED_EDGE('',*,*,#292,.T.);
#366=ORIENTED_EDGE('',*,*,#291,.F.);
#367=ORIENTED_EDGE('',*,*,#293,.T.);
#368=ORIENTED_EDGE('',*,*,#277,.F.);
#369=ORIENTED_EDGE('',*,*,#289,.F.);
#370=ORIENTED_EDGE('',*,*,#294,.T.);
#371=ORIENTED_EDGE('',*,*,#295,.T.);
#372=ORIENTED_EDGE('',*,*,#296,.F.);
#373=ORIENTED_EDGE('',*,*,#292,.F.);
#374=ORIENTED_EDGE('',*,*,#297,.F.);
#375=ORIENTED_EDGE('',*,*,#298,.T.);
#376=ORIENTED_EDGE('',*,*,#294,.F.);
#377=ORIENTED_EDGE('',*,*,#276,.F.);
#378=ORIENTED_EDGE('',*,*,#299,.T.);
#379=ORIENTED_EDGE('',*,*,#300,.T.);
#380=ORIENTED_EDGE('',*,*,#297,.T.);
#381=ORIENTED_EDGE('',*,*,#278,.F.);
#382=ORIENTED_EDGE('',*,*,#293,.F.);
#383=ORIENTED_EDGE('',*,*,#290,.F.);
#384=ORIENTED_EDGE('',*,*,#287,.F.);
#385=ORIENTED_EDGE('',*,*,#283,.F.);
#386=ORIENTED_EDGE('',*,*,#280,.F.);
#387=ORIENTED_EDGE('',*,*,#282,.F.);
#388=ORIENTED_EDGE('',*,*,#301,.T.);
#389=ORIENTED_EDGE('',*,*,#302,.T.);
#390=ORIENTED_EDGE('',*,*,#299,.F.);
#391=ORIENTED_EDGE('',*,*,#285,.F.);
#392=ORIENTED_EDGE('',*,*,#303,.T.);
#393=ORIENTED_EDGE('',*,*,#304,.T.);
#394=ORIENTED_EDGE('',*,*,#301,.F.);
#395=ORIENTED_EDGE('',*,*,#286,.F.);
#396=ORIENTED_EDGE('',*,*,#296,.T.);
#397=ORIENTED_EDGE('',*,*,#305,.T.);
#398=ORIENTED_EDGE('',*,*,#303,.F.);
#399=ORIENTED_EDGE('',*,*,#295,.F.);
#400=ORIENTED_EDGE('',*,*,#306,.T.);
#401=ORIENTED_EDGE('',*,*,#307,.F.);
#402=ORIENTED_EDGE('',*,*,#308,.F.);
#403=ORIENTED_EDGE('',*,*,#298,.F.);
#404=ORIENTED_EDGE('',*,*,#309,.T.);
#405=ORIENTED_EDGE('',*,*,#310,.F.);
#406=ORIENTED_EDGE('',*,*,#306,.F.);
#407=ORIENTED_EDGE('',*,*,#300,.F.);
#408=ORIENTED_EDGE('',*,*,#311,.T.);
#409=ORIENTED_EDGE('',*,*,#312,.F.);
#410=ORIENTED_EDGE('',*,*,#309,.F.);
#411=ORIENTED_EDGE('',*,*,#313,.F.);
#412=ORIENTED_EDGE('',*,*,#314,.T.);
#413=ORIENTED_EDGE('',*,*,#315,.T.);
#414=ORIENTED_EDGE('',*,*,#314,.F.);
#415=ORIENTED_EDGE('',*,*,#315,.F.);
#416=ORIENTED_EDGE('',*,*,#316,.F.);
#417=ORIENTED_EDGE('',*,*,#317,.T.);
#418=ORIENTED_EDGE('',*,*,#318,.T.);
#419=ORIENTED_EDGE('',*,*,#317,.F.);
#420=ORIENTED_EDGE('',*,*,#318,.F.);
#421=ORIENTED_EDGE('',*,*,#319,.F.);
#422=ORIENTED_EDGE('',*,*,#320,.T.);
#423=ORIENTED_EDGE('',*,*,#321,.T.);
#424=ORIENTED_EDGE('',*,*,#320,.F.);
#425=ORIENTED_EDGE('',*,*,#321,.F.);
#426=ORIENTED_EDGE('',*,*,#322,.F.);
#427=ORIENTED_EDGE('',*,*,#323,.T.);
#428=ORIENTED_EDGE('',*,*,#324,.T.);
#429=ORIENTED_EDGE('',*,*,#323,.F.);
#430=ORIENTED_EDGE('',*,*,#324,.F.);
#431=ORIENTED_EDGE('',*,*,#325,.F.);
#432=ORIENTED_EDGE('',*,*,#326,.T.);
#433=ORIENTED_EDGE('',*,*,#327,.T.);
#434=ORIENTED_EDGE('',*,*,#326,.F.);
#435=ORIENTED_EDGE('',*,*,#327,.F.);
#436=ORIENTED_EDGE('',*,*,#328,.F.);
#437=ORIENTED_EDGE('',*,*,#329,.T.);
#438=ORIENTED_EDGE('',*,*,#330,.T.);
#439=ORIENTED_EDGE('',*,*,#329,.F.);
#440=ORIENTED_EDGE('',*,*,#330,.F.);
#441=ORIENTED_EDGE('',*,*,#331,.F.);
#442=ORIENTED_EDGE('',*,*,#332,.T.);
#443=ORIENTED_EDGE('',*,*,#333,.T.);
#444=ORIENTED_EDGE('',*,*,#332,.F.);
#445=ORIENTED_EDGE('',*,*,#333,.F.);
#446=ORIENTED_EDGE('',*,*,#334,.F.);
#447=ORIENTED_EDGE('',*,*,#335,.T.);
#448=ORIENTED_EDGE('',*,*,#336,.T.);
#449=ORIENTED_EDGE('',*,*,#335,.F.);
#450=ORIENTED_EDGE('',*,*,#336,.F.);
#451=ORIENTED_EDGE('',*,*,#337,.F.);
#452=ORIENTED_EDGE('',*,*,#338,.T.);
#453=ORIENTED_EDGE('',*,*,#339,.T.);
#454=ORIENTED_EDGE('',*,*,#338,.F.);
#455=ORIENTED_EDGE('',*,*,#339,.F.);
#456=ORIENTED_EDGE('',*,*,#305,.F.);
#457=ORIENTED_EDGE('',*,*,#308,.T.);
#458=ORIENTED_EDGE('',*,*,#340,.F.);
#459=ORIENTED_EDGE('',*,*,#341,.F.);
#460=ORIENTED_EDGE('',*,*,#304,.F.);
#461=ORIENTED_EDGE('',*,*,#341,.T.);
#462=ORIENTED_EDGE('',*,*,#342,.F.);
#463=ORIENTED_EDGE('',*,*,#343,.F.);
#464=ORIENTED_EDGE('',*,*,#302,.F.);
#465=ORIENTED_EDGE('',*,*,#343,.T.);
#466=ORIENTED_EDGE('',*,*,#344,.F.);
#467=ORIENTED_EDGE('',*,*,#311,.F.);
#468=ORIENTED_EDGE('',*,*,#312,.T.);
#469=ORIENTED_EDGE('',*,*,#344,.T.);
#470=ORIENTED_EDGE('',*,*,#342,.T.);
#471=ORIENTED_EDGE('',*,*,#340,.T.);
#472=ORIENTED_EDGE('',*,*,#307,.T.);
#473=ORIENTED_EDGE('',*,*,#310,.T.);
#474=ORIENTED_EDGE('',*,*,#313,.T.);
#475=ORIENTED_EDGE('',*,*,#316,.T.);
#476=ORIENTED_EDGE('',*,*,#319,.T.);
#477=ORIENTED_EDGE('',*,*,#322,.T.);
#478=ORIENTED_EDGE('',*,*,#325,.T.);
#479=ORIENTED_EDGE('',*,*,#328,.T.);
#480=ORIENTED_EDGE('',*,*,#331,.T.);
#481=ORIENTED_EDGE('',*,*,#334,.T.);
#482=ORIENTED_EDGE('',*,*,#337,.T.);
#483=TOROIDAL_SURFACE('',#587,3282.43567475926,100.);
#484=TOROIDAL_SURFACE('',#591,3282.43567475926,100.);
#485=TOROIDAL_SURFACE('',#594,3282.43567475926,100.);
#486=TOROIDAL_SURFACE('',#598,3282.43567475926,100.);
#487=STYLED_ITEM('',(#1058),#526);
#488=STYLED_ITEM('',(#1058),#527);
#489=STYLED_ITEM('',(#1058),#528);
#490=STYLED_ITEM('',(#1058),#529);
#491=STYLED_ITEM('',(#1058),#530);
#492=STYLED_ITEM('',(#1058),#531);
#493=STYLED_ITEM('',(#1058),#532);
#494=STYLED_ITEM('',(#1058),#533);
#495=STYLED_ITEM('',(#1058),#534);
#496=STYLED_ITEM('',(#1058),#535);
#497=STYLED_ITEM('',(#1058),#536);
#498=STYLED_ITEM('',(#1058),#537);
#499=STYLED_ITEM('',(#1058),#538);
#500=STYLED_ITEM('',(#1058),#539);
#501=STYLED_ITEM('',(#1058),#540);
#502=STYLED_ITEM('',(#1058),#541);
#503=STYLED_ITEM('',(#1058),#542);
#504=STYLED_ITEM('',(#1058),#543);
#505=STYLED_ITEM('',(#1058),#544);
#506=STYLED_ITEM('',(#1058),#545);
#507=STYLED_ITEM('',(#1058),#546);
#508=STYLED_ITEM('',(#1058),#547);
#509=STYLED_ITEM('',(#1058),#548);
#510=STYLED_ITEM('',(#1058),#549);
#511=STYLED_ITEM('',(#1058),#550);
#512=STYLED_ITEM('',(#1058),#551);
#513=STYLED_ITEM('',(#1058),#552);
#514=STYLED_ITEM('',(#1058),#553);
#515=STYLED_ITEM('',(#1058),#554);
#516=STYLED_ITEM('',(#1058),#555);
#517=STYLED_ITEM('',(#1058),#556);
#518=STYLED_ITEM('',(#1058),#557);
#519=STYLED_ITEM('',(#1058),#558);
#520=STYLED_ITEM('',(#1058),#559);
#521=STYLED_ITEM('',(#1058),#560);
#522=STYLED_ITEM('',(#1058),#561);
#523=STYLED_ITEM('',(#1058),#562);
#524=STYLED_ITEM('',(#1058),#563);
#525=STYLED_ITEM('',(#1057),#13);
#526=ADVANCED_FACE('',(#103),#483,.T.);
#527=ADVANCED_FACE('',(#104),#88,.T.);
#528=ADVANCED_FACE('',(#105),#484,.T.);
#529=ADVANCED_FACE('',(#106),#485,.T.);
#530=ADVANCED_FACE('',(#107),#89,.T.);
#531=ADVANCED_FACE('',(#108),#486,.T.);
#532=ADVANCED_FACE('',(#109),#27,.T.);
#533=ADVANCED_FACE('',(#110),#23,.T.);
#534=ADVANCED_FACE('',(#111),#24,.T.);
#535=ADVANCED_FACE('',(#112),#28,.F.);
#536=ADVANCED_FACE('',(#113),#29,.T.);
#537=ADVANCED_FACE('',(#114),#25,.T.);
#538=ADVANCED_FACE('',(#115),#26,.T.);
#539=ADVANCED_FACE('',(#116),#30,.T.);
#540=ADVANCED_FACE('',(#117),#90,.T.);
#541=ADVANCED_FACE('',(#118),#91,.T.);
#542=ADVANCED_FACE('',(#119),#92,.F.);
#543=ADVANCED_FACE('',(#120),#31,.T.);
#544=ADVANCED_FACE('',(#121),#93,.F.);
#545=ADVANCED_FACE('',(#122),#32,.T.);
#546=ADVANCED_FACE('',(#123),#94,.F.);
#547=ADVANCED_FACE('',(#124),#33,.T.);
#548=ADVANCED_FACE('',(#125),#95,.F.);
#549=ADVANCED_FACE('',(#126),#34,.T.);
#550=ADVANCED_FACE('',(#127),#96,.F.);
#551=ADVANCED_FACE('',(#128),#35,.T.);
#552=ADVANCED_FACE('',(#129),#97,.F.);
#553=ADVANCED_FACE('',(#130),#36,.T.);
#554=ADVANCED_FACE('',(#131),#98,.F.);
#555=ADVANCED_FACE('',(#132),#37,.T.);
#556=ADVANCED_FACE('',(#133),#99,.F.);
#557=ADVANCED_FACE('',(#134),#38,.T.);
#558=ADVANCED_FACE('',(#135),#100,.F.);
#559=ADVANCED_FACE('',(#136),#39,.T.);
#560=ADVANCED_FACE('',(#137),#101,.T.);
#561=ADVANCED_FACE('',(#138),#102,.T.);
#562=ADVANCED_FACE('',(#139),#40,.T.);
#563=ADVANCED_FACE('',(#140,#14,#15,#16,#17,#18,#19,#20,#21,#22),#41,.T.);
#564=CLOSED_SHELL('',(#526,#527,#528,#529,#530,#531,#532,#533,#534,#535,
#536,#537,#538,#539,#540,#541,#542,#543,#544,#545,#546,#547,#548,#549,#550,
#551,#552,#553,#554,#555,#556,#557,#558,#559,#560,#561,#562,#563));
#565=DERIVED_UNIT_ELEMENT(#568,1.);
#566=DERIVED_UNIT_ELEMENT(#1043,-3.);
#567=DIMENSIONAL_EXPONENTS(0.,1.,0.,0.,0.,0.,0.);
#568=(
CONVERSION_BASED_UNIT('gram',#570)
MASS_UNIT()
NAMED_UNIT(#567)
);
#569=(
MASS_UNIT()
NAMED_UNIT(*)
SI_UNIT(.KILO.,.GRAM.)
);
#570=MASS_MEASURE_WITH_UNIT(MASS_MEASURE(0.001),#569);
#571=DERIVED_UNIT((#565,#566));
#572=MEASURE_REPRESENTATION_ITEM('density measure',
POSITIVE_RATIO_MEASURE(1.2),#571);
#573=PROPERTY_DEFINITION_REPRESENTATION(#578,#575);
#574=PROPERTY_DEFINITION_REPRESENTATION(#579,#576);
#575=REPRESENTATION('material name',(#577),#1040);
#576=REPRESENTATION('density',(#572),#1040);
#577=DESCRIPTIVE_REPRESENTATION_ITEM('Polycarbonat, rauchfarben',
'Polycarbonat, rauchfarben');
#578=PROPERTY_DEFINITION('material property','material name',#1050);
#579=PROPERTY_DEFINITION('material property','density of part',#1050);
#580=DATE_TIME_ROLE('creation_date');
#581=APPLIED_DATE_AND_TIME_ASSIGNMENT(#582,#580,(#1050));
#582=DATE_AND_TIME(#583,#584);
#583=CALENDAR_DATE(2026,18,1);
#584=LOCAL_TIME(0,0,0.,#585);
#585=COORDINATED_UNIVERSAL_TIME_OFFSET(0,0,.BEHIND.);
#586=AXIS2_PLACEMENT_3D('',#828,#659,#660);
#587=AXIS2_PLACEMENT_3D('',#829,#661,#662);
#588=AXIS2_PLACEMENT_3D('',#832,#663,#664);
#589=AXIS2_PLACEMENT_3D('',#843,#665,#666);
#590=AXIS2_PLACEMENT_3D('',#852,#667,#668);
#591=AXIS2_PLACEMENT_3D('',#865,#671,#672);
#592=AXIS2_PLACEMENT_3D('',#867,#673,#674);
#593=AXIS2_PLACEMENT_3D('',#877,#675,#676);
#594=AXIS2_PLACEMENT_3D('',#878,#677,#678);
#595=AXIS2_PLACEMENT_3D('',#880,#679,#680);
#596=AXIS2_PLACEMENT_3D('',#882,#681,#682);
#597=AXIS2_PLACEMENT_3D('',#891,#683,#684);
#598=AXIS2_PLACEMENT_3D('',#904,#687,#688);
#599=AXIS2_PLACEMENT_3D('',#905,#689,#690);
#600=AXIS2_PLACEMENT_3D('',#906,#691,#692);
#601=AXIS2_PLACEMENT_3D('',#907,#693,#694);
#602=AXIS2_PLACEMENT_3D('',#919,#696,#697);
#603=AXIS2_PLACEMENT_3D('',#925,#698,#699);
#604=AXIS2_PLACEMENT_3D('',#926,#700,#701);
#605=AXIS2_PLACEMENT_3D('',#932,#702,#703);
#606=AXIS2_PLACEMENT_3D('',#933,#704,#705);
#607=AXIS2_PLACEMENT_3D('',#934,#706,#707);
#608=AXIS2_PLACEMENT_3D('',#941,#709,#710);
#609=AXIS2_PLACEMENT_3D('',#947,#711,#712);
#610=AXIS2_PLACEMENT_3D('',#948,#713,#714);
#611=AXIS2_PLACEMENT_3D('',#949,#715,#716);
#612=AXIS2_PLACEMENT_3D('',#950,#717,#718);
#613=AXIS2_PLACEMENT_3D('',#956,#722,#723);
#614=AXIS2_PLACEMENT_3D('',#959,#725,#726);
#615=AXIS2_PLACEMENT_3D('',#960,#727,#728);
#616=AXIS2_PLACEMENT_3D('',#963,#730,#731);
#617=AXIS2_PLACEMENT_3D('',#964,#732,#733);
#618=AXIS2_PLACEMENT_3D('',#966,#734,#735);
#619=AXIS2_PLACEMENT_3D('',#969,#737,#738);
#620=AXIS2_PLACEMENT_3D('',#970,#739,#740);
#621=AXIS2_PLACEMENT_3D('',#971,#741,#742);
#622=AXIS2_PLACEMENT_3D('',#973,#743,#744);
#623=AXIS2_PLACEMENT_3D('',#976,#746,#747);
#624=AXIS2_PLACEMENT_3D('',#977,#748,#749);
#625=AXIS2_PLACEMENT_3D('',#978,#750,#751);
#626=AXIS2_PLACEMENT_3D('',#980,#752,#753);
#627=AXIS2_PLACEMENT_3D('',#983,#755,#756);
#628=AXIS2_PLACEMENT_3D('',#984,#757,#758);
#629=AXIS2_PLACEMENT_3D('',#985,#759,#760);
#630=AXIS2_PLACEMENT_3D('',#987,#761,#762);
#631=AXIS2_PLACEMENT_3D('',#990,#764,#765);
#632=AXIS2_PLACEMENT_3D('',#991,#766,#767);
#633=AXIS2_PLACEMENT_3D('',#992,#768,#769);
#634=AXIS2_PLACEMENT_3D('',#994,#770,#771);
#635=AXIS2_PLACEMENT_3D('',#997,#773,#774);
#636=AXIS2_PLACEMENT_3D('',#998,#775,#776);
#637=AXIS2_PLACEMENT_3D('',#999,#777,#778);
#638=AXIS2_PLACEMENT_3D('',#1001,#779,#780);
#639=AXIS2_PLACEMENT_3D('',#1004,#782,#783);
#640=AXIS2_PLACEMENT_3D('',#1005,#784,#785);
#641=AXIS2_PLACEMENT_3D('',#1006,#786,#787);
#642=AXIS2_PLACEMENT_3D('',#1008,#788,#789);
#643=AXIS2_PLACEMENT_3D('',#1011,#791,#792);
#644=AXIS2_PLACEMENT_3D('',#1012,#793,#794);
#645=AXIS2_PLACEMENT_3D('',#1013,#795,#796);
#646=AXIS2_PLACEMENT_3D('',#1015,#797,#798);
#647=AXIS2_PLACEMENT_3D('',#1018,#800,#801);
#648=AXIS2_PLACEMENT_3D('',#1019,#802,#803);
#649=AXIS2_PLACEMENT_3D('',#1020,#804,#805);
#650=AXIS2_PLACEMENT_3D('',#1022,#806,#807);
#651=AXIS2_PLACEMENT_3D('',#1025,#809,#810);
#652=AXIS2_PLACEMENT_3D('',#1026,#811,#812);
#653=AXIS2_PLACEMENT_3D('',#1027,#813,#814);
#654=AXIS2_PLACEMENT_3D('',#1029,#815,#816);
#655=AXIS2_PLACEMENT_3D('',#1031,#818,#819);
#656=AXIS2_PLACEMENT_3D('',#1033,#820,#821);
#657=AXIS2_PLACEMENT_3D('',#1035,#823,#824);
#658=AXIS2_PLACEMENT_3D('',#1037,#826,#827);
#659=DIRECTION('axis',(0.,0.,1.));
#660=DIRECTION('refdir',(1.,0.,0.));
#661=DIRECTION('center_axis',(0.,0.,1.));
#662=DIRECTION('ref_axis',(1.,0.,0.));
#663=DIRECTION('center_axis',(1.74455948035959E-17,1.41707448186149E-17,
-1.));
#664=DIRECTION('ref_axis',(-0.103029705141421,-0.994678279575096,-1.58927465651088E-17));
#665=DIRECTION('center_axis',(0.,0.,1.));
#666=DIRECTION('ref_axis',(-0.103029705141421,-0.994678279575095,0.));
#667=DIRECTION('center_axis',(1.,0.,0.));
#668=DIRECTION('ref_axis',(0.,-0.38268343236509,-0.923879532511287));
#669=DIRECTION('',(1.,0.,0.));
#670=DIRECTION('',(-1.,0.,0.));
#671=DIRECTION('center_axis',(0.,0.,1.));
#672=DIRECTION('ref_axis',(1.,0.,0.));
#673=DIRECTION('center_axis',(0.,0.,1.));
#674=DIRECTION('ref_axis',(0.103029705141457,-0.994678279575092,0.));
#675=DIRECTION('center_axis',(-1.24912144290499E-17,-7.95125824836978E-18,
-1.));
#676=DIRECTION('ref_axis',(0.103029705141457,-0.994678279575092,6.621977735462E-18));
#677=DIRECTION('center_axis',(0.,0.,1.));
#678=DIRECTION('ref_axis',(1.,0.,0.));
#679=DIRECTION('center_axis',(-1.59025164967386E-18,-2.49824288581004E-18,
-1.));
#680=DIRECTION('ref_axis',(0.103029705141417,0.994678279575096,-2.6487910941848E-18));
#681=DIRECTION('center_axis',(0.,0.,1.));
#682=DIRECTION('ref_axis',(0.103029705141417,0.994678279575096,0.));
#683=DIRECTION('center_axis',(-1.,-6.269494727295E-17,0.));
#684=DIRECTION('ref_axis',(0.,0.38268343236509,-0.923879532511287));
#685=DIRECTION('',(1.,6.269494727295E-17,0.));
#686=DIRECTION('',(-1.,-6.269494727295E-17,0.));
#687=DIRECTION('center_axis',(0.,0.,1.));
#688=DIRECTION('ref_axis',(1.,0.,0.));
#689=DIRECTION('center_axis',(-5.81519826786529E-18,4.72358160620499E-18,
-1.));
#690=DIRECTION('ref_axis',(-0.103029705141419,0.994678279575096,5.2975821883696E-18));
#691=DIRECTION('center_axis',(0.,0.,1.));
#692=DIRECTION('ref_axis',(-0.103029705141419,0.994678279575096,0.));
#693=DIRECTION('center_axis',(-4.4332022362836E-17,0.707106781186548,-0.707106781186547));
#694=DIRECTION('ref_axis',(-1.,0.,6.269494727295E-17));
#695=DIRECTION('',(1.,6.269494727295E-17,0.));
#696=DIRECTION('center_axis',(0.,0.,1.));
#697=DIRECTION('ref_axis',(-0.0224209506985851,0.999748618888654,0.));
#698=DIRECTION('center_axis',(0.,0.,-1.));
#699=DIRECTION('ref_axis',(-0.0224209506985851,0.999748618888654,0.));
#700=DIRECTION('center_axis',(0.,0.,1.));
#701=DIRECTION('ref_axis',(-0.315476164102461,-0.948933501296691,0.));
#702=DIRECTION('center_axis',(0.,0.,-1.));
#703=DIRECTION('ref_axis',(-0.315476164102461,-0.948933501296691,0.));
#704=DIRECTION('center_axis',(0.,0.,1.));
#705=DIRECTION('ref_axis',(1.,0.,0.));
#706=DIRECTION('center_axis',(0.,-0.707106781186548,-0.707106781186548));
#707=DIRECTION('ref_axis',(-1.,0.,0.));
#708=DIRECTION('',(-1.,0.,0.));
#709=DIRECTION('center_axis',(0.,0.,1.));
#710=DIRECTION('ref_axis',(0.0224209506985851,-0.999748618888654,0.));
#711=DIRECTION('center_axis',(0.,0.,-1.));
#712=DIRECTION('ref_axis',(0.0224209506985851,-0.999748618888654,0.));
#713=DIRECTION('center_axis',(0.,0.,1.));
#714=DIRECTION('ref_axis',(0.315476164102461,0.948933501296691,0.));
#715=DIRECTION('center_axis',(0.,0.,-1.));
#716=DIRECTION('ref_axis',(0.315476164102461,0.948933501296691,0.));
#717=DIRECTION('center_axis',(-6.269494727295E-17,1.,0.));
#718=DIRECTION('ref_axis',(-1.,-6.269494727295E-17,0.));
#719=DIRECTION('',(0.,0.,1.));
#720=DIRECTION('',(-1.,-6.269494727295E-17,0.));
#721=DIRECTION('',(0.,0.,1.));
#722=DIRECTION('center_axis',(0.,0.,1.));
#723=DIRECTION('ref_axis',(-0.0224209506985851,0.999748618888654,0.));
#724=DIRECTION('',(0.,0.,1.));
#725=DIRECTION('center_axis',(0.,0.,1.));
#726=DIRECTION('ref_axis',(-0.0224209506985851,0.999748618888654,0.));
#727=DIRECTION('center_axis',(0.,0.,1.));
#728=DIRECTION('ref_axis',(-0.315476164102461,-0.948933501296691,0.));
#729=DIRECTION('',(0.,0.,1.));
#730=DIRECTION('center_axis',(0.,0.,1.));
#731=DIRECTION('ref_axis',(-0.315476164102461,-0.948933501296691,0.));
#732=DIRECTION('center_axis',(0.,0.,-1.));
#733=DIRECTION('ref_axis',(1.,0.,0.));
#734=DIRECTION('center_axis',(0.,0.,-1.));
#735=DIRECTION('ref_axis',(1.,0.,0.));
#736=DIRECTION('',(0.,0.,-1.));
#737=DIRECTION('center_axis',(0.,0.,-1.));
#738=DIRECTION('ref_axis',(1.,0.,0.));
#739=DIRECTION('center_axis',(0.,0.,1.));
#740=DIRECTION('ref_axis',(1.,0.,0.));
#741=DIRECTION('center_axis',(0.,0.,-1.));
#742=DIRECTION('ref_axis',(1.,0.,0.));
#743=DIRECTION('center_axis',(0.,0.,-1.));
#744=DIRECTION('ref_axis',(1.,0.,0.));
#745=DIRECTION('',(0.,0.,-1.));
#746=DIRECTION('center_axis',(0.,0.,-1.));
#747=DIRECTION('ref_axis',(1.,0.,0.));
#748=DIRECTION('center_axis',(0.,0.,1.));
#749=DIRECTION('ref_axis',(1.,0.,0.));
#750=DIRECTION('center_axis',(0.,0.,-1.));
#751=DIRECTION('ref_axis',(1.,0.,0.));
#752=DIRECTION('center_axis',(0.,0.,-1.));
#753=DIRECTION('ref_axis',(1.,0.,0.));
#754=DIRECTION('',(0.,0.,-1.));
#755=DIRECTION('center_axis',(0.,0.,-1.));
#756=DIRECTION('ref_axis',(1.,0.,0.));
#757=DIRECTION('center_axis',(0.,0.,1.));
#758=DIRECTION('ref_axis',(1.,0.,0.));
#759=DIRECTION('center_axis',(0.,0.,-1.));
#760=DIRECTION('ref_axis',(1.,0.,0.));
#761=DIRECTION('center_axis',(0.,0.,-1.));
#762=DIRECTION('ref_axis',(1.,0.,0.));
#763=DIRECTION('',(0.,0.,-1.));
#764=DIRECTION('center_axis',(0.,0.,-1.));
#765=DIRECTION('ref_axis',(1.,0.,0.));
#766=DIRECTION('center_axis',(0.,0.,1.));
#767=DIRECTION('ref_axis',(1.,0.,0.));
#768=DIRECTION('center_axis',(0.,0.,-1.));
#769=DIRECTION('ref_axis',(1.,0.,0.));
#770=DIRECTION('center_axis',(0.,0.,-1.));
#771=DIRECTION('ref_axis',(1.,0.,0.));
#772=DIRECTION('',(0.,0.,-1.));
#773=DIRECTION('center_axis',(0.,0.,-1.));
#774=DIRECTION('ref_axis',(1.,0.,0.));
#775=DIRECTION('center_axis',(0.,0.,1.));
#776=DIRECTION('ref_axis',(1.,0.,0.));
#777=DIRECTION('center_axis',(0.,0.,-1.));
#778=DIRECTION('ref_axis',(1.,0.,0.));
#779=DIRECTION('center_axis',(0.,0.,-1.));
#780=DIRECTION('ref_axis',(1.,0.,0.));
#781=DIRECTION('',(0.,0.,-1.));
#782=DIRECTION('center_axis',(0.,0.,-1.));
#783=DIRECTION('ref_axis',(1.,0.,0.));
#784=DIRECTION('center_axis',(0.,0.,1.));
#785=DIRECTION('ref_axis',(1.,0.,0.));
#786=DIRECTION('center_axis',(0.,0.,-1.));
#787=DIRECTION('ref_axis',(1.,0.,0.));
#788=DIRECTION('center_axis',(0.,0.,-1.));
#789=DIRECTION('ref_axis',(1.,0.,0.));
#790=DIRECTION('',(0.,0.,-1.));
#791=DIRECTION('center_axis',(0.,0.,-1.));
#792=DIRECTION('ref_axis',(1.,0.,0.));
#793=DIRECTION('center_axis',(0.,0.,1.));
#794=DIRECTION('ref_axis',(1.,0.,0.));
#795=DIRECTION('center_axis',(0.,0.,-1.));
#796=DIRECTION('ref_axis',(1.,0.,0.));
#797=DIRECTION('center_axis',(0.,0.,-1.));
#798=DIRECTION('ref_axis',(1.,0.,0.));
#799=DIRECTION('',(0.,0.,-1.));
#800=DIRECTION('center_axis',(0.,0.,-1.));
#801=DIRECTION('ref_axis',(1.,0.,0.));
#802=DIRECTION('center_axis',(0.,0.,1.));
#803=DIRECTION('ref_axis',(1.,0.,0.));
#804=DIRECTION('center_axis',(0.,0.,-1.));
#805=DIRECTION('ref_axis',(1.,0.,0.));
#806=DIRECTION('center_axis',(0.,0.,-1.));
#807=DIRECTION('ref_axis',(1.,0.,0.));
#808=DIRECTION('',(0.,0.,-1.));
#809=DIRECTION('center_axis',(0.,0.,-1.));
#810=DIRECTION('ref_axis',(1.,0.,0.));
#811=DIRECTION('center_axis',(0.,0.,1.));
#812=DIRECTION('ref_axis',(1.,0.,0.));
#813=DIRECTION('center_axis',(0.,0.,1.));
#814=DIRECTION('ref_axis',(0.315476164102461,0.948933501296691,0.));
#815=DIRECTION('center_axis',(0.,0.,1.));
#816=DIRECTION('ref_axis',(0.315476164102461,0.948933501296691,0.));
#817=DIRECTION('',(0.,0.,1.));
#818=DIRECTION('center_axis',(0.,0.,1.));
#819=DIRECTION('ref_axis',(0.0224209506985851,-0.999748618888654,0.));
#820=DIRECTION('center_axis',(0.,0.,1.));
#821=DIRECTION('ref_axis',(0.0224209506985851,-0.999748618888654,0.));
#822=DIRECTION('',(0.,0.,1.));
#823=DIRECTION('center_axis',(0.,-1.,0.));
#824=DIRECTION('ref_axis',(1.,0.,0.));
#825=DIRECTION('',(1.,0.,0.));
#826=DIRECTION('center_axis',(0.,0.,1.));
#827=DIRECTION('ref_axis',(1.,0.,0.));
#828=CARTESIAN_POINT('',(0.,0.,0.));
#829=CARTESIAN_POINT('Origin',(-613.545194143913,3267.9913103888,100.));
#830=CARTESIAN_POINT('',(-689.735917495858,-84.2893218813451,29.2893218813454));
#831=CARTESIAN_POINT('',(-1364.42684862866,-9.01342723384893E-13,29.2893218813477));
#832=CARTESIAN_POINT('Origin',(-613.545194143913,3267.9913103888,29.2893218813454));
#833=CARTESIAN_POINT('',(-921.143559151864,2.65898414397725E-13,0.));
#834=CARTESIAN_POINT('Ctrl Pts',(-1364.42684862867,2.96461858584465E-13,
29.289321881347));
#835=CARTESIAN_POINT('Ctrl Pts',(-1284.30198886037,3.8325893935068E-13,
11.3466850451885));
#836=CARTESIAN_POINT('Ctrl Pts',(-1181.93963101479,6.79414689608134E-13,
4.79139355241524));
#837=CARTESIAN_POINT('Ctrl Pts',(-1035.14108755942,5.14517935344484E-13,
0.401149604688158));
#838=CARTESIAN_POINT('Ctrl Pts',(-976.340234957856,1.45779136252164E-9,
0.0012816849236947));
#839=CARTESIAN_POINT('Ctrl Pts',(-921.32003655353,-9.36434900653979E-12,
1.02561652167595E-6));
#840=CARTESIAN_POINT('Ctrl Pts',(-921.231797846177,-6.17814124615814E-15,
5.06323083870464E-19));
#841=CARTESIAN_POINT('Ctrl Pts',(-921.143559151864,-6.09628869300315E-15,
0.));
#842=CARTESIAN_POINT('',(-688.92818255942,-13.5786437626904,0.));
#843=CARTESIAN_POINT('Origin',(-613.545194143913,3267.9913103888,0.));
#844=CARTESIAN_POINT('Ctrl Pts',(-688.92818255942,-13.5786437626905,0.));
#845=CARTESIAN_POINT('Ctrl Pts',(-688.928696136609,-13.6233637138185,2.73830725034891E-18));
#846=CARTESIAN_POINT('Ctrl Pts',(-688.929209707977,-13.6680836631908,2.99981133022961E-5));
#847=CARTESIAN_POINT('Ctrl Pts',(-689.081279366519,-26.9098806289713,0.017795183950431));
#848=CARTESIAN_POINT('Ctrl Pts',(-689.230834320714,-39.9739149405732,2.64777181436733));
#849=CARTESIAN_POINT('Ctrl Pts',(-689.50701816328,-64.1636423992845,12.760600533976));
#850=CARTESIAN_POINT('Ctrl Pts',(-689.631294898539,-75.0816498976032,20.0816498976037));
#851=CARTESIAN_POINT('Ctrl Pts',(-689.735917496083,-84.2893218813439,29.289321881344));
#852=CARTESIAN_POINT('Origin',(-172.689935712216,-13.5786437626904,100.));
#853=CARTESIAN_POINT('',(688.928182559423,-13.5786437626907,0.));
#854=CARTESIAN_POINT('',(-172.689935712216,-13.5786437626904,0.));
#855=CARTESIAN_POINT('',(689.735917496036,-84.2893218813451,29.2893218813453));
#856=CARTESIAN_POINT('Ctrl Pts',(688.928182559423,-13.5786437626905,0.));
#857=CARTESIAN_POINT('Ctrl Pts',(688.928696136613,-13.6233637138894,2.73830725468969E-18));
#858=CARTESIAN_POINT('Ctrl Pts',(688.929209708746,-13.6680836631049,2.99981132100257E-5));
#859=CARTESIAN_POINT('Ctrl Pts',(689.081279311165,-26.9098806380206,0.0177951839608886));
#860=CARTESIAN_POINT('Ctrl Pts',(689.230834320737,-39.9739149421172,2.64777181500873));
#861=CARTESIAN_POINT('Ctrl Pts',(689.507018163284,-64.16364239932,12.760600533995));
#862=CARTESIAN_POINT('Ctrl Pts',(689.631294898541,-75.0816498976169,20.0816498976171));
#863=CARTESIAN_POINT('Ctrl Pts',(689.735917496081,-84.2893218813451,29.2893218813452));
#864=CARTESIAN_POINT('',(-172.689935712216,-84.2893218813452,29.2893218813452));
#865=CARTESIAN_POINT('Origin',(613.545194143913,3267.9913103888,100.));
#866=CARTESIAN_POINT('',(921.143559151862,-3.09197112358106E-13,0.));
#867=CARTESIAN_POINT('Origin',(613.545194143913,3267.9913103888,0.));
#868=CARTESIAN_POINT('',(1364.42684862867,1.17527231458256E-12,29.289321881348));
#869=CARTESIAN_POINT('Ctrl Pts',(921.143559151862,-6.09628869300315E-15,
0.));
#870=CARTESIAN_POINT('Ctrl Pts',(921.231797846178,-6.09736570028154E-15,
5.06323083884684E-19));
#871=CARTESIAN_POINT('Ctrl Pts',(921.320036553529,-9.22345713273712E-12,
1.02561652160531E-6));
#872=CARTESIAN_POINT('Ctrl Pts',(976.340234957869,1.41143559632029E-9,0.00128168492370301));
#873=CARTESIAN_POINT('Ctrl Pts',(1035.14108755944,1.2467155740756E-13,0.401149604688227));
#874=CARTESIAN_POINT('Ctrl Pts',(1181.93963101493,-1.32728254126165E-13,
4.79139355241989));
#875=CARTESIAN_POINT('Ctrl Pts',(1284.30198886043,-7.58270545220736E-16,
11.3466850452016));
#876=CARTESIAN_POINT('Ctrl Pts',(1364.42684862867,-1.05178727968778E-15,
29.2893218813474));
#877=CARTESIAN_POINT('Origin',(613.545194143913,3267.9913103888,29.2893218813452));
#878=CARTESIAN_POINT('Origin',(613.545194143913,-3267.9913103888,100.));
#879=CARTESIAN_POINT('',(689.735917495841,84.2893218813452,29.2893218813455));
#880=CARTESIAN_POINT('Origin',(613.545194143913,-3267.9913103888,29.2893218813455));
#881=CARTESIAN_POINT('',(688.928182559429,13.5786437626905,0.));
#882=CARTESIAN_POINT('Origin',(613.545194143913,-3267.9913103888,0.));
#883=CARTESIAN_POINT('Ctrl Pts',(688.928182559429,13.5786437626906,0.));
#884=CARTESIAN_POINT('Ctrl Pts',(688.928696136619,13.6233637138892,3.25277789431998E-17));
#885=CARTESIAN_POINT('Ctrl Pts',(688.929209708749,13.6680836631052,2.99981132103512E-5));
#886=CARTESIAN_POINT('Ctrl Pts',(689.081279310634,26.9098806380224,0.0177951839608891));
#887=CARTESIAN_POINT('Ctrl Pts',(689.230834320717,39.9739149421125,2.64777181500824));
#888=CARTESIAN_POINT('Ctrl Pts',(689.507018163278,64.1636423993,12.7606005339847));
#889=CARTESIAN_POINT('Ctrl Pts',(689.631294898535,75.0816498976093,20.0816498976096));
#890=CARTESIAN_POINT('Ctrl Pts',(689.735917496079,84.2893218813439,29.2893218813439));
#891=CARTESIAN_POINT('Origin',(172.689935712216,13.5786437626905,100.));
#892=CARTESIAN_POINT('',(-689.735917495844,84.2893218813452,29.2893218813453));
#893=CARTESIAN_POINT('',(172.689935712216,84.2893218813452,29.2893218813453));
#894=CARTESIAN_POINT('',(-688.928182559461,13.5786437626901,0.));
#895=CARTESIAN_POINT('',(172.689935712216,13.5786437626905,0.));
#896=CARTESIAN_POINT('Ctrl Pts',(-688.928182559461,13.5786437626898,0.));
#897=CARTESIAN_POINT('Ctrl Pts',(-688.92869613665,13.6233637138865,-3.69809883283714E-17));
#898=CARTESIAN_POINT('Ctrl Pts',(-688.92920970875,13.6680836631077,2.99981132129932E-5));
#899=CARTESIAN_POINT('Ctrl Pts',(-689.0812793134,26.9098806377644,0.0177951839605982));
#900=CARTESIAN_POINT('Ctrl Pts',(-689.23083432075,39.9739149420676,2.64777181499018));
#901=CARTESIAN_POINT('Ctrl Pts',(-689.507018163297,64.1636423992998,12.7606005339843));
#902=CARTESIAN_POINT('Ctrl Pts',(-689.63129489856,75.081649897608,20.0816498976084));
#903=CARTESIAN_POINT('Ctrl Pts',(-689.735917496104,84.289321881344,29.289321881344));
#904=CARTESIAN_POINT('Origin',(-613.545194143913,-3267.9913103888,100.));
#905=CARTESIAN_POINT('Origin',(-613.545194143913,-3267.9913103888,29.2893218813453));
#906=CARTESIAN_POINT('Origin',(-613.545194143913,-3267.9913103888,0.));
#907=CARTESIAN_POINT('Origin',(345.379871424432,115.,60.));
#908=CARTESIAN_POINT('',(-690.759742848863,174.999999999999,120.));
#909=CARTESIAN_POINT('Ctrl Pts',(-689.735917495844,84.2893218813508,29.2893218813509));
#910=CARTESIAN_POINT('Ctrl Pts',(-690.079484899956,114.526154437038,59.5261544370379));
#911=CARTESIAN_POINT('Ctrl Pts',(-690.420767734898,144.766446343571,89.7664463435709));
#912=CARTESIAN_POINT('Ctrl Pts',(-690.759742848863,175.,120.));
#913=CARTESIAN_POINT('',(690.759742848864,175.,120.));
#914=CARTESIAN_POINT('',(345.379871424432,175.,120.));
#915=CARTESIAN_POINT('Ctrl Pts',(689.735917495841,84.2893218813451,29.2893218813454));
#916=CARTESIAN_POINT('Ctrl Pts',(690.079484897578,114.526154227116,59.5261542271166));
#917=CARTESIAN_POINT('Ctrl Pts',(690.42076773128,144.766446019804,89.7664460198042));
#918=CARTESIAN_POINT('Ctrl Pts',(690.759742848865,175.,120.000000000001));
#919=CARTESIAN_POINT('Origin',(-613.545194143913,-3267.9913103888,60.));
#920=CARTESIAN_POINT('',(-1700.,0.,120.));
#921=CARTESIAN_POINT('Ctrl Pts',(-1700.,3.11958678639538E-13,120.));
#922=CARTESIAN_POINT('Ctrl Pts',(-1589.34460603107,1.55030523237588E-13,
85.0908607734357));
#923=CARTESIAN_POINT('Ctrl Pts',(-1477.52219741949,2.19826120696348E-14,
54.6151543019031));
#924=CARTESIAN_POINT('Ctrl Pts',(-1364.42684862866,-8.03596544990319E-14,
29.2893218813476));
#925=CARTESIAN_POINT('Origin',(-613.545194143913,-3267.9913103888,120.));
#926=CARTESIAN_POINT('Origin',(-613.545194143913,3267.9913103888,60.));
#927=CARTESIAN_POINT('',(-690.759742848864,-175.,120.));
#928=CARTESIAN_POINT('Ctrl Pts',(-689.735917495857,-84.289321881345,29.2893218813453));
#929=CARTESIAN_POINT('Ctrl Pts',(-690.079484898613,-114.52615431762,59.5261543176205));
#930=CARTESIAN_POINT('Ctrl Pts',(-690.420767732851,-144.766446159897,89.7664461598981));
#931=CARTESIAN_POINT('Ctrl Pts',(-690.759742848865,-175.,120.000000000001));
#932=CARTESIAN_POINT('Origin',(-613.545194143913,3267.9913103888,120.));
#933=CARTESIAN_POINT('Origin',(0.,7.105427357601E-14,0.));
#934=CARTESIAN_POINT('Origin',(-345.379871424432,-115.,60.));
#935=CARTESIAN_POINT('',(690.759742848863,-175.,120.));
#936=CARTESIAN_POINT('Ctrl Pts',(689.735917496036,-84.2893218813466,29.2893218813467));
#937=CARTESIAN_POINT('Ctrl Pts',(690.07948491236,-114.526155521369,59.5261555213694));
#938=CARTESIAN_POINT('Ctrl Pts',(690.420767753601,-144.766448011753,89.7664480117532));
#939=CARTESIAN_POINT('Ctrl Pts',(690.759742848863,-175.,120.));
#940=CARTESIAN_POINT('',(-345.379871424432,-175.,120.));
#941=CARTESIAN_POINT('Origin',(613.545194143913,3267.9913103888,60.));
#942=CARTESIAN_POINT('',(1700.,0.,120.));
#943=CARTESIAN_POINT('Ctrl Pts',(1364.42684862867,7.48006795094644E-16,
29.2893218813479));
#944=CARTESIAN_POINT('Ctrl Pts',(1477.52219741948,-1.02505404845781E-13,
54.6151543019025));
#945=CARTESIAN_POINT('Ctrl Pts',(1589.34460603107,-2.4554229025324E-13,
85.090860773434));
#946=CARTESIAN_POINT('Ctrl Pts',(1700.,-3.93073307470434E-13,120.));
#947=CARTESIAN_POINT('Origin',(613.545194143913,3267.9913103888,120.));
#948=CARTESIAN_POINT('Origin',(613.545194143913,-3267.9913103888,60.));
#949=CARTESIAN_POINT('Origin',(613.545194143913,-3267.9913103888,120.));
#950=CARTESIAN_POINT('Origin',(690.759742848864,175.,0.));
#951=CARTESIAN_POINT('',(-690.759742848863,174.999999999999,450.));
#952=CARTESIAN_POINT('',(-690.759742848863,174.999999999999,0.));
#953=CARTESIAN_POINT('',(690.759742848864,175.,450.));
#954=CARTESIAN_POINT('',(1700.,175.,450.));
#955=CARTESIAN_POINT('',(690.759742848864,175.,0.));
#956=CARTESIAN_POINT('Origin',(-613.545194143913,-3267.9913103888,0.));
#957=CARTESIAN_POINT('',(-1700.,0.,450.));
#958=CARTESIAN_POINT('',(-1700.,0.,0.));
#959=CARTESIAN_POINT('Origin',(-613.545194143913,-3267.9913103888,450.));
#960=CARTESIAN_POINT('Origin',(-613.545194143913,3267.9913103888,0.));
#961=CARTESIAN_POINT('',(-690.759742848864,-175.,450.));
#962=CARTESIAN_POINT('',(-690.759742848864,-175.,0.));
#963=CARTESIAN_POINT('Origin',(-613.545194143913,3267.9913103888,450.));
#964=CARTESIAN_POINT('Origin',(-400.,0.,450.));
#965=CARTESIAN_POINT('',(-420.,2.44929359829471E-15,450.));
#966=CARTESIAN_POINT('Origin',(-400.,0.,450.));
#967=CARTESIAN_POINT('',(-420.,2.44929359829471E-15,200.));
#968=CARTESIAN_POINT('',(-420.,2.44929359829471E-15,450.));
#969=CARTESIAN_POINT('Origin',(-400.,0.,200.));
#970=CARTESIAN_POINT('Origin',(-400.,0.,200.));
#971=CARTESIAN_POINT('Origin',(400.,0.,450.));
#972=CARTESIAN_POINT('',(380.,2.44929359829471E-15,450.));
#973=CARTESIAN_POINT('Origin',(400.,0.,450.));
#974=CARTESIAN_POINT('',(380.,2.44929359829471E-15,200.));
#975=CARTESIAN_POINT('',(380.,2.44929359829471E-15,450.));
#976=CARTESIAN_POINT('Origin',(400.,0.,200.));
#977=CARTESIAN_POINT('Origin',(400.,0.,200.));
#978=CARTESIAN_POINT('Origin',(600.,0.,450.));
#979=CARTESIAN_POINT('',(580.,2.44929359829471E-15,450.));
#980=CARTESIAN_POINT('Origin',(600.,0.,450.));
#981=CARTESIAN_POINT('',(580.,2.44929359829471E-15,200.));
#982=CARTESIAN_POINT('',(580.,2.44929359829471E-15,450.));
#983=CARTESIAN_POINT('Origin',(600.,0.,200.));
#984=CARTESIAN_POINT('Origin',(600.,0.,200.));
#985=CARTESIAN_POINT('Origin',(-200.,0.,450.));
#986=CARTESIAN_POINT('',(-220.,2.44929359829471E-15,450.));
#987=CARTESIAN_POINT('Origin',(-200.,0.,450.));
#988=CARTESIAN_POINT('',(-220.,2.44929359829471E-15,200.));
#989=CARTESIAN_POINT('',(-220.,2.44929359829471E-15,450.));
#990=CARTESIAN_POINT('Origin',(-200.,0.,200.));
#991=CARTESIAN_POINT('Origin',(-200.,0.,200.));
#992=CARTESIAN_POINT('Origin',(-600.,0.,450.));
#993=CARTESIAN_POINT('',(-620.,2.44929359829471E-15,450.));
#994=CARTESIAN_POINT('Origin',(-600.,0.,450.));
#995=CARTESIAN_POINT('',(-620.,2.44929359829471E-15,200.));
#996=CARTESIAN_POINT('',(-620.,2.44929359829471E-15,450.));
#997=CARTESIAN_POINT('Origin',(-600.,0.,200.));
#998=CARTESIAN_POINT('Origin',(-600.,0.,200.));
#999=CARTESIAN_POINT('Origin',(200.,0.,450.));
#1000=CARTESIAN_POINT('',(180.,2.44929359829471E-15,450.));
#1001=CARTESIAN_POINT('Origin',(200.,0.,450.));
#1002=CARTESIAN_POINT('',(180.,2.44929359829471E-15,200.));
#1003=CARTESIAN_POINT('',(180.,2.44929359829471E-15,450.));
#1004=CARTESIAN_POINT('Origin',(200.,0.,200.));
#1005=CARTESIAN_POINT('Origin',(200.,0.,200.));
#1006=CARTESIAN_POINT('Origin',(800.,0.,450.));
#1007=CARTESIAN_POINT('',(780.,2.44929359829471E-15,450.));
#1008=CARTESIAN_POINT('Origin',(800.,0.,450.));
#1009=CARTESIAN_POINT('',(780.,2.44929359829471E-15,200.));
#1010=CARTESIAN_POINT('',(780.,2.44929359829471E-15,450.));
#1011=CARTESIAN_POINT('Origin',(800.,0.,200.));
#1012=CARTESIAN_POINT('Origin',(800.,0.,200.));
#1013=CARTESIAN_POINT('Origin',(0.,0.,450.));
#1014=CARTESIAN_POINT('',(-20.,2.44929359829471E-15,450.));
#1015=CARTESIAN_POINT('Origin',(0.,0.,450.));
#1016=CARTESIAN_POINT('',(-20.,2.44929359829471E-15,200.));
#1017=CARTESIAN_POINT('',(-20.,2.44929359829471E-15,450.));
#1018=CARTESIAN_POINT('Origin',(0.,0.,200.));
#1019=CARTESIAN_POINT('Origin',(0.,0.,200.));
#1020=CARTESIAN_POINT('Origin',(-800.,0.,450.));
#1021=CARTESIAN_POINT('',(-820.,2.44929359829471E-15,450.));
#1022=CARTESIAN_POINT('Origin',(-800.,0.,450.));
#1023=CARTESIAN_POINT('',(-820.,2.44929359829471E-15,200.));
#1024=CARTESIAN_POINT('',(-820.,2.44929359829471E-15,450.));
#1025=CARTESIAN_POINT('Origin',(-800.,0.,200.));
#1026=CARTESIAN_POINT('Origin',(-800.,0.,200.));
#1027=CARTESIAN_POINT('Origin',(613.545194143913,-3267.9913103888,0.));
#1028=CARTESIAN_POINT('',(1700.,0.,450.));
#1029=CARTESIAN_POINT('Origin',(613.545194143913,-3267.9913103888,450.));
#1030=CARTESIAN_POINT('',(1700.,0.,0.));
#1031=CARTESIAN_POINT('Origin',(613.545194143913,3267.9913103888,0.));
#1032=CARTESIAN_POINT('',(690.759742848863,-175.,450.));
#1033=CARTESIAN_POINT('Origin',(613.545194143913,3267.9913103888,450.));
#1034=CARTESIAN_POINT('',(690.759742848863,-175.,0.));
#1035=CARTESIAN_POINT('Origin',(-690.759742848864,-175.,0.));
#1036=CARTESIAN_POINT('',(-1700.,-175.,450.));
#1037=CARTESIAN_POINT('Origin',(0.,7.105427357601E-14,450.));
#1038=UNCERTAINTY_MEASURE_WITH_UNIT(LENGTH_MEASURE(0.01),#1042,
'DISTANCE_ACCURACY_VALUE',
'Maximum model space distance between geometric entities at asserted c
onnectivities');
#1039=UNCERTAINTY_MEASURE_WITH_UNIT(LENGTH_MEASURE(0.01),#1042,
'DISTANCE_ACCURACY_VALUE',
'Maximum model space distance between geometric entities at asserted c
onnectivities');
#1040=(
GEOMETRIC_REPRESENTATION_CONTEXT(3)
GLOBAL_UNCERTAINTY_ASSIGNED_CONTEXT((#1038))
GLOBAL_UNIT_ASSIGNED_CONTEXT((#1042,#1044,#1045))
REPRESENTATION_CONTEXT('','3D')
);
#1041=(
GEOMETRIC_REPRESENTATION_CONTEXT(3)
GLOBAL_UNCERTAINTY_ASSIGNED_CONTEXT((#1039))
GLOBAL_UNIT_ASSIGNED_CONTEXT((#1042,#1044,#1045))
REPRESENTATION_CONTEXT('','3D')
);
#1042=(
LENGTH_UNIT()
NAMED_UNIT(*)
SI_UNIT(.MILLI.,.METRE.)
);
#1043=(
LENGTH_UNIT()
NAMED_UNIT(*)
SI_UNIT(.CENTI.,.METRE.)
);
#1044=(
NAMED_UNIT(*)
PLANE_ANGLE_UNIT()
SI_UNIT($,.RADIAN.)
);
#1045=(
NAMED_UNIT(*)
SI_UNIT($,.STERADIAN.)
SOLID_ANGLE_UNIT()
);
#1046=SHAPE_DEFINITION_REPRESENTATION(#1047,#1048);
#1047=PRODUCT_DEFINITION_SHAPE('',$,#1050);
#1048=SHAPE_REPRESENTATION('',(#586),#1040);
#1049=PRODUCT_DEFINITION_CONTEXT('part definition',#1054,'design');
#1050=PRODUCT_DEFINITION('Au\X\DFenrumpf_schnittig',
'Au\X\DFenrumpf_schnittig',#1051,#1049);
#1051=PRODUCT_DEFINITION_FORMATION('',$,#1056);
#1052=PRODUCT_RELATED_PRODUCT_CATEGORY('Au\X\DFenrumpf_schnittig',
'Au\X\DFenrumpf_schnittig',(#1056));
#1053=APPLICATION_PROTOCOL_DEFINITION('international standard',
'automotive_design',2009,#1054);
#1054=APPLICATION_CONTEXT(
'Core Data for Automotive Mechanical Design Process');
#1055=PRODUCT_CONTEXT('part definition',#1054,'mechanical');
#1056=PRODUCT('Au\X\DFenrumpf_schnittig','Au\X\DFenrumpf_schnittig',$,(#1055));
#1057=PRESENTATION_STYLE_ASSIGNMENT((#1059));
#1058=PRESENTATION_STYLE_ASSIGNMENT((#1060));
#1059=SURFACE_STYLE_USAGE(.BOTH.,#1065);
#1060=SURFACE_STYLE_USAGE(.BOTH.,#1066);
#1061=SURFACE_STYLE_RENDERING_WITH_PROPERTIES($,#1073,(#1063));
#1062=SURFACE_STYLE_RENDERING_WITH_PROPERTIES($,#1074,(#1064));
#1063=SURFACE_STYLE_TRANSPARENT(0.449999988079071);
#1064=SURFACE_STYLE_TRANSPARENT(0.53999999165535);
#1065=SURFACE_SIDE_STYLE('',(#1067,#1061));
#1066=SURFACE_SIDE_STYLE('',(#1068,#1062));
#1067=SURFACE_STYLE_FILL_AREA(#1069);
#1068=SURFACE_STYLE_FILL_AREA(#1070);
#1069=FILL_AREA_STYLE('',(#1071));
#1070=FILL_AREA_STYLE('',(#1072));
#1071=FILL_AREA_STYLE_COLOUR('',#1073);
#1072=FILL_AREA_STYLE_COLOUR('',#1074);
#1073=COLOUR_RGB('',0.450980392156863,0.27843137254902,0.0392156862745098);
#1074=COLOUR_RGB('',0.8,0.8,0.8);
ENDSEC;
END-ISO-10303-21;
