ISO-10303-21;
HEADER;
/* Generated by software containing ST-Developer
 * from STEP Tools, Inc. (www.steptools.com) 
 */

FILE_DESCRIPTION(
/* description */ (''),
/* implementation_level */ '2;1');

FILE_NAME(
/* name */ 'Mittelkonsole.stp',
/* time_stamp */ '2026-09-02T21:19:40+02:00',
/* author */ ('bluhm'),
/* organization */ (''),
/* preprocessor_version */ 'ST-DEVELOPER v20.1',
/* originating_system */ 'Autodesk Inventor 2026',
/* authorisation */ '');

FILE_SCHEMA (('AUTOMOTIVE_DESIGN { 1 0 10303 214 3 1 1 }'));
ENDSEC;

DATA;
#10=MECHANICAL_DESIGN_GEOMETRIC_PRESENTATION_REPRESENTATION('',(#79,#80,
#81,#82,#83,#84,#85,#86,#87,#88,#89,#90,#91,#92,#93,#94,#95,#96,#97,#98,
#99,#100,#101,#102,#103,#104,#105,#106,#107,#108,#109,#110,#111,#112,#113,
#114,#115,#116,#117,#118,#119,#120,#121,#122,#123,#124,#125,#126,#127,#128,
#129,#130,#131,#132,#133,#134,#135,#136,#137,#138,#139),#1871);
#11=SHAPE_REPRESENTATION_RELATIONSHIP('SRR','None',#1878,#12);
#12=ADVANCED_BREP_SHAPE_REPRESENTATION('',(#13),#1870);
#13=MANIFOLD_SOLID_BREP('Volumenk\X\F6rper1',#1136);
#14=CIRCLE('',#1162,4.688101);
#15=CIRCLE('',#1163,4.688101);
#16=CIRCLE('',#1165,4.688101);
#17=CIRCLE('',#1166,4.688101);
#18=CIRCLE('',#1168,4.688101);
#19=CIRCLE('',#1169,4.688101);
#20=CIRCLE('',#1171,4.688101);
#21=CIRCLE('',#1172,4.688101);
#22=CIRCLE('',#1174,40.);
#23=CIRCLE('',#1176,40.);
#24=CIRCLE('',#1177,40.);
#25=CIRCLE('',#1178,40.);
#26=CIRCLE('',#1180,32.);
#27=CIRCLE('',#1182,16.);
#28=CIRCLE('',#1183,16.);
#29=CIRCLE('',#1185,10.);
#30=CIRCLE('',#1187,16.);
#31=CIRCLE('',#1188,16.);
#32=CIRCLE('',#1190,10.);
#33=CIRCLE('',#1192,23.5);
#34=CIRCLE('',#1193,23.5);
#35=CIRCLE('',#1195,17.5);
#36=CIRCLE('',#1197,23.5);
#37=CIRCLE('',#1198,23.5);
#38=CIRCLE('',#1200,17.75);
#39=CIRCLE('',#1202,15.);
#40=CIRCLE('',#1203,15.);
#41=CIRCLE('',#1205,12.5);
#42=CIRCLE('',#1206,12.5);
#43=CIRCLE('',#1211,17.75);
#44=CIRCLE('',#1213,32.);
#45=CIRCLE('',#1214,32.);
#46=CIRCLE('',#1221,32.);
#47=CIRCLE('',#1223,17.5);
#48=CIRCLE('',#1225,32.);
#49=CIRCLE('',#1226,32.);
#50=CIRCLE('',#1229,10.);
#51=CIRCLE('',#1231,10.);
#52=CIRCLE('',#1234,15.);
#53=CIRCLE('',#1236,32.);
#54=CIRCLE('',#1237,32.);
#55=CIRCLE('',#1239,32.);
#56=CIRCLE('',#1241,32.);
#57=CIRCLE('',#1259,15.);
#58=CYLINDRICAL_SURFACE('',#1161,4.688101);
#59=CYLINDRICAL_SURFACE('',#1164,4.688101);
#60=CYLINDRICAL_SURFACE('',#1167,4.688101);
#61=CYLINDRICAL_SURFACE('',#1170,4.688101);
#62=CYLINDRICAL_SURFACE('',#1175,40.);
#63=CYLINDRICAL_SURFACE('',#1181,16.);
#64=CYLINDRICAL_SURFACE('',#1186,16.);
#65=CYLINDRICAL_SURFACE('',#1191,23.5);
#66=CYLINDRICAL_SURFACE('',#1196,23.5);
#67=CYLINDRICAL_SURFACE('',#1201,15.);
#68=CYLINDRICAL_SURFACE('',#1204,12.5);
#69=CYLINDRICAL_SURFACE('',#1210,17.75);
#70=CYLINDRICAL_SURFACE('',#1212,32.);
#71=CYLINDRICAL_SURFACE('',#1220,32.);
#72=CYLINDRICAL_SURFACE('',#1222,17.5);
#73=CYLINDRICAL_SURFACE('',#1224,32.);
#74=CYLINDRICAL_SURFACE('',#1228,10.);
#75=CYLINDRICAL_SURFACE('',#1230,10.);
#76=CYLINDRICAL_SURFACE('',#1235,32.);
#77=CYLINDRICAL_SURFACE('',#1240,32.);
#78=CYLINDRICAL_SURFACE('',#1258,15.);
#79=STYLED_ITEM('',(#1888),#1076);
#80=STYLED_ITEM('',(#1888),#1077);
#81=STYLED_ITEM('',(#1888),#1078);
#82=STYLED_ITEM('',(#1888),#1079);
#83=STYLED_ITEM('',(#1888),#1080);
#84=STYLED_ITEM('',(#1888),#1081);
#85=STYLED_ITEM('',(#1888),#1082);
#86=STYLED_ITEM('',(#1888),#1083);
#87=STYLED_ITEM('',(#1888),#1084);
#88=STYLED_ITEM('',(#1888),#1085);
#89=STYLED_ITEM('',(#1888),#1086);
#90=STYLED_ITEM('',(#1888),#1087);
#91=STYLED_ITEM('',(#1888),#1088);
#92=STYLED_ITEM('',(#1888),#1089);
#93=STYLED_ITEM('',(#1888),#1090);
#94=STYLED_ITEM('',(#1888),#1091);
#95=STYLED_ITEM('',(#1888),#1092);
#96=STYLED_ITEM('',(#1888),#1093);
#97=STYLED_ITEM('',(#1888),#1094);
#98=STYLED_ITEM('',(#1888),#1095);
#99=STYLED_ITEM('',(#1888),#1096);
#100=STYLED_ITEM('',(#1888),#1097);
#101=STYLED_ITEM('',(#1888),#1098);
#102=STYLED_ITEM('',(#1888),#1099);
#103=STYLED_ITEM('',(#1888),#1100);
#104=STYLED_ITEM('',(#1888),#1101);
#105=STYLED_ITEM('',(#1888),#1102);
#106=STYLED_ITEM('',(#1888),#1103);
#107=STYLED_ITEM('',(#1888),#1104);
#108=STYLED_ITEM('',(#1888),#1105);
#109=STYLED_ITEM('',(#1888),#1106);
#110=STYLED_ITEM('',(#1888),#1107);
#111=STYLED_ITEM('',(#1888),#1108);
#112=STYLED_ITEM('',(#1888),#1109);
#113=STYLED_ITEM('',(#1888),#1110);
#114=STYLED_ITEM('',(#1888),#1111);
#115=STYLED_ITEM('',(#1888),#1112);
#116=STYLED_ITEM('',(#1888),#1113);
#117=STYLED_ITEM('',(#1888),#1114);
#118=STYLED_ITEM('',(#1888),#1115);
#119=STYLED_ITEM('',(#1888),#1116);
#120=STYLED_ITEM('',(#1888),#1117);
#121=STYLED_ITEM('',(#1888),#1118);
#122=STYLED_ITEM('',(#1888),#1119);
#123=STYLED_ITEM('',(#1888),#1120);
#124=STYLED_ITEM('',(#1888),#1121);
#125=STYLED_ITEM('',(#1888),#1122);
#126=STYLED_ITEM('',(#1888),#1123);
#127=STYLED_ITEM('',(#1888),#1124);
#128=STYLED_ITEM('',(#1888),#1125);
#129=STYLED_ITEM('',(#1888),#1126);
#130=STYLED_ITEM('',(#1888),#1127);
#131=STYLED_ITEM('',(#1888),#1128);
#132=STYLED_ITEM('',(#1888),#1129);
#133=STYLED_ITEM('',(#1888),#1130);
#134=STYLED_ITEM('',(#1888),#1131);
#135=STYLED_ITEM('',(#1888),#1132);
#136=STYLED_ITEM('',(#1888),#1133);
#137=STYLED_ITEM('',(#1888),#1134);
#138=STYLED_ITEM('',(#1888),#1135);
#139=STYLED_ITEM('',(#1887),#13);
#140=FACE_BOUND('',#238,.T.);
#141=FACE_BOUND('',#247,.T.);
#142=FACE_BOUND('',#250,.T.);
#143=FACE_BOUND('',#253,.T.);
#144=FACE_BOUND('',#256,.T.);
#145=FACE_BOUND('',#259,.T.);
#146=FACE_BOUND('',#263,.T.);
#147=FACE_BOUND('',#264,.T.);
#148=FACE_BOUND('',#265,.T.);
#149=FACE_BOUND('',#266,.T.);
#150=FACE_BOUND('',#267,.T.);
#151=FACE_BOUND('',#273,.T.);
#152=FACE_BOUND('',#275,.T.);
#153=FACE_BOUND('',#278,.T.);
#154=FACE_BOUND('',#284,.T.);
#155=FACE_BOUND('',#289,.T.);
#156=FACE_BOUND('',#292,.T.);
#157=FACE_BOUND('',#295,.T.);
#158=FACE_BOUND('',#297,.T.);
#159=FACE_BOUND('',#300,.T.);
#160=FACE_BOUND('',#302,.T.);
#161=FACE_BOUND('',#304,.T.);
#162=FACE_BOUND('',#307,.T.);
#163=FACE_BOUND('',#309,.T.);
#164=FACE_BOUND('',#312,.T.);
#165=FACE_BOUND('',#313,.T.);
#166=FACE_BOUND('',#315,.T.);
#167=FACE_BOUND('',#320,.T.);
#168=FACE_BOUND('',#323,.T.);
#169=FACE_BOUND('',#327,.T.);
#170=FACE_BOUND('',#329,.T.);
#171=FACE_BOUND('',#330,.T.);
#172=FACE_BOUND('',#331,.T.);
#173=FACE_BOUND('',#332,.T.);
#174=FACE_BOUND('',#333,.T.);
#175=FACE_OUTER_BOUND('',#237,.T.);
#176=FACE_OUTER_BOUND('',#239,.T.);
#177=FACE_OUTER_BOUND('',#240,.T.);
#178=FACE_OUTER_BOUND('',#241,.T.);
#179=FACE_OUTER_BOUND('',#242,.T.);
#180=FACE_OUTER_BOUND('',#243,.T.);
#181=FACE_OUTER_BOUND('',#244,.T.);
#182=FACE_OUTER_BOUND('',#245,.T.);
#183=FACE_OUTER_BOUND('',#246,.T.);
#184=FACE_OUTER_BOUND('',#248,.T.);
#185=FACE_OUTER_BOUND('',#249,.T.);
#186=FACE_OUTER_BOUND('',#251,.T.);
#187=FACE_OUTER_BOUND('',#252,.T.);
#188=FACE_OUTER_BOUND('',#254,.T.);
#189=FACE_OUTER_BOUND('',#255,.T.);
#190=FACE_OUTER_BOUND('',#257,.T.);
#191=FACE_OUTER_BOUND('',#258,.T.);
#192=FACE_OUTER_BOUND('',#260,.T.);
#193=FACE_OUTER_BOUND('',#261,.T.);
#194=FACE_OUTER_BOUND('',#262,.T.);
#195=FACE_OUTER_BOUND('',#268,.T.);
#196=FACE_OUTER_BOUND('',#269,.T.);
#197=FACE_OUTER_BOUND('',#270,.T.);
#198=FACE_OUTER_BOUND('',#271,.T.);
#199=FACE_OUTER_BOUND('',#272,.T.);
#200=FACE_OUTER_BOUND('',#274,.T.);
#201=FACE_OUTER_BOUND('',#276,.T.);
#202=FACE_OUTER_BOUND('',#277,.T.);
#203=FACE_OUTER_BOUND('',#279,.T.);
#204=FACE_OUTER_BOUND('',#280,.T.);
#205=FACE_OUTER_BOUND('',#281,.T.);
#206=FACE_OUTER_BOUND('',#282,.T.);
#207=FACE_OUTER_BOUND('',#283,.T.);
#208=FACE_OUTER_BOUND('',#285,.T.);
#209=FACE_OUTER_BOUND('',#286,.T.);
#210=FACE_OUTER_BOUND('',#287,.T.);
#211=FACE_OUTER_BOUND('',#288,.T.);
#212=FACE_OUTER_BOUND('',#290,.T.);
#213=FACE_OUTER_BOUND('',#291,.T.);
#214=FACE_OUTER_BOUND('',#293,.T.);
#215=FACE_OUTER_BOUND('',#294,.T.);
#216=FACE_OUTER_BOUND('',#296,.T.);
#217=FACE_OUTER_BOUND('',#298,.T.);
#218=FACE_OUTER_BOUND('',#299,.T.);
#219=FACE_OUTER_BOUND('',#301,.T.);
#220=FACE_OUTER_BOUND('',#303,.T.);
#221=FACE_OUTER_BOUND('',#305,.T.);
#222=FACE_OUTER_BOUND('',#306,.T.);
#223=FACE_OUTER_BOUND('',#308,.T.);
#224=FACE_OUTER_BOUND('',#310,.T.);
#225=FACE_OUTER_BOUND('',#311,.T.);
#226=FACE_OUTER_BOUND('',#314,.T.);
#227=FACE_OUTER_BOUND('',#316,.T.);
#228=FACE_OUTER_BOUND('',#317,.T.);
#229=FACE_OUTER_BOUND('',#318,.T.);
#230=FACE_OUTER_BOUND('',#319,.T.);
#231=FACE_OUTER_BOUND('',#321,.T.);
#232=FACE_OUTER_BOUND('',#322,.T.);
#233=FACE_OUTER_BOUND('',#324,.T.);
#234=FACE_OUTER_BOUND('',#325,.T.);
#235=FACE_OUTER_BOUND('',#326,.T.);
#236=FACE_OUTER_BOUND('',#328,.T.);
#237=EDGE_LOOP('',(#755,#756,#757,#758));
#238=EDGE_LOOP('',(#759,#760,#761,#762));
#239=EDGE_LOOP('',(#763,#764,#765,#766));
#240=EDGE_LOOP('',(#767,#768,#769,#770));
#241=EDGE_LOOP('',(#771,#772,#773,#774));
#242=EDGE_LOOP('',(#775,#776,#777,#778));
#243=EDGE_LOOP('',(#779,#780,#781,#782));
#244=EDGE_LOOP('',(#783,#784));
#245=EDGE_LOOP('',(#785,#786,#787,#788,#789,#790));
#246=EDGE_LOOP('',(#791));
#247=EDGE_LOOP('',(#792));
#248=EDGE_LOOP('',(#793,#794,#795,#796));
#249=EDGE_LOOP('',(#797));
#250=EDGE_LOOP('',(#798));
#251=EDGE_LOOP('',(#799,#800,#801,#802));
#252=EDGE_LOOP('',(#803));
#253=EDGE_LOOP('',(#804));
#254=EDGE_LOOP('',(#805,#806,#807,#808));
#255=EDGE_LOOP('',(#809));
#256=EDGE_LOOP('',(#810));
#257=EDGE_LOOP('',(#811,#812,#813,#814));
#258=EDGE_LOOP('',(#815));
#259=EDGE_LOOP('',(#816));
#260=EDGE_LOOP('',(#817,#818,#819,#820));
#261=EDGE_LOOP('',(#821,#822,#823,#824));
#262=EDGE_LOOP('',(#825,#826,#827,#828));
#263=EDGE_LOOP('',(#829));
#264=EDGE_LOOP('',(#830));
#265=EDGE_LOOP('',(#831));
#266=EDGE_LOOP('',(#832));
#267=EDGE_LOOP('',(#833));
#268=EDGE_LOOP('',(#834,#835,#836,#837));
#269=EDGE_LOOP('',(#838,#839,#840,#841));
#270=EDGE_LOOP('',(#842,#843,#844,#845));
#271=EDGE_LOOP('',(#846,#847,#848,#849));
#272=EDGE_LOOP('',(#850));
#273=EDGE_LOOP('',(#851));
#274=EDGE_LOOP('',(#852,#853,#854,#855,#856,#857));
#275=EDGE_LOOP('',(#858));
#276=EDGE_LOOP('',(#859,#860,#861,#862));
#277=EDGE_LOOP('',(#863,#864,#865,#866));
#278=EDGE_LOOP('',(#867));
#279=EDGE_LOOP('',(#868,#869,#870,#871));
#280=EDGE_LOOP('',(#872,#873,#874,#875));
#281=EDGE_LOOP('',(#876,#877,#878,#879));
#282=EDGE_LOOP('',(#880,#881,#882,#883));
#283=EDGE_LOOP('',(#884));
#284=EDGE_LOOP('',(#885));
#285=EDGE_LOOP('',(#886,#887,#888,#889));
#286=EDGE_LOOP('',(#890,#891,#892,#893));
#287=EDGE_LOOP('',(#894,#895,#896,#897));
#288=EDGE_LOOP('',(#898,#899,#900,#901));
#289=EDGE_LOOP('',(#902));
#290=EDGE_LOOP('',(#903,#904,#905,#906));
#291=EDGE_LOOP('',(#907));
#292=EDGE_LOOP('',(#908));
#293=EDGE_LOOP('',(#909,#910,#911,#912));
#294=EDGE_LOOP('',(#913));
#295=EDGE_LOOP('',(#914));
#296=EDGE_LOOP('',(#915,#916,#917,#918));
#297=EDGE_LOOP('',(#919));
#298=EDGE_LOOP('',(#920,#921,#922,#923));
#299=EDGE_LOOP('',(#924,#925,#926,#927));
#300=EDGE_LOOP('',(#928));
#301=EDGE_LOOP('',(#929,#930,#931,#932));
#302=EDGE_LOOP('',(#933));
#303=EDGE_LOOP('',(#934,#935,#936,#937));
#304=EDGE_LOOP('',(#938));
#305=EDGE_LOOP('',(#939,#940,#941,#942));
#306=EDGE_LOOP('',(#943,#944,#945,#946));
#307=EDGE_LOOP('',(#947));
#308=EDGE_LOOP('',(#948,#949,#950,#951));
#309=EDGE_LOOP('',(#952));
#310=EDGE_LOOP('',(#953,#954,#955,#956,#957,#958,#959,#960));
#311=EDGE_LOOP('',(#961,#962,#963,#964));
#312=EDGE_LOOP('',(#965,#966,#967,#968,#969,#970,#971));
#313=EDGE_LOOP('',(#972,#973,#974,#975,#976,#977,#978,#979));
#314=EDGE_LOOP('',(#980,#981,#982,#983));
#315=EDGE_LOOP('',(#984));
#316=EDGE_LOOP('',(#985,#986,#987,#988));
#317=EDGE_LOOP('',(#989,#990,#991,#992));
#318=EDGE_LOOP('',(#993,#994,#995,#996));
#319=EDGE_LOOP('',(#997,#998,#999,#1000));
#320=EDGE_LOOP('',(#1001));
#321=EDGE_LOOP('',(#1002,#1003,#1004,#1005));
#322=EDGE_LOOP('',(#1006,#1007,#1008,#1009));
#323=EDGE_LOOP('',(#1010));
#324=EDGE_LOOP('',(#1011,#1012,#1013,#1014));
#325=EDGE_LOOP('',(#1015,#1016,#1017,#1018));
#326=EDGE_LOOP('',(#1019,#1020,#1021,#1022));
#327=EDGE_LOOP('',(#1023));
#328=EDGE_LOOP('',(#1024,#1025,#1026,#1027));
#329=EDGE_LOOP('',(#1028));
#330=EDGE_LOOP('',(#1029));
#331=EDGE_LOOP('',(#1030));
#332=EDGE_LOOP('',(#1031));
#333=EDGE_LOOP('',(#1032));
#334=LINE('',#1578,#429);
#335=LINE('',#1580,#430);
#336=LINE('',#1582,#431);
#337=LINE('',#1583,#432);
#338=LINE('',#1586,#433);
#339=LINE('',#1588,#434);
#340=LINE('',#1590,#435);
#341=LINE('',#1591,#436);
#342=LINE('',#1595,#437);
#343=LINE('',#1597,#438);
#344=LINE('',#1599,#439);
#345=LINE('',#1600,#440);
#346=LINE('',#1605,#441);
#347=LINE('',#1611,#442);
#348=LINE('',#1617,#443);
#349=LINE('',#1623,#444);
#350=LINE('',#1628,#445);
#351=LINE('',#1634,#446);
#352=LINE('',#1644,#447);
#353=LINE('',#1653,#448);
#354=LINE('',#1662,#449);
#355=LINE('',#1671,#450);
#356=LINE('',#1680,#451);
#357=LINE('',#1686,#452);
#358=LINE('',#1691,#453);
#359=LINE('',#1693,#454);
#360=LINE('',#1695,#455);
#361=LINE('',#1696,#456);
#362=LINE('',#1699,#457);
#363=LINE('',#1701,#458);
#364=LINE('',#1702,#459);
#365=LINE('',#1705,#460);
#366=LINE('',#1706,#461);
#367=LINE('',#1710,#462);
#368=LINE('',#1715,#463);
#369=LINE('',#1720,#464);
#370=LINE('',#1721,#465);
#371=LINE('',#1723,#466);
#372=LINE('',#1724,#467);
#373=LINE('',#1727,#468);
#374=LINE('',#1728,#469);
#375=LINE('',#1731,#470);
#376=LINE('',#1732,#471);
#377=LINE('',#1734,#472);
#378=LINE('',#1737,#473);
#379=LINE('',#1742,#474);
#380=LINE('',#1747,#475);
#381=LINE('',#1752,#476);
#382=LINE('',#1757,#477);
#383=LINE('',#1760,#478);
#384=LINE('',#1762,#479);
#385=LINE('',#1763,#480);
#386=LINE('',#1766,#481);
#387=LINE('',#1767,#482);
#388=LINE('',#1774,#483);
#389=LINE('',#1781,#484);
#390=LINE('',#1787,#485);
#391=LINE('',#1789,#486);
#392=LINE('',#1791,#487);
#393=LINE('',#1792,#488);
#394=LINE('',#1795,#489);
#395=LINE('',#1797,#490);
#396=LINE('',#1798,#491);
#397=LINE('',#1801,#492);
#398=LINE('',#1803,#493);
#399=LINE('',#1804,#494);
#400=LINE('',#1807,#495);
#401=LINE('',#1809,#496);
#402=LINE('',#1810,#497);
#403=LINE('',#1813,#498);
#404=LINE('',#1815,#499);
#405=LINE('',#1816,#500);
#406=LINE('',#1819,#501);
#407=LINE('',#1821,#502);
#408=LINE('',#1822,#503);
#409=LINE('',#1825,#504);
#410=LINE('',#1827,#505);
#411=LINE('',#1828,#506);
#412=LINE('',#1830,#507);
#413=LINE('',#1831,#508);
#414=LINE('',#1836,#509);
#415=LINE('',#1838,#510);
#416=LINE('',#1840,#511);
#417=LINE('',#1841,#512);
#418=LINE('',#1844,#513);
#419=LINE('',#1845,#514);
#420=LINE('',#1847,#515);
#421=LINE('',#1849,#516);
#422=LINE('',#1850,#517);
#423=LINE('',#1853,#518);
#424=LINE('',#1856,#519);
#425=LINE('',#1859,#520);
#426=LINE('',#1863,#521);
#427=LINE('',#1864,#522);
#428=LINE('',#1866,#523);
#429=VECTOR('',#1269,10.);
#430=VECTOR('',#1270,10.);
#431=VECTOR('',#1271,10.);
#432=VECTOR('',#1272,10.);
#433=VECTOR('',#1273,10.);
#434=VECTOR('',#1274,10.);
#435=VECTOR('',#1275,10.);
#436=VECTOR('',#1276,10.);
#437=VECTOR('',#1279,10.);
#438=VECTOR('',#1280,10.);
#439=VECTOR('',#1281,10.);
#440=VECTOR('',#1282,10.);
#441=VECTOR('',#1287,4.688101);
#442=VECTOR('',#1294,4.688101);
#443=VECTOR('',#1301,4.688101);
#444=VECTOR('',#1308,4.688101);
#445=VECTOR('',#1313,10.);
#446=VECTOR('',#1320,40.);
#447=VECTOR('',#1333,16.);
#448=VECTOR('',#1344,16.);
#449=VECTOR('',#1355,23.5);
#450=VECTOR('',#1366,23.5);
#451=VECTOR('',#1377,15.);
#452=VECTOR('',#1384,12.5);
#453=VECTOR('',#1389,10.);
#454=VECTOR('',#1390,10.);
#455=VECTOR('',#1391,10.);
#456=VECTOR('',#1392,10.);
#457=VECTOR('',#1395,10.);
#458=VECTOR('',#1396,10.);
#459=VECTOR('',#1397,10.);
#460=VECTOR('',#1400,10.);
#461=VECTOR('',#1401,10.);
#462=VECTOR('',#1406,17.75);
#463=VECTOR('',#1411,32.);
#464=VECTOR('',#1418,10.);
#465=VECTOR('',#1419,10.);
#466=VECTOR('',#1420,10.);
#467=VECTOR('',#1421,10.);
#468=VECTOR('',#1424,10.);
#469=VECTOR('',#1425,10.);
#470=VECTOR('',#1428,10.);
#471=VECTOR('',#1429,10.);
#472=VECTOR('',#1432,10.);
#473=VECTOR('',#1435,32.);
#474=VECTOR('',#1442,17.5);
#475=VECTOR('',#1447,32.);
#476=VECTOR('',#1454,10.);
#477=VECTOR('',#1461,10.);
#478=VECTOR('',#1464,10.);
#479=VECTOR('',#1465,10.);
#480=VECTOR('',#1466,10.);
#481=VECTOR('',#1469,10.);
#482=VECTOR('',#1470,10.);
#483=VECTOR('',#1477,32.);
#484=VECTOR('',#1486,32.);
#485=VECTOR('',#1493,10.);
#486=VECTOR('',#1494,10.);
#487=VECTOR('',#1495,10.);
#488=VECTOR('',#1496,10.);
#489=VECTOR('',#1499,10.);
#490=VECTOR('',#1500,10.);
#491=VECTOR('',#1501,10.);
#492=VECTOR('',#1504,10.);
#493=VECTOR('',#1505,10.);
#494=VECTOR('',#1506,10.);
#495=VECTOR('',#1509,10.);
#496=VECTOR('',#1510,10.);
#497=VECTOR('',#1511,10.);
#498=VECTOR('',#1514,10.);
#499=VECTOR('',#1515,10.);
#500=VECTOR('',#1516,10.);
#501=VECTOR('',#1519,10.);
#502=VECTOR('',#1520,10.);
#503=VECTOR('',#1521,10.);
#504=VECTOR('',#1524,10.);
#505=VECTOR('',#1525,10.);
#506=VECTOR('',#1526,10.);
#507=VECTOR('',#1529,10.);
#508=VECTOR('',#1530,10.);
#509=VECTOR('',#1535,10.);
#510=VECTOR('',#1536,10.);
#511=VECTOR('',#1537,10.);
#512=VECTOR('',#1538,10.);
#513=VECTOR('',#1541,10.);
#514=VECTOR('',#1542,10.);
#515=VECTOR('',#1545,10.);
#516=VECTOR('',#1548,10.);
#517=VECTOR('',#1549,10.);
#518=VECTOR('',#1554,10.);
#519=VECTOR('',#1557,15.);
#520=VECTOR('',#1562,10.);
#521=VECTOR('',#1567,10.);
#522=VECTOR('',#1568,10.);
#523=VECTOR('',#1571,10.);
#524=VERTEX_POINT('',#1576);
#525=VERTEX_POINT('',#1577);
#526=VERTEX_POINT('',#1579);
#527=VERTEX_POINT('',#1581);
#528=VERTEX_POINT('',#1584);
#529=VERTEX_POINT('',#1585);
#530=VERTEX_POINT('',#1587);
#531=VERTEX_POINT('',#1589);
#532=VERTEX_POINT('',#1593);
#533=VERTEX_POINT('',#1594);
#534=VERTEX_POINT('',#1596);
#535=VERTEX_POINT('',#1598);
#536=VERTEX_POINT('',#1602);
#537=VERTEX_POINT('',#1604);
#538=VERTEX_POINT('',#1608);
#539=VERTEX_POINT('',#1610);
#540=VERTEX_POINT('',#1614);
#541=VERTEX_POINT('',#1616);
#542=VERTEX_POINT('',#1620);
#543=VERTEX_POINT('',#1622);
#544=VERTEX_POINT('',#1626);
#545=VERTEX_POINT('',#1627);
#546=VERTEX_POINT('',#1631);
#547=VERTEX_POINT('',#1633);
#548=VERTEX_POINT('',#1638);
#549=VERTEX_POINT('',#1641);
#550=VERTEX_POINT('',#1643);
#551=VERTEX_POINT('',#1647);
#552=VERTEX_POINT('',#1650);
#553=VERTEX_POINT('',#1652);
#554=VERTEX_POINT('',#1656);
#555=VERTEX_POINT('',#1659);
#556=VERTEX_POINT('',#1661);
#557=VERTEX_POINT('',#1665);
#558=VERTEX_POINT('',#1668);
#559=VERTEX_POINT('',#1670);
#560=VERTEX_POINT('',#1674);
#561=VERTEX_POINT('',#1677);
#562=VERTEX_POINT('',#1679);
#563=VERTEX_POINT('',#1683);
#564=VERTEX_POINT('',#1685);
#565=VERTEX_POINT('',#1689);
#566=VERTEX_POINT('',#1690);
#567=VERTEX_POINT('',#1692);
#568=VERTEX_POINT('',#1694);
#569=VERTEX_POINT('',#1698);
#570=VERTEX_POINT('',#1700);
#571=VERTEX_POINT('',#1704);
#572=VERTEX_POINT('',#1708);
#573=VERTEX_POINT('',#1712);
#574=VERTEX_POINT('',#1714);
#575=VERTEX_POINT('',#1719);
#576=VERTEX_POINT('',#1722);
#577=VERTEX_POINT('',#1726);
#578=VERTEX_POINT('',#1730);
#579=VERTEX_POINT('',#1736);
#580=VERTEX_POINT('',#1740);
#581=VERTEX_POINT('',#1744);
#582=VERTEX_POINT('',#1746);
#583=VERTEX_POINT('',#1751);
#584=VERTEX_POINT('',#1755);
#585=VERTEX_POINT('',#1759);
#586=VERTEX_POINT('',#1761);
#587=VERTEX_POINT('',#1765);
#588=VERTEX_POINT('',#1768);
#589=VERTEX_POINT('',#1771);
#590=VERTEX_POINT('',#1773);
#591=VERTEX_POINT('',#1777);
#592=VERTEX_POINT('',#1780);
#593=VERTEX_POINT('',#1785);
#594=VERTEX_POINT('',#1786);
#595=VERTEX_POINT('',#1788);
#596=VERTEX_POINT('',#1790);
#597=VERTEX_POINT('',#1794);
#598=VERTEX_POINT('',#1796);
#599=VERTEX_POINT('',#1800);
#600=VERTEX_POINT('',#1802);
#601=VERTEX_POINT('',#1806);
#602=VERTEX_POINT('',#1808);
#603=VERTEX_POINT('',#1812);
#604=VERTEX_POINT('',#1814);
#605=VERTEX_POINT('',#1818);
#606=VERTEX_POINT('',#1820);
#607=VERTEX_POINT('',#1824);
#608=VERTEX_POINT('',#1826);
#609=VERTEX_POINT('',#1834);
#610=VERTEX_POINT('',#1835);
#611=VERTEX_POINT('',#1837);
#612=VERTEX_POINT('',#1839);
#613=VERTEX_POINT('',#1843);
#614=VERTEX_POINT('',#1855);
#615=VERTEX_POINT('',#1862);
#616=EDGE_CURVE('',#524,#525,#334,.F.);
#617=EDGE_CURVE('',#526,#524,#335,.F.);
#618=EDGE_CURVE('',#527,#526,#336,.F.);
#619=EDGE_CURVE('',#525,#527,#337,.F.);
#620=EDGE_CURVE('',#528,#529,#338,.T.);
#621=EDGE_CURVE('',#529,#530,#339,.T.);
#622=EDGE_CURVE('',#530,#531,#340,.T.);
#623=EDGE_CURVE('',#531,#528,#341,.T.);
#624=EDGE_CURVE('',#532,#533,#342,.T.);
#625=EDGE_CURVE('',#533,#534,#343,.T.);
#626=EDGE_CURVE('',#534,#535,#344,.T.);
#627=EDGE_CURVE('',#535,#532,#345,.T.);
#628=EDGE_CURVE('',#536,#536,#14,.T.);
#629=EDGE_CURVE('',#536,#537,#346,.T.);
#630=EDGE_CURVE('',#537,#537,#15,.T.);
#631=EDGE_CURVE('',#538,#538,#16,.T.);
#632=EDGE_CURVE('',#538,#539,#347,.T.);
#633=EDGE_CURVE('',#539,#539,#17,.T.);
#634=EDGE_CURVE('',#540,#540,#18,.T.);
#635=EDGE_CURVE('',#540,#541,#348,.T.);
#636=EDGE_CURVE('',#541,#541,#19,.T.);
#637=EDGE_CURVE('',#542,#542,#20,.T.);
#638=EDGE_CURVE('',#542,#543,#349,.T.);
#639=EDGE_CURVE('',#543,#543,#21,.T.);
#640=EDGE_CURVE('',#544,#545,#350,.T.);
#641=EDGE_CURVE('',#544,#545,#22,.T.);
#642=EDGE_CURVE('',#546,#545,#23,.T.);
#643=EDGE_CURVE('',#546,#547,#351,.T.);
#644=EDGE_CURVE('',#547,#547,#24,.T.);
#645=EDGE_CURVE('',#544,#546,#25,.T.);
#646=EDGE_CURVE('',#548,#548,#26,.T.);
#647=EDGE_CURVE('',#549,#549,#27,.T.);
#648=EDGE_CURVE('',#549,#550,#352,.T.);
#649=EDGE_CURVE('',#550,#550,#28,.T.);
#650=EDGE_CURVE('',#551,#551,#29,.T.);
#651=EDGE_CURVE('',#552,#552,#30,.T.);
#652=EDGE_CURVE('',#552,#553,#353,.T.);
#653=EDGE_CURVE('',#553,#553,#31,.T.);
#654=EDGE_CURVE('',#554,#554,#32,.T.);
#655=EDGE_CURVE('',#555,#555,#33,.T.);
#656=EDGE_CURVE('',#555,#556,#354,.T.);
#657=EDGE_CURVE('',#556,#556,#34,.T.);
#658=EDGE_CURVE('',#557,#557,#35,.T.);
#659=EDGE_CURVE('',#558,#558,#36,.T.);
#660=EDGE_CURVE('',#558,#559,#355,.T.);
#661=EDGE_CURVE('',#559,#559,#37,.T.);
#662=EDGE_CURVE('',#560,#560,#38,.T.);
#663=EDGE_CURVE('',#561,#561,#39,.T.);
#664=EDGE_CURVE('',#561,#562,#356,.T.);
#665=EDGE_CURVE('',#562,#562,#40,.T.);
#666=EDGE_CURVE('',#563,#563,#41,.T.);
#667=EDGE_CURVE('',#563,#564,#357,.T.);
#668=EDGE_CURVE('',#564,#564,#42,.T.);
#669=EDGE_CURVE('',#565,#566,#358,.T.);
#670=EDGE_CURVE('',#567,#565,#359,.T.);
#671=EDGE_CURVE('',#568,#567,#360,.T.);
#672=EDGE_CURVE('',#566,#568,#361,.T.);
#673=EDGE_CURVE('',#567,#569,#362,.F.);
#674=EDGE_CURVE('',#569,#570,#363,.T.);
#675=EDGE_CURVE('',#568,#570,#364,.T.);
#676=EDGE_CURVE('',#565,#571,#365,.F.);
#677=EDGE_CURVE('',#571,#569,#366,.T.);
#678=EDGE_CURVE('',#572,#572,#43,.T.);
#679=EDGE_CURVE('',#572,#560,#367,.T.);
#680=EDGE_CURVE('',#573,#573,#44,.T.);
#681=EDGE_CURVE('',#573,#574,#368,.T.);
#682=EDGE_CURVE('',#574,#574,#45,.T.);
#683=EDGE_CURVE('',#575,#544,#369,.T.);
#684=EDGE_CURVE('',#575,#529,#370,.T.);
#685=EDGE_CURVE('',#576,#528,#371,.T.);
#686=EDGE_CURVE('',#545,#576,#372,.T.);
#687=EDGE_CURVE('',#576,#577,#373,.T.);
#688=EDGE_CURVE('',#577,#531,#374,.T.);
#689=EDGE_CURVE('',#577,#578,#375,.T.);
#690=EDGE_CURVE('',#578,#530,#376,.T.);
#691=EDGE_CURVE('',#578,#575,#377,.T.);
#692=EDGE_CURVE('',#548,#579,#378,.T.);
#693=EDGE_CURVE('',#579,#579,#46,.T.);
#694=EDGE_CURVE('',#580,#580,#47,.T.);
#695=EDGE_CURVE('',#580,#557,#379,.T.);
#696=EDGE_CURVE('',#581,#581,#48,.T.);
#697=EDGE_CURVE('',#581,#582,#380,.T.);
#698=EDGE_CURVE('',#582,#582,#49,.T.);
#699=EDGE_CURVE('',#554,#583,#381,.T.);
#700=EDGE_CURVE('',#583,#583,#50,.T.);
#701=EDGE_CURVE('',#584,#584,#51,.T.);
#702=EDGE_CURVE('',#584,#551,#382,.T.);
#703=EDGE_CURVE('',#585,#533,#383,.T.);
#704=EDGE_CURVE('',#585,#586,#384,.T.);
#705=EDGE_CURVE('',#586,#534,#385,.T.);
#706=EDGE_CURVE('',#587,#532,#386,.T.);
#707=EDGE_CURVE('',#587,#585,#387,.T.);
#708=EDGE_CURVE('',#588,#588,#52,.T.);
#709=EDGE_CURVE('',#589,#589,#53,.T.);
#710=EDGE_CURVE('',#589,#590,#388,.T.);
#711=EDGE_CURVE('',#590,#590,#54,.T.);
#712=EDGE_CURVE('',#591,#591,#55,.T.);
#713=EDGE_CURVE('',#591,#592,#389,.T.);
#714=EDGE_CURVE('',#592,#592,#56,.T.);
#715=EDGE_CURVE('',#593,#594,#390,.T.);
#716=EDGE_CURVE('',#593,#595,#391,.T.);
#717=EDGE_CURVE('',#596,#595,#392,.T.);
#718=EDGE_CURVE('',#594,#596,#393,.T.);
#719=EDGE_CURVE('',#594,#597,#394,.T.);
#720=EDGE_CURVE('',#598,#596,#395,.T.);
#721=EDGE_CURVE('',#597,#598,#396,.T.);
#722=EDGE_CURVE('',#597,#599,#397,.T.);
#723=EDGE_CURVE('',#600,#598,#398,.T.);
#724=EDGE_CURVE('',#599,#600,#399,.T.);
#725=EDGE_CURVE('',#599,#601,#400,.T.);
#726=EDGE_CURVE('',#602,#600,#401,.T.);
#727=EDGE_CURVE('',#601,#602,#402,.T.);
#728=EDGE_CURVE('',#601,#603,#403,.T.);
#729=EDGE_CURVE('',#604,#602,#404,.T.);
#730=EDGE_CURVE('',#603,#604,#405,.T.);
#731=EDGE_CURVE('',#603,#605,#406,.T.);
#732=EDGE_CURVE('',#606,#604,#407,.T.);
#733=EDGE_CURVE('',#605,#606,#408,.T.);
#734=EDGE_CURVE('',#605,#607,#409,.T.);
#735=EDGE_CURVE('',#608,#606,#410,.T.);
#736=EDGE_CURVE('',#607,#608,#411,.T.);
#737=EDGE_CURVE('',#607,#593,#412,.T.);
#738=EDGE_CURVE('',#595,#608,#413,.T.);
#739=EDGE_CURVE('',#609,#610,#414,.T.);
#740=EDGE_CURVE('',#611,#609,#415,.T.);
#741=EDGE_CURVE('',#612,#611,#416,.T.);
#742=EDGE_CURVE('',#610,#612,#417,.T.);
#743=EDGE_CURVE('',#613,#571,#418,.T.);
#744=EDGE_CURVE('',#570,#613,#419,.T.);
#745=EDGE_CURVE('',#566,#613,#420,.F.);
#746=EDGE_CURVE('',#609,#524,#421,.T.);
#747=EDGE_CURVE('',#611,#525,#422,.F.);
#748=EDGE_CURVE('',#612,#527,#423,.F.);
#749=EDGE_CURVE('',#588,#614,#424,.T.);
#750=EDGE_CURVE('',#614,#614,#57,.T.);
#751=EDGE_CURVE('',#610,#526,#425,.F.);
#752=EDGE_CURVE('',#615,#535,#426,.T.);
#753=EDGE_CURVE('',#615,#587,#427,.T.);
#754=EDGE_CURVE('',#586,#615,#428,.T.);
#755=ORIENTED_EDGE('',*,*,#616,.F.);
#756=ORIENTED_EDGE('',*,*,#617,.F.);
#757=ORIENTED_EDGE('',*,*,#618,.F.);
#758=ORIENTED_EDGE('',*,*,#619,.F.);
#759=ORIENTED_EDGE('',*,*,#620,.T.);
#760=ORIENTED_EDGE('',*,*,#621,.T.);
#761=ORIENTED_EDGE('',*,*,#622,.T.);
#762=ORIENTED_EDGE('',*,*,#623,.T.);
#763=ORIENTED_EDGE('',*,*,#624,.T.);
#764=ORIENTED_EDGE('',*,*,#625,.T.);
#765=ORIENTED_EDGE('',*,*,#626,.T.);
#766=ORIENTED_EDGE('',*,*,#627,.T.);
#767=ORIENTED_EDGE('',*,*,#628,.F.);
#768=ORIENTED_EDGE('',*,*,#629,.T.);
#769=ORIENTED_EDGE('',*,*,#630,.F.);
#770=ORIENTED_EDGE('',*,*,#629,.F.);
#771=ORIENTED_EDGE('',*,*,#631,.F.);
#772=ORIENTED_EDGE('',*,*,#632,.T.);
#773=ORIENTED_EDGE('',*,*,#633,.F.);
#774=ORIENTED_EDGE('',*,*,#632,.F.);
#775=ORIENTED_EDGE('',*,*,#634,.F.);
#776=ORIENTED_EDGE('',*,*,#635,.T.);
#777=ORIENTED_EDGE('',*,*,#636,.F.);
#778=ORIENTED_EDGE('',*,*,#635,.F.);
#779=ORIENTED_EDGE('',*,*,#637,.F.);
#780=ORIENTED_EDGE('',*,*,#638,.T.);
#781=ORIENTED_EDGE('',*,*,#639,.F.);
#782=ORIENTED_EDGE('',*,*,#638,.F.);
#783=ORIENTED_EDGE('',*,*,#640,.T.);
#784=ORIENTED_EDGE('',*,*,#641,.F.);
#785=ORIENTED_EDGE('',*,*,#641,.T.);
#786=ORIENTED_EDGE('',*,*,#642,.F.);
#787=ORIENTED_EDGE('',*,*,#643,.T.);
#788=ORIENTED_EDGE('',*,*,#644,.T.);
#789=ORIENTED_EDGE('',*,*,#643,.F.);
#790=ORIENTED_EDGE('',*,*,#645,.F.);
#791=ORIENTED_EDGE('',*,*,#644,.F.);
#792=ORIENTED_EDGE('',*,*,#646,.F.);
#793=ORIENTED_EDGE('',*,*,#647,.F.);
#794=ORIENTED_EDGE('',*,*,#648,.T.);
#795=ORIENTED_EDGE('',*,*,#649,.T.);
#796=ORIENTED_EDGE('',*,*,#648,.F.);
#797=ORIENTED_EDGE('',*,*,#649,.F.);
#798=ORIENTED_EDGE('',*,*,#650,.F.);
#799=ORIENTED_EDGE('',*,*,#651,.F.);
#800=ORIENTED_EDGE('',*,*,#652,.T.);
#801=ORIENTED_EDGE('',*,*,#653,.T.);
#802=ORIENTED_EDGE('',*,*,#652,.F.);
#803=ORIENTED_EDGE('',*,*,#653,.F.);
#804=ORIENTED_EDGE('',*,*,#654,.F.);
#805=ORIENTED_EDGE('',*,*,#655,.F.);
#806=ORIENTED_EDGE('',*,*,#656,.T.);
#807=ORIENTED_EDGE('',*,*,#657,.T.);
#808=ORIENTED_EDGE('',*,*,#656,.F.);
#809=ORIENTED_EDGE('',*,*,#657,.F.);
#810=ORIENTED_EDGE('',*,*,#658,.F.);
#811=ORIENTED_EDGE('',*,*,#659,.F.);
#812=ORIENTED_EDGE('',*,*,#660,.T.);
#813=ORIENTED_EDGE('',*,*,#661,.T.);
#814=ORIENTED_EDGE('',*,*,#660,.F.);
#815=ORIENTED_EDGE('',*,*,#661,.F.);
#816=ORIENTED_EDGE('',*,*,#662,.F.);
#817=ORIENTED_EDGE('',*,*,#663,.F.);
#818=ORIENTED_EDGE('',*,*,#664,.T.);
#819=ORIENTED_EDGE('',*,*,#665,.F.);
#820=ORIENTED_EDGE('',*,*,#664,.F.);
#821=ORIENTED_EDGE('',*,*,#666,.F.);
#822=ORIENTED_EDGE('',*,*,#667,.T.);
#823=ORIENTED_EDGE('',*,*,#668,.F.);
#824=ORIENTED_EDGE('',*,*,#667,.F.);
#825=ORIENTED_EDGE('',*,*,#669,.F.);
#826=ORIENTED_EDGE('',*,*,#670,.F.);
#827=ORIENTED_EDGE('',*,*,#671,.F.);
#828=ORIENTED_EDGE('',*,*,#672,.F.);
#829=ORIENTED_EDGE('',*,*,#630,.T.);
#830=ORIENTED_EDGE('',*,*,#633,.T.);
#831=ORIENTED_EDGE('',*,*,#636,.T.);
#832=ORIENTED_EDGE('',*,*,#639,.T.);
#833=ORIENTED_EDGE('',*,*,#666,.T.);
#834=ORIENTED_EDGE('',*,*,#671,.T.);
#835=ORIENTED_EDGE('',*,*,#673,.T.);
#836=ORIENTED_EDGE('',*,*,#674,.T.);
#837=ORIENTED_EDGE('',*,*,#675,.F.);
#838=ORIENTED_EDGE('',*,*,#670,.T.);
#839=ORIENTED_EDGE('',*,*,#676,.T.);
#840=ORIENTED_EDGE('',*,*,#677,.T.);
#841=ORIENTED_EDGE('',*,*,#673,.F.);
#842=ORIENTED_EDGE('',*,*,#678,.F.);
#843=ORIENTED_EDGE('',*,*,#679,.T.);
#844=ORIENTED_EDGE('',*,*,#662,.T.);
#845=ORIENTED_EDGE('',*,*,#679,.F.);
#846=ORIENTED_EDGE('',*,*,#680,.F.);
#847=ORIENTED_EDGE('',*,*,#681,.T.);
#848=ORIENTED_EDGE('',*,*,#682,.T.);
#849=ORIENTED_EDGE('',*,*,#681,.F.);
#850=ORIENTED_EDGE('',*,*,#682,.F.);
#851=ORIENTED_EDGE('',*,*,#678,.T.);
#852=ORIENTED_EDGE('',*,*,#683,.F.);
#853=ORIENTED_EDGE('',*,*,#684,.T.);
#854=ORIENTED_EDGE('',*,*,#620,.F.);
#855=ORIENTED_EDGE('',*,*,#685,.F.);
#856=ORIENTED_EDGE('',*,*,#686,.F.);
#857=ORIENTED_EDGE('',*,*,#640,.F.);
#858=ORIENTED_EDGE('',*,*,#680,.T.);
#859=ORIENTED_EDGE('',*,*,#687,.F.);
#860=ORIENTED_EDGE('',*,*,#685,.T.);
#861=ORIENTED_EDGE('',*,*,#623,.F.);
#862=ORIENTED_EDGE('',*,*,#688,.F.);
#863=ORIENTED_EDGE('',*,*,#689,.F.);
#864=ORIENTED_EDGE('',*,*,#688,.T.);
#865=ORIENTED_EDGE('',*,*,#622,.F.);
#866=ORIENTED_EDGE('',*,*,#690,.F.);
#867=ORIENTED_EDGE('',*,*,#659,.T.);
#868=ORIENTED_EDGE('',*,*,#691,.F.);
#869=ORIENTED_EDGE('',*,*,#690,.T.);
#870=ORIENTED_EDGE('',*,*,#621,.F.);
#871=ORIENTED_EDGE('',*,*,#684,.F.);
#872=ORIENTED_EDGE('',*,*,#646,.T.);
#873=ORIENTED_EDGE('',*,*,#692,.T.);
#874=ORIENTED_EDGE('',*,*,#693,.F.);
#875=ORIENTED_EDGE('',*,*,#692,.F.);
#876=ORIENTED_EDGE('',*,*,#694,.F.);
#877=ORIENTED_EDGE('',*,*,#695,.T.);
#878=ORIENTED_EDGE('',*,*,#658,.T.);
#879=ORIENTED_EDGE('',*,*,#695,.F.);
#880=ORIENTED_EDGE('',*,*,#696,.F.);
#881=ORIENTED_EDGE('',*,*,#697,.T.);
#882=ORIENTED_EDGE('',*,*,#698,.T.);
#883=ORIENTED_EDGE('',*,*,#697,.F.);
#884=ORIENTED_EDGE('',*,*,#698,.F.);
#885=ORIENTED_EDGE('',*,*,#694,.T.);
#886=ORIENTED_EDGE('',*,*,#654,.T.);
#887=ORIENTED_EDGE('',*,*,#699,.T.);
#888=ORIENTED_EDGE('',*,*,#700,.F.);
#889=ORIENTED_EDGE('',*,*,#699,.F.);
#890=ORIENTED_EDGE('',*,*,#701,.F.);
#891=ORIENTED_EDGE('',*,*,#702,.T.);
#892=ORIENTED_EDGE('',*,*,#650,.T.);
#893=ORIENTED_EDGE('',*,*,#702,.F.);
#894=ORIENTED_EDGE('',*,*,#703,.F.);
#895=ORIENTED_EDGE('',*,*,#704,.T.);
#896=ORIENTED_EDGE('',*,*,#705,.T.);
#897=ORIENTED_EDGE('',*,*,#625,.F.);
#898=ORIENTED_EDGE('',*,*,#706,.F.);
#899=ORIENTED_EDGE('',*,*,#707,.T.);
#900=ORIENTED_EDGE('',*,*,#703,.T.);
#901=ORIENTED_EDGE('',*,*,#624,.F.);
#902=ORIENTED_EDGE('',*,*,#708,.T.);
#903=ORIENTED_EDGE('',*,*,#709,.F.);
#904=ORIENTED_EDGE('',*,*,#710,.T.);
#905=ORIENTED_EDGE('',*,*,#711,.T.);
#906=ORIENTED_EDGE('',*,*,#710,.F.);
#907=ORIENTED_EDGE('',*,*,#712,.F.);
#908=ORIENTED_EDGE('',*,*,#701,.T.);
#909=ORIENTED_EDGE('',*,*,#712,.T.);
#910=ORIENTED_EDGE('',*,*,#713,.T.);
#911=ORIENTED_EDGE('',*,*,#714,.F.);
#912=ORIENTED_EDGE('',*,*,#713,.F.);
#913=ORIENTED_EDGE('',*,*,#711,.F.);
#914=ORIENTED_EDGE('',*,*,#700,.T.);
#915=ORIENTED_EDGE('',*,*,#715,.F.);
#916=ORIENTED_EDGE('',*,*,#716,.T.);
#917=ORIENTED_EDGE('',*,*,#717,.F.);
#918=ORIENTED_EDGE('',*,*,#718,.F.);
#919=ORIENTED_EDGE('',*,*,#647,.T.);
#920=ORIENTED_EDGE('',*,*,#719,.F.);
#921=ORIENTED_EDGE('',*,*,#718,.T.);
#922=ORIENTED_EDGE('',*,*,#720,.F.);
#923=ORIENTED_EDGE('',*,*,#721,.F.);
#924=ORIENTED_EDGE('',*,*,#722,.F.);
#925=ORIENTED_EDGE('',*,*,#721,.T.);
#926=ORIENTED_EDGE('',*,*,#723,.F.);
#927=ORIENTED_EDGE('',*,*,#724,.F.);
#928=ORIENTED_EDGE('',*,*,#714,.T.);
#929=ORIENTED_EDGE('',*,*,#725,.F.);
#930=ORIENTED_EDGE('',*,*,#724,.T.);
#931=ORIENTED_EDGE('',*,*,#726,.F.);
#932=ORIENTED_EDGE('',*,*,#727,.F.);
#933=ORIENTED_EDGE('',*,*,#696,.T.);
#934=ORIENTED_EDGE('',*,*,#728,.F.);
#935=ORIENTED_EDGE('',*,*,#727,.T.);
#936=ORIENTED_EDGE('',*,*,#729,.F.);
#937=ORIENTED_EDGE('',*,*,#730,.F.);
#938=ORIENTED_EDGE('',*,*,#709,.T.);
#939=ORIENTED_EDGE('',*,*,#731,.F.);
#940=ORIENTED_EDGE('',*,*,#730,.T.);
#941=ORIENTED_EDGE('',*,*,#732,.F.);
#942=ORIENTED_EDGE('',*,*,#733,.F.);
#943=ORIENTED_EDGE('',*,*,#734,.F.);
#944=ORIENTED_EDGE('',*,*,#733,.T.);
#945=ORIENTED_EDGE('',*,*,#735,.F.);
#946=ORIENTED_EDGE('',*,*,#736,.F.);
#947=ORIENTED_EDGE('',*,*,#651,.T.);
#948=ORIENTED_EDGE('',*,*,#737,.F.);
#949=ORIENTED_EDGE('',*,*,#736,.T.);
#950=ORIENTED_EDGE('',*,*,#738,.F.);
#951=ORIENTED_EDGE('',*,*,#716,.F.);
#952=ORIENTED_EDGE('',*,*,#655,.T.);
#953=ORIENTED_EDGE('',*,*,#738,.T.);
#954=ORIENTED_EDGE('',*,*,#735,.T.);
#955=ORIENTED_EDGE('',*,*,#732,.T.);
#956=ORIENTED_EDGE('',*,*,#729,.T.);
#957=ORIENTED_EDGE('',*,*,#726,.T.);
#958=ORIENTED_EDGE('',*,*,#723,.T.);
#959=ORIENTED_EDGE('',*,*,#720,.T.);
#960=ORIENTED_EDGE('',*,*,#717,.T.);
#961=ORIENTED_EDGE('',*,*,#739,.F.);
#962=ORIENTED_EDGE('',*,*,#740,.F.);
#963=ORIENTED_EDGE('',*,*,#741,.F.);
#964=ORIENTED_EDGE('',*,*,#742,.F.);
#965=ORIENTED_EDGE('',*,*,#645,.T.);
#966=ORIENTED_EDGE('',*,*,#642,.T.);
#967=ORIENTED_EDGE('',*,*,#686,.T.);
#968=ORIENTED_EDGE('',*,*,#687,.T.);
#969=ORIENTED_EDGE('',*,*,#689,.T.);
#970=ORIENTED_EDGE('',*,*,#691,.T.);
#971=ORIENTED_EDGE('',*,*,#683,.T.);
#972=ORIENTED_EDGE('',*,*,#715,.T.);
#973=ORIENTED_EDGE('',*,*,#719,.T.);
#974=ORIENTED_EDGE('',*,*,#722,.T.);
#975=ORIENTED_EDGE('',*,*,#725,.T.);
#976=ORIENTED_EDGE('',*,*,#728,.T.);
#977=ORIENTED_EDGE('',*,*,#731,.T.);
#978=ORIENTED_EDGE('',*,*,#734,.T.);
#979=ORIENTED_EDGE('',*,*,#737,.T.);
#980=ORIENTED_EDGE('',*,*,#674,.F.);
#981=ORIENTED_EDGE('',*,*,#677,.F.);
#982=ORIENTED_EDGE('',*,*,#743,.F.);
#983=ORIENTED_EDGE('',*,*,#744,.F.);
#984=ORIENTED_EDGE('',*,*,#693,.T.);
#985=ORIENTED_EDGE('',*,*,#672,.T.);
#986=ORIENTED_EDGE('',*,*,#675,.T.);
#987=ORIENTED_EDGE('',*,*,#744,.T.);
#988=ORIENTED_EDGE('',*,*,#745,.F.);
#989=ORIENTED_EDGE('',*,*,#740,.T.);
#990=ORIENTED_EDGE('',*,*,#746,.T.);
#991=ORIENTED_EDGE('',*,*,#616,.T.);
#992=ORIENTED_EDGE('',*,*,#747,.F.);
#993=ORIENTED_EDGE('',*,*,#669,.T.);
#994=ORIENTED_EDGE('',*,*,#745,.T.);
#995=ORIENTED_EDGE('',*,*,#743,.T.);
#996=ORIENTED_EDGE('',*,*,#676,.F.);
#997=ORIENTED_EDGE('',*,*,#741,.T.);
#998=ORIENTED_EDGE('',*,*,#747,.T.);
#999=ORIENTED_EDGE('',*,*,#619,.T.);
#1000=ORIENTED_EDGE('',*,*,#748,.F.);
#1001=ORIENTED_EDGE('',*,*,#665,.T.);
#1002=ORIENTED_EDGE('',*,*,#708,.F.);
#1003=ORIENTED_EDGE('',*,*,#749,.T.);
#1004=ORIENTED_EDGE('',*,*,#750,.F.);
#1005=ORIENTED_EDGE('',*,*,#749,.F.);
#1006=ORIENTED_EDGE('',*,*,#739,.T.);
#1007=ORIENTED_EDGE('',*,*,#751,.T.);
#1008=ORIENTED_EDGE('',*,*,#617,.T.);
#1009=ORIENTED_EDGE('',*,*,#746,.F.);
#1010=ORIENTED_EDGE('',*,*,#750,.T.);
#1011=ORIENTED_EDGE('',*,*,#742,.T.);
#1012=ORIENTED_EDGE('',*,*,#748,.T.);
#1013=ORIENTED_EDGE('',*,*,#618,.T.);
#1014=ORIENTED_EDGE('',*,*,#751,.F.);
#1015=ORIENTED_EDGE('',*,*,#752,.F.);
#1016=ORIENTED_EDGE('',*,*,#753,.T.);
#1017=ORIENTED_EDGE('',*,*,#706,.T.);
#1018=ORIENTED_EDGE('',*,*,#627,.F.);
#1019=ORIENTED_EDGE('',*,*,#705,.F.);
#1020=ORIENTED_EDGE('',*,*,#754,.T.);
#1021=ORIENTED_EDGE('',*,*,#752,.T.);
#1022=ORIENTED_EDGE('',*,*,#626,.F.);
#1023=ORIENTED_EDGE('',*,*,#663,.T.);
#1024=ORIENTED_EDGE('',*,*,#704,.F.);
#1025=ORIENTED_EDGE('',*,*,#707,.F.);
#1026=ORIENTED_EDGE('',*,*,#753,.F.);
#1027=ORIENTED_EDGE('',*,*,#754,.F.);
#1028=ORIENTED_EDGE('',*,*,#628,.T.);
#1029=ORIENTED_EDGE('',*,*,#631,.T.);
#1030=ORIENTED_EDGE('',*,*,#634,.T.);
#1031=ORIENTED_EDGE('',*,*,#637,.T.);
#1032=ORIENTED_EDGE('',*,*,#668,.T.);
#1033=PLANE('',#1159);
#1034=PLANE('',#1160);
#1035=PLANE('',#1173);
#1036=PLANE('',#1179);
#1037=PLANE('',#1184);
#1038=PLANE('',#1189);
#1039=PLANE('',#1194);
#1040=PLANE('',#1199);
#1041=PLANE('',#1207);
#1042=PLANE('',#1208);
#1043=PLANE('',#1209);
#1044=PLANE('',#1215);
#1045=PLANE('',#1216);
#1046=PLANE('',#1217);
#1047=PLANE('',#1218);
#1048=PLANE('',#1219);
#1049=PLANE('',#1227);
#1050=PLANE('',#1232);
#1051=PLANE('',#1233);
#1052=PLANE('',#1238);
#1053=PLANE('',#1242);
#1054=PLANE('',#1243);
#1055=PLANE('',#1244);
#1056=PLANE('',#1245);
#1057=PLANE('',#1246);
#1058=PLANE('',#1247);
#1059=PLANE('',#1248);
#1060=PLANE('',#1249);
#1061=PLANE('',#1250);
#1062=PLANE('',#1251);
#1063=PLANE('',#1252);
#1064=PLANE('',#1253);
#1065=PLANE('',#1254);
#1066=PLANE('',#1255);
#1067=PLANE('',#1256);
#1068=PLANE('',#1257);
#1069=PLANE('',#1260);
#1070=PLANE('',#1261);
#1071=PLANE('',#1262);
#1072=PLANE('',#1263);
#1073=PLANE('',#1264);
#1074=ADVANCED_FACE('',(#175,#140),#1033,.F.);
#1075=ADVANCED_FACE('',(#176),#1034,.T.);
#1076=ADVANCED_FACE('',(#177),#58,.F.);
#1077=ADVANCED_FACE('',(#178),#59,.F.);
#1078=ADVANCED_FACE('',(#179),#60,.F.);
#1079=ADVANCED_FACE('',(#180),#61,.F.);
#1080=ADVANCED_FACE('',(#181),#1035,.F.);
#1081=ADVANCED_FACE('',(#182),#62,.F.);
#1082=ADVANCED_FACE('',(#183,#141),#1036,.T.);
#1083=ADVANCED_FACE('',(#184),#63,.F.);
#1084=ADVANCED_FACE('',(#185,#142),#1037,.T.);
#1085=ADVANCED_FACE('',(#186),#64,.F.);
#1086=ADVANCED_FACE('',(#187,#143),#1038,.T.);
#1087=ADVANCED_FACE('',(#188),#65,.F.);
#1088=ADVANCED_FACE('',(#189,#144),#1039,.T.);
#1089=ADVANCED_FACE('',(#190),#66,.F.);
#1090=ADVANCED_FACE('',(#191,#145),#1040,.T.);
#1091=ADVANCED_FACE('',(#192),#67,.F.);
#1092=ADVANCED_FACE('',(#193),#68,.F.);
#1093=ADVANCED_FACE('',(#194,#146,#147,#148,#149,#150),#1041,.F.);
#1094=ADVANCED_FACE('',(#195),#1042,.F.);
#1095=ADVANCED_FACE('',(#196),#1043,.F.);
#1096=ADVANCED_FACE('',(#197),#69,.F.);
#1097=ADVANCED_FACE('',(#198),#70,.F.);
#1098=ADVANCED_FACE('',(#199,#151),#1044,.T.);
#1099=ADVANCED_FACE('',(#200,#152),#1045,.T.);
#1100=ADVANCED_FACE('',(#201),#1046,.T.);
#1101=ADVANCED_FACE('',(#202,#153),#1047,.T.);
#1102=ADVANCED_FACE('',(#203),#1048,.T.);
#1103=ADVANCED_FACE('',(#204),#71,.F.);
#1104=ADVANCED_FACE('',(#205),#72,.F.);
#1105=ADVANCED_FACE('',(#206),#73,.F.);
#1106=ADVANCED_FACE('',(#207,#154),#1049,.T.);
#1107=ADVANCED_FACE('',(#208),#74,.F.);
#1108=ADVANCED_FACE('',(#209),#75,.F.);
#1109=ADVANCED_FACE('',(#210),#1050,.T.);
#1110=ADVANCED_FACE('',(#211,#155),#1051,.T.);
#1111=ADVANCED_FACE('',(#212),#76,.F.);
#1112=ADVANCED_FACE('',(#213,#156),#1052,.T.);
#1113=ADVANCED_FACE('',(#214),#77,.F.);
#1114=ADVANCED_FACE('',(#215,#157),#1053,.F.);
#1115=ADVANCED_FACE('',(#216,#158),#1054,.T.);
#1116=ADVANCED_FACE('',(#217),#1055,.T.);
#1117=ADVANCED_FACE('',(#218,#159),#1056,.T.);
#1118=ADVANCED_FACE('',(#219,#160),#1057,.T.);
#1119=ADVANCED_FACE('',(#220,#161),#1058,.T.);
#1120=ADVANCED_FACE('',(#221),#1059,.T.);
#1121=ADVANCED_FACE('',(#222,#162),#1060,.T.);
#1122=ADVANCED_FACE('',(#223,#163),#1061,.T.);
#1123=ADVANCED_FACE('',(#224),#1062,.T.);
#1124=ADVANCED_FACE('',(#225,#164,#165),#1063,.T.);
#1125=ADVANCED_FACE('',(#226,#166),#1064,.T.);
#1126=ADVANCED_FACE('',(#227),#1065,.F.);
#1127=ADVANCED_FACE('',(#228),#1066,.F.);
#1128=ADVANCED_FACE('',(#229),#1067,.F.);
#1129=ADVANCED_FACE('',(#230,#167),#1068,.F.);
#1130=ADVANCED_FACE('',(#231),#78,.F.);
#1131=ADVANCED_FACE('',(#232,#168),#1069,.F.);
#1132=ADVANCED_FACE('',(#233),#1070,.F.);
#1133=ADVANCED_FACE('',(#234),#1071,.T.);
#1134=ADVANCED_FACE('',(#235,#169),#1072,.T.);
#1135=ADVANCED_FACE('',(#236,#170,#171,#172,#173,#174),#1073,.F.);
#1136=CLOSED_SHELL('',(#1074,#1075,#1076,#1077,#1078,#1079,#1080,#1081,
#1082,#1083,#1084,#1085,#1086,#1087,#1088,#1089,#1090,#1091,#1092,#1093,
#1094,#1095,#1096,#1097,#1098,#1099,#1100,#1101,#1102,#1103,#1104,#1105,
#1106,#1107,#1108,#1109,#1110,#1111,#1112,#1113,#1114,#1115,#1116,#1117,
#1118,#1119,#1120,#1121,#1122,#1123,#1124,#1125,#1126,#1127,#1128,#1129,
#1130,#1131,#1132,#1133,#1134,#1135));
#1137=DERIVED_UNIT_ELEMENT(#1140,1.);
#1138=DERIVED_UNIT_ELEMENT(#1873,-3.);
#1139=DIMENSIONAL_EXPONENTS(0.,1.,0.,0.,0.,0.,0.);
#1140=(
CONVERSION_BASED_UNIT('gram',#1142)
MASS_UNIT()
NAMED_UNIT(#1139)
);
#1141=(
MASS_UNIT()
NAMED_UNIT(*)
SI_UNIT(.KILO.,.GRAM.)
);
#1142=MASS_MEASURE_WITH_UNIT(MASS_MEASURE(0.001),#1141);
#1143=DERIVED_UNIT((#1137,#1138));
#1144=MEASURE_REPRESENTATION_ITEM('density measure',
POSITIVE_RATIO_MEASURE(1.),#1143);
#1145=PROPERTY_DEFINITION_REPRESENTATION(#1150,#1147);
#1146=PROPERTY_DEFINITION_REPRESENTATION(#1151,#1148);
#1147=REPRESENTATION('material name',(#1149),#1870);
#1148=REPRESENTATION('density',(#1144),#1870);
#1149=DESCRIPTIVE_REPRESENTATION_ITEM('Generisch','Generisch');
#1150=PROPERTY_DEFINITION('material property','material name',#1880);
#1151=PROPERTY_DEFINITION('material property','density of part',#1880);
#1152=DATE_TIME_ROLE('creation_date');
#1153=APPLIED_DATE_AND_TIME_ASSIGNMENT(#1154,#1152,(#1880));
#1154=DATE_AND_TIME(#1155,#1156);
#1155=CALENDAR_DATE(2026,19,1);
#1156=LOCAL_TIME(0,0,0.,#1157);
#1157=COORDINATED_UNIVERSAL_TIME_OFFSET(0,0,.BEHIND.);
#1158=AXIS2_PLACEMENT_3D('',#1574,#1265,#1266);
#1159=AXIS2_PLACEMENT_3D('',#1575,#1267,#1268);
#1160=AXIS2_PLACEMENT_3D('',#1592,#1277,#1278);
#1161=AXIS2_PLACEMENT_3D('',#1601,#1283,#1284);
#1162=AXIS2_PLACEMENT_3D('',#1603,#1285,#1286);
#1163=AXIS2_PLACEMENT_3D('',#1606,#1288,#1289);
#1164=AXIS2_PLACEMENT_3D('',#1607,#1290,#1291);
#1165=AXIS2_PLACEMENT_3D('',#1609,#1292,#1293);
#1166=AXIS2_PLACEMENT_3D('',#1612,#1295,#1296);
#1167=AXIS2_PLACEMENT_3D('',#1613,#1297,#1298);
#1168=AXIS2_PLACEMENT_3D('',#1615,#1299,#1300);
#1169=AXIS2_PLACEMENT_3D('',#1618,#1302,#1303);
#1170=AXIS2_PLACEMENT_3D('',#1619,#1304,#1305);
#1171=AXIS2_PLACEMENT_3D('',#1621,#1306,#1307);
#1172=AXIS2_PLACEMENT_3D('',#1624,#1309,#1310);
#1173=AXIS2_PLACEMENT_3D('',#1625,#1311,#1312);
#1174=AXIS2_PLACEMENT_3D('',#1629,#1314,#1315);
#1175=AXIS2_PLACEMENT_3D('',#1630,#1316,#1317);
#1176=AXIS2_PLACEMENT_3D('',#1632,#1318,#1319);
#1177=AXIS2_PLACEMENT_3D('',#1635,#1321,#1322);
#1178=AXIS2_PLACEMENT_3D('',#1636,#1323,#1324);
#1179=AXIS2_PLACEMENT_3D('',#1637,#1325,#1326);
#1180=AXIS2_PLACEMENT_3D('',#1639,#1327,#1328);
#1181=AXIS2_PLACEMENT_3D('',#1640,#1329,#1330);
#1182=AXIS2_PLACEMENT_3D('',#1642,#1331,#1332);
#1183=AXIS2_PLACEMENT_3D('',#1645,#1334,#1335);
#1184=AXIS2_PLACEMENT_3D('',#1646,#1336,#1337);
#1185=AXIS2_PLACEMENT_3D('',#1648,#1338,#1339);
#1186=AXIS2_PLACEMENT_3D('',#1649,#1340,#1341);
#1187=AXIS2_PLACEMENT_3D('',#1651,#1342,#1343);
#1188=AXIS2_PLACEMENT_3D('',#1654,#1345,#1346);
#1189=AXIS2_PLACEMENT_3D('',#1655,#1347,#1348);
#1190=AXIS2_PLACEMENT_3D('',#1657,#1349,#1350);
#1191=AXIS2_PLACEMENT_3D('',#1658,#1351,#1352);
#1192=AXIS2_PLACEMENT_3D('',#1660,#1353,#1354);
#1193=AXIS2_PLACEMENT_3D('',#1663,#1356,#1357);
#1194=AXIS2_PLACEMENT_3D('',#1664,#1358,#1359);
#1195=AXIS2_PLACEMENT_3D('',#1666,#1360,#1361);
#1196=AXIS2_PLACEMENT_3D('',#1667,#1362,#1363);
#1197=AXIS2_PLACEMENT_3D('',#1669,#1364,#1365);
#1198=AXIS2_PLACEMENT_3D('',#1672,#1367,#1368);
#1199=AXIS2_PLACEMENT_3D('',#1673,#1369,#1370);
#1200=AXIS2_PLACEMENT_3D('',#1675,#1371,#1372);
#1201=AXIS2_PLACEMENT_3D('',#1676,#1373,#1374);
#1202=AXIS2_PLACEMENT_3D('',#1678,#1375,#1376);
#1203=AXIS2_PLACEMENT_3D('',#1681,#1378,#1379);
#1204=AXIS2_PLACEMENT_3D('',#1682,#1380,#1381);
#1205=AXIS2_PLACEMENT_3D('',#1684,#1382,#1383);
#1206=AXIS2_PLACEMENT_3D('',#1687,#1385,#1386);
#1207=AXIS2_PLACEMENT_3D('',#1688,#1387,#1388);
#1208=AXIS2_PLACEMENT_3D('',#1697,#1393,#1394);
#1209=AXIS2_PLACEMENT_3D('',#1703,#1398,#1399);
#1210=AXIS2_PLACEMENT_3D('',#1707,#1402,#1403);
#1211=AXIS2_PLACEMENT_3D('',#1709,#1404,#1405);
#1212=AXIS2_PLACEMENT_3D('',#1711,#1407,#1408);
#1213=AXIS2_PLACEMENT_3D('',#1713,#1409,#1410);
#1214=AXIS2_PLACEMENT_3D('',#1716,#1412,#1413);
#1215=AXIS2_PLACEMENT_3D('',#1717,#1414,#1415);
#1216=AXIS2_PLACEMENT_3D('',#1718,#1416,#1417);
#1217=AXIS2_PLACEMENT_3D('',#1725,#1422,#1423);
#1218=AXIS2_PLACEMENT_3D('',#1729,#1426,#1427);
#1219=AXIS2_PLACEMENT_3D('',#1733,#1430,#1431);
#1220=AXIS2_PLACEMENT_3D('',#1735,#1433,#1434);
#1221=AXIS2_PLACEMENT_3D('',#1738,#1436,#1437);
#1222=AXIS2_PLACEMENT_3D('',#1739,#1438,#1439);
#1223=AXIS2_PLACEMENT_3D('',#1741,#1440,#1441);
#1224=AXIS2_PLACEMENT_3D('',#1743,#1443,#1444);
#1225=AXIS2_PLACEMENT_3D('',#1745,#1445,#1446);
#1226=AXIS2_PLACEMENT_3D('',#1748,#1448,#1449);
#1227=AXIS2_PLACEMENT_3D('',#1749,#1450,#1451);
#1228=AXIS2_PLACEMENT_3D('',#1750,#1452,#1453);
#1229=AXIS2_PLACEMENT_3D('',#1753,#1455,#1456);
#1230=AXIS2_PLACEMENT_3D('',#1754,#1457,#1458);
#1231=AXIS2_PLACEMENT_3D('',#1756,#1459,#1460);
#1232=AXIS2_PLACEMENT_3D('',#1758,#1462,#1463);
#1233=AXIS2_PLACEMENT_3D('',#1764,#1467,#1468);
#1234=AXIS2_PLACEMENT_3D('',#1769,#1471,#1472);
#1235=AXIS2_PLACEMENT_3D('',#1770,#1473,#1474);
#1236=AXIS2_PLACEMENT_3D('',#1772,#1475,#1476);
#1237=AXIS2_PLACEMENT_3D('',#1775,#1478,#1479);
#1238=AXIS2_PLACEMENT_3D('',#1776,#1480,#1481);
#1239=AXIS2_PLACEMENT_3D('',#1778,#1482,#1483);
#1240=AXIS2_PLACEMENT_3D('',#1779,#1484,#1485);
#1241=AXIS2_PLACEMENT_3D('',#1782,#1487,#1488);
#1242=AXIS2_PLACEMENT_3D('',#1783,#1489,#1490);
#1243=AXIS2_PLACEMENT_3D('',#1784,#1491,#1492);
#1244=AXIS2_PLACEMENT_3D('',#1793,#1497,#1498);
#1245=AXIS2_PLACEMENT_3D('',#1799,#1502,#1503);
#1246=AXIS2_PLACEMENT_3D('',#1805,#1507,#1508);
#1247=AXIS2_PLACEMENT_3D('',#1811,#1512,#1513);
#1248=AXIS2_PLACEMENT_3D('',#1817,#1517,#1518);
#1249=AXIS2_PLACEMENT_3D('',#1823,#1522,#1523);
#1250=AXIS2_PLACEMENT_3D('',#1829,#1527,#1528);
#1251=AXIS2_PLACEMENT_3D('',#1832,#1531,#1532);
#1252=AXIS2_PLACEMENT_3D('',#1833,#1533,#1534);
#1253=AXIS2_PLACEMENT_3D('',#1842,#1539,#1540);
#1254=AXIS2_PLACEMENT_3D('',#1846,#1543,#1544);
#1255=AXIS2_PLACEMENT_3D('',#1848,#1546,#1547);
#1256=AXIS2_PLACEMENT_3D('',#1851,#1550,#1551);
#1257=AXIS2_PLACEMENT_3D('',#1852,#1552,#1553);
#1258=AXIS2_PLACEMENT_3D('',#1854,#1555,#1556);
#1259=AXIS2_PLACEMENT_3D('',#1857,#1558,#1559);
#1260=AXIS2_PLACEMENT_3D('',#1858,#1560,#1561);
#1261=AXIS2_PLACEMENT_3D('',#1860,#1563,#1564);
#1262=AXIS2_PLACEMENT_3D('',#1861,#1565,#1566);
#1263=AXIS2_PLACEMENT_3D('',#1865,#1569,#1570);
#1264=AXIS2_PLACEMENT_3D('',#1867,#1572,#1573);
#1265=DIRECTION('axis',(0.,0.,1.));
#1266=DIRECTION('refdir',(1.,0.,0.));
#1267=DIRECTION('center_axis',(0.,1.,0.));
#1268=DIRECTION('ref_axis',(0.,0.,1.));
#1269=DIRECTION('',(0.,0.,1.));
#1270=DIRECTION('',(-1.,0.,-7.41384323622809E-17));
#1271=DIRECTION('',(0.,0.,-1.));
#1272=DIRECTION('',(1.,0.,-7.41384323622809E-17));
#1273=DIRECTION('',(0.,0.,1.));
#1274=DIRECTION('',(1.,0.,0.));
#1275=DIRECTION('',(0.,0.,-1.));
#1276=DIRECTION('',(-1.,0.,0.));
#1277=DIRECTION('center_axis',(0.,1.,0.));
#1278=DIRECTION('ref_axis',(0.,0.,1.));
#1279=DIRECTION('',(1.,0.,0.));
#1280=DIRECTION('',(0.,0.,-1.));
#1281=DIRECTION('',(-1.,0.,0.));
#1282=DIRECTION('',(0.,0.,1.));
#1283=DIRECTION('center_axis',(0.,-1.,0.));
#1284=DIRECTION('ref_axis',(1.,0.,0.));
#1285=DIRECTION('center_axis',(0.,1.,0.));
#1286=DIRECTION('ref_axis',(1.,0.,0.));
#1287=DIRECTION('',(0.,1.,0.));
#1288=DIRECTION('center_axis',(0.,-1.,0.));
#1289=DIRECTION('ref_axis',(1.,0.,0.));
#1290=DIRECTION('center_axis',(0.,-1.,0.));
#1291=DIRECTION('ref_axis',(1.,0.,0.));
#1292=DIRECTION('center_axis',(0.,1.,0.));
#1293=DIRECTION('ref_axis',(1.,0.,0.));
#1294=DIRECTION('',(0.,1.,0.));
#1295=DIRECTION('center_axis',(0.,-1.,0.));
#1296=DIRECTION('ref_axis',(1.,0.,0.));
#1297=DIRECTION('center_axis',(0.,-1.,0.));
#1298=DIRECTION('ref_axis',(1.,0.,0.));
#1299=DIRECTION('center_axis',(0.,1.,0.));
#1300=DIRECTION('ref_axis',(1.,0.,0.));
#1301=DIRECTION('',(0.,1.,0.));
#1302=DIRECTION('center_axis',(0.,-1.,0.));
#1303=DIRECTION('ref_axis',(1.,0.,0.));
#1304=DIRECTION('center_axis',(0.,-1.,0.));
#1305=DIRECTION('ref_axis',(1.,0.,0.));
#1306=DIRECTION('center_axis',(0.,1.,0.));
#1307=DIRECTION('ref_axis',(1.,0.,0.));
#1308=DIRECTION('',(0.,1.,0.));
#1309=DIRECTION('center_axis',(0.,-1.,0.));
#1310=DIRECTION('ref_axis',(1.,0.,0.));
#1311=DIRECTION('center_axis',(0.,1.,0.));
#1312=DIRECTION('ref_axis',(0.,0.,1.));
#1313=DIRECTION('',(0.,0.,-1.));
#1314=DIRECTION('center_axis',(0.,1.,0.));
#1315=DIRECTION('ref_axis',(1.,0.,0.));
#1316=DIRECTION('center_axis',(0.,-1.,0.));
#1317=DIRECTION('ref_axis',(1.,0.,0.));
#1318=DIRECTION('center_axis',(0.,-1.,0.));
#1319=DIRECTION('ref_axis',(1.,0.,0.));
#1320=DIRECTION('',(0.,-1.,0.));
#1321=DIRECTION('center_axis',(0.,-1.,0.));
#1322=DIRECTION('ref_axis',(1.,0.,0.));
#1323=DIRECTION('center_axis',(0.,-1.,0.));
#1324=DIRECTION('ref_axis',(1.,0.,0.));
#1325=DIRECTION('center_axis',(0.,1.,0.));
#1326=DIRECTION('ref_axis',(0.,0.,1.));
#1327=DIRECTION('center_axis',(0.,1.,0.));
#1328=DIRECTION('ref_axis',(1.,0.,0.));
#1329=DIRECTION('center_axis',(0.,0.,1.));
#1330=DIRECTION('ref_axis',(-1.,0.,0.));
#1331=DIRECTION('center_axis',(3.45696945283479E-16,0.,1.));
#1332=DIRECTION('ref_axis',(-1.,0.,0.));
#1333=DIRECTION('',(0.,0.,1.));
#1334=DIRECTION('center_axis',(3.45696945283479E-16,0.,1.));
#1335=DIRECTION('ref_axis',(-1.,0.,3.45696945283479E-16));
#1336=DIRECTION('center_axis',(-3.45696945283479E-16,0.,-1.));
#1337=DIRECTION('ref_axis',(-1.,0.,3.45696945283479E-16));
#1338=DIRECTION('center_axis',(-3.45696945283479E-16,0.,-1.));
#1339=DIRECTION('ref_axis',(1.,0.,7.41384323622809E-17));
#1340=DIRECTION('center_axis',(0.,0.,-1.));
#1341=DIRECTION('ref_axis',(1.,0.,0.));
#1342=DIRECTION('center_axis',(-5.10300729503088E-16,0.,-1.));
#1343=DIRECTION('ref_axis',(1.,0.,0.));
#1344=DIRECTION('',(0.,0.,-1.));
#1345=DIRECTION('center_axis',(-5.10300729503088E-16,0.,-1.));
#1346=DIRECTION('ref_axis',(1.,0.,-5.10300729503088E-16));
#1347=DIRECTION('center_axis',(5.10300729503088E-16,0.,1.));
#1348=DIRECTION('ref_axis',(1.,0.,-5.10300729503088E-16));
#1349=DIRECTION('center_axis',(5.10300729503088E-16,0.,1.));
#1350=DIRECTION('ref_axis',(1.,0.,7.41384323622809E-17));
#1351=DIRECTION('center_axis',(1.,0.,0.));
#1352=DIRECTION('ref_axis',(0.,1.0449157878825E-16,1.));
#1353=DIRECTION('center_axis',(1.,0.,0.));
#1354=DIRECTION('ref_axis',(0.,1.0449157878825E-16,1.));
#1355=DIRECTION('',(1.,0.,0.));
#1356=DIRECTION('center_axis',(1.,0.,0.));
#1357=DIRECTION('ref_axis',(0.,1.0449157878825E-16,1.));
#1358=DIRECTION('center_axis',(-1.,0.,0.));
#1359=DIRECTION('ref_axis',(0.,0.,1.));
#1360=DIRECTION('center_axis',(-1.,0.,0.));
#1361=DIRECTION('ref_axis',(0.,0.,-1.));
#1362=DIRECTION('center_axis',(-1.,0.,0.));
#1363=DIRECTION('ref_axis',(0.,0.,-1.));
#1364=DIRECTION('center_axis',(-1.,0.,0.));
#1365=DIRECTION('ref_axis',(0.,0.,-1.));
#1366=DIRECTION('',(-1.,0.,0.));
#1367=DIRECTION('center_axis',(-1.,0.,0.));
#1368=DIRECTION('ref_axis',(0.,0.,-1.));
#1369=DIRECTION('center_axis',(1.,0.,0.));
#1370=DIRECTION('ref_axis',(0.,0.,-1.));
#1371=DIRECTION('center_axis',(1.,0.,0.));
#1372=DIRECTION('ref_axis',(0.,0.,1.));
#1373=DIRECTION('center_axis',(-7.41384323622809E-17,0.,-1.));
#1374=DIRECTION('ref_axis',(-1.,0.,7.41384323622809E-17));
#1375=DIRECTION('center_axis',(7.41384323622809E-17,0.,1.));
#1376=DIRECTION('ref_axis',(-1.,0.,7.41384323622809E-17));
#1377=DIRECTION('',(7.41384323622809E-17,0.,1.));
#1378=DIRECTION('center_axis',(-7.41384323622809E-17,0.,-1.));
#1379=DIRECTION('ref_axis',(-1.,0.,7.41384323622809E-17));
#1380=DIRECTION('center_axis',(0.,1.,0.));
#1381=DIRECTION('ref_axis',(-1.,0.,0.));
#1382=DIRECTION('center_axis',(0.,-1.,0.));
#1383=DIRECTION('ref_axis',(-1.,0.,0.));
#1384=DIRECTION('',(0.,-1.,0.));
#1385=DIRECTION('center_axis',(0.,1.,0.));
#1386=DIRECTION('ref_axis',(-1.,0.,0.));
#1387=DIRECTION('center_axis',(0.,-1.,0.));
#1388=DIRECTION('ref_axis',(0.,0.,-1.));
#1389=DIRECTION('',(1.,0.,-7.41384323622809E-17));
#1390=DIRECTION('',(0.,0.,-1.));
#1391=DIRECTION('',(-1.,0.,-7.41384323622809E-17));
#1392=DIRECTION('',(0.,0.,1.));
#1393=DIRECTION('center_axis',(-7.41384323622809E-17,0.,1.));
#1394=DIRECTION('ref_axis',(1.,0.,7.41384323622809E-17));
#1395=DIRECTION('',(0.,-1.,0.));
#1396=DIRECTION('',(1.,0.,7.41384323622809E-17));
#1397=DIRECTION('',(0.,1.,0.));
#1398=DIRECTION('center_axis',(-1.,0.,0.));
#1399=DIRECTION('ref_axis',(0.,0.,1.));
#1400=DIRECTION('',(0.,-1.,0.));
#1401=DIRECTION('',(0.,0.,1.));
#1402=DIRECTION('center_axis',(1.,0.,0.));
#1403=DIRECTION('ref_axis',(0.,0.,1.));
#1404=DIRECTION('center_axis',(1.,0.,0.));
#1405=DIRECTION('ref_axis',(0.,0.,1.));
#1406=DIRECTION('',(1.,0.,0.));
#1407=DIRECTION('center_axis',(1.,0.,0.));
#1408=DIRECTION('ref_axis',(0.,0.,1.));
#1409=DIRECTION('center_axis',(1.,0.,0.));
#1410=DIRECTION('ref_axis',(0.,0.,1.));
#1411=DIRECTION('',(1.,0.,0.));
#1412=DIRECTION('center_axis',(1.,0.,0.));
#1413=DIRECTION('ref_axis',(0.,0.,1.));
#1414=DIRECTION('center_axis',(-1.,0.,0.));
#1415=DIRECTION('ref_axis',(0.,0.,1.));
#1416=DIRECTION('center_axis',(-1.,0.,0.));
#1417=DIRECTION('ref_axis',(0.,0.,1.));
#1418=DIRECTION('',(0.,0.,-1.));
#1419=DIRECTION('',(0.,1.,0.));
#1420=DIRECTION('',(0.,1.,0.));
#1421=DIRECTION('',(0.,0.,-1.));
#1422=DIRECTION('center_axis',(0.,0.,-1.));
#1423=DIRECTION('ref_axis',(-1.,0.,0.));
#1424=DIRECTION('',(1.,0.,0.));
#1425=DIRECTION('',(0.,1.,0.));
#1426=DIRECTION('center_axis',(1.,0.,0.));
#1427=DIRECTION('ref_axis',(0.,0.,-1.));
#1428=DIRECTION('',(0.,0.,1.));
#1429=DIRECTION('',(0.,1.,0.));
#1430=DIRECTION('center_axis',(0.,0.,1.));
#1431=DIRECTION('ref_axis',(1.,0.,0.));
#1432=DIRECTION('',(-1.,0.,0.));
#1433=DIRECTION('center_axis',(0.,1.,0.));
#1434=DIRECTION('ref_axis',(1.,0.,0.));
#1435=DIRECTION('',(0.,-1.,0.));
#1436=DIRECTION('center_axis',(0.,1.,0.));
#1437=DIRECTION('ref_axis',(1.,0.,0.));
#1438=DIRECTION('center_axis',(-1.,0.,0.));
#1439=DIRECTION('ref_axis',(0.,0.,-1.));
#1440=DIRECTION('center_axis',(-1.,0.,0.));
#1441=DIRECTION('ref_axis',(0.,0.,-1.));
#1442=DIRECTION('',(-1.,0.,0.));
#1443=DIRECTION('center_axis',(-1.,0.,0.));
#1444=DIRECTION('ref_axis',(0.,0.,-1.));
#1445=DIRECTION('center_axis',(-1.,0.,0.));
#1446=DIRECTION('ref_axis',(0.,0.,-1.));
#1447=DIRECTION('',(-1.,0.,0.));
#1448=DIRECTION('center_axis',(-1.,0.,0.));
#1449=DIRECTION('ref_axis',(0.,0.,-1.));
#1450=DIRECTION('center_axis',(1.,0.,0.));
#1451=DIRECTION('ref_axis',(0.,0.,-1.));
#1452=DIRECTION('center_axis',(-7.41384323622809E-17,0.,1.));
#1453=DIRECTION('ref_axis',(1.,0.,7.41384323622809E-17));
#1454=DIRECTION('',(7.41384323622809E-17,0.,-1.));
#1455=DIRECTION('center_axis',(0.,0.,1.));
#1456=DIRECTION('ref_axis',(1.,0.,7.41384323622809E-17));
#1457=DIRECTION('center_axis',(-7.41384323622809E-17,0.,1.));
#1458=DIRECTION('ref_axis',(1.,0.,7.41384323622809E-17));
#1459=DIRECTION('center_axis',(0.,0.,-1.));
#1460=DIRECTION('ref_axis',(1.,0.,7.41384323622809E-17));
#1461=DIRECTION('',(7.41384323622809E-17,0.,-1.));
#1462=DIRECTION('center_axis',(1.,0.,0.));
#1463=DIRECTION('ref_axis',(0.,0.,-1.));
#1464=DIRECTION('',(0.,1.,0.));
#1465=DIRECTION('',(0.,0.,-1.));
#1466=DIRECTION('',(0.,1.,0.));
#1467=DIRECTION('center_axis',(-7.41384323622809E-17,0.,1.));
#1468=DIRECTION('ref_axis',(1.,0.,7.41384323622809E-17));
#1469=DIRECTION('',(0.,1.,0.));
#1470=DIRECTION('',(1.,0.,7.41384323622809E-17));
#1471=DIRECTION('center_axis',(7.41384323622809E-17,0.,-1.));
#1472=DIRECTION('ref_axis',(1.,0.,7.41384323622809E-17));
#1473=DIRECTION('center_axis',(0.,0.,1.));
#1474=DIRECTION('ref_axis',(1.,0.,0.));
#1475=DIRECTION('center_axis',(2.37095422334847E-16,0.,1.));
#1476=DIRECTION('ref_axis',(1.,0.,0.));
#1477=DIRECTION('',(0.,0.,1.));
#1478=DIRECTION('center_axis',(0.,0.,1.));
#1479=DIRECTION('ref_axis',(1.,0.,0.));
#1480=DIRECTION('center_axis',(0.,0.,1.));
#1481=DIRECTION('ref_axis',(1.,0.,0.));
#1482=DIRECTION('center_axis',(0.,0.,-1.));
#1483=DIRECTION('ref_axis',(1.,0.,0.));
#1484=DIRECTION('center_axis',(0.,0.,1.));
#1485=DIRECTION('ref_axis',(1.,0.,0.));
#1486=DIRECTION('',(0.,0.,1.));
#1487=DIRECTION('center_axis',(-2.37095422334847E-16,0.,-1.));
#1488=DIRECTION('ref_axis',(1.,0.,0.));
#1489=DIRECTION('center_axis',(0.,0.,1.));
#1490=DIRECTION('ref_axis',(1.,0.,0.));
#1491=DIRECTION('center_axis',(-3.45696945283479E-16,0.,-1.));
#1492=DIRECTION('ref_axis',(-1.,0.,3.45696945283479E-16));
#1493=DIRECTION('',(1.,0.,-3.45696945283479E-16));
#1494=DIRECTION('',(0.,1.,0.));
#1495=DIRECTION('',(-1.,0.,3.45696945283479E-16));
#1496=DIRECTION('',(0.,1.,0.));
#1497=DIRECTION('center_axis',(1.,0.,0.));
#1498=DIRECTION('ref_axis',(0.,0.,-1.));
#1499=DIRECTION('',(0.,0.,1.));
#1500=DIRECTION('',(0.,0.,-1.));
#1501=DIRECTION('',(0.,1.,0.));
#1502=DIRECTION('center_axis',(2.37095422334847E-16,0.,1.));
#1503=DIRECTION('ref_axis',(1.,0.,-2.37095422334847E-16));
#1504=DIRECTION('',(-1.,0.,2.37095422334847E-16));
#1505=DIRECTION('',(1.,0.,-2.37095422334847E-16));
#1506=DIRECTION('',(0.,1.,0.));
#1507=DIRECTION('center_axis',(1.,0.,0.));
#1508=DIRECTION('ref_axis',(0.,0.,-1.));
#1509=DIRECTION('',(0.,0.,1.));
#1510=DIRECTION('',(0.,0.,-1.));
#1511=DIRECTION('',(0.,1.,0.));
#1512=DIRECTION('center_axis',(-2.37095422334847E-16,0.,-1.));
#1513=DIRECTION('ref_axis',(-1.,0.,2.37095422334847E-16));
#1514=DIRECTION('',(1.,0.,-2.37095422334847E-16));
#1515=DIRECTION('',(-1.,0.,2.37095422334847E-16));
#1516=DIRECTION('',(0.,1.,0.));
#1517=DIRECTION('center_axis',(1.,0.,0.));
#1518=DIRECTION('ref_axis',(0.,0.,-1.));
#1519=DIRECTION('',(0.,0.,1.));
#1520=DIRECTION('',(0.,0.,-1.));
#1521=DIRECTION('',(0.,1.,0.));
#1522=DIRECTION('center_axis',(5.10300729503088E-16,0.,1.));
#1523=DIRECTION('ref_axis',(1.,0.,-5.10300729503088E-16));
#1524=DIRECTION('',(-1.,0.,5.10300729503088E-16));
#1525=DIRECTION('',(1.,0.,-5.10300729503088E-16));
#1526=DIRECTION('',(0.,1.,0.));
#1527=DIRECTION('center_axis',(-1.,0.,0.));
#1528=DIRECTION('ref_axis',(0.,0.,1.));
#1529=DIRECTION('',(0.,0.,-1.));
#1530=DIRECTION('',(0.,0.,1.));
#1531=DIRECTION('center_axis',(0.,1.,0.));
#1532=DIRECTION('ref_axis',(0.,0.,1.));
#1533=DIRECTION('center_axis',(0.,1.,0.));
#1534=DIRECTION('ref_axis',(0.,0.,1.));
#1535=DIRECTION('',(-1.,0.,-7.41384323622809E-17));
#1536=DIRECTION('',(0.,0.,1.));
#1537=DIRECTION('',(1.,0.,-7.41384323622809E-17));
#1538=DIRECTION('',(0.,0.,-1.));
#1539=DIRECTION('center_axis',(0.,-1.,0.));
#1540=DIRECTION('ref_axis',(0.,0.,-1.));
#1541=DIRECTION('',(-1.,0.,7.41384323622809E-17));
#1542=DIRECTION('',(0.,0.,-1.));
#1543=DIRECTION('center_axis',(1.,0.,0.));
#1544=DIRECTION('ref_axis',(0.,0.,-1.));
#1545=DIRECTION('',(0.,-1.,0.));
#1546=DIRECTION('center_axis',(1.,0.,0.));
#1547=DIRECTION('ref_axis',(0.,0.,-1.));
#1548=DIRECTION('',(0.,1.,0.));
#1549=DIRECTION('',(0.,-1.,0.));
#1550=DIRECTION('center_axis',(-7.41384323622809E-17,0.,-1.));
#1551=DIRECTION('ref_axis',(-1.,0.,7.41384323622809E-17));
#1552=DIRECTION('center_axis',(-7.41384323622809E-17,0.,-1.));
#1553=DIRECTION('ref_axis',(-1.,0.,7.41384323622809E-17));
#1554=DIRECTION('',(0.,-1.,0.));
#1555=DIRECTION('center_axis',(-7.41384323622809E-17,0.,1.));
#1556=DIRECTION('ref_axis',(1.,0.,7.41384323622809E-17));
#1557=DIRECTION('',(7.41384323622809E-17,0.,-1.));
#1558=DIRECTION('center_axis',(-7.41384323622809E-17,0.,1.));
#1559=DIRECTION('ref_axis',(1.,0.,7.41384323622809E-17));
#1560=DIRECTION('center_axis',(-7.41384323622809E-17,0.,1.));
#1561=DIRECTION('ref_axis',(1.,0.,7.41384323622809E-17));
#1562=DIRECTION('',(0.,-1.,0.));
#1563=DIRECTION('center_axis',(-1.,0.,0.));
#1564=DIRECTION('ref_axis',(0.,0.,1.));
#1565=DIRECTION('center_axis',(-1.,0.,0.));
#1566=DIRECTION('ref_axis',(0.,0.,1.));
#1567=DIRECTION('',(0.,1.,0.));
#1568=DIRECTION('',(0.,0.,1.));
#1569=DIRECTION('center_axis',(-7.41384323622809E-17,0.,-1.));
#1570=DIRECTION('ref_axis',(-1.,0.,7.41384323622809E-17));
#1571=DIRECTION('',(-1.,0.,7.41384323622809E-17));
#1572=DIRECTION('center_axis',(0.,1.,0.));
#1573=DIRECTION('ref_axis',(0.,0.,1.));
#1574=CARTESIAN_POINT('',(0.,0.,0.));
#1575=CARTESIAN_POINT('Origin',(0.,415.,3.5527136788005E-14));
#1576=CARTESIAN_POINT('',(594.,415.,95.));
#1577=CARTESIAN_POINT('',(594.,415.,-95.));
#1578=CARTESIAN_POINT('',(594.,415.,50.));
#1579=CARTESIAN_POINT('',(-594.,415.,94.9999999999999));
#1580=CARTESIAN_POINT('',(-299.5,415.,94.9999999999999));
#1581=CARTESIAN_POINT('',(-594.,415.,-94.9999999999999));
#1582=CARTESIAN_POINT('',(-594.,415.,-50.));
#1583=CARTESIAN_POINT('',(299.5,415.,-95.));
#1584=CARTESIAN_POINT('',(-262.395845610287,415.,-70.));
#1585=CARTESIAN_POINT('',(-262.395845610287,415.,70.));
#1586=CARTESIAN_POINT('',(-262.395845610287,415.,-70.));
#1587=CARTESIAN_POINT('',(-232.395845610287,415.,70.));
#1588=CARTESIAN_POINT('',(-262.395845610287,415.,70.));
#1589=CARTESIAN_POINT('',(-232.395845610287,415.,-70.));
#1590=CARTESIAN_POINT('',(-232.395845610287,415.,70.));
#1591=CARTESIAN_POINT('',(-232.395845610287,415.,-70.));
#1592=CARTESIAN_POINT('Origin',(0.,425.,3.5527136788005E-14));
#1593=CARTESIAN_POINT('',(-599.,425.,100.));
#1594=CARTESIAN_POINT('',(599.,425.,100.));
#1595=CARTESIAN_POINT('',(-599.,425.,100.));
#1596=CARTESIAN_POINT('',(599.,425.,-99.9999999999999));
#1597=CARTESIAN_POINT('',(599.,425.,100.));
#1598=CARTESIAN_POINT('',(-599.,425.,-99.9999999999999));
#1599=CARTESIAN_POINT('',(599.,425.,-99.9999999999999));
#1600=CARTESIAN_POINT('',(-599.,425.,-99.9999999999999));
#1601=CARTESIAN_POINT('Origin',(-356.890341965521,14.65,-47.2122852842511));
#1602=CARTESIAN_POINT('',(-361.578442965521,0.,-47.2122852842511));
#1603=CARTESIAN_POINT('Origin',(-356.890341965521,0.,-47.2122852842511));
#1604=CARTESIAN_POINT('',(-361.578442965521,10.,-47.2122852842511));
#1605=CARTESIAN_POINT('',(-361.578442965521,14.65,-47.2122852842511));
#1606=CARTESIAN_POINT('Origin',(-356.890341965521,10.,-47.2122852842511));
#1607=CARTESIAN_POINT('Origin',(-236.890341965522,14.65,-47.2122852842512));
#1608=CARTESIAN_POINT('',(-241.578442965522,0.,-47.2122852842512));
#1609=CARTESIAN_POINT('Origin',(-236.890341965522,0.,-47.2122852842512));
#1610=CARTESIAN_POINT('',(-241.578442965522,10.,-47.2122852842512));
#1611=CARTESIAN_POINT('',(-241.578442965522,14.65,-47.2122852842512));
#1612=CARTESIAN_POINT('Origin',(-236.890341965522,10.,-47.2122852842512));
#1613=CARTESIAN_POINT('Origin',(-236.890341965522,14.65,42.7877147157487));
#1614=CARTESIAN_POINT('',(-241.578442965522,0.,42.7877147157487));
#1615=CARTESIAN_POINT('Origin',(-236.890341965522,0.,42.7877147157487));
#1616=CARTESIAN_POINT('',(-241.578442965522,10.,42.7877147157487));
#1617=CARTESIAN_POINT('',(-241.578442965522,14.65,42.7877147157487));
#1618=CARTESIAN_POINT('Origin',(-236.890341965522,10.,42.7877147157487));
#1619=CARTESIAN_POINT('Origin',(-356.890341965521,14.65,42.7877147157489));
#1620=CARTESIAN_POINT('',(-361.578442965521,0.,42.7877147157489));
#1621=CARTESIAN_POINT('Origin',(-356.890341965521,0.,42.7877147157489));
#1622=CARTESIAN_POINT('',(-361.578442965521,10.,42.7877147157489));
#1623=CARTESIAN_POINT('',(-361.578442965521,14.65,42.7877147157489));
#1624=CARTESIAN_POINT('Origin',(-356.890341965521,10.,42.7877147157489));
#1625=CARTESIAN_POINT('Origin',(-300.003845610287,310.83,0.));
#1626=CARTESIAN_POINT('',(-262.395845610287,310.83,13.6249159997411));
#1627=CARTESIAN_POINT('',(-262.395845610287,310.83,-13.6249159997411));
#1628=CARTESIAN_POINT('',(-262.395845610287,310.83,-35.));
#1629=CARTESIAN_POINT('Origin',(-300.003845610287,310.83,0.));
#1630=CARTESIAN_POINT('Origin',(-300.003845610287,310.83,0.));
#1631=CARTESIAN_POINT('',(-340.003845610287,310.83,-4.89858719658942E-15));
#1632=CARTESIAN_POINT('Origin',(-300.003845610287,310.83,0.));
#1633=CARTESIAN_POINT('',(-340.003845610287,298.83,-4.89858719658942E-15));
#1634=CARTESIAN_POINT('',(-340.003845610287,310.83,-4.89858719658942E-15));
#1635=CARTESIAN_POINT('Origin',(-300.003845610287,298.83,0.));
#1636=CARTESIAN_POINT('Origin',(-300.003845610287,310.83,0.));
#1637=CARTESIAN_POINT('Origin',(-300.003845610287,298.83,0.));
#1638=CARTESIAN_POINT('',(-332.003845610287,298.83,3.91886975727153E-15));
#1639=CARTESIAN_POINT('Origin',(-300.003845610287,298.83,0.));
#1640=CARTESIAN_POINT('Origin',(499.,360.,-71.3950000000001));
#1641=CARTESIAN_POINT('',(515.,360.,-71.3950000000001));
#1642=CARTESIAN_POINT('Origin',(499.,360.,-71.3950000000001));
#1643=CARTESIAN_POINT('',(515.,360.,-64.3950000000001));
#1644=CARTESIAN_POINT('',(515.,360.,-71.3950000000001));
#1645=CARTESIAN_POINT('Origin',(499.,360.,-64.3950000000001));
#1646=CARTESIAN_POINT('Origin',(499.,360.,-64.3950000000001));
#1647=CARTESIAN_POINT('',(489.,360.,-64.3950000000001));
#1648=CARTESIAN_POINT('Origin',(499.,360.,-64.3950000000001));
#1649=CARTESIAN_POINT('Origin',(499.,360.,71.3949999999999));
#1650=CARTESIAN_POINT('',(483.,360.,71.3949999999999));
#1651=CARTESIAN_POINT('Origin',(499.,360.,71.3949999999999));
#1652=CARTESIAN_POINT('',(483.,360.,64.3949999999999));
#1653=CARTESIAN_POINT('',(483.,360.,71.3949999999999));
#1654=CARTESIAN_POINT('Origin',(499.,360.,64.3949999999999));
#1655=CARTESIAN_POINT('Origin',(499.,360.,64.3949999999999));
#1656=CARTESIAN_POINT('',(489.,360.,64.3949999999999));
#1657=CARTESIAN_POINT('Origin',(499.,360.,64.3949999999999));
#1658=CARTESIAN_POINT('Origin',(407.123,360.,-7.99360577730113E-14));
#1659=CARTESIAN_POINT('',(407.123,360.,-23.5000000000001));
#1660=CARTESIAN_POINT('Origin',(407.123,360.,-7.99360577730113E-14));
#1661=CARTESIAN_POINT('',(413.523,360.,-23.5000000000001));
#1662=CARTESIAN_POINT('',(407.123,360.,-23.5000000000001));
#1663=CARTESIAN_POINT('Origin',(413.523,360.,-7.99360577730113E-14));
#1664=CARTESIAN_POINT('Origin',(413.523,360.,-7.99360577730113E-14));
#1665=CARTESIAN_POINT('',(413.523,360.,17.4999999999999));
#1666=CARTESIAN_POINT('Origin',(413.523,360.,-7.105427357601E-14));
#1667=CARTESIAN_POINT('Origin',(-232.395845610287,360.,3.5527136788005E-14));
#1668=CARTESIAN_POINT('',(-232.395845610287,360.,23.5));
#1669=CARTESIAN_POINT('Origin',(-232.395845610287,360.,3.5527136788005E-14));
#1670=CARTESIAN_POINT('',(-238.795845610287,360.,23.5));
#1671=CARTESIAN_POINT('',(-232.395845610287,360.,23.5));
#1672=CARTESIAN_POINT('Origin',(-238.795845610287,360.,3.5527136788005E-14));
#1673=CARTESIAN_POINT('Origin',(-238.795845610287,360.,3.5527136788005E-14));
#1674=CARTESIAN_POINT('',(-238.795845610287,360.,-17.75));
#1675=CARTESIAN_POINT('Origin',(-238.795845610287,360.,3.5527136788005E-14));
#1676=CARTESIAN_POINT('Origin',(499.,360.,-90.));
#1677=CARTESIAN_POINT('',(514.,360.,-100.));
#1678=CARTESIAN_POINT('Origin',(499.,360.,-100.));
#1679=CARTESIAN_POINT('',(514.,360.,-95.));
#1680=CARTESIAN_POINT('',(514.,360.,-90.));
#1681=CARTESIAN_POINT('Origin',(499.,360.,-95.));
#1682=CARTESIAN_POINT('Origin',(-300.003845610287,0.,0.));
#1683=CARTESIAN_POINT('',(-287.503845610287,10.,0.));
#1684=CARTESIAN_POINT('Origin',(-300.003845610287,10.,0.));
#1685=CARTESIAN_POINT('',(-287.503845610287,0.,1.53080849893419E-15));
#1686=CARTESIAN_POINT('',(-287.503845610287,0.,-1.53080849893419E-15));
#1687=CARTESIAN_POINT('Origin',(-300.003845610287,0.,0.));
#1688=CARTESIAN_POINT('Origin',(0.,10.,-1.24344978758018E-13));
#1689=CARTESIAN_POINT('',(-594.,10.,-95.0000000000001));
#1690=CARTESIAN_POINT('',(594.,10.,-95.));
#1691=CARTESIAN_POINT('',(299.5,10.,-95.));
#1692=CARTESIAN_POINT('',(-594.,10.,94.9999999999999));
#1693=CARTESIAN_POINT('',(-594.,10.,-50.));
#1694=CARTESIAN_POINT('',(594.,10.,94.9999999999999));
#1695=CARTESIAN_POINT('',(-299.5,10.,94.9999999999999));
#1696=CARTESIAN_POINT('',(594.,10.,49.9999999999999));
#1697=CARTESIAN_POINT('Origin',(-599.,0.,94.9999999999999));
#1698=CARTESIAN_POINT('',(-594.,290.83,94.9999999999999));
#1699=CARTESIAN_POINT('',(-594.,0.,94.9999999999999));
#1700=CARTESIAN_POINT('',(594.,290.83,95.));
#1701=CARTESIAN_POINT('',(-299.5,290.83,94.9999999999999));
#1702=CARTESIAN_POINT('',(594.,0.,95.));
#1703=CARTESIAN_POINT('Origin',(-594.,0.,-99.9999999999999));
#1704=CARTESIAN_POINT('',(-594.,290.83,-94.9999999999999));
#1705=CARTESIAN_POINT('',(-594.,0.,-94.9999999999999));
#1706=CARTESIAN_POINT('',(-594.,290.83,-50.));
#1707=CARTESIAN_POINT('Origin',(-262.395845610287,360.,3.5527136788005E-14));
#1708=CARTESIAN_POINT('',(-250.395845610287,360.,-17.75));
#1709=CARTESIAN_POINT('Origin',(-250.395845610287,360.,3.5527136788005E-14));
#1710=CARTESIAN_POINT('',(-262.395845610287,360.,-17.75));
#1711=CARTESIAN_POINT('Origin',(-262.395845610287,360.,3.5527136788005E-14));
#1712=CARTESIAN_POINT('',(-262.395845610287,360.,-32.));
#1713=CARTESIAN_POINT('Origin',(-262.395845610287,360.,3.5527136788005E-14));
#1714=CARTESIAN_POINT('',(-250.395845610287,360.,-32.));
#1715=CARTESIAN_POINT('',(-262.395845610287,360.,-32.));
#1716=CARTESIAN_POINT('Origin',(-250.395845610287,360.,3.5527136788005E-14));
#1717=CARTESIAN_POINT('Origin',(-250.395845610287,360.,3.5527136788005E-14));
#1718=CARTESIAN_POINT('Origin',(-262.395845610287,310.83,-70.));
#1719=CARTESIAN_POINT('',(-262.395845610287,310.83,70.));
#1720=CARTESIAN_POINT('',(-262.395845610287,310.83,-35.));
#1721=CARTESIAN_POINT('',(-262.395845610287,310.83,70.));
#1722=CARTESIAN_POINT('',(-262.395845610287,310.83,-70.));
#1723=CARTESIAN_POINT('',(-262.395845610287,310.83,-70.));
#1724=CARTESIAN_POINT('',(-262.395845610287,310.83,-35.));
#1725=CARTESIAN_POINT('Origin',(-232.395845610287,310.83,-70.));
#1726=CARTESIAN_POINT('',(-232.395845610287,310.83,-70.));
#1727=CARTESIAN_POINT('',(-116.197922805144,310.83,-70.));
#1728=CARTESIAN_POINT('',(-232.395845610287,310.83,-70.));
#1729=CARTESIAN_POINT('Origin',(-232.395845610287,310.83,70.));
#1730=CARTESIAN_POINT('',(-232.395845610287,310.83,70.));
#1731=CARTESIAN_POINT('',(-232.395845610287,310.83,35.));
#1732=CARTESIAN_POINT('',(-232.395845610287,310.83,70.));
#1733=CARTESIAN_POINT('Origin',(-262.395845610287,310.83,70.));
#1734=CARTESIAN_POINT('',(-131.197922805144,310.83,70.));
#1735=CARTESIAN_POINT('Origin',(-300.003845610287,60.83,0.));
#1736=CARTESIAN_POINT('',(-332.003845610287,290.83,3.91886975727153E-15));
#1737=CARTESIAN_POINT('',(-332.003845610287,60.83,3.91886975727153E-15));
#1738=CARTESIAN_POINT('Origin',(-300.003845610287,290.83,0.));
#1739=CARTESIAN_POINT('Origin',(441.933,360.,-7.105427357601E-14));
#1740=CARTESIAN_POINT('',(436.933,360.,17.4999999999999));
#1741=CARTESIAN_POINT('Origin',(436.933,360.,-7.105427357601E-14));
#1742=CARTESIAN_POINT('',(441.933,360.,17.4999999999999));
#1743=CARTESIAN_POINT('Origin',(441.933,360.,-7.105427357601E-14));
#1744=CARTESIAN_POINT('',(441.933,360.,31.9999999999999));
#1745=CARTESIAN_POINT('Origin',(441.933,360.,-7.105427357601E-14));
#1746=CARTESIAN_POINT('',(436.933,360.,31.9999999999999));
#1747=CARTESIAN_POINT('',(441.933,360.,31.9999999999999));
#1748=CARTESIAN_POINT('Origin',(436.933,360.,-7.105427357601E-14));
#1749=CARTESIAN_POINT('Origin',(436.933,360.,-7.105427357601E-14));
#1750=CARTESIAN_POINT('Origin',(499.,360.,-150.));
#1751=CARTESIAN_POINT('',(489.,360.,53.585));
#1752=CARTESIAN_POINT('',(489.,360.,-150.));
#1753=CARTESIAN_POINT('Origin',(499.,360.,53.585));
#1754=CARTESIAN_POINT('Origin',(499.,360.,-150.));
#1755=CARTESIAN_POINT('',(489.,360.,-53.585));
#1756=CARTESIAN_POINT('Origin',(499.,360.,-53.585));
#1757=CARTESIAN_POINT('',(489.,360.,-150.));
#1758=CARTESIAN_POINT('Origin',(599.,0.,100.));
#1759=CARTESIAN_POINT('',(599.,0.,100.));
#1760=CARTESIAN_POINT('',(599.,415.,100.));
#1761=CARTESIAN_POINT('',(599.,0.,-100.));
#1762=CARTESIAN_POINT('',(599.,0.,100.));
#1763=CARTESIAN_POINT('',(599.,415.,-99.9999999999999));
#1764=CARTESIAN_POINT('Origin',(-599.,0.,99.9999999999999));
#1765=CARTESIAN_POINT('',(-599.,0.,99.9999999999999));
#1766=CARTESIAN_POINT('',(-599.,0.,99.9999999999999));
#1767=CARTESIAN_POINT('',(-599.,0.,99.9999999999999));
#1768=CARTESIAN_POINT('',(484.,360.,100.));
#1769=CARTESIAN_POINT('Origin',(499.,360.,100.));
#1770=CARTESIAN_POINT('Origin',(499.,360.,0.));
#1771=CARTESIAN_POINT('',(467.,360.,36.5849999999999));
#1772=CARTESIAN_POINT('Origin',(499.,360.,36.5849999999999));
#1773=CARTESIAN_POINT('',(467.,360.,53.585));
#1774=CARTESIAN_POINT('',(467.,360.,0.));
#1775=CARTESIAN_POINT('Origin',(499.,360.,53.585));
#1776=CARTESIAN_POINT('Origin',(499.,360.,-53.585));
#1777=CARTESIAN_POINT('',(467.,360.,-53.585));
#1778=CARTESIAN_POINT('Origin',(499.,360.,-53.585));
#1779=CARTESIAN_POINT('Origin',(499.,360.,0.));
#1780=CARTESIAN_POINT('',(467.,360.,-36.5850000000001));
#1781=CARTESIAN_POINT('',(467.,360.,0.));
#1782=CARTESIAN_POINT('Origin',(499.,360.,-36.5850000000001));
#1783=CARTESIAN_POINT('Origin',(499.,360.,53.585));
#1784=CARTESIAN_POINT('Origin',(535.585,310.83,-71.3950000000001));
#1785=CARTESIAN_POINT('',(407.123,310.83,-71.395));
#1786=CARTESIAN_POINT('',(535.585,310.83,-71.3950000000001));
#1787=CARTESIAN_POINT('',(267.7925,310.83,-71.395));
#1788=CARTESIAN_POINT('',(407.123,395.83,-71.395));
#1789=CARTESIAN_POINT('',(407.123,310.83,-71.395));
#1790=CARTESIAN_POINT('',(535.585,395.83,-71.3950000000001));
#1791=CARTESIAN_POINT('',(535.585,395.83,-71.3950000000001));
#1792=CARTESIAN_POINT('',(535.585,310.83,-71.3950000000001));
#1793=CARTESIAN_POINT('Origin',(535.585,310.83,-36.5850000000001));
#1794=CARTESIAN_POINT('',(535.585,310.83,-36.5850000000001));
#1795=CARTESIAN_POINT('',(535.585,310.83,-18.2925000000001));
#1796=CARTESIAN_POINT('',(535.585,395.83,-36.5850000000001));
#1797=CARTESIAN_POINT('',(535.585,395.83,-36.5850000000001));
#1798=CARTESIAN_POINT('',(535.585,310.83,-36.5850000000001));
#1799=CARTESIAN_POINT('Origin',(441.933,310.83,-36.5850000000001));
#1800=CARTESIAN_POINT('',(441.933,310.83,-36.5850000000001));
#1801=CARTESIAN_POINT('',(220.9665,310.83,-36.585));
#1802=CARTESIAN_POINT('',(441.933,395.83,-36.5850000000001));
#1803=CARTESIAN_POINT('',(441.933,395.83,-36.5850000000001));
#1804=CARTESIAN_POINT('',(441.933,310.83,-36.5850000000001));
#1805=CARTESIAN_POINT('Origin',(441.933,310.83,36.5849999999999));
#1806=CARTESIAN_POINT('',(441.933,310.83,36.5849999999999));
#1807=CARTESIAN_POINT('',(441.933,310.83,18.2924999999999));
#1808=CARTESIAN_POINT('',(441.933,395.83,36.5849999999999));
#1809=CARTESIAN_POINT('',(441.933,395.83,36.5849999999999));
#1810=CARTESIAN_POINT('',(441.933,310.83,36.5849999999999));
#1811=CARTESIAN_POINT('Origin',(535.585,310.83,36.5849999999999));
#1812=CARTESIAN_POINT('',(535.585,310.83,36.5849999999999));
#1813=CARTESIAN_POINT('',(267.7925,310.83,36.585));
#1814=CARTESIAN_POINT('',(535.585,395.83,36.5849999999999));
#1815=CARTESIAN_POINT('',(535.585,395.83,36.5849999999999));
#1816=CARTESIAN_POINT('',(535.585,310.83,36.5849999999999));
#1817=CARTESIAN_POINT('Origin',(535.585,310.83,71.3949999999999));
#1818=CARTESIAN_POINT('',(535.585,310.83,71.3949999999999));
#1819=CARTESIAN_POINT('',(535.585,310.83,35.6974999999999));
#1820=CARTESIAN_POINT('',(535.585,395.83,71.3949999999999));
#1821=CARTESIAN_POINT('',(535.585,395.83,71.3949999999999));
#1822=CARTESIAN_POINT('',(535.585,310.83,71.3949999999999));
#1823=CARTESIAN_POINT('Origin',(407.123,310.83,71.3949999999999));
#1824=CARTESIAN_POINT('',(407.123,310.83,71.3949999999999));
#1825=CARTESIAN_POINT('',(203.5615,310.83,71.395));
#1826=CARTESIAN_POINT('',(407.123,395.83,71.3949999999999));
#1827=CARTESIAN_POINT('',(407.123,395.83,71.3949999999999));
#1828=CARTESIAN_POINT('',(407.123,310.83,71.3949999999999));
#1829=CARTESIAN_POINT('Origin',(407.123,310.83,-71.395));
#1830=CARTESIAN_POINT('',(407.123,310.83,-35.6975000000001));
#1831=CARTESIAN_POINT('',(407.123,395.83,-71.395));
#1832=CARTESIAN_POINT('Origin',(471.354,395.83,-7.99360577730113E-14));
#1833=CARTESIAN_POINT('Origin',(0.,310.83,-7.105427357601E-14));
#1834=CARTESIAN_POINT('',(594.,310.83,95.));
#1835=CARTESIAN_POINT('',(-594.,310.83,94.9999999999999));
#1836=CARTESIAN_POINT('',(-299.5,310.83,94.9999999999999));
#1837=CARTESIAN_POINT('',(594.,310.83,-95.));
#1838=CARTESIAN_POINT('',(594.,310.83,50.));
#1839=CARTESIAN_POINT('',(-594.,310.83,-94.9999999999999));
#1840=CARTESIAN_POINT('',(299.5,310.83,-95.));
#1841=CARTESIAN_POINT('',(-594.,310.83,-50.));
#1842=CARTESIAN_POINT('Origin',(0.,290.83,-7.105427357601E-14));
#1843=CARTESIAN_POINT('',(594.,290.83,-95.));
#1844=CARTESIAN_POINT('',(299.5,290.83,-95.));
#1845=CARTESIAN_POINT('',(594.,290.83,50.));
#1846=CARTESIAN_POINT('Origin',(594.,0.,100.));
#1847=CARTESIAN_POINT('',(594.,0.,-95.));
#1848=CARTESIAN_POINT('Origin',(594.,0.,100.));
#1849=CARTESIAN_POINT('',(594.,0.,95.));
#1850=CARTESIAN_POINT('',(594.,0.,-95.));
#1851=CARTESIAN_POINT('Origin',(599.,0.,-95.));
#1852=CARTESIAN_POINT('Origin',(599.,0.,-95.));
#1853=CARTESIAN_POINT('',(-594.,0.,-94.9999999999999));
#1854=CARTESIAN_POINT('Origin',(499.,360.,90.));
#1855=CARTESIAN_POINT('',(484.,360.,95.));
#1856=CARTESIAN_POINT('',(484.,360.,90.));
#1857=CARTESIAN_POINT('Origin',(499.,360.,95.));
#1858=CARTESIAN_POINT('Origin',(-599.,0.,94.9999999999999));
#1859=CARTESIAN_POINT('',(-594.,0.,94.9999999999999));
#1860=CARTESIAN_POINT('Origin',(-594.,0.,-99.9999999999999));
#1861=CARTESIAN_POINT('Origin',(-599.,0.,-99.9999999999999));
#1862=CARTESIAN_POINT('',(-599.,0.,-99.9999999999999));
#1863=CARTESIAN_POINT('',(-599.,0.,-99.9999999999999));
#1864=CARTESIAN_POINT('',(-599.,0.,-99.9999999999999));
#1865=CARTESIAN_POINT('Origin',(599.,0.,-100.));
#1866=CARTESIAN_POINT('',(599.,0.,-100.));
#1867=CARTESIAN_POINT('Origin',(0.,0.,0.));
#1868=UNCERTAINTY_MEASURE_WITH_UNIT(LENGTH_MEASURE(0.01),#1872,
'DISTANCE_ACCURACY_VALUE',
'Maximum model space distance between geometric entities at asserted c
onnectivities');
#1869=UNCERTAINTY_MEASURE_WITH_UNIT(LENGTH_MEASURE(0.01),#1872,
'DISTANCE_ACCURACY_VALUE',
'Maximum model space distance between geometric entities at asserted c
onnectivities');
#1870=(
GEOMETRIC_REPRESENTATION_CONTEXT(3)
GLOBAL_UNCERTAINTY_ASSIGNED_CONTEXT((#1868))
GLOBAL_UNIT_ASSIGNED_CONTEXT((#1872,#1874,#1875))
REPRESENTATION_CONTEXT('','3D')
);
#1871=(
GEOMETRIC_REPRESENTATION_CONTEXT(3)
GLOBAL_UNCERTAINTY_ASSIGNED_CONTEXT((#1869))
GLOBAL_UNIT_ASSIGNED_CONTEXT((#1872,#1874,#1875))
REPRESENTATION_CONTEXT('','3D')
);
#1872=(
LENGTH_UNIT()
NAMED_UNIT(*)
SI_UNIT(.MILLI.,.METRE.)
);
#1873=(
LENGTH_UNIT()
NAMED_UNIT(*)
SI_UNIT(.CENTI.,.METRE.)
);
#1874=(
NAMED_UNIT(*)
PLANE_ANGLE_UNIT()
SI_UNIT($,.RADIAN.)
);
#1875=(
NAMED_UNIT(*)
SI_UNIT($,.STERADIAN.)
SOLID_ANGLE_UNIT()
);
#1876=SHAPE_DEFINITION_REPRESENTATION(#1877,#1878);
#1877=PRODUCT_DEFINITION_SHAPE('',$,#1880);
#1878=SHAPE_REPRESENTATION('',(#1158),#1870);
#1879=PRODUCT_DEFINITION_CONTEXT('part definition',#1884,'design');
#1880=PRODUCT_DEFINITION('Mittelkonsole','Mittelkonsole',#1881,#1879);
#1881=PRODUCT_DEFINITION_FORMATION('',$,#1886);
#1882=PRODUCT_RELATED_PRODUCT_CATEGORY('Mittelkonsole','Mittelkonsole',
(#1886));
#1883=APPLICATION_PROTOCOL_DEFINITION('international standard',
'automotive_design',2009,#1884);
#1884=APPLICATION_CONTEXT(
'Core Data for Automotive Mechanical Design Process');
#1885=PRODUCT_CONTEXT('part definition',#1884,'mechanical');
#1886=PRODUCT('Mittelkonsole','Mittelkonsole',$,(#1885));
#1887=PRESENTATION_STYLE_ASSIGNMENT((#1889));
#1888=PRESENTATION_STYLE_ASSIGNMENT((#1890));
#1889=SURFACE_STYLE_USAGE(.BOTH.,#1895);
#1890=SURFACE_STYLE_USAGE(.BOTH.,#1896);
#1891=SURFACE_STYLE_RENDERING_WITH_PROPERTIES($,#1903,(#1893));
#1892=SURFACE_STYLE_RENDERING_WITH_PROPERTIES($,#1904,(#1894));
#1893=SURFACE_STYLE_TRANSPARENT(0.);
#1894=SURFACE_STYLE_TRANSPARENT(0.53999999165535);
#1895=SURFACE_SIDE_STYLE('',(#1897,#1891));
#1896=SURFACE_SIDE_STYLE('',(#1898,#1892));
#1897=SURFACE_STYLE_FILL_AREA(#1899);
#1898=SURFACE_STYLE_FILL_AREA(#1900);
#1899=FILL_AREA_STYLE('',(#1901));
#1900=FILL_AREA_STYLE('',(#1902));
#1901=FILL_AREA_STYLE_COLOUR('',#1903);
#1902=FILL_AREA_STYLE_COLOUR('',#1904);
#1903=COLOUR_RGB('',0.749019607843137,0.749019607843137,0.749019607843137);
#1904=COLOUR_RGB('',0.8,0.8,0.8);
ENDSEC;
END-ISO-10303-21;
