ISO-10303-21;
HEADER;
/* Generated by software containing ST-Developer
 * from STEP Tools, Inc. (www.steptools.com) 
 */

FILE_DESCRIPTION(
/* description */ (''),
/* implementation_level */ '2;1');

FILE_NAME(
/* name */ 'Welle_724.stp',
/* time_stamp */ '2026-09-02T21:20:51+02:00',
/* author */ ('bluhm'),
/* organization */ (''),
/* preprocessor_version */ 'ST-DEVELOPER v20.1',
/* originating_system */ 'Autodesk Inventor 2026',
/* authorisation */ '');

FILE_SCHEMA (('AUTOMOTIVE_DESIGN { 1 0 10303 214 3 1 1 }'));
ENDSEC;

DATA;
#10=MECHANICAL_DESIGN_GEOMETRIC_PRESENTATION_REPRESENTATION('',(#13),#363);
#11=SHAPE_REPRESENTATION_RELATIONSHIP('SRR','None',#370,#12);
#12=ADVANCED_BREP_SHAPE_REPRESENTATION('',(#14),#362);
#13=STYLED_ITEM('',(#379),#14);
#14=MANIFOLD_SOLID_BREP('Volumenk\X\F6rper1',#206);
#15=CYLINDRICAL_SURFACE('',#242,17.5);
#16=CIRCLE('',#231,17.5);
#17=CIRCLE('',#232,17.5);
#18=CIRCLE('',#236,17.5);
#19=CIRCLE('',#239,17.5);
#20=CIRCLE('',#243,17.5);
#21=CIRCLE('',#244,17.5);
#22=FACE_OUTER_BOUND('',#33,.T.);
#23=FACE_OUTER_BOUND('',#34,.T.);
#24=FACE_OUTER_BOUND('',#35,.T.);
#25=FACE_OUTER_BOUND('',#36,.T.);
#26=FACE_OUTER_BOUND('',#37,.T.);
#27=FACE_OUTER_BOUND('',#38,.T.);
#28=FACE_OUTER_BOUND('',#39,.T.);
#29=FACE_OUTER_BOUND('',#40,.T.);
#30=FACE_OUTER_BOUND('',#41,.T.);
#31=FACE_OUTER_BOUND('',#42,.T.);
#32=FACE_OUTER_BOUND('',#43,.T.);
#33=EDGE_LOOP('',(#131,#132,#133,#134));
#34=EDGE_LOOP('',(#135,#136,#137,#138,#139));
#35=EDGE_LOOP('',(#140,#141,#142,#143));
#36=EDGE_LOOP('',(#144,#145,#146,#147));
#37=EDGE_LOOP('',(#148,#149,#150,#151));
#38=EDGE_LOOP('',(#152,#153,#154,#155));
#39=EDGE_LOOP('',(#156,#157,#158,#159));
#40=EDGE_LOOP('',(#160,#161,#162,#163));
#41=EDGE_LOOP('',(#164,#165,#166,#167));
#42=EDGE_LOOP('',(#168,#169,#170,#171,#172,#173,#174,#175,#176,#177,#178,
#179));
#43=EDGE_LOOP('',(#180,#181,#182,#183,#184));
#44=LINE('',#307,#65);
#45=LINE('',#309,#66);
#46=LINE('',#311,#67);
#47=LINE('',#312,#68);
#48=LINE('',#317,#69);
#49=LINE('',#319,#70);
#50=LINE('',#323,#71);
#51=LINE('',#325,#72);
#52=LINE('',#326,#73);
#53=LINE('',#328,#74);
#54=LINE('',#334,#75);
#55=LINE('',#336,#76);
#56=LINE('',#338,#77);
#57=LINE('',#339,#78);
#58=LINE('',#344,#79);
#59=LINE('',#345,#80);
#60=LINE('',#348,#81);
#61=LINE('',#350,#82);
#62=LINE('',#351,#83);
#63=LINE('',#353,#84);
#64=LINE('',#356,#85);
#65=VECTOR('',#250,10.);
#66=VECTOR('',#251,10.);
#67=VECTOR('',#252,10.);
#68=VECTOR('',#253,10.);
#69=VECTOR('',#258,10.);
#70=VECTOR('',#259,10.);
#71=VECTOR('',#264,10.);
#72=VECTOR('',#265,10.);
#73=VECTOR('',#266,10.);
#74=VECTOR('',#269,10.);
#75=VECTOR('',#276,10.);
#76=VECTOR('',#277,10.);
#77=VECTOR('',#278,10.);
#78=VECTOR('',#279,10.);
#79=VECTOR('',#284,10.);
#80=VECTOR('',#285,10.);
#81=VECTOR('',#288,10.);
#82=VECTOR('',#289,10.);
#83=VECTOR('',#290,10.);
#84=VECTOR('',#293,10.);
#85=VECTOR('',#296,17.5);
#86=VERTEX_POINT('',#305);
#87=VERTEX_POINT('',#306);
#88=VERTEX_POINT('',#308);
#89=VERTEX_POINT('',#310);
#90=VERTEX_POINT('',#314);
#91=VERTEX_POINT('',#316);
#92=VERTEX_POINT('',#318);
#93=VERTEX_POINT('',#322);
#94=VERTEX_POINT('',#324);
#95=VERTEX_POINT('',#332);
#96=VERTEX_POINT('',#333);
#97=VERTEX_POINT('',#335);
#98=VERTEX_POINT('',#337);
#99=VERTEX_POINT('',#341);
#100=VERTEX_POINT('',#343);
#101=VERTEX_POINT('',#347);
#102=VERTEX_POINT('',#349);
#103=VERTEX_POINT('',#355);
#104=EDGE_CURVE('',#86,#87,#44,.T.);
#105=EDGE_CURVE('',#88,#86,#45,.T.);
#106=EDGE_CURVE('',#89,#88,#46,.T.);
#107=EDGE_CURVE('',#89,#87,#47,.T.);
#108=EDGE_CURVE('',#87,#90,#16,.T.);
#109=EDGE_CURVE('',#91,#89,#48,.T.);
#110=EDGE_CURVE('',#91,#92,#49,.T.);
#111=EDGE_CURVE('',#90,#92,#17,.T.);
#112=EDGE_CURVE('',#92,#93,#50,.T.);
#113=EDGE_CURVE('',#94,#91,#51,.T.);
#114=EDGE_CURVE('',#93,#94,#52,.T.);
#115=EDGE_CURVE('',#94,#88,#53,.T.);
#116=EDGE_CURVE('',#86,#93,#18,.T.);
#117=EDGE_CURVE('',#95,#96,#54,.T.);
#118=EDGE_CURVE('',#97,#95,#55,.T.);
#119=EDGE_CURVE('',#97,#98,#56,.T.);
#120=EDGE_CURVE('',#98,#96,#57,.T.);
#121=EDGE_CURVE('',#96,#99,#19,.T.);
#122=EDGE_CURVE('',#98,#100,#58,.T.);
#123=EDGE_CURVE('',#100,#99,#59,.T.);
#124=EDGE_CURVE('',#99,#101,#60,.T.);
#125=EDGE_CURVE('',#100,#102,#61,.T.);
#126=EDGE_CURVE('',#101,#102,#62,.T.);
#127=EDGE_CURVE('',#102,#97,#63,.T.);
#128=EDGE_CURVE('',#90,#103,#64,.T.);
#129=EDGE_CURVE('',#103,#95,#20,.T.);
#130=EDGE_CURVE('',#101,#103,#21,.T.);
#131=ORIENTED_EDGE('',*,*,#104,.F.);
#132=ORIENTED_EDGE('',*,*,#105,.F.);
#133=ORIENTED_EDGE('',*,*,#106,.F.);
#134=ORIENTED_EDGE('',*,*,#107,.T.);
#135=ORIENTED_EDGE('',*,*,#108,.F.);
#136=ORIENTED_EDGE('',*,*,#107,.F.);
#137=ORIENTED_EDGE('',*,*,#109,.F.);
#138=ORIENTED_EDGE('',*,*,#110,.T.);
#139=ORIENTED_EDGE('',*,*,#111,.F.);
#140=ORIENTED_EDGE('',*,*,#112,.F.);
#141=ORIENTED_EDGE('',*,*,#110,.F.);
#142=ORIENTED_EDGE('',*,*,#113,.F.);
#143=ORIENTED_EDGE('',*,*,#114,.F.);
#144=ORIENTED_EDGE('',*,*,#115,.F.);
#145=ORIENTED_EDGE('',*,*,#113,.T.);
#146=ORIENTED_EDGE('',*,*,#109,.T.);
#147=ORIENTED_EDGE('',*,*,#106,.T.);
#148=ORIENTED_EDGE('',*,*,#114,.T.);
#149=ORIENTED_EDGE('',*,*,#115,.T.);
#150=ORIENTED_EDGE('',*,*,#105,.T.);
#151=ORIENTED_EDGE('',*,*,#116,.T.);
#152=ORIENTED_EDGE('',*,*,#117,.F.);
#153=ORIENTED_EDGE('',*,*,#118,.F.);
#154=ORIENTED_EDGE('',*,*,#119,.T.);
#155=ORIENTED_EDGE('',*,*,#120,.T.);
#156=ORIENTED_EDGE('',*,*,#121,.F.);
#157=ORIENTED_EDGE('',*,*,#120,.F.);
#158=ORIENTED_EDGE('',*,*,#122,.T.);
#159=ORIENTED_EDGE('',*,*,#123,.T.);
#160=ORIENTED_EDGE('',*,*,#124,.F.);
#161=ORIENTED_EDGE('',*,*,#123,.F.);
#162=ORIENTED_EDGE('',*,*,#125,.T.);
#163=ORIENTED_EDGE('',*,*,#126,.F.);
#164=ORIENTED_EDGE('',*,*,#122,.F.);
#165=ORIENTED_EDGE('',*,*,#119,.F.);
#166=ORIENTED_EDGE('',*,*,#127,.F.);
#167=ORIENTED_EDGE('',*,*,#125,.F.);
#168=ORIENTED_EDGE('',*,*,#112,.T.);
#169=ORIENTED_EDGE('',*,*,#116,.F.);
#170=ORIENTED_EDGE('',*,*,#104,.T.);
#171=ORIENTED_EDGE('',*,*,#108,.T.);
#172=ORIENTED_EDGE('',*,*,#128,.T.);
#173=ORIENTED_EDGE('',*,*,#129,.T.);
#174=ORIENTED_EDGE('',*,*,#117,.T.);
#175=ORIENTED_EDGE('',*,*,#121,.T.);
#176=ORIENTED_EDGE('',*,*,#124,.T.);
#177=ORIENTED_EDGE('',*,*,#130,.T.);
#178=ORIENTED_EDGE('',*,*,#128,.F.);
#179=ORIENTED_EDGE('',*,*,#111,.T.);
#180=ORIENTED_EDGE('',*,*,#118,.T.);
#181=ORIENTED_EDGE('',*,*,#129,.F.);
#182=ORIENTED_EDGE('',*,*,#130,.F.);
#183=ORIENTED_EDGE('',*,*,#126,.T.);
#184=ORIENTED_EDGE('',*,*,#127,.T.);
#185=PLANE('',#229);
#186=PLANE('',#230);
#187=PLANE('',#233);
#188=PLANE('',#234);
#189=PLANE('',#235);
#190=PLANE('',#237);
#191=PLANE('',#238);
#192=PLANE('',#240);
#193=PLANE('',#241);
#194=PLANE('',#245);
#195=ADVANCED_FACE('',(#22),#185,.F.);
#196=ADVANCED_FACE('',(#23),#186,.F.);
#197=ADVANCED_FACE('',(#24),#187,.F.);
#198=ADVANCED_FACE('',(#25),#188,.T.);
#199=ADVANCED_FACE('',(#26),#189,.T.);
#200=ADVANCED_FACE('',(#27),#190,.F.);
#201=ADVANCED_FACE('',(#28),#191,.F.);
#202=ADVANCED_FACE('',(#29),#192,.F.);
#203=ADVANCED_FACE('',(#30),#193,.F.);
#204=ADVANCED_FACE('',(#31),#15,.T.);
#205=ADVANCED_FACE('',(#32),#194,.F.);
#206=CLOSED_SHELL('',(#195,#196,#197,#198,#199,#200,#201,#202,#203,#204,
#205));
#207=DERIVED_UNIT_ELEMENT(#210,1.);
#208=DERIVED_UNIT_ELEMENT(#365,-3.);
#209=DIMENSIONAL_EXPONENTS(0.,1.,0.,0.,0.,0.,0.);
#210=(
CONVERSION_BASED_UNIT('gram',#212)
MASS_UNIT()
NAMED_UNIT(#209)
);
#211=(
MASS_UNIT()
NAMED_UNIT(*)
SI_UNIT(.KILO.,.GRAM.)
);
#212=MASS_MEASURE_WITH_UNIT(MASS_MEASURE(0.001),#211);
#213=DERIVED_UNIT((#207,#208));
#214=MEASURE_REPRESENTATION_ITEM('density measure',
POSITIVE_RATIO_MEASURE(1.),#213);
#215=PROPERTY_DEFINITION_REPRESENTATION(#220,#217);
#216=PROPERTY_DEFINITION_REPRESENTATION(#221,#218);
#217=REPRESENTATION('material name',(#219),#362);
#218=REPRESENTATION('density',(#214),#362);
#219=DESCRIPTIVE_REPRESENTATION_ITEM('Generisch','Generisch');
#220=PROPERTY_DEFINITION('material property','material name',#372);
#221=PROPERTY_DEFINITION('material property','density of part',#372);
#222=DATE_TIME_ROLE('creation_date');
#223=APPLIED_DATE_AND_TIME_ASSIGNMENT(#224,#222,(#372));
#224=DATE_AND_TIME(#225,#226);
#225=CALENDAR_DATE(2026,19,1);
#226=LOCAL_TIME(0,0,0.,#227);
#227=COORDINATED_UNIVERSAL_TIME_OFFSET(0,0,.BEHIND.);
#228=AXIS2_PLACEMENT_3D('',#303,#246,#247);
#229=AXIS2_PLACEMENT_3D('',#304,#248,#249);
#230=AXIS2_PLACEMENT_3D('',#313,#254,#255);
#231=AXIS2_PLACEMENT_3D('',#315,#256,#257);
#232=AXIS2_PLACEMENT_3D('',#320,#260,#261);
#233=AXIS2_PLACEMENT_3D('',#321,#262,#263);
#234=AXIS2_PLACEMENT_3D('',#327,#267,#268);
#235=AXIS2_PLACEMENT_3D('',#329,#270,#271);
#236=AXIS2_PLACEMENT_3D('',#330,#272,#273);
#237=AXIS2_PLACEMENT_3D('',#331,#274,#275);
#238=AXIS2_PLACEMENT_3D('',#340,#280,#281);
#239=AXIS2_PLACEMENT_3D('',#342,#282,#283);
#240=AXIS2_PLACEMENT_3D('',#346,#286,#287);
#241=AXIS2_PLACEMENT_3D('',#352,#291,#292);
#242=AXIS2_PLACEMENT_3D('',#354,#294,#295);
#243=AXIS2_PLACEMENT_3D('',#357,#297,#298);
#244=AXIS2_PLACEMENT_3D('',#358,#299,#300);
#245=AXIS2_PLACEMENT_3D('',#359,#301,#302);
#246=DIRECTION('axis',(0.,0.,1.));
#247=DIRECTION('refdir',(1.,0.,0.));
#248=DIRECTION('center_axis',(0.,2.4980018054066E-16,-1.));
#249=DIRECTION('ref_axis',(0.,1.,2.4980018054066E-16));
#250=DIRECTION('',(0.,-1.,0.));
#251=DIRECTION('',(1.,0.,0.));
#252=DIRECTION('',(0.,1.,2.4980018054066E-16));
#253=DIRECTION('',(1.,0.,0.));
#254=DIRECTION('center_axis',(0.,-1.,0.));
#255=DIRECTION('ref_axis',(0.,0.,-1.));
#256=DIRECTION('center_axis',(0.,-1.,0.));
#257=DIRECTION('ref_axis',(-1.,0.,0.));
#258=DIRECTION('',(0.,0.,-1.));
#259=DIRECTION('',(1.,0.,0.));
#260=DIRECTION('center_axis',(0.,-1.,0.));
#261=DIRECTION('ref_axis',(-1.,0.,0.));
#262=DIRECTION('center_axis',(0.,-1.11022302462516E-16,1.));
#263=DIRECTION('ref_axis',(0.,-1.,-1.11022302462516E-16));
#264=DIRECTION('',(0.,1.,0.));
#265=DIRECTION('',(0.,-1.,-1.11022302462516E-16));
#266=DIRECTION('',(-1.,0.,0.));
#267=DIRECTION('center_axis',(1.,0.,0.));
#268=DIRECTION('ref_axis',(0.,0.,-1.));
#269=DIRECTION('',(0.,0.,-1.));
#270=DIRECTION('center_axis',(0.,1.,0.));
#271=DIRECTION('ref_axis',(0.,0.,1.));
#272=DIRECTION('center_axis',(0.,1.,0.));
#273=DIRECTION('ref_axis',(-1.,0.,0.));
#274=DIRECTION('center_axis',(0.,0.,-1.));
#275=DIRECTION('ref_axis',(0.,-1.,0.));
#276=DIRECTION('',(0.,1.,0.));
#277=DIRECTION('',(-1.,0.,0.));
#278=DIRECTION('',(0.,1.,0.));
#279=DIRECTION('',(-1.,0.,0.));
#280=DIRECTION('center_axis',(0.,1.,0.));
#281=DIRECTION('ref_axis',(0.,0.,-1.));
#282=DIRECTION('center_axis',(0.,1.,0.));
#283=DIRECTION('ref_axis',(-1.,0.,0.));
#284=DIRECTION('',(0.,0.,1.));
#285=DIRECTION('',(-1.,0.,0.));
#286=DIRECTION('center_axis',(0.,0.,1.));
#287=DIRECTION('ref_axis',(0.,1.,0.));
#288=DIRECTION('',(0.,-1.,0.));
#289=DIRECTION('',(0.,-1.,0.));
#290=DIRECTION('',(1.,0.,0.));
#291=DIRECTION('center_axis',(1.,0.,0.));
#292=DIRECTION('ref_axis',(0.,0.,-1.));
#293=DIRECTION('',(0.,0.,-1.));
#294=DIRECTION('center_axis',(0.,1.,0.));
#295=DIRECTION('ref_axis',(-1.,0.,0.));
#296=DIRECTION('',(0.,-1.,0.));
#297=DIRECTION('center_axis',(0.,1.,0.));
#298=DIRECTION('ref_axis',(-1.,0.,0.));
#299=DIRECTION('center_axis',(0.,1.,0.));
#300=DIRECTION('ref_axis',(-1.,0.,0.));
#301=DIRECTION('center_axis',(0.,1.,0.));
#302=DIRECTION('ref_axis',(0.,0.,1.));
#303=CARTESIAN_POINT('',(0.,0.,0.));
#304=CARTESIAN_POINT('Origin',(7.5,704.33,-3.31100000000001));
#305=CARTESIAN_POINT('',(17.1839250172945,724.33,-3.311));
#306=CARTESIAN_POINT('',(17.1839250172945,704.33,-3.31100000000001));
#307=CARTESIAN_POINT('',(17.1839250172945,0.,-3.31100000000018));
#308=CARTESIAN_POINT('',(7.5,724.33,-3.311));
#309=CARTESIAN_POINT('',(3.75,724.33,-3.311));
#310=CARTESIAN_POINT('',(7.5,704.33,-3.31100000000001));
#311=CARTESIAN_POINT('',(7.5,704.33,-3.31100000000001));
#312=CARTESIAN_POINT('',(7.5,704.33,-3.31100000000001));
#313=CARTESIAN_POINT('Origin',(7.5,704.33,3.311));
#314=CARTESIAN_POINT('',(17.5,704.33,-2.14313189850787E-15));
#315=CARTESIAN_POINT('Origin',(0.,704.33,0.));
#316=CARTESIAN_POINT('',(7.5,704.33,3.311));
#317=CARTESIAN_POINT('',(7.5,704.33,3.311));
#318=CARTESIAN_POINT('',(17.1839250172945,704.33,3.311));
#319=CARTESIAN_POINT('',(7.5,704.33,3.311));
#320=CARTESIAN_POINT('Origin',(0.,704.33,0.));
#321=CARTESIAN_POINT('Origin',(7.5,724.33,3.311));
#322=CARTESIAN_POINT('',(17.1839250172945,724.33,3.311));
#323=CARTESIAN_POINT('',(17.1839250172945,0.,3.31099999999992));
#324=CARTESIAN_POINT('',(7.5,724.33,3.311));
#325=CARTESIAN_POINT('',(7.5,724.33,3.311));
#326=CARTESIAN_POINT('',(3.75,724.33,3.311));
#327=CARTESIAN_POINT('Origin',(7.5,714.33,-2.77555756156289E-15));
#328=CARTESIAN_POINT('',(7.5,724.33,-1.38777878078145E-15));
#329=CARTESIAN_POINT('Origin',(0.,724.33,0.));
#330=CARTESIAN_POINT('Origin',(0.,724.33,0.));
#331=CARTESIAN_POINT('Origin',(-7.5,20.,-3.311));
#332=CARTESIAN_POINT('',(-17.1839250172945,0.,-3.311));
#333=CARTESIAN_POINT('',(-17.1839250172945,20.,-3.311));
#334=CARTESIAN_POINT('',(-17.1839250172945,0.,-3.311));
#335=CARTESIAN_POINT('',(-7.5,0.,-3.311));
#336=CARTESIAN_POINT('',(-3.75,0.,-3.311));
#337=CARTESIAN_POINT('',(-7.5,20.,-3.311));
#338=CARTESIAN_POINT('',(-7.5,0.,-3.311));
#339=CARTESIAN_POINT('',(-7.5,20.,-3.311));
#340=CARTESIAN_POINT('Origin',(-7.5,20.,3.311));
#341=CARTESIAN_POINT('',(-17.1839250172945,20.,3.311));
#342=CARTESIAN_POINT('Origin',(0.,20.,0.));
#343=CARTESIAN_POINT('',(-7.5,20.,3.311));
#344=CARTESIAN_POINT('',(-7.5,20.,-3.311));
#345=CARTESIAN_POINT('',(-7.5,20.,3.311));
#346=CARTESIAN_POINT('Origin',(-7.5,0.,3.311));
#347=CARTESIAN_POINT('',(-17.1839250172945,0.,3.311));
#348=CARTESIAN_POINT('',(-17.1839250172945,0.,3.311));
#349=CARTESIAN_POINT('',(-7.5,0.,3.311));
#350=CARTESIAN_POINT('',(-7.5,20.,3.311));
#351=CARTESIAN_POINT('',(-3.75,0.,3.311));
#352=CARTESIAN_POINT('Origin',(-7.5,10.,0.));
#353=CARTESIAN_POINT('',(-7.5,0.,0.));
#354=CARTESIAN_POINT('Origin',(0.,0.,0.));
#355=CARTESIAN_POINT('',(17.5,0.,-2.14313189850787E-15));
#356=CARTESIAN_POINT('',(17.5,0.,-2.14313189850787E-15));
#357=CARTESIAN_POINT('Origin',(0.,0.,0.));
#358=CARTESIAN_POINT('Origin',(0.,0.,0.));
#359=CARTESIAN_POINT('Origin',(0.,0.,0.));
#360=UNCERTAINTY_MEASURE_WITH_UNIT(LENGTH_MEASURE(0.01),#364,
'DISTANCE_ACCURACY_VALUE',
'Maximum model space distance between geometric entities at asserted c
onnectivities');
#361=UNCERTAINTY_MEASURE_WITH_UNIT(LENGTH_MEASURE(0.01),#364,
'DISTANCE_ACCURACY_VALUE',
'Maximum model space distance between geometric entities at asserted c
onnectivities');
#362=(
GEOMETRIC_REPRESENTATION_CONTEXT(3)
GLOBAL_UNCERTAINTY_ASSIGNED_CONTEXT((#360))
GLOBAL_UNIT_ASSIGNED_CONTEXT((#364,#366,#367))
REPRESENTATION_CONTEXT('','3D')
);
#363=(
GEOMETRIC_REPRESENTATION_CONTEXT(3)
GLOBAL_UNCERTAINTY_ASSIGNED_CONTEXT((#361))
GLOBAL_UNIT_ASSIGNED_CONTEXT((#364,#366,#367))
REPRESENTATION_CONTEXT('','3D')
);
#364=(
LENGTH_UNIT()
NAMED_UNIT(*)
SI_UNIT(.MILLI.,.METRE.)
);
#365=(
LENGTH_UNIT()
NAMED_UNIT(*)
SI_UNIT(.CENTI.,.METRE.)
);
#366=(
NAMED_UNIT(*)
PLANE_ANGLE_UNIT()
SI_UNIT($,.RADIAN.)
);
#367=(
NAMED_UNIT(*)
SI_UNIT($,.STERADIAN.)
SOLID_ANGLE_UNIT()
);
#368=SHAPE_DEFINITION_REPRESENTATION(#369,#370);
#369=PRODUCT_DEFINITION_SHAPE('',$,#372);
#370=SHAPE_REPRESENTATION('',(#228),#362);
#371=PRODUCT_DEFINITION_CONTEXT('part definition',#376,'design');
#372=PRODUCT_DEFINITION('Welle','Welle_724',#373,#371);
#373=PRODUCT_DEFINITION_FORMATION('',$,#378);
#374=PRODUCT_RELATED_PRODUCT_CATEGORY('Welle_724','Welle_724',(#378));
#375=APPLICATION_PROTOCOL_DEFINITION('international standard',
'automotive_design',2009,#376);
#376=APPLICATION_CONTEXT(
'Core Data for Automotive Mechanical Design Process');
#377=PRODUCT_CONTEXT('part definition',#376,'mechanical');
#378=PRODUCT('Welle','Welle_724',$,(#377));
#379=PRESENTATION_STYLE_ASSIGNMENT((#380));
#380=SURFACE_STYLE_USAGE(.BOTH.,#383);
#381=SURFACE_STYLE_RENDERING_WITH_PROPERTIES($,#387,(#382));
#382=SURFACE_STYLE_TRANSPARENT(0.);
#383=SURFACE_SIDE_STYLE('',(#384,#381));
#384=SURFACE_STYLE_FILL_AREA(#385);
#385=FILL_AREA_STYLE('',(#386));
#386=FILL_AREA_STYLE_COLOUR('',#387);
#387=COLOUR_RGB('',0.749019607843137,0.749019607843137,0.749019607843137);
ENDSEC;
END-ISO-10303-21;
