ISO-10303-21;
HEADER;
/* Generated by software containing ST-Developer
 * from STEP Tools, Inc. (www.steptools.com) 
 */

FILE_DESCRIPTION(
/* description */ ('\X\DCberarbeitete Sitzschale'),
/* implementation_level */ '2;1');

FILE_NAME(
/* name */ 'Sitz.stp',
/* time_stamp */ '2026-09-02T21:26:24+02:00',
/* author */ ('bluhm'),
/* organization */ (''),
/* preprocessor_version */ 'ST-DEVELOPER v20.1',
/* originating_system */ 'Autodesk Inventor 2026',
/* authorisation */ '');

FILE_SCHEMA (('AUTOMOTIVE_DESIGN { 1 0 10303 214 3 1 1 }'));
ENDSEC;

DATA;
#10=MECHANICAL_DESIGN_GEOMETRIC_PRESENTATION_REPRESENTATION('',(#13),#1552);
#11=SHAPE_REPRESENTATION_RELATIONSHIP('SRR','None',#1558,#12);
#12=ADVANCED_BREP_SHAPE_REPRESENTATION('',(#861),#1551);
#13=STYLED_ITEM('',(#1567),#861);
#14=ORIENTED_CLOSED_SHELL('',*,#860,.F.);
#15=FACE_BOUND('',#163,.T.);
#16=SPHERICAL_SURFACE('',#902,1.);
#17=SPHERICAL_SURFACE('',#910,1.);
#18=SPHERICAL_SURFACE('',#919,1.);
#19=SPHERICAL_SURFACE('',#925,1.);
#20=CIRCLE('',#884,80.);
#21=CIRCLE('',#886,80.);
#22=CIRCLE('',#898,110.);
#23=CIRCLE('',#900,110.);
#24=CIRCLE('',#903,0.999999999999993);
#25=CIRCLE('',#904,1.);
#26=CIRCLE('',#905,1.);
#27=CIRCLE('',#907,1.);
#28=CIRCLE('',#911,1.);
#29=CIRCLE('',#912,1.);
#30=CIRCLE('',#913,1.);
#31=CIRCLE('',#915,1.);
#32=CIRCLE('',#920,1.);
#33=CIRCLE('',#921,1.);
#34=CIRCLE('',#922,1.);
#35=CIRCLE('',#924,1.);
#36=CIRCLE('',#926,1.);
#37=CIRCLE('',#927,1.);
#38=CIRCLE('',#928,1.);
#39=CIRCLE('',#930,1.);
#40=CIRCLE('',#948,81.);
#41=CIRCLE('',#949,81.);
#42=CIRCLE('',#953,111.);
#43=CIRCLE('',#954,111.);
#44=PLANE('',#883);
#45=PLANE('',#887);
#46=PLANE('',#897);
#47=PLANE('',#901);
#48=PLANE('',#938);
#49=PLANE('',#939);
#50=PLANE('',#940);
#51=PLANE('',#941);
#52=PLANE('',#942);
#53=PLANE('',#943);
#54=PLANE('',#944);
#55=PLANE('',#945);
#56=PLANE('',#946);
#57=PLANE('',#950);
#58=PLANE('',#951);
#59=PLANE('',#955);
#60=PLANE('',#956);
#61=PLANE('',#957);
#62=PLANE('',#958);
#63=PLANE('',#959);
#64=PLANE('',#960);
#65=PLANE('',#961);
#66=PLANE('',#962);
#67=PLANE('',#963);
#68=PLANE('',#964);
#69=FACE_OUTER_BOUND('',#122,.T.);
#70=FACE_OUTER_BOUND('',#123,.T.);
#71=FACE_OUTER_BOUND('',#124,.T.);
#72=FACE_OUTER_BOUND('',#125,.T.);
#73=FACE_OUTER_BOUND('',#126,.T.);
#74=FACE_OUTER_BOUND('',#127,.T.);
#75=FACE_OUTER_BOUND('',#128,.T.);
#76=FACE_OUTER_BOUND('',#129,.T.);
#77=FACE_OUTER_BOUND('',#130,.T.);
#78=FACE_OUTER_BOUND('',#131,.T.);
#79=FACE_OUTER_BOUND('',#132,.T.);
#80=FACE_OUTER_BOUND('',#133,.T.);
#81=FACE_OUTER_BOUND('',#134,.T.);
#82=FACE_OUTER_BOUND('',#135,.T.);
#83=FACE_OUTER_BOUND('',#136,.T.);
#84=FACE_OUTER_BOUND('',#137,.T.);
#85=FACE_OUTER_BOUND('',#138,.T.);
#86=FACE_OUTER_BOUND('',#139,.T.);
#87=FACE_OUTER_BOUND('',#140,.T.);
#88=FACE_OUTER_BOUND('',#141,.T.);
#89=FACE_OUTER_BOUND('',#142,.T.);
#90=FACE_OUTER_BOUND('',#143,.T.);
#91=FACE_OUTER_BOUND('',#144,.T.);
#92=FACE_OUTER_BOUND('',#145,.T.);
#93=FACE_OUTER_BOUND('',#146,.T.);
#94=FACE_OUTER_BOUND('',#147,.T.);
#95=FACE_OUTER_BOUND('',#148,.T.);
#96=FACE_OUTER_BOUND('',#149,.T.);
#97=FACE_OUTER_BOUND('',#150,.T.);
#98=FACE_OUTER_BOUND('',#151,.T.);
#99=FACE_OUTER_BOUND('',#152,.T.);
#100=FACE_OUTER_BOUND('',#153,.T.);
#101=FACE_OUTER_BOUND('',#154,.T.);
#102=FACE_OUTER_BOUND('',#155,.T.);
#103=FACE_OUTER_BOUND('',#156,.T.);
#104=FACE_OUTER_BOUND('',#157,.T.);
#105=FACE_OUTER_BOUND('',#158,.T.);
#106=FACE_OUTER_BOUND('',#159,.T.);
#107=FACE_OUTER_BOUND('',#160,.T.);
#108=FACE_OUTER_BOUND('',#161,.T.);
#109=FACE_OUTER_BOUND('',#162,.T.);
#110=FACE_OUTER_BOUND('',#164,.T.);
#111=FACE_OUTER_BOUND('',#165,.T.);
#112=FACE_OUTER_BOUND('',#166,.T.);
#113=FACE_OUTER_BOUND('',#167,.T.);
#114=FACE_OUTER_BOUND('',#168,.T.);
#115=FACE_OUTER_BOUND('',#169,.T.);
#116=FACE_OUTER_BOUND('',#170,.T.);
#117=FACE_OUTER_BOUND('',#171,.T.);
#118=FACE_OUTER_BOUND('',#172,.T.);
#119=FACE_OUTER_BOUND('',#173,.T.);
#120=FACE_OUTER_BOUND('',#174,.T.);
#121=FACE_OUTER_BOUND('',#175,.T.);
#122=EDGE_LOOP('',(#542,#543,#544,#545,#546));
#123=EDGE_LOOP('',(#547,#548,#549,#550));
#124=EDGE_LOOP('',(#551,#552,#553,#554,#555));
#125=EDGE_LOOP('',(#556,#557));
#126=EDGE_LOOP('',(#558,#559,#560,#561,#562,#563,#564,#565));
#127=EDGE_LOOP('',(#566,#567));
#128=EDGE_LOOP('',(#568,#569,#570,#571));
#129=EDGE_LOOP('',(#572,#573,#574,#575));
#130=EDGE_LOOP('',(#576,#577,#578,#579,#580));
#131=EDGE_LOOP('',(#581,#582,#583,#584));
#132=EDGE_LOOP('',(#585,#586,#587,#588,#589));
#133=EDGE_LOOP('',(#590,#591,#592));
#134=EDGE_LOOP('',(#593,#594,#595,#596,#597,#598,#599,#600));
#135=EDGE_LOOP('',(#601,#602,#603));
#136=EDGE_LOOP('',(#604,#605,#606));
#137=EDGE_LOOP('',(#607,#608,#609,#610));
#138=EDGE_LOOP('',(#611,#612,#613,#614));
#139=EDGE_LOOP('',(#615,#616,#617));
#140=EDGE_LOOP('',(#618,#619,#620,#621));
#141=EDGE_LOOP('',(#622,#623,#624,#625));
#142=EDGE_LOOP('',(#626,#627,#628,#629));
#143=EDGE_LOOP('',(#630,#631,#632));
#144=EDGE_LOOP('',(#633,#634,#635,#636));
#145=EDGE_LOOP('',(#637,#638,#639));
#146=EDGE_LOOP('',(#640,#641,#642,#643));
#147=EDGE_LOOP('',(#644,#645,#646,#647));
#148=EDGE_LOOP('',(#648,#649,#650,#651));
#149=EDGE_LOOP('',(#652,#653,#654,#655));
#150=EDGE_LOOP('',(#656,#657,#658,#659));
#151=EDGE_LOOP('',(#660,#661,#662,#663));
#152=EDGE_LOOP('',(#664,#665,#666,#667));
#153=EDGE_LOOP('',(#668,#669,#670,#671,#672,#673));
#154=EDGE_LOOP('',(#674,#675,#676,#677));
#155=EDGE_LOOP('',(#678,#679,#680,#681,#682,#683,#684,#685));
#156=EDGE_LOOP('',(#686,#687,#688,#689,#690,#691,#692,#693));
#157=EDGE_LOOP('',(#694,#695,#696,#697));
#158=EDGE_LOOP('',(#698,#699,#700,#701));
#159=EDGE_LOOP('',(#702,#703,#704,#705,#706,#707));
#160=EDGE_LOOP('',(#708,#709,#710,#711,#712,#713,#714,#715));
#161=EDGE_LOOP('',(#716,#717,#718,#719));
#162=EDGE_LOOP('',(#720,#721,#722,#723));
#163=EDGE_LOOP('',(#724,#725,#726,#727));
#164=EDGE_LOOP('',(#728,#729,#730,#731,#732,#733,#734,#735));
#165=EDGE_LOOP('',(#736,#737,#738,#739));
#166=EDGE_LOOP('',(#740,#741,#742,#743));
#167=EDGE_LOOP('',(#744,#745,#746,#747,#748,#749,#750,#751));
#168=EDGE_LOOP('',(#752,#753,#754,#755,#756,#757));
#169=EDGE_LOOP('',(#758,#759,#760,#761,#762,#763));
#170=EDGE_LOOP('',(#764,#765,#766,#767));
#171=EDGE_LOOP('',(#768,#769,#770));
#172=EDGE_LOOP('',(#771,#772,#773));
#173=EDGE_LOOP('',(#774,#775));
#174=EDGE_LOOP('',(#776,#777));
#175=EDGE_LOOP('',(#778,#779,#780,#781));
#176=ELLIPSE('',#879,1.414213562373,1.);
#177=ELLIPSE('',#881,1.41421356237319,1.);
#178=ELLIPSE('',#889,1.2076314134944,1.);
#179=ELLIPSE('',#891,1.2076314134944,1.);
#180=ELLIPSE('',#893,1.41421356237308,1.);
#181=ELLIPSE('',#895,1.41421356237311,1.);
#182=ELLIPSE('',#909,1.2076314134944,1.);
#183=ELLIPSE('',#918,1.2076314134944,1.);
#184=ELLIPSE('',#932,1.2076314134944,1.);
#185=ELLIPSE('',#936,1.2076314134944,1.);
#186=B_SPLINE_CURVE_WITH_KNOTS('',3,(#1225,#1226,#1227,#1228,#1229,#1230,
#1231,#1232,#1233,#1234,#1235,#1236,#1237,#1238,#1239,#1240),
 .UNSPECIFIED.,.F.,.F.,(4,2,2,2,2,2,2,4),(0.,0.119779371983875,0.23955874396775,
0.75130952755287,1.15362047416801,1.55593142078315,2.36055331401343,3.96979710047399),
 .UNSPECIFIED.);
#187=B_SPLINE_CURVE_WITH_KNOTS('',3,(#1245,#1246,#1247,#1248,#1249,#1250,
#1251,#1252,#1253,#1254,#1255,#1256),.UNSPECIFIED.,.F.,.F.,(4,2,2,2,2,4),
(-17.3112023521057,-16.8699664121972,-16.4676554655821,-16.065344518967,
-15.2607226257367,-13.6514788392761),.UNSPECIFIED.);
#188=B_SPLINE_CURVE_WITH_KNOTS('',3,(#1267,#1268,#1269,#1270,#1271,#1272,
#1273,#1274,#1275,#1276,#1277,#1278,#1279,#1280,#1281,#1282),
 .UNSPECIFIED.,.F.,.F.,(4,2,2,2,2,2,2,4),(4.84084086940105,6.45008465586161,
7.2547065490919,7.65701749570704,8.05932844232218,8.5710792259073,8.69085859789117,
8.81063796987505),.UNSPECIFIED.);
#189=B_SPLINE_CURVE_WITH_KNOTS('',3,(#1285,#1286,#1287,#1288,#1289,#1290,
#1291,#1292,#1293,#1294,#1295,#1296),.UNSPECIFIED.,.F.,.F.,(4,2,2,2,2,4),
(-12.780435070349,-11.1711912838885,-10.3665693906582,-9.96425844404306,
-9.56194749742792,-9.12071155751628),.UNSPECIFIED.);
#190=B_SPLINE_CURVE_WITH_KNOTS('',3,(#1307,#1308,#1309,#1310,#1311,#1312,
#1313,#1314,#1315,#1316,#1317,#1318,#1319,#1320),.UNSPECIFIED.,.F.,.F.,
(4,2,2,2,2,2,4),(7.11461650558766,7.24013312438096,7.36564974317425,7.85801850553971,
8.52662709249047,9.19523567944123,10.5324528533428),.UNSPECIFIED.);
#191=B_SPLINE_CURVE_WITH_KNOTS('',3,(#1328,#1329,#1330,#1331,#1332,#1333,
#1334,#1335,#1336,#1337,#1338,#1339,#1340,#1341),.UNSPECIFIED.,.F.,.F.,
(4,2,2,2,2,2,4),(-3.41783634775508,-2.08061917385356,-1.41201058690281,
-0.743401999952045,-0.25103323758659,-0.125516618793295,0.),
 .UNSPECIFIED.);
#192=B_SPLINE_CURVE_WITH_KNOTS('',3,(#1351,#1352,#1353,#1354),
 .UNSPECIFIED.,.F.,.F.,(4,4),(-1.52225725784618,-1.32081066909758),
 .UNSPECIFIED.);
#193=B_SPLINE_CURVE_WITH_KNOTS('',3,(#1365,#1366,#1367,#1368),
 .UNSPECIFIED.,.F.,.F.,(4,4),(-1.72498178166648,-1.52353519291788),
 .UNSPECIFIED.);
#194=LINE('',#1223,#272);
#195=LINE('',#1242,#273);
#196=LINE('',#1259,#274);
#197=LINE('',#1262,#275);
#198=LINE('',#1265,#276);
#199=LINE('',#1284,#277);
#200=LINE('',#1301,#278);
#201=LINE('',#1306,#279);
#202=LINE('',#1322,#280);
#203=LINE('',#1326,#281);
#204=LINE('',#1343,#282);
#205=LINE('',#1347,#283);
#206=LINE('',#1349,#284);
#207=LINE('',#1358,#285);
#208=LINE('',#1360,#286);
#209=LINE('',#1363,#287);
#210=LINE('',#1369,#288);
#211=LINE('',#1386,#289);
#212=LINE('',#1387,#290);
#213=LINE('',#1390,#291);
#214=LINE('',#1392,#292);
#215=LINE('',#1405,#293);
#216=LINE('',#1406,#294);
#217=LINE('',#1408,#295);
#218=LINE('',#1409,#296);
#219=LINE('',#1412,#297);
#220=LINE('',#1414,#298);
#221=LINE('',#1427,#299);
#222=LINE('',#1428,#300);
#223=LINE('',#1440,#301);
#224=LINE('',#1441,#302);
#225=LINE('',#1444,#303);
#226=LINE('',#1446,#304);
#227=LINE('',#1449,#305);
#228=LINE('',#1450,#306);
#229=LINE('',#1452,#307);
#230=LINE('',#1453,#308);
#231=LINE('',#1456,#309);
#232=LINE('',#1458,#310);
#233=LINE('',#1461,#311);
#234=LINE('',#1462,#312);
#235=LINE('',#1464,#313);
#236=LINE('',#1466,#314);
#237=LINE('',#1468,#315);
#238=LINE('',#1469,#316);
#239=LINE('',#1471,#317);
#240=LINE('',#1473,#318);
#241=LINE('',#1476,#319);
#242=LINE('',#1478,#320);
#243=LINE('',#1483,#321);
#244=LINE('',#1487,#322);
#245=LINE('',#1492,#323);
#246=LINE('',#1494,#324);
#247=LINE('',#1496,#325);
#248=LINE('',#1497,#326);
#249=LINE('',#1498,#327);
#250=LINE('',#1499,#328);
#251=LINE('',#1502,#329);
#252=LINE('',#1504,#330);
#253=LINE('',#1506,#331);
#254=LINE('',#1508,#332);
#255=LINE('',#1510,#333);
#256=LINE('',#1512,#334);
#257=LINE('',#1513,#335);
#258=LINE('',#1518,#336);
#259=LINE('',#1523,#337);
#260=LINE('',#1525,#338);
#261=LINE('',#1527,#339);
#262=LINE('',#1528,#340);
#263=LINE('',#1530,#341);
#264=LINE('',#1531,#342);
#265=LINE('',#1532,#343);
#266=LINE('',#1533,#344);
#267=LINE('',#1536,#345);
#268=LINE('',#1537,#346);
#269=LINE('',#1540,#347);
#270=LINE('',#1541,#348);
#271=LINE('',#1543,#349);
#272=VECTOR('',#969,1.);
#273=VECTOR('',#970,1.);
#274=VECTOR('',#975,1.);
#275=VECTOR('',#978,1.);
#276=VECTOR('',#981,1.);
#277=VECTOR('',#982,1.);
#278=VECTOR('',#991,1.);
#279=VECTOR('',#996,1.);
#280=VECTOR('',#997,1.);
#281=VECTOR('',#1002,1.);
#282=VECTOR('',#1003,1.);
#283=VECTOR('',#1008,1.);
#284=VECTOR('',#1009,1.);
#285=VECTOR('',#1014,1.);
#286=VECTOR('',#1015,1.);
#287=VECTOR('',#1020,1.);
#288=VECTOR('',#1021,1.);
#289=VECTOR('',#1044,1.);
#290=VECTOR('',#1045,1.);
#291=VECTOR('',#1048,1.);
#292=VECTOR('',#1049,1.);
#293=VECTOR('',#1064,1.);
#294=VECTOR('',#1065,1.);
#295=VECTOR('',#1068,1.);
#296=VECTOR('',#1069,1.);
#297=VECTOR('',#1072,1.);
#298=VECTOR('',#1073,1.);
#299=VECTOR('',#1088,1.);
#300=VECTOR('',#1089,1.);
#301=VECTOR('',#1102,1.);
#302=VECTOR('',#1103,1.);
#303=VECTOR('',#1106,1.);
#304=VECTOR('',#1107,1.);
#305=VECTOR('',#1112,1.);
#306=VECTOR('',#1113,1.);
#307=VECTOR('',#1116,1.);
#308=VECTOR('',#1117,1.);
#309=VECTOR('',#1120,1.);
#310=VECTOR('',#1121,1.);
#311=VECTOR('',#1126,1.);
#312=VECTOR('',#1127,1.);
#313=VECTOR('',#1130,1.);
#314=VECTOR('',#1133,1.);
#315=VECTOR('',#1136,1.);
#316=VECTOR('',#1137,1.);
#317=VECTOR('',#1140,1.);
#318=VECTOR('',#1143,1.);
#319=VECTOR('',#1148,1.);
#320=VECTOR('',#1151,1.);
#321=VECTOR('',#1156,1.);
#322=VECTOR('',#1159,1.);
#323=VECTOR('',#1164,1.);
#324=VECTOR('',#1165,1.);
#325=VECTOR('',#1166,1.);
#326=VECTOR('',#1167,1.);
#327=VECTOR('',#1168,1.);
#328=VECTOR('',#1169,1.);
#329=VECTOR('',#1172,1.);
#330=VECTOR('',#1173,1.);
#331=VECTOR('',#1174,1.);
#332=VECTOR('',#1175,1.);
#333=VECTOR('',#1176,1.);
#334=VECTOR('',#1177,1.);
#335=VECTOR('',#1178,1.);
#336=VECTOR('',#1183,1.);
#337=VECTOR('',#1188,1.);
#338=VECTOR('',#1189,1.);
#339=VECTOR('',#1190,1.);
#340=VECTOR('',#1191,1.);
#341=VECTOR('',#1194,1.);
#342=VECTOR('',#1195,1.);
#343=VECTOR('',#1196,1.);
#344=VECTOR('',#1197,1.);
#345=VECTOR('',#1200,1.);
#346=VECTOR('',#1201,1.);
#347=VECTOR('',#1204,1.);
#348=VECTOR('',#1205,1.);
#349=VECTOR('',#1208,1.);
#350=VERTEX_POINT('',#1221);
#351=VERTEX_POINT('',#1222);
#352=VERTEX_POINT('',#1224);
#353=VERTEX_POINT('',#1241);
#354=VERTEX_POINT('',#1243);
#355=VERTEX_POINT('',#1258);
#356=VERTEX_POINT('',#1260);
#357=VERTEX_POINT('',#1264);
#358=VERTEX_POINT('',#1266);
#359=VERTEX_POINT('',#1283);
#360=VERTEX_POINT('',#1304);
#361=VERTEX_POINT('',#1305);
#362=VERTEX_POINT('',#1321);
#363=VERTEX_POINT('',#1325);
#364=VERTEX_POINT('',#1327);
#365=VERTEX_POINT('',#1342);
#366=VERTEX_POINT('',#1346);
#367=VERTEX_POINT('',#1348);
#368=VERTEX_POINT('',#1350);
#369=VERTEX_POINT('',#1357);
#370=VERTEX_POINT('',#1359);
#371=VERTEX_POINT('',#1364);
#372=VERTEX_POINT('',#1376);
#373=VERTEX_POINT('',#1377);
#374=VERTEX_POINT('',#1379);
#375=VERTEX_POINT('',#1383);
#376=VERTEX_POINT('',#1384);
#377=VERTEX_POINT('',#1389);
#378=VERTEX_POINT('',#1391);
#379=VERTEX_POINT('',#1395);
#380=VERTEX_POINT('',#1396);
#381=VERTEX_POINT('',#1398);
#382=VERTEX_POINT('',#1402);
#383=VERTEX_POINT('',#1403);
#384=VERTEX_POINT('',#1411);
#385=VERTEX_POINT('',#1413);
#386=VERTEX_POINT('',#1417);
#387=VERTEX_POINT('',#1418);
#388=VERTEX_POINT('',#1420);
#389=VERTEX_POINT('',#1424);
#390=VERTEX_POINT('',#1425);
#391=VERTEX_POINT('',#1430);
#392=VERTEX_POINT('',#1431);
#393=VERTEX_POINT('',#1433);
#394=VERTEX_POINT('',#1437);
#395=VERTEX_POINT('',#1438);
#396=VERTEX_POINT('',#1443);
#397=VERTEX_POINT('',#1445);
#398=VERTEX_POINT('',#1455);
#399=VERTEX_POINT('',#1457);
#400=VERTEX_POINT('',#1481);
#401=VERTEX_POINT('',#1482);
#402=VERTEX_POINT('',#1484);
#403=VERTEX_POINT('',#1486);
#404=VERTEX_POINT('',#1490);
#405=VERTEX_POINT('',#1491);
#406=VERTEX_POINT('',#1493);
#407=VERTEX_POINT('',#1495);
#408=VERTEX_POINT('',#1501);
#409=VERTEX_POINT('',#1503);
#410=VERTEX_POINT('',#1505);
#411=VERTEX_POINT('',#1507);
#412=VERTEX_POINT('',#1509);
#413=VERTEX_POINT('',#1511);
#414=VERTEX_POINT('',#1515);
#415=VERTEX_POINT('',#1517);
#416=VERTEX_POINT('',#1521);
#417=VERTEX_POINT('',#1522);
#418=VERTEX_POINT('',#1524);
#419=VERTEX_POINT('',#1526);
#420=VERTEX_POINT('',#1535);
#421=VERTEX_POINT('',#1539);
#422=EDGE_CURVE('',#350,#351,#194,.T.);
#423=EDGE_CURVE('',#352,#351,#186,.T.);
#424=EDGE_CURVE('',#352,#353,#195,.T.);
#425=EDGE_CURVE('',#353,#354,#176,.T.);
#426=EDGE_CURVE('',#354,#350,#187,.T.);
#427=EDGE_CURVE('',#353,#355,#196,.T.);
#428=EDGE_CURVE('',#355,#356,#177,.T.);
#429=EDGE_CURVE('',#356,#354,#197,.T.);
#430=EDGE_CURVE('',#355,#357,#198,.T.);
#431=EDGE_CURVE('',#357,#358,#188,.F.);
#432=EDGE_CURVE('',#358,#359,#199,.T.);
#433=EDGE_CURVE('',#359,#356,#189,.T.);
#434=EDGE_CURVE('',#351,#350,#20,.T.);
#435=EDGE_CURVE('',#359,#358,#21,.T.);
#436=EDGE_CURVE('',#357,#352,#200,.T.);
#437=EDGE_CURVE('',#360,#361,#201,.T.);
#438=EDGE_CURVE('',#357,#361,#190,.T.);
#439=EDGE_CURVE('',#357,#362,#202,.T.);
#440=EDGE_CURVE('',#362,#360,#178,.T.);
#441=EDGE_CURVE('',#363,#352,#203,.T.);
#442=EDGE_CURVE('',#352,#364,#191,.F.);
#443=EDGE_CURVE('',#364,#365,#204,.T.);
#444=EDGE_CURVE('',#365,#363,#179,.T.);
#445=EDGE_CURVE('',#366,#363,#205,.T.);
#446=EDGE_CURVE('',#365,#367,#206,.T.);
#447=EDGE_CURVE('',#367,#368,#192,.T.);
#448=EDGE_CURVE('',#368,#366,#180,.T.);
#449=EDGE_CURVE('',#369,#366,#207,.T.);
#450=EDGE_CURVE('',#370,#368,#208,.T.);
#451=EDGE_CURVE('',#370,#369,#181,.T.);
#452=EDGE_CURVE('',#362,#369,#209,.T.);
#453=EDGE_CURVE('',#370,#371,#193,.T.);
#454=EDGE_CURVE('',#371,#360,#210,.T.);
#455=EDGE_CURVE('',#361,#371,#22,.T.);
#456=EDGE_CURVE('',#367,#364,#23,.T.);
#457=EDGE_CURVE('',#372,#373,#24,.F.);
#458=EDGE_CURVE('',#374,#372,#25,.F.);
#459=EDGE_CURVE('',#373,#374,#26,.F.);
#460=EDGE_CURVE('',#375,#376,#27,.T.);
#461=EDGE_CURVE('',#376,#374,#211,.T.);
#462=EDGE_CURVE('',#372,#375,#212,.T.);
#463=EDGE_CURVE('',#377,#373,#213,.T.);
#464=EDGE_CURVE('',#374,#378,#214,.T.);
#465=EDGE_CURVE('',#378,#377,#182,.T.);
#466=EDGE_CURVE('',#379,#380,#28,.F.);
#467=EDGE_CURVE('',#381,#379,#29,.F.);
#468=EDGE_CURVE('',#380,#381,#30,.F.);
#469=EDGE_CURVE('',#382,#383,#31,.T.);
#470=EDGE_CURVE('',#383,#381,#215,.T.);
#471=EDGE_CURVE('',#379,#382,#216,.T.);
#472=EDGE_CURVE('',#373,#380,#217,.T.);
#473=EDGE_CURVE('',#381,#372,#218,.T.);
#474=EDGE_CURVE('',#384,#379,#219,.T.);
#475=EDGE_CURVE('',#380,#385,#220,.T.);
#476=EDGE_CURVE('',#385,#384,#183,.T.);
#477=EDGE_CURVE('',#386,#387,#32,.F.);
#478=EDGE_CURVE('',#388,#386,#33,.F.);
#479=EDGE_CURVE('',#387,#388,#34,.F.);
#480=EDGE_CURVE('',#389,#390,#35,.T.);
#481=EDGE_CURVE('',#390,#388,#221,.T.);
#482=EDGE_CURVE('',#386,#389,#222,.T.);
#483=EDGE_CURVE('',#391,#392,#36,.F.);
#484=EDGE_CURVE('',#393,#391,#37,.F.);
#485=EDGE_CURVE('',#392,#393,#38,.F.);
#486=EDGE_CURVE('',#394,#395,#39,.T.);
#487=EDGE_CURVE('',#395,#393,#223,.T.);
#488=EDGE_CURVE('',#391,#394,#224,.T.);
#489=EDGE_CURVE('',#396,#392,#225,.T.);
#490=EDGE_CURVE('',#393,#397,#226,.T.);
#491=EDGE_CURVE('',#397,#396,#184,.T.);
#492=EDGE_CURVE('',#392,#387,#227,.T.);
#493=EDGE_CURVE('',#388,#391,#228,.T.);
#494=EDGE_CURVE('',#385,#396,#229,.T.);
#495=EDGE_CURVE('',#397,#384,#230,.T.);
#496=EDGE_CURVE('',#398,#386,#231,.T.);
#497=EDGE_CURVE('',#387,#399,#232,.T.);
#498=EDGE_CURVE('',#399,#398,#185,.T.);
#499=EDGE_CURVE('',#378,#398,#233,.T.);
#500=EDGE_CURVE('',#399,#377,#234,.T.);
#501=EDGE_CURVE('',#383,#375,#235,.T.);
#502=EDGE_CURVE('',#395,#382,#236,.T.);
#503=EDGE_CURVE('',#377,#357,#237,.T.);
#504=EDGE_CURVE('',#399,#362,#238,.T.);
#505=EDGE_CURVE('',#363,#396,#239,.T.);
#506=EDGE_CURVE('',#352,#385,#240,.T.);
#507=EDGE_CURVE('',#390,#394,#241,.T.);
#508=EDGE_CURVE('',#376,#389,#242,.T.);
#509=EDGE_CURVE('',#400,#401,#243,.T.);
#510=EDGE_CURVE('',#402,#401,#40,.F.);
#511=EDGE_CURVE('',#403,#402,#244,.F.);
#512=EDGE_CURVE('',#400,#403,#41,.F.);
#513=EDGE_CURVE('',#404,#405,#245,.F.);
#514=EDGE_CURVE('',#404,#406,#246,.F.);
#515=EDGE_CURVE('',#407,#406,#247,.T.);
#516=EDGE_CURVE('',#405,#407,#248,.F.);
#517=EDGE_CURVE('',#400,#403,#249,.T.);
#518=EDGE_CURVE('',#401,#402,#250,.T.);
#519=EDGE_CURVE('',#408,#404,#251,.F.);
#520=EDGE_CURVE('',#409,#408,#252,.F.);
#521=EDGE_CURVE('',#410,#409,#253,.F.);
#522=EDGE_CURVE('',#410,#411,#254,.T.);
#523=EDGE_CURVE('',#411,#412,#255,.F.);
#524=EDGE_CURVE('',#413,#412,#256,.T.);
#525=EDGE_CURVE('',#413,#406,#257,.F.);
#526=EDGE_CURVE('',#414,#410,#42,.T.);
#527=EDGE_CURVE('',#415,#414,#258,.F.);
#528=EDGE_CURVE('',#411,#415,#43,.T.);
#529=EDGE_CURVE('',#416,#417,#259,.T.);
#530=EDGE_CURVE('',#417,#418,#260,.T.);
#531=EDGE_CURVE('',#419,#418,#261,.F.);
#532=EDGE_CURVE('',#419,#416,#262,.F.);
#533=EDGE_CURVE('',#416,#413,#263,.F.);
#534=EDGE_CURVE('',#412,#415,#264,.F.);
#535=EDGE_CURVE('',#409,#414,#265,.F.);
#536=EDGE_CURVE('',#408,#417,#266,.T.);
#537=EDGE_CURVE('',#420,#419,#267,.F.);
#538=EDGE_CURVE('',#420,#407,#268,.T.);
#539=EDGE_CURVE('',#418,#421,#269,.F.);
#540=EDGE_CURVE('',#405,#421,#270,.T.);
#541=EDGE_CURVE('',#421,#420,#271,.F.);
#542=ORIENTED_EDGE('',*,*,#422,.T.);
#543=ORIENTED_EDGE('',*,*,#423,.F.);
#544=ORIENTED_EDGE('',*,*,#424,.T.);
#545=ORIENTED_EDGE('',*,*,#425,.T.);
#546=ORIENTED_EDGE('',*,*,#426,.T.);
#547=ORIENTED_EDGE('',*,*,#427,.T.);
#548=ORIENTED_EDGE('',*,*,#428,.T.);
#549=ORIENTED_EDGE('',*,*,#429,.T.);
#550=ORIENTED_EDGE('',*,*,#425,.F.);
#551=ORIENTED_EDGE('',*,*,#430,.T.);
#552=ORIENTED_EDGE('',*,*,#431,.T.);
#553=ORIENTED_EDGE('',*,*,#432,.T.);
#554=ORIENTED_EDGE('',*,*,#433,.T.);
#555=ORIENTED_EDGE('',*,*,#428,.F.);
#556=ORIENTED_EDGE('',*,*,#422,.F.);
#557=ORIENTED_EDGE('',*,*,#434,.F.);
#558=ORIENTED_EDGE('',*,*,#429,.F.);
#559=ORIENTED_EDGE('',*,*,#433,.F.);
#560=ORIENTED_EDGE('',*,*,#435,.T.);
#561=ORIENTED_EDGE('',*,*,#431,.F.);
#562=ORIENTED_EDGE('',*,*,#436,.T.);
#563=ORIENTED_EDGE('',*,*,#423,.T.);
#564=ORIENTED_EDGE('',*,*,#434,.T.);
#565=ORIENTED_EDGE('',*,*,#426,.F.);
#566=ORIENTED_EDGE('',*,*,#432,.F.);
#567=ORIENTED_EDGE('',*,*,#435,.F.);
#568=ORIENTED_EDGE('',*,*,#437,.T.);
#569=ORIENTED_EDGE('',*,*,#438,.F.);
#570=ORIENTED_EDGE('',*,*,#439,.T.);
#571=ORIENTED_EDGE('',*,*,#440,.T.);
#572=ORIENTED_EDGE('',*,*,#441,.T.);
#573=ORIENTED_EDGE('',*,*,#442,.T.);
#574=ORIENTED_EDGE('',*,*,#443,.T.);
#575=ORIENTED_EDGE('',*,*,#444,.T.);
#576=ORIENTED_EDGE('',*,*,#445,.T.);
#577=ORIENTED_EDGE('',*,*,#444,.F.);
#578=ORIENTED_EDGE('',*,*,#446,.T.);
#579=ORIENTED_EDGE('',*,*,#447,.T.);
#580=ORIENTED_EDGE('',*,*,#448,.T.);
#581=ORIENTED_EDGE('',*,*,#449,.T.);
#582=ORIENTED_EDGE('',*,*,#448,.F.);
#583=ORIENTED_EDGE('',*,*,#450,.F.);
#584=ORIENTED_EDGE('',*,*,#451,.T.);
#585=ORIENTED_EDGE('',*,*,#452,.T.);
#586=ORIENTED_EDGE('',*,*,#451,.F.);
#587=ORIENTED_EDGE('',*,*,#453,.T.);
#588=ORIENTED_EDGE('',*,*,#454,.T.);
#589=ORIENTED_EDGE('',*,*,#440,.F.);
#590=ORIENTED_EDGE('',*,*,#437,.F.);
#591=ORIENTED_EDGE('',*,*,#454,.F.);
#592=ORIENTED_EDGE('',*,*,#455,.F.);
#593=ORIENTED_EDGE('',*,*,#450,.T.);
#594=ORIENTED_EDGE('',*,*,#447,.F.);
#595=ORIENTED_EDGE('',*,*,#456,.T.);
#596=ORIENTED_EDGE('',*,*,#442,.F.);
#597=ORIENTED_EDGE('',*,*,#436,.F.);
#598=ORIENTED_EDGE('',*,*,#438,.T.);
#599=ORIENTED_EDGE('',*,*,#455,.T.);
#600=ORIENTED_EDGE('',*,*,#453,.F.);
#601=ORIENTED_EDGE('',*,*,#446,.F.);
#602=ORIENTED_EDGE('',*,*,#443,.F.);
#603=ORIENTED_EDGE('',*,*,#456,.F.);
#604=ORIENTED_EDGE('',*,*,#457,.F.);
#605=ORIENTED_EDGE('',*,*,#458,.F.);
#606=ORIENTED_EDGE('',*,*,#459,.F.);
#607=ORIENTED_EDGE('',*,*,#460,.T.);
#608=ORIENTED_EDGE('',*,*,#461,.T.);
#609=ORIENTED_EDGE('',*,*,#458,.T.);
#610=ORIENTED_EDGE('',*,*,#462,.T.);
#611=ORIENTED_EDGE('',*,*,#463,.T.);
#612=ORIENTED_EDGE('',*,*,#459,.T.);
#613=ORIENTED_EDGE('',*,*,#464,.T.);
#614=ORIENTED_EDGE('',*,*,#465,.T.);
#615=ORIENTED_EDGE('',*,*,#466,.F.);
#616=ORIENTED_EDGE('',*,*,#467,.F.);
#617=ORIENTED_EDGE('',*,*,#468,.F.);
#618=ORIENTED_EDGE('',*,*,#469,.T.);
#619=ORIENTED_EDGE('',*,*,#470,.T.);
#620=ORIENTED_EDGE('',*,*,#467,.T.);
#621=ORIENTED_EDGE('',*,*,#471,.T.);
#622=ORIENTED_EDGE('',*,*,#457,.T.);
#623=ORIENTED_EDGE('',*,*,#472,.T.);
#624=ORIENTED_EDGE('',*,*,#468,.T.);
#625=ORIENTED_EDGE('',*,*,#473,.T.);
#626=ORIENTED_EDGE('',*,*,#474,.T.);
#627=ORIENTED_EDGE('',*,*,#466,.T.);
#628=ORIENTED_EDGE('',*,*,#475,.T.);
#629=ORIENTED_EDGE('',*,*,#476,.T.);
#630=ORIENTED_EDGE('',*,*,#477,.F.);
#631=ORIENTED_EDGE('',*,*,#478,.F.);
#632=ORIENTED_EDGE('',*,*,#479,.F.);
#633=ORIENTED_EDGE('',*,*,#480,.T.);
#634=ORIENTED_EDGE('',*,*,#481,.T.);
#635=ORIENTED_EDGE('',*,*,#478,.T.);
#636=ORIENTED_EDGE('',*,*,#482,.T.);
#637=ORIENTED_EDGE('',*,*,#483,.F.);
#638=ORIENTED_EDGE('',*,*,#484,.F.);
#639=ORIENTED_EDGE('',*,*,#485,.F.);
#640=ORIENTED_EDGE('',*,*,#486,.T.);
#641=ORIENTED_EDGE('',*,*,#487,.T.);
#642=ORIENTED_EDGE('',*,*,#484,.T.);
#643=ORIENTED_EDGE('',*,*,#488,.T.);
#644=ORIENTED_EDGE('',*,*,#489,.T.);
#645=ORIENTED_EDGE('',*,*,#485,.T.);
#646=ORIENTED_EDGE('',*,*,#490,.T.);
#647=ORIENTED_EDGE('',*,*,#491,.T.);
#648=ORIENTED_EDGE('',*,*,#483,.T.);
#649=ORIENTED_EDGE('',*,*,#492,.T.);
#650=ORIENTED_EDGE('',*,*,#479,.T.);
#651=ORIENTED_EDGE('',*,*,#493,.T.);
#652=ORIENTED_EDGE('',*,*,#494,.T.);
#653=ORIENTED_EDGE('',*,*,#491,.F.);
#654=ORIENTED_EDGE('',*,*,#495,.T.);
#655=ORIENTED_EDGE('',*,*,#476,.F.);
#656=ORIENTED_EDGE('',*,*,#496,.T.);
#657=ORIENTED_EDGE('',*,*,#477,.T.);
#658=ORIENTED_EDGE('',*,*,#497,.T.);
#659=ORIENTED_EDGE('',*,*,#498,.T.);
#660=ORIENTED_EDGE('',*,*,#499,.T.);
#661=ORIENTED_EDGE('',*,*,#498,.F.);
#662=ORIENTED_EDGE('',*,*,#500,.T.);
#663=ORIENTED_EDGE('',*,*,#465,.F.);
#664=ORIENTED_EDGE('',*,*,#462,.F.);
#665=ORIENTED_EDGE('',*,*,#473,.F.);
#666=ORIENTED_EDGE('',*,*,#470,.F.);
#667=ORIENTED_EDGE('',*,*,#501,.T.);
#668=ORIENTED_EDGE('',*,*,#471,.F.);
#669=ORIENTED_EDGE('',*,*,#474,.F.);
#670=ORIENTED_EDGE('',*,*,#495,.F.);
#671=ORIENTED_EDGE('',*,*,#490,.F.);
#672=ORIENTED_EDGE('',*,*,#487,.F.);
#673=ORIENTED_EDGE('',*,*,#502,.T.);
#674=ORIENTED_EDGE('',*,*,#439,.F.);
#675=ORIENTED_EDGE('',*,*,#503,.F.);
#676=ORIENTED_EDGE('',*,*,#500,.F.);
#677=ORIENTED_EDGE('',*,*,#504,.T.);
#678=ORIENTED_EDGE('',*,*,#452,.F.);
#679=ORIENTED_EDGE('',*,*,#504,.F.);
#680=ORIENTED_EDGE('',*,*,#497,.F.);
#681=ORIENTED_EDGE('',*,*,#492,.F.);
#682=ORIENTED_EDGE('',*,*,#489,.F.);
#683=ORIENTED_EDGE('',*,*,#505,.F.);
#684=ORIENTED_EDGE('',*,*,#445,.F.);
#685=ORIENTED_EDGE('',*,*,#449,.F.);
#686=ORIENTED_EDGE('',*,*,#424,.F.);
#687=ORIENTED_EDGE('',*,*,#506,.T.);
#688=ORIENTED_EDGE('',*,*,#475,.F.);
#689=ORIENTED_EDGE('',*,*,#472,.F.);
#690=ORIENTED_EDGE('',*,*,#463,.F.);
#691=ORIENTED_EDGE('',*,*,#503,.T.);
#692=ORIENTED_EDGE('',*,*,#430,.F.);
#693=ORIENTED_EDGE('',*,*,#427,.F.);
#694=ORIENTED_EDGE('',*,*,#441,.F.);
#695=ORIENTED_EDGE('',*,*,#505,.T.);
#696=ORIENTED_EDGE('',*,*,#494,.F.);
#697=ORIENTED_EDGE('',*,*,#506,.F.);
#698=ORIENTED_EDGE('',*,*,#481,.F.);
#699=ORIENTED_EDGE('',*,*,#507,.T.);
#700=ORIENTED_EDGE('',*,*,#488,.F.);
#701=ORIENTED_EDGE('',*,*,#493,.F.);
#702=ORIENTED_EDGE('',*,*,#461,.F.);
#703=ORIENTED_EDGE('',*,*,#508,.T.);
#704=ORIENTED_EDGE('',*,*,#482,.F.);
#705=ORIENTED_EDGE('',*,*,#496,.F.);
#706=ORIENTED_EDGE('',*,*,#499,.F.);
#707=ORIENTED_EDGE('',*,*,#464,.F.);
#708=ORIENTED_EDGE('',*,*,#460,.F.);
#709=ORIENTED_EDGE('',*,*,#501,.F.);
#710=ORIENTED_EDGE('',*,*,#469,.F.);
#711=ORIENTED_EDGE('',*,*,#502,.F.);
#712=ORIENTED_EDGE('',*,*,#486,.F.);
#713=ORIENTED_EDGE('',*,*,#507,.F.);
#714=ORIENTED_EDGE('',*,*,#480,.F.);
#715=ORIENTED_EDGE('',*,*,#508,.F.);
#716=ORIENTED_EDGE('',*,*,#509,.T.);
#717=ORIENTED_EDGE('',*,*,#510,.F.);
#718=ORIENTED_EDGE('',*,*,#511,.F.);
#719=ORIENTED_EDGE('',*,*,#512,.F.);
#720=ORIENTED_EDGE('',*,*,#513,.F.);
#721=ORIENTED_EDGE('',*,*,#514,.T.);
#722=ORIENTED_EDGE('',*,*,#515,.F.);
#723=ORIENTED_EDGE('',*,*,#516,.F.);
#724=ORIENTED_EDGE('',*,*,#517,.T.);
#725=ORIENTED_EDGE('',*,*,#511,.T.);
#726=ORIENTED_EDGE('',*,*,#518,.F.);
#727=ORIENTED_EDGE('',*,*,#509,.F.);
#728=ORIENTED_EDGE('',*,*,#519,.F.);
#729=ORIENTED_EDGE('',*,*,#520,.F.);
#730=ORIENTED_EDGE('',*,*,#521,.F.);
#731=ORIENTED_EDGE('',*,*,#522,.T.);
#732=ORIENTED_EDGE('',*,*,#523,.T.);
#733=ORIENTED_EDGE('',*,*,#524,.F.);
#734=ORIENTED_EDGE('',*,*,#525,.T.);
#735=ORIENTED_EDGE('',*,*,#514,.F.);
#736=ORIENTED_EDGE('',*,*,#522,.F.);
#737=ORIENTED_EDGE('',*,*,#526,.F.);
#738=ORIENTED_EDGE('',*,*,#527,.F.);
#739=ORIENTED_EDGE('',*,*,#528,.F.);
#740=ORIENTED_EDGE('',*,*,#529,.T.);
#741=ORIENTED_EDGE('',*,*,#530,.T.);
#742=ORIENTED_EDGE('',*,*,#531,.F.);
#743=ORIENTED_EDGE('',*,*,#532,.T.);
#744=ORIENTED_EDGE('',*,*,#529,.F.);
#745=ORIENTED_EDGE('',*,*,#533,.T.);
#746=ORIENTED_EDGE('',*,*,#524,.T.);
#747=ORIENTED_EDGE('',*,*,#534,.T.);
#748=ORIENTED_EDGE('',*,*,#527,.T.);
#749=ORIENTED_EDGE('',*,*,#535,.F.);
#750=ORIENTED_EDGE('',*,*,#520,.T.);
#751=ORIENTED_EDGE('',*,*,#536,.T.);
#752=ORIENTED_EDGE('',*,*,#515,.T.);
#753=ORIENTED_EDGE('',*,*,#525,.F.);
#754=ORIENTED_EDGE('',*,*,#533,.F.);
#755=ORIENTED_EDGE('',*,*,#532,.F.);
#756=ORIENTED_EDGE('',*,*,#537,.F.);
#757=ORIENTED_EDGE('',*,*,#538,.T.);
#758=ORIENTED_EDGE('',*,*,#539,.F.);
#759=ORIENTED_EDGE('',*,*,#530,.F.);
#760=ORIENTED_EDGE('',*,*,#536,.F.);
#761=ORIENTED_EDGE('',*,*,#519,.T.);
#762=ORIENTED_EDGE('',*,*,#513,.T.);
#763=ORIENTED_EDGE('',*,*,#540,.T.);
#764=ORIENTED_EDGE('',*,*,#540,.F.);
#765=ORIENTED_EDGE('',*,*,#516,.T.);
#766=ORIENTED_EDGE('',*,*,#538,.F.);
#767=ORIENTED_EDGE('',*,*,#541,.F.);
#768=ORIENTED_EDGE('',*,*,#526,.T.);
#769=ORIENTED_EDGE('',*,*,#521,.T.);
#770=ORIENTED_EDGE('',*,*,#535,.T.);
#771=ORIENTED_EDGE('',*,*,#523,.F.);
#772=ORIENTED_EDGE('',*,*,#528,.T.);
#773=ORIENTED_EDGE('',*,*,#534,.F.);
#774=ORIENTED_EDGE('',*,*,#510,.T.);
#775=ORIENTED_EDGE('',*,*,#518,.T.);
#776=ORIENTED_EDGE('',*,*,#517,.F.);
#777=ORIENTED_EDGE('',*,*,#512,.T.);
#778=ORIENTED_EDGE('',*,*,#531,.T.);
#779=ORIENTED_EDGE('',*,*,#539,.T.);
#780=ORIENTED_EDGE('',*,*,#541,.T.);
#781=ORIENTED_EDGE('',*,*,#537,.T.);
#782=CYLINDRICAL_SURFACE('',#878,1.);
#783=CYLINDRICAL_SURFACE('',#880,1.);
#784=CYLINDRICAL_SURFACE('',#882,1.);
#785=CYLINDRICAL_SURFACE('',#885,80.);
#786=CYLINDRICAL_SURFACE('',#888,1.);
#787=CYLINDRICAL_SURFACE('',#890,1.);
#788=CYLINDRICAL_SURFACE('',#892,1.);
#789=CYLINDRICAL_SURFACE('',#894,1.);
#790=CYLINDRICAL_SURFACE('',#896,1.);
#791=CYLINDRICAL_SURFACE('',#899,110.);
#792=CYLINDRICAL_SURFACE('',#906,1.);
#793=CYLINDRICAL_SURFACE('',#908,1.);
#794=CYLINDRICAL_SURFACE('',#914,1.);
#795=CYLINDRICAL_SURFACE('',#916,1.);
#796=CYLINDRICAL_SURFACE('',#917,1.);
#797=CYLINDRICAL_SURFACE('',#923,1.);
#798=CYLINDRICAL_SURFACE('',#929,1.);
#799=CYLINDRICAL_SURFACE('',#931,1.);
#800=CYLINDRICAL_SURFACE('',#933,1.);
#801=CYLINDRICAL_SURFACE('',#934,1.);
#802=CYLINDRICAL_SURFACE('',#935,1.);
#803=CYLINDRICAL_SURFACE('',#937,1.);
#804=CYLINDRICAL_SURFACE('',#947,81.);
#805=CYLINDRICAL_SURFACE('',#952,111.);
#806=ADVANCED_FACE('',(#69),#782,.T.);
#807=ADVANCED_FACE('',(#70),#783,.T.);
#808=ADVANCED_FACE('',(#71),#784,.T.);
#809=ADVANCED_FACE('',(#72),#44,.T.);
#810=ADVANCED_FACE('',(#73),#785,.F.);
#811=ADVANCED_FACE('',(#74),#45,.F.);
#812=ADVANCED_FACE('',(#75),#786,.T.);
#813=ADVANCED_FACE('',(#76),#787,.T.);
#814=ADVANCED_FACE('',(#77),#788,.T.);
#815=ADVANCED_FACE('',(#78),#789,.T.);
#816=ADVANCED_FACE('',(#79),#790,.T.);
#817=ADVANCED_FACE('',(#80),#46,.F.);
#818=ADVANCED_FACE('',(#81),#791,.F.);
#819=ADVANCED_FACE('',(#82),#47,.T.);
#820=ADVANCED_FACE('',(#83),#16,.T.);
#821=ADVANCED_FACE('',(#84),#792,.T.);
#822=ADVANCED_FACE('',(#85),#793,.T.);
#823=ADVANCED_FACE('',(#86),#17,.T.);
#824=ADVANCED_FACE('',(#87),#794,.T.);
#825=ADVANCED_FACE('',(#88),#795,.T.);
#826=ADVANCED_FACE('',(#89),#796,.T.);
#827=ADVANCED_FACE('',(#90),#18,.T.);
#828=ADVANCED_FACE('',(#91),#797,.T.);
#829=ADVANCED_FACE('',(#92),#19,.T.);
#830=ADVANCED_FACE('',(#93),#798,.T.);
#831=ADVANCED_FACE('',(#94),#799,.T.);
#832=ADVANCED_FACE('',(#95),#800,.T.);
#833=ADVANCED_FACE('',(#96),#801,.T.);
#834=ADVANCED_FACE('',(#97),#802,.T.);
#835=ADVANCED_FACE('',(#98),#803,.T.);
#836=ADVANCED_FACE('',(#99),#48,.T.);
#837=ADVANCED_FACE('',(#100),#49,.T.);
#838=ADVANCED_FACE('',(#101),#50,.T.);
#839=ADVANCED_FACE('',(#102),#51,.T.);
#840=ADVANCED_FACE('',(#103),#52,.T.);
#841=ADVANCED_FACE('',(#104),#53,.T.);
#842=ADVANCED_FACE('',(#105),#54,.T.);
#843=ADVANCED_FACE('',(#106),#55,.T.);
#844=ADVANCED_FACE('',(#107),#56,.F.);
#845=ADVANCED_FACE('',(#108),#804,.T.);
#846=ADVANCED_FACE('',(#109,#15),#57,.F.);
#847=ADVANCED_FACE('',(#110),#58,.F.);
#848=ADVANCED_FACE('',(#111),#805,.T.);
#849=ADVANCED_FACE('',(#112),#59,.F.);
#850=ADVANCED_FACE('',(#113),#60,.F.);
#851=ADVANCED_FACE('',(#114),#61,.F.);
#852=ADVANCED_FACE('',(#115),#62,.F.);
#853=ADVANCED_FACE('',(#116),#63,.F.);
#854=ADVANCED_FACE('',(#117),#64,.F.);
#855=ADVANCED_FACE('',(#118),#65,.T.);
#856=ADVANCED_FACE('',(#119),#66,.T.);
#857=ADVANCED_FACE('',(#120),#67,.F.);
#858=ADVANCED_FACE('',(#121),#68,.T.);
#859=CLOSED_SHELL('',(#806,#807,#808,#809,#810,#811,#812,#813,#814,#815,
#816,#817,#818,#819,#820,#821,#822,#823,#824,#825,#826,#827,#828,#829,#830,
#831,#832,#833,#834,#835,#836,#837,#838,#839,#840,#841,#842,#843,#844));
#860=CLOSED_SHELL('',(#845,#846,#847,#848,#849,#850,#851,#852,#853,#854,
#855,#856,#857,#858));
#861=BREP_WITH_VOIDS('Volumenk\X\F6rper1',#859,(#14));
#862=DERIVED_UNIT_ELEMENT(#865,1.);
#863=DERIVED_UNIT_ELEMENT(#1553,-3.);
#864=DIMENSIONAL_EXPONENTS(0.,1.,0.,0.,0.,0.,0.);
#865=(
CONVERSION_BASED_UNIT('gram',#867)
MASS_UNIT()
NAMED_UNIT(#864)
);
#866=(
MASS_UNIT()
NAMED_UNIT(*)
SI_UNIT(.KILO.,.GRAM.)
);
#867=MASS_MEASURE_WITH_UNIT(MASS_MEASURE(0.001),#866);
#868=DERIVED_UNIT((#862,#863));
#869=MEASURE_REPRESENTATION_ITEM('density measure',
POSITIVE_RATIO_MEASURE(1.),#868);
#870=PROPERTY_DEFINITION_REPRESENTATION(#875,#872);
#871=PROPERTY_DEFINITION_REPRESENTATION(#876,#873);
#872=REPRESENTATION('material name',(#874),#1551);
#873=REPRESENTATION('density',(#869),#1551);
#874=DESCRIPTIVE_REPRESENTATION_ITEM('Allgemein','Allgemein');
#875=PROPERTY_DEFINITION('material property','material name',#1560);
#876=PROPERTY_DEFINITION('material property','density of part',#1560);
#877=AXIS2_PLACEMENT_3D('',#1219,#965,#966);
#878=AXIS2_PLACEMENT_3D('',#1220,#967,#968);
#879=AXIS2_PLACEMENT_3D('',#1244,#971,#972);
#880=AXIS2_PLACEMENT_3D('',#1257,#973,#974);
#881=AXIS2_PLACEMENT_3D('',#1261,#976,#977);
#882=AXIS2_PLACEMENT_3D('',#1263,#979,#980);
#883=AXIS2_PLACEMENT_3D('',#1297,#983,#984);
#884=AXIS2_PLACEMENT_3D('',#1298,#985,#986);
#885=AXIS2_PLACEMENT_3D('',#1299,#987,#988);
#886=AXIS2_PLACEMENT_3D('',#1300,#989,#990);
#887=AXIS2_PLACEMENT_3D('',#1302,#992,#993);
#888=AXIS2_PLACEMENT_3D('',#1303,#994,#995);
#889=AXIS2_PLACEMENT_3D('',#1323,#998,#999);
#890=AXIS2_PLACEMENT_3D('',#1324,#1000,#1001);
#891=AXIS2_PLACEMENT_3D('',#1344,#1004,#1005);
#892=AXIS2_PLACEMENT_3D('',#1345,#1006,#1007);
#893=AXIS2_PLACEMENT_3D('',#1355,#1010,#1011);
#894=AXIS2_PLACEMENT_3D('',#1356,#1012,#1013);
#895=AXIS2_PLACEMENT_3D('',#1361,#1016,#1017);
#896=AXIS2_PLACEMENT_3D('',#1362,#1018,#1019);
#897=AXIS2_PLACEMENT_3D('',#1370,#1022,#1023);
#898=AXIS2_PLACEMENT_3D('',#1371,#1024,#1025);
#899=AXIS2_PLACEMENT_3D('',#1372,#1026,#1027);
#900=AXIS2_PLACEMENT_3D('',#1373,#1028,#1029);
#901=AXIS2_PLACEMENT_3D('',#1374,#1030,#1031);
#902=AXIS2_PLACEMENT_3D('',#1375,#1032,#1033);
#903=AXIS2_PLACEMENT_3D('',#1378,#1034,#1035);
#904=AXIS2_PLACEMENT_3D('',#1380,#1036,#1037);
#905=AXIS2_PLACEMENT_3D('',#1381,#1038,#1039);
#906=AXIS2_PLACEMENT_3D('',#1382,#1040,#1041);
#907=AXIS2_PLACEMENT_3D('',#1385,#1042,#1043);
#908=AXIS2_PLACEMENT_3D('',#1388,#1046,#1047);
#909=AXIS2_PLACEMENT_3D('',#1393,#1050,#1051);
#910=AXIS2_PLACEMENT_3D('',#1394,#1052,#1053);
#911=AXIS2_PLACEMENT_3D('',#1397,#1054,#1055);
#912=AXIS2_PLACEMENT_3D('',#1399,#1056,#1057);
#913=AXIS2_PLACEMENT_3D('',#1400,#1058,#1059);
#914=AXIS2_PLACEMENT_3D('',#1401,#1060,#1061);
#915=AXIS2_PLACEMENT_3D('',#1404,#1062,#1063);
#916=AXIS2_PLACEMENT_3D('',#1407,#1066,#1067);
#917=AXIS2_PLACEMENT_3D('',#1410,#1070,#1071);
#918=AXIS2_PLACEMENT_3D('',#1415,#1074,#1075);
#919=AXIS2_PLACEMENT_3D('',#1416,#1076,#1077);
#920=AXIS2_PLACEMENT_3D('',#1419,#1078,#1079);
#921=AXIS2_PLACEMENT_3D('',#1421,#1080,#1081);
#922=AXIS2_PLACEMENT_3D('',#1422,#1082,#1083);
#923=AXIS2_PLACEMENT_3D('',#1423,#1084,#1085);
#924=AXIS2_PLACEMENT_3D('',#1426,#1086,#1087);
#925=AXIS2_PLACEMENT_3D('',#1429,#1090,#1091);
#926=AXIS2_PLACEMENT_3D('',#1432,#1092,#1093);
#927=AXIS2_PLACEMENT_3D('',#1434,#1094,#1095);
#928=AXIS2_PLACEMENT_3D('',#1435,#1096,#1097);
#929=AXIS2_PLACEMENT_3D('',#1436,#1098,#1099);
#930=AXIS2_PLACEMENT_3D('',#1439,#1100,#1101);
#931=AXIS2_PLACEMENT_3D('',#1442,#1104,#1105);
#932=AXIS2_PLACEMENT_3D('',#1447,#1108,#1109);
#933=AXIS2_PLACEMENT_3D('',#1448,#1110,#1111);
#934=AXIS2_PLACEMENT_3D('',#1451,#1114,#1115);
#935=AXIS2_PLACEMENT_3D('',#1454,#1118,#1119);
#936=AXIS2_PLACEMENT_3D('',#1459,#1122,#1123);
#937=AXIS2_PLACEMENT_3D('',#1460,#1124,#1125);
#938=AXIS2_PLACEMENT_3D('',#1463,#1128,#1129);
#939=AXIS2_PLACEMENT_3D('',#1465,#1131,#1132);
#940=AXIS2_PLACEMENT_3D('',#1467,#1134,#1135);
#941=AXIS2_PLACEMENT_3D('',#1470,#1138,#1139);
#942=AXIS2_PLACEMENT_3D('',#1472,#1141,#1142);
#943=AXIS2_PLACEMENT_3D('',#1474,#1144,#1145);
#944=AXIS2_PLACEMENT_3D('',#1475,#1146,#1147);
#945=AXIS2_PLACEMENT_3D('',#1477,#1149,#1150);
#946=AXIS2_PLACEMENT_3D('',#1479,#1152,#1153);
#947=AXIS2_PLACEMENT_3D('',#1480,#1154,#1155);
#948=AXIS2_PLACEMENT_3D('',#1485,#1157,#1158);
#949=AXIS2_PLACEMENT_3D('',#1488,#1160,#1161);
#950=AXIS2_PLACEMENT_3D('',#1489,#1162,#1163);
#951=AXIS2_PLACEMENT_3D('',#1500,#1170,#1171);
#952=AXIS2_PLACEMENT_3D('',#1514,#1179,#1180);
#953=AXIS2_PLACEMENT_3D('',#1516,#1181,#1182);
#954=AXIS2_PLACEMENT_3D('',#1519,#1184,#1185);
#955=AXIS2_PLACEMENT_3D('',#1520,#1186,#1187);
#956=AXIS2_PLACEMENT_3D('',#1529,#1192,#1193);
#957=AXIS2_PLACEMENT_3D('',#1534,#1198,#1199);
#958=AXIS2_PLACEMENT_3D('',#1538,#1202,#1203);
#959=AXIS2_PLACEMENT_3D('',#1542,#1206,#1207);
#960=AXIS2_PLACEMENT_3D('',#1544,#1209,#1210);
#961=AXIS2_PLACEMENT_3D('',#1545,#1211,#1212);
#962=AXIS2_PLACEMENT_3D('',#1546,#1213,#1214);
#963=AXIS2_PLACEMENT_3D('',#1547,#1215,#1216);
#964=AXIS2_PLACEMENT_3D('',#1548,#1217,#1218);
#965=DIRECTION('axis',(0.,0.,1.));
#966=DIRECTION('refdir',(1.,0.,0.));
#967=DIRECTION('center_axis',(0.,0.,-1.));
#968=DIRECTION('ref_axis',(0.707106781186548,0.707106781186548,0.));
#969=DIRECTION('',(0.,0.,-1.));
#970=DIRECTION('',(0.,0.,1.));
#971=DIRECTION('center_axis',(-0.707106781186503,0.,-0.707106781186593));
#972=DIRECTION('ref_axis',(-0.707106781186593,0.,0.707106781186503));
#973=DIRECTION('center_axis',(-1.,0.,0.));
#974=DIRECTION('ref_axis',(0.,0.989983048439235,-0.141186273422597));
#975=DIRECTION('',(1.,0.,0.));
#976=DIRECTION('center_axis',(-0.707106781186503,0.,0.707106781186593));
#977=DIRECTION('ref_axis',(0.707106781186592,0.,0.707106781186502));
#978=DIRECTION('',(-1.,0.,0.));
#979=DIRECTION('center_axis',(0.,0.,1.));
#980=DIRECTION('ref_axis',(-0.707106781186548,0.707106781186548,0.));
#981=DIRECTION('',(0.,0.,-1.));
#982=DIRECTION('',(0.,0.,1.));
#983=DIRECTION('center_axis',(1.,0.,0.));
#984=DIRECTION('ref_axis',(0.,0.,-1.));
#985=DIRECTION('center_axis',(-1.,0.,0.));
#986=DIRECTION('ref_axis',(0.,-0.959634533299005,0.28125));
#987=DIRECTION('center_axis',(1.,0.,0.));
#988=DIRECTION('ref_axis',(0.,-0.959634533299005,0.28125));
#989=DIRECTION('center_axis',(1.,0.,0.));
#990=DIRECTION('ref_axis',(0.,-0.959634533299005,0.28125));
#991=DIRECTION('',(-1.,0.,0.));
#992=DIRECTION('center_axis',(1.,0.,0.));
#993=DIRECTION('ref_axis',(0.,0.,-1.));
#994=DIRECTION('center_axis',(0.,-0.928476690885259,0.371390676354104));
#995=DIRECTION('ref_axis',(-0.707106781186546,0.262612865719449,0.656532164298613));
#996=DIRECTION('',(0.,-0.928476690885259,0.371390676354104));
#997=DIRECTION('',(0.,0.928476690885259,-0.371390676354104));
#998=DIRECTION('center_axis',(0.,-0.560628809305185,0.828067230469272));
#999=DIRECTION('ref_axis',(0.,0.828067230469272,0.560628809305185));
#1000=DIRECTION('center_axis',(0.,0.928476690885259,-0.371390676354104));
#1001=DIRECTION('ref_axis',(0.707106781186546,0.262612865719449,0.656532164298613));
#1002=DIRECTION('',(0.,-0.928476690885259,0.371390676354104));
#1003=DIRECTION('',(0.,0.928476690885259,-0.371390676354104));
#1004=DIRECTION('center_axis',(0.,-0.560628809305185,0.828067230469272));
#1005=DIRECTION('ref_axis',(0.,-0.828067230469272,-0.560628809305185));
#1006=DIRECTION('center_axis',(0.,0.,-1.));
#1007=DIRECTION('ref_axis',(0.707106781186548,0.707106781186548,0.));
#1008=DIRECTION('',(0.,0.,1.));
#1009=DIRECTION('',(0.,0.,-1.));
#1010=DIRECTION('center_axis',(-0.707106781186539,0.,0.707106781186556));
#1011=DIRECTION('ref_axis',(0.707106781186556,0.,0.707106781186539));
#1012=DIRECTION('center_axis',(1.,0.,0.));
#1013=DIRECTION('ref_axis',(0.,0.775119098318585,0.63181514972481));
#1014=DIRECTION('',(-1.,0.,0.));
#1015=DIRECTION('',(-1.,0.,0.));
#1016=DIRECTION('center_axis',(-0.707106781186539,0.,-0.707106781186556));
#1017=DIRECTION('ref_axis',(-0.707106781186556,0.,0.707106781186539));
#1018=DIRECTION('center_axis',(0.,0.,1.));
#1019=DIRECTION('ref_axis',(-0.707106781186548,0.707106781186548,0.));
#1020=DIRECTION('',(0.,0.,-1.));
#1021=DIRECTION('',(0.,0.,1.));
#1022=DIRECTION('center_axis',(1.,0.,0.));
#1023=DIRECTION('ref_axis',(0.,0.,-1.));
#1024=DIRECTION('center_axis',(1.,0.,0.));
#1025=DIRECTION('ref_axis',(0.,-0.648906680730566,-0.760868004126366));
#1026=DIRECTION('center_axis',(1.,0.,0.));
#1027=DIRECTION('ref_axis',(0.,-0.648906680730566,-0.760868004126366));
#1028=DIRECTION('center_axis',(-1.,0.,0.));
#1029=DIRECTION('ref_axis',(0.,-0.648906680730566,-0.760868004126366));
#1030=DIRECTION('center_axis',(1.,0.,0.));
#1031=DIRECTION('ref_axis',(0.,0.,-1.));
#1032=DIRECTION('center_axis',(0.408248290463859,-0.816496580927726,0.408248290463867));
#1033=DIRECTION('ref_axis',(0.577350269189623,0.577350269189625,0.57735026918963));
#1034=DIRECTION('center_axis',(1.,0.,0.));
#1035=DIRECTION('ref_axis',(0.,0.,1.));
#1036=DIRECTION('center_axis',(0.,1.,0.));
#1037=DIRECTION('ref_axis',(1.,0.,0.));
#1038=DIRECTION('center_axis',(0.,0.,1.));
#1039=DIRECTION('ref_axis',(0.,1.,0.));
#1040=DIRECTION('center_axis',(0.,1.,0.));
#1041=DIRECTION('ref_axis',(0.707106781186548,0.,0.707106781186548));
#1042=DIRECTION('center_axis',(0.,1.,0.));
#1043=DIRECTION('ref_axis',(0.707106781186548,0.,0.707106781186548));
#1044=DIRECTION('',(0.,1.,0.));
#1045=DIRECTION('',(0.,-1.,0.));
#1046=DIRECTION('center_axis',(0.,0.,-1.));
#1047=DIRECTION('ref_axis',(0.707106781186548,0.707106781186548,0.));
#1048=DIRECTION('',(0.,0.,1.));
#1049=DIRECTION('',(0.,0.,-1.));
#1050=DIRECTION('center_axis',(0.,-0.560628809305181,0.828067230469275));
#1051=DIRECTION('ref_axis',(0.,0.828067230469275,0.560628809305181));
#1052=DIRECTION('center_axis',(-0.408248290463859,-0.816496580927726,0.408248290463867));
#1053=DIRECTION('ref_axis',(-0.577350269189625,0.577350269189623,0.577350269189629));
#1054=DIRECTION('center_axis',(0.,-1.4210854715202E-14,1.));
#1055=DIRECTION('ref_axis',(-1.,0.,0.));
#1056=DIRECTION('center_axis',(0.,1.,0.));
#1057=DIRECTION('ref_axis',(0.,0.,1.));
#1058=DIRECTION('center_axis',(-1.,0.,0.));
#1059=DIRECTION('ref_axis',(0.,1.,0.));
#1060=DIRECTION('center_axis',(0.,1.,0.));
#1061=DIRECTION('ref_axis',(-0.707106781186548,0.,0.707106781186548));
#1062=DIRECTION('center_axis',(0.,1.,0.));
#1063=DIRECTION('ref_axis',(-0.707106781186548,0.,0.707106781186548));
#1064=DIRECTION('',(0.,1.,0.));
#1065=DIRECTION('',(0.,-1.,0.));
#1066=DIRECTION('center_axis',(1.,0.,1.1842378929335E-16));
#1067=DIRECTION('ref_axis',(0.,0.707106781186548,0.707106781186548));
#1068=DIRECTION('',(-1.,0.,-1.1842378929335E-16));
#1069=DIRECTION('',(1.,0.,1.1842378929335E-16));
#1070=DIRECTION('center_axis',(0.,0.,1.));
#1071=DIRECTION('ref_axis',(-0.707106781186548,0.707106781186548,0.));
#1072=DIRECTION('',(0.,0.,1.));
#1073=DIRECTION('',(0.,0.,-1.));
#1074=DIRECTION('center_axis',(0.,-0.560628809305183,0.828067230469273));
#1075=DIRECTION('ref_axis',(0.,-0.828067230469273,-0.560628809305183));
#1076=DIRECTION('center_axis',(0.408248290463864,-0.816496580927727,-0.40824829046386));
#1077=DIRECTION('ref_axis',(0.577350269189628,0.577350269189625,-0.577350269189625));
#1078=DIRECTION('center_axis',(0.,0.,-1.));
#1079=DIRECTION('ref_axis',(1.,0.,0.));
#1080=DIRECTION('center_axis',(0.,1.,0.));
#1081=DIRECTION('ref_axis',(0.,0.,-1.));
#1082=DIRECTION('center_axis',(1.,0.,0.));
#1083=DIRECTION('ref_axis',(0.,1.,0.));
#1084=DIRECTION('center_axis',(0.,1.,0.));
#1085=DIRECTION('ref_axis',(0.707106781186548,0.,-0.707106781186548));
#1086=DIRECTION('center_axis',(0.,1.,0.));
#1087=DIRECTION('ref_axis',(0.707106781186548,0.,-0.707106781186548));
#1088=DIRECTION('',(0.,1.,0.));
#1089=DIRECTION('',(0.,-1.,0.));
#1090=DIRECTION('center_axis',(0.408248290463858,-0.408248290463858,-0.816496580927731));
#1091=DIRECTION('ref_axis',(-0.577350269189628,0.577350269189628,-0.577350269189621));
#1092=DIRECTION('center_axis',(-1.,0.,0.));
#1093=DIRECTION('ref_axis',(0.,0.,-1.));
#1094=DIRECTION('center_axis',(0.,1.,0.));
#1095=DIRECTION('ref_axis',(-1.,0.,0.));
#1096=DIRECTION('center_axis',(7.105427357601E-15,0.,-1.));
#1097=DIRECTION('ref_axis',(0.,1.,0.));
#1098=DIRECTION('center_axis',(0.,1.,0.));
#1099=DIRECTION('ref_axis',(-0.707106781186548,0.,-0.707106781186548));
#1100=DIRECTION('center_axis',(0.,1.,0.));
#1101=DIRECTION('ref_axis',(-0.707106781186548,0.,-0.707106781186548));
#1102=DIRECTION('',(0.,1.,0.));
#1103=DIRECTION('',(0.,-1.,0.));
#1104=DIRECTION('center_axis',(0.,0.,1.));
#1105=DIRECTION('ref_axis',(-0.707106781186548,0.707106781186548,0.));
#1106=DIRECTION('',(0.,0.,-1.));
#1107=DIRECTION('',(0.,0.,1.));
#1108=DIRECTION('center_axis',(-2.94188577665463E-15,0.560628809305183,
-0.828067230469273));
#1109=DIRECTION('ref_axis',(4.34526226087188E-15,-0.828067230469273,-0.560628809305183));
#1110=DIRECTION('center_axis',(-1.,0.,1.1842378929335E-16));
#1111=DIRECTION('ref_axis',(0.,0.707106781186548,-0.707106781186548));
#1112=DIRECTION('',(1.,0.,-1.1842378929335E-16));
#1113=DIRECTION('',(-1.,0.,1.1842378929335E-16));
#1114=DIRECTION('center_axis',(0.,-0.928476690885259,0.371390676354104));
#1115=DIRECTION('ref_axis',(-0.707106781186548,0.262612865719445,0.656532164298612));
#1116=DIRECTION('',(0.,0.928476690885259,-0.371390676354104));
#1117=DIRECTION('',(0.,-0.928476690885259,0.371390676354104));
#1118=DIRECTION('center_axis',(0.,0.,-1.));
#1119=DIRECTION('ref_axis',(0.707106781186548,0.707106781186548,0.));
#1120=DIRECTION('',(0.,0.,-1.));
#1121=DIRECTION('',(0.,0.,1.));
#1122=DIRECTION('center_axis',(-1.04162150244169E-15,0.560628809305183,
-0.828067230469273));
#1123=DIRECTION('ref_axis',(-1.53850929243739E-15,0.828067230469273,0.560628809305183));
#1124=DIRECTION('center_axis',(0.,0.928476690885259,-0.371390676354104));
#1125=DIRECTION('ref_axis',(0.707106781186548,0.262612865719445,0.656532164298612));
#1126=DIRECTION('',(0.,0.928476690885259,-0.371390676354104));
#1127=DIRECTION('',(0.,-0.928476690885259,0.371390676354104));
#1128=DIRECTION('center_axis',(-1.1842378929335E-16,0.,1.));
#1129=DIRECTION('ref_axis',(1.,0.,1.1842378929335E-16));
#1130=DIRECTION('',(1.,0.,1.1842378929335E-16));
#1131=DIRECTION('center_axis',(-1.,0.,0.));
#1132=DIRECTION('ref_axis',(0.,0.,1.));
#1133=DIRECTION('',(0.,0.,1.));
#1134=DIRECTION('center_axis',(0.,0.371390676354104,0.928476690885259));
#1135=DIRECTION('ref_axis',(1.,0.,0.));
#1136=DIRECTION('',(-1.,0.,0.));
#1137=DIRECTION('',(-1.,0.,0.));
#1138=DIRECTION('center_axis',(0.,1.,0.));
#1139=DIRECTION('ref_axis',(0.,0.,1.));
#1140=DIRECTION('',(-1.,0.,0.));
#1141=DIRECTION('center_axis',(0.,1.,0.));
#1142=DIRECTION('ref_axis',(0.,0.,1.));
#1143=DIRECTION('',(-1.,0.,0.));
#1144=DIRECTION('center_axis',(0.,0.371390676354104,0.928476690885259));
#1145=DIRECTION('ref_axis',(1.,0.,0.));
#1146=DIRECTION('center_axis',(-1.1842378929335E-16,0.,-1.));
#1147=DIRECTION('ref_axis',(-1.,0.,1.1842378929335E-16));
#1148=DIRECTION('',(-1.,0.,1.1842378929335E-16));
#1149=DIRECTION('center_axis',(1.,0.,0.));
#1150=DIRECTION('ref_axis',(0.,0.,-1.));
#1151=DIRECTION('',(0.,0.,-1.));
#1152=DIRECTION('center_axis',(0.,1.,0.));
#1153=DIRECTION('ref_axis',(0.,0.,1.));
#1154=DIRECTION('center_axis',(1.,0.,0.));
#1155=DIRECTION('ref_axis',(0.,-0.959634533299005,0.28125));
#1156=DIRECTION('',(1.,0.,0.));
#1157=DIRECTION('center_axis',(-1.,0.,0.));
#1158=DIRECTION('ref_axis',(0.,-0.959634533299005,0.28125));
#1159=DIRECTION('',(-1.,0.,0.));
#1160=DIRECTION('center_axis',(1.,0.,0.));
#1161=DIRECTION('ref_axis',(0.,-0.959634533299005,0.28125));
#1162=DIRECTION('center_axis',(0.,1.,0.));
#1163=DIRECTION('ref_axis',(0.,0.,1.));
#1164=DIRECTION('',(0.,0.,-1.));
#1165=DIRECTION('',(-1.,0.,0.));
#1166=DIRECTION('',(0.,0.,-1.));
#1167=DIRECTION('',(-1.,0.,-1.1842378929335E-16));
#1168=DIRECTION('',(0.,0.,1.));
#1169=DIRECTION('',(0.,0.,1.));
#1170=DIRECTION('center_axis',(0.,0.371390676354104,0.928476690885259));
#1171=DIRECTION('ref_axis',(1.,0.,0.));
#1172=DIRECTION('',(0.,0.928476690885259,-0.371390676354104));
#1173=DIRECTION('',(1.,0.,0.));
#1174=DIRECTION('',(0.,-0.928476690885259,0.371390676354104));
#1175=DIRECTION('',(1.,0.,0.));
#1176=DIRECTION('',(0.,-0.928476690885259,0.371390676354104));
#1177=DIRECTION('',(-1.,0.,0.));
#1178=DIRECTION('',(0.,0.928476690885259,-0.371390676354104));
#1179=DIRECTION('center_axis',(1.,0.,0.));
#1180=DIRECTION('ref_axis',(0.,-0.648906680730566,-0.760868004126366));
#1181=DIRECTION('center_axis',(-1.,0.,0.));
#1182=DIRECTION('ref_axis',(0.,-0.648906680730566,-0.760868004126366));
#1183=DIRECTION('',(1.,0.,0.));
#1184=DIRECTION('center_axis',(1.,0.,0.));
#1185=DIRECTION('ref_axis',(0.,-0.648906680730566,-0.760868004126366));
#1186=DIRECTION('center_axis',(-1.1842378929335E-16,0.,-1.));
#1187=DIRECTION('ref_axis',(-1.,0.,1.1842378929335E-16));
#1188=DIRECTION('',(-1.,0.,1.1842378929335E-16));
#1189=DIRECTION('',(0.,-1.,0.));
#1190=DIRECTION('',(1.,0.,-1.1842378929335E-16));
#1191=DIRECTION('',(0.,-1.,0.));
#1192=DIRECTION('center_axis',(0.,1.,0.));
#1193=DIRECTION('ref_axis',(0.,0.,1.));
#1194=DIRECTION('',(0.,0.,-1.));
#1195=DIRECTION('',(0.,0.,1.));
#1196=DIRECTION('',(0.,0.,1.));
#1197=DIRECTION('',(0.,0.,-1.));
#1198=DIRECTION('center_axis',(1.,0.,0.));
#1199=DIRECTION('ref_axis',(0.,0.,-1.));
#1200=DIRECTION('',(0.,0.,1.));
#1201=DIRECTION('',(0.,1.,0.));
#1202=DIRECTION('center_axis',(-1.,0.,0.));
#1203=DIRECTION('ref_axis',(0.,0.,1.));
#1204=DIRECTION('',(0.,0.,-1.));
#1205=DIRECTION('',(0.,-1.,0.));
#1206=DIRECTION('center_axis',(-1.1842378929335E-16,0.,1.));
#1207=DIRECTION('ref_axis',(1.,0.,1.1842378929335E-16));
#1208=DIRECTION('',(-1.,0.,-1.1842378929335E-16));
#1209=DIRECTION('center_axis',(1.,0.,0.));
#1210=DIRECTION('ref_axis',(0.,0.,-1.));
#1211=DIRECTION('center_axis',(1.,0.,0.));
#1212=DIRECTION('ref_axis',(0.,0.,-1.));
#1213=DIRECTION('center_axis',(1.,0.,0.));
#1214=DIRECTION('ref_axis',(0.,0.,-1.));
#1215=DIRECTION('center_axis',(1.,0.,0.));
#1216=DIRECTION('ref_axis',(0.,0.,-1.));
#1217=DIRECTION('center_axis',(0.,1.,0.));
#1218=DIRECTION('ref_axis',(0.,0.,1.));
#1219=CARTESIAN_POINT('',(0.,0.,0.));
#1220=CARTESIAN_POINT('Origin',(-28.5,9.,6.25));
#1221=CARTESIAN_POINT('',(-27.5,9.,31.2538922539338));
#1222=CARTESIAN_POINT('',(-27.5,9.,-6.25389225393377));
#1223=CARTESIAN_POINT('',(-27.5,9.,6.25));
#1224=CARTESIAN_POINT('',(-28.5,10.,-9.99999999999999));
#1225=CARTESIAN_POINT('Ctrl Pts',(-28.5,10.,-9.99999999999992));
#1226=CARTESIAN_POINT('Ctrl Pts',(-28.460073542672,10.,-9.99999999999992));
#1227=CARTESIAN_POINT('Ctrl Pts',(-28.4180147746286,9.99741301761684,-9.99117766976267));
#1228=CARTESIAN_POINT('Ctrl Pts',(-28.3397462421502,9.98786285112483,-9.95855260812541));
#1229=CARTESIAN_POINT('Ctrl Pts',(-28.3034009785787,9.98098984307018,-9.93504943721066));
#1230=CARTESIAN_POINT('Ctrl Pts',(-28.1416654192793,9.94324365946606,-9.80569984728482));
#1231=CARTESIAN_POINT('Ctrl Pts',(-28.0432533227044,9.89331668158601,-9.63329168492729));
#1232=CARTESIAN_POINT('Ctrl Pts',(-27.919541762429,9.8168029863994,-9.36556902881867));
#1233=CARTESIAN_POINT('Ctrl Pts',(-27.8743426369611,9.78192375398723,-9.24249260873545));
#1234=CARTESIAN_POINT('Ctrl Pts',(-27.7946243862382,9.71084254207823,-8.98920688099057));
#1235=CARTESIAN_POINT('Ctrl Pts',(-27.7603106843076,9.67462286703973,-8.85893793060691));
#1236=CARTESIAN_POINT('Ctrl Pts',(-27.6693914451661,9.56490138658162,-8.46022399578909));
#1237=CARTESIAN_POINT('Ctrl Pts',(-27.6247430679179,9.49040728599152,-8.18405581499372));
#1238=CARTESIAN_POINT('Ctrl Pts',(-27.5233921602374,9.26930830691108,-7.34586980504387));
#1239=CARTESIAN_POINT('Ctrl Pts',(-27.5,9.12574826908997,-6.77535940637216));
#1240=CARTESIAN_POINT('Ctrl Pts',(-27.5,9.,-6.25389225393377));
#1241=CARTESIAN_POINT('',(-28.5,10.,35.1430668124297));
#1242=CARTESIAN_POINT('',(-28.5,10.,6.25));
#1243=CARTESIAN_POINT('',(-28.2204559652786,9.96013287239407,34.8635227777084));
#1244=CARTESIAN_POINT('Origin',(-28.5,9.,35.1430668124297));
#1245=CARTESIAN_POINT('Ctrl Pts',(-28.2204559652764,9.96013287239342,34.8635227777061));
#1246=CARTESIAN_POINT('Ctrl Pts',(-28.1153362151518,9.92952710945801,34.7584030275806));
#1247=CARTESIAN_POINT('Ctrl Pts',(-28.0337096550881,9.88741407011356,34.6126383519844));
#1248=CARTESIAN_POINT('Ctrl Pts',(-27.919541762429,9.8168029863994,34.3655690288187));
#1249=CARTESIAN_POINT('Ctrl Pts',(-27.8743426369611,9.78192375398723,34.2424926087355));
#1250=CARTESIAN_POINT('Ctrl Pts',(-27.7946243862382,9.71084254207823,33.9892068809906));
#1251=CARTESIAN_POINT('Ctrl Pts',(-27.7603106843076,9.67462286703973,33.8589379306069));
#1252=CARTESIAN_POINT('Ctrl Pts',(-27.6693914451661,9.56490138658162,33.4602239957891));
#1253=CARTESIAN_POINT('Ctrl Pts',(-27.6247430679179,9.49040728599152,33.1840558149937));
#1254=CARTESIAN_POINT('Ctrl Pts',(-27.5233921602374,9.26930830691108,32.3458698050439));
#1255=CARTESIAN_POINT('Ctrl Pts',(-27.5,9.12574826908997,31.7753594063722));
#1256=CARTESIAN_POINT('Ctrl Pts',(-27.5,9.,31.2538922539338));
#1257=CARTESIAN_POINT('Origin',(0.,9.,35.1430668124297));
#1258=CARTESIAN_POINT('',(28.5,10.,35.1430668124297));
#1259=CARTESIAN_POINT('',(0.,10.,35.1430668124297));
#1260=CARTESIAN_POINT('',(28.2204559652786,9.96013287239407,34.8635227777084));
#1261=CARTESIAN_POINT('Origin',(28.5,9.,35.1430668124297));
#1262=CARTESIAN_POINT('',(0.,9.96013287239407,34.8635227777084));
#1263=CARTESIAN_POINT('Origin',(28.5,9.,6.25));
#1264=CARTESIAN_POINT('',(28.5,10.,-9.99999999999999));
#1265=CARTESIAN_POINT('',(28.5,10.,6.25));
#1266=CARTESIAN_POINT('',(27.5,9.,-6.25389225393377));
#1267=CARTESIAN_POINT('Ctrl Pts',(27.5,9.,-6.25389225393377));
#1268=CARTESIAN_POINT('Ctrl Pts',(27.5,9.12574826908997,-6.77535940637216));
#1269=CARTESIAN_POINT('Ctrl Pts',(27.5233921602374,9.26930830691108,-7.34586980504387));
#1270=CARTESIAN_POINT('Ctrl Pts',(27.6247430679179,9.49040728599152,-8.18405581499373));
#1271=CARTESIAN_POINT('Ctrl Pts',(27.6693914451661,9.56490138658162,-8.46022399578909));
#1272=CARTESIAN_POINT('Ctrl Pts',(27.7603106843076,9.67462286703973,-8.85893793060691));
#1273=CARTESIAN_POINT('Ctrl Pts',(27.7946243862382,9.71084254207823,-8.98920688099057));
#1274=CARTESIAN_POINT('Ctrl Pts',(27.8743426369611,9.78192375398723,-9.24249260873545));
#1275=CARTESIAN_POINT('Ctrl Pts',(27.919541762429,9.8168029863994,-9.36556902881867));
#1276=CARTESIAN_POINT('Ctrl Pts',(28.0432533227044,9.89331668158601,-9.63329168492729));
#1277=CARTESIAN_POINT('Ctrl Pts',(28.1416654192793,9.94324365946606,-9.80569984728482));
#1278=CARTESIAN_POINT('Ctrl Pts',(28.3034009785787,9.98098984307018,-9.93504943721066));
#1279=CARTESIAN_POINT('Ctrl Pts',(28.3397462421502,9.98786285112483,-9.95855260812541));
#1280=CARTESIAN_POINT('Ctrl Pts',(28.4180147746286,9.99741301761684,-9.99117766976267));
#1281=CARTESIAN_POINT('Ctrl Pts',(28.460073542672,10.,-9.99999999999995));
#1282=CARTESIAN_POINT('Ctrl Pts',(28.5,10.,-9.99999999999995));
#1283=CARTESIAN_POINT('',(27.5,9.,31.2538922539338));
#1284=CARTESIAN_POINT('',(27.5,9.,6.25));
#1285=CARTESIAN_POINT('Ctrl Pts',(27.5,9.,31.2538922539338));
#1286=CARTESIAN_POINT('Ctrl Pts',(27.5,9.12574826908997,31.7753594063722));
#1287=CARTESIAN_POINT('Ctrl Pts',(27.5233921602374,9.26930830691108,32.3458698050439));
#1288=CARTESIAN_POINT('Ctrl Pts',(27.6247430679179,9.49040728599152,33.1840558149937));
#1289=CARTESIAN_POINT('Ctrl Pts',(27.6693914451661,9.56490138658162,33.4602239957891));
#1290=CARTESIAN_POINT('Ctrl Pts',(27.7603106843076,9.67462286703973,33.8589379306069));
#1291=CARTESIAN_POINT('Ctrl Pts',(27.7946243862382,9.71084254207823,33.9892068809906));
#1292=CARTESIAN_POINT('Ctrl Pts',(27.8743426369611,9.78192375398723,34.2424926087355));
#1293=CARTESIAN_POINT('Ctrl Pts',(27.919541762429,9.8168029863994,34.3655690288187));
#1294=CARTESIAN_POINT('Ctrl Pts',(28.0337096550886,9.88741407011382,34.6126383519853));
#1295=CARTESIAN_POINT('Ctrl Pts',(28.1153362151529,9.92952710945861,34.7584030275826));
#1296=CARTESIAN_POINT('Ctrl Pts',(28.2204559652786,9.96013287239407,34.8635227777083));
#1297=CARTESIAN_POINT('Origin',(-27.5,8.38538133196023,12.5));
#1298=CARTESIAN_POINT('Origin',(-27.5,86.7707626639205,12.5));
#1299=CARTESIAN_POINT('Origin',(0.,86.7707626639205,12.5));
#1300=CARTESIAN_POINT('Origin',(27.5,86.7707626639205,12.5));
#1301=CARTESIAN_POINT('',(-15.,10.,-9.99999999999999));
#1302=CARTESIAN_POINT('Origin',(27.5,8.38538133196023,12.5));
#1303=CARTESIAN_POINT('Origin',(28.5,34.9912664172156,-21.0735395283131));
#1304=CARTESIAN_POINT('',(27.5,59.,-30.6770329614269));
#1305=CARTESIAN_POINT('',(27.5,12.5194148639207,-12.0847989069952));
#1306=CARTESIAN_POINT('',(27.5,34.9912664172156,-21.0735395283131));
#1307=CARTESIAN_POINT('Ctrl Pts',(28.5,10.,-10.));
#1308=CARTESIAN_POINT('Ctrl Pts',(28.4581611270689,9.99999999999999,-9.99999999999999));
#1309=CARTESIAN_POINT('Ctrl Pts',(28.4137771013847,10.0067565436583,-10.0057635297559));
#1310=CARTESIAN_POINT('Ctrl Pts',(28.3305964077149,10.0322739122,-10.0275157567058));
#1311=CARTESIAN_POINT('Ctrl Pts',(28.2916859400102,10.0508204665467,-10.0433195725927));
#1312=CARTESIAN_POINT('Ctrl Pts',(28.129223598768,10.147211454596,-10.1253867741603));
#1313=CARTESIAN_POINT('Ctrl Pts',(28.0263889903102,10.2752534038198,-10.2341002611195));
#1314=CARTESIAN_POINT('Ctrl Pts',(27.8574824869548,10.5412199344049,-10.4588124190313));
#1315=CARTESIAN_POINT('Ctrl Pts',(27.7865856747079,10.7083352075765,-10.5992695398229));
#1316=CARTESIAN_POINT('Ctrl Pts',(27.6704460229525,11.0571117573321,-10.8904538707821));
#1317=CARTESIAN_POINT('Ctrl Pts',(27.6264359065469,11.2390125969971,-11.0413844210843));
#1318=CARTESIAN_POINT('Ctrl Pts',(27.5253710663214,11.79267687267,-11.4976538110033));
#1319=CARTESIAN_POINT('Ctrl Pts',(27.5,12.1718183101527,-11.8057649599457));
#1320=CARTESIAN_POINT('Ctrl Pts',(27.5,12.5194148639207,-12.0847989069952));
#1321=CARTESIAN_POINT('',(28.5,60.,-30.));
#1322=CARTESIAN_POINT('',(28.5,35.3626570935697,-20.1450628374279));
#1323=CARTESIAN_POINT('Origin',(28.5,59.,-30.6770329614269));
#1324=CARTESIAN_POINT('Origin',(-28.5,34.9912664172156,-21.0735395283131));
#1325=CARTESIAN_POINT('',(-28.5,60.,-30.));
#1326=CARTESIAN_POINT('',(-28.5,35.3626570935697,-20.1450628374279));
#1327=CARTESIAN_POINT('',(-27.5,12.5194148639207,-12.0847989069952));
#1328=CARTESIAN_POINT('Ctrl Pts',(-27.5,12.5194148639207,-12.0847989069952));
#1329=CARTESIAN_POINT('Ctrl Pts',(-27.5,12.1718183101527,-11.8057649599457));
#1330=CARTESIAN_POINT('Ctrl Pts',(-27.5253710663214,11.79267687267,-11.4976538110033));
#1331=CARTESIAN_POINT('Ctrl Pts',(-27.6264359065469,11.2390125969971,-11.0413844210843));
#1332=CARTESIAN_POINT('Ctrl Pts',(-27.6704460229525,11.0571117573321,-10.8904538707821));
#1333=CARTESIAN_POINT('Ctrl Pts',(-27.7865856747079,10.7083352075765,-10.5992695398229));
#1334=CARTESIAN_POINT('Ctrl Pts',(-27.8574824869548,10.5412199344049,-10.4588124190313));
#1335=CARTESIAN_POINT('Ctrl Pts',(-28.0263889903102,10.2752534038198,-10.2341002611195));
#1336=CARTESIAN_POINT('Ctrl Pts',(-28.129223598768,10.147211454596,-10.1253867741603));
#1337=CARTESIAN_POINT('Ctrl Pts',(-28.2916859400102,10.0508204665467,-10.0433195725927));
#1338=CARTESIAN_POINT('Ctrl Pts',(-28.3305964077149,10.0322739122,-10.0275157567058));
#1339=CARTESIAN_POINT('Ctrl Pts',(-28.4137771013847,10.0067565436583,-10.0057635297559));
#1340=CARTESIAN_POINT('Ctrl Pts',(-28.4581611270689,10.,-10.));
#1341=CARTESIAN_POINT('Ctrl Pts',(-28.5,10.,-10.));
#1342=CARTESIAN_POINT('',(-27.5,59.,-30.6770329614269));
#1343=CARTESIAN_POINT('',(-27.5,34.9912664172156,-21.0735395283131));
#1344=CARTESIAN_POINT('Origin',(-28.5,59.,-30.6770329614269));
#1345=CARTESIAN_POINT('Origin',(-28.5,59.,-23.5517055713521));
#1346=CARTESIAN_POINT('',(-28.5,60.,-35.0250211393351));
#1347=CARTESIAN_POINT('',(-28.5,60.,-23.5517055713521));
#1348=CARTESIAN_POINT('',(-27.5,59.,-34.0038578295112));
#1349=CARTESIAN_POINT('',(-27.5,59.,-23.5517055713521));
#1350=CARTESIAN_POINT('',(-27.5205360216826,59.2016192331564,-34.0455571610177));
#1351=CARTESIAN_POINT('Ctrl Pts',(-27.5,59.,-34.0038578295112));
#1352=CARTESIAN_POINT('Ctrl Pts',(-27.5,59.065744437296,-34.0175194090528));
#1353=CARTESIAN_POINT('Ctrl Pts',(-27.5065967107919,59.1339022168469,-34.031617850127));
#1354=CARTESIAN_POINT('Ctrl Pts',(-27.5205360216826,59.2016192331564,-34.0455571610177));
#1355=CARTESIAN_POINT('Origin',(-28.5,59.,-35.0250211393351));
#1356=CARTESIAN_POINT('Origin',(0.,59.,-35.0250211393351));
#1357=CARTESIAN_POINT('',(28.5,60.,-35.0250211393351));
#1358=CARTESIAN_POINT('',(0.,60.,-35.0250211393351));
#1359=CARTESIAN_POINT('',(27.5205360216826,59.2016192331564,-34.0455571610177));
#1360=CARTESIAN_POINT('',(0.,59.2016192331564,-34.0455571610177));
#1361=CARTESIAN_POINT('Origin',(28.5,59.,-35.0250211393351));
#1362=CARTESIAN_POINT('Origin',(28.5,59.,-23.5517055713521));
#1363=CARTESIAN_POINT('',(28.5,60.,-23.5517055713521));
#1364=CARTESIAN_POINT('',(27.5,59.,-34.0038578295112));
#1365=CARTESIAN_POINT('Ctrl Pts',(27.5205360216826,59.2016192331564,-34.0455571610177));
#1366=CARTESIAN_POINT('Ctrl Pts',(27.5065967107919,59.1339022168469,-34.031617850127));
#1367=CARTESIAN_POINT('Ctrl Pts',(27.5,59.065744437296,-34.0175194090528));
#1368=CARTESIAN_POINT('Ctrl Pts',(27.5,59.,-34.0038578295112));
#1369=CARTESIAN_POINT('',(27.5,59.,-23.5517055713521));
#1370=CARTESIAN_POINT('Origin',(27.5,35.,-22.1034111427042));
#1371=CARTESIAN_POINT('Origin',(27.5,81.379734880362,73.6954804538998));
#1372=CARTESIAN_POINT('Origin',(0.,81.379734880362,73.6954804538998));
#1373=CARTESIAN_POINT('Origin',(-27.5,81.379734880362,73.6954804538998));
#1374=CARTESIAN_POINT('Origin',(-27.5,35.,-22.1034111427042));
#1375=CARTESIAN_POINT('Origin',(29.,9.,39.));
#1376=CARTESIAN_POINT('',(29.,9.,40.));
#1377=CARTESIAN_POINT('',(29.,10.,39.));
#1378=CARTESIAN_POINT('Origin',(29.,9.,39.));
#1379=CARTESIAN_POINT('',(30.,9.,39.));
#1380=CARTESIAN_POINT('Origin',(29.,9.,39.));
#1381=CARTESIAN_POINT('Origin',(29.,9.,39.));
#1382=CARTESIAN_POINT('Origin',(29.,0.,39.));
#1383=CARTESIAN_POINT('',(29.,0.,40.));
#1384=CARTESIAN_POINT('',(30.,0.,39.));
#1385=CARTESIAN_POINT('Origin',(29.,0.,39.));
#1386=CARTESIAN_POINT('',(30.,0.,39.));
#1387=CARTESIAN_POINT('',(29.,0.,40.));
#1388=CARTESIAN_POINT('Origin',(29.,9.,20.));
#1389=CARTESIAN_POINT('',(29.,10.,-9.99999999999999));
#1390=CARTESIAN_POINT('',(29.,10.,20.));
#1391=CARTESIAN_POINT('',(30.,9.,-10.6770329614269));
#1392=CARTESIAN_POINT('',(30.,9.,20.));
#1393=CARTESIAN_POINT('Origin',(29.,9.,-10.6770329614269));
#1394=CARTESIAN_POINT('Origin',(-29.,9.,39.));
#1395=CARTESIAN_POINT('',(-30.,9.,39.));
#1396=CARTESIAN_POINT('',(-29.,10.,39.));
#1397=CARTESIAN_POINT('Origin',(-29.,9.,39.));
#1398=CARTESIAN_POINT('',(-29.,9.,40.));
#1399=CARTESIAN_POINT('Origin',(-29.,9.,39.));
#1400=CARTESIAN_POINT('Origin',(-29.,9.,39.));
#1401=CARTESIAN_POINT('Origin',(-29.,0.,39.));
#1402=CARTESIAN_POINT('',(-30.,0.,39.));
#1403=CARTESIAN_POINT('',(-29.,0.,40.));
#1404=CARTESIAN_POINT('Origin',(-29.,0.,39.));
#1405=CARTESIAN_POINT('',(-29.,0.,40.));
#1406=CARTESIAN_POINT('',(-30.,0.,39.));
#1407=CARTESIAN_POINT('Origin',(-15.,9.,39.));
#1408=CARTESIAN_POINT('',(-15.,10.,39.));
#1409=CARTESIAN_POINT('',(-15.,9.,40.));
#1410=CARTESIAN_POINT('Origin',(-29.,9.,-20.));
#1411=CARTESIAN_POINT('',(-30.,9.,-10.6770329614269));
#1412=CARTESIAN_POINT('',(-30.,9.,-20.));
#1413=CARTESIAN_POINT('',(-29.,10.,-9.99999999999999));
#1414=CARTESIAN_POINT('',(-29.,10.,-20.));
#1415=CARTESIAN_POINT('Origin',(-29.,9.,-10.6770329614269));
#1416=CARTESIAN_POINT('Origin',(29.,59.,-39.));
#1417=CARTESIAN_POINT('',(30.,59.,-39.));
#1418=CARTESIAN_POINT('',(29.,60.,-39.));
#1419=CARTESIAN_POINT('Origin',(29.,59.,-39.));
#1420=CARTESIAN_POINT('',(29.,59.,-40.));
#1421=CARTESIAN_POINT('Origin',(29.,59.,-39.));
#1422=CARTESIAN_POINT('Origin',(29.,59.,-39.));
#1423=CARTESIAN_POINT('Origin',(29.,0.,-39.));
#1424=CARTESIAN_POINT('',(30.,0.,-39.));
#1425=CARTESIAN_POINT('',(29.,0.,-40.));
#1426=CARTESIAN_POINT('Origin',(29.,0.,-39.));
#1427=CARTESIAN_POINT('',(29.,0.,-40.));
#1428=CARTESIAN_POINT('',(30.,0.,-39.));
#1429=CARTESIAN_POINT('Origin',(-29.,59.,-39.));
#1430=CARTESIAN_POINT('',(-29.,59.,-40.));
#1431=CARTESIAN_POINT('',(-29.,60.,-39.));
#1432=CARTESIAN_POINT('Origin',(-29.,59.,-39.));
#1433=CARTESIAN_POINT('',(-30.,59.,-39.));
#1434=CARTESIAN_POINT('Origin',(-29.,59.,-39.));
#1435=CARTESIAN_POINT('Origin',(-29.,59.,-39.));
#1436=CARTESIAN_POINT('Origin',(-29.,0.,-39.));
#1437=CARTESIAN_POINT('',(-29.,0.,-40.));
#1438=CARTESIAN_POINT('',(-30.,0.,-39.));
#1439=CARTESIAN_POINT('Origin',(-29.,0.,-39.));
#1440=CARTESIAN_POINT('',(-30.,0.,-39.));
#1441=CARTESIAN_POINT('',(-29.,0.,-40.));
#1442=CARTESIAN_POINT('Origin',(-29.,59.,-32.5));
#1443=CARTESIAN_POINT('',(-29.,60.,-30.));
#1444=CARTESIAN_POINT('',(-29.,60.,-32.5));
#1445=CARTESIAN_POINT('',(-30.,59.,-30.6770329614269));
#1446=CARTESIAN_POINT('',(-30.,59.,-32.5));
#1447=CARTESIAN_POINT('Origin',(-29.,59.,-30.6770329614269));
#1448=CARTESIAN_POINT('Origin',(15.,59.,-39.));
#1449=CARTESIAN_POINT('',(15.,60.,-39.));
#1450=CARTESIAN_POINT('',(15.,59.,-40.));
#1451=CARTESIAN_POINT('Origin',(-29.,22.9906782891631,-16.2733042770921));
#1452=CARTESIAN_POINT('',(-29.,23.3620689655172,-15.3448275862069));
#1453=CARTESIAN_POINT('',(-30.,22.9906782891631,-16.2733042770921));
#1454=CARTESIAN_POINT('Origin',(29.,59.,7.5));
#1455=CARTESIAN_POINT('',(30.,59.,-30.6770329614269));
#1456=CARTESIAN_POINT('',(30.,59.,7.5));
#1457=CARTESIAN_POINT('',(29.,60.,-30.));
#1458=CARTESIAN_POINT('',(29.,60.,7.5));
#1459=CARTESIAN_POINT('Origin',(29.,59.,-30.6770329614269));
#1460=CARTESIAN_POINT('Origin',(29.,9.19757484088728,-10.7560628977818));
#1461=CARTESIAN_POINT('',(30.,9.19757484088728,-10.7560628977818));
#1462=CARTESIAN_POINT('',(29.,9.56896551724138,-9.82758620689654));
#1463=CARTESIAN_POINT('Origin',(-30.,0.,40.));
#1464=CARTESIAN_POINT('',(-30.,0.,40.));
#1465=CARTESIAN_POINT('Origin',(-30.,0.,-40.));
#1466=CARTESIAN_POINT('',(-30.,0.,-40.));
#1467=CARTESIAN_POINT('Origin',(-15.,35.,-20.));
#1468=CARTESIAN_POINT('',(-15.,10.,-9.99999999999999));
#1469=CARTESIAN_POINT('',(-15.,60.,-30.));
#1470=CARTESIAN_POINT('Origin',(7.105427357601E-15,60.,-25.));
#1471=CARTESIAN_POINT('',(-15.,60.,-30.));
#1472=CARTESIAN_POINT('Origin',(-3.5527136788005E-15,10.,0.));
#1473=CARTESIAN_POINT('',(-15.,10.,-9.99999999999999));
#1474=CARTESIAN_POINT('Origin',(-15.,35.,-20.));
#1475=CARTESIAN_POINT('Origin',(30.,0.,-40.));
#1476=CARTESIAN_POINT('',(30.,0.,-40.));
#1477=CARTESIAN_POINT('Origin',(30.,0.,40.));
#1478=CARTESIAN_POINT('',(30.,0.,40.));
#1479=CARTESIAN_POINT('Origin',(-3.5527136788005E-15,0.,0.));
#1480=CARTESIAN_POINT('Origin',(0.,86.7707626639205,12.5));
#1481=CARTESIAN_POINT('',(-28.5,9.,-10.1430668124297));
#1482=CARTESIAN_POINT('',(28.5,9.,-10.1430668124297));
#1483=CARTESIAN_POINT('',(0.,9.,-10.1430668124297));
#1484=CARTESIAN_POINT('',(28.5,9.,35.1430668124297));
#1485=CARTESIAN_POINT('Origin',(28.5,86.7707626639205,12.5));
#1486=CARTESIAN_POINT('',(-28.5,9.,35.1430668124297));
#1487=CARTESIAN_POINT('',(0.,9.,35.1430668124297));
#1488=CARTESIAN_POINT('Origin',(-28.5,86.7707626639205,12.5));
#1489=CARTESIAN_POINT('Origin',(-3.5527136788005E-15,9.,0.));
#1490=CARTESIAN_POINT('',(-29.,9.,-10.6770329614269));
#1491=CARTESIAN_POINT('',(-29.,9.,39.));
#1492=CARTESIAN_POINT('',(-29.,9.,-20.));
#1493=CARTESIAN_POINT('',(29.,9.,-10.6770329614269));
#1494=CARTESIAN_POINT('',(-7.5,9.,-10.6770329614269));
#1495=CARTESIAN_POINT('',(29.,9.,39.));
#1496=CARTESIAN_POINT('',(29.,9.,20.));
#1497=CARTESIAN_POINT('',(-15.,9.,39.));
#1498=CARTESIAN_POINT('',(-28.5,9.,6.25));
#1499=CARTESIAN_POINT('',(28.5,9.,6.25));
#1500=CARTESIAN_POINT('Origin',(-15.,34.6286093236459,-20.9284766908853));
#1501=CARTESIAN_POINT('',(-29.,59.,-30.6770329614269));
#1502=CARTESIAN_POINT('',(-29.,22.9906782891631,-16.2733042770921));
#1503=CARTESIAN_POINT('',(-28.5,59.,-30.6770329614269));
#1504=CARTESIAN_POINT('',(-7.49999999999999,59.,-30.6770329614269));
#1505=CARTESIAN_POINT('',(-28.5,9.47643876722898,-10.8676084683185));
#1506=CARTESIAN_POINT('',(-28.5,34.9912664172156,-21.0735395283131));
#1507=CARTESIAN_POINT('',(28.5,9.47643876722899,-10.8676084683185));
#1508=CARTESIAN_POINT('',(0.,9.47643876722898,-10.8676084683185));
#1509=CARTESIAN_POINT('',(28.5,59.,-30.6770329614269));
#1510=CARTESIAN_POINT('',(28.5,34.9912664172156,-21.0735395283131));
#1511=CARTESIAN_POINT('',(29.,59.,-30.6770329614269));
#1512=CARTESIAN_POINT('',(-7.49999999999999,59.,-30.6770329614269));
#1513=CARTESIAN_POINT('',(29.,9.19757484088728,-10.7560628977818));
#1514=CARTESIAN_POINT('Origin',(0.,81.379734880362,73.6954804538998));
#1515=CARTESIAN_POINT('',(-28.5,59.,-35.0250211393351));
#1516=CARTESIAN_POINT('Origin',(-28.5,81.379734880362,73.6954804538998));
#1517=CARTESIAN_POINT('',(28.5,59.,-35.0250211393351));
#1518=CARTESIAN_POINT('',(0.,59.,-35.0250211393351));
#1519=CARTESIAN_POINT('Origin',(28.5,81.379734880362,73.6954804538998));
#1520=CARTESIAN_POINT('Origin',(30.,0.,-39.));
#1521=CARTESIAN_POINT('',(29.,59.,-39.));
#1522=CARTESIAN_POINT('',(-29.,59.,-39.));
#1523=CARTESIAN_POINT('',(15.,59.,-39.));
#1524=CARTESIAN_POINT('',(-29.,1.,-39.));
#1525=CARTESIAN_POINT('',(-29.,0.,-39.));
#1526=CARTESIAN_POINT('',(29.,1.,-39.));
#1527=CARTESIAN_POINT('',(15.,1.,-39.));
#1528=CARTESIAN_POINT('',(29.,0.,-39.));
#1529=CARTESIAN_POINT('Origin',(7.105427357601E-15,59.,-25.));
#1530=CARTESIAN_POINT('',(29.,59.,7.5));
#1531=CARTESIAN_POINT('',(28.5,59.,-23.5517055713521));
#1532=CARTESIAN_POINT('',(-28.5,59.,-23.5517055713521));
#1533=CARTESIAN_POINT('',(-29.,59.,-32.5));
#1534=CARTESIAN_POINT('Origin',(29.,0.,40.));
#1535=CARTESIAN_POINT('',(29.,1.,39.));
#1536=CARTESIAN_POINT('',(29.,1.,20.));
#1537=CARTESIAN_POINT('',(29.,0.,39.));
#1538=CARTESIAN_POINT('Origin',(-29.,0.,-40.));
#1539=CARTESIAN_POINT('',(-29.,1.,39.));
#1540=CARTESIAN_POINT('',(-29.,1.,-20.));
#1541=CARTESIAN_POINT('',(-29.,0.,39.));
#1542=CARTESIAN_POINT('Origin',(-30.,0.,39.));
#1543=CARTESIAN_POINT('',(-15.,1.,39.));
#1544=CARTESIAN_POINT('Origin',(-28.5,35.,-22.1034111427042));
#1545=CARTESIAN_POINT('Origin',(28.5,8.38538133196023,12.5));
#1546=CARTESIAN_POINT('Origin',(28.5,8.38538133196023,12.5));
#1547=CARTESIAN_POINT('Origin',(-28.5,35.,-22.1034111427042));
#1548=CARTESIAN_POINT('Origin',(-3.5527136788005E-15,1.,0.));
#1549=UNCERTAINTY_MEASURE_WITH_UNIT(LENGTH_MEASURE(0.001),#1553,
'DISTANCE_ACCURACY_VALUE',
'Maximum model space distance between geometric entities at asserted c
onnectivities');
#1550=UNCERTAINTY_MEASURE_WITH_UNIT(LENGTH_MEASURE(0.001),#1553,
'DISTANCE_ACCURACY_VALUE',
'Maximum model space distance between geometric entities at asserted c
onnectivities');
#1551=(
GEOMETRIC_REPRESENTATION_CONTEXT(3)
GLOBAL_UNCERTAINTY_ASSIGNED_CONTEXT((#1549))
GLOBAL_UNIT_ASSIGNED_CONTEXT((#1553,#1554,#1555))
REPRESENTATION_CONTEXT('','3D')
);
#1552=(
GEOMETRIC_REPRESENTATION_CONTEXT(3)
GLOBAL_UNCERTAINTY_ASSIGNED_CONTEXT((#1550))
GLOBAL_UNIT_ASSIGNED_CONTEXT((#1553,#1554,#1555))
REPRESENTATION_CONTEXT('','3D')
);
#1553=(
LENGTH_UNIT()
NAMED_UNIT(*)
SI_UNIT(.CENTI.,.METRE.)
);
#1554=(
NAMED_UNIT(*)
PLANE_ANGLE_UNIT()
SI_UNIT($,.RADIAN.)
);
#1555=(
NAMED_UNIT(*)
SI_UNIT($,.STERADIAN.)
SOLID_ANGLE_UNIT()
);
#1556=SHAPE_DEFINITION_REPRESENTATION(#1557,#1558);
#1557=PRODUCT_DEFINITION_SHAPE('',$,#1560);
#1558=SHAPE_REPRESENTATION('',(#877),#1551);
#1559=PRODUCT_DEFINITION_CONTEXT('part definition',#1564,'design');
#1560=PRODUCT_DEFINITION('Sitz','Sitz',#1561,#1559);
#1561=PRODUCT_DEFINITION_FORMATION('',$,#1566);
#1562=PRODUCT_RELATED_PRODUCT_CATEGORY('Sitz','Sitz',(#1566));
#1563=APPLICATION_PROTOCOL_DEFINITION('international standard',
'automotive_design',2009,#1564);
#1564=APPLICATION_CONTEXT(
'Core Data for Automotive Mechanical Design Process');
#1565=PRODUCT_CONTEXT('part definition',#1564,'mechanical');
#1566=PRODUCT('Sitz','Sitz','\X\DCberarbeitete Sitzschale',(#1565));
#1567=PRESENTATION_STYLE_ASSIGNMENT((#1568));
#1568=SURFACE_STYLE_USAGE(.BOTH.,#1571);
#1569=SURFACE_STYLE_RENDERING_WITH_PROPERTIES($,#1575,(#1570));
#1570=SURFACE_STYLE_TRANSPARENT(0.);
#1571=SURFACE_SIDE_STYLE('',(#1572,#1569));
#1572=SURFACE_STYLE_FILL_AREA(#1573);
#1573=FILL_AREA_STYLE('',(#1574));
#1574=FILL_AREA_STYLE_COLOUR('',#1575);
#1575=COLOUR_RGB('',0.984313725490196,0.984313725490196,0.984313725490196);
ENDSEC;
END-ISO-10303-21;
