ISO-10303-21;
HEADER;
/* Generated by software containing ST-Developer
 * from STEP Tools, Inc. (www.steptools.com) 
 */

FILE_DESCRIPTION(
/* description */ (''),
/* implementation_level */ '2;1');

FILE_NAME(
/* name */ 'oberer_Rotierkrper_Rolle.stp',
/* time_stamp */ '2026-09-02T21:28:53+02:00',
/* author */ ('bluhm'),
/* organization */ (''),
/* preprocessor_version */ 'ST-DEVELOPER v20.1',
/* originating_system */ 'Autodesk Inventor 2026',
/* authorisation */ '');

FILE_SCHEMA (('AUTOMOTIVE_DESIGN { 1 0 10303 214 3 1 1 }'));
ENDSEC;

DATA;
#10=MECHANICAL_DESIGN_GEOMETRIC_PRESENTATION_REPRESENTATION('',(#13,#14),
#1162);
#11=SHAPE_REPRESENTATION_RELATIONSHIP('SRR','None',#1169,#12);
#12=ADVANCED_BREP_SHAPE_REPRESENTATION('',(#15,#16),#1161);
#13=STYLED_ITEM('',(#1178),#15);
#14=STYLED_ITEM('',(#1178),#16);
#15=MANIFOLD_SOLID_BREP('Volumenk\X\F6rper1',#660);
#16=MANIFOLD_SOLID_BREP('Volumenk\X\F6rper1',#661);
#17=FACE_BOUND('',#94,.T.);
#18=FACE_BOUND('',#97,.T.);
#19=FACE_BOUND('',#100,.T.);
#20=FACE_BOUND('',#103,.T.);
#21=FACE_BOUND('',#107,.T.);
#22=FACE_BOUND('',#110,.T.);
#23=FACE_BOUND('',#113,.T.);
#24=FACE_BOUND('',#115,.T.);
#25=FACE_BOUND('',#133,.T.);
#26=FACE_BOUND('',#134,.T.);
#27=FACE_BOUND('',#135,.T.);
#28=FACE_BOUND('',#136,.T.);
#29=FACE_BOUND('',#137,.T.);
#30=FACE_BOUND('',#141,.T.);
#31=FACE_BOUND('',#142,.T.);
#32=FACE_BOUND('',#143,.T.);
#33=FACE_BOUND('',#144,.T.);
#34=FACE_BOUND('',#145,.T.);
#35=PLANE('',#687);
#36=PLANE('',#691);
#37=PLANE('',#695);
#38=PLANE('',#699);
#39=PLANE('',#706);
#40=PLANE('',#710);
#41=PLANE('',#714);
#42=PLANE('',#715);
#43=PLANE('',#728);
#44=PLANE('',#729);
#45=PLANE('',#733);
#46=PLANE('',#737);
#47=PLANE('',#744);
#48=PLANE('',#748);
#49=PLANE('',#752);
#50=PLANE('',#756);
#51=PLANE('',#759);
#52=PLANE('',#762);
#53=FACE_OUTER_BOUND('',#92,.T.);
#54=FACE_OUTER_BOUND('',#93,.T.);
#55=FACE_OUTER_BOUND('',#95,.T.);
#56=FACE_OUTER_BOUND('',#96,.T.);
#57=FACE_OUTER_BOUND('',#98,.T.);
#58=FACE_OUTER_BOUND('',#99,.T.);
#59=FACE_OUTER_BOUND('',#101,.T.);
#60=FACE_OUTER_BOUND('',#102,.T.);
#61=FACE_OUTER_BOUND('',#104,.T.);
#62=FACE_OUTER_BOUND('',#105,.T.);
#63=FACE_OUTER_BOUND('',#106,.T.);
#64=FACE_OUTER_BOUND('',#108,.T.);
#65=FACE_OUTER_BOUND('',#109,.T.);
#66=FACE_OUTER_BOUND('',#111,.T.);
#67=FACE_OUTER_BOUND('',#112,.T.);
#68=FACE_OUTER_BOUND('',#114,.T.);
#69=FACE_OUTER_BOUND('',#116,.T.);
#70=FACE_OUTER_BOUND('',#117,.T.);
#71=FACE_OUTER_BOUND('',#118,.T.);
#72=FACE_OUTER_BOUND('',#119,.T.);
#73=FACE_OUTER_BOUND('',#120,.T.);
#74=FACE_OUTER_BOUND('',#121,.T.);
#75=FACE_OUTER_BOUND('',#122,.T.);
#76=FACE_OUTER_BOUND('',#123,.T.);
#77=FACE_OUTER_BOUND('',#124,.T.);
#78=FACE_OUTER_BOUND('',#125,.T.);
#79=FACE_OUTER_BOUND('',#126,.T.);
#80=FACE_OUTER_BOUND('',#127,.T.);
#81=FACE_OUTER_BOUND('',#128,.T.);
#82=FACE_OUTER_BOUND('',#129,.T.);
#83=FACE_OUTER_BOUND('',#130,.T.);
#84=FACE_OUTER_BOUND('',#131,.T.);
#85=FACE_OUTER_BOUND('',#132,.T.);
#86=FACE_OUTER_BOUND('',#138,.T.);
#87=FACE_OUTER_BOUND('',#139,.T.);
#88=FACE_OUTER_BOUND('',#140,.T.);
#89=FACE_OUTER_BOUND('',#146,.T.);
#90=FACE_OUTER_BOUND('',#147,.T.);
#91=FACE_OUTER_BOUND('',#148,.T.);
#92=EDGE_LOOP('',(#426,#427,#428,#429));
#93=EDGE_LOOP('',(#430));
#94=EDGE_LOOP('',(#431));
#95=EDGE_LOOP('',(#432,#433,#434,#435));
#96=EDGE_LOOP('',(#436));
#97=EDGE_LOOP('',(#437));
#98=EDGE_LOOP('',(#438,#439,#440,#441));
#99=EDGE_LOOP('',(#442));
#100=EDGE_LOOP('',(#443));
#101=EDGE_LOOP('',(#444,#445,#446,#447));
#102=EDGE_LOOP('',(#448));
#103=EDGE_LOOP('',(#449));
#104=EDGE_LOOP('',(#450,#451,#452,#453));
#105=EDGE_LOOP('',(#454,#455,#456,#457));
#106=EDGE_LOOP('',(#458));
#107=EDGE_LOOP('',(#459));
#108=EDGE_LOOP('',(#460,#461,#462,#463));
#109=EDGE_LOOP('',(#464));
#110=EDGE_LOOP('',(#465));
#111=EDGE_LOOP('',(#466,#467,#468,#469));
#112=EDGE_LOOP('',(#470));
#113=EDGE_LOOP('',(#471));
#114=EDGE_LOOP('',(#472));
#115=EDGE_LOOP('',(#473));
#116=EDGE_LOOP('',(#474,#475,#476,#477));
#117=EDGE_LOOP('',(#478,#479,#480,#481));
#118=EDGE_LOOP('',(#482,#483,#484,#485));
#119=EDGE_LOOP('',(#486,#487,#488,#489));
#120=EDGE_LOOP('',(#490,#491,#492,#493));
#121=EDGE_LOOP('',(#494,#495,#496,#497));
#122=EDGE_LOOP('',(#498,#499,#500,#501));
#123=EDGE_LOOP('',(#502,#503,#504,#505));
#124=EDGE_LOOP('',(#506,#507,#508,#509));
#125=EDGE_LOOP('',(#510,#511,#512,#513));
#126=EDGE_LOOP('',(#514,#515,#516,#517));
#127=EDGE_LOOP('',(#518,#519,#520,#521));
#128=EDGE_LOOP('',(#522,#523,#524,#525));
#129=EDGE_LOOP('',(#526,#527,#528,#529));
#130=EDGE_LOOP('',(#530,#531,#532,#533));
#131=EDGE_LOOP('',(#534,#535,#536,#537));
#132=EDGE_LOOP('',(#538,#539,#540,#541,#542,#543,#544,#545,#546,#547,#548,
#549,#550,#551,#552,#553));
#133=EDGE_LOOP('',(#554));
#134=EDGE_LOOP('',(#555));
#135=EDGE_LOOP('',(#556));
#136=EDGE_LOOP('',(#557));
#137=EDGE_LOOP('',(#558));
#138=EDGE_LOOP('',(#559,#560,#561,#562));
#139=EDGE_LOOP('',(#563,#564,#565,#566));
#140=EDGE_LOOP('',(#567,#568,#569,#570,#571,#572,#573,#574,#575,#576,#577,
#578,#579,#580,#581,#582));
#141=EDGE_LOOP('',(#583));
#142=EDGE_LOOP('',(#584));
#143=EDGE_LOOP('',(#585));
#144=EDGE_LOOP('',(#586));
#145=EDGE_LOOP('',(#587));
#146=EDGE_LOOP('',(#588,#589,#590,#591));
#147=EDGE_LOOP('',(#592,#593,#594,#595));
#148=EDGE_LOOP('',(#596,#597,#598,#599));
#149=LINE('',#979,#194);
#150=LINE('',#987,#195);
#151=LINE('',#994,#196);
#152=LINE('',#1001,#197);
#153=LINE('',#1009,#198);
#154=LINE('',#1013,#199);
#155=LINE('',#1020,#200);
#156=LINE('',#1027,#201);
#157=LINE('',#1035,#202);
#158=LINE('',#1041,#203);
#159=LINE('',#1047,#204);
#160=LINE('',#1053,#205);
#161=LINE('',#1058,#206);
#162=LINE('',#1060,#207);
#163=LINE('',#1062,#208);
#164=LINE('',#1063,#209);
#165=LINE('',#1067,#210);
#166=LINE('',#1069,#211);
#167=LINE('',#1071,#212);
#168=LINE('',#1072,#213);
#169=LINE('',#1078,#214);
#170=LINE('',#1081,#215);
#171=LINE('',#1085,#216);
#172=LINE('',#1086,#217);
#173=LINE('',#1087,#218);
#174=LINE('',#1093,#219);
#175=LINE('',#1097,#220);
#176=LINE('',#1098,#221);
#177=LINE('',#1099,#222);
#178=LINE('',#1108,#223);
#179=LINE('',#1112,#224);
#180=LINE('',#1113,#225);
#181=LINE('',#1114,#226);
#182=LINE('',#1119,#227);
#183=LINE('',#1124,#228);
#184=LINE('',#1125,#229);
#185=LINE('',#1126,#230);
#186=LINE('',#1132,#231);
#187=LINE('',#1136,#232);
#188=LINE('',#1138,#233);
#189=LINE('',#1144,#234);
#190=LINE('',#1145,#235);
#191=LINE('',#1151,#236);
#192=LINE('',#1155,#237);
#193=LINE('',#1158,#238);
#194=VECTOR('',#771,4.65);
#195=VECTOR('',#782,6.);
#196=VECTOR('',#791,6.5);
#197=VECTOR('',#800,7.5);
#198=VECTOR('',#809,32.);
#199=VECTOR('',#814,23.5);
#200=VECTOR('',#823,33.5);
#201=VECTOR('',#832,37.5);
#202=VECTOR('',#843,3.3235);
#203=VECTOR('',#850,3.3235);
#204=VECTOR('',#857,3.3235);
#205=VECTOR('',#864,3.3235);
#206=VECTOR('',#869,10.);
#207=VECTOR('',#870,10.);
#208=VECTOR('',#871,10.);
#209=VECTOR('',#872,10.);
#210=VECTOR('',#875,10.);
#211=VECTOR('',#876,10.);
#212=VECTOR('',#877,10.);
#213=VECTOR('',#878,10.);
#214=VECTOR('',#883,10.);
#215=VECTOR('',#886,10.);
#216=VECTOR('',#889,10.);
#217=VECTOR('',#890,10.);
#218=VECTOR('',#891,10.);
#219=VECTOR('',#898,10.);
#220=VECTOR('',#901,10.);
#221=VECTOR('',#902,10.);
#222=VECTOR('',#903,10.);
#223=VECTOR('',#916,10.);
#224=VECTOR('',#919,10.);
#225=VECTOR('',#920,10.);
#226=VECTOR('',#921,10.);
#227=VECTOR('',#926,10.);
#228=VECTOR('',#931,10.);
#229=VECTOR('',#932,10.);
#230=VECTOR('',#933,10.);
#231=VECTOR('',#940,10.);
#232=VECTOR('',#945,10.);
#233=VECTOR('',#946,10.);
#234=VECTOR('',#953,10.);
#235=VECTOR('',#954,10.);
#236=VECTOR('',#963,10.);
#237=VECTOR('',#968,10.);
#238=VECTOR('',#973,37.5);
#239=CIRCLE('',#685,4.65);
#240=CIRCLE('',#686,4.65);
#241=CIRCLE('',#688,6.);
#242=CIRCLE('',#690,6.);
#243=CIRCLE('',#692,6.5);
#244=CIRCLE('',#694,6.5);
#245=CIRCLE('',#696,7.5);
#246=CIRCLE('',#698,7.5);
#247=CIRCLE('',#700,23.5);
#248=CIRCLE('',#702,32.);
#249=CIRCLE('',#703,32.);
#250=CIRCLE('',#705,23.5);
#251=CIRCLE('',#708,33.5);
#252=CIRCLE('',#709,33.5);
#253=CIRCLE('',#712,37.5);
#254=CIRCLE('',#713,37.5);
#255=CIRCLE('',#717,3.3235);
#256=CIRCLE('',#718,3.3235);
#257=CIRCLE('',#720,3.3235);
#258=CIRCLE('',#721,3.3235);
#259=CIRCLE('',#723,3.3235);
#260=CIRCLE('',#724,3.3235);
#261=CIRCLE('',#726,3.3235);
#262=CIRCLE('',#727,3.3235);
#263=CIRCLE('',#731,3.);
#264=CIRCLE('',#732,3.);
#265=CIRCLE('',#735,3.);
#266=CIRCLE('',#736,3.);
#267=CIRCLE('',#739,3.);
#268=CIRCLE('',#740,3.);
#269=CIRCLE('',#742,3.);
#270=CIRCLE('',#743,3.);
#271=CIRCLE('',#746,3.);
#272=CIRCLE('',#747,3.);
#273=CIRCLE('',#750,3.);
#274=CIRCLE('',#751,3.);
#275=CIRCLE('',#753,3.);
#276=CIRCLE('',#754,3.);
#277=CIRCLE('',#755,37.5);
#278=CIRCLE('',#758,3.);
#279=CIRCLE('',#760,3.);
#280=CIRCLE('',#761,37.5);
#281=VERTEX_POINT('',#976);
#282=VERTEX_POINT('',#978);
#283=VERTEX_POINT('',#982);
#284=VERTEX_POINT('',#985);
#285=VERTEX_POINT('',#989);
#286=VERTEX_POINT('',#992);
#287=VERTEX_POINT('',#996);
#288=VERTEX_POINT('',#999);
#289=VERTEX_POINT('',#1003);
#290=VERTEX_POINT('',#1006);
#291=VERTEX_POINT('',#1008);
#292=VERTEX_POINT('',#1012);
#293=VERTEX_POINT('',#1017);
#294=VERTEX_POINT('',#1019);
#295=VERTEX_POINT('',#1024);
#296=VERTEX_POINT('',#1026);
#297=VERTEX_POINT('',#1032);
#298=VERTEX_POINT('',#1034);
#299=VERTEX_POINT('',#1038);
#300=VERTEX_POINT('',#1040);
#301=VERTEX_POINT('',#1044);
#302=VERTEX_POINT('',#1046);
#303=VERTEX_POINT('',#1050);
#304=VERTEX_POINT('',#1052);
#305=VERTEX_POINT('',#1056);
#306=VERTEX_POINT('',#1057);
#307=VERTEX_POINT('',#1059);
#308=VERTEX_POINT('',#1061);
#309=VERTEX_POINT('',#1065);
#310=VERTEX_POINT('',#1066);
#311=VERTEX_POINT('',#1068);
#312=VERTEX_POINT('',#1070);
#313=VERTEX_POINT('',#1074);
#314=VERTEX_POINT('',#1075);
#315=VERTEX_POINT('',#1077);
#316=VERTEX_POINT('',#1079);
#317=VERTEX_POINT('',#1083);
#318=VERTEX_POINT('',#1084);
#319=VERTEX_POINT('',#1089);
#320=VERTEX_POINT('',#1091);
#321=VERTEX_POINT('',#1095);
#322=VERTEX_POINT('',#1096);
#323=VERTEX_POINT('',#1104);
#324=VERTEX_POINT('',#1106);
#325=VERTEX_POINT('',#1110);
#326=VERTEX_POINT('',#1111);
#327=VERTEX_POINT('',#1116);
#328=VERTEX_POINT('',#1118);
#329=VERTEX_POINT('',#1122);
#330=VERTEX_POINT('',#1123);
#331=VERTEX_POINT('',#1128);
#332=VERTEX_POINT('',#1130);
#333=VERTEX_POINT('',#1134);
#334=VERTEX_POINT('',#1137);
#335=VERTEX_POINT('',#1140);
#336=VERTEX_POINT('',#1143);
#337=VERTEX_POINT('',#1149);
#338=VERTEX_POINT('',#1152);
#339=EDGE_CURVE('',#281,#281,#239,.T.);
#340=EDGE_CURVE('',#281,#282,#149,.T.);
#341=EDGE_CURVE('',#282,#282,#240,.T.);
#342=EDGE_CURVE('',#283,#283,#241,.T.);
#343=EDGE_CURVE('',#284,#284,#242,.T.);
#344=EDGE_CURVE('',#284,#283,#150,.T.);
#345=EDGE_CURVE('',#285,#285,#243,.T.);
#346=EDGE_CURVE('',#286,#286,#244,.T.);
#347=EDGE_CURVE('',#286,#285,#151,.T.);
#348=EDGE_CURVE('',#287,#287,#245,.T.);
#349=EDGE_CURVE('',#288,#288,#246,.T.);
#350=EDGE_CURVE('',#288,#287,#152,.T.);
#351=EDGE_CURVE('',#289,#289,#247,.T.);
#352=EDGE_CURVE('',#290,#290,#248,.T.);
#353=EDGE_CURVE('',#290,#291,#153,.T.);
#354=EDGE_CURVE('',#291,#291,#249,.T.);
#355=EDGE_CURVE('',#289,#292,#154,.T.);
#356=EDGE_CURVE('',#292,#292,#250,.T.);
#357=EDGE_CURVE('',#293,#293,#251,.T.);
#358=EDGE_CURVE('',#293,#294,#155,.T.);
#359=EDGE_CURVE('',#294,#294,#252,.T.);
#360=EDGE_CURVE('',#295,#295,#253,.T.);
#361=EDGE_CURVE('',#295,#296,#156,.T.);
#362=EDGE_CURVE('',#296,#296,#254,.T.);
#363=EDGE_CURVE('',#297,#297,#255,.T.);
#364=EDGE_CURVE('',#297,#298,#157,.T.);
#365=EDGE_CURVE('',#298,#298,#256,.T.);
#366=EDGE_CURVE('',#299,#299,#257,.T.);
#367=EDGE_CURVE('',#299,#300,#158,.T.);
#368=EDGE_CURVE('',#300,#300,#258,.T.);
#369=EDGE_CURVE('',#301,#301,#259,.T.);
#370=EDGE_CURVE('',#301,#302,#159,.T.);
#371=EDGE_CURVE('',#302,#302,#260,.T.);
#372=EDGE_CURVE('',#303,#303,#261,.T.);
#373=EDGE_CURVE('',#303,#304,#160,.T.);
#374=EDGE_CURVE('',#304,#304,#262,.T.);
#375=EDGE_CURVE('',#305,#306,#161,.T.);
#376=EDGE_CURVE('',#305,#307,#162,.T.);
#377=EDGE_CURVE('',#308,#307,#163,.T.);
#378=EDGE_CURVE('',#308,#306,#164,.T.);
#379=EDGE_CURVE('',#309,#310,#165,.T.);
#380=EDGE_CURVE('',#309,#311,#166,.T.);
#381=EDGE_CURVE('',#312,#311,#167,.T.);
#382=EDGE_CURVE('',#312,#310,#168,.T.);
#383=EDGE_CURVE('',#313,#314,#263,.T.);
#384=EDGE_CURVE('',#314,#315,#169,.T.);
#385=EDGE_CURVE('',#315,#316,#264,.T.);
#386=EDGE_CURVE('',#316,#313,#170,.T.);
#387=EDGE_CURVE('',#317,#318,#171,.T.);
#388=EDGE_CURVE('',#317,#315,#172,.T.);
#389=EDGE_CURVE('',#314,#318,#173,.T.);
#390=EDGE_CURVE('',#319,#317,#265,.T.);
#391=EDGE_CURVE('',#318,#320,#266,.T.);
#392=EDGE_CURVE('',#320,#319,#174,.T.);
#393=EDGE_CURVE('',#321,#322,#175,.T.);
#394=EDGE_CURVE('',#319,#321,#176,.T.);
#395=EDGE_CURVE('',#322,#320,#177,.T.);
#396=EDGE_CURVE('',#322,#312,#267,.T.);
#397=EDGE_CURVE('',#311,#321,#268,.T.);
#398=EDGE_CURVE('',#323,#309,#269,.T.);
#399=EDGE_CURVE('',#310,#324,#270,.T.);
#400=EDGE_CURVE('',#324,#323,#178,.T.);
#401=EDGE_CURVE('',#325,#326,#179,.T.);
#402=EDGE_CURVE('',#323,#325,#180,.T.);
#403=EDGE_CURVE('',#326,#324,#181,.T.);
#404=EDGE_CURVE('',#326,#327,#271,.T.);
#405=EDGE_CURVE('',#327,#328,#182,.T.);
#406=EDGE_CURVE('',#328,#325,#272,.T.);
#407=EDGE_CURVE('',#329,#330,#183,.T.);
#408=EDGE_CURVE('',#329,#328,#184,.T.);
#409=EDGE_CURVE('',#327,#330,#185,.T.);
#410=EDGE_CURVE('',#331,#329,#273,.T.);
#411=EDGE_CURVE('',#330,#332,#274,.T.);
#412=EDGE_CURVE('',#332,#331,#186,.T.);
#413=EDGE_CURVE('',#333,#305,#275,.T.);
#414=EDGE_CURVE('',#333,#332,#187,.T.);
#415=EDGE_CURVE('',#313,#334,#188,.T.);
#416=EDGE_CURVE('',#307,#334,#276,.T.);
#417=EDGE_CURVE('',#335,#335,#277,.T.);
#418=EDGE_CURVE('',#334,#336,#189,.T.);
#419=EDGE_CURVE('',#336,#316,#190,.T.);
#420=EDGE_CURVE('',#336,#308,#278,.T.);
#421=EDGE_CURVE('',#306,#337,#279,.T.);
#422=EDGE_CURVE('',#331,#337,#191,.T.);
#423=EDGE_CURVE('',#338,#338,#280,.T.);
#424=EDGE_CURVE('',#337,#333,#192,.T.);
#425=EDGE_CURVE('',#338,#335,#193,.T.);
#426=ORIENTED_EDGE('',*,*,#339,.F.);
#427=ORIENTED_EDGE('',*,*,#340,.T.);
#428=ORIENTED_EDGE('',*,*,#341,.F.);
#429=ORIENTED_EDGE('',*,*,#340,.F.);
#430=ORIENTED_EDGE('',*,*,#342,.F.);
#431=ORIENTED_EDGE('',*,*,#339,.T.);
#432=ORIENTED_EDGE('',*,*,#343,.F.);
#433=ORIENTED_EDGE('',*,*,#344,.T.);
#434=ORIENTED_EDGE('',*,*,#342,.T.);
#435=ORIENTED_EDGE('',*,*,#344,.F.);
#436=ORIENTED_EDGE('',*,*,#345,.F.);
#437=ORIENTED_EDGE('',*,*,#343,.T.);
#438=ORIENTED_EDGE('',*,*,#346,.F.);
#439=ORIENTED_EDGE('',*,*,#347,.T.);
#440=ORIENTED_EDGE('',*,*,#345,.T.);
#441=ORIENTED_EDGE('',*,*,#347,.F.);
#442=ORIENTED_EDGE('',*,*,#348,.F.);
#443=ORIENTED_EDGE('',*,*,#346,.T.);
#444=ORIENTED_EDGE('',*,*,#349,.F.);
#445=ORIENTED_EDGE('',*,*,#350,.T.);
#446=ORIENTED_EDGE('',*,*,#348,.T.);
#447=ORIENTED_EDGE('',*,*,#350,.F.);
#448=ORIENTED_EDGE('',*,*,#351,.F.);
#449=ORIENTED_EDGE('',*,*,#349,.T.);
#450=ORIENTED_EDGE('',*,*,#352,.F.);
#451=ORIENTED_EDGE('',*,*,#353,.T.);
#452=ORIENTED_EDGE('',*,*,#354,.F.);
#453=ORIENTED_EDGE('',*,*,#353,.F.);
#454=ORIENTED_EDGE('',*,*,#351,.T.);
#455=ORIENTED_EDGE('',*,*,#355,.T.);
#456=ORIENTED_EDGE('',*,*,#356,.T.);
#457=ORIENTED_EDGE('',*,*,#355,.F.);
#458=ORIENTED_EDGE('',*,*,#352,.T.);
#459=ORIENTED_EDGE('',*,*,#341,.T.);
#460=ORIENTED_EDGE('',*,*,#357,.F.);
#461=ORIENTED_EDGE('',*,*,#358,.T.);
#462=ORIENTED_EDGE('',*,*,#359,.F.);
#463=ORIENTED_EDGE('',*,*,#358,.F.);
#464=ORIENTED_EDGE('',*,*,#357,.T.);
#465=ORIENTED_EDGE('',*,*,#354,.T.);
#466=ORIENTED_EDGE('',*,*,#360,.F.);
#467=ORIENTED_EDGE('',*,*,#361,.T.);
#468=ORIENTED_EDGE('',*,*,#362,.F.);
#469=ORIENTED_EDGE('',*,*,#361,.F.);
#470=ORIENTED_EDGE('',*,*,#360,.T.);
#471=ORIENTED_EDGE('',*,*,#359,.T.);
#472=ORIENTED_EDGE('',*,*,#362,.T.);
#473=ORIENTED_EDGE('',*,*,#356,.F.);
#474=ORIENTED_EDGE('',*,*,#363,.F.);
#475=ORIENTED_EDGE('',*,*,#364,.T.);
#476=ORIENTED_EDGE('',*,*,#365,.F.);
#477=ORIENTED_EDGE('',*,*,#364,.F.);
#478=ORIENTED_EDGE('',*,*,#366,.F.);
#479=ORIENTED_EDGE('',*,*,#367,.T.);
#480=ORIENTED_EDGE('',*,*,#368,.F.);
#481=ORIENTED_EDGE('',*,*,#367,.F.);
#482=ORIENTED_EDGE('',*,*,#369,.F.);
#483=ORIENTED_EDGE('',*,*,#370,.T.);
#484=ORIENTED_EDGE('',*,*,#371,.F.);
#485=ORIENTED_EDGE('',*,*,#370,.F.);
#486=ORIENTED_EDGE('',*,*,#372,.F.);
#487=ORIENTED_EDGE('',*,*,#373,.T.);
#488=ORIENTED_EDGE('',*,*,#374,.F.);
#489=ORIENTED_EDGE('',*,*,#373,.F.);
#490=ORIENTED_EDGE('',*,*,#375,.F.);
#491=ORIENTED_EDGE('',*,*,#376,.T.);
#492=ORIENTED_EDGE('',*,*,#377,.F.);
#493=ORIENTED_EDGE('',*,*,#378,.T.);
#494=ORIENTED_EDGE('',*,*,#379,.F.);
#495=ORIENTED_EDGE('',*,*,#380,.T.);
#496=ORIENTED_EDGE('',*,*,#381,.F.);
#497=ORIENTED_EDGE('',*,*,#382,.T.);
#498=ORIENTED_EDGE('',*,*,#383,.T.);
#499=ORIENTED_EDGE('',*,*,#384,.T.);
#500=ORIENTED_EDGE('',*,*,#385,.T.);
#501=ORIENTED_EDGE('',*,*,#386,.T.);
#502=ORIENTED_EDGE('',*,*,#387,.F.);
#503=ORIENTED_EDGE('',*,*,#388,.T.);
#504=ORIENTED_EDGE('',*,*,#384,.F.);
#505=ORIENTED_EDGE('',*,*,#389,.T.);
#506=ORIENTED_EDGE('',*,*,#390,.T.);
#507=ORIENTED_EDGE('',*,*,#387,.T.);
#508=ORIENTED_EDGE('',*,*,#391,.T.);
#509=ORIENTED_EDGE('',*,*,#392,.T.);
#510=ORIENTED_EDGE('',*,*,#393,.F.);
#511=ORIENTED_EDGE('',*,*,#394,.F.);
#512=ORIENTED_EDGE('',*,*,#392,.F.);
#513=ORIENTED_EDGE('',*,*,#395,.F.);
#514=ORIENTED_EDGE('',*,*,#396,.T.);
#515=ORIENTED_EDGE('',*,*,#381,.T.);
#516=ORIENTED_EDGE('',*,*,#397,.T.);
#517=ORIENTED_EDGE('',*,*,#393,.T.);
#518=ORIENTED_EDGE('',*,*,#398,.T.);
#519=ORIENTED_EDGE('',*,*,#379,.T.);
#520=ORIENTED_EDGE('',*,*,#399,.T.);
#521=ORIENTED_EDGE('',*,*,#400,.T.);
#522=ORIENTED_EDGE('',*,*,#401,.F.);
#523=ORIENTED_EDGE('',*,*,#402,.F.);
#524=ORIENTED_EDGE('',*,*,#400,.F.);
#525=ORIENTED_EDGE('',*,*,#403,.F.);
#526=ORIENTED_EDGE('',*,*,#404,.T.);
#527=ORIENTED_EDGE('',*,*,#405,.T.);
#528=ORIENTED_EDGE('',*,*,#406,.T.);
#529=ORIENTED_EDGE('',*,*,#401,.T.);
#530=ORIENTED_EDGE('',*,*,#407,.F.);
#531=ORIENTED_EDGE('',*,*,#408,.T.);
#532=ORIENTED_EDGE('',*,*,#405,.F.);
#533=ORIENTED_EDGE('',*,*,#409,.T.);
#534=ORIENTED_EDGE('',*,*,#410,.T.);
#535=ORIENTED_EDGE('',*,*,#407,.T.);
#536=ORIENTED_EDGE('',*,*,#411,.T.);
#537=ORIENTED_EDGE('',*,*,#412,.T.);
#538=ORIENTED_EDGE('',*,*,#413,.F.);
#539=ORIENTED_EDGE('',*,*,#414,.T.);
#540=ORIENTED_EDGE('',*,*,#411,.F.);
#541=ORIENTED_EDGE('',*,*,#409,.F.);
#542=ORIENTED_EDGE('',*,*,#404,.F.);
#543=ORIENTED_EDGE('',*,*,#403,.T.);
#544=ORIENTED_EDGE('',*,*,#399,.F.);
#545=ORIENTED_EDGE('',*,*,#382,.F.);
#546=ORIENTED_EDGE('',*,*,#396,.F.);
#547=ORIENTED_EDGE('',*,*,#395,.T.);
#548=ORIENTED_EDGE('',*,*,#391,.F.);
#549=ORIENTED_EDGE('',*,*,#389,.F.);
#550=ORIENTED_EDGE('',*,*,#383,.F.);
#551=ORIENTED_EDGE('',*,*,#415,.T.);
#552=ORIENTED_EDGE('',*,*,#416,.F.);
#553=ORIENTED_EDGE('',*,*,#376,.F.);
#554=ORIENTED_EDGE('',*,*,#417,.T.);
#555=ORIENTED_EDGE('',*,*,#363,.T.);
#556=ORIENTED_EDGE('',*,*,#366,.T.);
#557=ORIENTED_EDGE('',*,*,#369,.T.);
#558=ORIENTED_EDGE('',*,*,#372,.T.);
#559=ORIENTED_EDGE('',*,*,#418,.F.);
#560=ORIENTED_EDGE('',*,*,#415,.F.);
#561=ORIENTED_EDGE('',*,*,#386,.F.);
#562=ORIENTED_EDGE('',*,*,#419,.F.);
#563=ORIENTED_EDGE('',*,*,#420,.T.);
#564=ORIENTED_EDGE('',*,*,#377,.T.);
#565=ORIENTED_EDGE('',*,*,#416,.T.);
#566=ORIENTED_EDGE('',*,*,#418,.T.);
#567=ORIENTED_EDGE('',*,*,#421,.F.);
#568=ORIENTED_EDGE('',*,*,#378,.F.);
#569=ORIENTED_EDGE('',*,*,#420,.F.);
#570=ORIENTED_EDGE('',*,*,#419,.T.);
#571=ORIENTED_EDGE('',*,*,#385,.F.);
#572=ORIENTED_EDGE('',*,*,#388,.F.);
#573=ORIENTED_EDGE('',*,*,#390,.F.);
#574=ORIENTED_EDGE('',*,*,#394,.T.);
#575=ORIENTED_EDGE('',*,*,#397,.F.);
#576=ORIENTED_EDGE('',*,*,#380,.F.);
#577=ORIENTED_EDGE('',*,*,#398,.F.);
#578=ORIENTED_EDGE('',*,*,#402,.T.);
#579=ORIENTED_EDGE('',*,*,#406,.F.);
#580=ORIENTED_EDGE('',*,*,#408,.F.);
#581=ORIENTED_EDGE('',*,*,#410,.F.);
#582=ORIENTED_EDGE('',*,*,#422,.T.);
#583=ORIENTED_EDGE('',*,*,#423,.T.);
#584=ORIENTED_EDGE('',*,*,#365,.T.);
#585=ORIENTED_EDGE('',*,*,#368,.T.);
#586=ORIENTED_EDGE('',*,*,#371,.T.);
#587=ORIENTED_EDGE('',*,*,#374,.T.);
#588=ORIENTED_EDGE('',*,*,#424,.F.);
#589=ORIENTED_EDGE('',*,*,#422,.F.);
#590=ORIENTED_EDGE('',*,*,#412,.F.);
#591=ORIENTED_EDGE('',*,*,#414,.F.);
#592=ORIENTED_EDGE('',*,*,#413,.T.);
#593=ORIENTED_EDGE('',*,*,#375,.T.);
#594=ORIENTED_EDGE('',*,*,#421,.T.);
#595=ORIENTED_EDGE('',*,*,#424,.T.);
#596=ORIENTED_EDGE('',*,*,#423,.F.);
#597=ORIENTED_EDGE('',*,*,#425,.T.);
#598=ORIENTED_EDGE('',*,*,#417,.F.);
#599=ORIENTED_EDGE('',*,*,#425,.F.);
#600=CYLINDRICAL_SURFACE('',#684,4.65);
#601=CYLINDRICAL_SURFACE('',#689,6.);
#602=CYLINDRICAL_SURFACE('',#693,6.5);
#603=CYLINDRICAL_SURFACE('',#697,7.5);
#604=CYLINDRICAL_SURFACE('',#701,32.);
#605=CYLINDRICAL_SURFACE('',#704,23.5);
#606=CYLINDRICAL_SURFACE('',#707,33.5);
#607=CYLINDRICAL_SURFACE('',#711,37.5);
#608=CYLINDRICAL_SURFACE('',#716,3.3235);
#609=CYLINDRICAL_SURFACE('',#719,3.3235);
#610=CYLINDRICAL_SURFACE('',#722,3.3235);
#611=CYLINDRICAL_SURFACE('',#725,3.3235);
#612=CYLINDRICAL_SURFACE('',#730,3.);
#613=CYLINDRICAL_SURFACE('',#734,3.);
#614=CYLINDRICAL_SURFACE('',#738,3.);
#615=CYLINDRICAL_SURFACE('',#741,3.);
#616=CYLINDRICAL_SURFACE('',#745,3.);
#617=CYLINDRICAL_SURFACE('',#749,3.);
#618=CYLINDRICAL_SURFACE('',#757,3.);
#619=CYLINDRICAL_SURFACE('',#763,3.);
#620=CYLINDRICAL_SURFACE('',#764,37.5);
#621=ADVANCED_FACE('',(#53),#600,.F.);
#622=ADVANCED_FACE('',(#54,#17),#35,.F.);
#623=ADVANCED_FACE('',(#55),#601,.F.);
#624=ADVANCED_FACE('',(#56,#18),#36,.F.);
#625=ADVANCED_FACE('',(#57),#602,.F.);
#626=ADVANCED_FACE('',(#58,#19),#37,.F.);
#627=ADVANCED_FACE('',(#59),#603,.F.);
#628=ADVANCED_FACE('',(#60,#20),#38,.F.);
#629=ADVANCED_FACE('',(#61),#604,.T.);
#630=ADVANCED_FACE('',(#62),#605,.F.);
#631=ADVANCED_FACE('',(#63,#21),#39,.T.);
#632=ADVANCED_FACE('',(#64),#606,.T.);
#633=ADVANCED_FACE('',(#65,#22),#40,.T.);
#634=ADVANCED_FACE('',(#66),#607,.T.);
#635=ADVANCED_FACE('',(#67,#23),#41,.T.);
#636=ADVANCED_FACE('',(#68,#24),#42,.F.);
#637=ADVANCED_FACE('',(#69),#608,.F.);
#638=ADVANCED_FACE('',(#70),#609,.F.);
#639=ADVANCED_FACE('',(#71),#610,.F.);
#640=ADVANCED_FACE('',(#72),#611,.F.);
#641=ADVANCED_FACE('',(#73),#43,.T.);
#642=ADVANCED_FACE('',(#74),#44,.T.);
#643=ADVANCED_FACE('',(#75),#612,.T.);
#644=ADVANCED_FACE('',(#76),#45,.T.);
#645=ADVANCED_FACE('',(#77),#613,.T.);
#646=ADVANCED_FACE('',(#78),#46,.T.);
#647=ADVANCED_FACE('',(#79),#614,.T.);
#648=ADVANCED_FACE('',(#80),#615,.T.);
#649=ADVANCED_FACE('',(#81),#47,.T.);
#650=ADVANCED_FACE('',(#82),#616,.T.);
#651=ADVANCED_FACE('',(#83),#48,.T.);
#652=ADVANCED_FACE('',(#84),#617,.T.);
#653=ADVANCED_FACE('',(#85,#25,#26,#27,#28,#29),#49,.T.);
#654=ADVANCED_FACE('',(#86),#50,.T.);
#655=ADVANCED_FACE('',(#87),#618,.T.);
#656=ADVANCED_FACE('',(#88,#30,#31,#32,#33,#34),#51,.T.);
#657=ADVANCED_FACE('',(#89),#52,.T.);
#658=ADVANCED_FACE('',(#90),#619,.T.);
#659=ADVANCED_FACE('',(#91),#620,.F.);
#660=CLOSED_SHELL('',(#621,#622,#623,#624,#625,#626,#627,#628,#629,#630,
#631,#632,#633,#634,#635,#636));
#661=CLOSED_SHELL('',(#637,#638,#639,#640,#641,#642,#643,#644,#645,#646,
#647,#648,#649,#650,#651,#652,#653,#654,#655,#656,#657,#658,#659));
#662=DERIVED_UNIT_ELEMENT(#665,1.);
#663=DERIVED_UNIT_ELEMENT(#1164,-3.);
#664=DIMENSIONAL_EXPONENTS(0.,1.,0.,0.,0.,0.,0.);
#665=(
CONVERSION_BASED_UNIT('gram',#667)
MASS_UNIT()
NAMED_UNIT(#664)
);
#666=(
MASS_UNIT()
NAMED_UNIT(*)
SI_UNIT(.KILO.,.GRAM.)
);
#667=MASS_MEASURE_WITH_UNIT(MASS_MEASURE(0.001),#666);
#668=DERIVED_UNIT((#662,#663));
#669=MEASURE_REPRESENTATION_ITEM('density measure',
POSITIVE_RATIO_MEASURE(1.),#668);
#670=PROPERTY_DEFINITION_REPRESENTATION(#675,#672);
#671=PROPERTY_DEFINITION_REPRESENTATION(#676,#673);
#672=REPRESENTATION('material name',(#674),#1161);
#673=REPRESENTATION('density',(#669),#1161);
#674=DESCRIPTIVE_REPRESENTATION_ITEM('Generisch','Generisch');
#675=PROPERTY_DEFINITION('material property','material name',#1171);
#676=PROPERTY_DEFINITION('material property','density of part',#1171);
#677=DATE_TIME_ROLE('creation_date');
#678=APPLIED_DATE_AND_TIME_ASSIGNMENT(#679,#677,(#1171));
#679=DATE_AND_TIME(#680,#681);
#680=CALENDAR_DATE(2026,7,1);
#681=LOCAL_TIME(0,0,0.,#682);
#682=COORDINATED_UNIVERSAL_TIME_OFFSET(0,0,.BEHIND.);
#683=AXIS2_PLACEMENT_3D('',#974,#765,#766);
#684=AXIS2_PLACEMENT_3D('',#975,#767,#768);
#685=AXIS2_PLACEMENT_3D('',#977,#769,#770);
#686=AXIS2_PLACEMENT_3D('',#980,#772,#773);
#687=AXIS2_PLACEMENT_3D('',#981,#774,#775);
#688=AXIS2_PLACEMENT_3D('',#983,#776,#777);
#689=AXIS2_PLACEMENT_3D('',#984,#778,#779);
#690=AXIS2_PLACEMENT_3D('',#986,#780,#781);
#691=AXIS2_PLACEMENT_3D('',#988,#783,#784);
#692=AXIS2_PLACEMENT_3D('',#990,#785,#786);
#693=AXIS2_PLACEMENT_3D('',#991,#787,#788);
#694=AXIS2_PLACEMENT_3D('',#993,#789,#790);
#695=AXIS2_PLACEMENT_3D('',#995,#792,#793);
#696=AXIS2_PLACEMENT_3D('',#997,#794,#795);
#697=AXIS2_PLACEMENT_3D('',#998,#796,#797);
#698=AXIS2_PLACEMENT_3D('',#1000,#798,#799);
#699=AXIS2_PLACEMENT_3D('',#1002,#801,#802);
#700=AXIS2_PLACEMENT_3D('',#1004,#803,#804);
#701=AXIS2_PLACEMENT_3D('',#1005,#805,#806);
#702=AXIS2_PLACEMENT_3D('',#1007,#807,#808);
#703=AXIS2_PLACEMENT_3D('',#1010,#810,#811);
#704=AXIS2_PLACEMENT_3D('',#1011,#812,#813);
#705=AXIS2_PLACEMENT_3D('',#1014,#815,#816);
#706=AXIS2_PLACEMENT_3D('',#1015,#817,#818);
#707=AXIS2_PLACEMENT_3D('',#1016,#819,#820);
#708=AXIS2_PLACEMENT_3D('',#1018,#821,#822);
#709=AXIS2_PLACEMENT_3D('',#1021,#824,#825);
#710=AXIS2_PLACEMENT_3D('',#1022,#826,#827);
#711=AXIS2_PLACEMENT_3D('',#1023,#828,#829);
#712=AXIS2_PLACEMENT_3D('',#1025,#830,#831);
#713=AXIS2_PLACEMENT_3D('',#1028,#833,#834);
#714=AXIS2_PLACEMENT_3D('',#1029,#835,#836);
#715=AXIS2_PLACEMENT_3D('',#1030,#837,#838);
#716=AXIS2_PLACEMENT_3D('',#1031,#839,#840);
#717=AXIS2_PLACEMENT_3D('',#1033,#841,#842);
#718=AXIS2_PLACEMENT_3D('',#1036,#844,#845);
#719=AXIS2_PLACEMENT_3D('',#1037,#846,#847);
#720=AXIS2_PLACEMENT_3D('',#1039,#848,#849);
#721=AXIS2_PLACEMENT_3D('',#1042,#851,#852);
#722=AXIS2_PLACEMENT_3D('',#1043,#853,#854);
#723=AXIS2_PLACEMENT_3D('',#1045,#855,#856);
#724=AXIS2_PLACEMENT_3D('',#1048,#858,#859);
#725=AXIS2_PLACEMENT_3D('',#1049,#860,#861);
#726=AXIS2_PLACEMENT_3D('',#1051,#862,#863);
#727=AXIS2_PLACEMENT_3D('',#1054,#865,#866);
#728=AXIS2_PLACEMENT_3D('',#1055,#867,#868);
#729=AXIS2_PLACEMENT_3D('',#1064,#873,#874);
#730=AXIS2_PLACEMENT_3D('',#1073,#879,#880);
#731=AXIS2_PLACEMENT_3D('',#1076,#881,#882);
#732=AXIS2_PLACEMENT_3D('',#1080,#884,#885);
#733=AXIS2_PLACEMENT_3D('',#1082,#887,#888);
#734=AXIS2_PLACEMENT_3D('',#1088,#892,#893);
#735=AXIS2_PLACEMENT_3D('',#1090,#894,#895);
#736=AXIS2_PLACEMENT_3D('',#1092,#896,#897);
#737=AXIS2_PLACEMENT_3D('',#1094,#899,#900);
#738=AXIS2_PLACEMENT_3D('',#1100,#904,#905);
#739=AXIS2_PLACEMENT_3D('',#1101,#906,#907);
#740=AXIS2_PLACEMENT_3D('',#1102,#908,#909);
#741=AXIS2_PLACEMENT_3D('',#1103,#910,#911);
#742=AXIS2_PLACEMENT_3D('',#1105,#912,#913);
#743=AXIS2_PLACEMENT_3D('',#1107,#914,#915);
#744=AXIS2_PLACEMENT_3D('',#1109,#917,#918);
#745=AXIS2_PLACEMENT_3D('',#1115,#922,#923);
#746=AXIS2_PLACEMENT_3D('',#1117,#924,#925);
#747=AXIS2_PLACEMENT_3D('',#1120,#927,#928);
#748=AXIS2_PLACEMENT_3D('',#1121,#929,#930);
#749=AXIS2_PLACEMENT_3D('',#1127,#934,#935);
#750=AXIS2_PLACEMENT_3D('',#1129,#936,#937);
#751=AXIS2_PLACEMENT_3D('',#1131,#938,#939);
#752=AXIS2_PLACEMENT_3D('',#1133,#941,#942);
#753=AXIS2_PLACEMENT_3D('',#1135,#943,#944);
#754=AXIS2_PLACEMENT_3D('',#1139,#947,#948);
#755=AXIS2_PLACEMENT_3D('',#1141,#949,#950);
#756=AXIS2_PLACEMENT_3D('',#1142,#951,#952);
#757=AXIS2_PLACEMENT_3D('',#1146,#955,#956);
#758=AXIS2_PLACEMENT_3D('',#1147,#957,#958);
#759=AXIS2_PLACEMENT_3D('',#1148,#959,#960);
#760=AXIS2_PLACEMENT_3D('',#1150,#961,#962);
#761=AXIS2_PLACEMENT_3D('',#1153,#964,#965);
#762=AXIS2_PLACEMENT_3D('',#1154,#966,#967);
#763=AXIS2_PLACEMENT_3D('',#1156,#969,#970);
#764=AXIS2_PLACEMENT_3D('',#1157,#971,#972);
#765=DIRECTION('axis',(0.,0.,1.));
#766=DIRECTION('refdir',(1.,0.,0.));
#767=DIRECTION('center_axis',(0.,1.,0.));
#768=DIRECTION('ref_axis',(-1.,0.,0.));
#769=DIRECTION('center_axis',(0.,-1.,0.));
#770=DIRECTION('ref_axis',(-1.,0.,0.));
#771=DIRECTION('',(0.,-1.,0.));
#772=DIRECTION('center_axis',(0.,1.,0.));
#773=DIRECTION('ref_axis',(-1.,0.,0.));
#774=DIRECTION('center_axis',(0.,-1.,0.));
#775=DIRECTION('ref_axis',(0.,0.,-1.));
#776=DIRECTION('center_axis',(0.,-1.,0.));
#777=DIRECTION('ref_axis',(-1.,0.,0.));
#778=DIRECTION('center_axis',(0.,1.,0.));
#779=DIRECTION('ref_axis',(-1.,0.,0.));
#780=DIRECTION('center_axis',(0.,-1.,0.));
#781=DIRECTION('ref_axis',(-1.,0.,0.));
#782=DIRECTION('',(0.,-1.,0.));
#783=DIRECTION('center_axis',(0.,-1.,0.));
#784=DIRECTION('ref_axis',(0.,0.,-1.));
#785=DIRECTION('center_axis',(0.,-1.,0.));
#786=DIRECTION('ref_axis',(-1.,0.,0.));
#787=DIRECTION('center_axis',(0.,1.,0.));
#788=DIRECTION('ref_axis',(-1.,0.,0.));
#789=DIRECTION('center_axis',(0.,-1.,0.));
#790=DIRECTION('ref_axis',(-1.,0.,0.));
#791=DIRECTION('',(0.,-1.,0.));
#792=DIRECTION('center_axis',(0.,-1.,0.));
#793=DIRECTION('ref_axis',(0.,0.,-1.));
#794=DIRECTION('center_axis',(0.,-1.,0.));
#795=DIRECTION('ref_axis',(-1.,0.,0.));
#796=DIRECTION('center_axis',(0.,1.,0.));
#797=DIRECTION('ref_axis',(-1.,0.,0.));
#798=DIRECTION('center_axis',(0.,-1.,0.));
#799=DIRECTION('ref_axis',(-1.,0.,0.));
#800=DIRECTION('',(0.,-1.,0.));
#801=DIRECTION('center_axis',(0.,-1.,0.));
#802=DIRECTION('ref_axis',(0.,0.,-1.));
#803=DIRECTION('center_axis',(0.,-1.,0.));
#804=DIRECTION('ref_axis',(-1.,0.,0.));
#805=DIRECTION('center_axis',(0.,-1.,0.));
#806=DIRECTION('ref_axis',(1.,0.,0.));
#807=DIRECTION('center_axis',(0.,-1.,0.));
#808=DIRECTION('ref_axis',(1.,0.,0.));
#809=DIRECTION('',(0.,1.,0.));
#810=DIRECTION('center_axis',(0.,1.,0.));
#811=DIRECTION('ref_axis',(-1.,0.,0.));
#812=DIRECTION('center_axis',(0.,-1.,0.));
#813=DIRECTION('ref_axis',(-1.,0.,0.));
#814=DIRECTION('',(0.,1.,0.));
#815=DIRECTION('center_axis',(0.,1.,0.));
#816=DIRECTION('ref_axis',(-1.,0.,0.));
#817=DIRECTION('center_axis',(0.,-1.,0.));
#818=DIRECTION('ref_axis',(0.,0.,-1.));
#819=DIRECTION('center_axis',(0.,-1.,0.));
#820=DIRECTION('ref_axis',(1.,0.,0.));
#821=DIRECTION('center_axis',(0.,-1.,0.));
#822=DIRECTION('ref_axis',(1.,0.,0.));
#823=DIRECTION('',(0.,1.,0.));
#824=DIRECTION('center_axis',(0.,1.,0.));
#825=DIRECTION('ref_axis',(-1.,0.,0.));
#826=DIRECTION('center_axis',(0.,-1.,0.));
#827=DIRECTION('ref_axis',(0.,0.,-1.));
#828=DIRECTION('center_axis',(0.,-1.,0.));
#829=DIRECTION('ref_axis',(1.,0.,0.));
#830=DIRECTION('center_axis',(0.,-1.,0.));
#831=DIRECTION('ref_axis',(1.,0.,0.));
#832=DIRECTION('',(0.,1.,0.));
#833=DIRECTION('center_axis',(0.,1.,0.));
#834=DIRECTION('ref_axis',(1.,0.,0.));
#835=DIRECTION('center_axis',(0.,-1.,0.));
#836=DIRECTION('ref_axis',(0.,0.,-1.));
#837=DIRECTION('center_axis',(0.,-1.,0.));
#838=DIRECTION('ref_axis',(0.,0.,-1.));
#839=DIRECTION('center_axis',(0.,1.,0.));
#840=DIRECTION('ref_axis',(-1.,0.,0.));
#841=DIRECTION('center_axis',(0.,-1.,0.));
#842=DIRECTION('ref_axis',(-1.,0.,0.));
#843=DIRECTION('',(0.,-1.,0.));
#844=DIRECTION('center_axis',(0.,1.,0.));
#845=DIRECTION('ref_axis',(-1.,0.,0.));
#846=DIRECTION('center_axis',(0.,1.,0.));
#847=DIRECTION('ref_axis',(-1.,0.,0.));
#848=DIRECTION('center_axis',(0.,-1.,0.));
#849=DIRECTION('ref_axis',(-1.,0.,0.));
#850=DIRECTION('',(0.,-1.,0.));
#851=DIRECTION('center_axis',(0.,1.,0.));
#852=DIRECTION('ref_axis',(-1.,0.,0.));
#853=DIRECTION('center_axis',(0.,1.,0.));
#854=DIRECTION('ref_axis',(-1.,0.,0.));
#855=DIRECTION('center_axis',(0.,-1.,0.));
#856=DIRECTION('ref_axis',(-1.,0.,0.));
#857=DIRECTION('',(0.,-1.,0.));
#858=DIRECTION('center_axis',(0.,1.,0.));
#859=DIRECTION('ref_axis',(-1.,0.,0.));
#860=DIRECTION('center_axis',(0.,1.,0.));
#861=DIRECTION('ref_axis',(-1.,0.,0.));
#862=DIRECTION('center_axis',(0.,-1.,0.));
#863=DIRECTION('ref_axis',(-1.,0.,0.));
#864=DIRECTION('',(0.,-1.,0.));
#865=DIRECTION('center_axis',(0.,1.,0.));
#866=DIRECTION('ref_axis',(-1.,0.,0.));
#867=DIRECTION('center_axis',(0.707106781186548,0.,0.707106781186548));
#868=DIRECTION('ref_axis',(0.707106781186548,0.,-0.707106781186548));
#869=DIRECTION('',(0.,-1.,0.));
#870=DIRECTION('',(-0.707106781186548,0.,0.707106781186548));
#871=DIRECTION('',(0.,1.,0.));
#872=DIRECTION('',(0.707106781186548,0.,-0.707106781186548));
#873=DIRECTION('center_axis',(-0.707106781186548,0.,-0.707106781186548));
#874=DIRECTION('ref_axis',(-0.707106781186548,0.,0.707106781186548));
#875=DIRECTION('',(0.,1.,0.));
#876=DIRECTION('',(-0.707106781186548,0.,0.707106781186548));
#877=DIRECTION('',(0.,-1.,0.));
#878=DIRECTION('',(0.707106781186548,0.,-0.707106781186548));
#879=DIRECTION('center_axis',(0.,1.,0.));
#880=DIRECTION('ref_axis',(-0.38268343236509,0.,0.923879532511287));
#881=DIRECTION('center_axis',(0.,-1.,0.));
#882=DIRECTION('ref_axis',(-0.38268343236509,0.,0.923879532511287));
#883=DIRECTION('',(0.,-1.,0.));
#884=DIRECTION('center_axis',(0.,1.,0.));
#885=DIRECTION('ref_axis',(-0.38268343236509,0.,0.923879532511287));
#886=DIRECTION('',(0.,1.,0.));
#887=DIRECTION('center_axis',(-0.707106781186547,0.,0.707106781186548));
#888=DIRECTION('ref_axis',(0.707106781186548,0.,0.707106781186547));
#889=DIRECTION('',(0.,1.,0.));
#890=DIRECTION('',(0.707106781186548,0.,0.707106781186547));
#891=DIRECTION('',(-0.707106781186548,0.,-0.707106781186547));
#892=DIRECTION('center_axis',(0.,-1.,0.));
#893=DIRECTION('ref_axis',(-0.923879532511287,0.,0.382683432365089));
#894=DIRECTION('center_axis',(0.,1.,0.));
#895=DIRECTION('ref_axis',(-0.923879532511287,0.,0.382683432365089));
#896=DIRECTION('center_axis',(0.,-1.,0.));
#897=DIRECTION('ref_axis',(-0.923879532511287,0.,0.382683432365089));
#898=DIRECTION('',(0.,-1.,0.));
#899=DIRECTION('center_axis',(-1.,0.,0.));
#900=DIRECTION('ref_axis',(0.,0.,-1.));
#901=DIRECTION('',(0.,1.,0.));
#902=DIRECTION('',(0.,0.,-1.));
#903=DIRECTION('',(0.,0.,1.));
#904=DIRECTION('center_axis',(0.,1.,0.));
#905=DIRECTION('ref_axis',(-0.923879532511287,0.,-0.382683432365089));
#906=DIRECTION('center_axis',(0.,-1.,0.));
#907=DIRECTION('ref_axis',(-0.923879532511287,0.,-0.382683432365089));
#908=DIRECTION('center_axis',(0.,1.,0.));
#909=DIRECTION('ref_axis',(-0.923879532511287,0.,-0.382683432365089));
#910=DIRECTION('center_axis',(0.,-1.,0.));
#911=DIRECTION('ref_axis',(-0.38268343236509,0.,-0.923879532511287));
#912=DIRECTION('center_axis',(0.,1.,0.));
#913=DIRECTION('ref_axis',(-0.38268343236509,0.,-0.923879532511287));
#914=DIRECTION('center_axis',(0.,-1.,0.));
#915=DIRECTION('ref_axis',(-0.38268343236509,0.,-0.923879532511287));
#916=DIRECTION('',(0.,-1.,0.));
#917=DIRECTION('center_axis',(0.,0.,-1.));
#918=DIRECTION('ref_axis',(1.,0.,0.));
#919=DIRECTION('',(0.,1.,0.));
#920=DIRECTION('',(1.,0.,0.));
#921=DIRECTION('',(-1.,0.,0.));
#922=DIRECTION('center_axis',(0.,1.,0.));
#923=DIRECTION('ref_axis',(0.382683432365089,0.,-0.923879532511287));
#924=DIRECTION('center_axis',(0.,-1.,0.));
#925=DIRECTION('ref_axis',(0.382683432365089,0.,-0.923879532511287));
#926=DIRECTION('',(0.,-1.,0.));
#927=DIRECTION('center_axis',(0.,1.,0.));
#928=DIRECTION('ref_axis',(0.382683432365089,0.,-0.923879532511287));
#929=DIRECTION('center_axis',(0.707106781186547,0.,-0.707106781186548));
#930=DIRECTION('ref_axis',(-0.707106781186548,0.,-0.707106781186547));
#931=DIRECTION('',(0.,1.,0.));
#932=DIRECTION('',(-0.707106781186548,0.,-0.707106781186547));
#933=DIRECTION('',(0.707106781186548,0.,0.707106781186547));
#934=DIRECTION('center_axis',(0.,-1.,0.));
#935=DIRECTION('ref_axis',(0.923879532511287,0.,-0.38268343236509));
#936=DIRECTION('center_axis',(0.,1.,0.));
#937=DIRECTION('ref_axis',(0.923879532511287,0.,-0.38268343236509));
#938=DIRECTION('center_axis',(0.,-1.,0.));
#939=DIRECTION('ref_axis',(0.923879532511287,0.,-0.38268343236509));
#940=DIRECTION('',(0.,-1.,0.));
#941=DIRECTION('center_axis',(0.,1.,0.));
#942=DIRECTION('ref_axis',(0.,0.,1.));
#943=DIRECTION('center_axis',(0.,-1.,0.));
#944=DIRECTION('ref_axis',(0.923879532511287,0.,0.38268343236509));
#945=DIRECTION('',(0.,0.,-1.));
#946=DIRECTION('',(1.,0.,4.22942104619107E-17));
#947=DIRECTION('center_axis',(0.,-1.,0.));
#948=DIRECTION('ref_axis',(0.382683432365089,0.,0.923879532511287));
#949=DIRECTION('center_axis',(0.,-1.,0.));
#950=DIRECTION('ref_axis',(1.,0.,0.));
#951=DIRECTION('center_axis',(-4.22942104619107E-17,0.,1.));
#952=DIRECTION('ref_axis',(-1.,0.,-4.22942104619107E-17));
#953=DIRECTION('',(0.,-1.,0.));
#954=DIRECTION('',(-1.,0.,-4.22942104619107E-17));
#955=DIRECTION('center_axis',(0.,-1.,0.));
#956=DIRECTION('ref_axis',(0.382683432365089,0.,0.923879532511287));
#957=DIRECTION('center_axis',(0.,1.,0.));
#958=DIRECTION('ref_axis',(0.382683432365089,0.,0.923879532511287));
#959=DIRECTION('center_axis',(0.,-1.,0.));
#960=DIRECTION('ref_axis',(0.,0.,-1.));
#961=DIRECTION('center_axis',(0.,1.,0.));
#962=DIRECTION('ref_axis',(0.923879532511287,0.,0.38268343236509));
#963=DIRECTION('',(0.,0.,1.));
#964=DIRECTION('center_axis',(0.,1.,0.));
#965=DIRECTION('ref_axis',(1.,0.,0.));
#966=DIRECTION('center_axis',(1.,0.,0.));
#967=DIRECTION('ref_axis',(0.,0.,1.));
#968=DIRECTION('',(0.,1.,0.));
#969=DIRECTION('center_axis',(0.,1.,0.));
#970=DIRECTION('ref_axis',(0.923879532511287,0.,0.38268343236509));
#971=DIRECTION('center_axis',(0.,1.,0.));
#972=DIRECTION('ref_axis',(1.,0.,0.));
#973=DIRECTION('',(0.,1.,0.));
#974=CARTESIAN_POINT('',(0.,0.,0.));
#975=CARTESIAN_POINT('Origin',(0.,-5.,0.));
#976=CARTESIAN_POINT('',(4.65,-4.35,5.69460761603519E-16));
#977=CARTESIAN_POINT('Origin',(0.,-4.35,0.));
#978=CARTESIAN_POINT('',(4.65,-5.,5.69460761603519E-16));
#979=CARTESIAN_POINT('',(4.65,-5.,-5.69460761603519E-16));
#980=CARTESIAN_POINT('Origin',(0.,-5.,0.));
#981=CARTESIAN_POINT('Origin',(0.,-4.35,0.));
#982=CARTESIAN_POINT('',(6.,-4.35,0.));
#983=CARTESIAN_POINT('Origin',(0.,-4.35,0.));
#984=CARTESIAN_POINT('Origin',(0.,-5.,0.));
#985=CARTESIAN_POINT('',(6.,-4.3,7.34788079488412E-16));
#986=CARTESIAN_POINT('Origin',(0.,-4.3,0.));
#987=CARTESIAN_POINT('',(6.,-5.,-7.34788079488412E-16));
#988=CARTESIAN_POINT('Origin',(0.,-4.3,0.));
#989=CARTESIAN_POINT('',(6.5,-4.3,0.));
#990=CARTESIAN_POINT('Origin',(0.,-4.3,0.));
#991=CARTESIAN_POINT('Origin',(0.,-5.,0.));
#992=CARTESIAN_POINT('',(6.5,-4.25,7.9602041944578E-16));
#993=CARTESIAN_POINT('Origin',(0.,-4.25,0.));
#994=CARTESIAN_POINT('',(6.5,-5.,-7.9602041944578E-16));
#995=CARTESIAN_POINT('Origin',(0.,-4.25,0.));
#996=CARTESIAN_POINT('',(7.5,-4.25,0.));
#997=CARTESIAN_POINT('Origin',(0.,-4.25,0.));
#998=CARTESIAN_POINT('Origin',(0.,-5.,0.));
#999=CARTESIAN_POINT('',(7.5,-4.,9.18485099360515E-16));
#1000=CARTESIAN_POINT('Origin',(0.,-4.,0.));
#1001=CARTESIAN_POINT('',(7.5,-5.,-9.18485099360515E-16));
#1002=CARTESIAN_POINT('Origin',(0.,-4.,0.));
#1003=CARTESIAN_POINT('',(23.5,-4.,0.));
#1004=CARTESIAN_POINT('Origin',(0.,-4.,0.));
#1005=CARTESIAN_POINT('Origin',(0.,-2.5,0.));
#1006=CARTESIAN_POINT('',(-32.,-5.,-3.91886975727153E-15));
#1007=CARTESIAN_POINT('Origin',(0.,-5.,0.));
#1008=CARTESIAN_POINT('',(-32.,-4.1666,-3.91886975727153E-15));
#1009=CARTESIAN_POINT('',(-32.,-2.5,-3.91886975727153E-15));
#1010=CARTESIAN_POINT('Origin',(0.,-4.1666,0.));
#1011=CARTESIAN_POINT('Origin',(0.,-2.5,0.));
#1012=CARTESIAN_POINT('',(23.5,-2.5,2.87791997799628E-15));
#1013=CARTESIAN_POINT('',(23.5,-2.5,2.87791997799628E-15));
#1014=CARTESIAN_POINT('Origin',(0.,-2.5,0.));
#1015=CARTESIAN_POINT('Origin',(0.,-5.,0.));
#1016=CARTESIAN_POINT('Origin',(0.,-2.5,0.));
#1017=CARTESIAN_POINT('',(-33.5,-4.1666,-4.10256677714363E-15));
#1018=CARTESIAN_POINT('Origin',(0.,-4.1666,0.));
#1019=CARTESIAN_POINT('',(-33.5,-3.33333333333333,-4.10256677714363E-15));
#1020=CARTESIAN_POINT('',(-33.5,-2.5,-4.10256677714363E-15));
#1021=CARTESIAN_POINT('Origin',(0.,-3.33333333333333,0.));
#1022=CARTESIAN_POINT('Origin',(0.,-4.1666,0.));
#1023=CARTESIAN_POINT('Origin',(0.,-2.5,0.));
#1024=CARTESIAN_POINT('',(-37.5,-3.33333333333333,-4.59242549680258E-15));
#1025=CARTESIAN_POINT('Origin',(0.,-3.33333333333333,0.));
#1026=CARTESIAN_POINT('',(-37.5,-2.5,-4.59242549680258E-15));
#1027=CARTESIAN_POINT('',(-37.5,-2.5,-4.59242549680258E-15));
#1028=CARTESIAN_POINT('Origin',(0.,-2.5,0.));
#1029=CARTESIAN_POINT('Origin',(0.,-3.33333333333333,0.));
#1030=CARTESIAN_POINT('Origin',(0.,-2.5,0.));
#1031=CARTESIAN_POINT('Origin',(39.25,-7.,-30.));
#1032=CARTESIAN_POINT('',(42.5735,0.,-30.));
#1033=CARTESIAN_POINT('Origin',(39.25,0.,-30.));
#1034=CARTESIAN_POINT('',(42.5735,-2.5,-30.));
#1035=CARTESIAN_POINT('',(42.5735,-7.,-30.));
#1036=CARTESIAN_POINT('Origin',(39.25,-2.5,-30.));
#1037=CARTESIAN_POINT('Origin',(39.25,-7.,30.));
#1038=CARTESIAN_POINT('',(42.5735,0.,30.));
#1039=CARTESIAN_POINT('Origin',(39.25,0.,30.));
#1040=CARTESIAN_POINT('',(42.5735,-2.5,30.));
#1041=CARTESIAN_POINT('',(42.5735,-7.,30.));
#1042=CARTESIAN_POINT('Origin',(39.25,-2.5,30.));
#1043=CARTESIAN_POINT('Origin',(-39.25,-7.,30.));
#1044=CARTESIAN_POINT('',(-35.9265,0.,30.));
#1045=CARTESIAN_POINT('Origin',(-39.25,0.,30.));
#1046=CARTESIAN_POINT('',(-35.9265,-2.5,30.));
#1047=CARTESIAN_POINT('',(-35.9265,-7.,30.));
#1048=CARTESIAN_POINT('Origin',(-39.25,-2.5,30.));
#1049=CARTESIAN_POINT('Origin',(-39.25,-7.,-30.));
#1050=CARTESIAN_POINT('',(-35.9265,0.,-30.));
#1051=CARTESIAN_POINT('Origin',(-39.25,0.,-30.));
#1052=CARTESIAN_POINT('',(-35.9265,-2.5,-30.));
#1053=CARTESIAN_POINT('',(-35.9265,-7.,-30.));
#1054=CARTESIAN_POINT('Origin',(-39.25,-2.5,-30.));
#1055=CARTESIAN_POINT('Origin',(47.5,0.,35.));
#1056=CARTESIAN_POINT('',(51.6213203435596,0.,30.8786796564404));
#1057=CARTESIAN_POINT('',(51.6213203435596,-2.5,30.8786796564404));
#1058=CARTESIAN_POINT('',(51.6213203435596,0.,30.8786796564404));
#1059=CARTESIAN_POINT('',(43.3786796564404,0.,39.1213203435596));
#1060=CARTESIAN_POINT('',(44.375,0.,38.125));
#1061=CARTESIAN_POINT('',(43.3786796564404,-2.5,39.1213203435596));
#1062=CARTESIAN_POINT('',(43.3786796564404,0.,39.1213203435596));
#1063=CARTESIAN_POINT('',(44.375,-2.5,38.125));
#1064=CARTESIAN_POINT('Origin',(-47.5,0.,-35.));
#1065=CARTESIAN_POINT('',(-43.3786796564404,-2.5,-39.1213203435596));
#1066=CARTESIAN_POINT('',(-43.3786796564404,0.,-39.1213203435596));
#1067=CARTESIAN_POINT('',(-43.3786796564404,0.,-39.1213203435596));
#1068=CARTESIAN_POINT('',(-51.6213203435596,-2.5,-30.8786796564403));
#1069=CARTESIAN_POINT('',(-44.375,-2.5,-38.125));
#1070=CARTESIAN_POINT('',(-51.6213203435596,0.,-30.8786796564403));
#1071=CARTESIAN_POINT('',(-51.6213203435596,0.,-30.8786796564403));
#1072=CARTESIAN_POINT('',(-44.375,0.,-38.125));
#1073=CARTESIAN_POINT('Origin',(-41.2573593128807,0.,37.));
#1074=CARTESIAN_POINT('',(-41.2573593128807,0.,40.));
#1075=CARTESIAN_POINT('',(-43.3786796564404,0.,39.1213203435596));
#1076=CARTESIAN_POINT('Origin',(-41.2573593128807,0.,37.));
#1077=CARTESIAN_POINT('',(-43.3786796564404,-2.5,39.1213203435596));
#1078=CARTESIAN_POINT('',(-43.3786796564404,0.,39.1213203435596));
#1079=CARTESIAN_POINT('',(-41.2573593128807,-2.5,40.));
#1080=CARTESIAN_POINT('Origin',(-41.2573593128807,-2.5,37.));
#1081=CARTESIAN_POINT('',(-41.2573593128807,0.,40.));
#1082=CARTESIAN_POINT('Origin',(-47.5,0.,35.));
#1083=CARTESIAN_POINT('',(-51.6213203435596,-2.5,30.8786796564404));
#1084=CARTESIAN_POINT('',(-51.6213203435596,0.,30.8786796564404));
#1085=CARTESIAN_POINT('',(-51.6213203435596,0.,30.8786796564404));
#1086=CARTESIAN_POINT('',(-44.375,-2.5,38.125));
#1087=CARTESIAN_POINT('',(-44.375,0.,38.125));
#1088=CARTESIAN_POINT('Origin',(-49.5,0.,28.7573593128807));
#1089=CARTESIAN_POINT('',(-52.5,-2.5,28.7573593128807));
#1090=CARTESIAN_POINT('Origin',(-49.5,-2.5,28.7573593128807));
#1091=CARTESIAN_POINT('',(-52.5,0.,28.7573593128807));
#1092=CARTESIAN_POINT('Origin',(-49.5,0.,28.7573593128807));
#1093=CARTESIAN_POINT('',(-52.5,0.,28.7573593128807));
#1094=CARTESIAN_POINT('Origin',(-52.5,0.,40.));
#1095=CARTESIAN_POINT('',(-52.5,-2.5,-28.7573593128807));
#1096=CARTESIAN_POINT('',(-52.5,0.,-28.7573593128807));
#1097=CARTESIAN_POINT('',(-52.5,0.,-28.7573593128807));
#1098=CARTESIAN_POINT('',(-52.5,-2.5,-40.));
#1099=CARTESIAN_POINT('',(-52.5,0.,-40.));
#1100=CARTESIAN_POINT('Origin',(-49.5,0.,-28.7573593128807));
#1101=CARTESIAN_POINT('Origin',(-49.5,0.,-28.7573593128807));
#1102=CARTESIAN_POINT('Origin',(-49.5,-2.5,-28.7573593128807));
#1103=CARTESIAN_POINT('Origin',(-41.2573593128807,0.,-37.));
#1104=CARTESIAN_POINT('',(-41.2573593128807,-2.5,-40.));
#1105=CARTESIAN_POINT('Origin',(-41.2573593128807,-2.5,-37.));
#1106=CARTESIAN_POINT('',(-41.2573593128807,0.,-40.));
#1107=CARTESIAN_POINT('Origin',(-41.2573593128807,0.,-37.));
#1108=CARTESIAN_POINT('',(-41.2573593128807,0.,-40.));
#1109=CARTESIAN_POINT('Origin',(-52.5,0.,-40.));
#1110=CARTESIAN_POINT('',(41.2573593128807,-2.5,-40.));
#1111=CARTESIAN_POINT('',(41.2573593128807,0.,-40.));
#1112=CARTESIAN_POINT('',(41.2573593128807,0.,-40.));
#1113=CARTESIAN_POINT('',(52.5,-2.5,-40.));
#1114=CARTESIAN_POINT('',(52.5,0.,-40.));
#1115=CARTESIAN_POINT('Origin',(41.2573593128807,0.,-37.));
#1116=CARTESIAN_POINT('',(43.3786796564404,0.,-39.1213203435596));
#1117=CARTESIAN_POINT('Origin',(41.2573593128807,0.,-37.));
#1118=CARTESIAN_POINT('',(43.3786796564404,-2.5,-39.1213203435596));
#1119=CARTESIAN_POINT('',(43.3786796564404,0.,-39.1213203435596));
#1120=CARTESIAN_POINT('Origin',(41.2573593128807,-2.5,-37.));
#1121=CARTESIAN_POINT('Origin',(47.5,0.,-35.));
#1122=CARTESIAN_POINT('',(51.6213203435596,-2.5,-30.8786796564404));
#1123=CARTESIAN_POINT('',(51.6213203435596,0.,-30.8786796564404));
#1124=CARTESIAN_POINT('',(51.6213203435596,0.,-30.8786796564404));
#1125=CARTESIAN_POINT('',(44.375,-2.5,-38.125));
#1126=CARTESIAN_POINT('',(44.375,0.,-38.125));
#1127=CARTESIAN_POINT('Origin',(49.5,0.,-28.7573593128807));
#1128=CARTESIAN_POINT('',(52.5,-2.5,-28.7573593128807));
#1129=CARTESIAN_POINT('Origin',(49.5,-2.5,-28.7573593128807));
#1130=CARTESIAN_POINT('',(52.5,0.,-28.7573593128807));
#1131=CARTESIAN_POINT('Origin',(49.5,0.,-28.7573593128807));
#1132=CARTESIAN_POINT('',(52.5,0.,-28.7573593128807));
#1133=CARTESIAN_POINT('Origin',(0.,0.,0.));
#1134=CARTESIAN_POINT('',(52.5,0.,28.7573593128807));
#1135=CARTESIAN_POINT('Origin',(49.5,0.,28.7573593128807));
#1136=CARTESIAN_POINT('',(52.5,0.,40.));
#1137=CARTESIAN_POINT('',(41.2573593128807,0.,40.));
#1138=CARTESIAN_POINT('',(-52.5,0.,40.));
#1139=CARTESIAN_POINT('Origin',(41.2573593128807,0.,37.));
#1140=CARTESIAN_POINT('',(-37.5,-2.77555756156289E-16,4.59242549680258E-15));
#1141=CARTESIAN_POINT('Origin',(0.,0.,0.));
#1142=CARTESIAN_POINT('Origin',(52.5,0.,40.));
#1143=CARTESIAN_POINT('',(41.2573593128807,-2.5,40.));
#1144=CARTESIAN_POINT('',(41.2573593128807,0.,40.));
#1145=CARTESIAN_POINT('',(-52.5,-2.5,40.));
#1146=CARTESIAN_POINT('Origin',(41.2573593128807,0.,37.));
#1147=CARTESIAN_POINT('Origin',(41.2573593128807,-2.5,37.));
#1148=CARTESIAN_POINT('Origin',(0.,-2.5,0.));
#1149=CARTESIAN_POINT('',(52.5,-2.5,28.7573593128807));
#1150=CARTESIAN_POINT('Origin',(49.5,-2.5,28.7573593128807));
#1151=CARTESIAN_POINT('',(52.5,-2.5,40.));
#1152=CARTESIAN_POINT('',(-37.5,-2.5,-4.59242549680258E-15));
#1153=CARTESIAN_POINT('Origin',(0.,-2.5,0.));
#1154=CARTESIAN_POINT('Origin',(52.5,0.,-40.));
#1155=CARTESIAN_POINT('',(52.5,0.,28.7573593128807));
#1156=CARTESIAN_POINT('Origin',(49.5,0.,28.7573593128807));
#1157=CARTESIAN_POINT('Origin',(0.,-2.5,0.));
#1158=CARTESIAN_POINT('',(-37.5,-2.5,4.59242549680258E-15));
#1159=UNCERTAINTY_MEASURE_WITH_UNIT(LENGTH_MEASURE(0.01),#1163,
'DISTANCE_ACCURACY_VALUE',
'Maximum model space distance between geometric entities at asserted c
onnectivities');
#1160=UNCERTAINTY_MEASURE_WITH_UNIT(LENGTH_MEASURE(0.01),#1163,
'DISTANCE_ACCURACY_VALUE',
'Maximum model space distance between geometric entities at asserted c
onnectivities');
#1161=(
GEOMETRIC_REPRESENTATION_CONTEXT(3)
GLOBAL_UNCERTAINTY_ASSIGNED_CONTEXT((#1159))
GLOBAL_UNIT_ASSIGNED_CONTEXT((#1163,#1165,#1166))
REPRESENTATION_CONTEXT('','3D')
);
#1162=(
GEOMETRIC_REPRESENTATION_CONTEXT(3)
GLOBAL_UNCERTAINTY_ASSIGNED_CONTEXT((#1160))
GLOBAL_UNIT_ASSIGNED_CONTEXT((#1163,#1165,#1166))
REPRESENTATION_CONTEXT('','3D')
);
#1163=(
LENGTH_UNIT()
NAMED_UNIT(*)
SI_UNIT(.MILLI.,.METRE.)
);
#1164=(
LENGTH_UNIT()
NAMED_UNIT(*)
SI_UNIT(.CENTI.,.METRE.)
);
#1165=(
NAMED_UNIT(*)
PLANE_ANGLE_UNIT()
SI_UNIT($,.RADIAN.)
);
#1166=(
NAMED_UNIT(*)
SI_UNIT($,.STERADIAN.)
SOLID_ANGLE_UNIT()
);
#1167=SHAPE_DEFINITION_REPRESENTATION(#1168,#1169);
#1168=PRODUCT_DEFINITION_SHAPE('',$,#1171);
#1169=SHAPE_REPRESENTATION('',(#683),#1161);
#1170=PRODUCT_DEFINITION_CONTEXT('part definition',#1175,'design');
#1171=PRODUCT_DEFINITION('oberer_Rotierk\X\F6rper_Rolle',
'oberer_Rotierk\X\F6rper_Rolle',#1172,#1170);
#1172=PRODUCT_DEFINITION_FORMATION('',$,#1177);
#1173=PRODUCT_RELATED_PRODUCT_CATEGORY('oberer_Rotierk\X\F6rper_Rolle',
'oberer_Rotierk\X\F6rper_Rolle',(#1177));
#1174=APPLICATION_PROTOCOL_DEFINITION('international standard',
'automotive_design',2009,#1175);
#1175=APPLICATION_CONTEXT(
'Core Data for Automotive Mechanical Design Process');
#1176=PRODUCT_CONTEXT('part definition',#1175,'mechanical');
#1177=PRODUCT('oberer_Rotierk\X\F6rper_Rolle',
'oberer_Rotierk\X\F6rper_Rolle',$,(#1176));
#1178=PRESENTATION_STYLE_ASSIGNMENT((#1179));
#1179=SURFACE_STYLE_USAGE(.BOTH.,#1182);
#1180=SURFACE_STYLE_RENDERING_WITH_PROPERTIES($,#1186,(#1181));
#1181=SURFACE_STYLE_TRANSPARENT(0.);
#1182=SURFACE_SIDE_STYLE('',(#1183,#1180));
#1183=SURFACE_STYLE_FILL_AREA(#1184);
#1184=FILL_AREA_STYLE('',(#1185));
#1185=FILL_AREA_STYLE_COLOUR('',#1186);
#1186=COLOUR_RGB('',0.749019607843137,0.749019607843137,0.749019607843137);
ENDSEC;
END-ISO-10303-21;
