ISO-10303-21;
HEADER;
/* Generated by software containing ST-Developer
 * from STEP Tools, Inc. (www.steptools.com) 
 */

FILE_DESCRIPTION(
/* description */ (''),
/* implementation_level */ '2;1');

FILE_NAME(
/* name */ 'RadBolzen.stp',
/* time_stamp */ '2026-09-02T21:28:43+02:00',
/* author */ ('bluhm'),
/* organization */ (''),
/* preprocessor_version */ 'ST-DEVELOPER v20.1',
/* originating_system */ 'Autodesk Inventor 2026',
/* authorisation */ '');

FILE_SCHEMA (('AUTOMOTIVE_DESIGN { 1 0 10303 214 3 1 1 }'));
ENDSEC;

DATA;
#10=MECHANICAL_DESIGN_GEOMETRIC_PRESENTATION_REPRESENTATION('',(#13),#203);
#11=SHAPE_REPRESENTATION_RELATIONSHIP('SRR','None',#210,#12);
#12=ADVANCED_BREP_SHAPE_REPRESENTATION('',(#14),#202);
#13=STYLED_ITEM('',(#219),#14);
#14=MANIFOLD_SOLID_BREP('Volumenk\X\F6rper1',#104);
#15=FACE_BOUND('',#34,.T.);
#16=FACE_BOUND('',#37,.T.);
#17=PLANE('',#135);
#18=PLANE('',#139);
#19=CYLINDRICAL_SURFACE('',#129,3.3235);
#20=CYLINDRICAL_SURFACE('',#133,3.3235);
#21=CYLINDRICAL_SURFACE('',#137,5.5);
#22=FACE_OUTER_BOUND('',#29,.T.);
#23=FACE_OUTER_BOUND('',#30,.T.);
#24=FACE_OUTER_BOUND('',#31,.T.);
#25=FACE_OUTER_BOUND('',#32,.T.);
#26=FACE_OUTER_BOUND('',#33,.T.);
#27=FACE_OUTER_BOUND('',#35,.T.);
#28=FACE_OUTER_BOUND('',#36,.T.);
#29=EDGE_LOOP('',(#73,#74,#75));
#30=EDGE_LOOP('',(#76,#77,#78,#79));
#31=EDGE_LOOP('',(#80,#81,#82));
#32=EDGE_LOOP('',(#83,#84,#85,#86));
#33=EDGE_LOOP('',(#87));
#34=EDGE_LOOP('',(#88));
#35=EDGE_LOOP('',(#89,#90,#91,#92));
#36=EDGE_LOOP('',(#93));
#37=EDGE_LOOP('',(#94));
#38=LINE('',#178,#43);
#39=LINE('',#182,#44);
#40=LINE('',#187,#45);
#41=LINE('',#191,#46);
#42=LINE('',#198,#47);
#43=VECTOR('',#146,1.66175);
#44=VECTOR('',#151,3.3235);
#45=VECTOR('',#156,1.66175);
#46=VECTOR('',#161,3.3235);
#47=VECTOR('',#170,5.5);
#48=CIRCLE('',#128,3.3235);
#49=CIRCLE('',#130,3.3235);
#50=CIRCLE('',#132,3.3235);
#51=CIRCLE('',#134,3.3235);
#52=CIRCLE('',#136,5.5);
#53=CIRCLE('',#138,5.5);
#54=VERTEX_POINT('',#175);
#55=VERTEX_POINT('',#177);
#56=VERTEX_POINT('',#180);
#57=VERTEX_POINT('',#184);
#58=VERTEX_POINT('',#186);
#59=VERTEX_POINT('',#189);
#60=VERTEX_POINT('',#193);
#61=VERTEX_POINT('',#196);
#62=EDGE_CURVE('',#54,#54,#48,.T.);
#63=EDGE_CURVE('',#54,#55,#38,.T.);
#64=EDGE_CURVE('',#56,#56,#49,.T.);
#65=EDGE_CURVE('',#56,#54,#39,.T.);
#66=EDGE_CURVE('',#57,#57,#50,.T.);
#67=EDGE_CURVE('',#57,#58,#40,.T.);
#68=EDGE_CURVE('',#59,#59,#51,.T.);
#69=EDGE_CURVE('',#59,#57,#41,.T.);
#70=EDGE_CURVE('',#60,#60,#52,.T.);
#71=EDGE_CURVE('',#61,#61,#53,.T.);
#72=EDGE_CURVE('',#61,#60,#42,.T.);
#73=ORIENTED_EDGE('',*,*,#62,.T.);
#74=ORIENTED_EDGE('',*,*,#63,.T.);
#75=ORIENTED_EDGE('',*,*,#63,.F.);
#76=ORIENTED_EDGE('',*,*,#64,.F.);
#77=ORIENTED_EDGE('',*,*,#65,.T.);
#78=ORIENTED_EDGE('',*,*,#62,.F.);
#79=ORIENTED_EDGE('',*,*,#65,.F.);
#80=ORIENTED_EDGE('',*,*,#66,.T.);
#81=ORIENTED_EDGE('',*,*,#67,.T.);
#82=ORIENTED_EDGE('',*,*,#67,.F.);
#83=ORIENTED_EDGE('',*,*,#68,.F.);
#84=ORIENTED_EDGE('',*,*,#69,.T.);
#85=ORIENTED_EDGE('',*,*,#66,.F.);
#86=ORIENTED_EDGE('',*,*,#69,.F.);
#87=ORIENTED_EDGE('',*,*,#70,.T.);
#88=ORIENTED_EDGE('',*,*,#64,.T.);
#89=ORIENTED_EDGE('',*,*,#71,.F.);
#90=ORIENTED_EDGE('',*,*,#72,.T.);
#91=ORIENTED_EDGE('',*,*,#70,.F.);
#92=ORIENTED_EDGE('',*,*,#72,.F.);
#93=ORIENTED_EDGE('',*,*,#71,.T.);
#94=ORIENTED_EDGE('',*,*,#68,.T.);
#95=CONICAL_SURFACE('',#127,1.66175,1.02974425867665);
#96=CONICAL_SURFACE('',#131,1.66175,1.02974425867665);
#97=ADVANCED_FACE('',(#22),#95,.F.);
#98=ADVANCED_FACE('',(#23),#19,.F.);
#99=ADVANCED_FACE('',(#24),#96,.F.);
#100=ADVANCED_FACE('',(#25),#20,.F.);
#101=ADVANCED_FACE('',(#26,#15),#17,.F.);
#102=ADVANCED_FACE('',(#27),#21,.T.);
#103=ADVANCED_FACE('',(#28,#16),#18,.T.);
#104=CLOSED_SHELL('',(#97,#98,#99,#100,#101,#102,#103));
#105=DERIVED_UNIT_ELEMENT(#108,1.);
#106=DERIVED_UNIT_ELEMENT(#205,-3.);
#107=DIMENSIONAL_EXPONENTS(0.,1.,0.,0.,0.,0.,0.);
#108=(
CONVERSION_BASED_UNIT('gram',#110)
MASS_UNIT()
NAMED_UNIT(#107)
);
#109=(
MASS_UNIT()
NAMED_UNIT(*)
SI_UNIT(.KILO.,.GRAM.)
);
#110=MASS_MEASURE_WITH_UNIT(MASS_MEASURE(0.001),#109);
#111=DERIVED_UNIT((#105,#106));
#112=MEASURE_REPRESENTATION_ITEM('density measure',
POSITIVE_RATIO_MEASURE(1.),#111);
#113=PROPERTY_DEFINITION_REPRESENTATION(#118,#115);
#114=PROPERTY_DEFINITION_REPRESENTATION(#119,#116);
#115=REPRESENTATION('material name',(#117),#202);
#116=REPRESENTATION('density',(#112),#202);
#117=DESCRIPTIVE_REPRESENTATION_ITEM('Generisch','Generisch');
#118=PROPERTY_DEFINITION('material property','material name',#212);
#119=PROPERTY_DEFINITION('material property','density of part',#212);
#120=DATE_TIME_ROLE('creation_date');
#121=APPLIED_DATE_AND_TIME_ASSIGNMENT(#122,#120,(#212));
#122=DATE_AND_TIME(#123,#124);
#123=CALENDAR_DATE(2026,5,1);
#124=LOCAL_TIME(0,0,0.,#125);
#125=COORDINATED_UNIVERSAL_TIME_OFFSET(0,0,.BEHIND.);
#126=AXIS2_PLACEMENT_3D('',#173,#140,#141);
#127=AXIS2_PLACEMENT_3D('',#174,#142,#143);
#128=AXIS2_PLACEMENT_3D('',#176,#144,#145);
#129=AXIS2_PLACEMENT_3D('',#179,#147,#148);
#130=AXIS2_PLACEMENT_3D('',#181,#149,#150);
#131=AXIS2_PLACEMENT_3D('',#183,#152,#153);
#132=AXIS2_PLACEMENT_3D('',#185,#154,#155);
#133=AXIS2_PLACEMENT_3D('',#188,#157,#158);
#134=AXIS2_PLACEMENT_3D('',#190,#159,#160);
#135=AXIS2_PLACEMENT_3D('',#192,#162,#163);
#136=AXIS2_PLACEMENT_3D('',#194,#164,#165);
#137=AXIS2_PLACEMENT_3D('',#195,#166,#167);
#138=AXIS2_PLACEMENT_3D('',#197,#168,#169);
#139=AXIS2_PLACEMENT_3D('',#199,#171,#172);
#140=DIRECTION('axis',(0.,0.,1.));
#141=DIRECTION('refdir',(1.,0.,0.));
#142=DIRECTION('center_axis',(0.,0.,-1.));
#143=DIRECTION('ref_axis',(-1.,0.,0.));
#144=DIRECTION('center_axis',(0.,0.,-1.));
#145=DIRECTION('ref_axis',(-1.,0.,0.));
#146=DIRECTION('',(-0.857167300702112,1.04972719113862E-16,0.515038074910054));
#147=DIRECTION('center_axis',(0.,0.,-1.));
#148=DIRECTION('ref_axis',(-1.,0.,0.));
#149=DIRECTION('center_axis',(0.,0.,1.));
#150=DIRECTION('ref_axis',(-1.,0.,0.));
#151=DIRECTION('',(0.,0.,1.));
#152=DIRECTION('center_axis',(0.,0.,1.));
#153=DIRECTION('ref_axis',(1.,0.,0.));
#154=DIRECTION('center_axis',(0.,0.,1.));
#155=DIRECTION('ref_axis',(1.,0.,0.));
#156=DIRECTION('',(0.857167300702112,1.04972719113862E-16,-0.515038074910054));
#157=DIRECTION('center_axis',(0.,0.,1.));
#158=DIRECTION('ref_axis',(1.,0.,0.));
#159=DIRECTION('center_axis',(0.,0.,-1.));
#160=DIRECTION('ref_axis',(1.,0.,0.));
#161=DIRECTION('',(0.,0.,-1.));
#162=DIRECTION('center_axis',(0.,0.,1.));
#163=DIRECTION('ref_axis',(1.,0.,0.));
#164=DIRECTION('center_axis',(0.,0.,-1.));
#165=DIRECTION('ref_axis',(1.,0.,0.));
#166=DIRECTION('center_axis',(0.,0.,1.));
#167=DIRECTION('ref_axis',(1.,0.,0.));
#168=DIRECTION('center_axis',(0.,0.,1.));
#169=DIRECTION('ref_axis',(1.,0.,0.));
#170=DIRECTION('',(0.,0.,-1.));
#171=DIRECTION('center_axis',(0.,0.,1.));
#172=DIRECTION('ref_axis',(1.,0.,0.));
#173=CARTESIAN_POINT('',(0.,0.,0.));
#174=CARTESIAN_POINT('Origin',(0.,0.,-9.50151986633095));
#175=CARTESIAN_POINT('',(3.3235,-4.07011363696623E-16,-10.5));
#176=CARTESIAN_POINT('Origin',(0.,0.,-10.5));
#177=CARTESIAN_POINT('',(0.,0.,-8.5030397326619));
#178=CARTESIAN_POINT('',(1.66175,-2.03505681848311E-16,-9.50151986633095));
#179=CARTESIAN_POINT('Origin',(0.,0.,-17.5));
#180=CARTESIAN_POINT('',(3.3235,-4.07011363696623E-16,-24.5));
#181=CARTESIAN_POINT('Origin',(0.,0.,-24.5));
#182=CARTESIAN_POINT('',(3.3235,-4.07011363696623E-16,-17.5));
#183=CARTESIAN_POINT('Origin',(0.,0.,9.50151986633095));
#184=CARTESIAN_POINT('',(-3.3235,-4.07011363696623E-16,10.5));
#185=CARTESIAN_POINT('Origin',(0.,0.,10.5));
#186=CARTESIAN_POINT('',(0.,0.,8.5030397326619));
#187=CARTESIAN_POINT('',(-1.66175,-2.03505681848311E-16,9.50151986633095));
#188=CARTESIAN_POINT('Origin',(0.,0.,17.5));
#189=CARTESIAN_POINT('',(-3.3235,-4.07011363696623E-16,24.5));
#190=CARTESIAN_POINT('Origin',(0.,0.,24.5));
#191=CARTESIAN_POINT('',(-3.3235,-4.07011363696623E-16,17.5));
#192=CARTESIAN_POINT('Origin',(0.,0.,-24.5));
#193=CARTESIAN_POINT('',(-5.5,-6.73555739531044E-16,-24.5));
#194=CARTESIAN_POINT('Origin',(0.,0.,-24.5));
#195=CARTESIAN_POINT('Origin',(0.,0.,0.));
#196=CARTESIAN_POINT('',(-5.5,-6.73555739531044E-16,24.5));
#197=CARTESIAN_POINT('Origin',(0.,0.,24.5));
#198=CARTESIAN_POINT('',(-5.5,-6.73555739531044E-16,0.));
#199=CARTESIAN_POINT('Origin',(0.,0.,24.5));
#200=UNCERTAINTY_MEASURE_WITH_UNIT(LENGTH_MEASURE(0.01),#204,
'DISTANCE_ACCURACY_VALUE',
'Maximum model space distance between geometric entities at asserted c
onnectivities');
#201=UNCERTAINTY_MEASURE_WITH_UNIT(LENGTH_MEASURE(0.01),#204,
'DISTANCE_ACCURACY_VALUE',
'Maximum model space distance between geometric entities at asserted c
onnectivities');
#202=(
GEOMETRIC_REPRESENTATION_CONTEXT(3)
GLOBAL_UNCERTAINTY_ASSIGNED_CONTEXT((#200))
GLOBAL_UNIT_ASSIGNED_CONTEXT((#204,#206,#207))
REPRESENTATION_CONTEXT('','3D')
);
#203=(
GEOMETRIC_REPRESENTATION_CONTEXT(3)
GLOBAL_UNCERTAINTY_ASSIGNED_CONTEXT((#201))
GLOBAL_UNIT_ASSIGNED_CONTEXT((#204,#206,#207))
REPRESENTATION_CONTEXT('','3D')
);
#204=(
LENGTH_UNIT()
NAMED_UNIT(*)
SI_UNIT(.MILLI.,.METRE.)
);
#205=(
LENGTH_UNIT()
NAMED_UNIT(*)
SI_UNIT(.CENTI.,.METRE.)
);
#206=(
NAMED_UNIT(*)
PLANE_ANGLE_UNIT()
SI_UNIT($,.RADIAN.)
);
#207=(
NAMED_UNIT(*)
SI_UNIT($,.STERADIAN.)
SOLID_ANGLE_UNIT()
);
#208=SHAPE_DEFINITION_REPRESENTATION(#209,#210);
#209=PRODUCT_DEFINITION_SHAPE('',$,#212);
#210=SHAPE_REPRESENTATION('',(#126),#202);
#211=PRODUCT_DEFINITION_CONTEXT('part definition',#216,'design');
#212=PRODUCT_DEFINITION('RadBolzen','RadBolzen',#213,#211);
#213=PRODUCT_DEFINITION_FORMATION('',$,#218);
#214=PRODUCT_RELATED_PRODUCT_CATEGORY('RadBolzen','RadBolzen',(#218));
#215=APPLICATION_PROTOCOL_DEFINITION('international standard',
'automotive_design',2009,#216);
#216=APPLICATION_CONTEXT(
'Core Data for Automotive Mechanical Design Process');
#217=PRODUCT_CONTEXT('part definition',#216,'mechanical');
#218=PRODUCT('RadBolzen','RadBolzen',$,(#217));
#219=PRESENTATION_STYLE_ASSIGNMENT((#220));
#220=SURFACE_STYLE_USAGE(.BOTH.,#223);
#221=SURFACE_STYLE_RENDERING_WITH_PROPERTIES($,#227,(#222));
#222=SURFACE_STYLE_TRANSPARENT(0.);
#223=SURFACE_SIDE_STYLE('',(#224,#221));
#224=SURFACE_STYLE_FILL_AREA(#225);
#225=FILL_AREA_STYLE('',(#226));
#226=FILL_AREA_STYLE_COLOUR('',#227);
#227=COLOUR_RGB('',0.749019607843137,0.749019607843137,0.749019607843137);
ENDSEC;
END-ISO-10303-21;
