ISO-10303-21;
HEADER;
/* Generated by software containing ST-Developer
 * from STEP Tools, Inc. (www.steptools.com) 
 */

FILE_DESCRIPTION(
/* description */ (''),
/* implementation_level */ '2;1');

FILE_NAME(
/* name */ 'Rolle_RippenSttze.stp',
/* time_stamp */ '2026-09-02T21:27:43+02:00',
/* author */ ('bluhm'),
/* organization */ (''),
/* preprocessor_version */ 'ST-DEVELOPER v20.1',
/* originating_system */ 'Autodesk Inventor 2026',
/* authorisation */ '');

FILE_SCHEMA (('AUTOMOTIVE_DESIGN { 1 0 10303 214 3 1 1 }'));
ENDSEC;

DATA;
#10=MECHANICAL_DESIGN_GEOMETRIC_PRESENTATION_REPRESENTATION('',(#13),#1650);
#11=SHAPE_REPRESENTATION_RELATIONSHIP('SRR','None',#1657,#12);
#12=ADVANCED_BREP_SHAPE_REPRESENTATION('',(#14),#1649);
#13=STYLED_ITEM('',(#1666),#14);
#14=MANIFOLD_SOLID_BREP('Volumenk\X\F6rper1',#860);
#15=B_SPLINE_SURFACE_WITH_KNOTS('',3,3,((#1354,#1355,#1356,#1357,#1358,
#1359,#1360,#1361),(#1362,#1363,#1364,#1365,#1366,#1367,#1368,#1369),(#1370,
#1371,#1372,#1373,#1374,#1375,#1376,#1377),(#1378,#1379,#1380,#1381,#1382,
#1383,#1384,#1385),(#1386,#1387,#1388,#1389,#1390,#1391,#1392,#1393)),
 .UNSPECIFIED.,.F.,.F.,.F.,(4,1,4),(4,1,1,2,4),(0.,0.571428571428571,1.),
(0.146763178245165,0.476093063782121,0.6407580065506,0.970087892087556,
0.971585003170594),.UNSPECIFIED.);
#16=B_SPLINE_SURFACE_WITH_KNOTS('',3,3,((#1413,#1414,#1415,#1416),(#1417,
#1418,#1419,#1420),(#1421,#1422,#1423,#1424),(#1425,#1426,#1427,#1428),
(#1429,#1430,#1431,#1432)),.UNSPECIFIED.,.F.,.F.,.F.,(4,1,4),(4,4),(0.,
0.571428571428571,1.),(2.80839892466481,2.96329382577598),.UNSPECIFIED.);
#17=B_SPLINE_SURFACE_WITH_KNOTS('',3,3,((#1487,#1488,#1489,#1490,#1491,
#1492,#1493,#1494),(#1495,#1496,#1497,#1498,#1499,#1500,#1501,#1502),(#1503,
#1504,#1505,#1506,#1507,#1508,#1509,#1510),(#1511,#1512,#1513,#1514,#1515,
#1516,#1517,#1518),(#1519,#1520,#1521,#1522,#1523,#1524,#1525,#1526)),
 .UNSPECIFIED.,.F.,.F.,.F.,(4,1,4),(4,2,1,1,4),(0.,0.571428571428571,1.),
(-0.00149711108231215,0.,0.493994828305601,0.658659771074135,0.823324713842668),
 .UNSPECIFIED.);
#18=B_SPLINE_SURFACE_WITH_KNOTS('',3,3,((#1546,#1547,#1548,#1549),(#1550,
#1551,#1552,#1553),(#1554,#1555,#1556,#1557),(#1558,#1559,#1560,#1561),
(#1562,#1563,#1564,#1565)),.UNSPECIFIED.,.F.,.F.,.F.,(4,1,4),(4,4),(0.,
0.571428571428571,1.),(4.44089209850063E-16,0.154894901111543),
 .UNSPECIFIED.);
#19=TOROIDAL_SURFACE('',#909,4.33904337008963,1.);
#20=TOROIDAL_SURFACE('',#927,34.,2.);
#21=TOROIDAL_SURFACE('',#940,34.,2.);
#22=FACE_BOUND('',#120,.T.);
#23=FACE_BOUND('',#122,.T.);
#24=FACE_BOUND('',#124,.T.);
#25=FACE_BOUND('',#128,.T.);
#26=FACE_BOUND('',#138,.T.);
#27=FACE_BOUND('',#144,.T.);
#28=FACE_BOUND('',#149,.T.);
#29=FACE_BOUND('',#153,.T.);
#30=FACE_BOUND('',#155,.T.);
#31=B_SPLINE_CURVE_WITH_KNOTS('',3,(#1245,#1246,#1247,#1248,#1249,#1250,
#1251,#1252,#1253,#1254),.UNSPECIFIED.,.F.,.F.,(4,2,2,2,4),(0.340349132392459,
0.447021375265661,0.542055365538994,0.621492648766013,0.688484548759634),
 .UNSPECIFIED.);
#32=B_SPLINE_CURVE_WITH_KNOTS('',3,(#1296,#1297,#1298,#1299,#1300,#1301,
#1302,#1303,#1304,#1305),.UNSPECIFIED.,.F.,.F.,(4,2,2,2,4),(0.688484548759635,
0.755476448753253,0.834913731980274,0.929947722253609,1.03661996512681),
 .UNSPECIFIED.);
#33=B_SPLINE_CURVE_WITH_KNOTS('',3,(#1327,#1328,#1329,#1330),
 .UNSPECIFIED.,.F.,.F.,(4,4),(0.37919699945033,0.381995165938277),
 .UNSPECIFIED.);
#34=B_SPLINE_CURVE_WITH_KNOTS('',3,(#1346,#1347,#1348,#1349),
 .UNSPECIFIED.,.F.,.F.,(4,4),(2.66204420410188,2.69143187643489),
 .UNSPECIFIED.);
#35=B_SPLINE_CURVE_WITH_KNOTS('',3,(#1350,#1351,#1352,#1353),
 .UNSPECIFIED.,.F.,.F.,(4,4),(0.50812726154013,0.53700382046536),
 .UNSPECIFIED.);
#36=B_SPLINE_CURVE_WITH_KNOTS('',3,(#1397,#1398,#1399,#1400,#1401,#1402,
#1403,#1404),.UNSPECIFIED.,.F.,.F.,(4,1,1,2,4),(0.146763178245165,0.476093063782121,
0.6407580065506,0.970087892087556,0.971585003170594),.UNSPECIFIED.);
#37=B_SPLINE_CURVE_WITH_KNOTS('',3,(#1405,#1406,#1407,#1408,#1409,#1410,
#1411,#1412),.UNSPECIFIED.,.F.,.F.,(4,2,1,1,4),(-0.971585003170594,-0.970087892087556,
-0.6407580065506,-0.476093063782121,-0.146763178245165),.UNSPECIFIED.);
#38=B_SPLINE_CURVE_WITH_KNOTS('',3,(#1433,#1434,#1435,#1436),
 .UNSPECIFIED.,.F.,.F.,(4,4),(2.80839892466481,2.96329382577598),
 .UNSPECIFIED.);
#39=B_SPLINE_CURVE_WITH_KNOTS('',3,(#1437,#1438,#1439,#1440),
 .UNSPECIFIED.,.F.,.F.,(4,4),(-2.96329382577598,-2.80839892466481),
 .UNSPECIFIED.);
#40=B_SPLINE_CURVE_WITH_KNOTS('',3,(#1445,#1446,#1447,#1448),
 .UNSPECIFIED.,.F.,.F.,(4,4),(0.0343806858456329,0.0637683581786387),
 .UNSPECIFIED.);
#41=B_SPLINE_CURVE_WITH_KNOTS('',3,(#1478,#1479,#1480,#1481),
 .UNSPECIFIED.,.F.,.F.,(4,4),(0.665952097869391,0.668750264357338),
 .UNSPECIFIED.);
#42=B_SPLINE_CURVE_WITH_KNOTS('',3,(#1483,#1484,#1485,#1486),
 .UNSPECIFIED.,.F.,.F.,(4,4),(0.537003820465361,0.565880379390591),
 .UNSPECIFIED.);
#43=B_SPLINE_CURVE_WITH_KNOTS('',3,(#1530,#1531,#1532,#1533,#1534,#1535,
#1536,#1537),.UNSPECIFIED.,.F.,.F.,(4,1,1,2,4),(-0.823324713842668,-0.658659771074135,
-0.493994828305601,0.,0.00149711108231215),.UNSPECIFIED.);
#44=B_SPLINE_CURVE_WITH_KNOTS('',3,(#1538,#1539,#1540,#1541,#1542,#1543,
#1544,#1545),.UNSPECIFIED.,.F.,.F.,(4,2,1,1,4),(-0.00149711108231215,0.,
0.493994828305601,0.658659771074135,0.823324713842668),.UNSPECIFIED.);
#45=B_SPLINE_CURVE_WITH_KNOTS('',3,(#1566,#1567,#1568,#1569),
 .UNSPECIFIED.,.F.,.F.,(4,4),(-0.154894901111543,-4.44089209850063E-16),
 .UNSPECIFIED.);
#46=B_SPLINE_CURVE_WITH_KNOTS('',3,(#1570,#1571,#1572,#1573),
 .UNSPECIFIED.,.F.,.F.,(4,4),(4.44089209850063E-16,0.154894901111543),
 .UNSPECIFIED.);
#47=ELLIPSE('',#891,62.6285419046748,32.);
#48=ELLIPSE('',#892,19.5714193452109,10.);
#49=ELLIPSE('',#907,62.6285419046747,32.);
#50=ELLIPSE('',#915,2.01933061860062,2.);
#51=ELLIPSE('',#923,2.01933061860062,2.);
#52=ELLIPSE('',#942,19.571419345211,10.);
#53=PLANE('',#890);
#54=PLANE('',#893);
#55=PLANE('',#897);
#56=PLANE('',#900);
#57=PLANE('',#919);
#58=PLANE('',#921);
#59=PLANE('',#922);
#60=PLANE('',#924);
#61=PLANE('',#931);
#62=PLANE('',#935);
#63=PLANE('',#943);
#64=PLANE('',#951);
#65=PLANE('',#952);
#66=PLANE('',#953);
#67=PLANE('',#954);
#68=PLANE('',#957);
#69=PLANE('',#959);
#70=PLANE('',#962);
#71=PLANE('',#964);
#72=PLANE('',#966);
#73=FACE_OUTER_BOUND('',#117,.T.);
#74=FACE_OUTER_BOUND('',#118,.T.);
#75=FACE_OUTER_BOUND('',#119,.T.);
#76=FACE_OUTER_BOUND('',#121,.T.);
#77=FACE_OUTER_BOUND('',#123,.T.);
#78=FACE_OUTER_BOUND('',#125,.T.);
#79=FACE_OUTER_BOUND('',#126,.T.);
#80=FACE_OUTER_BOUND('',#127,.T.);
#81=FACE_OUTER_BOUND('',#129,.T.);
#82=FACE_OUTER_BOUND('',#130,.T.);
#83=FACE_OUTER_BOUND('',#131,.T.);
#84=FACE_OUTER_BOUND('',#132,.T.);
#85=FACE_OUTER_BOUND('',#133,.T.);
#86=FACE_OUTER_BOUND('',#134,.T.);
#87=FACE_OUTER_BOUND('',#135,.T.);
#88=FACE_OUTER_BOUND('',#136,.T.);
#89=FACE_OUTER_BOUND('',#137,.T.);
#90=FACE_OUTER_BOUND('',#139,.T.);
#91=FACE_OUTER_BOUND('',#140,.T.);
#92=FACE_OUTER_BOUND('',#141,.T.);
#93=FACE_OUTER_BOUND('',#142,.T.);
#94=FACE_OUTER_BOUND('',#143,.T.);
#95=FACE_OUTER_BOUND('',#145,.T.);
#96=FACE_OUTER_BOUND('',#146,.T.);
#97=FACE_OUTER_BOUND('',#147,.T.);
#98=FACE_OUTER_BOUND('',#148,.T.);
#99=FACE_OUTER_BOUND('',#150,.T.);
#100=FACE_OUTER_BOUND('',#151,.T.);
#101=FACE_OUTER_BOUND('',#152,.T.);
#102=FACE_OUTER_BOUND('',#154,.T.);
#103=FACE_OUTER_BOUND('',#156,.T.);
#104=FACE_OUTER_BOUND('',#157,.T.);
#105=FACE_OUTER_BOUND('',#158,.T.);
#106=FACE_OUTER_BOUND('',#159,.T.);
#107=FACE_OUTER_BOUND('',#160,.T.);
#108=FACE_OUTER_BOUND('',#161,.T.);
#109=FACE_OUTER_BOUND('',#162,.T.);
#110=FACE_OUTER_BOUND('',#163,.T.);
#111=FACE_OUTER_BOUND('',#164,.T.);
#112=FACE_OUTER_BOUND('',#165,.T.);
#113=FACE_OUTER_BOUND('',#166,.T.);
#114=FACE_OUTER_BOUND('',#167,.T.);
#115=FACE_OUTER_BOUND('',#168,.T.);
#116=FACE_OUTER_BOUND('',#169,.T.);
#117=EDGE_LOOP('',(#547,#548,#549,#550,#551,#552,#553,#554,#555,#556,#557,
#558));
#118=EDGE_LOOP('',(#559,#560,#561,#562,#563,#564));
#119=EDGE_LOOP('',(#565,#566,#567,#568,#569,#570,#571,#572,#573,#574,#575));
#120=EDGE_LOOP('',(#576));
#121=EDGE_LOOP('',(#577,#578,#579,#580,#581,#582,#583,#584));
#122=EDGE_LOOP('',(#585));
#123=EDGE_LOOP('',(#586,#587,#588,#589,#590,#591,#592,#593,#594,#595,#596));
#124=EDGE_LOOP('',(#597));
#125=EDGE_LOOP('',(#598,#599,#600,#601,#602,#603,#604,#605,#606,#607));
#126=EDGE_LOOP('',(#608,#609,#610,#611));
#127=EDGE_LOOP('',(#612,#613,#614,#615,#616,#617,#618,#619));
#128=EDGE_LOOP('',(#620,#621));
#129=EDGE_LOOP('',(#622,#623,#624));
#130=EDGE_LOOP('',(#625,#626,#627,#628));
#131=EDGE_LOOP('',(#629,#630,#631,#632));
#132=EDGE_LOOP('',(#633,#634,#635,#636));
#133=EDGE_LOOP('',(#637,#638,#639,#640));
#134=EDGE_LOOP('',(#641,#642,#643,#644));
#135=EDGE_LOOP('',(#645,#646,#647,#648,#649,#650,#651,#652,#653,#654));
#136=EDGE_LOOP('',(#655,#656,#657,#658,#659,#660));
#137=EDGE_LOOP('',(#661,#662,#663,#664,#665,#666,#667,#668));
#138=EDGE_LOOP('',(#669,#670));
#139=EDGE_LOOP('',(#671,#672,#673));
#140=EDGE_LOOP('',(#674,#675,#676,#677));
#141=EDGE_LOOP('',(#678,#679,#680,#681));
#142=EDGE_LOOP('',(#682,#683,#684,#685,#686,#687,#688,#689));
#143=EDGE_LOOP('',(#690,#691,#692,#693,#694,#695,#696,#697,#698));
#144=EDGE_LOOP('',(#699));
#145=EDGE_LOOP('',(#700,#701,#702,#703));
#146=EDGE_LOOP('',(#704,#705,#706,#707,#708,#709));
#147=EDGE_LOOP('',(#710,#711,#712,#713));
#148=EDGE_LOOP('',(#714,#715,#716,#717,#718,#719,#720,#721,#722));
#149=EDGE_LOOP('',(#723));
#150=EDGE_LOOP('',(#724,#725,#726,#727));
#151=EDGE_LOOP('',(#728,#729,#730,#731));
#152=EDGE_LOOP('',(#732));
#153=EDGE_LOOP('',(#733));
#154=EDGE_LOOP('',(#734,#735));
#155=EDGE_LOOP('',(#736));
#156=EDGE_LOOP('',(#737,#738,#739,#740,#741,#742,#743,#744));
#157=EDGE_LOOP('',(#745,#746,#747,#748));
#158=EDGE_LOOP('',(#749,#750,#751,#752));
#159=EDGE_LOOP('',(#753,#754,#755,#756));
#160=EDGE_LOOP('',(#757,#758,#759,#760));
#161=EDGE_LOOP('',(#761,#762,#763,#764));
#162=EDGE_LOOP('',(#765,#766,#767,#768));
#163=EDGE_LOOP('',(#769,#770,#771,#772));
#164=EDGE_LOOP('',(#773,#774,#775,#776));
#165=EDGE_LOOP('',(#777,#778,#779,#780,#781,#782));
#166=EDGE_LOOP('',(#783,#784,#785,#786));
#167=EDGE_LOOP('',(#787,#788,#789,#790));
#168=EDGE_LOOP('',(#791,#792,#793,#794));
#169=EDGE_LOOP('',(#795,#796,#797,#798));
#170=CIRCLE('',#884,32.);
#171=CIRCLE('',#885,32.);
#172=CIRCLE('',#886,32.);
#173=CIRCLE('',#887,32.);
#174=CIRCLE('',#888,32.);
#175=CIRCLE('',#889,32.);
#176=CIRCLE('',#894,3.);
#177=CIRCLE('',#895,20.);
#178=CIRCLE('',#896,5.5);
#179=CIRCLE('',#898,32.);
#180=CIRCLE('',#899,4.);
#181=CIRCLE('',#901,20.);
#182=CIRCLE('',#902,3.);
#183=CIRCLE('',#903,5.5);
#184=CIRCLE('',#905,32.);
#185=CIRCLE('',#906,32.);
#186=CIRCLE('',#908,32.);
#187=CIRCLE('',#910,5.);
#188=CIRCLE('',#911,1.);
#189=CIRCLE('',#912,4.65);
#190=CIRCLE('',#914,2.);
#191=CIRCLE('',#916,2.);
#192=CIRCLE('',#917,2.);
#193=CIRCLE('',#920,2.);
#194=CIRCLE('',#925,34.);
#195=CIRCLE('',#926,34.);
#196=CIRCLE('',#929,1.99999999999999);
#197=CIRCLE('',#930,2.);
#198=CIRCLE('',#933,0.988201560943371);
#199=CIRCLE('',#934,0.988201560943371);
#200=CIRCLE('',#936,20.);
#201=CIRCLE('',#937,3.);
#202=CIRCLE('',#938,5.5);
#203=CIRCLE('',#944,3.);
#204=CIRCLE('',#945,20.);
#205=CIRCLE('',#946,5.5);
#206=CIRCLE('',#948,4.);
#207=CIRCLE('',#950,4.65);
#208=LINE('',#1207,#274);
#209=LINE('',#1211,#275);
#210=LINE('',#1215,#276);
#211=LINE('',#1219,#277);
#212=LINE('',#1223,#278);
#213=LINE('',#1227,#279);
#214=LINE('',#1234,#280);
#215=LINE('',#1236,#281);
#216=LINE('',#1238,#282);
#217=LINE('',#1240,#283);
#218=LINE('',#1243,#284);
#219=LINE('',#1256,#285);
#220=LINE('',#1258,#286);
#221=LINE('',#1260,#287);
#222=LINE('',#1262,#288);
#223=LINE('',#1266,#289);
#224=LINE('',#1272,#290);
#225=LINE('',#1273,#291);
#226=LINE('',#1276,#292);
#227=LINE('',#1281,#293);
#228=LINE('',#1285,#294);
#229=LINE('',#1289,#295);
#230=LINE('',#1291,#296);
#231=LINE('',#1293,#297);
#232=LINE('',#1295,#298);
#233=LINE('',#1313,#299);
#234=LINE('',#1316,#300);
#235=LINE('',#1332,#301);
#236=LINE('',#1336,#302);
#237=LINE('',#1340,#303);
#238=LINE('',#1343,#304);
#239=LINE('',#1443,#305);
#240=LINE('',#1449,#306);
#241=LINE('',#1452,#307);
#242=LINE('',#1455,#308);
#243=LINE('',#1458,#309);
#244=LINE('',#1459,#310);
#245=LINE('',#1462,#311);
#246=LINE('',#1466,#312);
#247=LINE('',#1467,#313);
#248=LINE('',#1470,#314);
#249=LINE('',#1476,#315);
#250=LINE('',#1482,#316);
#251=LINE('',#1575,#317);
#252=LINE('',#1579,#318);
#253=LINE('',#1580,#319);
#254=LINE('',#1582,#320);
#255=LINE('',#1585,#321);
#256=LINE('',#1589,#322);
#257=LINE('',#1592,#323);
#258=LINE('',#1599,#324);
#259=LINE('',#1603,#325);
#260=LINE('',#1607,#326);
#261=LINE('',#1610,#327);
#262=LINE('',#1616,#328);
#263=LINE('',#1619,#329);
#264=LINE('',#1624,#330);
#265=LINE('',#1628,#331);
#266=LINE('',#1630,#332);
#267=LINE('',#1632,#333);
#268=LINE('',#1634,#334);
#269=LINE('',#1637,#335);
#270=LINE('',#1639,#336);
#271=LINE('',#1641,#337);
#272=LINE('',#1643,#338);
#273=LINE('',#1645,#339);
#274=VECTOR('',#971,10.);
#275=VECTOR('',#974,10.);
#276=VECTOR('',#977,10.);
#277=VECTOR('',#980,10.);
#278=VECTOR('',#983,10.);
#279=VECTOR('',#986,10.);
#280=VECTOR('',#993,10.);
#281=VECTOR('',#994,10.);
#282=VECTOR('',#995,10.);
#283=VECTOR('',#996,10.);
#284=VECTOR('',#1001,10.);
#285=VECTOR('',#1002,10.);
#286=VECTOR('',#1003,10.);
#287=VECTOR('',#1004,10.);
#288=VECTOR('',#1005,10.);
#289=VECTOR('',#1008,10.);
#290=VECTOR('',#1015,10.);
#291=VECTOR('',#1016,10.);
#292=VECTOR('',#1019,10.);
#293=VECTOR('',#1024,10.);
#294=VECTOR('',#1027,10.);
#295=VECTOR('',#1030,10.);
#296=VECTOR('',#1031,10.);
#297=VECTOR('',#1032,10.);
#298=VECTOR('',#1033,10.);
#299=VECTOR('',#1042,10.);
#300=VECTOR('',#1045,10.);
#301=VECTOR('',#1058,10.);
#302=VECTOR('',#1061,10.);
#303=VECTOR('',#1064,10.);
#304=VECTOR('',#1067,10.);
#305=VECTOR('',#1072,10.);
#306=VECTOR('',#1073,10.);
#307=VECTOR('',#1076,10.);
#308=VECTOR('',#1079,10.);
#309=VECTOR('',#1082,10.);
#310=VECTOR('',#1083,10.);
#311=VECTOR('',#1086,10.);
#312=VECTOR('',#1093,10.);
#313=VECTOR('',#1094,10.);
#314=VECTOR('',#1097,10.);
#315=VECTOR('',#1104,10.);
#316=VECTOR('',#1105,10.);
#317=VECTOR('',#1110,10.);
#318=VECTOR('',#1115,10.);
#319=VECTOR('',#1116,10.);
#320=VECTOR('',#1117,10.);
#321=VECTOR('',#1122,10.);
#322=VECTOR('',#1125,10.);
#323=VECTOR('',#1128,10.);
#324=VECTOR('',#1137,10.);
#325=VECTOR('',#1142,10.);
#326=VECTOR('',#1145,10.);
#327=VECTOR('',#1148,10.);
#328=VECTOR('',#1155,4.);
#329=VECTOR('',#1158,4.65);
#330=VECTOR('',#1167,10.);
#331=VECTOR('',#1174,5.5);
#332=VECTOR('',#1177,10.);
#333=VECTOR('',#1180,10.);
#334=VECTOR('',#1183,10.);
#335=VECTOR('',#1188,5.5);
#336=VECTOR('',#1191,10.);
#337=VECTOR('',#1194,10.);
#338=VECTOR('',#1197,10.);
#339=VECTOR('',#1200,10.);
#340=VERTEX_POINT('',#1205);
#341=VERTEX_POINT('',#1206);
#342=VERTEX_POINT('',#1208);
#343=VERTEX_POINT('',#1210);
#344=VERTEX_POINT('',#1212);
#345=VERTEX_POINT('',#1214);
#346=VERTEX_POINT('',#1216);
#347=VERTEX_POINT('',#1218);
#348=VERTEX_POINT('',#1220);
#349=VERTEX_POINT('',#1222);
#350=VERTEX_POINT('',#1224);
#351=VERTEX_POINT('',#1226);
#352=VERTEX_POINT('',#1230);
#353=VERTEX_POINT('',#1231);
#354=VERTEX_POINT('',#1233);
#355=VERTEX_POINT('',#1235);
#356=VERTEX_POINT('',#1237);
#357=VERTEX_POINT('',#1239);
#358=VERTEX_POINT('',#1244);
#359=VERTEX_POINT('',#1255);
#360=VERTEX_POINT('',#1257);
#361=VERTEX_POINT('',#1259);
#362=VERTEX_POINT('',#1261);
#363=VERTEX_POINT('',#1263);
#364=VERTEX_POINT('',#1265);
#365=VERTEX_POINT('',#1268);
#366=VERTEX_POINT('',#1271);
#367=VERTEX_POINT('',#1274);
#368=VERTEX_POINT('',#1277);
#369=VERTEX_POINT('',#1280);
#370=VERTEX_POINT('',#1282);
#371=VERTEX_POINT('',#1284);
#372=VERTEX_POINT('',#1286);
#373=VERTEX_POINT('',#1288);
#374=VERTEX_POINT('',#1290);
#375=VERTEX_POINT('',#1292);
#376=VERTEX_POINT('',#1294);
#377=VERTEX_POINT('',#1306);
#378=VERTEX_POINT('',#1310);
#379=VERTEX_POINT('',#1312);
#380=VERTEX_POINT('',#1315);
#381=VERTEX_POINT('',#1319);
#382=VERTEX_POINT('',#1321);
#383=VERTEX_POINT('',#1325);
#384=VERTEX_POINT('',#1326);
#385=VERTEX_POINT('',#1331);
#386=VERTEX_POINT('',#1333);
#387=VERTEX_POINT('',#1335);
#388=VERTEX_POINT('',#1337);
#389=VERTEX_POINT('',#1339);
#390=VERTEX_POINT('',#1341);
#391=VERTEX_POINT('',#1344);
#392=VERTEX_POINT('',#1345);
#393=VERTEX_POINT('',#1394);
#394=VERTEX_POINT('',#1395);
#395=VERTEX_POINT('',#1442);
#396=VERTEX_POINT('',#1444);
#397=VERTEX_POINT('',#1451);
#398=VERTEX_POINT('',#1453);
#399=VERTEX_POINT('',#1457);
#400=VERTEX_POINT('',#1461);
#401=VERTEX_POINT('',#1468);
#402=VERTEX_POINT('',#1473);
#403=VERTEX_POINT('',#1475);
#404=VERTEX_POINT('',#1477);
#405=VERTEX_POINT('',#1527);
#406=VERTEX_POINT('',#1528);
#407=VERTEX_POINT('',#1577);
#408=VERTEX_POINT('',#1581);
#409=VERTEX_POINT('',#1586);
#410=VERTEX_POINT('',#1588);
#411=VERTEX_POINT('',#1590);
#412=VERTEX_POINT('',#1593);
#413=VERTEX_POINT('',#1598);
#414=VERTEX_POINT('',#1602);
#415=VERTEX_POINT('',#1604);
#416=VERTEX_POINT('',#1606);
#417=VERTEX_POINT('',#1608);
#418=VERTEX_POINT('',#1611);
#419=VERTEX_POINT('',#1614);
#420=VERTEX_POINT('',#1618);
#421=EDGE_CURVE('',#340,#341,#208,.T.);
#422=EDGE_CURVE('',#342,#340,#170,.T.);
#423=EDGE_CURVE('',#342,#343,#209,.T.);
#424=EDGE_CURVE('',#344,#343,#171,.T.);
#425=EDGE_CURVE('',#344,#345,#210,.T.);
#426=EDGE_CURVE('',#345,#346,#172,.T.);
#427=EDGE_CURVE('',#346,#347,#211,.T.);
#428=EDGE_CURVE('',#348,#347,#173,.T.);
#429=EDGE_CURVE('',#349,#348,#212,.T.);
#430=EDGE_CURVE('',#350,#349,#174,.T.);
#431=EDGE_CURVE('',#351,#350,#213,.T.);
#432=EDGE_CURVE('',#341,#351,#175,.T.);
#433=EDGE_CURVE('',#352,#353,#47,.T.);
#434=EDGE_CURVE('',#354,#352,#214,.T.);
#435=EDGE_CURVE('',#355,#354,#215,.T.);
#436=EDGE_CURVE('',#355,#356,#216,.T.);
#437=EDGE_CURVE('',#357,#356,#217,.T.);
#438=EDGE_CURVE('',#353,#357,#48,.T.);
#439=EDGE_CURVE('',#354,#343,#218,.T.);
#440=EDGE_CURVE('',#358,#342,#31,.T.);
#441=EDGE_CURVE('',#359,#358,#219,.T.);
#442=EDGE_CURVE('',#359,#360,#220,.T.);
#443=EDGE_CURVE('',#360,#361,#221,.T.);
#444=EDGE_CURVE('',#361,#362,#222,.T.);
#445=EDGE_CURVE('',#362,#363,#176,.T.);
#446=EDGE_CURVE('',#363,#364,#223,.T.);
#447=EDGE_CURVE('',#364,#355,#177,.T.);
#448=EDGE_CURVE('',#365,#365,#178,.T.);
#449=EDGE_CURVE('',#348,#366,#224,.T.);
#450=EDGE_CURVE('',#347,#344,#225,.T.);
#451=EDGE_CURVE('',#352,#367,#179,.T.);
#452=EDGE_CURVE('',#367,#366,#226,.T.);
#453=EDGE_CURVE('',#368,#368,#180,.T.);
#454=EDGE_CURVE('',#369,#366,#227,.T.);
#455=EDGE_CURVE('',#370,#369,#181,.T.);
#456=EDGE_CURVE('',#371,#370,#228,.T.);
#457=EDGE_CURVE('',#372,#371,#182,.T.);
#458=EDGE_CURVE('',#373,#372,#229,.T.);
#459=EDGE_CURVE('',#373,#374,#230,.T.);
#460=EDGE_CURVE('',#374,#375,#231,.T.);
#461=EDGE_CURVE('',#376,#375,#232,.T.);
#462=EDGE_CURVE('',#376,#349,#32,.F.);
#463=EDGE_CURVE('',#377,#377,#183,.T.);
#464=EDGE_CURVE('',#351,#341,#184,.T.);
#465=EDGE_CURVE('',#378,#350,#185,.T.);
#466=EDGE_CURVE('',#379,#378,#233,.T.);
#467=EDGE_CURVE('',#379,#367,#49,.T.);
#468=EDGE_CURVE('',#380,#353,#234,.T.);
#469=EDGE_CURVE('',#340,#380,#186,.T.);
#470=EDGE_CURVE('',#381,#381,#187,.T.);
#471=EDGE_CURVE('',#381,#382,#188,.T.);
#472=EDGE_CURVE('',#382,#382,#189,.T.);
#473=EDGE_CURVE('',#383,#384,#33,.T.);
#474=EDGE_CURVE('',#384,#385,#235,.T.);
#475=EDGE_CURVE('',#385,#386,#190,.T.);
#476=EDGE_CURVE('',#386,#387,#236,.T.);
#477=EDGE_CURVE('',#387,#388,#50,.T.);
#478=EDGE_CURVE('',#388,#389,#237,.T.);
#479=EDGE_CURVE('',#389,#390,#191,.T.);
#480=EDGE_CURVE('',#390,#383,#238,.T.);
#481=EDGE_CURVE('',#391,#392,#34,.T.);
#482=EDGE_CURVE('',#392,#391,#35,.T.);
#483=EDGE_CURVE('',#393,#394,#192,.T.);
#484=EDGE_CURVE('',#394,#378,#36,.T.);
#485=EDGE_CURVE('',#378,#393,#37,.T.);
#486=EDGE_CURVE('',#393,#386,#38,.T.);
#487=EDGE_CURVE('',#385,#394,#39,.T.);
#488=EDGE_CURVE('',#395,#391,#239,.T.);
#489=EDGE_CURVE('',#396,#395,#40,.T.);
#490=EDGE_CURVE('',#392,#396,#240,.T.);
#491=EDGE_CURVE('',#397,#389,#241,.T.);
#492=EDGE_CURVE('',#398,#397,#193,.T.);
#493=EDGE_CURVE('',#398,#390,#242,.T.);
#494=EDGE_CURVE('',#399,#388,#243,.T.);
#495=EDGE_CURVE('',#397,#399,#244,.T.);
#496=EDGE_CURVE('',#387,#400,#245,.T.);
#497=EDGE_CURVE('',#399,#400,#51,.T.);
#498=EDGE_CURVE('',#376,#386,#194,.T.);
#499=EDGE_CURVE('',#375,#346,#246,.T.);
#500=EDGE_CURVE('',#345,#359,#247,.T.);
#501=EDGE_CURVE('',#401,#358,#195,.T.);
#502=EDGE_CURVE('',#400,#401,#248,.T.);
#503=EDGE_CURVE('',#401,#402,#196,.T.);
#504=EDGE_CURVE('',#402,#403,#249,.T.);
#505=EDGE_CURVE('',#403,#404,#41,.T.);
#506=EDGE_CURVE('',#404,#398,#250,.T.);
#507=EDGE_CURVE('',#395,#396,#42,.T.);
#508=EDGE_CURVE('',#405,#406,#197,.T.);
#509=EDGE_CURVE('',#406,#380,#43,.T.);
#510=EDGE_CURVE('',#380,#405,#44,.T.);
#511=EDGE_CURVE('',#405,#402,#45,.T.);
#512=EDGE_CURVE('',#401,#406,#46,.T.);
#513=EDGE_CURVE('',#404,#383,#251,.T.);
#514=EDGE_CURVE('',#407,#403,#198,.T.);
#515=EDGE_CURVE('',#361,#407,#252,.T.);
#516=EDGE_CURVE('',#373,#361,#253,.T.);
#517=EDGE_CURVE('',#373,#408,#254,.T.);
#518=EDGE_CURVE('',#384,#408,#199,.T.);
#519=EDGE_CURVE('',#357,#405,#255,.T.);
#520=EDGE_CURVE('',#356,#409,#200,.T.);
#521=EDGE_CURVE('',#409,#410,#256,.T.);
#522=EDGE_CURVE('',#410,#411,#201,.T.);
#523=EDGE_CURVE('',#411,#407,#257,.T.);
#524=EDGE_CURVE('',#412,#412,#202,.T.);
#525=EDGE_CURVE('',#394,#413,#258,.T.);
#526=EDGE_CURVE('',#413,#379,#52,.T.);
#527=EDGE_CURVE('',#408,#414,#259,.T.);
#528=EDGE_CURVE('',#414,#415,#203,.T.);
#529=EDGE_CURVE('',#415,#416,#260,.T.);
#530=EDGE_CURVE('',#416,#417,#204,.T.);
#531=EDGE_CURVE('',#417,#413,#261,.T.);
#532=EDGE_CURVE('',#418,#418,#205,.T.);
#533=EDGE_CURVE('',#419,#419,#206,.T.);
#534=EDGE_CURVE('',#419,#368,#262,.T.);
#535=EDGE_CURVE('',#382,#420,#263,.T.);
#536=EDGE_CURVE('',#420,#420,#207,.T.);
#537=EDGE_CURVE('',#374,#360,#264,.T.);
#538=EDGE_CURVE('',#412,#365,#265,.T.);
#539=EDGE_CURVE('',#362,#411,#266,.T.);
#540=EDGE_CURVE('',#363,#410,#267,.T.);
#541=EDGE_CURVE('',#364,#409,#268,.T.);
#542=EDGE_CURVE('',#418,#377,#269,.T.);
#543=EDGE_CURVE('',#369,#417,#270,.T.);
#544=EDGE_CURVE('',#370,#416,#271,.T.);
#545=EDGE_CURVE('',#371,#415,#272,.T.);
#546=EDGE_CURVE('',#372,#414,#273,.T.);
#547=ORIENTED_EDGE('',*,*,#421,.F.);
#548=ORIENTED_EDGE('',*,*,#422,.F.);
#549=ORIENTED_EDGE('',*,*,#423,.T.);
#550=ORIENTED_EDGE('',*,*,#424,.F.);
#551=ORIENTED_EDGE('',*,*,#425,.T.);
#552=ORIENTED_EDGE('',*,*,#426,.T.);
#553=ORIENTED_EDGE('',*,*,#427,.T.);
#554=ORIENTED_EDGE('',*,*,#428,.F.);
#555=ORIENTED_EDGE('',*,*,#429,.F.);
#556=ORIENTED_EDGE('',*,*,#430,.F.);
#557=ORIENTED_EDGE('',*,*,#431,.F.);
#558=ORIENTED_EDGE('',*,*,#432,.F.);
#559=ORIENTED_EDGE('',*,*,#433,.F.);
#560=ORIENTED_EDGE('',*,*,#434,.F.);
#561=ORIENTED_EDGE('',*,*,#435,.F.);
#562=ORIENTED_EDGE('',*,*,#436,.T.);
#563=ORIENTED_EDGE('',*,*,#437,.F.);
#564=ORIENTED_EDGE('',*,*,#438,.F.);
#565=ORIENTED_EDGE('',*,*,#435,.T.);
#566=ORIENTED_EDGE('',*,*,#439,.T.);
#567=ORIENTED_EDGE('',*,*,#423,.F.);
#568=ORIENTED_EDGE('',*,*,#440,.F.);
#569=ORIENTED_EDGE('',*,*,#441,.F.);
#570=ORIENTED_EDGE('',*,*,#442,.T.);
#571=ORIENTED_EDGE('',*,*,#443,.T.);
#572=ORIENTED_EDGE('',*,*,#444,.T.);
#573=ORIENTED_EDGE('',*,*,#445,.T.);
#574=ORIENTED_EDGE('',*,*,#446,.T.);
#575=ORIENTED_EDGE('',*,*,#447,.T.);
#576=ORIENTED_EDGE('',*,*,#448,.T.);
#577=ORIENTED_EDGE('',*,*,#449,.F.);
#578=ORIENTED_EDGE('',*,*,#428,.T.);
#579=ORIENTED_EDGE('',*,*,#450,.T.);
#580=ORIENTED_EDGE('',*,*,#424,.T.);
#581=ORIENTED_EDGE('',*,*,#439,.F.);
#582=ORIENTED_EDGE('',*,*,#434,.T.);
#583=ORIENTED_EDGE('',*,*,#451,.T.);
#584=ORIENTED_EDGE('',*,*,#452,.T.);
#585=ORIENTED_EDGE('',*,*,#453,.T.);
#586=ORIENTED_EDGE('',*,*,#454,.F.);
#587=ORIENTED_EDGE('',*,*,#455,.F.);
#588=ORIENTED_EDGE('',*,*,#456,.F.);
#589=ORIENTED_EDGE('',*,*,#457,.F.);
#590=ORIENTED_EDGE('',*,*,#458,.F.);
#591=ORIENTED_EDGE('',*,*,#459,.T.);
#592=ORIENTED_EDGE('',*,*,#460,.T.);
#593=ORIENTED_EDGE('',*,*,#461,.F.);
#594=ORIENTED_EDGE('',*,*,#462,.T.);
#595=ORIENTED_EDGE('',*,*,#429,.T.);
#596=ORIENTED_EDGE('',*,*,#449,.T.);
#597=ORIENTED_EDGE('',*,*,#463,.F.);
#598=ORIENTED_EDGE('',*,*,#421,.T.);
#599=ORIENTED_EDGE('',*,*,#464,.F.);
#600=ORIENTED_EDGE('',*,*,#431,.T.);
#601=ORIENTED_EDGE('',*,*,#465,.F.);
#602=ORIENTED_EDGE('',*,*,#466,.F.);
#603=ORIENTED_EDGE('',*,*,#467,.T.);
#604=ORIENTED_EDGE('',*,*,#451,.F.);
#605=ORIENTED_EDGE('',*,*,#433,.T.);
#606=ORIENTED_EDGE('',*,*,#468,.F.);
#607=ORIENTED_EDGE('',*,*,#469,.F.);
#608=ORIENTED_EDGE('',*,*,#470,.F.);
#609=ORIENTED_EDGE('',*,*,#471,.T.);
#610=ORIENTED_EDGE('',*,*,#472,.F.);
#611=ORIENTED_EDGE('',*,*,#471,.F.);
#612=ORIENTED_EDGE('',*,*,#473,.T.);
#613=ORIENTED_EDGE('',*,*,#474,.T.);
#614=ORIENTED_EDGE('',*,*,#475,.T.);
#615=ORIENTED_EDGE('',*,*,#476,.T.);
#616=ORIENTED_EDGE('',*,*,#477,.T.);
#617=ORIENTED_EDGE('',*,*,#478,.T.);
#618=ORIENTED_EDGE('',*,*,#479,.T.);
#619=ORIENTED_EDGE('',*,*,#480,.T.);
#620=ORIENTED_EDGE('',*,*,#481,.T.);
#621=ORIENTED_EDGE('',*,*,#482,.T.);
#622=ORIENTED_EDGE('',*,*,#483,.T.);
#623=ORIENTED_EDGE('',*,*,#484,.T.);
#624=ORIENTED_EDGE('',*,*,#485,.T.);
#625=ORIENTED_EDGE('',*,*,#483,.F.);
#626=ORIENTED_EDGE('',*,*,#486,.T.);
#627=ORIENTED_EDGE('',*,*,#475,.F.);
#628=ORIENTED_EDGE('',*,*,#487,.T.);
#629=ORIENTED_EDGE('',*,*,#481,.F.);
#630=ORIENTED_EDGE('',*,*,#488,.F.);
#631=ORIENTED_EDGE('',*,*,#489,.F.);
#632=ORIENTED_EDGE('',*,*,#490,.F.);
#633=ORIENTED_EDGE('',*,*,#479,.F.);
#634=ORIENTED_EDGE('',*,*,#491,.F.);
#635=ORIENTED_EDGE('',*,*,#492,.F.);
#636=ORIENTED_EDGE('',*,*,#493,.T.);
#637=ORIENTED_EDGE('',*,*,#478,.F.);
#638=ORIENTED_EDGE('',*,*,#494,.F.);
#639=ORIENTED_EDGE('',*,*,#495,.F.);
#640=ORIENTED_EDGE('',*,*,#491,.T.);
#641=ORIENTED_EDGE('',*,*,#477,.F.);
#642=ORIENTED_EDGE('',*,*,#496,.T.);
#643=ORIENTED_EDGE('',*,*,#497,.F.);
#644=ORIENTED_EDGE('',*,*,#494,.T.);
#645=ORIENTED_EDGE('',*,*,#476,.F.);
#646=ORIENTED_EDGE('',*,*,#498,.F.);
#647=ORIENTED_EDGE('',*,*,#461,.T.);
#648=ORIENTED_EDGE('',*,*,#499,.T.);
#649=ORIENTED_EDGE('',*,*,#426,.F.);
#650=ORIENTED_EDGE('',*,*,#500,.T.);
#651=ORIENTED_EDGE('',*,*,#441,.T.);
#652=ORIENTED_EDGE('',*,*,#501,.F.);
#653=ORIENTED_EDGE('',*,*,#502,.F.);
#654=ORIENTED_EDGE('',*,*,#496,.F.);
#655=ORIENTED_EDGE('',*,*,#486,.F.);
#656=ORIENTED_EDGE('',*,*,#485,.F.);
#657=ORIENTED_EDGE('',*,*,#465,.T.);
#658=ORIENTED_EDGE('',*,*,#430,.T.);
#659=ORIENTED_EDGE('',*,*,#462,.F.);
#660=ORIENTED_EDGE('',*,*,#498,.T.);
#661=ORIENTED_EDGE('',*,*,#497,.T.);
#662=ORIENTED_EDGE('',*,*,#502,.T.);
#663=ORIENTED_EDGE('',*,*,#503,.T.);
#664=ORIENTED_EDGE('',*,*,#504,.T.);
#665=ORIENTED_EDGE('',*,*,#505,.T.);
#666=ORIENTED_EDGE('',*,*,#506,.T.);
#667=ORIENTED_EDGE('',*,*,#492,.T.);
#668=ORIENTED_EDGE('',*,*,#495,.T.);
#669=ORIENTED_EDGE('',*,*,#489,.T.);
#670=ORIENTED_EDGE('',*,*,#507,.T.);
#671=ORIENTED_EDGE('',*,*,#508,.T.);
#672=ORIENTED_EDGE('',*,*,#509,.T.);
#673=ORIENTED_EDGE('',*,*,#510,.T.);
#674=ORIENTED_EDGE('',*,*,#508,.F.);
#675=ORIENTED_EDGE('',*,*,#511,.T.);
#676=ORIENTED_EDGE('',*,*,#503,.F.);
#677=ORIENTED_EDGE('',*,*,#512,.T.);
#678=ORIENTED_EDGE('',*,*,#480,.F.);
#679=ORIENTED_EDGE('',*,*,#493,.F.);
#680=ORIENTED_EDGE('',*,*,#506,.F.);
#681=ORIENTED_EDGE('',*,*,#513,.T.);
#682=ORIENTED_EDGE('',*,*,#473,.F.);
#683=ORIENTED_EDGE('',*,*,#513,.F.);
#684=ORIENTED_EDGE('',*,*,#505,.F.);
#685=ORIENTED_EDGE('',*,*,#514,.F.);
#686=ORIENTED_EDGE('',*,*,#515,.F.);
#687=ORIENTED_EDGE('',*,*,#516,.F.);
#688=ORIENTED_EDGE('',*,*,#517,.T.);
#689=ORIENTED_EDGE('',*,*,#518,.F.);
#690=ORIENTED_EDGE('',*,*,#504,.F.);
#691=ORIENTED_EDGE('',*,*,#511,.F.);
#692=ORIENTED_EDGE('',*,*,#519,.F.);
#693=ORIENTED_EDGE('',*,*,#437,.T.);
#694=ORIENTED_EDGE('',*,*,#520,.T.);
#695=ORIENTED_EDGE('',*,*,#521,.T.);
#696=ORIENTED_EDGE('',*,*,#522,.T.);
#697=ORIENTED_EDGE('',*,*,#523,.T.);
#698=ORIENTED_EDGE('',*,*,#514,.T.);
#699=ORIENTED_EDGE('',*,*,#524,.T.);
#700=ORIENTED_EDGE('',*,*,#510,.F.);
#701=ORIENTED_EDGE('',*,*,#468,.T.);
#702=ORIENTED_EDGE('',*,*,#438,.T.);
#703=ORIENTED_EDGE('',*,*,#519,.T.);
#704=ORIENTED_EDGE('',*,*,#512,.F.);
#705=ORIENTED_EDGE('',*,*,#501,.T.);
#706=ORIENTED_EDGE('',*,*,#440,.T.);
#707=ORIENTED_EDGE('',*,*,#422,.T.);
#708=ORIENTED_EDGE('',*,*,#469,.T.);
#709=ORIENTED_EDGE('',*,*,#509,.F.);
#710=ORIENTED_EDGE('',*,*,#484,.F.);
#711=ORIENTED_EDGE('',*,*,#525,.T.);
#712=ORIENTED_EDGE('',*,*,#526,.T.);
#713=ORIENTED_EDGE('',*,*,#466,.T.);
#714=ORIENTED_EDGE('',*,*,#474,.F.);
#715=ORIENTED_EDGE('',*,*,#518,.T.);
#716=ORIENTED_EDGE('',*,*,#527,.T.);
#717=ORIENTED_EDGE('',*,*,#528,.T.);
#718=ORIENTED_EDGE('',*,*,#529,.T.);
#719=ORIENTED_EDGE('',*,*,#530,.T.);
#720=ORIENTED_EDGE('',*,*,#531,.T.);
#721=ORIENTED_EDGE('',*,*,#525,.F.);
#722=ORIENTED_EDGE('',*,*,#487,.F.);
#723=ORIENTED_EDGE('',*,*,#532,.T.);
#724=ORIENTED_EDGE('',*,*,#533,.F.);
#725=ORIENTED_EDGE('',*,*,#534,.T.);
#726=ORIENTED_EDGE('',*,*,#453,.F.);
#727=ORIENTED_EDGE('',*,*,#534,.F.);
#728=ORIENTED_EDGE('',*,*,#472,.T.);
#729=ORIENTED_EDGE('',*,*,#535,.T.);
#730=ORIENTED_EDGE('',*,*,#536,.F.);
#731=ORIENTED_EDGE('',*,*,#535,.F.);
#732=ORIENTED_EDGE('',*,*,#470,.T.);
#733=ORIENTED_EDGE('',*,*,#533,.T.);
#734=ORIENTED_EDGE('',*,*,#464,.T.);
#735=ORIENTED_EDGE('',*,*,#432,.T.);
#736=ORIENTED_EDGE('',*,*,#536,.T.);
#737=ORIENTED_EDGE('',*,*,#425,.F.);
#738=ORIENTED_EDGE('',*,*,#450,.F.);
#739=ORIENTED_EDGE('',*,*,#427,.F.);
#740=ORIENTED_EDGE('',*,*,#499,.F.);
#741=ORIENTED_EDGE('',*,*,#460,.F.);
#742=ORIENTED_EDGE('',*,*,#537,.T.);
#743=ORIENTED_EDGE('',*,*,#442,.F.);
#744=ORIENTED_EDGE('',*,*,#500,.F.);
#745=ORIENTED_EDGE('',*,*,#459,.F.);
#746=ORIENTED_EDGE('',*,*,#516,.T.);
#747=ORIENTED_EDGE('',*,*,#443,.F.);
#748=ORIENTED_EDGE('',*,*,#537,.F.);
#749=ORIENTED_EDGE('',*,*,#482,.F.);
#750=ORIENTED_EDGE('',*,*,#490,.T.);
#751=ORIENTED_EDGE('',*,*,#507,.F.);
#752=ORIENTED_EDGE('',*,*,#488,.T.);
#753=ORIENTED_EDGE('',*,*,#524,.F.);
#754=ORIENTED_EDGE('',*,*,#538,.T.);
#755=ORIENTED_EDGE('',*,*,#448,.F.);
#756=ORIENTED_EDGE('',*,*,#538,.F.);
#757=ORIENTED_EDGE('',*,*,#444,.F.);
#758=ORIENTED_EDGE('',*,*,#515,.T.);
#759=ORIENTED_EDGE('',*,*,#523,.F.);
#760=ORIENTED_EDGE('',*,*,#539,.F.);
#761=ORIENTED_EDGE('',*,*,#445,.F.);
#762=ORIENTED_EDGE('',*,*,#539,.T.);
#763=ORIENTED_EDGE('',*,*,#522,.F.);
#764=ORIENTED_EDGE('',*,*,#540,.F.);
#765=ORIENTED_EDGE('',*,*,#446,.F.);
#766=ORIENTED_EDGE('',*,*,#540,.T.);
#767=ORIENTED_EDGE('',*,*,#521,.F.);
#768=ORIENTED_EDGE('',*,*,#541,.F.);
#769=ORIENTED_EDGE('',*,*,#447,.F.);
#770=ORIENTED_EDGE('',*,*,#541,.T.);
#771=ORIENTED_EDGE('',*,*,#520,.F.);
#772=ORIENTED_EDGE('',*,*,#436,.F.);
#773=ORIENTED_EDGE('',*,*,#532,.F.);
#774=ORIENTED_EDGE('',*,*,#542,.T.);
#775=ORIENTED_EDGE('',*,*,#463,.T.);
#776=ORIENTED_EDGE('',*,*,#542,.F.);
#777=ORIENTED_EDGE('',*,*,#454,.T.);
#778=ORIENTED_EDGE('',*,*,#452,.F.);
#779=ORIENTED_EDGE('',*,*,#467,.F.);
#780=ORIENTED_EDGE('',*,*,#526,.F.);
#781=ORIENTED_EDGE('',*,*,#531,.F.);
#782=ORIENTED_EDGE('',*,*,#543,.F.);
#783=ORIENTED_EDGE('',*,*,#455,.T.);
#784=ORIENTED_EDGE('',*,*,#543,.T.);
#785=ORIENTED_EDGE('',*,*,#530,.F.);
#786=ORIENTED_EDGE('',*,*,#544,.F.);
#787=ORIENTED_EDGE('',*,*,#456,.T.);
#788=ORIENTED_EDGE('',*,*,#544,.T.);
#789=ORIENTED_EDGE('',*,*,#529,.F.);
#790=ORIENTED_EDGE('',*,*,#545,.F.);
#791=ORIENTED_EDGE('',*,*,#457,.T.);
#792=ORIENTED_EDGE('',*,*,#545,.T.);
#793=ORIENTED_EDGE('',*,*,#528,.F.);
#794=ORIENTED_EDGE('',*,*,#546,.F.);
#795=ORIENTED_EDGE('',*,*,#458,.T.);
#796=ORIENTED_EDGE('',*,*,#546,.T.);
#797=ORIENTED_EDGE('',*,*,#527,.F.);
#798=ORIENTED_EDGE('',*,*,#517,.F.);
#799=CYLINDRICAL_SURFACE('',#883,32.);
#800=CYLINDRICAL_SURFACE('',#904,32.);
#801=CYLINDRICAL_SURFACE('',#913,2.);
#802=CYLINDRICAL_SURFACE('',#918,4.79285950321528);
#803=CYLINDRICAL_SURFACE('',#928,2.);
#804=CYLINDRICAL_SURFACE('',#932,0.988201560943371);
#805=CYLINDRICAL_SURFACE('',#939,10.);
#806=CYLINDRICAL_SURFACE('',#941,10.);
#807=CYLINDRICAL_SURFACE('',#947,4.);
#808=CYLINDRICAL_SURFACE('',#949,4.65);
#809=CYLINDRICAL_SURFACE('',#955,1.43763515189947);
#810=CYLINDRICAL_SURFACE('',#956,5.5);
#811=CYLINDRICAL_SURFACE('',#958,3.);
#812=CYLINDRICAL_SURFACE('',#960,20.);
#813=CYLINDRICAL_SURFACE('',#961,5.5);
#814=CYLINDRICAL_SURFACE('',#963,20.);
#815=CYLINDRICAL_SURFACE('',#965,3.);
#816=ADVANCED_FACE('',(#73),#799,.T.);
#817=ADVANCED_FACE('',(#74),#53,.T.);
#818=ADVANCED_FACE('',(#75,#22),#54,.T.);
#819=ADVANCED_FACE('',(#76,#23),#55,.F.);
#820=ADVANCED_FACE('',(#77,#24),#56,.F.);
#821=ADVANCED_FACE('',(#78),#800,.T.);
#822=ADVANCED_FACE('',(#79),#19,.T.);
#823=ADVANCED_FACE('',(#80,#25),#801,.T.);
#824=ADVANCED_FACE('',(#81),#15,.F.);
#825=ADVANCED_FACE('',(#82),#16,.F.);
#826=ADVANCED_FACE('',(#83),#802,.F.);
#827=ADVANCED_FACE('',(#84),#57,.T.);
#828=ADVANCED_FACE('',(#85),#58,.T.);
#829=ADVANCED_FACE('',(#86),#59,.T.);
#830=ADVANCED_FACE('',(#87),#60,.T.);
#831=ADVANCED_FACE('',(#88),#20,.F.);
#832=ADVANCED_FACE('',(#89,#26),#803,.T.);
#833=ADVANCED_FACE('',(#90),#17,.F.);
#834=ADVANCED_FACE('',(#91),#18,.F.);
#835=ADVANCED_FACE('',(#92),#61,.T.);
#836=ADVANCED_FACE('',(#93),#804,.F.);
#837=ADVANCED_FACE('',(#94,#27),#62,.F.);
#838=ADVANCED_FACE('',(#95),#805,.F.);
#839=ADVANCED_FACE('',(#96),#21,.F.);
#840=ADVANCED_FACE('',(#97),#806,.F.);
#841=ADVANCED_FACE('',(#98,#28),#63,.T.);
#842=ADVANCED_FACE('',(#99),#807,.F.);
#843=ADVANCED_FACE('',(#100),#808,.T.);
#844=ADVANCED_FACE('',(#101,#29),#64,.T.);
#845=ADVANCED_FACE('',(#102,#30),#65,.T.);
#846=ADVANCED_FACE('',(#103),#66,.T.);
#847=ADVANCED_FACE('',(#104),#67,.T.);
#848=ADVANCED_FACE('',(#105),#809,.F.);
#849=ADVANCED_FACE('',(#106),#810,.F.);
#850=ADVANCED_FACE('',(#107),#68,.T.);
#851=ADVANCED_FACE('',(#108),#811,.T.);
#852=ADVANCED_FACE('',(#109),#69,.T.);
#853=ADVANCED_FACE('',(#110),#812,.T.);
#854=ADVANCED_FACE('',(#111),#813,.F.);
#855=ADVANCED_FACE('',(#112),#70,.T.);
#856=ADVANCED_FACE('',(#113),#814,.T.);
#857=ADVANCED_FACE('',(#114),#71,.T.);
#858=ADVANCED_FACE('',(#115),#815,.T.);
#859=ADVANCED_FACE('',(#116),#72,.T.);
#860=CLOSED_SHELL('',(#816,#817,#818,#819,#820,#821,#822,#823,#824,#825,
#826,#827,#828,#829,#830,#831,#832,#833,#834,#835,#836,#837,#838,#839,#840,
#841,#842,#843,#844,#845,#846,#847,#848,#849,#850,#851,#852,#853,#854,#855,
#856,#857,#858,#859));
#861=DERIVED_UNIT_ELEMENT(#864,1.);
#862=DERIVED_UNIT_ELEMENT(#1652,-3.);
#863=DIMENSIONAL_EXPONENTS(0.,1.,0.,0.,0.,0.,0.);
#864=(
CONVERSION_BASED_UNIT('gram',#866)
MASS_UNIT()
NAMED_UNIT(#863)
);
#865=(
MASS_UNIT()
NAMED_UNIT(*)
SI_UNIT(.KILO.,.GRAM.)
);
#866=MASS_MEASURE_WITH_UNIT(MASS_MEASURE(0.001),#865);
#867=DERIVED_UNIT((#861,#862));
#868=MEASURE_REPRESENTATION_ITEM('density measure',
POSITIVE_RATIO_MEASURE(1.),#867);
#869=PROPERTY_DEFINITION_REPRESENTATION(#874,#871);
#870=PROPERTY_DEFINITION_REPRESENTATION(#875,#872);
#871=REPRESENTATION('material name',(#873),#1649);
#872=REPRESENTATION('density',(#868),#1649);
#873=DESCRIPTIVE_REPRESENTATION_ITEM('Generisch','Generisch');
#874=PROPERTY_DEFINITION('material property','material name',#1659);
#875=PROPERTY_DEFINITION('material property','density of part',#1659);
#876=DATE_TIME_ROLE('creation_date');
#877=APPLIED_DATE_AND_TIME_ASSIGNMENT(#878,#876,(#1659));
#878=DATE_AND_TIME(#879,#880);
#879=CALENDAR_DATE(2026,7,1);
#880=LOCAL_TIME(0,0,0.,#881);
#881=COORDINATED_UNIVERSAL_TIME_OFFSET(0,0,.BEHIND.);
#882=AXIS2_PLACEMENT_3D('',#1203,#967,#968);
#883=AXIS2_PLACEMENT_3D('',#1204,#969,#970);
#884=AXIS2_PLACEMENT_3D('',#1209,#972,#973);
#885=AXIS2_PLACEMENT_3D('',#1213,#975,#976);
#886=AXIS2_PLACEMENT_3D('',#1217,#978,#979);
#887=AXIS2_PLACEMENT_3D('',#1221,#981,#982);
#888=AXIS2_PLACEMENT_3D('',#1225,#984,#985);
#889=AXIS2_PLACEMENT_3D('',#1228,#987,#988);
#890=AXIS2_PLACEMENT_3D('',#1229,#989,#990);
#891=AXIS2_PLACEMENT_3D('',#1232,#991,#992);
#892=AXIS2_PLACEMENT_3D('',#1241,#997,#998);
#893=AXIS2_PLACEMENT_3D('',#1242,#999,#1000);
#894=AXIS2_PLACEMENT_3D('',#1264,#1006,#1007);
#895=AXIS2_PLACEMENT_3D('',#1267,#1009,#1010);
#896=AXIS2_PLACEMENT_3D('',#1269,#1011,#1012);
#897=AXIS2_PLACEMENT_3D('',#1270,#1013,#1014);
#898=AXIS2_PLACEMENT_3D('',#1275,#1017,#1018);
#899=AXIS2_PLACEMENT_3D('',#1278,#1020,#1021);
#900=AXIS2_PLACEMENT_3D('',#1279,#1022,#1023);
#901=AXIS2_PLACEMENT_3D('',#1283,#1025,#1026);
#902=AXIS2_PLACEMENT_3D('',#1287,#1028,#1029);
#903=AXIS2_PLACEMENT_3D('',#1307,#1034,#1035);
#904=AXIS2_PLACEMENT_3D('',#1308,#1036,#1037);
#905=AXIS2_PLACEMENT_3D('',#1309,#1038,#1039);
#906=AXIS2_PLACEMENT_3D('',#1311,#1040,#1041);
#907=AXIS2_PLACEMENT_3D('',#1314,#1043,#1044);
#908=AXIS2_PLACEMENT_3D('',#1317,#1046,#1047);
#909=AXIS2_PLACEMENT_3D('',#1318,#1048,#1049);
#910=AXIS2_PLACEMENT_3D('',#1320,#1050,#1051);
#911=AXIS2_PLACEMENT_3D('',#1322,#1052,#1053);
#912=AXIS2_PLACEMENT_3D('',#1323,#1054,#1055);
#913=AXIS2_PLACEMENT_3D('',#1324,#1056,#1057);
#914=AXIS2_PLACEMENT_3D('',#1334,#1059,#1060);
#915=AXIS2_PLACEMENT_3D('',#1338,#1062,#1063);
#916=AXIS2_PLACEMENT_3D('',#1342,#1065,#1066);
#917=AXIS2_PLACEMENT_3D('',#1396,#1068,#1069);
#918=AXIS2_PLACEMENT_3D('',#1441,#1070,#1071);
#919=AXIS2_PLACEMENT_3D('',#1450,#1074,#1075);
#920=AXIS2_PLACEMENT_3D('',#1454,#1077,#1078);
#921=AXIS2_PLACEMENT_3D('',#1456,#1080,#1081);
#922=AXIS2_PLACEMENT_3D('',#1460,#1084,#1085);
#923=AXIS2_PLACEMENT_3D('',#1463,#1087,#1088);
#924=AXIS2_PLACEMENT_3D('',#1464,#1089,#1090);
#925=AXIS2_PLACEMENT_3D('',#1465,#1091,#1092);
#926=AXIS2_PLACEMENT_3D('',#1469,#1095,#1096);
#927=AXIS2_PLACEMENT_3D('',#1471,#1098,#1099);
#928=AXIS2_PLACEMENT_3D('',#1472,#1100,#1101);
#929=AXIS2_PLACEMENT_3D('',#1474,#1102,#1103);
#930=AXIS2_PLACEMENT_3D('',#1529,#1106,#1107);
#931=AXIS2_PLACEMENT_3D('',#1574,#1108,#1109);
#932=AXIS2_PLACEMENT_3D('',#1576,#1111,#1112);
#933=AXIS2_PLACEMENT_3D('',#1578,#1113,#1114);
#934=AXIS2_PLACEMENT_3D('',#1583,#1118,#1119);
#935=AXIS2_PLACEMENT_3D('',#1584,#1120,#1121);
#936=AXIS2_PLACEMENT_3D('',#1587,#1123,#1124);
#937=AXIS2_PLACEMENT_3D('',#1591,#1126,#1127);
#938=AXIS2_PLACEMENT_3D('',#1594,#1129,#1130);
#939=AXIS2_PLACEMENT_3D('',#1595,#1131,#1132);
#940=AXIS2_PLACEMENT_3D('',#1596,#1133,#1134);
#941=AXIS2_PLACEMENT_3D('',#1597,#1135,#1136);
#942=AXIS2_PLACEMENT_3D('',#1600,#1138,#1139);
#943=AXIS2_PLACEMENT_3D('',#1601,#1140,#1141);
#944=AXIS2_PLACEMENT_3D('',#1605,#1143,#1144);
#945=AXIS2_PLACEMENT_3D('',#1609,#1146,#1147);
#946=AXIS2_PLACEMENT_3D('',#1612,#1149,#1150);
#947=AXIS2_PLACEMENT_3D('',#1613,#1151,#1152);
#948=AXIS2_PLACEMENT_3D('',#1615,#1153,#1154);
#949=AXIS2_PLACEMENT_3D('',#1617,#1156,#1157);
#950=AXIS2_PLACEMENT_3D('',#1620,#1159,#1160);
#951=AXIS2_PLACEMENT_3D('',#1621,#1161,#1162);
#952=AXIS2_PLACEMENT_3D('',#1622,#1163,#1164);
#953=AXIS2_PLACEMENT_3D('',#1623,#1165,#1166);
#954=AXIS2_PLACEMENT_3D('',#1625,#1168,#1169);
#955=AXIS2_PLACEMENT_3D('',#1626,#1170,#1171);
#956=AXIS2_PLACEMENT_3D('',#1627,#1172,#1173);
#957=AXIS2_PLACEMENT_3D('',#1629,#1175,#1176);
#958=AXIS2_PLACEMENT_3D('',#1631,#1178,#1179);
#959=AXIS2_PLACEMENT_3D('',#1633,#1181,#1182);
#960=AXIS2_PLACEMENT_3D('',#1635,#1184,#1185);
#961=AXIS2_PLACEMENT_3D('',#1636,#1186,#1187);
#962=AXIS2_PLACEMENT_3D('',#1638,#1189,#1190);
#963=AXIS2_PLACEMENT_3D('',#1640,#1192,#1193);
#964=AXIS2_PLACEMENT_3D('',#1642,#1195,#1196);
#965=AXIS2_PLACEMENT_3D('',#1644,#1198,#1199);
#966=AXIS2_PLACEMENT_3D('',#1646,#1201,#1202);
#967=DIRECTION('axis',(0.,0.,1.));
#968=DIRECTION('refdir',(1.,0.,0.));
#969=DIRECTION('center_axis',(0.,-1.,0.));
#970=DIRECTION('ref_axis',(-1.,0.,0.));
#971=DIRECTION('',(0.,1.,0.));
#972=DIRECTION('center_axis',(0.,-1.,0.));
#973=DIRECTION('ref_axis',(-0.651697434343161,0.,-0.758479039967843));
#974=DIRECTION('',(0.,-1.,0.));
#975=DIRECTION('center_axis',(0.,-1.,0.));
#976=DIRECTION('ref_axis',(-1.,0.,0.));
#977=DIRECTION('',(0.,1.,0.));
#978=DIRECTION('center_axis',(2.516818205651E-16,1.,0.));
#979=DIRECTION('ref_axis',(-1.,0.,0.));
#980=DIRECTION('',(0.,-1.,0.));
#981=DIRECTION('center_axis',(0.,-1.,0.));
#982=DIRECTION('ref_axis',(-1.,0.,0.));
#983=DIRECTION('',(0.,-1.,0.));
#984=DIRECTION('center_axis',(0.,-1.,0.));
#985=DIRECTION('ref_axis',(-0.651697434343161,0.,0.758479039967844));
#986=DIRECTION('',(0.,-1.,0.));
#987=DIRECTION('center_axis',(0.,1.,0.));
#988=DIRECTION('ref_axis',(-1.,0.,0.));
#989=DIRECTION('center_axis',(0.859610941196668,-0.510949145977346,0.));
#990=DIRECTION('ref_axis',(-0.510949145977346,-0.859610941196668,0.));
#991=DIRECTION('center_axis',(-0.859610941196668,0.510949145977346,3.94430452610506E-31));
#992=DIRECTION('ref_axis',(-0.510949145977346,-0.859610941196668,0.));
#993=DIRECTION('',(0.,0.,-1.));
#994=DIRECTION('',(0.510949145977346,0.859610941196668,0.));
#995=DIRECTION('',(0.,0.,-1.));
#996=DIRECTION('',(-0.510949145977346,-0.859610941196668,0.));
#997=DIRECTION('center_axis',(0.859610941196668,-0.510949145977346,0.));
#998=DIRECTION('ref_axis',(0.510949145977346,0.859610941196668,-2.83633753138305E-17));
#999=DIRECTION('center_axis',(0.,0.,1.));
#1000=DIRECTION('ref_axis',(1.,0.,0.));
#1001=DIRECTION('',(-1.,0.,0.));
#1002=DIRECTION('',(-1.,0.,0.));
#1003=DIRECTION('',(-3.24405566818981E-15,-1.,0.));
#1004=DIRECTION('',(-1.,-1.09291993483804E-15,0.));
#1005=DIRECTION('',(-0.131188360210831,-0.991357460326593,0.));
#1006=DIRECTION('center_axis',(0.,0.,1.));
#1007=DIRECTION('ref_axis',(-0.991357460326593,0.131188360210831,0.));
#1008=DIRECTION('',(1.,0.,0.));
#1009=DIRECTION('center_axis',(0.,0.,1.));
#1010=DIRECTION('ref_axis',(0.,-1.,0.));
#1011=DIRECTION('center_axis',(0.,0.,-1.));
#1012=DIRECTION('ref_axis',(-1.,0.,0.));
#1013=DIRECTION('center_axis',(0.,1.,0.));
#1014=DIRECTION('ref_axis',(0.,0.,1.));
#1015=DIRECTION('',(1.,0.,0.));
#1016=DIRECTION('',(0.,0.,-1.));
#1017=DIRECTION('center_axis',(0.,-1.,0.));
#1018=DIRECTION('ref_axis',(-1.,0.,0.));
#1019=DIRECTION('',(0.,0.,-1.));
#1020=DIRECTION('center_axis',(0.,1.,0.));
#1021=DIRECTION('ref_axis',(1.,0.,0.));
#1022=DIRECTION('center_axis',(0.,0.,1.));
#1023=DIRECTION('ref_axis',(1.,0.,0.));
#1024=DIRECTION('',(0.510949145977343,0.85961094119667,0.));
#1025=DIRECTION('center_axis',(0.,0.,1.));
#1026=DIRECTION('ref_axis',(5.55111512312578E-17,-1.,0.));
#1027=DIRECTION('',(1.,-1.61572768309731E-15,0.));
#1028=DIRECTION('center_axis',(0.,0.,1.));
#1029=DIRECTION('ref_axis',(-0.991357460326593,0.131188360210831,0.));
#1030=DIRECTION('',(-0.131188360210831,-0.991357460326593,0.));
#1031=DIRECTION('',(1.,1.09291993483804E-15,0.));
#1032=DIRECTION('',(3.24405566818981E-15,1.,0.));
#1033=DIRECTION('',(1.,0.,0.));
#1034=DIRECTION('center_axis',(0.,0.,-1.));
#1035=DIRECTION('ref_axis',(-1.,0.,0.));
#1036=DIRECTION('center_axis',(0.,-1.,0.));
#1037=DIRECTION('ref_axis',(1.,0.,-1.22464679914735E-16));
#1038=DIRECTION('center_axis',(0.,1.,0.));
#1039=DIRECTION('ref_axis',(-1.,0.,0.));
#1040=DIRECTION('center_axis',(0.,-1.,0.));
#1041=DIRECTION('ref_axis',(-0.651697434343161,0.,0.758479039967844));
#1042=DIRECTION('',(0.,1.,0.));
#1043=DIRECTION('center_axis',(-0.859610941196667,0.510949145977347,0.));
#1044=DIRECTION('ref_axis',(-0.510949145977347,-0.859610941196667,0.));
#1045=DIRECTION('',(0.,-1.,0.));
#1046=DIRECTION('center_axis',(0.,-1.,0.));
#1047=DIRECTION('ref_axis',(-0.651697434343161,0.,-0.758479039967843));
#1048=DIRECTION('center_axis',(1.9155570643561E-32,1.,1.13069242829043E-16));
#1049=DIRECTION('ref_axis',(1.,0.,-1.40017490938402E-16));
#1050=DIRECTION('center_axis',(0.,1.,0.));
#1051=DIRECTION('ref_axis',(1.,0.,0.));
#1052=DIRECTION('center_axis',(1.75528110236662E-17,-1.13069242829043E-16,
1.));
#1053=DIRECTION('ref_axis',(-1.,0.,1.75528110236662E-17));
#1054=DIRECTION('center_axis',(0.,-1.,0.));
#1055=DIRECTION('ref_axis',(1.,0.,0.));
#1056=DIRECTION('center_axis',(-1.,0.,0.));
#1057=DIRECTION('ref_axis',(0.,0.707106781186546,0.707106781186549));
#1058=DIRECTION('',(1.,0.,0.));
#1059=DIRECTION('center_axis',(-1.,0.,0.));
#1060=DIRECTION('ref_axis',(0.,0.,1.));
#1061=DIRECTION('',(-1.,0.,0.));
#1062=DIRECTION('center_axis',(0.990427214631144,-0.138035982692897,0.));
#1063=DIRECTION('ref_axis',(0.138035982692897,0.990427214631144,-2.19919019579772E-15));
#1064=DIRECTION('',(-1.,0.,0.));
#1065=DIRECTION('center_axis',(1.,0.,0.));
#1066=DIRECTION('ref_axis',(0.,0.707106781186546,0.707106781186549));
#1067=DIRECTION('',(1.,0.,0.));
#1068=DIRECTION('center_axis',(0.977453400962772,0.211151246613207,-3.89930333971715E-13));
#1069=DIRECTION('ref_axis',(-0.207116604770804,0.958776388850826,0.194552173491803));
#1070=DIRECTION('center_axis',(0.,0.,-1.));
#1071=DIRECTION('ref_axis',(-0.991474749117276,-0.130298971073585,0.));
#1072=DIRECTION('',(0.,0.,1.));
#1073=DIRECTION('',(0.,0.,-1.));
#1074=DIRECTION('center_axis',(-1.,0.,0.));
#1075=DIRECTION('ref_axis',(0.,1.,0.));
#1076=DIRECTION('',(0.,0.,1.));
#1077=DIRECTION('center_axis',(1.,0.,0.));
#1078=DIRECTION('ref_axis',(0.,0.707106781186546,-0.707106781186549));
#1079=DIRECTION('',(0.,0.,1.));
#1080=DIRECTION('center_axis',(0.,1.,0.));
#1081=DIRECTION('ref_axis',(1.,0.,0.));
#1082=DIRECTION('',(0.,0.,1.));
#1083=DIRECTION('',(1.,0.,0.));
#1084=DIRECTION('center_axis',(-0.990427214631144,0.138035982692897,0.));
#1085=DIRECTION('ref_axis',(0.138035982692897,0.990427214631144,0.));
#1086=DIRECTION('',(0.,0.,-1.));
#1087=DIRECTION('center_axis',(0.990427214631144,-0.138035982692897,0.));
#1088=DIRECTION('ref_axis',(0.138035982692897,0.990427214631144,2.19919019579772E-15));
#1089=DIRECTION('center_axis',(0.,1.,0.));
#1090=DIRECTION('ref_axis',(1.,0.,0.));
#1091=DIRECTION('center_axis',(0.,1.,0.));
#1092=DIRECTION('ref_axis',(-0.651697434343161,0.,0.758479039967844));
#1093=DIRECTION('',(0.,0.,-1.));
#1094=DIRECTION('',(0.,0.,-1.));
#1095=DIRECTION('center_axis',(0.,1.,0.));
#1096=DIRECTION('ref_axis',(-0.651697434343161,0.,-0.758479039967843));
#1097=DIRECTION('',(1.,0.,0.));
#1098=DIRECTION('center_axis',(0.,-1.,0.));
#1099=DIRECTION('ref_axis',(0.,0.,-1.));
#1100=DIRECTION('center_axis',(1.,0.,0.));
#1101=DIRECTION('ref_axis',(0.,0.707106781186546,-0.707106781186549));
#1102=DIRECTION('center_axis',(-1.,0.,0.));
#1103=DIRECTION('ref_axis',(0.,1.,0.));
#1104=DIRECTION('',(-1.,0.,0.));
#1105=DIRECTION('',(-1.,0.,0.));
#1106=DIRECTION('center_axis',(0.977453400962657,0.211151246613736,1.25270694580016E-14));
#1107=DIRECTION('ref_axis',(1.66533453693774E-14,-1.77635683940025E-14,
-1.));
#1108=DIRECTION('center_axis',(0.,-1.,0.));
#1109=DIRECTION('ref_axis',(-1.,0.,0.));
#1110=DIRECTION('',(0.,0.,1.));
#1111=DIRECTION('center_axis',(0.,0.,-1.));
#1112=DIRECTION('ref_axis',(-0.980834949055401,-0.194840454504419,0.));
#1113=DIRECTION('center_axis',(0.,0.,1.));
#1114=DIRECTION('ref_axis',(-0.980834949055401,-0.194840454504419,0.));
#1115=DIRECTION('',(0.,0.,-1.));
#1116=DIRECTION('',(0.,0.,-1.));
#1117=DIRECTION('',(0.,0.,1.));
#1118=DIRECTION('center_axis',(0.,0.,-1.));
#1119=DIRECTION('ref_axis',(-0.980834949055405,-0.194840454504402,0.));
#1120=DIRECTION('center_axis',(0.,0.,1.));
#1121=DIRECTION('ref_axis',(1.,0.,0.));
#1122=DIRECTION('',(0.,1.,0.));
#1123=DIRECTION('center_axis',(0.,0.,-1.));
#1124=DIRECTION('ref_axis',(0.,-1.,0.));
#1125=DIRECTION('',(-1.,0.,0.));
#1126=DIRECTION('center_axis',(0.,0.,-1.));
#1127=DIRECTION('ref_axis',(-0.991357460326593,0.131188360210831,0.));
#1128=DIRECTION('',(0.131188360210831,0.991357460326593,0.));
#1129=DIRECTION('center_axis',(0.,0.,1.));
#1130=DIRECTION('ref_axis',(-1.,0.,0.));
#1131=DIRECTION('center_axis',(0.,-1.,0.));
#1132=DIRECTION('ref_axis',(0.298807152333599,0.,0.954313515420528));
#1133=DIRECTION('center_axis',(0.,-1.,0.));
#1134=DIRECTION('ref_axis',(0.,0.,-1.));
#1135=DIRECTION('center_axis',(0.,1.,0.));
#1136=DIRECTION('ref_axis',(0.298807152333598,0.,-0.954313515420528));
#1137=DIRECTION('',(0.,-1.,0.));
#1138=DIRECTION('center_axis',(0.85961094119667,-0.510949145977343,0.));
#1139=DIRECTION('ref_axis',(0.510949145977343,0.859610941196669,2.83633753138303E-17));
#1140=DIRECTION('center_axis',(0.,0.,1.));
#1141=DIRECTION('ref_axis',(1.,0.,0.));
#1142=DIRECTION('',(-0.131188360210831,-0.991357460326593,0.));
#1143=DIRECTION('center_axis',(0.,0.,1.));
#1144=DIRECTION('ref_axis',(-0.991357460326593,0.131188360210831,0.));
#1145=DIRECTION('',(1.,-1.61572768309731E-15,0.));
#1146=DIRECTION('center_axis',(0.,0.,1.));
#1147=DIRECTION('ref_axis',(5.55111512312578E-17,-1.,0.));
#1148=DIRECTION('',(0.510949145977343,0.85961094119667,0.));
#1149=DIRECTION('center_axis',(0.,0.,-1.));
#1150=DIRECTION('ref_axis',(-1.,0.,0.));
#1151=DIRECTION('center_axis',(0.,1.,0.));
#1152=DIRECTION('ref_axis',(-1.,0.,0.));
#1153=DIRECTION('center_axis',(0.,-1.,0.));
#1154=DIRECTION('ref_axis',(-1.,0.,0.));
#1155=DIRECTION('',(0.,-1.,0.));
#1156=DIRECTION('center_axis',(0.,1.,0.));
#1157=DIRECTION('ref_axis',(1.,0.,0.));
#1158=DIRECTION('',(0.,-1.,0.));
#1159=DIRECTION('center_axis',(0.,-1.,0.));
#1160=DIRECTION('ref_axis',(1.,0.,0.));
#1161=DIRECTION('center_axis',(0.,1.,0.));
#1162=DIRECTION('ref_axis',(0.,0.,1.));
#1163=DIRECTION('center_axis',(0.,1.,0.));
#1164=DIRECTION('ref_axis',(0.,0.,1.));
#1165=DIRECTION('center_axis',(1.,-3.24405566818981E-15,0.));
#1166=DIRECTION('ref_axis',(-3.24405566818981E-15,-1.,0.));
#1167=DIRECTION('',(0.,0.,-1.));
#1168=DIRECTION('center_axis',(1.09291993483804E-15,-1.,0.));
#1169=DIRECTION('ref_axis',(-1.,-1.09291993483804E-15,0.));
#1170=DIRECTION('center_axis',(0.,0.,-1.));
#1171=DIRECTION('ref_axis',(1.69896419891261E-14,1.,0.));
#1172=DIRECTION('center_axis',(0.,0.,-1.));
#1173=DIRECTION('ref_axis',(-1.,0.,0.));
#1174=DIRECTION('',(0.,0.,1.));
#1175=DIRECTION('center_axis',(-0.991357460326594,0.131188360210831,0.));
#1176=DIRECTION('ref_axis',(0.131188360210831,0.991357460326593,0.));
#1177=DIRECTION('',(0.,0.,-1.));
#1178=DIRECTION('center_axis',(0.,0.,-1.));
#1179=DIRECTION('ref_axis',(-0.991357460326593,0.131188360210831,0.));
#1180=DIRECTION('',(0.,0.,-1.));
#1181=DIRECTION('center_axis',(0.,-1.,0.));
#1182=DIRECTION('ref_axis',(-1.,0.,0.));
#1183=DIRECTION('',(0.,0.,-1.));
#1184=DIRECTION('center_axis',(0.,0.,-1.));
#1185=DIRECTION('ref_axis',(0.,-1.,0.));
#1186=DIRECTION('center_axis',(0.,0.,1.));
#1187=DIRECTION('ref_axis',(-1.,0.,0.));
#1188=DIRECTION('',(0.,0.,-1.));
#1189=DIRECTION('center_axis',(0.85961094119667,-0.510949145977343,0.));
#1190=DIRECTION('ref_axis',(0.510949145977343,0.85961094119667,0.));
#1191=DIRECTION('',(0.,0.,1.));
#1192=DIRECTION('center_axis',(0.,0.,1.));
#1193=DIRECTION('ref_axis',(5.55111512312578E-17,-1.,0.));
#1194=DIRECTION('',(0.,0.,1.));
#1195=DIRECTION('center_axis',(-1.61572768309731E-15,-1.,0.));
#1196=DIRECTION('ref_axis',(1.,-1.61572768309731E-15,0.));
#1197=DIRECTION('',(0.,0.,1.));
#1198=DIRECTION('center_axis',(0.,0.,1.));
#1199=DIRECTION('ref_axis',(-0.991357460326593,0.131188360210831,0.));
#1200=DIRECTION('',(0.,0.,1.));
#1201=DIRECTION('center_axis',(-0.991357460326594,0.131188360210831,0.));
#1202=DIRECTION('ref_axis',(-0.131188360210831,-0.991357460326593,0.));
#1203=CARTESIAN_POINT('',(0.,0.,0.));
#1204=CARTESIAN_POINT('Origin',(43.3294655892032,87.5,-5.05865879681049E-15));
#1205=CARTESIAN_POINT('',(20.156088235441,86.56,-22.0679537343212));
#1206=CARTESIAN_POINT('',(20.156088235441,87.5,-22.0679537343212));
#1207=CARTESIAN_POINT('',(20.156088235441,87.5,-22.0679537343212));
#1208=CARTESIAN_POINT('',(20.0915655119587,86.56,-22.));
#1209=CARTESIAN_POINT('Origin',(43.3294655892032,86.56,-5.05865879681049E-15));
#1210=CARTESIAN_POINT('',(20.0915655119587,84.5,-22.));
#1211=CARTESIAN_POINT('',(20.0915655119587,87.5,-22.));
#1212=CARTESIAN_POINT('',(20.,84.5,-21.9028773297525));
#1213=CARTESIAN_POINT('Origin',(43.3294655892032,84.5,-5.05865879681049E-15));
#1214=CARTESIAN_POINT('',(20.,84.56,-21.9028773297525));
#1215=CARTESIAN_POINT('',(20.,87.5,-21.9028773297525));
#1216=CARTESIAN_POINT('',(20.,84.56,21.9028773297524));
#1217=CARTESIAN_POINT('Origin',(43.3294655892032,84.56,-5.05865879681049E-15));
#1218=CARTESIAN_POINT('',(20.,84.5,21.9028773297524));
#1219=CARTESIAN_POINT('',(20.,87.5,21.9028773297525));
#1220=CARTESIAN_POINT('',(20.0915655119587,84.5,22.));
#1221=CARTESIAN_POINT('Origin',(43.3294655892032,84.5,-5.05865879681049E-15));
#1222=CARTESIAN_POINT('',(20.0915655119587,86.56,22.));
#1223=CARTESIAN_POINT('',(20.0915655119587,87.5,22.));
#1224=CARTESIAN_POINT('',(20.156088235441,86.56,22.0679537343212));
#1225=CARTESIAN_POINT('Origin',(43.3294655892032,86.56,-5.05865879681049E-15));
#1226=CARTESIAN_POINT('',(20.156088235441,87.5,22.0679537343212));
#1227=CARTESIAN_POINT('',(20.156088235441,87.5,22.0679537343212));
#1228=CARTESIAN_POINT('Origin',(43.3294655892032,87.5,-5.05865879681049E-15));
#1229=CARTESIAN_POINT('Origin',(57.4955969684701,72.2789829195469,-22.));
#1230=CARTESIAN_POINT('',(64.759718376161,84.5,-23.7643486232442));
#1231=CARTESIAN_POINT('',(25.0795005347217,17.7427704907431,-26.2857142857143));
#1232=CARTESIAN_POINT('Origin',(43.3294655892032,48.4461580211818,-5.05865879681049E-15));
#1233=CARTESIAN_POINT('',(64.759718376161,84.5,-22.));
#1234=CARTESIAN_POINT('',(64.759718376161,84.5,24.5));
#1235=CARTESIAN_POINT('',(16.2594703564467,2.90412264756591,-22.));
#1236=CARTESIAN_POINT('',(16.2594703564467,2.90412264756591,-22.));
#1237=CARTESIAN_POINT('',(16.2594703564467,2.90412264756592,-24.5));
#1238=CARTESIAN_POINT('',(16.2594703564467,2.90412264756591,-22.));
#1239=CARTESIAN_POINT('',(19.3763864551962,8.147961887481,-24.5));
#1240=CARTESIAN_POINT('',(16.2594703564467,2.90412264756591,-24.5));
#1241=CARTESIAN_POINT('Origin',(19.3763864551962,8.147961887481,-34.5));
#1242=CARTESIAN_POINT('Origin',(34.6676560765479,38.8415527835564,-22.));
#1243=CARTESIAN_POINT('',(38.9985608328755,84.5,-22.));
#1244=CARTESIAN_POINT('',(17.4065027955718,84.56,-22.));
#1245=CARTESIAN_POINT('Ctrl Pts',(17.4065027955718,84.56,-22.));
#1246=CARTESIAN_POINT('Ctrl Pts',(17.7620769384824,84.56,-22.));
#1247=CARTESIAN_POINT('Ctrl Pts',(18.1831880544256,84.6287670445974,-22.));
#1248=CARTESIAN_POINT('Ctrl Pts',(18.8184793689202,84.8489147123536,-22.));
#1249=CARTESIAN_POINT('Ctrl Pts',(19.1540320830085,85.0275420478438,-22.));
#1250=CARTESIAN_POINT('Ctrl Pts',(19.6024227618432,85.3979074409791,-22.));
#1251=CARTESIAN_POINT('Ctrl Pts',(19.8081320821546,85.6400813185979,-22.));
#1252=CARTESIAN_POINT('Ctrl Pts',(20.0259407936713,86.0768859859204,-22.));
#1253=CARTESIAN_POINT('Ctrl Pts',(20.0915655119587,86.3366936666879,-22.));
#1254=CARTESIAN_POINT('Ctrl Pts',(20.0915655119587,86.56,-22.));
#1255=CARTESIAN_POINT('',(20.,84.56,-22.));
#1256=CARTESIAN_POINT('',(19.7088280382739,84.56,-22.));
#1257=CARTESIAN_POINT('',(20.,81.8221357012787,-22.));
#1258=CARTESIAN_POINT('',(19.9999999999999,61.7007763917782,-22.));
#1259=CARTESIAN_POINT('',(5.32042083687404,81.8221357012787,-22.));
#1260=CARTESIAN_POINT('',(27.3338280382739,81.8221357012787,-22.));
#1261=CARTESIAN_POINT('',(-5.96822581708725,-3.48332935225469,-22.));
#1262=CARTESIAN_POINT('',(5.32042083687404,81.8221357012787,-22.));
#1263=CARTESIAN_POINT('',(-2.99415343610747,-6.87689443288718,-22.));
#1264=CARTESIAN_POINT('Origin',(-2.99415343610747,-3.87689443288718,-22.));
#1265=CARTESIAN_POINT('',(-0.932748467486628,-6.87689443288718,-22.));
#1266=CARTESIAN_POINT('',(-2.99415343610747,-6.87689443288718,-22.));
#1267=CARTESIAN_POINT('Origin',(-0.932748467486628,13.1231055671128,-22.));
#1268=CARTESIAN_POINT('',(5.76602730111144,1.39962320350329E-14,-22.));
#1269=CARTESIAN_POINT('Origin',(0.266027301111442,1.33226762955019E-14,
-22.));
#1270=CARTESIAN_POINT('Origin',(43.3294655892032,84.5,0.));
#1271=CARTESIAN_POINT('',(64.759718376161,84.5,22.));
#1272=CARTESIAN_POINT('',(38.9985608328755,84.5,22.));
#1273=CARTESIAN_POINT('',(20.,84.5,11.));
#1274=CARTESIAN_POINT('',(64.759718376161,84.5,23.7643486232442));
#1275=CARTESIAN_POINT('Origin',(43.3294655892032,84.5,-5.05865879681049E-15));
#1276=CARTESIAN_POINT('',(64.759718376161,84.5,24.5));
#1277=CARTESIAN_POINT('',(47.3294655892032,84.5,-5.54851751646943E-15));
#1278=CARTESIAN_POINT('Origin',(43.3294655892032,84.5,-5.05865879681049E-15));
#1279=CARTESIAN_POINT('Origin',(34.6676560765479,38.8415527835564,22.));
#1280=CARTESIAN_POINT('',(16.259470356447,2.90412264756596,22.));
#1281=CARTESIAN_POINT('',(16.259470356447,2.90412264756596,22.));
#1282=CARTESIAN_POINT('',(-0.932748467486356,-6.87689443288719,22.));
#1283=CARTESIAN_POINT('Origin',(-0.932748467486357,13.1231055671128,22.));
#1284=CARTESIAN_POINT('',(-2.99415343610747,-6.87689443288719,22.));
#1285=CARTESIAN_POINT('',(-2.99415343610747,-6.87689443288719,22.));
#1286=CARTESIAN_POINT('',(-5.96822581708725,-3.4833293522547,22.));
#1287=CARTESIAN_POINT('Origin',(-2.99415343610747,-3.87689443288719,22.));
#1288=CARTESIAN_POINT('',(5.32042083687404,81.8221357012787,22.));
#1289=CARTESIAN_POINT('',(5.32042083687404,81.8221357012787,22.));
#1290=CARTESIAN_POINT('',(20.,81.8221357012787,22.));
#1291=CARTESIAN_POINT('',(27.3338280382739,81.8221357012787,22.));
#1292=CARTESIAN_POINT('',(20.,84.56,22.));
#1293=CARTESIAN_POINT('',(19.9999999999999,61.7007763917782,22.));
#1294=CARTESIAN_POINT('',(17.4065027955718,84.56,22.));
#1295=CARTESIAN_POINT('',(19.7088280382739,84.56,22.));
#1296=CARTESIAN_POINT('Ctrl Pts',(20.0915655119587,86.56,22.));
#1297=CARTESIAN_POINT('Ctrl Pts',(20.0915655119587,86.3366936666879,22.));
#1298=CARTESIAN_POINT('Ctrl Pts',(20.0259407936713,86.0768859859205,22.));
#1299=CARTESIAN_POINT('Ctrl Pts',(19.8081320821546,85.6400813185979,22.));
#1300=CARTESIAN_POINT('Ctrl Pts',(19.6024227618432,85.3979074409791,22.));
#1301=CARTESIAN_POINT('Ctrl Pts',(19.1540320830085,85.0275420478438,22.));
#1302=CARTESIAN_POINT('Ctrl Pts',(18.8184793689202,84.8489147123536,22.));
#1303=CARTESIAN_POINT('Ctrl Pts',(18.1831880544256,84.6287670445974,22.));
#1304=CARTESIAN_POINT('Ctrl Pts',(17.7620769384824,84.56,22.));
#1305=CARTESIAN_POINT('Ctrl Pts',(17.4065027955718,84.56,22.));
#1306=CARTESIAN_POINT('',(5.76602730111144,6.73555739531044E-16,22.));
#1307=CARTESIAN_POINT('Origin',(0.266027301111438,0.,22.));
#1308=CARTESIAN_POINT('Origin',(43.3294655892032,87.5,-5.05865879681049E-15));
#1309=CARTESIAN_POINT('Origin',(43.3294655892032,87.5,-5.05865879681049E-15));
#1310=CARTESIAN_POINT('',(25.0795005347217,86.56,26.2857142857143));
#1311=CARTESIAN_POINT('Origin',(43.3294655892032,86.56,-5.05865879681049E-15));
#1312=CARTESIAN_POINT('',(25.0795005347217,17.7427704907431,26.2857142857143));
#1313=CARTESIAN_POINT('',(25.0795005347217,87.5,26.2857142857143));
#1314=CARTESIAN_POINT('Origin',(43.3294655892032,48.446158021182,-5.05865879681049E-15));
#1315=CARTESIAN_POINT('',(25.0795005347217,86.56,-26.2857142857143));
#1316=CARTESIAN_POINT('',(25.0795005347217,87.5,-26.2857142857143));
#1317=CARTESIAN_POINT('Origin',(43.3294655892032,86.56,-5.05865879681049E-15));
#1318=CARTESIAN_POINT('Origin',(43.3294655892032,89.2504241023431,-5.05865879681049E-15));
#1319=CARTESIAN_POINT('',(38.3294655892032,88.5,-5.05574462674476E-15));
#1320=CARTESIAN_POINT('Origin',(43.3294655892032,88.5,-5.05865879681049E-15));
#1321=CARTESIAN_POINT('',(38.6794655892032,88.3,-5.08450195916885E-15));
#1322=CARTESIAN_POINT('Origin',(38.9904222191136,89.2504241023431,-4.98249638851181E-15));
#1323=CARTESIAN_POINT('Origin',(43.3294655892032,88.3,-5.05865879681049E-15));
#1324=CARTESIAN_POINT('Origin',(19.7088280382739,82.56,22.5));
#1325=CARTESIAN_POINT('',(4.65608823544096,82.5695727853689,24.4999770903139));
#1326=CARTESIAN_POINT('',(4.68415537414512,82.56,24.5));
#1327=CARTESIAN_POINT('Ctrl Pts',(4.65608823544097,82.5695727853689,24.4999770903139));
#1328=CARTESIAN_POINT('Ctrl Pts',(4.66548491847915,82.5665244921169,24.4999916808095));
#1329=CARTESIAN_POINT('Ctrl Pts',(4.67484402254017,82.5633325815679,24.5));
#1330=CARTESIAN_POINT('Ctrl Pts',(4.68415537414512,82.56,24.5));
#1331=CARTESIAN_POINT('',(17.8392713961414,82.56,24.5));
#1332=CARTESIAN_POINT('',(19.7088280382739,82.56,24.5));
#1333=CARTESIAN_POINT('',(17.8392713961414,84.56,22.5));
#1334=CARTESIAN_POINT('Origin',(17.8392713961414,82.56,22.5));
#1335=CARTESIAN_POINT('',(4.74999999999998,84.56,22.5));
#1336=CARTESIAN_POINT('',(19.7088280382739,84.56,22.5));
#1337=CARTESIAN_POINT('',(4.61196401730699,83.5695727853688,24.2264885725201));
#1338=CARTESIAN_POINT('Origin',(4.47125971367959,82.56,22.5));
#1339=CARTESIAN_POINT('',(3.15608823544096,83.5695727853688,24.2264885725201));
#1340=CARTESIAN_POINT('',(19.7088280382739,83.5695727853688,24.2264885725201));
#1341=CARTESIAN_POINT('',(3.15608823544096,82.5695727853688,24.4999770903139));
#1342=CARTESIAN_POINT('Origin',(3.15608823544096,82.56,22.5));
#1343=CARTESIAN_POINT('',(19.7088280382739,82.5695727853689,24.4999770903139));
#1344=CARTESIAN_POINT('',(6.61196401730699,83.5695727853688,24.2264885725201));
#1345=CARTESIAN_POINT('',(6.90440568142059,83.5996310466269,24.2085570774456));
#1346=CARTESIAN_POINT('Ctrl Pts',(6.61196401730699,83.5695727853688,24.2264885725201));
#1347=CARTESIAN_POINT('Ctrl Pts',(6.70904877977503,83.5825713919302,24.2188875726404));
#1348=CARTESIAN_POINT('Ctrl Pts',(6.8066437714132,83.5926045173137,24.2128326138737));
#1349=CARTESIAN_POINT('Ctrl Pts',(6.90440568142059,83.5996310466269,24.2085570774456));
#1350=CARTESIAN_POINT('Ctrl Pts',(6.90440568142059,83.5996310466269,24.2085570774456));
#1351=CARTESIAN_POINT('Ctrl Pts',(6.8072786044852,83.5794516843495,24.2208359130793));
#1352=CARTESIAN_POINT('Ctrl Pts',(6.70821921372454,83.5695727853687,24.2264885725202));
#1353=CARTESIAN_POINT('Ctrl Pts',(6.61196401730711,83.5695727853687,24.2264885725202));
#1354=CARTESIAN_POINT('Ctrl Pts',(19.3763864551925,82.7248944445967,24.5));
#1355=CARTESIAN_POINT('Ctrl Pts',(20.2751986669159,82.9578900866883,24.4999999999997));
#1356=CARTESIAN_POINT('Ctrl Pts',(21.5511000961724,83.6130940956264,24.6811026243536));
#1357=CARTESIAN_POINT('Ctrl Pts',(23.4339378628919,84.9895438723402,25.3016018966247));
#1358=CARTESIAN_POINT('Ctrl Pts',(24.4503114434026,85.9323834722176,25.8497222340222));
#1359=CARTESIAN_POINT('Ctrl Pts',(25.0738574894625,86.5543699365464,26.2817988475053));
#1360=CARTESIAN_POINT('Ctrl Pts',(25.0766798438453,86.5571850523396,26.2837559021845));
#1361=CARTESIAN_POINT('Ctrl Pts',(25.0795005347217,86.56,26.2857142857143));
#1362=CARTESIAN_POINT('Ctrl Pts',(19.2657837874479,83.2368921499217,24.5));
#1363=CARTESIAN_POINT('Ctrl Pts',(20.1088334412878,83.3944078476498,24.4882948531198));
#1364=CARTESIAN_POINT('Ctrl Pts',(21.3870262146641,83.92950865816,24.6403380544496));
#1365=CARTESIAN_POINT('Ctrl Pts',(23.3408498636045,85.1392977364408,25.2551218221118));
#1366=CARTESIAN_POINT('Ctrl Pts',(24.4167580208314,85.992097910932,25.8262305489538));
#1367=CARTESIAN_POINT('Ctrl Pts',(25.0735563875927,86.5549063181677,26.2815909584679));
#1368=CARTESIAN_POINT('Ctrl Pts',(25.0765294069992,86.5574531425935,26.2836514550634));
#1369=CARTESIAN_POINT('Ctrl Pts',(25.0795005347217,86.56,26.2857142857143));
#1370=CARTESIAN_POINT('Ctrl Pts',(19.0734874519897,84.1270631060537,24.1204649541346));
#1371=CARTESIAN_POINT('Ctrl Pts',(19.8541649751562,84.1584727602659,24.1868169203351));
#1372=CARTESIAN_POINT('Ctrl Pts',(21.1431350112823,84.4846013600758,24.4188713788909));
#1373=CARTESIAN_POINT('Ctrl Pts',(23.1956374893757,85.4031427773133,25.1517302452307));
#1374=CARTESIAN_POINT('Ctrl Pts',(24.3580541781777,86.0968830199992,25.7858225754958));
#1375=CARTESIAN_POINT('Ctrl Pts',(25.0730299780059,86.5558440952653,26.2812241392187));
#1376=CARTESIAN_POINT('Ctrl Pts',(25.0762661425186,86.5579223005379,26.2834686726015));
#1377=CARTESIAN_POINT('Ctrl Pts',(25.0795005347217,86.56,26.2857142857143));
#1378=CARTESIAN_POINT('Ctrl Pts',(18.978291737703,84.567739522503,23.2744535670085));
#1379=CARTESIAN_POINT('Ctrl Pts',(19.7656643092147,84.634042080514,23.4972369211617));
#1380=CARTESIAN_POINT('Ctrl Pts',(21.02484337516,84.9286838172207,23.9704736592132));
#1381=CARTESIAN_POINT('Ctrl Pts',(23.0858780511218,85.6635094121356,24.998204787867));
#1382=CARTESIAN_POINT('Ctrl Pts',(24.2995702153215,86.2013345126363,25.7447457370827));
#1383=CARTESIAN_POINT('Ctrl Pts',(25.0725038740022,86.556782909846,26.2808579836176));
#1384=CARTESIAN_POINT('Ctrl Pts',(25.0760028780379,86.5583914584823,26.2832858901395));
#1385=CARTESIAN_POINT('Ctrl Pts',(25.0795005347217,86.56,26.2857142857143));
#1386=CARTESIAN_POINT('Ctrl Pts',(18.9621532456501,84.6424472222983,22.8891043469836));
#1387=CARTESIAN_POINT('Ctrl Pts',(19.7629748006988,84.7589450433441,23.1675287940895));
#1388=CARTESIAN_POINT('Ctrl Pts',(21.000984159503,85.0865470478136,23.7488180999067));
#1389=CARTESIAN_POINT('Ctrl Pts',(23.0454986738312,85.7747719361703,24.923243167699));
#1390=CARTESIAN_POINT('Ctrl Pts',(24.2744880340231,86.2461917361098,25.7271186543633));
#1391=CARTESIAN_POINT('Ctrl Pts',(25.0722786386614,86.5571849682732,26.2807008687249));
#1392=CARTESIAN_POINT('Ctrl Pts',(25.0758900504034,86.5585925261727,26.2832075547987));
#1393=CARTESIAN_POINT('Ctrl Pts',(25.0795005347217,86.56,26.2857142857143));
#1394=CARTESIAN_POINT('',(18.9621532456501,84.6424472222983,22.8891043469836));
#1395=CARTESIAN_POINT('',(19.3763864551927,82.7248944445958,24.5));
#1396=CARTESIAN_POINT('Origin',(19.3763864551917,82.7248944445967,22.5));
#1397=CARTESIAN_POINT('Ctrl Pts',(19.3763864551925,82.7248944445967,24.5));
#1398=CARTESIAN_POINT('Ctrl Pts',(20.2751986669159,82.9578900866883,24.4999999999997));
#1399=CARTESIAN_POINT('Ctrl Pts',(21.5511000961724,83.6130940956264,24.6811026243536));
#1400=CARTESIAN_POINT('Ctrl Pts',(23.4339378628919,84.9895438723402,25.3016018966247));
#1401=CARTESIAN_POINT('Ctrl Pts',(24.4503114434026,85.9323834722176,25.8497222340222));
#1402=CARTESIAN_POINT('Ctrl Pts',(25.0738574894625,86.5543699365464,26.2817988475053));
#1403=CARTESIAN_POINT('Ctrl Pts',(25.0766798438453,86.5571850523396,26.2837559021845));
#1404=CARTESIAN_POINT('Ctrl Pts',(25.0795005347217,86.56,26.2857142857143));
#1405=CARTESIAN_POINT('Ctrl Pts',(25.0795005347217,86.56,26.2857142857143));
#1406=CARTESIAN_POINT('Ctrl Pts',(25.0758900504034,86.5585925261727,26.2832075547987));
#1407=CARTESIAN_POINT('Ctrl Pts',(25.0722786386614,86.5571849682732,26.2807008687249));
#1408=CARTESIAN_POINT('Ctrl Pts',(24.2744880340231,86.2461917361098,25.7271186543633));
#1409=CARTESIAN_POINT('Ctrl Pts',(23.0454986738312,85.7747719361703,24.923243167699));
#1410=CARTESIAN_POINT('Ctrl Pts',(21.000984159503,85.0865470478136,23.7488180999067));
#1411=CARTESIAN_POINT('Ctrl Pts',(19.7629748006988,84.7589450433441,23.1675287940895));
#1412=CARTESIAN_POINT('Ctrl Pts',(18.9621532456501,84.6424472222983,22.8891043469836));
#1413=CARTESIAN_POINT('Ctrl Pts',(18.9621532456507,84.6424472222984,22.8891043469838));
#1414=CARTESIAN_POINT('Ctrl Pts',(18.5874637641694,84.5879400628867,22.7588347369062));
#1415=CARTESIAN_POINT('Ctrl Pts',(18.2104854234944,84.56,22.6280807020601));
#1416=CARTESIAN_POINT('Ctrl Pts',(17.8392713961414,84.56,22.5));
#1417=CARTESIAN_POINT('Ctrl Pts',(18.9836712350544,84.5428369559046,23.402903307017));
#1418=CARTESIAN_POINT('Ctrl Pts',(18.5958602905247,84.5161744945216,23.3044458024996));
#1419=CARTESIAN_POINT('Ctrl Pts',(18.2100135615529,84.5204864972339,23.2019559074646));
#1420=CARTESIAN_POINT('Ctrl Pts',(17.8392713961414,84.56,23.0983986006838));
#1421=CARTESIAN_POINT('Ctrl Pts',(19.0996368786016,84.0060131649105,24.2226306833464));
#1422=CARTESIAN_POINT('Ctrl Pts',(18.672038712369,83.9783563357966,24.194912092617));
#1423=CARTESIAN_POINT('Ctrl Pts',(18.2470385113678,83.9969637281958,24.1656155495035));
#1424=CARTESIAN_POINT('Ctrl Pts',(17.8392713961414,84.0579151213958,24.1344274813427));
#1425=CARTESIAN_POINT('Ctrl Pts',(19.2934344543841,83.1088927235905,24.5));
#1426=CARTESIAN_POINT('Ctrl Pts',(18.8118856398677,83.0241399215177,24.5001911568237));
#1427=CARTESIAN_POINT('Ctrl Pts',(18.3231078613568,82.9906973524769,24.4996755434574));
#1428=CARTESIAN_POINT('Ctrl Pts',(17.8392713961414,83.0087989505128,24.5));
#1429=CARTESIAN_POINT('Ctrl Pts',(19.3763864551925,82.7248944445969,24.5));
#1430=CARTESIAN_POINT('Ctrl Pts',(18.8717414748922,82.6158801257735,24.5));
#1431=CARTESIAN_POINT('Ctrl Pts',(18.3555877331787,82.56,24.5));
#1432=CARTESIAN_POINT('Ctrl Pts',(17.8392713961414,82.56,24.5));
#1433=CARTESIAN_POINT('Ctrl Pts',(18.9621532456507,84.6424472222984,22.8891043469838));
#1434=CARTESIAN_POINT('Ctrl Pts',(18.5874637641694,84.5879400628867,22.7588347369062));
#1435=CARTESIAN_POINT('Ctrl Pts',(18.2104854234944,84.56,22.6280807020601));
#1436=CARTESIAN_POINT('Ctrl Pts',(17.8392713961414,84.56,22.5));
#1437=CARTESIAN_POINT('Ctrl Pts',(17.8392713961414,82.56,24.5));
#1438=CARTESIAN_POINT('Ctrl Pts',(18.3555877331787,82.56,24.5));
#1439=CARTESIAN_POINT('Ctrl Pts',(18.8717414748922,82.6158801257735,24.5));
#1440=CARTESIAN_POINT('Ctrl Pts',(19.3763864551925,82.7248944445969,24.5));
#1441=CARTESIAN_POINT('Origin',(7.24800082649528,78.8191033985694,-22.));
#1442=CARTESIAN_POINT('',(6.61196401730699,83.5695727853688,-24.2264885725201));
#1443=CARTESIAN_POINT('',(6.61196401730699,83.5695727853688,22.));
#1444=CARTESIAN_POINT('',(6.90440568142059,83.5996310466269,-24.2085570774456));
#1445=CARTESIAN_POINT('Ctrl Pts',(6.90440568142059,83.5996310466269,-24.2085570774456));
#1446=CARTESIAN_POINT('Ctrl Pts',(6.80667212296613,83.5926065550502,-24.2128313739419));
#1447=CARTESIAN_POINT('Ctrl Pts',(6.70903786683534,83.5825699308049,-24.2188884270407));
#1448=CARTESIAN_POINT('Ctrl Pts',(6.61196401730699,83.5695727853688,-24.2264885725201));
#1449=CARTESIAN_POINT('',(6.90440568142059,83.5996310466269,-22.));
#1450=CARTESIAN_POINT('Origin',(3.15608823544096,82.5695727853689,-22.));
#1451=CARTESIAN_POINT('',(3.15608823544096,83.5695727853688,-24.2264885725201));
#1452=CARTESIAN_POINT('',(3.15608823544096,83.5695727853688,22.));
#1453=CARTESIAN_POINT('',(3.15608823544096,82.5695727853688,-24.4999770903139));
#1454=CARTESIAN_POINT('Origin',(3.15608823544096,82.56,-22.5));
#1455=CARTESIAN_POINT('',(3.15608823544096,82.5695727853688,22.));
#1456=CARTESIAN_POINT('Origin',(3.15608823544096,83.5695727853688,-22.));
#1457=CARTESIAN_POINT('',(4.61196401730699,83.5695727853688,-24.2264885725201));
#1458=CARTESIAN_POINT('',(4.61196401730699,83.5695727853688,22.));
#1459=CARTESIAN_POINT('',(19.7088280382739,83.5695727853688,-24.2264885725201));
#1460=CARTESIAN_POINT('Origin',(4.61196401730708,83.5695727853688,-22.));
#1461=CARTESIAN_POINT('',(4.74999999999998,84.56,-22.5));
#1462=CARTESIAN_POINT('',(4.74999999999998,84.56,-22.));
#1463=CARTESIAN_POINT('Origin',(4.47125971367959,82.56,-22.5));
#1464=CARTESIAN_POINT('Origin',(4.74999999999998,84.56,-22.));
#1465=CARTESIAN_POINT('Origin',(43.3294655892032,84.56,-5.05865879681049E-15));
#1466=CARTESIAN_POINT('',(20.,84.56,22.));
#1467=CARTESIAN_POINT('',(20.,84.56,22.));
#1468=CARTESIAN_POINT('',(17.8392713961414,84.56,-22.5));
#1469=CARTESIAN_POINT('Origin',(43.3294655892032,84.56,-5.05865879681049E-15));
#1470=CARTESIAN_POINT('',(19.7088280382739,84.56,-22.5));
#1471=CARTESIAN_POINT('Origin',(43.3294655892032,86.56,-5.05865879681049E-15));
#1472=CARTESIAN_POINT('Origin',(19.7088280382739,82.56,-22.5));
#1473=CARTESIAN_POINT('',(17.8392713961414,82.56,-24.5));
#1474=CARTESIAN_POINT('Origin',(17.8392713961414,82.56,-22.5));
#1475=CARTESIAN_POINT('',(4.68415537414513,82.56,-24.5));
#1476=CARTESIAN_POINT('',(19.7088280382739,82.56,-24.5));
#1477=CARTESIAN_POINT('',(4.65608823544096,82.5695727853689,-24.4999770903139));
#1478=CARTESIAN_POINT('Ctrl Pts',(4.68415537414513,82.56,-24.5));
#1479=CARTESIAN_POINT('Ctrl Pts',(4.67484453204144,82.5633323992148,-24.5));
#1480=CARTESIAN_POINT('Ctrl Pts',(4.66548459762345,82.5665245962028,-24.4999916803113));
#1481=CARTESIAN_POINT('Ctrl Pts',(4.65608823544097,82.5695727853689,-24.4999770903139));
#1482=CARTESIAN_POINT('',(19.7088280382739,82.5695727853689,-24.4999770903139));
#1483=CARTESIAN_POINT('Ctrl Pts',(6.61196401730711,83.5695727853687,-24.2264885725202));
#1484=CARTESIAN_POINT('Ctrl Pts',(6.70821921372454,83.5695727853687,-24.2264885725202));
#1485=CARTESIAN_POINT('Ctrl Pts',(6.8072786044852,83.5794516843495,-24.2208359130793));
#1486=CARTESIAN_POINT('Ctrl Pts',(6.90440568142059,83.5996310466269,-24.2085570774456));
#1487=CARTESIAN_POINT('Ctrl Pts',(25.0795005347216,86.56,-26.2857142857142));
#1488=CARTESIAN_POINT('Ctrl Pts',(25.0766798438637,86.5571850523393,-26.2837559021973));
#1489=CARTESIAN_POINT('Ctrl Pts',(25.0738608780433,86.5543701189347,-26.2817988107672));
#1490=CARTESIAN_POINT('Ctrl Pts',(24.1383472717011,85.6227135885278,-25.6346788136655));
#1491=CARTESIAN_POINT('Ctrl Pts',(22.7407771988257,84.3604306642917,-24.9683737390715));
#1492=CARTESIAN_POINT('Ctrl Pts',(20.7022834122383,83.1796505601481,-24.5603962920116));
#1493=CARTESIAN_POINT('Ctrl Pts',(19.8257925610579,82.8413922656438,-24.5));
#1494=CARTESIAN_POINT('Ctrl Pts',(19.3763864551961,82.7248944445977,-24.5));
#1495=CARTESIAN_POINT('Ctrl Pts',(25.0795005347216,86.56,-26.2857142857142));
#1496=CARTESIAN_POINT('Ctrl Pts',(25.0765487811493,86.5574558301219,-26.283637232384));
#1497=CARTESIAN_POINT('Ctrl Pts',(25.0735406072787,86.554903800225,-26.2816043087857));
#1498=CARTESIAN_POINT('Ctrl Pts',(24.0898079885459,85.7120127513833,-25.5987306407986));
#1499=CARTESIAN_POINT('Ctrl Pts',(22.6020269249554,84.5697546367636,-24.914288995908));
#1500=CARTESIAN_POINT('Ctrl Pts',(20.5372981076613,83.5748819364901,-24.5392206792935));
#1501=CARTESIAN_POINT('Ctrl Pts',(19.687780022884,83.316107086534,-24.4947840705959));
#1502=CARTESIAN_POINT('Ctrl Pts',(19.2657837874513,83.2368921499223,-24.5));
#1503=CARTESIAN_POINT('Ctrl Pts',(25.0795005347216,86.56,-26.2857142857142));
#1504=CARTESIAN_POINT('Ctrl Pts',(25.0763118586335,86.5579248092554,-26.2834527543388));
#1505=CARTESIAN_POINT('Ctrl Pts',(25.0729879533466,86.5558421805137,-26.2812413105895));
#1506=CARTESIAN_POINT('Ctrl Pts',(24.0043604727891,85.8683328755553,-25.5369551417907));
#1507=CARTESIAN_POINT('Ctrl Pts',(22.3966451879029,84.9363760530896,-24.7659823308976));
#1508=CARTESIAN_POINT('Ctrl Pts',(20.2869036500038,84.2650809404464,-24.2612757633958));
#1509=CARTESIAN_POINT('Ctrl Pts',(19.4644101230595,84.1425789423265,-24.1533689222541));
#1510=CARTESIAN_POINT('Ctrl Pts',(19.0734874519929,84.1270631060538,-24.1204649541348));
#1511=CARTESIAN_POINT('Ctrl Pts',(25.0795005347216,86.56,-26.2857142857142));
#1512=CARTESIAN_POINT('Ctrl Pts',(25.0760293744157,86.5583867066874,-26.2832756723136));
#1513=CARTESIAN_POINT('Ctrl Pts',(25.0724814329534,86.5567876107494,-26.2808693086793));
#1514=CARTESIAN_POINT('Ctrl Pts',(23.915247546194,86.0240587639598,-25.4762570332049));
#1515=CARTESIAN_POINT('Ctrl Pts',(22.267239550064,85.3044215159771,-24.5221258583029));
#1516=CARTESIAN_POINT('Ctrl Pts',(20.1871881912593,84.7325758828181,-23.6542688258859));
#1517=CARTESIAN_POINT('Ctrl Pts',(19.3723045881065,84.6010088896691,-23.3856983542425));
#1518=CARTESIAN_POINT('Ctrl Pts',(18.9782917377062,84.5677395225033,-23.2744535670094));
#1519=CARTESIAN_POINT('Ctrl Pts',(25.0795005347216,86.56,-26.2857142857142));
#1520=CARTESIAN_POINT('Ctrl Pts',(25.0758900504198,86.5585925261666,-26.2832075548101));
#1521=CARTESIAN_POINT('Ctrl Pts',(25.0722824974298,86.5571850594674,-26.2807016682959));
#1522=CARTESIAN_POINT('Ctrl Pts',(23.8755732724075,86.0913567942629,-25.4512015568753));
#1523=CARTESIAN_POINT('Ctrl Pts',(22.2275381707726,85.4602153321459,-24.3975637805074));
#1524=CARTESIAN_POINT('Ctrl Pts',(20.176950816866,84.8698252800739,-23.3615215511356));
#1525=CARTESIAN_POINT('Ctrl Pts',(19.3625640231779,84.7006961328219,-23.0283165705379));
#1526=CARTESIAN_POINT('Ctrl Pts',(18.9621532456534,84.6424472222988,-22.8891043469847));
#1527=CARTESIAN_POINT('',(19.3763864551961,82.7248944445976,-24.5));
#1528=CARTESIAN_POINT('',(18.9621532456534,84.6424472222988,-22.8891043469847));
#1529=CARTESIAN_POINT('Origin',(19.3763864551961,82.7248944445977,-22.5));
#1530=CARTESIAN_POINT('Ctrl Pts',(18.9621532456534,84.6424472222988,-22.8891043469847));
#1531=CARTESIAN_POINT('Ctrl Pts',(19.3625640231779,84.7006961328219,-23.0283165705379));
#1532=CARTESIAN_POINT('Ctrl Pts',(20.176950816866,84.8698252800739,-23.3615215511356));
#1533=CARTESIAN_POINT('Ctrl Pts',(22.2275381707726,85.4602153321459,-24.3975637805074));
#1534=CARTESIAN_POINT('Ctrl Pts',(23.8755732724075,86.0913567942629,-25.4512015568753));
#1535=CARTESIAN_POINT('Ctrl Pts',(25.0722824974298,86.5571850594674,-26.2807016682959));
#1536=CARTESIAN_POINT('Ctrl Pts',(25.0758900504198,86.5585925261666,-26.2832075548101));
#1537=CARTESIAN_POINT('Ctrl Pts',(25.0795005347216,86.56,-26.2857142857142));
#1538=CARTESIAN_POINT('Ctrl Pts',(25.0795005347216,86.56,-26.2857142857142));
#1539=CARTESIAN_POINT('Ctrl Pts',(25.0766798438637,86.5571850523393,-26.2837559021973));
#1540=CARTESIAN_POINT('Ctrl Pts',(25.0738608780433,86.5543701189347,-26.2817988107672));
#1541=CARTESIAN_POINT('Ctrl Pts',(24.1383472717011,85.6227135885278,-25.6346788136655));
#1542=CARTESIAN_POINT('Ctrl Pts',(22.7407771988257,84.3604306642917,-24.9683737390715));
#1543=CARTESIAN_POINT('Ctrl Pts',(20.7022834122383,83.1796505601481,-24.5603962920116));
#1544=CARTESIAN_POINT('Ctrl Pts',(19.8257925610579,82.8413922656438,-24.5));
#1545=CARTESIAN_POINT('Ctrl Pts',(19.3763864551961,82.7248944445977,-24.5));
#1546=CARTESIAN_POINT('Ctrl Pts',(17.8392713961414,84.56,-22.5));
#1547=CARTESIAN_POINT('Ctrl Pts',(18.2104854234953,84.56,-22.6280807020604));
#1548=CARTESIAN_POINT('Ctrl Pts',(18.5874637641712,84.5879400628869,-22.7588347369068));
#1549=CARTESIAN_POINT('Ctrl Pts',(18.9621532456534,84.6424472222988,-22.8891043469848));
#1550=CARTESIAN_POINT('Ctrl Pts',(17.8392713961414,84.56,-23.0983986006838));
#1551=CARTESIAN_POINT('Ctrl Pts',(18.2100135615538,84.5204864972338,-23.2019559074649));
#1552=CARTESIAN_POINT('Ctrl Pts',(18.5958602905265,84.5161744945215,-23.3044458025001));
#1553=CARTESIAN_POINT('Ctrl Pts',(18.9836712350572,84.5428369559048,-23.4029033070177));
#1554=CARTESIAN_POINT('Ctrl Pts',(17.8392713961414,84.0579151213958,-24.1344274813427));
#1555=CARTESIAN_POINT('Ctrl Pts',(18.2470385113688,83.9969637281957,-24.1656155495036));
#1556=CARTESIAN_POINT('Ctrl Pts',(18.672038712371,83.9783563357966,-24.1949120926171));
#1557=CARTESIAN_POINT('Ctrl Pts',(19.0996368786046,84.0060131649108,-24.2226306833466));
#1558=CARTESIAN_POINT('Ctrl Pts',(17.8392713961414,83.0087989505128,-24.5));
#1559=CARTESIAN_POINT('Ctrl Pts',(18.323107861358,82.9906973524768,-24.4996755434574));
#1560=CARTESIAN_POINT('Ctrl Pts',(18.81188563987,83.0241399215179,-24.5001911568237));
#1561=CARTESIAN_POINT('Ctrl Pts',(19.2934344543875,83.1088927235911,-24.5));
#1562=CARTESIAN_POINT('Ctrl Pts',(17.8392713961414,82.56,-24.5));
#1563=CARTESIAN_POINT('Ctrl Pts',(18.3555877331799,82.56,-24.5));
#1564=CARTESIAN_POINT('Ctrl Pts',(18.8717414748947,82.6158801257738,-24.5));
#1565=CARTESIAN_POINT('Ctrl Pts',(19.3763864551961,82.7248944445977,-24.5));
#1566=CARTESIAN_POINT('Ctrl Pts',(19.3763864551961,82.7248944445977,-24.5));
#1567=CARTESIAN_POINT('Ctrl Pts',(18.8717414748947,82.6158801257738,-24.5));
#1568=CARTESIAN_POINT('Ctrl Pts',(18.3555877331799,82.56,-24.5));
#1569=CARTESIAN_POINT('Ctrl Pts',(17.8392713961414,82.56,-24.5));
#1570=CARTESIAN_POINT('Ctrl Pts',(17.8392713961414,84.56,-22.5));
#1571=CARTESIAN_POINT('Ctrl Pts',(18.2104854234953,84.56,-22.6280807020604));
#1572=CARTESIAN_POINT('Ctrl Pts',(18.5874637641712,84.5879400628869,-22.7588347369068));
#1573=CARTESIAN_POINT('Ctrl Pts',(18.9621532456534,84.6424472222988,-22.8891043469848));
#1574=CARTESIAN_POINT('Origin',(4.65608823544096,82.5695727853689,-22.));
#1575=CARTESIAN_POINT('',(4.65608823544096,82.5695727853689,22.));
#1576=CARTESIAN_POINT('Origin',(4.35115820918968,81.6295940600025,-22.));
#1577=CARTESIAN_POINT('',(5.32042083687404,81.8221357012787,-24.5));
#1578=CARTESIAN_POINT('Origin',(4.35115820918968,81.6295940600025,-24.5));
#1579=CARTESIAN_POINT('',(5.32042083687404,81.8221357012787,-22.));
#1580=CARTESIAN_POINT('',(5.32042083687404,81.8221357012787,22.));
#1581=CARTESIAN_POINT('',(5.32042083687404,81.8221357012787,24.5));
#1582=CARTESIAN_POINT('',(5.32042083687404,81.8221357012787,22.));
#1583=CARTESIAN_POINT('Origin',(4.35115820918968,81.6295940600025,24.5));
#1584=CARTESIAN_POINT('Origin',(34.6676560765479,38.8415527835564,-24.5));
#1585=CARTESIAN_POINT('',(19.3763864551962,87.5,-24.5));
#1586=CARTESIAN_POINT('',(-0.932748467486628,-6.87689443288718,-24.5));
#1587=CARTESIAN_POINT('Origin',(-0.932748467486628,13.1231055671128,-24.5));
#1588=CARTESIAN_POINT('',(-2.99415343610747,-6.87689443288718,-24.5));
#1589=CARTESIAN_POINT('',(-2.99415343610747,-6.87689443288718,-24.5));
#1590=CARTESIAN_POINT('',(-5.96822581708725,-3.48332935225468,-24.5));
#1591=CARTESIAN_POINT('Origin',(-2.99415343610747,-3.87689443288718,-24.5));
#1592=CARTESIAN_POINT('',(5.32042083687404,81.8221357012787,-24.5));
#1593=CARTESIAN_POINT('',(5.76602730111144,1.77635683940025E-14,-24.5));
#1594=CARTESIAN_POINT('Origin',(0.266027301111442,1.33226762955019E-14,
-24.5));
#1595=CARTESIAN_POINT('Origin',(19.3763864551962,87.5,-34.5));
#1596=CARTESIAN_POINT('Origin',(43.3294655892032,86.56,-5.05865879681049E-15));
#1597=CARTESIAN_POINT('Origin',(19.3763864551963,87.5,34.5));
#1598=CARTESIAN_POINT('',(19.3763864551963,8.1479618874806,24.5));
#1599=CARTESIAN_POINT('',(19.3763864551963,87.5,24.5));
#1600=CARTESIAN_POINT('Origin',(19.3763864551963,8.1479618874806,34.5));
#1601=CARTESIAN_POINT('Origin',(34.6676560765479,38.8415527835564,24.5));
#1602=CARTESIAN_POINT('',(-5.96822581708725,-3.4833293522547,24.5));
#1603=CARTESIAN_POINT('',(5.32042083687404,81.8221357012787,24.5));
#1604=CARTESIAN_POINT('',(-2.99415343610747,-6.87689443288718,24.5));
#1605=CARTESIAN_POINT('Origin',(-2.99415343610747,-3.87689443288719,24.5));
#1606=CARTESIAN_POINT('',(-0.932748467486356,-6.87689443288718,24.5));
#1607=CARTESIAN_POINT('',(-2.99415343610747,-6.87689443288719,24.5));
#1608=CARTESIAN_POINT('',(16.259470356447,2.90412264756595,24.5));
#1609=CARTESIAN_POINT('Origin',(-0.932748467486357,13.1231055671128,24.5));
#1610=CARTESIAN_POINT('',(16.259470356447,2.90412264756596,24.5));
#1611=CARTESIAN_POINT('',(5.76602730111144,0.,24.5));
#1612=CARTESIAN_POINT('Origin',(0.266027301111438,0.,24.5));
#1613=CARTESIAN_POINT('Origin',(43.3294655892032,87.5,-5.05865879681049E-15));
#1614=CARTESIAN_POINT('',(47.3294655892032,88.5,-5.54851751646943E-15));
#1615=CARTESIAN_POINT('Origin',(43.3294655892032,88.5,-5.05865879681049E-15));
#1616=CARTESIAN_POINT('',(47.3294655892032,87.5,-5.54851751646943E-15));
#1617=CARTESIAN_POINT('Origin',(43.3294655892032,87.5,-5.05865879681049E-15));
#1618=CARTESIAN_POINT('',(38.6794655892032,87.5,-4.48919803520697E-15));
#1619=CARTESIAN_POINT('',(38.6794655892032,87.5,-4.48919803520697E-15));
#1620=CARTESIAN_POINT('Origin',(43.3294655892032,87.5,-5.05865879681049E-15));
#1621=CARTESIAN_POINT('Origin',(43.3294655892032,88.5,-4.9960036108132E-15));
#1622=CARTESIAN_POINT('Origin',(43.3294655892032,87.5,0.));
#1623=CARTESIAN_POINT('Origin',(20.,84.56,22.));
#1624=CARTESIAN_POINT('',(20.,81.8221357012787,22.));
#1625=CARTESIAN_POINT('Origin',(20.,81.8221357012787,22.));
#1626=CARTESIAN_POINT('Origin',(6.61196401730711,85.0072079372682,-22.));
#1627=CARTESIAN_POINT('Origin',(0.266027301111442,1.33226762955019E-14,
-22.));
#1628=CARTESIAN_POINT('',(5.76602730111144,1.26491205559708E-14,-22.));
#1629=CARTESIAN_POINT('Origin',(-5.96822581708725,-3.4833293522547,-22.));
#1630=CARTESIAN_POINT('',(-5.96822581708725,-3.48332935225469,-22.));
#1631=CARTESIAN_POINT('Origin',(-2.99415343610747,-3.87689443288718,-22.));
#1632=CARTESIAN_POINT('',(-2.99415343610747,-6.87689443288718,-22.));
#1633=CARTESIAN_POINT('Origin',(-0.932748467486628,-6.87689443288718,-22.));
#1634=CARTESIAN_POINT('',(-0.932748467486628,-6.87689443288718,-22.));
#1635=CARTESIAN_POINT('Origin',(-0.932748467486628,13.1231055671128,-22.));
#1636=CARTESIAN_POINT('Origin',(0.266027301111438,0.,22.));
#1637=CARTESIAN_POINT('',(5.76602730111144,6.73555739531044E-16,22.));
#1638=CARTESIAN_POINT('Origin',(16.259470356447,2.90412264756596,22.));
#1639=CARTESIAN_POINT('',(16.259470356447,2.90412264756596,22.));
#1640=CARTESIAN_POINT('Origin',(-0.932748467486357,13.1231055671128,22.));
#1641=CARTESIAN_POINT('',(-0.932748467486356,-6.87689443288719,22.));
#1642=CARTESIAN_POINT('Origin',(-2.99415343610747,-6.87689443288719,22.));
#1643=CARTESIAN_POINT('',(-2.99415343610747,-6.87689443288719,22.));
#1644=CARTESIAN_POINT('Origin',(-2.99415343610747,-3.87689443288719,22.));
#1645=CARTESIAN_POINT('',(-5.96822581708725,-3.4833293522547,22.));
#1646=CARTESIAN_POINT('Origin',(5.32042083687404,81.8221357012787,22.));
#1647=UNCERTAINTY_MEASURE_WITH_UNIT(LENGTH_MEASURE(0.01),#1651,
'DISTANCE_ACCURACY_VALUE',
'Maximum model space distance between geometric entities at asserted c
onnectivities');
#1648=UNCERTAINTY_MEASURE_WITH_UNIT(LENGTH_MEASURE(0.01),#1651,
'DISTANCE_ACCURACY_VALUE',
'Maximum model space distance between geometric entities at asserted c
onnectivities');
#1649=(
GEOMETRIC_REPRESENTATION_CONTEXT(3)
GLOBAL_UNCERTAINTY_ASSIGNED_CONTEXT((#1647))
GLOBAL_UNIT_ASSIGNED_CONTEXT((#1651,#1653,#1654))
REPRESENTATION_CONTEXT('','3D')
);
#1650=(
GEOMETRIC_REPRESENTATION_CONTEXT(3)
GLOBAL_UNCERTAINTY_ASSIGNED_CONTEXT((#1648))
GLOBAL_UNIT_ASSIGNED_CONTEXT((#1651,#1653,#1654))
REPRESENTATION_CONTEXT('','3D')
);
#1651=(
LENGTH_UNIT()
NAMED_UNIT(*)
SI_UNIT(.MILLI.,.METRE.)
);
#1652=(
LENGTH_UNIT()
NAMED_UNIT(*)
SI_UNIT(.CENTI.,.METRE.)
);
#1653=(
NAMED_UNIT(*)
PLANE_ANGLE_UNIT()
SI_UNIT($,.RADIAN.)
);
#1654=(
NAMED_UNIT(*)
SI_UNIT($,.STERADIAN.)
SOLID_ANGLE_UNIT()
);
#1655=SHAPE_DEFINITION_REPRESENTATION(#1656,#1657);
#1656=PRODUCT_DEFINITION_SHAPE('',$,#1659);
#1657=SHAPE_REPRESENTATION('',(#882),#1649);
#1658=PRODUCT_DEFINITION_CONTEXT('part definition',#1663,'design');
#1659=PRODUCT_DEFINITION('Rolle_RippenSt\X\FCtze','Rolle_RippenSt\X\FC
tze',#1660,#1658);
#1660=PRODUCT_DEFINITION_FORMATION('',$,#1665);
#1661=PRODUCT_RELATED_PRODUCT_CATEGORY('Rolle_RippenSt\X\FCtze',
'Rolle_RippenSt\X\FCtze',(#1665));
#1662=APPLICATION_PROTOCOL_DEFINITION('international standard',
'automotive_design',2009,#1663);
#1663=APPLICATION_CONTEXT(
'Core Data for Automotive Mechanical Design Process');
#1664=PRODUCT_CONTEXT('part definition',#1663,'mechanical');
#1665=PRODUCT('Rolle_RippenSt\X\FCtze','Rolle_RippenSt\X\FCtze',$,(#1664));
#1666=PRESENTATION_STYLE_ASSIGNMENT((#1667));
#1667=SURFACE_STYLE_USAGE(.BOTH.,#1670);
#1668=SURFACE_STYLE_RENDERING_WITH_PROPERTIES($,#1674,(#1669));
#1669=SURFACE_STYLE_TRANSPARENT(0.);
#1670=SURFACE_SIDE_STYLE('',(#1671,#1668));
#1671=SURFACE_STYLE_FILL_AREA(#1672);
#1672=FILL_AREA_STYLE('',(#1673));
#1673=FILL_AREA_STYLE_COLOUR('',#1674);
#1674=COLOUR_RGB('',0.749019607843137,0.749019607843137,0.749019607843137);
ENDSEC;
END-ISO-10303-21;
