ISO-10303-21;
HEADER;
/* Generated by software containing ST-Developer
 * from STEP Tools, Inc. (www.steptools.com) 
 */

FILE_DESCRIPTION(
/* description */ (''),
/* implementation_level */ '2;1');

FILE_NAME(
/* name */ 'Rolle.stp',
/* time_stamp */ '2026-09-02T21:28:17+02:00',
/* author */ ('bluhm'),
/* organization */ (''),
/* preprocessor_version */ 'ST-DEVELOPER v20.1',
/* originating_system */ 'Autodesk Inventor 2026',
/* authorisation */ '');

FILE_SCHEMA (('AUTOMOTIVE_DESIGN { 1 0 10303 214 3 1 1 }'));
ENDSEC;

DATA;
#10=MECHANICAL_DESIGN_GEOMETRIC_PRESENTATION_REPRESENTATION('',(#13),#1219);
#11=SHAPE_REPRESENTATION_RELATIONSHIP('SRR','None',#1226,#12);
#12=ADVANCED_BREP_SHAPE_REPRESENTATION('',(#14),#1218);
#13=STYLED_ITEM('',(#1235),#14);
#14=MANIFOLD_SOLID_BREP('Volumenk\X\F6rper2',#619);
#15=CONICAL_SURFACE('',#673,8.92078182070165,0.114593477707195);
#16=CONICAL_SURFACE('',#686,8.92078182070165,0.114593477707195);
#17=FACE_BOUND('',#100,.T.);
#18=FACE_BOUND('',#105,.T.);
#19=FACE_BOUND('',#107,.T.);
#20=FACE_BOUND('',#112,.T.);
#21=FACE_BOUND('',#125,.T.);
#22=FACE_BOUND('',#135,.T.);
#23=PLANE('',#667);
#24=PLANE('',#679);
#25=PLANE('',#680);
#26=PLANE('',#692);
#27=PLANE('',#746);
#28=PLANE('',#765);
#29=TOROIDAL_SURFACE('',#645,75.5,2.);
#30=TOROIDAL_SURFACE('',#653,75.5,2.);
#31=TOROIDAL_SURFACE('',#656,27.5,3.);
#32=TOROIDAL_SURFACE('',#664,23.,1.5);
#33=TOROIDAL_SURFACE('',#669,11.1788199758801,1.5);
#34=TOROIDAL_SURFACE('',#676,6.66274366552319,1.5);
#35=TOROIDAL_SURFACE('',#682,6.66274366552319,1.5);
#36=TOROIDAL_SURFACE('',#689,11.1788199758801,1.5);
#37=TOROIDAL_SURFACE('',#694,23.,1.5);
#38=TOROIDAL_SURFACE('',#701,27.5,3.);
#39=TOROIDAL_SURFACE('',#704,63.6990928568523,2.);
#40=TOROIDAL_SURFACE('',#710,61.7878702460118,2.);
#41=TOROIDAL_SURFACE('',#716,59.8771640823227,2.);
#42=TOROIDAL_SURFACE('',#722,59.8771640823228,2.);
#43=TOROIDAL_SURFACE('',#728,64.1251780421142,2.);
#44=TOROIDAL_SURFACE('',#733,61.4914073089173,2.);
#45=TOROIDAL_SURFACE('',#737,63.6990928568523,2.);
#46=TOROIDAL_SURFACE('',#748,46.7047107154067,42.7281912603928);
#47=TOROIDAL_SURFACE('',#750,46.7047107154067,42.7281912603928);
#48=TOROIDAL_SURFACE('',#752,46.7047107154067,42.7281912603928);
#49=TOROIDAL_SURFACE('',#754,46.7047107154067,42.7281912603928);
#50=TOROIDAL_SURFACE('',#756,46.7047107154067,42.7281912603928);
#51=TOROIDAL_SURFACE('',#758,46.7047107154067,42.7281912603928);
#52=TOROIDAL_SURFACE('',#760,46.7047107154067,42.7281912603928);
#53=TOROIDAL_SURFACE('',#762,46.7047107154067,42.7281912603928);
#54=FACE_OUTER_BOUND('',#92,.T.);
#55=FACE_OUTER_BOUND('',#93,.T.);
#56=FACE_OUTER_BOUND('',#94,.T.);
#57=FACE_OUTER_BOUND('',#95,.T.);
#58=FACE_OUTER_BOUND('',#96,.T.);
#59=FACE_OUTER_BOUND('',#97,.T.);
#60=FACE_OUTER_BOUND('',#98,.T.);
#61=FACE_OUTER_BOUND('',#99,.T.);
#62=FACE_OUTER_BOUND('',#101,.T.);
#63=FACE_OUTER_BOUND('',#102,.T.);
#64=FACE_OUTER_BOUND('',#103,.T.);
#65=FACE_OUTER_BOUND('',#104,.T.);
#66=FACE_OUTER_BOUND('',#106,.T.);
#67=FACE_OUTER_BOUND('',#108,.T.);
#68=FACE_OUTER_BOUND('',#109,.T.);
#69=FACE_OUTER_BOUND('',#110,.T.);
#70=FACE_OUTER_BOUND('',#111,.T.);
#71=FACE_OUTER_BOUND('',#113,.T.);
#72=FACE_OUTER_BOUND('',#114,.T.);
#73=FACE_OUTER_BOUND('',#115,.T.);
#74=FACE_OUTER_BOUND('',#116,.T.);
#75=FACE_OUTER_BOUND('',#117,.T.);
#76=FACE_OUTER_BOUND('',#118,.T.);
#77=FACE_OUTER_BOUND('',#119,.T.);
#78=FACE_OUTER_BOUND('',#120,.T.);
#79=FACE_OUTER_BOUND('',#121,.T.);
#80=FACE_OUTER_BOUND('',#122,.T.);
#81=FACE_OUTER_BOUND('',#123,.T.);
#82=FACE_OUTER_BOUND('',#124,.T.);
#83=FACE_OUTER_BOUND('',#126,.T.);
#84=FACE_OUTER_BOUND('',#127,.T.);
#85=FACE_OUTER_BOUND('',#128,.T.);
#86=FACE_OUTER_BOUND('',#129,.T.);
#87=FACE_OUTER_BOUND('',#130,.T.);
#88=FACE_OUTER_BOUND('',#131,.T.);
#89=FACE_OUTER_BOUND('',#132,.T.);
#90=FACE_OUTER_BOUND('',#133,.T.);
#91=FACE_OUTER_BOUND('',#134,.T.);
#92=EDGE_LOOP('',(#390,#391,#392,#393));
#93=EDGE_LOOP('',(#394,#395,#396,#397,#398));
#94=EDGE_LOOP('',(#399,#400,#401,#402,#403,#404));
#95=EDGE_LOOP('',(#405,#406,#407,#408,#409));
#96=EDGE_LOOP('',(#410,#411,#412,#413,#414));
#97=EDGE_LOOP('',(#415,#416,#417,#418,#419,#420));
#98=EDGE_LOOP('',(#421,#422,#423,#424,#425));
#99=EDGE_LOOP('',(#426));
#100=EDGE_LOOP('',(#427));
#101=EDGE_LOOP('',(#428,#429,#430,#431,#432));
#102=EDGE_LOOP('',(#433,#434,#435,#436,#437,#438));
#103=EDGE_LOOP('',(#439,#440,#441,#442,#443));
#104=EDGE_LOOP('',(#444));
#105=EDGE_LOOP('',(#445));
#106=EDGE_LOOP('',(#446));
#107=EDGE_LOOP('',(#447));
#108=EDGE_LOOP('',(#448,#449,#450,#451,#452));
#109=EDGE_LOOP('',(#453,#454,#455,#456,#457,#458));
#110=EDGE_LOOP('',(#459,#460,#461,#462,#463));
#111=EDGE_LOOP('',(#464));
#112=EDGE_LOOP('',(#465));
#113=EDGE_LOOP('',(#466,#467,#468,#469,#470));
#114=EDGE_LOOP('',(#471,#472,#473,#474,#475,#476));
#115=EDGE_LOOP('',(#477,#478,#479,#480,#481));
#116=EDGE_LOOP('',(#482,#483,#484,#485,#486,#487));
#117=EDGE_LOOP('',(#488,#489,#490,#491,#492,#493));
#118=EDGE_LOOP('',(#494,#495,#496,#497,#498,#499));
#119=EDGE_LOOP('',(#500,#501,#502,#503,#504,#505));
#120=EDGE_LOOP('',(#506,#507,#508,#509,#510));
#121=EDGE_LOOP('',(#511,#512,#513,#514,#515,#516));
#122=EDGE_LOOP('',(#517,#518,#519,#520,#521,#522));
#123=EDGE_LOOP('',(#523,#524,#525,#526,#527,#528));
#124=EDGE_LOOP('',(#529));
#125=EDGE_LOOP('',(#530));
#126=EDGE_LOOP('',(#531,#532,#533,#534,#535));
#127=EDGE_LOOP('',(#536,#537,#538,#539,#540,#541));
#128=EDGE_LOOP('',(#542,#543,#544,#545,#546));
#129=EDGE_LOOP('',(#547,#548,#549,#550,#551));
#130=EDGE_LOOP('',(#552,#553,#554,#555,#556));
#131=EDGE_LOOP('',(#557,#558,#559,#560,#561,#562));
#132=EDGE_LOOP('',(#563,#564,#565,#566,#567,#568));
#133=EDGE_LOOP('',(#569,#570,#571,#572,#573));
#134=EDGE_LOOP('',(#574));
#135=EDGE_LOOP('',(#575));
#136=LINE('',#1028,#143);
#137=LINE('',#1043,#144);
#138=LINE('',#1058,#145);
#139=LINE('',#1079,#146);
#140=LINE('',#1099,#147);
#141=LINE('',#1116,#148);
#142=LINE('',#1192,#149);
#143=VECTOR('',#772,5.5);
#144=VECTOR('',#791,77.5);
#145=VECTOR('',#810,24.5);
#146=VECTOR('',#837,8.92078182070165);
#147=VECTOR('',#864,8.92078182070165);
#148=VECTOR('',#887,24.5);
#149=VECTOR('',#980,62.);
#150=CIRCLE('',#643,5.5);
#151=CIRCLE('',#644,5.5);
#152=CIRCLE('',#646,77.5);
#153=CIRCLE('',#647,2.);
#154=CIRCLE('',#648,76.9140224936822);
#155=CIRCLE('',#649,77.5);
#156=CIRCLE('',#651,77.5);
#157=CIRCLE('',#652,77.5);
#158=CIRCLE('',#654,76.9140224936822);
#159=CIRCLE('',#655,2.);
#160=CIRCLE('',#657,24.5);
#161=CIRCLE('',#658,24.5);
#162=CIRCLE('',#659,3.);
#163=CIRCLE('',#660,27.5);
#164=CIRCLE('',#662,24.5);
#165=CIRCLE('',#663,24.5);
#166=CIRCLE('',#665,1.5);
#167=CIRCLE('',#666,23.);
#168=CIRCLE('',#668,11.1788199758801);
#169=CIRCLE('',#670,1.5);
#170=CIRCLE('',#671,9.68865795190702);
#171=CIRCLE('',#672,9.68865795190702);
#172=CIRCLE('',#674,8.15290568949628);
#173=CIRCLE('',#675,8.15290568949628);
#174=CIRCLE('',#677,6.66274366552319);
#175=CIRCLE('',#678,1.5);
#176=CIRCLE('',#681,6.66274366552319);
#177=CIRCLE('',#683,8.15290568949628);
#178=CIRCLE('',#684,8.15290568949628);
#179=CIRCLE('',#685,1.5);
#180=CIRCLE('',#687,9.68865795190702);
#181=CIRCLE('',#688,9.68865795190702);
#182=CIRCLE('',#690,1.5);
#183=CIRCLE('',#691,11.1788199758801);
#184=CIRCLE('',#693,23.);
#185=CIRCLE('',#695,1.5);
#186=CIRCLE('',#696,24.5);
#187=CIRCLE('',#697,24.5);
#188=CIRCLE('',#699,24.5);
#189=CIRCLE('',#700,24.5);
#190=CIRCLE('',#702,27.5);
#191=CIRCLE('',#703,3.);
#192=CIRCLE('',#705,65.);
#193=CIRCLE('',#706,2.);
#194=CIRCLE('',#707,64.);
#195=CIRCLE('',#708,64.);
#196=CIRCLE('',#709,65.);
#197=CIRCLE('',#711,63.);
#198=CIRCLE('',#712,2.);
#199=CIRCLE('',#713,62.);
#200=CIRCLE('',#714,62.);
#201=CIRCLE('',#715,63.);
#202=CIRCLE('',#717,61.);
#203=CIRCLE('',#718,2.);
#204=CIRCLE('',#719,60.);
#205=CIRCLE('',#720,60.);
#206=CIRCLE('',#721,61.);
#207=CIRCLE('',#723,60.);
#208=CIRCLE('',#724,2.);
#209=CIRCLE('',#725,61.);
#210=CIRCLE('',#726,61.);
#211=CIRCLE('',#727,60.);
#212=CIRCLE('',#729,62.8082926755158);
#213=CIRCLE('',#730,2.);
#214=CIRCLE('',#731,63.3462300526777);
#215=CIRCLE('',#732,62.8082926755158);
#216=CIRCLE('',#734,2.);
#217=CIRCLE('',#735,62.);
#218=CIRCLE('',#736,62.);
#219=CIRCLE('',#738,64.);
#220=CIRCLE('',#739,2.);
#221=CIRCLE('',#740,65.);
#222=CIRCLE('',#741,65.);
#223=CIRCLE('',#742,64.);
#224=CIRCLE('',#744,62.);
#225=CIRCLE('',#745,62.);
#226=CIRCLE('',#747,49.7424810643886);
#227=CIRCLE('',#749,42.7281912603928);
#228=CIRCLE('',#751,42.7281912603928);
#229=CIRCLE('',#753,42.7281912603928);
#230=CIRCLE('',#755,42.7281912603928);
#231=CIRCLE('',#757,42.7281912603928);
#232=CIRCLE('',#759,42.7281912603928);
#233=CIRCLE('',#761,42.7281912603928);
#234=CIRCLE('',#763,49.7424810643886);
#235=CIRCLE('',#764,42.7281912603928);
#236=VERTEX_POINT('',#1025);
#237=VERTEX_POINT('',#1027);
#238=VERTEX_POINT('',#1031);
#239=VERTEX_POINT('',#1032);
#240=VERTEX_POINT('',#1034);
#241=VERTEX_POINT('',#1039);
#242=VERTEX_POINT('',#1040);
#243=VERTEX_POINT('',#1045);
#244=VERTEX_POINT('',#1049);
#245=VERTEX_POINT('',#1050);
#246=VERTEX_POINT('',#1053);
#247=VERTEX_POINT('',#1057);
#248=VERTEX_POINT('',#1059);
#249=VERTEX_POINT('',#1063);
#250=VERTEX_POINT('',#1067);
#251=VERTEX_POINT('',#1070);
#252=VERTEX_POINT('',#1072);
#253=VERTEX_POINT('',#1076);
#254=VERTEX_POINT('',#1077);
#255=VERTEX_POINT('',#1082);
#256=VERTEX_POINT('',#1087);
#257=VERTEX_POINT('',#1090);
#258=VERTEX_POINT('',#1091);
#259=VERTEX_POINT('',#1096);
#260=VERTEX_POINT('',#1097);
#261=VERTEX_POINT('',#1102);
#262=VERTEX_POINT('',#1106);
#263=VERTEX_POINT('',#1109);
#264=VERTEX_POINT('',#1111);
#265=VERTEX_POINT('',#1115);
#266=VERTEX_POINT('',#1117);
#267=VERTEX_POINT('',#1121);
#268=VERTEX_POINT('',#1125);
#269=VERTEX_POINT('',#1126);
#270=VERTEX_POINT('',#1128);
#271=VERTEX_POINT('',#1130);
#272=VERTEX_POINT('',#1135);
#273=VERTEX_POINT('',#1136);
#274=VERTEX_POINT('',#1138);
#275=VERTEX_POINT('',#1140);
#276=VERTEX_POINT('',#1145);
#277=VERTEX_POINT('',#1146);
#278=VERTEX_POINT('',#1148);
#279=VERTEX_POINT('',#1150);
#280=VERTEX_POINT('',#1155);
#281=VERTEX_POINT('',#1156);
#282=VERTEX_POINT('',#1158);
#283=VERTEX_POINT('',#1160);
#284=VERTEX_POINT('',#1165);
#285=VERTEX_POINT('',#1166);
#286=VERTEX_POINT('',#1168);
#287=VERTEX_POINT('',#1173);
#288=VERTEX_POINT('',#1175);
#289=VERTEX_POINT('',#1179);
#290=VERTEX_POINT('',#1180);
#291=VERTEX_POINT('',#1182);
#292=VERTEX_POINT('',#1184);
#293=VERTEX_POINT('',#1189);
#294=VERTEX_POINT('',#1190);
#295=VERTEX_POINT('',#1195);
#296=VERTEX_POINT('',#1212);
#297=EDGE_CURVE('',#236,#236,#150,.T.);
#298=EDGE_CURVE('',#236,#237,#136,.T.);
#299=EDGE_CURVE('',#237,#237,#151,.T.);
#300=EDGE_CURVE('',#238,#239,#152,.T.);
#301=EDGE_CURVE('',#239,#240,#153,.T.);
#302=EDGE_CURVE('',#240,#240,#154,.T.);
#303=EDGE_CURVE('',#239,#238,#155,.T.);
#304=EDGE_CURVE('',#241,#242,#156,.T.);
#305=EDGE_CURVE('',#242,#241,#157,.T.);
#306=EDGE_CURVE('',#242,#238,#137,.T.);
#307=EDGE_CURVE('',#243,#243,#158,.T.);
#308=EDGE_CURVE('',#243,#241,#159,.T.);
#309=EDGE_CURVE('',#244,#245,#160,.T.);
#310=EDGE_CURVE('',#245,#244,#161,.T.);
#311=EDGE_CURVE('',#245,#246,#162,.T.);
#312=EDGE_CURVE('',#246,#246,#163,.T.);
#313=EDGE_CURVE('',#244,#247,#138,.T.);
#314=EDGE_CURVE('',#248,#247,#164,.T.);
#315=EDGE_CURVE('',#247,#248,#165,.T.);
#316=EDGE_CURVE('',#248,#249,#166,.T.);
#317=EDGE_CURVE('',#249,#249,#167,.T.);
#318=EDGE_CURVE('',#250,#250,#168,.T.);
#319=EDGE_CURVE('',#250,#251,#169,.T.);
#320=EDGE_CURVE('',#252,#251,#170,.T.);
#321=EDGE_CURVE('',#251,#252,#171,.T.);
#322=EDGE_CURVE('',#253,#254,#172,.T.);
#323=EDGE_CURVE('',#253,#252,#139,.T.);
#324=EDGE_CURVE('',#254,#253,#173,.T.);
#325=EDGE_CURVE('',#255,#255,#174,.T.);
#326=EDGE_CURVE('',#255,#254,#175,.T.);
#327=EDGE_CURVE('',#256,#256,#176,.T.);
#328=EDGE_CURVE('',#257,#258,#177,.T.);
#329=EDGE_CURVE('',#258,#257,#178,.T.);
#330=EDGE_CURVE('',#258,#256,#179,.T.);
#331=EDGE_CURVE('',#259,#260,#180,.T.);
#332=EDGE_CURVE('',#259,#257,#140,.T.);
#333=EDGE_CURVE('',#260,#259,#181,.T.);
#334=EDGE_CURVE('',#260,#261,#182,.T.);
#335=EDGE_CURVE('',#261,#261,#183,.T.);
#336=EDGE_CURVE('',#262,#262,#184,.T.);
#337=EDGE_CURVE('',#262,#263,#185,.T.);
#338=EDGE_CURVE('',#264,#263,#186,.T.);
#339=EDGE_CURVE('',#263,#264,#187,.T.);
#340=EDGE_CURVE('',#264,#265,#141,.T.);
#341=EDGE_CURVE('',#266,#265,#188,.T.);
#342=EDGE_CURVE('',#265,#266,#189,.T.);
#343=EDGE_CURVE('',#267,#267,#190,.T.);
#344=EDGE_CURVE('',#267,#266,#191,.T.);
#345=EDGE_CURVE('',#268,#269,#192,.T.);
#346=EDGE_CURVE('',#268,#270,#193,.T.);
#347=EDGE_CURVE('',#271,#270,#194,.T.);
#348=EDGE_CURVE('',#270,#271,#195,.T.);
#349=EDGE_CURVE('',#269,#268,#196,.T.);
#350=EDGE_CURVE('',#272,#273,#197,.T.);
#351=EDGE_CURVE('',#272,#274,#198,.T.);
#352=EDGE_CURVE('',#275,#274,#199,.T.);
#353=EDGE_CURVE('',#274,#275,#200,.T.);
#354=EDGE_CURVE('',#273,#272,#201,.T.);
#355=EDGE_CURVE('',#276,#277,#202,.T.);
#356=EDGE_CURVE('',#276,#278,#203,.T.);
#357=EDGE_CURVE('',#279,#278,#204,.T.);
#358=EDGE_CURVE('',#278,#279,#205,.T.);
#359=EDGE_CURVE('',#277,#276,#206,.T.);
#360=EDGE_CURVE('',#280,#281,#207,.T.);
#361=EDGE_CURVE('',#280,#282,#208,.T.);
#362=EDGE_CURVE('',#283,#282,#209,.T.);
#363=EDGE_CURVE('',#282,#283,#210,.T.);
#364=EDGE_CURVE('',#281,#280,#211,.T.);
#365=EDGE_CURVE('',#284,#285,#212,.T.);
#366=EDGE_CURVE('',#285,#286,#213,.T.);
#367=EDGE_CURVE('',#286,#286,#214,.T.);
#368=EDGE_CURVE('',#285,#284,#215,.T.);
#369=EDGE_CURVE('',#284,#287,#216,.T.);
#370=EDGE_CURVE('',#287,#288,#217,.T.);
#371=EDGE_CURVE('',#288,#287,#218,.T.);
#372=EDGE_CURVE('',#289,#290,#219,.T.);
#373=EDGE_CURVE('',#289,#291,#220,.T.);
#374=EDGE_CURVE('',#292,#291,#221,.T.);
#375=EDGE_CURVE('',#291,#292,#222,.T.);
#376=EDGE_CURVE('',#290,#289,#223,.T.);
#377=EDGE_CURVE('',#293,#294,#224,.T.);
#378=EDGE_CURVE('',#293,#288,#142,.T.);
#379=EDGE_CURVE('',#294,#293,#225,.T.);
#380=EDGE_CURVE('',#295,#295,#226,.T.);
#381=EDGE_CURVE('',#281,#295,#227,.T.);
#382=EDGE_CURVE('',#294,#283,#228,.T.);
#383=EDGE_CURVE('',#290,#286,#229,.T.);
#384=EDGE_CURVE('',#240,#292,#230,.T.);
#385=EDGE_CURVE('',#269,#243,#231,.T.);
#386=EDGE_CURVE('',#273,#271,#232,.T.);
#387=EDGE_CURVE('',#277,#275,#233,.T.);
#388=EDGE_CURVE('',#296,#296,#234,.T.);
#389=EDGE_CURVE('',#296,#279,#235,.T.);
#390=ORIENTED_EDGE('',*,*,#297,.F.);
#391=ORIENTED_EDGE('',*,*,#298,.T.);
#392=ORIENTED_EDGE('',*,*,#299,.F.);
#393=ORIENTED_EDGE('',*,*,#298,.F.);
#394=ORIENTED_EDGE('',*,*,#300,.T.);
#395=ORIENTED_EDGE('',*,*,#301,.T.);
#396=ORIENTED_EDGE('',*,*,#302,.T.);
#397=ORIENTED_EDGE('',*,*,#301,.F.);
#398=ORIENTED_EDGE('',*,*,#303,.T.);
#399=ORIENTED_EDGE('',*,*,#304,.F.);
#400=ORIENTED_EDGE('',*,*,#305,.F.);
#401=ORIENTED_EDGE('',*,*,#306,.T.);
#402=ORIENTED_EDGE('',*,*,#303,.F.);
#403=ORIENTED_EDGE('',*,*,#300,.F.);
#404=ORIENTED_EDGE('',*,*,#306,.F.);
#405=ORIENTED_EDGE('',*,*,#307,.T.);
#406=ORIENTED_EDGE('',*,*,#308,.T.);
#407=ORIENTED_EDGE('',*,*,#304,.T.);
#408=ORIENTED_EDGE('',*,*,#305,.T.);
#409=ORIENTED_EDGE('',*,*,#308,.F.);
#410=ORIENTED_EDGE('',*,*,#309,.F.);
#411=ORIENTED_EDGE('',*,*,#310,.F.);
#412=ORIENTED_EDGE('',*,*,#311,.T.);
#413=ORIENTED_EDGE('',*,*,#312,.F.);
#414=ORIENTED_EDGE('',*,*,#311,.F.);
#415=ORIENTED_EDGE('',*,*,#309,.T.);
#416=ORIENTED_EDGE('',*,*,#310,.T.);
#417=ORIENTED_EDGE('',*,*,#313,.T.);
#418=ORIENTED_EDGE('',*,*,#314,.F.);
#419=ORIENTED_EDGE('',*,*,#315,.F.);
#420=ORIENTED_EDGE('',*,*,#313,.F.);
#421=ORIENTED_EDGE('',*,*,#315,.T.);
#422=ORIENTED_EDGE('',*,*,#316,.T.);
#423=ORIENTED_EDGE('',*,*,#317,.F.);
#424=ORIENTED_EDGE('',*,*,#316,.F.);
#425=ORIENTED_EDGE('',*,*,#314,.T.);
#426=ORIENTED_EDGE('',*,*,#317,.T.);
#427=ORIENTED_EDGE('',*,*,#318,.F.);
#428=ORIENTED_EDGE('',*,*,#318,.T.);
#429=ORIENTED_EDGE('',*,*,#319,.T.);
#430=ORIENTED_EDGE('',*,*,#320,.F.);
#431=ORIENTED_EDGE('',*,*,#321,.F.);
#432=ORIENTED_EDGE('',*,*,#319,.F.);
#433=ORIENTED_EDGE('',*,*,#322,.F.);
#434=ORIENTED_EDGE('',*,*,#323,.T.);
#435=ORIENTED_EDGE('',*,*,#320,.T.);
#436=ORIENTED_EDGE('',*,*,#321,.T.);
#437=ORIENTED_EDGE('',*,*,#323,.F.);
#438=ORIENTED_EDGE('',*,*,#324,.F.);
#439=ORIENTED_EDGE('',*,*,#325,.F.);
#440=ORIENTED_EDGE('',*,*,#326,.T.);
#441=ORIENTED_EDGE('',*,*,#324,.T.);
#442=ORIENTED_EDGE('',*,*,#322,.T.);
#443=ORIENTED_EDGE('',*,*,#326,.F.);
#444=ORIENTED_EDGE('',*,*,#325,.T.);
#445=ORIENTED_EDGE('',*,*,#297,.T.);
#446=ORIENTED_EDGE('',*,*,#327,.F.);
#447=ORIENTED_EDGE('',*,*,#299,.T.);
#448=ORIENTED_EDGE('',*,*,#328,.F.);
#449=ORIENTED_EDGE('',*,*,#329,.F.);
#450=ORIENTED_EDGE('',*,*,#330,.T.);
#451=ORIENTED_EDGE('',*,*,#327,.T.);
#452=ORIENTED_EDGE('',*,*,#330,.F.);
#453=ORIENTED_EDGE('',*,*,#331,.F.);
#454=ORIENTED_EDGE('',*,*,#332,.T.);
#455=ORIENTED_EDGE('',*,*,#328,.T.);
#456=ORIENTED_EDGE('',*,*,#329,.T.);
#457=ORIENTED_EDGE('',*,*,#332,.F.);
#458=ORIENTED_EDGE('',*,*,#333,.F.);
#459=ORIENTED_EDGE('',*,*,#331,.T.);
#460=ORIENTED_EDGE('',*,*,#334,.T.);
#461=ORIENTED_EDGE('',*,*,#335,.F.);
#462=ORIENTED_EDGE('',*,*,#334,.F.);
#463=ORIENTED_EDGE('',*,*,#333,.T.);
#464=ORIENTED_EDGE('',*,*,#336,.F.);
#465=ORIENTED_EDGE('',*,*,#335,.T.);
#466=ORIENTED_EDGE('',*,*,#336,.T.);
#467=ORIENTED_EDGE('',*,*,#337,.T.);
#468=ORIENTED_EDGE('',*,*,#338,.F.);
#469=ORIENTED_EDGE('',*,*,#339,.F.);
#470=ORIENTED_EDGE('',*,*,#337,.F.);
#471=ORIENTED_EDGE('',*,*,#338,.T.);
#472=ORIENTED_EDGE('',*,*,#339,.T.);
#473=ORIENTED_EDGE('',*,*,#340,.T.);
#474=ORIENTED_EDGE('',*,*,#341,.F.);
#475=ORIENTED_EDGE('',*,*,#342,.F.);
#476=ORIENTED_EDGE('',*,*,#340,.F.);
#477=ORIENTED_EDGE('',*,*,#343,.T.);
#478=ORIENTED_EDGE('',*,*,#344,.T.);
#479=ORIENTED_EDGE('',*,*,#341,.T.);
#480=ORIENTED_EDGE('',*,*,#342,.T.);
#481=ORIENTED_EDGE('',*,*,#344,.F.);
#482=ORIENTED_EDGE('',*,*,#345,.F.);
#483=ORIENTED_EDGE('',*,*,#346,.T.);
#484=ORIENTED_EDGE('',*,*,#347,.F.);
#485=ORIENTED_EDGE('',*,*,#348,.F.);
#486=ORIENTED_EDGE('',*,*,#346,.F.);
#487=ORIENTED_EDGE('',*,*,#349,.F.);
#488=ORIENTED_EDGE('',*,*,#350,.F.);
#489=ORIENTED_EDGE('',*,*,#351,.T.);
#490=ORIENTED_EDGE('',*,*,#352,.F.);
#491=ORIENTED_EDGE('',*,*,#353,.F.);
#492=ORIENTED_EDGE('',*,*,#351,.F.);
#493=ORIENTED_EDGE('',*,*,#354,.F.);
#494=ORIENTED_EDGE('',*,*,#355,.F.);
#495=ORIENTED_EDGE('',*,*,#356,.T.);
#496=ORIENTED_EDGE('',*,*,#357,.F.);
#497=ORIENTED_EDGE('',*,*,#358,.F.);
#498=ORIENTED_EDGE('',*,*,#356,.F.);
#499=ORIENTED_EDGE('',*,*,#359,.F.);
#500=ORIENTED_EDGE('',*,*,#360,.F.);
#501=ORIENTED_EDGE('',*,*,#361,.T.);
#502=ORIENTED_EDGE('',*,*,#362,.F.);
#503=ORIENTED_EDGE('',*,*,#363,.F.);
#504=ORIENTED_EDGE('',*,*,#361,.F.);
#505=ORIENTED_EDGE('',*,*,#364,.F.);
#506=ORIENTED_EDGE('',*,*,#365,.T.);
#507=ORIENTED_EDGE('',*,*,#366,.T.);
#508=ORIENTED_EDGE('',*,*,#367,.T.);
#509=ORIENTED_EDGE('',*,*,#366,.F.);
#510=ORIENTED_EDGE('',*,*,#368,.T.);
#511=ORIENTED_EDGE('',*,*,#365,.F.);
#512=ORIENTED_EDGE('',*,*,#369,.T.);
#513=ORIENTED_EDGE('',*,*,#370,.T.);
#514=ORIENTED_EDGE('',*,*,#371,.T.);
#515=ORIENTED_EDGE('',*,*,#369,.F.);
#516=ORIENTED_EDGE('',*,*,#368,.F.);
#517=ORIENTED_EDGE('',*,*,#372,.F.);
#518=ORIENTED_EDGE('',*,*,#373,.T.);
#519=ORIENTED_EDGE('',*,*,#374,.F.);
#520=ORIENTED_EDGE('',*,*,#375,.F.);
#521=ORIENTED_EDGE('',*,*,#373,.F.);
#522=ORIENTED_EDGE('',*,*,#376,.F.);
#523=ORIENTED_EDGE('',*,*,#377,.F.);
#524=ORIENTED_EDGE('',*,*,#378,.T.);
#525=ORIENTED_EDGE('',*,*,#370,.F.);
#526=ORIENTED_EDGE('',*,*,#371,.F.);
#527=ORIENTED_EDGE('',*,*,#378,.F.);
#528=ORIENTED_EDGE('',*,*,#379,.F.);
#529=ORIENTED_EDGE('',*,*,#380,.F.);
#530=ORIENTED_EDGE('',*,*,#312,.T.);
#531=ORIENTED_EDGE('',*,*,#360,.T.);
#532=ORIENTED_EDGE('',*,*,#381,.T.);
#533=ORIENTED_EDGE('',*,*,#380,.T.);
#534=ORIENTED_EDGE('',*,*,#381,.F.);
#535=ORIENTED_EDGE('',*,*,#364,.T.);
#536=ORIENTED_EDGE('',*,*,#377,.T.);
#537=ORIENTED_EDGE('',*,*,#382,.T.);
#538=ORIENTED_EDGE('',*,*,#362,.T.);
#539=ORIENTED_EDGE('',*,*,#363,.T.);
#540=ORIENTED_EDGE('',*,*,#382,.F.);
#541=ORIENTED_EDGE('',*,*,#379,.T.);
#542=ORIENTED_EDGE('',*,*,#372,.T.);
#543=ORIENTED_EDGE('',*,*,#383,.T.);
#544=ORIENTED_EDGE('',*,*,#367,.F.);
#545=ORIENTED_EDGE('',*,*,#383,.F.);
#546=ORIENTED_EDGE('',*,*,#376,.T.);
#547=ORIENTED_EDGE('',*,*,#302,.F.);
#548=ORIENTED_EDGE('',*,*,#384,.T.);
#549=ORIENTED_EDGE('',*,*,#374,.T.);
#550=ORIENTED_EDGE('',*,*,#375,.T.);
#551=ORIENTED_EDGE('',*,*,#384,.F.);
#552=ORIENTED_EDGE('',*,*,#345,.T.);
#553=ORIENTED_EDGE('',*,*,#385,.T.);
#554=ORIENTED_EDGE('',*,*,#307,.F.);
#555=ORIENTED_EDGE('',*,*,#385,.F.);
#556=ORIENTED_EDGE('',*,*,#349,.T.);
#557=ORIENTED_EDGE('',*,*,#350,.T.);
#558=ORIENTED_EDGE('',*,*,#386,.T.);
#559=ORIENTED_EDGE('',*,*,#347,.T.);
#560=ORIENTED_EDGE('',*,*,#348,.T.);
#561=ORIENTED_EDGE('',*,*,#386,.F.);
#562=ORIENTED_EDGE('',*,*,#354,.T.);
#563=ORIENTED_EDGE('',*,*,#355,.T.);
#564=ORIENTED_EDGE('',*,*,#387,.T.);
#565=ORIENTED_EDGE('',*,*,#352,.T.);
#566=ORIENTED_EDGE('',*,*,#353,.T.);
#567=ORIENTED_EDGE('',*,*,#387,.F.);
#568=ORIENTED_EDGE('',*,*,#359,.T.);
#569=ORIENTED_EDGE('',*,*,#388,.F.);
#570=ORIENTED_EDGE('',*,*,#389,.T.);
#571=ORIENTED_EDGE('',*,*,#357,.T.);
#572=ORIENTED_EDGE('',*,*,#358,.T.);
#573=ORIENTED_EDGE('',*,*,#389,.F.);
#574=ORIENTED_EDGE('',*,*,#388,.T.);
#575=ORIENTED_EDGE('',*,*,#343,.F.);
#576=CYLINDRICAL_SURFACE('',#642,5.5);
#577=CYLINDRICAL_SURFACE('',#650,77.5);
#578=CYLINDRICAL_SURFACE('',#661,24.5);
#579=CYLINDRICAL_SURFACE('',#698,24.5);
#580=CYLINDRICAL_SURFACE('',#743,62.);
#581=ADVANCED_FACE('',(#54),#576,.F.);
#582=ADVANCED_FACE('',(#55),#29,.T.);
#583=ADVANCED_FACE('',(#56),#577,.T.);
#584=ADVANCED_FACE('',(#57),#30,.T.);
#585=ADVANCED_FACE('',(#58),#31,.T.);
#586=ADVANCED_FACE('',(#59),#578,.F.);
#587=ADVANCED_FACE('',(#60),#32,.F.);
#588=ADVANCED_FACE('',(#61,#17),#23,.T.);
#589=ADVANCED_FACE('',(#62),#33,.F.);
#590=ADVANCED_FACE('',(#63),#15,.T.);
#591=ADVANCED_FACE('',(#64),#34,.T.);
#592=ADVANCED_FACE('',(#65,#18),#24,.T.);
#593=ADVANCED_FACE('',(#66,#19),#25,.T.);
#594=ADVANCED_FACE('',(#67),#35,.T.);
#595=ADVANCED_FACE('',(#68),#16,.T.);
#596=ADVANCED_FACE('',(#69),#36,.F.);
#597=ADVANCED_FACE('',(#70,#20),#26,.T.);
#598=ADVANCED_FACE('',(#71),#37,.F.);
#599=ADVANCED_FACE('',(#72),#579,.F.);
#600=ADVANCED_FACE('',(#73),#38,.T.);
#601=ADVANCED_FACE('',(#74),#39,.T.);
#602=ADVANCED_FACE('',(#75),#40,.T.);
#603=ADVANCED_FACE('',(#76),#41,.T.);
#604=ADVANCED_FACE('',(#77),#42,.T.);
#605=ADVANCED_FACE('',(#78),#43,.F.);
#606=ADVANCED_FACE('',(#79),#44,.T.);
#607=ADVANCED_FACE('',(#80),#45,.T.);
#608=ADVANCED_FACE('',(#81),#580,.F.);
#609=ADVANCED_FACE('',(#82,#21),#27,.T.);
#610=ADVANCED_FACE('',(#83),#46,.T.);
#611=ADVANCED_FACE('',(#84),#47,.T.);
#612=ADVANCED_FACE('',(#85),#48,.T.);
#613=ADVANCED_FACE('',(#86),#49,.T.);
#614=ADVANCED_FACE('',(#87),#50,.T.);
#615=ADVANCED_FACE('',(#88),#51,.T.);
#616=ADVANCED_FACE('',(#89),#52,.T.);
#617=ADVANCED_FACE('',(#90),#53,.T.);
#618=ADVANCED_FACE('',(#91,#22),#28,.T.);
#619=CLOSED_SHELL('',(#581,#582,#583,#584,#585,#586,#587,#588,#589,#590,
#591,#592,#593,#594,#595,#596,#597,#598,#599,#600,#601,#602,#603,#604,#605,
#606,#607,#608,#609,#610,#611,#612,#613,#614,#615,#616,#617,#618));
#620=DERIVED_UNIT_ELEMENT(#623,1.);
#621=DERIVED_UNIT_ELEMENT(#1221,-3.);
#622=DIMENSIONAL_EXPONENTS(0.,1.,0.,0.,0.,0.,0.);
#623=(
CONVERSION_BASED_UNIT('gram',#625)
MASS_UNIT()
NAMED_UNIT(#622)
);
#624=(
MASS_UNIT()
NAMED_UNIT(*)
SI_UNIT(.KILO.,.GRAM.)
);
#625=MASS_MEASURE_WITH_UNIT(MASS_MEASURE(0.001),#624);
#626=DERIVED_UNIT((#620,#621));
#627=MEASURE_REPRESENTATION_ITEM('density measure',
POSITIVE_RATIO_MEASURE(1.),#626);
#628=PROPERTY_DEFINITION_REPRESENTATION(#633,#630);
#629=PROPERTY_DEFINITION_REPRESENTATION(#634,#631);
#630=REPRESENTATION('material name',(#632),#1218);
#631=REPRESENTATION('density',(#627),#1218);
#632=DESCRIPTIVE_REPRESENTATION_ITEM('Generisch','Generisch');
#633=PROPERTY_DEFINITION('material property','material name',#1228);
#634=PROPERTY_DEFINITION('material property','density of part',#1228);
#635=DATE_TIME_ROLE('creation_date');
#636=APPLIED_DATE_AND_TIME_ASSIGNMENT(#637,#635,(#1228));
#637=DATE_AND_TIME(#638,#639);
#638=CALENDAR_DATE(2026,5,1);
#639=LOCAL_TIME(0,0,0.,#640);
#640=COORDINATED_UNIVERSAL_TIME_OFFSET(0,0,.BEHIND.);
#641=AXIS2_PLACEMENT_3D('',#1023,#766,#767);
#642=AXIS2_PLACEMENT_3D('',#1024,#768,#769);
#643=AXIS2_PLACEMENT_3D('',#1026,#770,#771);
#644=AXIS2_PLACEMENT_3D('',#1029,#773,#774);
#645=AXIS2_PLACEMENT_3D('',#1030,#775,#776);
#646=AXIS2_PLACEMENT_3D('',#1033,#777,#778);
#647=AXIS2_PLACEMENT_3D('',#1035,#779,#780);
#648=AXIS2_PLACEMENT_3D('',#1036,#781,#782);
#649=AXIS2_PLACEMENT_3D('',#1037,#783,#784);
#650=AXIS2_PLACEMENT_3D('',#1038,#785,#786);
#651=AXIS2_PLACEMENT_3D('',#1041,#787,#788);
#652=AXIS2_PLACEMENT_3D('',#1042,#789,#790);
#653=AXIS2_PLACEMENT_3D('',#1044,#792,#793);
#654=AXIS2_PLACEMENT_3D('',#1046,#794,#795);
#655=AXIS2_PLACEMENT_3D('',#1047,#796,#797);
#656=AXIS2_PLACEMENT_3D('',#1048,#798,#799);
#657=AXIS2_PLACEMENT_3D('',#1051,#800,#801);
#658=AXIS2_PLACEMENT_3D('',#1052,#802,#803);
#659=AXIS2_PLACEMENT_3D('',#1054,#804,#805);
#660=AXIS2_PLACEMENT_3D('',#1055,#806,#807);
#661=AXIS2_PLACEMENT_3D('',#1056,#808,#809);
#662=AXIS2_PLACEMENT_3D('',#1060,#811,#812);
#663=AXIS2_PLACEMENT_3D('',#1061,#813,#814);
#664=AXIS2_PLACEMENT_3D('',#1062,#815,#816);
#665=AXIS2_PLACEMENT_3D('',#1064,#817,#818);
#666=AXIS2_PLACEMENT_3D('',#1065,#819,#820);
#667=AXIS2_PLACEMENT_3D('',#1066,#821,#822);
#668=AXIS2_PLACEMENT_3D('',#1068,#823,#824);
#669=AXIS2_PLACEMENT_3D('',#1069,#825,#826);
#670=AXIS2_PLACEMENT_3D('',#1071,#827,#828);
#671=AXIS2_PLACEMENT_3D('',#1073,#829,#830);
#672=AXIS2_PLACEMENT_3D('',#1074,#831,#832);
#673=AXIS2_PLACEMENT_3D('',#1075,#833,#834);
#674=AXIS2_PLACEMENT_3D('',#1078,#835,#836);
#675=AXIS2_PLACEMENT_3D('',#1080,#838,#839);
#676=AXIS2_PLACEMENT_3D('',#1081,#840,#841);
#677=AXIS2_PLACEMENT_3D('',#1083,#842,#843);
#678=AXIS2_PLACEMENT_3D('',#1084,#844,#845);
#679=AXIS2_PLACEMENT_3D('',#1085,#846,#847);
#680=AXIS2_PLACEMENT_3D('',#1086,#848,#849);
#681=AXIS2_PLACEMENT_3D('',#1088,#850,#851);
#682=AXIS2_PLACEMENT_3D('',#1089,#852,#853);
#683=AXIS2_PLACEMENT_3D('',#1092,#854,#855);
#684=AXIS2_PLACEMENT_3D('',#1093,#856,#857);
#685=AXIS2_PLACEMENT_3D('',#1094,#858,#859);
#686=AXIS2_PLACEMENT_3D('',#1095,#860,#861);
#687=AXIS2_PLACEMENT_3D('',#1098,#862,#863);
#688=AXIS2_PLACEMENT_3D('',#1100,#865,#866);
#689=AXIS2_PLACEMENT_3D('',#1101,#867,#868);
#690=AXIS2_PLACEMENT_3D('',#1103,#869,#870);
#691=AXIS2_PLACEMENT_3D('',#1104,#871,#872);
#692=AXIS2_PLACEMENT_3D('',#1105,#873,#874);
#693=AXIS2_PLACEMENT_3D('',#1107,#875,#876);
#694=AXIS2_PLACEMENT_3D('',#1108,#877,#878);
#695=AXIS2_PLACEMENT_3D('',#1110,#879,#880);
#696=AXIS2_PLACEMENT_3D('',#1112,#881,#882);
#697=AXIS2_PLACEMENT_3D('',#1113,#883,#884);
#698=AXIS2_PLACEMENT_3D('',#1114,#885,#886);
#699=AXIS2_PLACEMENT_3D('',#1118,#888,#889);
#700=AXIS2_PLACEMENT_3D('',#1119,#890,#891);
#701=AXIS2_PLACEMENT_3D('',#1120,#892,#893);
#702=AXIS2_PLACEMENT_3D('',#1122,#894,#895);
#703=AXIS2_PLACEMENT_3D('',#1123,#896,#897);
#704=AXIS2_PLACEMENT_3D('',#1124,#898,#899);
#705=AXIS2_PLACEMENT_3D('',#1127,#900,#901);
#706=AXIS2_PLACEMENT_3D('',#1129,#902,#903);
#707=AXIS2_PLACEMENT_3D('',#1131,#904,#905);
#708=AXIS2_PLACEMENT_3D('',#1132,#906,#907);
#709=AXIS2_PLACEMENT_3D('',#1133,#908,#909);
#710=AXIS2_PLACEMENT_3D('',#1134,#910,#911);
#711=AXIS2_PLACEMENT_3D('',#1137,#912,#913);
#712=AXIS2_PLACEMENT_3D('',#1139,#914,#915);
#713=AXIS2_PLACEMENT_3D('',#1141,#916,#917);
#714=AXIS2_PLACEMENT_3D('',#1142,#918,#919);
#715=AXIS2_PLACEMENT_3D('',#1143,#920,#921);
#716=AXIS2_PLACEMENT_3D('',#1144,#922,#923);
#717=AXIS2_PLACEMENT_3D('',#1147,#924,#925);
#718=AXIS2_PLACEMENT_3D('',#1149,#926,#927);
#719=AXIS2_PLACEMENT_3D('',#1151,#928,#929);
#720=AXIS2_PLACEMENT_3D('',#1152,#930,#931);
#721=AXIS2_PLACEMENT_3D('',#1153,#932,#933);
#722=AXIS2_PLACEMENT_3D('',#1154,#934,#935);
#723=AXIS2_PLACEMENT_3D('',#1157,#936,#937);
#724=AXIS2_PLACEMENT_3D('',#1159,#938,#939);
#725=AXIS2_PLACEMENT_3D('',#1161,#940,#941);
#726=AXIS2_PLACEMENT_3D('',#1162,#942,#943);
#727=AXIS2_PLACEMENT_3D('',#1163,#944,#945);
#728=AXIS2_PLACEMENT_3D('',#1164,#946,#947);
#729=AXIS2_PLACEMENT_3D('',#1167,#948,#949);
#730=AXIS2_PLACEMENT_3D('',#1169,#950,#951);
#731=AXIS2_PLACEMENT_3D('',#1170,#952,#953);
#732=AXIS2_PLACEMENT_3D('',#1171,#954,#955);
#733=AXIS2_PLACEMENT_3D('',#1172,#956,#957);
#734=AXIS2_PLACEMENT_3D('',#1174,#958,#959);
#735=AXIS2_PLACEMENT_3D('',#1176,#960,#961);
#736=AXIS2_PLACEMENT_3D('',#1177,#962,#963);
#737=AXIS2_PLACEMENT_3D('',#1178,#964,#965);
#738=AXIS2_PLACEMENT_3D('',#1181,#966,#967);
#739=AXIS2_PLACEMENT_3D('',#1183,#968,#969);
#740=AXIS2_PLACEMENT_3D('',#1185,#970,#971);
#741=AXIS2_PLACEMENT_3D('',#1186,#972,#973);
#742=AXIS2_PLACEMENT_3D('',#1187,#974,#975);
#743=AXIS2_PLACEMENT_3D('',#1188,#976,#977);
#744=AXIS2_PLACEMENT_3D('',#1191,#978,#979);
#745=AXIS2_PLACEMENT_3D('',#1193,#981,#982);
#746=AXIS2_PLACEMENT_3D('',#1194,#983,#984);
#747=AXIS2_PLACEMENT_3D('',#1196,#985,#986);
#748=AXIS2_PLACEMENT_3D('',#1197,#987,#988);
#749=AXIS2_PLACEMENT_3D('',#1198,#989,#990);
#750=AXIS2_PLACEMENT_3D('',#1199,#991,#992);
#751=AXIS2_PLACEMENT_3D('',#1200,#993,#994);
#752=AXIS2_PLACEMENT_3D('',#1201,#995,#996);
#753=AXIS2_PLACEMENT_3D('',#1202,#997,#998);
#754=AXIS2_PLACEMENT_3D('',#1203,#999,#1000);
#755=AXIS2_PLACEMENT_3D('',#1204,#1001,#1002);
#756=AXIS2_PLACEMENT_3D('',#1205,#1003,#1004);
#757=AXIS2_PLACEMENT_3D('',#1206,#1005,#1006);
#758=AXIS2_PLACEMENT_3D('',#1207,#1007,#1008);
#759=AXIS2_PLACEMENT_3D('',#1208,#1009,#1010);
#760=AXIS2_PLACEMENT_3D('',#1209,#1011,#1012);
#761=AXIS2_PLACEMENT_3D('',#1210,#1013,#1014);
#762=AXIS2_PLACEMENT_3D('',#1211,#1015,#1016);
#763=AXIS2_PLACEMENT_3D('',#1213,#1017,#1018);
#764=AXIS2_PLACEMENT_3D('',#1214,#1019,#1020);
#765=AXIS2_PLACEMENT_3D('',#1215,#1021,#1022);
#766=DIRECTION('axis',(0.,0.,1.));
#767=DIRECTION('refdir',(1.,0.,0.));
#768=DIRECTION('center_axis',(-1.,0.,0.));
#769=DIRECTION('ref_axis',(0.,0.,1.));
#770=DIRECTION('center_axis',(1.,0.,0.));
#771=DIRECTION('ref_axis',(0.,0.,1.));
#772=DIRECTION('',(1.,0.,0.));
#773=DIRECTION('center_axis',(-1.,0.,0.));
#774=DIRECTION('ref_axis',(0.,0.,1.));
#775=DIRECTION('center_axis',(1.,0.,0.));
#776=DIRECTION('ref_axis',(0.,0.,-1.));
#777=DIRECTION('center_axis',(-1.,0.,0.));
#778=DIRECTION('ref_axis',(0.,1.,1.83697019872103E-16));
#779=DIRECTION('center_axis',(0.,-1.,-1.22464679914735E-16));
#780=DIRECTION('ref_axis',(0.,-1.22464679914735E-16,1.));
#781=DIRECTION('center_axis',(1.,0.,0.));
#782=DIRECTION('ref_axis',(0.,1.,1.83697019872103E-16));
#783=DIRECTION('center_axis',(-1.,0.,0.));
#784=DIRECTION('ref_axis',(0.,1.,1.83697019872103E-16));
#785=DIRECTION('center_axis',(1.,0.,0.));
#786=DIRECTION('ref_axis',(0.,-1.,0.));
#787=DIRECTION('center_axis',(1.,0.,0.));
#788=DIRECTION('ref_axis',(0.,1.,1.83697019872103E-16));
#789=DIRECTION('center_axis',(1.,0.,0.));
#790=DIRECTION('ref_axis',(0.,1.,1.83697019872103E-16));
#791=DIRECTION('',(-1.,0.,0.));
#792=DIRECTION('center_axis',(1.,0.,0.));
#793=DIRECTION('ref_axis',(0.,0.,-1.));
#794=DIRECTION('center_axis',(-1.,0.,0.));
#795=DIRECTION('ref_axis',(0.,1.,1.83697019872103E-16));
#796=DIRECTION('center_axis',(0.,-1.,-1.22464679914735E-16));
#797=DIRECTION('ref_axis',(0.,-1.22464679914735E-16,1.));
#798=DIRECTION('center_axis',(-1.,0.,0.));
#799=DIRECTION('ref_axis',(0.,0.,1.));
#800=DIRECTION('center_axis',(-1.,0.,0.));
#801=DIRECTION('ref_axis',(0.,0.,1.));
#802=DIRECTION('center_axis',(-1.,0.,0.));
#803=DIRECTION('ref_axis',(0.,0.,1.));
#804=DIRECTION('center_axis',(0.,-1.,1.22464679914735E-16));
#805=DIRECTION('ref_axis',(0.,-1.22464679914735E-16,-1.));
#806=DIRECTION('center_axis',(1.,0.,0.));
#807=DIRECTION('ref_axis',(0.,0.,-1.));
#808=DIRECTION('center_axis',(-1.,0.,0.));
#809=DIRECTION('ref_axis',(0.,1.,0.));
#810=DIRECTION('',(1.,0.,0.));
#811=DIRECTION('center_axis',(-1.,0.,0.));
#812=DIRECTION('ref_axis',(0.,0.,1.));
#813=DIRECTION('center_axis',(-1.,0.,0.));
#814=DIRECTION('ref_axis',(0.,0.,1.));
#815=DIRECTION('center_axis',(-1.,0.,0.));
#816=DIRECTION('ref_axis',(0.,0.,1.));
#817=DIRECTION('center_axis',(0.,-1.,1.22464679914735E-16));
#818=DIRECTION('ref_axis',(0.,-1.22464679914735E-16,-1.));
#819=DIRECTION('center_axis',(-1.,0.,0.));
#820=DIRECTION('ref_axis',(0.,0.,1.));
#821=DIRECTION('center_axis',(-1.,0.,0.));
#822=DIRECTION('ref_axis',(0.,0.,1.));
#823=DIRECTION('center_axis',(-1.,0.,0.));
#824=DIRECTION('ref_axis',(0.,0.,1.));
#825=DIRECTION('center_axis',(-1.,0.,0.));
#826=DIRECTION('ref_axis',(0.,0.,1.));
#827=DIRECTION('center_axis',(0.,-1.,1.22464679914735E-16));
#828=DIRECTION('ref_axis',(0.,-1.22464679914735E-16,-1.));
#829=DIRECTION('center_axis',(-1.,0.,0.));
#830=DIRECTION('ref_axis',(0.,0.,1.));
#831=DIRECTION('center_axis',(-1.,0.,0.));
#832=DIRECTION('ref_axis',(0.,0.,1.));
#833=DIRECTION('center_axis',(1.,0.,0.));
#834=DIRECTION('ref_axis',(0.,1.,0.));
#835=DIRECTION('center_axis',(-1.,0.,0.));
#836=DIRECTION('ref_axis',(0.,0.,1.));
#837=DIRECTION('',(0.993441349315393,-0.114342841797866,1.40029595213169E-17));
#838=DIRECTION('center_axis',(-1.,0.,0.));
#839=DIRECTION('ref_axis',(0.,0.,1.));
#840=DIRECTION('center_axis',(-1.,0.,0.));
#841=DIRECTION('ref_axis',(0.,0.,1.));
#842=DIRECTION('center_axis',(-1.,0.,0.));
#843=DIRECTION('ref_axis',(0.,0.,1.));
#844=DIRECTION('center_axis',(0.,-1.,1.22464679914735E-16));
#845=DIRECTION('ref_axis',(0.,-1.22464679914735E-16,-1.));
#846=DIRECTION('center_axis',(-1.,0.,0.));
#847=DIRECTION('ref_axis',(0.,0.,1.));
#848=DIRECTION('center_axis',(1.,0.,0.));
#849=DIRECTION('ref_axis',(0.,0.,-1.));
#850=DIRECTION('center_axis',(-1.,0.,0.));
#851=DIRECTION('ref_axis',(0.,0.,1.));
#852=DIRECTION('center_axis',(-1.,0.,0.));
#853=DIRECTION('ref_axis',(0.,0.,1.));
#854=DIRECTION('center_axis',(-1.,0.,0.));
#855=DIRECTION('ref_axis',(0.,0.,1.));
#856=DIRECTION('center_axis',(-1.,0.,0.));
#857=DIRECTION('ref_axis',(0.,0.,1.));
#858=DIRECTION('center_axis',(0.,-1.,1.22464679914735E-16));
#859=DIRECTION('ref_axis',(0.,-1.22464679914735E-16,-1.));
#860=DIRECTION('center_axis',(-1.,0.,0.));
#861=DIRECTION('ref_axis',(0.,1.,0.));
#862=DIRECTION('center_axis',(-1.,0.,0.));
#863=DIRECTION('ref_axis',(0.,0.,1.));
#864=DIRECTION('',(0.993441349315393,0.114342841797866,-1.40029595213169E-17));
#865=DIRECTION('center_axis',(-1.,0.,0.));
#866=DIRECTION('ref_axis',(0.,0.,1.));
#867=DIRECTION('center_axis',(-1.,0.,0.));
#868=DIRECTION('ref_axis',(0.,0.,1.));
#869=DIRECTION('center_axis',(0.,-1.,1.22464679914735E-16));
#870=DIRECTION('ref_axis',(0.,-1.22464679914735E-16,-1.));
#871=DIRECTION('center_axis',(-1.,0.,0.));
#872=DIRECTION('ref_axis',(0.,0.,1.));
#873=DIRECTION('center_axis',(1.,0.,0.));
#874=DIRECTION('ref_axis',(0.,0.,-1.));
#875=DIRECTION('center_axis',(-1.,0.,0.));
#876=DIRECTION('ref_axis',(0.,0.,1.));
#877=DIRECTION('center_axis',(-1.,0.,0.));
#878=DIRECTION('ref_axis',(0.,0.,1.));
#879=DIRECTION('center_axis',(0.,-1.,1.22464679914735E-16));
#880=DIRECTION('ref_axis',(0.,-1.22464679914735E-16,-1.));
#881=DIRECTION('center_axis',(-1.,0.,0.));
#882=DIRECTION('ref_axis',(0.,0.,1.));
#883=DIRECTION('center_axis',(-1.,0.,0.));
#884=DIRECTION('ref_axis',(0.,0.,1.));
#885=DIRECTION('center_axis',(-1.,0.,0.));
#886=DIRECTION('ref_axis',(0.,1.,0.));
#887=DIRECTION('',(1.,0.,0.));
#888=DIRECTION('center_axis',(-1.,0.,0.));
#889=DIRECTION('ref_axis',(0.,0.,1.));
#890=DIRECTION('center_axis',(-1.,0.,0.));
#891=DIRECTION('ref_axis',(0.,0.,1.));
#892=DIRECTION('center_axis',(-1.,0.,0.));
#893=DIRECTION('ref_axis',(0.,0.,1.));
#894=DIRECTION('center_axis',(1.,0.,0.));
#895=DIRECTION('ref_axis',(0.,0.,-1.));
#896=DIRECTION('center_axis',(0.,-1.,1.22464679914735E-16));
#897=DIRECTION('ref_axis',(0.,-1.22464679914735E-16,-1.));
#898=DIRECTION('center_axis',(-1.,-2.32901707200746E-47,-2.0032438780337E-31));
#899=DIRECTION('ref_axis',(0.,1.,-1.16262283266954E-16));
#900=DIRECTION('center_axis',(-1.,0.,0.));
#901=DIRECTION('ref_axis',(0.,1.,0.));
#902=DIRECTION('center_axis',(-2.0032438780337E-31,-6.20239664778126E-18,
1.));
#903=DIRECTION('ref_axis',(0.,-1.,-6.20239664778126E-18));
#904=DIRECTION('center_axis',(1.,0.,0.));
#905=DIRECTION('ref_axis',(0.,-1.,0.));
#906=DIRECTION('center_axis',(1.,0.,0.));
#907=DIRECTION('ref_axis',(0.,-1.,0.));
#908=DIRECTION('center_axis',(-1.,0.,0.));
#909=DIRECTION('ref_axis',(0.,1.,0.));
#910=DIRECTION('center_axis',(-1.,2.67318867350605E-47,2.04379928125714E-31));
#911=DIRECTION('ref_axis',(0.,1.,-1.30795068675323E-16));
#912=DIRECTION('center_axis',(-1.,0.,0.));
#913=DIRECTION('ref_axis',(0.,1.,0.));
#914=DIRECTION('center_axis',(2.04379928125714E-31,8.330388760588E-18,1.));
#915=DIRECTION('ref_axis',(0.,-1.,8.330388760588E-18));
#916=DIRECTION('center_axis',(1.,0.,0.));
#917=DIRECTION('ref_axis',(0.,-1.,0.));
#918=DIRECTION('center_axis',(1.,0.,0.));
#919=DIRECTION('ref_axis',(0.,-1.,0.));
#920=DIRECTION('center_axis',(-1.,0.,0.));
#921=DIRECTION('ref_axis',(0.,1.,0.));
#922=DIRECTION('center_axis',(-1.,-1.66852819422488E-47,-1.27568127080289E-31));
#923=DIRECTION('ref_axis',(0.,1.,-1.30795068675323E-16));
#924=DIRECTION('center_axis',(-1.,0.,0.));
#925=DIRECTION('ref_axis',(0.,1.,0.));
#926=DIRECTION('center_axis',(-1.27568127080289E-31,8.330388760588E-18,
1.));
#927=DIRECTION('ref_axis',(0.,-1.,8.330388760588E-18));
#928=DIRECTION('center_axis',(1.,0.,0.));
#929=DIRECTION('ref_axis',(0.,-1.,0.));
#930=DIRECTION('center_axis',(1.,0.,0.));
#931=DIRECTION('ref_axis',(0.,-1.,0.));
#932=DIRECTION('center_axis',(-1.,0.,0.));
#933=DIRECTION('ref_axis',(0.,1.,0.));
#934=DIRECTION('center_axis',(-1.,-1.74081044537997E-48,1.41742363422542E-32));
#935=DIRECTION('ref_axis',(0.,-1.,-1.2281511351624E-16));
#936=DIRECTION('center_axis',(-1.,0.,0.));
#937=DIRECTION('ref_axis',(0.,-1.,0.));
#938=DIRECTION('center_axis',(-1.41742363422542E-32,2.45279793430976E-16,
-1.));
#939=DIRECTION('ref_axis',(0.,1.,2.45279793430976E-16));
#940=DIRECTION('center_axis',(1.,0.,0.));
#941=DIRECTION('ref_axis',(0.,1.,0.));
#942=DIRECTION('center_axis',(1.,0.,0.));
#943=DIRECTION('ref_axis',(0.,1.,0.));
#944=DIRECTION('center_axis',(-1.,0.,0.));
#945=DIRECTION('ref_axis',(0.,-1.,0.));
#946=DIRECTION('center_axis',(1.,0.,0.));
#947=DIRECTION('ref_axis',(0.,0.,-1.));
#948=DIRECTION('center_axis',(1.,0.,0.));
#949=DIRECTION('ref_axis',(0.,1.,7.17936127671767E-33));
#950=DIRECTION('center_axis',(0.,-1.,-1.22464679914735E-16));
#951=DIRECTION('ref_axis',(0.,-1.22464679914735E-16,1.));
#952=DIRECTION('center_axis',(-1.,0.,0.));
#953=DIRECTION('ref_axis',(0.,1.,0.));
#954=DIRECTION('center_axis',(1.,0.,0.));
#955=DIRECTION('ref_axis',(0.,1.,7.17936127671767E-33));
#956=DIRECTION('center_axis',(1.,3.91815976919861E-47,2.99564793144059E-31));
#957=DIRECTION('ref_axis',(0.,1.,-1.30795068675323E-16));
#958=DIRECTION('center_axis',(2.99564793144059E-31,-2.53259748590059E-16,
-1.));
#959=DIRECTION('ref_axis',(0.,-1.,2.53259748590059E-16));
#960=DIRECTION('center_axis',(1.,0.,0.));
#961=DIRECTION('ref_axis',(0.,-1.,0.));
#962=DIRECTION('center_axis',(1.,0.,0.));
#963=DIRECTION('ref_axis',(0.,-1.,0.));
#964=DIRECTION('center_axis',(-1.,-2.23662385710386E-47,1.82113079821247E-31));
#965=DIRECTION('ref_axis',(0.,-1.,-1.2281511351624E-16));
#966=DIRECTION('center_axis',(-1.,0.,0.));
#967=DIRECTION('ref_axis',(0.,-1.,0.));
#968=DIRECTION('center_axis',(-1.82113079821247E-31,2.45279793430976E-16,
-1.));
#969=DIRECTION('ref_axis',(0.,1.,2.45279793430976E-16));
#970=DIRECTION('center_axis',(1.,0.,0.));
#971=DIRECTION('ref_axis',(0.,1.,0.));
#972=DIRECTION('center_axis',(1.,0.,0.));
#973=DIRECTION('ref_axis',(0.,1.,0.));
#974=DIRECTION('center_axis',(-1.,0.,0.));
#975=DIRECTION('ref_axis',(0.,-1.,0.));
#976=DIRECTION('center_axis',(1.,0.,0.));
#977=DIRECTION('ref_axis',(0.,-1.,0.));
#978=DIRECTION('center_axis',(-1.,0.,0.));
#979=DIRECTION('ref_axis',(0.,-1.,0.));
#980=DIRECTION('',(-1.,0.,0.));
#981=DIRECTION('center_axis',(-1.,0.,0.));
#982=DIRECTION('ref_axis',(0.,-1.,0.));
#983=DIRECTION('center_axis',(-1.,0.,0.));
#984=DIRECTION('ref_axis',(0.,0.,1.));
#985=DIRECTION('center_axis',(1.,0.,0.));
#986=DIRECTION('ref_axis',(0.,0.,-1.));
#987=DIRECTION('center_axis',(1.,0.,0.));
#988=DIRECTION('ref_axis',(0.,0.,-1.));
#989=DIRECTION('center_axis',(0.,-1.,-1.22464679914735E-16));
#990=DIRECTION('ref_axis',(0.,-1.22464679914735E-16,1.));
#991=DIRECTION('center_axis',(1.,0.,0.));
#992=DIRECTION('ref_axis',(0.,0.,-1.));
#993=DIRECTION('center_axis',(0.,-1.,-1.22464679914735E-16));
#994=DIRECTION('ref_axis',(0.,-1.22464679914735E-16,1.));
#995=DIRECTION('center_axis',(1.,0.,0.));
#996=DIRECTION('ref_axis',(0.,0.,-1.));
#997=DIRECTION('center_axis',(0.,-1.,-1.22464679914735E-16));
#998=DIRECTION('ref_axis',(0.,-1.22464679914735E-16,1.));
#999=DIRECTION('center_axis',(1.,0.,0.));
#1000=DIRECTION('ref_axis',(0.,0.,-1.));
#1001=DIRECTION('center_axis',(0.,-1.,-1.22464679914735E-16));
#1002=DIRECTION('ref_axis',(0.,-1.22464679914735E-16,1.));
#1003=DIRECTION('center_axis',(1.,0.,0.));
#1004=DIRECTION('ref_axis',(0.,0.,-1.));
#1005=DIRECTION('center_axis',(0.,-1.,-1.22464679914735E-16));
#1006=DIRECTION('ref_axis',(0.,-1.22464679914735E-16,1.));
#1007=DIRECTION('center_axis',(1.,0.,0.));
#1008=DIRECTION('ref_axis',(0.,0.,-1.));
#1009=DIRECTION('center_axis',(0.,-1.,-1.22464679914735E-16));
#1010=DIRECTION('ref_axis',(0.,-1.22464679914735E-16,1.));
#1011=DIRECTION('center_axis',(1.,0.,0.));
#1012=DIRECTION('ref_axis',(0.,0.,-1.));
#1013=DIRECTION('center_axis',(0.,-1.,-1.22464679914735E-16));
#1014=DIRECTION('ref_axis',(0.,-1.22464679914735E-16,1.));
#1015=DIRECTION('center_axis',(1.,0.,0.));
#1016=DIRECTION('ref_axis',(0.,0.,-1.));
#1017=DIRECTION('center_axis',(1.,0.,0.));
#1018=DIRECTION('ref_axis',(0.,0.,-1.));
#1019=DIRECTION('center_axis',(0.,-1.,-1.22464679914735E-16));
#1020=DIRECTION('ref_axis',(0.,-1.22464679914735E-16,1.));
#1021=DIRECTION('center_axis',(1.,0.,0.));
#1022=DIRECTION('ref_axis',(0.,0.,-1.));
#1023=CARTESIAN_POINT('',(0.,0.,0.));
#1024=CARTESIAN_POINT('Origin',(201.575490606641,0.,0.));
#1025=CARTESIAN_POINT('',(-22.,-6.73555739531044E-16,-5.5));
#1026=CARTESIAN_POINT('Origin',(-22.,0.,0.));
#1027=CARTESIAN_POINT('',(22.,-6.73555739531044E-16,-5.5));
#1028=CARTESIAN_POINT('',(201.575490606641,-6.73555739531044E-16,-5.5));
#1029=CARTESIAN_POINT('Origin',(22.,0.,0.));
#1030=CARTESIAN_POINT('Origin',(-5.18300166313686,0.,0.));
#1031=CARTESIAN_POINT('',(-5.18300166313686,77.5,9.49101269339199E-15));
#1032=CARTESIAN_POINT('',(-5.18300166313686,-9.49101269339199E-15,77.5));
#1033=CARTESIAN_POINT('Origin',(-5.18300166313686,0.,0.));
#1034=CARTESIAN_POINT('',(-6.59740626838981,-9.41925114564354E-15,76.9140224936822));
#1035=CARTESIAN_POINT('Origin',(-5.18300166313686,-9.24608333356252E-15,
75.5));
#1036=CARTESIAN_POINT('Origin',(-6.59740626838981,0.,0.));
#1037=CARTESIAN_POINT('Origin',(-5.18300166313686,0.,0.));
#1038=CARTESIAN_POINT('Origin',(-4.44089209850063E-15,0.,0.));
#1039=CARTESIAN_POINT('',(5.18300166313685,-9.49101269339199E-15,77.5));
#1040=CARTESIAN_POINT('',(5.18300166313685,77.5,9.49101269339199E-15));
#1041=CARTESIAN_POINT('Origin',(5.18300166313685,0.,0.));
#1042=CARTESIAN_POINT('Origin',(5.18300166313685,0.,0.));
#1043=CARTESIAN_POINT('',(-4.44089209850063E-15,77.5,9.49101269339199E-15));
#1044=CARTESIAN_POINT('Origin',(5.18300166313685,0.,0.));
#1045=CARTESIAN_POINT('',(6.5974062683898,-9.41925114564354E-15,76.9140224936822));
#1046=CARTESIAN_POINT('Origin',(6.5974062683898,0.,0.));
#1047=CARTESIAN_POINT('Origin',(5.18300166313685,-9.24608333356252E-15,
75.5));
#1048=CARTESIAN_POINT('Origin',(-16.,0.,0.));
#1049=CARTESIAN_POINT('',(-16.,-24.5,3.00038465791102E-15));
#1050=CARTESIAN_POINT('',(-16.,-3.00038465791102E-15,-24.5));
#1051=CARTESIAN_POINT('Origin',(-16.,0.,0.));
#1052=CARTESIAN_POINT('Origin',(-16.,0.,0.));
#1053=CARTESIAN_POINT('',(-19.,-3.36777869765522E-15,-27.5));
#1054=CARTESIAN_POINT('Origin',(-16.,-3.36777869765522E-15,-27.5));
#1055=CARTESIAN_POINT('Origin',(-19.,0.,0.));
#1056=CARTESIAN_POINT('Origin',(-11.75,0.,0.));
#1057=CARTESIAN_POINT('',(-7.50000000000001,-24.5,3.00038465791102E-15));
#1058=CARTESIAN_POINT('',(-11.75,-24.5,3.00038465791102E-15));
#1059=CARTESIAN_POINT('',(-7.50000000000001,-3.00038465791102E-15,-24.5));
#1060=CARTESIAN_POINT('Origin',(-7.50000000000001,0.,0.));
#1061=CARTESIAN_POINT('Origin',(-7.50000000000001,0.,0.));
#1062=CARTESIAN_POINT('Origin',(-7.50000000000001,0.,0.));
#1063=CARTESIAN_POINT('',(-6.00000000000001,-2.81668763803891E-15,-23.));
#1064=CARTESIAN_POINT('Origin',(-7.50000000000001,-2.81668763803891E-15,
-23.));
#1065=CARTESIAN_POINT('Origin',(-6.00000000000001,0.,0.));
#1066=CARTESIAN_POINT('Origin',(-6.,11.1788199758801,0.));
#1067=CARTESIAN_POINT('',(-6.,-1.36901061017061E-15,-11.1788199758801));
#1068=CARTESIAN_POINT('Origin',(-6.,0.,0.));
#1069=CARTESIAN_POINT('Origin',(-7.49999999999999,0.,0.));
#1070=CARTESIAN_POINT('',(-7.32848573730319,-1.18651839488365E-15,-9.68865795190702));
#1071=CARTESIAN_POINT('Origin',(-7.49999999999999,-1.36901061017061E-15,
-11.1788199758801));
#1072=CARTESIAN_POINT('',(-7.32848573730319,-9.68865795190702,1.18651839488365E-15));
#1073=CARTESIAN_POINT('Origin',(-7.32848573730319,0.,0.));
#1074=CARTESIAN_POINT('Origin',(-7.32848573730319,0.,0.));
#1075=CARTESIAN_POINT('Origin',(-14.,0.,0.));
#1076=CARTESIAN_POINT('',(-20.6715142626968,-8.15290568949628,9.98442985639186E-16));
#1077=CARTESIAN_POINT('',(-20.6715142626968,-9.98442985639186E-16,-8.15290568949628));
#1078=CARTESIAN_POINT('Origin',(-20.6715142626968,0.,0.));
#1079=CARTESIAN_POINT('',(-14.,-8.92078182070165,1.09248069026142E-15));
#1080=CARTESIAN_POINT('Origin',(-20.6715142626968,0.,0.));
#1081=CARTESIAN_POINT('Origin',(-20.5,0.,0.));
#1082=CARTESIAN_POINT('',(-22.,-8.15950770352228E-16,-6.66274366552319));
#1083=CARTESIAN_POINT('Origin',(-22.,0.,0.));
#1084=CARTESIAN_POINT('Origin',(-20.5,-8.15950770352228E-16,-6.66274366552319));
#1085=CARTESIAN_POINT('Origin',(-22.,0.,0.));
#1086=CARTESIAN_POINT('Origin',(22.,6.66274366552319,0.));
#1087=CARTESIAN_POINT('',(22.,-8.15950770352228E-16,-6.66274366552319));
#1088=CARTESIAN_POINT('Origin',(22.,0.,0.));
#1089=CARTESIAN_POINT('Origin',(20.5,0.,0.));
#1090=CARTESIAN_POINT('',(20.6715142626968,-8.15290568949628,9.98442985639186E-16));
#1091=CARTESIAN_POINT('',(20.6715142626968,-9.98442985639186E-16,-8.15290568949628));
#1092=CARTESIAN_POINT('Origin',(20.6715142626968,0.,0.));
#1093=CARTESIAN_POINT('Origin',(20.6715142626968,0.,0.));
#1094=CARTESIAN_POINT('Origin',(20.5,-8.15950770352228E-16,-6.66274366552319));
#1095=CARTESIAN_POINT('Origin',(14.,0.,0.));
#1096=CARTESIAN_POINT('',(7.32848573730319,-9.68865795190702,1.18651839488365E-15));
#1097=CARTESIAN_POINT('',(7.32848573730319,-1.18651839488365E-15,-9.68865795190702));
#1098=CARTESIAN_POINT('Origin',(7.32848573730319,0.,0.));
#1099=CARTESIAN_POINT('',(14.,-8.92078182070165,1.09248069026142E-15));
#1100=CARTESIAN_POINT('Origin',(7.32848573730319,0.,0.));
#1101=CARTESIAN_POINT('Origin',(7.49999999999999,0.,0.));
#1102=CARTESIAN_POINT('',(6.,-1.36901061017061E-15,-11.1788199758801));
#1103=CARTESIAN_POINT('Origin',(7.49999999999999,-1.36901061017061E-15,
-11.1788199758801));
#1104=CARTESIAN_POINT('Origin',(6.,0.,0.));
#1105=CARTESIAN_POINT('Origin',(6.,23.,0.));
#1106=CARTESIAN_POINT('',(6.,-2.81668763803891E-15,-23.));
#1107=CARTESIAN_POINT('Origin',(6.,0.,0.));
#1108=CARTESIAN_POINT('Origin',(7.5,0.,0.));
#1109=CARTESIAN_POINT('',(7.5,-3.00038465791102E-15,-24.5));
#1110=CARTESIAN_POINT('Origin',(7.5,-2.81668763803891E-15,-23.));
#1111=CARTESIAN_POINT('',(7.5,-24.5,3.00038465791102E-15));
#1112=CARTESIAN_POINT('Origin',(7.5,0.,0.));
#1113=CARTESIAN_POINT('Origin',(7.5,0.,0.));
#1114=CARTESIAN_POINT('Origin',(11.75,0.,0.));
#1115=CARTESIAN_POINT('',(16.,-24.5,3.00038465791102E-15));
#1116=CARTESIAN_POINT('',(11.75,-24.5,3.00038465791102E-15));
#1117=CARTESIAN_POINT('',(16.,-3.00038465791102E-15,-24.5));
#1118=CARTESIAN_POINT('Origin',(16.,0.,0.));
#1119=CARTESIAN_POINT('Origin',(16.,0.,0.));
#1120=CARTESIAN_POINT('Origin',(16.,0.,0.));
#1121=CARTESIAN_POINT('',(19.,-3.36777869765522E-15,-27.5));
#1122=CARTESIAN_POINT('Origin',(19.,0.,0.));
#1123=CARTESIAN_POINT('Origin',(16.,-3.36777869765522E-15,-27.5));
#1124=CARTESIAN_POINT('Origin',(13.4740584658995,0.,0.));
#1125=CARTESIAN_POINT('',(14.9931504989598,-65.,7.96020419445779E-15));
#1126=CARTESIAN_POINT('',(14.9931504989598,-7.96020419445779E-15,65.));
#1127=CARTESIAN_POINT('Origin',(14.9931504989598,0.,0.));
#1128=CARTESIAN_POINT('',(15.4512926177396,-64.,-3.96953385458E-16));
#1129=CARTESIAN_POINT('Origin',(13.4740584658995,-63.6990928568523,-3.95087040002048E-16));
#1130=CARTESIAN_POINT('',(15.4512926177396,-7.83773951454306E-15,64.));
#1131=CARTESIAN_POINT('Origin',(15.4512926177396,0.,0.));
#1132=CARTESIAN_POINT('Origin',(15.4512926177396,0.,0.));
#1133=CARTESIAN_POINT('Origin',(14.9931504989598,0.,0.));
#1134=CARTESIAN_POINT('Origin',(14.2879850756479,0.,0.));
#1135=CARTESIAN_POINT('',(15.8788155064282,-63.,7.71527483462833E-15));
#1136=CARTESIAN_POINT('',(15.8788155064282,-7.71527483462833E-15,63.));
#1137=CARTESIAN_POINT('Origin',(15.8788155064282,0.,0.));
#1138=CARTESIAN_POINT('',(16.2767034990233,-62.,5.16484103156456E-16));
#1139=CARTESIAN_POINT('Origin',(14.2879850756479,-61.7878702460118,5.14716979838047E-16));
#1140=CARTESIAN_POINT('',(16.2767034990233,-7.59281015471359E-15,62.));
#1141=CARTESIAN_POINT('Origin',(16.2767034990233,0.,0.));
#1142=CARTESIAN_POINT('Origin',(16.2767034990233,0.,0.));
#1143=CARTESIAN_POINT('Origin',(15.8788155064282,0.,0.));
#1144=CARTESIAN_POINT('Origin',(14.9907703148516,0.,0.));
#1145=CARTESIAN_POINT('',(16.6458351178046,-61.,7.47034547479886E-15));
#1146=CARTESIAN_POINT('',(16.6458351178046,-7.47034547479886E-15,61.));
#1147=CARTESIAN_POINT('Origin',(16.6458351178046,0.,0.));
#1148=CARTESIAN_POINT('',(16.98699458515,-60.,4.9982332563528E-16));
#1149=CARTESIAN_POINT('Origin',(14.9907703148516,-59.8771640823227,4.98800054687265E-16));
#1150=CARTESIAN_POINT('',(16.98699458515,-7.34788079488412E-15,60.));
#1151=CARTESIAN_POINT('Origin',(16.98699458515,0.,0.));
#1152=CARTESIAN_POINT('Origin',(16.98699458515,0.,0.));
#1153=CARTESIAN_POINT('Origin',(16.6458351178046,0.,0.));
#1154=CARTESIAN_POINT('Origin',(-14.9907703148516,0.,0.));
#1155=CARTESIAN_POINT('',(-16.98699458515,60.,-7.34788079488412E-15));
#1156=CARTESIAN_POINT('',(-16.98699458515,-7.34788079488412E-15,60.));
#1157=CARTESIAN_POINT('Origin',(-16.98699458515,0.,0.));
#1158=CARTESIAN_POINT('',(-16.6458351178046,61.,1.49620673992895E-14));
#1159=CARTESIAN_POINT('Origin',(-14.9907703148516,59.8771640823228,1.46866584373448E-14));
#1160=CARTESIAN_POINT('',(-16.6458351178046,-7.47034547479886E-15,61.));
#1161=CARTESIAN_POINT('Origin',(-16.6458351178046,0.,0.));
#1162=CARTESIAN_POINT('Origin',(-16.6458351178046,0.,0.));
#1163=CARTESIAN_POINT('Origin',(-16.98699458515,0.,0.));
#1164=CARTESIAN_POINT('Origin',(-17.5762708053277,0.,0.));
#1165=CARTESIAN_POINT('',(-16.0710090569136,-62.8082926755158,-7.69179745849806E-15));
#1166=CARTESIAN_POINT('',(-16.0710090569136,-7.69179745849805E-15,62.8082926755158));
#1167=CARTESIAN_POINT('Origin',(-16.0710090569136,-5.89785602474988E-47,
-4.50923424291348E-31));
#1168=CARTESIAN_POINT('',(-15.7341958802085,-7.75767578720636E-15,63.3462300526777));
#1169=CARTESIAN_POINT('Origin',(-17.5762708053277,-7.85306940340293E-15,
64.1251780421142));
#1170=CARTESIAN_POINT('Origin',(-15.7341958802085,0.,0.));
#1171=CARTESIAN_POINT('Origin',(-16.0710090569136,-5.89785602474988E-47,
-4.50923424291348E-31));
#1172=CARTESIAN_POINT('Origin',(-14.5657473084994,0.,0.));
#1173=CARTESIAN_POINT('',(-16.5,-62.,1.57021044125836E-14));
#1174=CARTESIAN_POINT('Origin',(-14.5657473084994,-61.4914073089173,1.55732983555053E-14));
#1175=CARTESIAN_POINT('',(-16.5,62.,7.59281015471359E-15));
#1176=CARTESIAN_POINT('Origin',(-16.5,0.,0.));
#1177=CARTESIAN_POINT('Origin',(-16.5,0.,0.));
#1178=CARTESIAN_POINT('Origin',(-13.4740584658995,0.,0.));
#1179=CARTESIAN_POINT('',(-15.4512926177396,64.,-7.83773951454306E-15));
#1180=CARTESIAN_POINT('',(-15.4512926177396,-7.83773951454306E-15,64.));
#1181=CARTESIAN_POINT('Origin',(-15.4512926177396,0.,0.));
#1182=CARTESIAN_POINT('',(-14.9931504989599,65.,1.59431865730134E-14));
#1183=CARTESIAN_POINT('Origin',(-13.4740584658995,63.6990928568523,1.56241003376693E-14));
#1184=CARTESIAN_POINT('',(-14.9931504989599,-7.96020419445779E-15,65.));
#1185=CARTESIAN_POINT('Origin',(-14.9931504989599,0.,0.));
#1186=CARTESIAN_POINT('Origin',(-14.9931504989599,0.,0.));
#1187=CARTESIAN_POINT('Origin',(-15.4512926177396,0.,0.));
#1188=CARTESIAN_POINT('Origin',(0.,0.,0.));
#1189=CARTESIAN_POINT('',(-16.2767034990234,62.,-7.59281015471359E-15));
#1190=CARTESIAN_POINT('',(-16.2767034990234,-7.59281015471359E-15,62.));
#1191=CARTESIAN_POINT('Origin',(-16.2767034990234,0.,0.));
#1192=CARTESIAN_POINT('',(0.,62.,7.59281015471359E-15));
#1193=CARTESIAN_POINT('Origin',(-16.2767034990234,0.,0.));
#1194=CARTESIAN_POINT('Origin',(-19.,-49.7424810643886,0.));
#1195=CARTESIAN_POINT('',(-19.,-6.09169702171513E-15,49.7424810643886));
#1196=CARTESIAN_POINT('Origin',(-19.,0.,0.));
#1197=CARTESIAN_POINT('Origin',(23.6200689780244,0.,0.));
#1198=CARTESIAN_POINT('Origin',(23.6200689780244,-5.71967744827259E-15,
46.7047107154067));
#1199=CARTESIAN_POINT('Origin',(23.6200689780244,0.,0.));
#1200=CARTESIAN_POINT('Origin',(23.6200689780244,-5.71967744827259E-15,
46.7047107154067));
#1201=CARTESIAN_POINT('Origin',(23.6200689780244,0.,0.));
#1202=CARTESIAN_POINT('Origin',(23.6200689780244,-5.71967744827259E-15,
46.7047107154067));
#1203=CARTESIAN_POINT('Origin',(23.6200689780244,0.,0.));
#1204=CARTESIAN_POINT('Origin',(23.6200689780244,-5.71967744827259E-15,
46.7047107154067));
#1205=CARTESIAN_POINT('Origin',(-23.6200689780244,0.,0.));
#1206=CARTESIAN_POINT('Origin',(-23.6200689780244,-5.71967744827259E-15,
46.7047107154067));
#1207=CARTESIAN_POINT('Origin',(-23.6200689780244,0.,0.));
#1208=CARTESIAN_POINT('Origin',(-23.6200689780244,-5.71967744827259E-15,
46.7047107154067));
#1209=CARTESIAN_POINT('Origin',(-23.6200689780244,0.,0.));
#1210=CARTESIAN_POINT('Origin',(-23.6200689780244,-5.71967744827259E-15,
46.7047107154067));
#1211=CARTESIAN_POINT('Origin',(-23.6200689780244,0.,0.));
#1212=CARTESIAN_POINT('',(19.,-6.09169702171513E-15,49.7424810643886));
#1213=CARTESIAN_POINT('Origin',(19.,0.,0.));
#1214=CARTESIAN_POINT('Origin',(-23.6200689780244,-5.71967744827259E-15,
46.7047107154067));
#1215=CARTESIAN_POINT('Origin',(19.,-27.5,0.));
#1216=UNCERTAINTY_MEASURE_WITH_UNIT(LENGTH_MEASURE(0.01),#1220,
'DISTANCE_ACCURACY_VALUE',
'Maximum model space distance between geometric entities at asserted c
onnectivities');
#1217=UNCERTAINTY_MEASURE_WITH_UNIT(LENGTH_MEASURE(0.01),#1220,
'DISTANCE_ACCURACY_VALUE',
'Maximum model space distance between geometric entities at asserted c
onnectivities');
#1218=(
GEOMETRIC_REPRESENTATION_CONTEXT(3)
GLOBAL_UNCERTAINTY_ASSIGNED_CONTEXT((#1216))
GLOBAL_UNIT_ASSIGNED_CONTEXT((#1220,#1222,#1223))
REPRESENTATION_CONTEXT('','3D')
);
#1219=(
GEOMETRIC_REPRESENTATION_CONTEXT(3)
GLOBAL_UNCERTAINTY_ASSIGNED_CONTEXT((#1217))
GLOBAL_UNIT_ASSIGNED_CONTEXT((#1220,#1222,#1223))
REPRESENTATION_CONTEXT('','3D')
);
#1220=(
LENGTH_UNIT()
NAMED_UNIT(*)
SI_UNIT(.MILLI.,.METRE.)
);
#1221=(
LENGTH_UNIT()
NAMED_UNIT(*)
SI_UNIT(.CENTI.,.METRE.)
);
#1222=(
NAMED_UNIT(*)
PLANE_ANGLE_UNIT()
SI_UNIT($,.RADIAN.)
);
#1223=(
NAMED_UNIT(*)
SI_UNIT($,.STERADIAN.)
SOLID_ANGLE_UNIT()
);
#1224=SHAPE_DEFINITION_REPRESENTATION(#1225,#1226);
#1225=PRODUCT_DEFINITION_SHAPE('',$,#1228);
#1226=SHAPE_REPRESENTATION('',(#641),#1218);
#1227=PRODUCT_DEFINITION_CONTEXT('part definition',#1232,'design');
#1228=PRODUCT_DEFINITION('Rolle','Rolle',#1229,#1227);
#1229=PRODUCT_DEFINITION_FORMATION('',$,#1234);
#1230=PRODUCT_RELATED_PRODUCT_CATEGORY('Rolle','Rolle',(#1234));
#1231=APPLICATION_PROTOCOL_DEFINITION('international standard',
'automotive_design',2009,#1232);
#1232=APPLICATION_CONTEXT(
'Core Data for Automotive Mechanical Design Process');
#1233=PRODUCT_CONTEXT('part definition',#1232,'mechanical');
#1234=PRODUCT('Rolle','Rolle',$,(#1233));
#1235=PRESENTATION_STYLE_ASSIGNMENT((#1236));
#1236=SURFACE_STYLE_USAGE(.BOTH.,#1239);
#1237=SURFACE_STYLE_RENDERING_WITH_PROPERTIES($,#1243,(#1238));
#1238=SURFACE_STYLE_TRANSPARENT(0.);
#1239=SURFACE_SIDE_STYLE('',(#1240,#1237));
#1240=SURFACE_STYLE_FILL_AREA(#1241);
#1241=FILL_AREA_STYLE('',(#1242));
#1242=FILL_AREA_STYLE_COLOUR('',#1243);
#1243=COLOUR_RGB('',0.749019607843137,0.749019607843137,0.749019607843137);
ENDSEC;
END-ISO-10303-21;
