ISO-10303-21;
HEADER;
/* Generated by software containing ST-Developer
 * from STEP Tools, Inc. (www.steptools.com) 
 */

FILE_DESCRIPTION(
/* description */ (''),
/* implementation_level */ '2;1');

FILE_NAME(
/* name */ 'Bolzen_fuer_Ruder.stp',
/* time_stamp */ '2026-09-02T21:24:12+02:00',
/* author */ ('bluhm'),
/* organization */ (''),
/* preprocessor_version */ 'ST-DEVELOPER v20.1',
/* originating_system */ 'Autodesk Inventor 2026',
/* authorisation */ '');

FILE_SCHEMA (('AUTOMOTIVE_DESIGN { 1 0 10303 214 3 1 1 }'));
ENDSEC;

DATA;
#10=MECHANICAL_DESIGN_GEOMETRIC_PRESENTATION_REPRESENTATION('',(#103,#104,
#105,#106,#107,#108,#109),#277);
#11=SHAPE_REPRESENTATION_RELATIONSHIP('SRR','None',#284,#12);
#12=ADVANCED_BREP_SHAPE_REPRESENTATION('',(#13),#276);
#13=MANIFOLD_SOLID_BREP('Volumenk\X\F6rper1',#116);
#14=PLANE('',#143);
#15=PLANE('',#147);
#16=PLANE('',#148);
#17=FACE_BOUND('',#32,.T.);
#18=FACE_BOUND('',#33,.T.);
#19=FACE_BOUND('',#38,.T.);
#20=CIRCLE('',#141,3.);
#21=CIRCLE('',#142,3.);
#22=CIRCLE('',#145,6.);
#23=CIRCLE('',#146,6.);
#24=FACE_OUTER_BOUND('',#30,.T.);
#25=FACE_OUTER_BOUND('',#31,.T.);
#26=FACE_OUTER_BOUND('',#34,.T.);
#27=FACE_OUTER_BOUND('',#35,.T.);
#28=FACE_OUTER_BOUND('',#36,.T.);
#29=FACE_OUTER_BOUND('',#37,.T.);
#30=EDGE_LOOP('',(#74,#75,#76,#77,#78,#79,#80,#81));
#31=EDGE_LOOP('',(#82,#83,#84,#85));
#32=EDGE_LOOP('',(#86,#87,#88));
#33=EDGE_LOOP('',(#89,#90,#91));
#34=EDGE_LOOP('',(#92));
#35=EDGE_LOOP('',(#93,#94,#95,#96));
#36=EDGE_LOOP('',(#97));
#37=EDGE_LOOP('',(#98));
#38=EDGE_LOOP('',(#99));
#39=LINE('',#218,#42);
#40=LINE('',#263,#43);
#41=LINE('',#270,#44);
#42=VECTOR('',#153,1.6);
#43=VECTOR('',#158,3.);
#44=VECTOR('',#167,6.);
#45=B_SPLINE_CURVE_WITH_KNOTS('',3,(#178,#179,#180,#181,#182,#183,#184,
#185,#186,#187),.UNSPECIFIED.,.F.,.F.,(4,2,2,2,4),(0.740434190892834,0.802023522986086,
0.863612855079338,0.925429221468225,0.987245587857113),.UNSPECIFIED.);
#46=B_SPLINE_CURVE_WITH_KNOTS('',3,(#189,#190,#191,#192,#193,#194,#195,
#196,#197,#198,#199,#200,#201,#202,#203,#204,#205,#206),.UNSPECIFIED.,.F.,
 .F.,(4,2,2,2,2,2,2,2,4),(0.246811396964278,0.308400729057529,0.369990061150781,
0.431806427539668,0.493622793928555,0.555439160317442,0.61725552670633,
0.678844858799582,0.740434190892834),.UNSPECIFIED.);
#47=B_SPLINE_CURVE_WITH_KNOTS('',3,(#207,#208,#209,#210,#211,#212,#213,
#214,#215,#216),.UNSPECIFIED.,.F.,.F.,(4,2,2,2,4),(0.987245587857113,1.049061954246,
1.11087832063489,1.17246765272814,1.23405698482139),.UNSPECIFIED.);
#48=B_SPLINE_CURVE_WITH_KNOTS('',3,(#220,#221,#222,#223,#224,#225,#226,
#227,#228,#229),.UNSPECIFIED.,.F.,.F.,(4,2,2,2,4),(0.740434190892835,0.802023522986086,
0.863612855079338,0.925429221468225,0.987245587857112),.UNSPECIFIED.);
#49=B_SPLINE_CURVE_WITH_KNOTS('',3,(#231,#232,#233,#234,#235,#236,#237,
#238,#239,#240,#241,#242,#243,#244,#245,#246,#247,#248),.UNSPECIFIED.,.F.,
 .F.,(4,2,2,2,2,2,2,2,4),(0.246811396964279,0.308400729057531,0.369990061150783,
0.43180642753967,0.493622793928557,0.555439160317444,0.617255526706332,
0.678844858799583,0.740434190892835),.UNSPECIFIED.);
#50=B_SPLINE_CURVE_WITH_KNOTS('',3,(#249,#250,#251,#252,#253,#254,#255,
#256,#257,#258),.UNSPECIFIED.,.F.,.F.,(4,2,2,2,4),(0.987245587857112,1.049061954246,
1.11087832063489,1.17246765272814,1.23405698482139),.UNSPECIFIED.);
#51=VERTEX_POINT('',#176);
#52=VERTEX_POINT('',#177);
#53=VERTEX_POINT('',#188);
#54=VERTEX_POINT('',#217);
#55=VERTEX_POINT('',#219);
#56=VERTEX_POINT('',#230);
#57=VERTEX_POINT('',#260);
#58=VERTEX_POINT('',#262);
#59=VERTEX_POINT('',#267);
#60=VERTEX_POINT('',#269);
#61=EDGE_CURVE('',#51,#52,#45,.T.);
#62=EDGE_CURVE('',#53,#51,#46,.T.);
#63=EDGE_CURVE('',#52,#53,#47,.T.);
#64=EDGE_CURVE('',#52,#54,#39,.T.);
#65=EDGE_CURVE('',#55,#54,#48,.T.);
#66=EDGE_CURVE('',#56,#55,#49,.T.);
#67=EDGE_CURVE('',#54,#56,#50,.T.);
#68=EDGE_CURVE('',#57,#57,#20,.T.);
#69=EDGE_CURVE('',#57,#58,#40,.T.);
#70=EDGE_CURVE('',#58,#58,#21,.T.);
#71=EDGE_CURVE('',#59,#59,#22,.T.);
#72=EDGE_CURVE('',#59,#60,#41,.T.);
#73=EDGE_CURVE('',#60,#60,#23,.T.);
#74=ORIENTED_EDGE('',*,*,#61,.F.);
#75=ORIENTED_EDGE('',*,*,#62,.F.);
#76=ORIENTED_EDGE('',*,*,#63,.F.);
#77=ORIENTED_EDGE('',*,*,#64,.T.);
#78=ORIENTED_EDGE('',*,*,#65,.F.);
#79=ORIENTED_EDGE('',*,*,#66,.F.);
#80=ORIENTED_EDGE('',*,*,#67,.F.);
#81=ORIENTED_EDGE('',*,*,#64,.F.);
#82=ORIENTED_EDGE('',*,*,#68,.F.);
#83=ORIENTED_EDGE('',*,*,#69,.T.);
#84=ORIENTED_EDGE('',*,*,#70,.F.);
#85=ORIENTED_EDGE('',*,*,#69,.F.);
#86=ORIENTED_EDGE('',*,*,#62,.T.);
#87=ORIENTED_EDGE('',*,*,#61,.T.);
#88=ORIENTED_EDGE('',*,*,#63,.T.);
#89=ORIENTED_EDGE('',*,*,#66,.T.);
#90=ORIENTED_EDGE('',*,*,#65,.T.);
#91=ORIENTED_EDGE('',*,*,#67,.T.);
#92=ORIENTED_EDGE('',*,*,#68,.T.);
#93=ORIENTED_EDGE('',*,*,#71,.F.);
#94=ORIENTED_EDGE('',*,*,#72,.T.);
#95=ORIENTED_EDGE('',*,*,#73,.T.);
#96=ORIENTED_EDGE('',*,*,#72,.F.);
#97=ORIENTED_EDGE('',*,*,#71,.T.);
#98=ORIENTED_EDGE('',*,*,#73,.F.);
#99=ORIENTED_EDGE('',*,*,#70,.T.);
#100=CYLINDRICAL_SURFACE('',#139,1.6);
#101=CYLINDRICAL_SURFACE('',#140,3.);
#102=CYLINDRICAL_SURFACE('',#144,6.);
#103=STYLED_ITEM('',(#294),#110);
#104=STYLED_ITEM('',(#294),#111);
#105=STYLED_ITEM('',(#294),#112);
#106=STYLED_ITEM('',(#294),#113);
#107=STYLED_ITEM('',(#294),#114);
#108=STYLED_ITEM('',(#294),#115);
#109=STYLED_ITEM('',(#293),#13);
#110=ADVANCED_FACE('',(#24),#100,.F.);
#111=ADVANCED_FACE('',(#25,#17,#18),#101,.T.);
#112=ADVANCED_FACE('',(#26),#14,.T.);
#113=ADVANCED_FACE('',(#27),#102,.T.);
#114=ADVANCED_FACE('',(#28),#15,.T.);
#115=ADVANCED_FACE('',(#29,#19),#16,.F.);
#116=CLOSED_SHELL('',(#110,#111,#112,#113,#114,#115));
#117=DERIVED_UNIT_ELEMENT(#120,1.);
#118=DERIVED_UNIT_ELEMENT(#279,-3.);
#119=DIMENSIONAL_EXPONENTS(0.,1.,0.,0.,0.,0.,0.);
#120=(
CONVERSION_BASED_UNIT('gram',#122)
MASS_UNIT()
NAMED_UNIT(#119)
);
#121=(
MASS_UNIT()
NAMED_UNIT(*)
SI_UNIT(.KILO.,.GRAM.)
);
#122=MASS_MEASURE_WITH_UNIT(MASS_MEASURE(0.001),#121);
#123=DERIVED_UNIT((#117,#118));
#124=MEASURE_REPRESENTATION_ITEM('density measure',
POSITIVE_RATIO_MEASURE(1.),#123);
#125=PROPERTY_DEFINITION_REPRESENTATION(#130,#127);
#126=PROPERTY_DEFINITION_REPRESENTATION(#131,#128);
#127=REPRESENTATION('material name',(#129),#276);
#128=REPRESENTATION('density',(#124),#276);
#129=DESCRIPTIVE_REPRESENTATION_ITEM('Generisch','Generisch');
#130=PROPERTY_DEFINITION('material property','material name',#286);
#131=PROPERTY_DEFINITION('material property','density of part',#286);
#132=DATE_TIME_ROLE('creation_date');
#133=APPLIED_DATE_AND_TIME_ASSIGNMENT(#134,#132,(#286));
#134=DATE_AND_TIME(#135,#136);
#135=CALENDAR_DATE(2026,22,1);
#136=LOCAL_TIME(0,0,0.,#137);
#137=COORDINATED_UNIVERSAL_TIME_OFFSET(0,0,.BEHIND.);
#138=AXIS2_PLACEMENT_3D('',#174,#149,#150);
#139=AXIS2_PLACEMENT_3D('',#175,#151,#152);
#140=AXIS2_PLACEMENT_3D('',#259,#154,#155);
#141=AXIS2_PLACEMENT_3D('',#261,#156,#157);
#142=AXIS2_PLACEMENT_3D('',#264,#159,#160);
#143=AXIS2_PLACEMENT_3D('',#265,#161,#162);
#144=AXIS2_PLACEMENT_3D('',#266,#163,#164);
#145=AXIS2_PLACEMENT_3D('',#268,#165,#166);
#146=AXIS2_PLACEMENT_3D('',#271,#168,#169);
#147=AXIS2_PLACEMENT_3D('',#272,#170,#171);
#148=AXIS2_PLACEMENT_3D('',#273,#172,#173);
#149=DIRECTION('axis',(0.,0.,1.));
#150=DIRECTION('refdir',(1.,0.,0.));
#151=DIRECTION('center_axis',(0.,1.,0.));
#152=DIRECTION('ref_axis',(-1.,0.,0.));
#153=DIRECTION('',(0.,1.,0.));
#154=DIRECTION('center_axis',(0.,0.,-1.));
#155=DIRECTION('ref_axis',(-1.,0.,0.));
#156=DIRECTION('center_axis',(0.,0.,-1.));
#157=DIRECTION('ref_axis',(-1.,0.,0.));
#158=DIRECTION('',(0.,0.,1.));
#159=DIRECTION('center_axis',(0.,0.,1.));
#160=DIRECTION('ref_axis',(-1.,0.,0.));
#161=DIRECTION('center_axis',(0.,0.,-1.));
#162=DIRECTION('ref_axis',(-1.,0.,0.));
#163=DIRECTION('center_axis',(0.,0.,1.));
#164=DIRECTION('ref_axis',(1.,0.,0.));
#165=DIRECTION('center_axis',(0.,0.,1.));
#166=DIRECTION('ref_axis',(1.,0.,0.));
#167=DIRECTION('',(0.,0.,-1.));
#168=DIRECTION('center_axis',(0.,0.,1.));
#169=DIRECTION('ref_axis',(1.,0.,0.));
#170=DIRECTION('center_axis',(0.,0.,1.));
#171=DIRECTION('ref_axis',(1.,0.,0.));
#172=DIRECTION('center_axis',(0.,0.,1.));
#173=DIRECTION('ref_axis',(1.,0.,0.));
#174=CARTESIAN_POINT('',(0.,0.,0.));
#175=CARTESIAN_POINT('Origin',(0.,0.,-6.));
#176=CARTESIAN_POINT('',(0.,-3.,-4.4));
#177=CARTESIAN_POINT('',(1.6,-2.5377155080899,-6.00000000000001));
#178=CARTESIAN_POINT('Ctrl Pts',(-5.55111512312578E-16,-3.,-4.4));
#179=CARTESIAN_POINT('Ctrl Pts',(0.205297773644174,-3.,-4.4));
#180=CARTESIAN_POINT('Ctrl Pts',(0.42153960910524,-2.97702199086941,-4.44188391722366));
#181=CARTESIAN_POINT('Ctrl Pts',(0.814692950263277,-2.89424099584454,-4.60655224996546));
#182=CARTESIAN_POINT('Ctrl Pts',(0.9918706746177,-2.83529177366163,-4.72912897482075));
#183=CARTESIAN_POINT('Ctrl Pts',(1.27138525910516,-2.72147643157684,-5.00864355930822));
#184=CARTESIAN_POINT('Ctrl Pts',(1.3935902340286,-2.65834822790894,-5.18565713316242));
#185=CARTESIAN_POINT('Ctrl Pts',(1.55795012710533,-2.56548269361081,-5.57805426921729));
#186=CARTESIAN_POINT('Ctrl Pts',(1.6,-2.5377155080899,-5.79394544537039));
#187=CARTESIAN_POINT('Ctrl Pts',(1.6,-2.5377155080899,-6.00000000000002));
#188=CARTESIAN_POINT('',(0.,-3.,-7.6));
#189=CARTESIAN_POINT('Ctrl Pts',(3.81639164714898E-16,-3.,-7.6));
#190=CARTESIAN_POINT('Ctrl Pts',(-0.205297773644171,-3.,-7.6));
#191=CARTESIAN_POINT('Ctrl Pts',(-0.421539609105222,-2.97702199086941,-7.55811608277635));
#192=CARTESIAN_POINT('Ctrl Pts',(-0.814692950263257,-2.89424099584455,-7.39344775003456));
#193=CARTESIAN_POINT('Ctrl Pts',(-0.991870674617688,-2.83529177366163,-7.27087102517927));
#194=CARTESIAN_POINT('Ctrl Pts',(-1.27138525910515,-2.72147643157685,-6.99135644069182));
#195=CARTESIAN_POINT('Ctrl Pts',(-1.39359023402859,-2.65834822790894,-6.8143428668376));
#196=CARTESIAN_POINT('Ctrl Pts',(-1.55795012710533,-2.56548269361082,-6.42194573078272));
#197=CARTESIAN_POINT('Ctrl Pts',(-1.6,-2.53771550808991,-6.20605455462964));
#198=CARTESIAN_POINT('Ctrl Pts',(-1.6,-2.5377155080899,-5.79394544537039));
#199=CARTESIAN_POINT('Ctrl Pts',(-1.55795012710534,-2.56548269361081,-5.57805426921731));
#200=CARTESIAN_POINT('Ctrl Pts',(-1.39359023402861,-2.65834822790893,-5.18565713316243));
#201=CARTESIAN_POINT('Ctrl Pts',(-1.27138525910516,-2.72147643157684,-5.00864355930822));
#202=CARTESIAN_POINT('Ctrl Pts',(-0.991870674617701,-2.83529177366163,-4.72912897482075));
#203=CARTESIAN_POINT('Ctrl Pts',(-0.814692950263277,-2.89424099584454,-4.60655224996546));
#204=CARTESIAN_POINT('Ctrl Pts',(-0.42153960910524,-2.97702199086941,-4.44188391722366));
#205=CARTESIAN_POINT('Ctrl Pts',(-0.205297773644174,-3.,-4.4));
#206=CARTESIAN_POINT('Ctrl Pts',(-4.5102810375397E-16,-3.,-4.4));
#207=CARTESIAN_POINT('Ctrl Pts',(1.6,-2.5377155080899,-6.00000000000002));
#208=CARTESIAN_POINT('Ctrl Pts',(1.6,-2.53771550808991,-6.20605455462964));
#209=CARTESIAN_POINT('Ctrl Pts',(1.55795012710533,-2.56548269361082,-6.42194573078272));
#210=CARTESIAN_POINT('Ctrl Pts',(1.39359023402859,-2.65834822790894,-6.8143428668376));
#211=CARTESIAN_POINT('Ctrl Pts',(1.27138525910515,-2.72147643157685,-6.99135644069182));
#212=CARTESIAN_POINT('Ctrl Pts',(0.991870674617688,-2.83529177366163,-7.27087102517927));
#213=CARTESIAN_POINT('Ctrl Pts',(0.814692950263257,-2.89424099584455,-7.39344775003456));
#214=CARTESIAN_POINT('Ctrl Pts',(0.421539609105222,-2.97702199086941,-7.55811608277635));
#215=CARTESIAN_POINT('Ctrl Pts',(0.205297773644172,-3.,-7.6));
#216=CARTESIAN_POINT('Ctrl Pts',(3.12250225675825E-16,-3.,-7.6));
#217=CARTESIAN_POINT('',(1.6,2.5377155080899,-6.00000000000001));
#218=CARTESIAN_POINT('',(1.6,0.,-6.));
#219=CARTESIAN_POINT('',(0.,3.,-7.6));
#220=CARTESIAN_POINT('Ctrl Pts',(1.38777878078145E-16,3.,-7.6));
#221=CARTESIAN_POINT('Ctrl Pts',(0.205297773644172,3.,-7.6));
#222=CARTESIAN_POINT('Ctrl Pts',(0.421539609105222,2.97702199086941,-7.55811608277635));
#223=CARTESIAN_POINT('Ctrl Pts',(0.814692950263257,2.89424099584455,-7.39344775003456));
#224=CARTESIAN_POINT('Ctrl Pts',(0.991870674617688,2.83529177366163,-7.27087102517927));
#225=CARTESIAN_POINT('Ctrl Pts',(1.27138525910515,2.72147643157685,-6.99135644069182));
#226=CARTESIAN_POINT('Ctrl Pts',(1.39359023402859,2.65834822790894,-6.8143428668376));
#227=CARTESIAN_POINT('Ctrl Pts',(1.55795012710533,2.56548269361082,-6.42194573078272));
#228=CARTESIAN_POINT('Ctrl Pts',(1.6,2.53771550808991,-6.20605455462964));
#229=CARTESIAN_POINT('Ctrl Pts',(1.6,2.5377155080899,-6.00000000000001));
#230=CARTESIAN_POINT('',(0.,3.,-4.4));
#231=CARTESIAN_POINT('Ctrl Pts',(-4.5102810375397E-16,3.,-4.4));
#232=CARTESIAN_POINT('Ctrl Pts',(-0.205297773644174,3.,-4.4));
#233=CARTESIAN_POINT('Ctrl Pts',(-0.42153960910524,2.97702199086941,-4.44188391722366));
#234=CARTESIAN_POINT('Ctrl Pts',(-0.814692950263277,2.89424099584454,-4.60655224996546));
#235=CARTESIAN_POINT('Ctrl Pts',(-0.991870674617701,2.83529177366163,-4.72912897482075));
#236=CARTESIAN_POINT('Ctrl Pts',(-1.27138525910516,2.72147643157684,-5.00864355930822));
#237=CARTESIAN_POINT('Ctrl Pts',(-1.39359023402861,2.65834822790893,-5.18565713316243));
#238=CARTESIAN_POINT('Ctrl Pts',(-1.55795012710534,2.56548269361081,-5.57805426921731));
#239=CARTESIAN_POINT('Ctrl Pts',(-1.6,2.5377155080899,-5.79394544537039));
#240=CARTESIAN_POINT('Ctrl Pts',(-1.6,2.53771550808991,-6.20605455462964));
#241=CARTESIAN_POINT('Ctrl Pts',(-1.55795012710533,2.56548269361082,-6.42194573078272));
#242=CARTESIAN_POINT('Ctrl Pts',(-1.39359023402859,2.65834822790894,-6.8143428668376));
#243=CARTESIAN_POINT('Ctrl Pts',(-1.27138525910515,2.72147643157685,-6.99135644069182));
#244=CARTESIAN_POINT('Ctrl Pts',(-0.991870674617688,2.83529177366163,-7.27087102517927));
#245=CARTESIAN_POINT('Ctrl Pts',(-0.814692950263257,2.89424099584455,-7.39344775003456));
#246=CARTESIAN_POINT('Ctrl Pts',(-0.421539609105221,2.97702199086941,-7.55811608277635));
#247=CARTESIAN_POINT('Ctrl Pts',(-0.205297773644171,3.,-7.6));
#248=CARTESIAN_POINT('Ctrl Pts',(1.38777878078145E-16,3.,-7.6));
#249=CARTESIAN_POINT('Ctrl Pts',(1.6,2.5377155080899,-6.00000000000001));
#250=CARTESIAN_POINT('Ctrl Pts',(1.6,2.5377155080899,-5.79394544537039));
#251=CARTESIAN_POINT('Ctrl Pts',(1.55795012710534,2.56548269361081,-5.57805426921731));
#252=CARTESIAN_POINT('Ctrl Pts',(1.39359023402861,2.65834822790893,-5.18565713316243));
#253=CARTESIAN_POINT('Ctrl Pts',(1.27138525910516,2.72147643157684,-5.00864355930822));
#254=CARTESIAN_POINT('Ctrl Pts',(0.9918706746177,2.83529177366163,-4.72912897482075));
#255=CARTESIAN_POINT('Ctrl Pts',(0.814692950263277,2.89424099584454,-4.60655224996546));
#256=CARTESIAN_POINT('Ctrl Pts',(0.42153960910524,2.97702199086941,-4.44188391722366));
#257=CARTESIAN_POINT('Ctrl Pts',(0.205297773644173,3.,-4.4));
#258=CARTESIAN_POINT('Ctrl Pts',(-5.89805981832114E-16,3.,-4.4));
#259=CARTESIAN_POINT('Origin',(0.,0.,160.));
#260=CARTESIAN_POINT('',(3.,-3.67394039744206E-16,-10.));
#261=CARTESIAN_POINT('Origin',(0.,0.,-10.));
#262=CARTESIAN_POINT('',(3.,-3.67394039744206E-16,160.));
#263=CARTESIAN_POINT('',(3.,-3.67394039744206E-16,160.));
#264=CARTESIAN_POINT('Origin',(0.,0.,160.));
#265=CARTESIAN_POINT('Origin',(0.,0.,-10.));
#266=CARTESIAN_POINT('Origin',(0.,0.,160.));
#267=CARTESIAN_POINT('',(-6.,-7.34788079488412E-16,165.));
#268=CARTESIAN_POINT('Origin',(0.,0.,165.));
#269=CARTESIAN_POINT('',(-6.,-7.34788079488412E-16,160.));
#270=CARTESIAN_POINT('',(-6.,-7.34788079488412E-16,160.));
#271=CARTESIAN_POINT('Origin',(0.,0.,160.));
#272=CARTESIAN_POINT('Origin',(0.,0.,165.));
#273=CARTESIAN_POINT('Origin',(0.,0.,160.));
#274=UNCERTAINTY_MEASURE_WITH_UNIT(LENGTH_MEASURE(0.01),#278,
'DISTANCE_ACCURACY_VALUE',
'Maximum model space distance between geometric entities at asserted c
onnectivities');
#275=UNCERTAINTY_MEASURE_WITH_UNIT(LENGTH_MEASURE(0.01),#278,
'DISTANCE_ACCURACY_VALUE',
'Maximum model space distance between geometric entities at asserted c
onnectivities');
#276=(
GEOMETRIC_REPRESENTATION_CONTEXT(3)
GLOBAL_UNCERTAINTY_ASSIGNED_CONTEXT((#274))
GLOBAL_UNIT_ASSIGNED_CONTEXT((#278,#280,#281))
REPRESENTATION_CONTEXT('','3D')
);
#277=(
GEOMETRIC_REPRESENTATION_CONTEXT(3)
GLOBAL_UNCERTAINTY_ASSIGNED_CONTEXT((#275))
GLOBAL_UNIT_ASSIGNED_CONTEXT((#278,#280,#281))
REPRESENTATION_CONTEXT('','3D')
);
#278=(
LENGTH_UNIT()
NAMED_UNIT(*)
SI_UNIT(.MILLI.,.METRE.)
);
#279=(
LENGTH_UNIT()
NAMED_UNIT(*)
SI_UNIT(.CENTI.,.METRE.)
);
#280=(
NAMED_UNIT(*)
PLANE_ANGLE_UNIT()
SI_UNIT($,.RADIAN.)
);
#281=(
NAMED_UNIT(*)
SI_UNIT($,.STERADIAN.)
SOLID_ANGLE_UNIT()
);
#282=SHAPE_DEFINITION_REPRESENTATION(#283,#284);
#283=PRODUCT_DEFINITION_SHAPE('',$,#286);
#284=SHAPE_REPRESENTATION('',(#138),#276);
#285=PRODUCT_DEFINITION_CONTEXT('part definition',#290,'design');
#286=PRODUCT_DEFINITION('Bolzen fuer Ruder','Bolzen_fuer_Ruder',#287,#285);
#287=PRODUCT_DEFINITION_FORMATION('',$,#292);
#288=PRODUCT_RELATED_PRODUCT_CATEGORY('Bolzen_fuer_Ruder',
'Bolzen_fuer_Ruder',(#292));
#289=APPLICATION_PROTOCOL_DEFINITION('international standard',
'automotive_design',2009,#290);
#290=APPLICATION_CONTEXT(
'Core Data for Automotive Mechanical Design Process');
#291=PRODUCT_CONTEXT('part definition',#290,'mechanical');
#292=PRODUCT('Bolzen fuer Ruder','Bolzen_fuer_Ruder',$,(#291));
#293=PRESENTATION_STYLE_ASSIGNMENT((#295));
#294=PRESENTATION_STYLE_ASSIGNMENT((#296));
#295=SURFACE_STYLE_USAGE(.BOTH.,#301);
#296=SURFACE_STYLE_USAGE(.BOTH.,#302);
#297=SURFACE_STYLE_RENDERING_WITH_PROPERTIES($,#309,(#299));
#298=SURFACE_STYLE_RENDERING_WITH_PROPERTIES($,#310,(#300));
#299=SURFACE_STYLE_TRANSPARENT(0.);
#300=SURFACE_STYLE_TRANSPARENT(0.);
#301=SURFACE_SIDE_STYLE('',(#303,#297));
#302=SURFACE_SIDE_STYLE('',(#304,#298));
#303=SURFACE_STYLE_FILL_AREA(#305);
#304=SURFACE_STYLE_FILL_AREA(#306);
#305=FILL_AREA_STYLE('',(#307));
#306=FILL_AREA_STYLE('',(#308));
#307=FILL_AREA_STYLE_COLOUR('',#309);
#308=FILL_AREA_STYLE_COLOUR('',#310);
#309=COLOUR_RGB('',0.749019607843137,0.749019607843137,0.749019607843137);
#310=COLOUR_RGB('',0.956862745098039,0.956862745098039,0.956862745098039);
ENDSEC;
END-ISO-10303-21;
