ISO-10303-21;
HEADER;
/* Generated by software containing ST-Developer
 * from STEP Tools, Inc. (www.steptools.com) 
 */

FILE_DESCRIPTION(
/* description */ (''),
/* implementation_level */ '2;1');

FILE_NAME(
/* name */ 'Lenkstange.stp',
/* time_stamp */ '2026-09-02T21:24:43+02:00',
/* author */ ('bluhm'),
/* organization */ (''),
/* preprocessor_version */ 'ST-DEVELOPER v20.1',
/* originating_system */ 'Autodesk Inventor 2026',
/* authorisation */ '');

FILE_SCHEMA (('AUTOMOTIVE_DESIGN { 1 0 10303 214 3 1 1 }'));
ENDSEC;

DATA;
#10=MECHANICAL_DESIGN_GEOMETRIC_PRESENTATION_REPRESENTATION('',(#122,#123,
#124,#125,#126,#127),#366);
#11=SHAPE_REPRESENTATION_RELATIONSHIP('SRR','None',#373,#12);
#12=ADVANCED_BREP_SHAPE_REPRESENTATION('',(#13),#365);
#13=MANIFOLD_SOLID_BREP('Volumenk\X\F6rper1',#133);
#14=PLANE('',#161);
#15=PLANE('',#162);
#16=FACE_BOUND('',#30,.T.);
#17=FACE_BOUND('',#31,.T.);
#18=FACE_BOUND('',#32,.T.);
#19=FACE_BOUND('',#33,.T.);
#20=CIRCLE('',#159,7.5);
#21=CIRCLE('',#160,7.5);
#22=FACE_OUTER_BOUND('',#27,.T.);
#23=FACE_OUTER_BOUND('',#28,.T.);
#24=FACE_OUTER_BOUND('',#29,.T.);
#25=FACE_OUTER_BOUND('',#34,.T.);
#26=FACE_OUTER_BOUND('',#35,.T.);
#27=EDGE_LOOP('',(#85,#86,#87,#88,#89,#90,#91,#92));
#28=EDGE_LOOP('',(#93,#94,#95,#96,#97,#98,#99,#100));
#29=EDGE_LOOP('',(#101,#102,#103,#104));
#30=EDGE_LOOP('',(#105,#106,#107));
#31=EDGE_LOOP('',(#108,#109,#110));
#32=EDGE_LOOP('',(#111,#112,#113));
#33=EDGE_LOOP('',(#114,#115,#116));
#34=EDGE_LOOP('',(#117));
#35=EDGE_LOOP('',(#118));
#36=LINE('',#217,#39);
#37=LINE('',#303,#40);
#38=LINE('',#359,#41);
#39=VECTOR('',#167,2.5);
#40=VECTOR('',#170,2.5);
#41=VECTOR('',#175,7.5);
#42=B_SPLINE_CURVE_WITH_KNOTS('',3,(#186,#187,#188,#189,#190,#191,#192,
#193,#194,#195,#196,#197,#198,#199,#200,#201,#202,#203,#204),
 .UNSPECIFIED.,.F.,.F.,(4,2,2,2,3,2,2,2,4),(1.13955022023861,1.23449071163913,
1.32943120303964,1.42441574834556,1.51940029365148,1.61438483895741,1.70936938426333,
1.80430987566384,1.89925036706435),.UNSPECIFIED.);
#43=B_SPLINE_CURVE_WITH_KNOTS('',3,(#206,#207,#208,#209,#210,#211,#212,
#213,#214,#215),.UNSPECIFIED.,.F.,.F.,(4,2,2,2,4),(0.759700146825742,0.854684692131664,
0.949669237437587,1.0446097288381,1.13955022023861),.UNSPECIFIED.);
#44=B_SPLINE_CURVE_WITH_KNOTS('',3,(#219,#220,#221,#222,#223,#224,#225,
#226,#227,#228),.UNSPECIFIED.,.F.,.F.,(4,2,2,2,4),(0.379850073412871,0.474790564813384,
0.569731056213897,0.66471560151982,0.759700146825742),.UNSPECIFIED.);
#45=B_SPLINE_CURVE_WITH_KNOTS('',3,(#230,#231,#232,#233,#234,#235,#236,
#237,#238,#239,#240,#241,#242,#243,#244,#245,#246,#247,#248),
 .UNSPECIFIED.,.F.,.F.,(4,2,2,2,3,2,2,2,4),(1.13955022023861,1.23449071163913,
1.32943120303964,1.42441574834556,1.51940029365148,1.61438483895741,1.70936938426333,
1.80430987566384,1.89925036706435),.UNSPECIFIED.);
#46=B_SPLINE_CURVE_WITH_KNOTS('',3,(#249,#250,#251,#252,#253,#254,#255,
#256,#257,#258),.UNSPECIFIED.,.F.,.F.,(4,2,2,2,4),(0.759700146825742,0.854684692131664,
0.949669237437586,1.0446097288381,1.13955022023861),.UNSPECIFIED.);
#47=B_SPLINE_CURVE_WITH_KNOTS('',3,(#259,#260,#261,#262,#263,#264,#265,
#266,#267,#268),.UNSPECIFIED.,.F.,.F.,(4,2,2,2,4),(0.379850073412871,0.474790564813384,
0.569731056213898,0.66471560151982,0.759700146825742),.UNSPECIFIED.);
#48=B_SPLINE_CURVE_WITH_KNOTS('',3,(#272,#273,#274,#275,#276,#277,#278,
#279,#280,#281,#282,#283,#284,#285,#286,#287,#288,#289,#290),
 .UNSPECIFIED.,.F.,.F.,(4,2,2,2,3,2,2,2,4),(1.13955022023861,1.23449071163913,
1.32943120303964,1.42441574834556,1.51940029365149,1.61438483895741,1.70936938426333,
1.80430987566384,1.89925036706436),.UNSPECIFIED.);
#49=B_SPLINE_CURVE_WITH_KNOTS('',3,(#292,#293,#294,#295,#296,#297,#298,
#299,#300,#301),.UNSPECIFIED.,.F.,.F.,(4,2,2,2,4),(0.759700146825743,0.854684692131666,
0.949669237437588,1.0446097288381,1.13955022023861),.UNSPECIFIED.);
#50=B_SPLINE_CURVE_WITH_KNOTS('',3,(#305,#306,#307,#308,#309,#310,#311,
#312,#313,#314),.UNSPECIFIED.,.F.,.F.,(4,2,2,2,4),(0.379850073412872,0.474790564813385,
0.569731056213898,0.664715601519821,0.759700146825743),.UNSPECIFIED.);
#51=B_SPLINE_CURVE_WITH_KNOTS('',3,(#316,#317,#318,#319,#320,#321,#322,
#323,#324,#325,#326,#327,#328,#329,#330,#331,#332,#333,#334),
 .UNSPECIFIED.,.F.,.F.,(4,2,2,2,3,2,2,2,4),(1.13955022023861,1.23449071163913,
1.32943120303964,1.42441574834556,1.51940029365149,1.61438483895741,1.70936938426333,
1.80430987566384,1.89925036706436),.UNSPECIFIED.);
#52=B_SPLINE_CURVE_WITH_KNOTS('',3,(#335,#336,#337,#338,#339,#340,#341,
#342,#343,#344),.UNSPECIFIED.,.F.,.F.,(4,2,2,2,4),(0.759700146825743,0.854684692131665,
0.949669237437588,1.0446097288381,1.13955022023861),.UNSPECIFIED.);
#53=B_SPLINE_CURVE_WITH_KNOTS('',3,(#345,#346,#347,#348,#349,#350,#351,
#352,#353,#354),.UNSPECIFIED.,.F.,.F.,(4,2,2,2,4),(0.379850073412872,0.474790564813385,
0.569731056213899,0.664715601519821,0.759700146825743),.UNSPECIFIED.);
#54=VERTEX_POINT('',#184);
#55=VERTEX_POINT('',#185);
#56=VERTEX_POINT('',#205);
#57=VERTEX_POINT('',#216);
#58=VERTEX_POINT('',#218);
#59=VERTEX_POINT('',#229);
#60=VERTEX_POINT('',#270);
#61=VERTEX_POINT('',#271);
#62=VERTEX_POINT('',#291);
#63=VERTEX_POINT('',#302);
#64=VERTEX_POINT('',#304);
#65=VERTEX_POINT('',#315);
#66=VERTEX_POINT('',#356);
#67=VERTEX_POINT('',#358);
#68=EDGE_CURVE('',#54,#55,#42,.T.);
#69=EDGE_CURVE('',#56,#54,#43,.T.);
#70=EDGE_CURVE('',#56,#57,#36,.T.);
#71=EDGE_CURVE('',#58,#57,#44,.T.);
#72=EDGE_CURVE('',#59,#58,#45,.T.);
#73=EDGE_CURVE('',#57,#59,#46,.T.);
#74=EDGE_CURVE('',#55,#56,#47,.T.);
#75=EDGE_CURVE('',#60,#61,#48,.T.);
#76=EDGE_CURVE('',#62,#60,#49,.T.);
#77=EDGE_CURVE('',#62,#63,#37,.T.);
#78=EDGE_CURVE('',#64,#63,#50,.T.);
#79=EDGE_CURVE('',#65,#64,#51,.T.);
#80=EDGE_CURVE('',#63,#65,#52,.T.);
#81=EDGE_CURVE('',#61,#62,#53,.T.);
#82=EDGE_CURVE('',#66,#66,#20,.T.);
#83=EDGE_CURVE('',#66,#67,#38,.T.);
#84=EDGE_CURVE('',#67,#67,#21,.T.);
#85=ORIENTED_EDGE('',*,*,#68,.F.);
#86=ORIENTED_EDGE('',*,*,#69,.F.);
#87=ORIENTED_EDGE('',*,*,#70,.T.);
#88=ORIENTED_EDGE('',*,*,#71,.F.);
#89=ORIENTED_EDGE('',*,*,#72,.F.);
#90=ORIENTED_EDGE('',*,*,#73,.F.);
#91=ORIENTED_EDGE('',*,*,#70,.F.);
#92=ORIENTED_EDGE('',*,*,#74,.F.);
#93=ORIENTED_EDGE('',*,*,#75,.F.);
#94=ORIENTED_EDGE('',*,*,#76,.F.);
#95=ORIENTED_EDGE('',*,*,#77,.T.);
#96=ORIENTED_EDGE('',*,*,#78,.F.);
#97=ORIENTED_EDGE('',*,*,#79,.F.);
#98=ORIENTED_EDGE('',*,*,#80,.F.);
#99=ORIENTED_EDGE('',*,*,#77,.F.);
#100=ORIENTED_EDGE('',*,*,#81,.F.);
#101=ORIENTED_EDGE('',*,*,#82,.F.);
#102=ORIENTED_EDGE('',*,*,#83,.T.);
#103=ORIENTED_EDGE('',*,*,#84,.F.);
#104=ORIENTED_EDGE('',*,*,#83,.F.);
#105=ORIENTED_EDGE('',*,*,#74,.T.);
#106=ORIENTED_EDGE('',*,*,#69,.T.);
#107=ORIENTED_EDGE('',*,*,#68,.T.);
#108=ORIENTED_EDGE('',*,*,#71,.T.);
#109=ORIENTED_EDGE('',*,*,#73,.T.);
#110=ORIENTED_EDGE('',*,*,#72,.T.);
#111=ORIENTED_EDGE('',*,*,#81,.T.);
#112=ORIENTED_EDGE('',*,*,#76,.T.);
#113=ORIENTED_EDGE('',*,*,#75,.T.);
#114=ORIENTED_EDGE('',*,*,#78,.T.);
#115=ORIENTED_EDGE('',*,*,#80,.T.);
#116=ORIENTED_EDGE('',*,*,#79,.T.);
#117=ORIENTED_EDGE('',*,*,#84,.T.);
#118=ORIENTED_EDGE('',*,*,#82,.T.);
#119=CYLINDRICAL_SURFACE('',#156,2.5);
#120=CYLINDRICAL_SURFACE('',#157,2.5);
#121=CYLINDRICAL_SURFACE('',#158,7.5);
#122=STYLED_ITEM('',(#383),#128);
#123=STYLED_ITEM('',(#383),#129);
#124=STYLED_ITEM('',(#383),#130);
#125=STYLED_ITEM('',(#383),#131);
#126=STYLED_ITEM('',(#383),#132);
#127=STYLED_ITEM('',(#382),#13);
#128=ADVANCED_FACE('',(#22),#119,.F.);
#129=ADVANCED_FACE('',(#23),#120,.F.);
#130=ADVANCED_FACE('',(#24,#16,#17,#18,#19),#121,.T.);
#131=ADVANCED_FACE('',(#25),#14,.F.);
#132=ADVANCED_FACE('',(#26),#15,.T.);
#133=CLOSED_SHELL('',(#128,#129,#130,#131,#132));
#134=DERIVED_UNIT_ELEMENT(#137,1.);
#135=DERIVED_UNIT_ELEMENT(#368,-3.);
#136=DIMENSIONAL_EXPONENTS(0.,1.,0.,0.,0.,0.,0.);
#137=(
CONVERSION_BASED_UNIT('gram',#139)
MASS_UNIT()
NAMED_UNIT(#136)
);
#138=(
MASS_UNIT()
NAMED_UNIT(*)
SI_UNIT(.KILO.,.GRAM.)
);
#139=MASS_MEASURE_WITH_UNIT(MASS_MEASURE(0.001),#138);
#140=DERIVED_UNIT((#134,#135));
#141=MEASURE_REPRESENTATION_ITEM('density measure',
POSITIVE_RATIO_MEASURE(1.),#140);
#142=PROPERTY_DEFINITION_REPRESENTATION(#147,#144);
#143=PROPERTY_DEFINITION_REPRESENTATION(#148,#145);
#144=REPRESENTATION('material name',(#146),#365);
#145=REPRESENTATION('density',(#141),#365);
#146=DESCRIPTIVE_REPRESENTATION_ITEM('Generisch','Generisch');
#147=PROPERTY_DEFINITION('material property','material name',#375);
#148=PROPERTY_DEFINITION('material property','density of part',#375);
#149=DATE_TIME_ROLE('creation_date');
#150=APPLIED_DATE_AND_TIME_ASSIGNMENT(#151,#149,(#375));
#151=DATE_AND_TIME(#152,#153);
#152=CALENDAR_DATE(2026,19,1);
#153=LOCAL_TIME(0,0,0.,#154);
#154=COORDINATED_UNIVERSAL_TIME_OFFSET(0,0,.BEHIND.);
#155=AXIS2_PLACEMENT_3D('',#182,#163,#164);
#156=AXIS2_PLACEMENT_3D('',#183,#165,#166);
#157=AXIS2_PLACEMENT_3D('',#269,#168,#169);
#158=AXIS2_PLACEMENT_3D('',#355,#171,#172);
#159=AXIS2_PLACEMENT_3D('',#357,#173,#174);
#160=AXIS2_PLACEMENT_3D('',#360,#176,#177);
#161=AXIS2_PLACEMENT_3D('',#361,#178,#179);
#162=AXIS2_PLACEMENT_3D('',#362,#180,#181);
#163=DIRECTION('axis',(0.,0.,1.));
#164=DIRECTION('refdir',(1.,0.,0.));
#165=DIRECTION('center_axis',(0.,1.,0.));
#166=DIRECTION('ref_axis',(-1.,0.,0.));
#167=DIRECTION('',(0.,1.,0.));
#168=DIRECTION('center_axis',(0.,1.,0.));
#169=DIRECTION('ref_axis',(-1.,0.,0.));
#170=DIRECTION('',(0.,1.,0.));
#171=DIRECTION('center_axis',(0.,0.,1.));
#172=DIRECTION('ref_axis',(1.,0.,0.));
#173=DIRECTION('center_axis',(0.,0.,1.));
#174=DIRECTION('ref_axis',(1.,0.,0.));
#175=DIRECTION('',(0.,0.,-1.));
#176=DIRECTION('center_axis',(0.,0.,-1.));
#177=DIRECTION('ref_axis',(1.,0.,0.));
#178=DIRECTION('center_axis',(0.,0.,1.));
#179=DIRECTION('ref_axis',(1.,0.,0.));
#180=DIRECTION('center_axis',(0.,0.,1.));
#181=DIRECTION('ref_axis',(1.,0.,0.));
#182=CARTESIAN_POINT('',(0.,0.,0.));
#183=CARTESIAN_POINT('Origin',(0.,0.,-150.));
#184=CARTESIAN_POINT('',(0.,-7.5,-152.5));
#185=CARTESIAN_POINT('',(0.,-7.5,-147.5));
#186=CARTESIAN_POINT('Ctrl Pts',(2.77555756156289E-16,-7.5,-152.5));
#187=CARTESIAN_POINT('Ctrl Pts',(-0.316468304668377,-7.5,-152.5));
#188=CARTESIAN_POINT('Ctrl Pts',(-0.652415343052142,-7.4780059485864,-152.436261052008));
#189=CARTESIAN_POINT('Ctrl Pts',(-1.26769452989351,-7.39859238825851,-152.180358715291));
#190=CARTESIAN_POINT('Ctrl Pts',(-1.54721004786252,-7.34218277539207,-151.98832385807));
#191=CARTESIAN_POINT('Ctrl Pts',(-1.98842619999926,-7.23517214015746,-151.547107705933));
#192=CARTESIAN_POINT('Ctrl Pts',(-2.18038226906585,-7.17732603190584,-151.267632949894));
#193=CARTESIAN_POINT('Ctrl Pts',(-2.43622584817201,-7.09456695717814,-150.652504933659));
#194=CARTESIAN_POINT('Ctrl Pts',(-2.5,-7.07106781186548,-150.31661515102));
#195=CARTESIAN_POINT('Ctrl Pts',(-2.5,-7.07106781186548,-150.));
#196=CARTESIAN_POINT('Ctrl Pts',(-2.5,-7.07106781186548,-149.68338484898));
#197=CARTESIAN_POINT('Ctrl Pts',(-2.43622584817202,-7.09456695717814,-149.347495066341));
#198=CARTESIAN_POINT('Ctrl Pts',(-2.18038226906586,-7.17732603190583,-148.732367050106));
#199=CARTESIAN_POINT('Ctrl Pts',(-1.98842619999926,-7.23517214015746,-148.452892294067));
#200=CARTESIAN_POINT('Ctrl Pts',(-1.54721004786252,-7.34218277539207,-148.01167614193));
#201=CARTESIAN_POINT('Ctrl Pts',(-1.26769452989351,-7.3985923882585,-147.819641284709));
#202=CARTESIAN_POINT('Ctrl Pts',(-0.652415343052143,-7.4780059485864,-147.563738947992));
#203=CARTESIAN_POINT('Ctrl Pts',(-0.316468304668379,-7.5,-147.5));
#204=CARTESIAN_POINT('Ctrl Pts',(-1.38777878078145E-15,-7.5,-147.5));
#205=CARTESIAN_POINT('',(2.5,-7.07106781186548,-150.));
#206=CARTESIAN_POINT('Ctrl Pts',(2.5,-7.07106781186548,-150.));
#207=CARTESIAN_POINT('Ctrl Pts',(2.5,-7.07106781186548,-150.31661515102));
#208=CARTESIAN_POINT('Ctrl Pts',(2.43622584817202,-7.09456695717814,-150.652504933659));
#209=CARTESIAN_POINT('Ctrl Pts',(2.18038226906586,-7.17732603190583,-151.267632949894));
#210=CARTESIAN_POINT('Ctrl Pts',(1.98842619999926,-7.23517214015746,-151.547107705933));
#211=CARTESIAN_POINT('Ctrl Pts',(1.54721004786252,-7.34218277539207,-151.98832385807));
#212=CARTESIAN_POINT('Ctrl Pts',(1.26769452989351,-7.3985923882585,-152.180358715291));
#213=CARTESIAN_POINT('Ctrl Pts',(0.652415343052143,-7.4780059485864,-152.436261052008));
#214=CARTESIAN_POINT('Ctrl Pts',(0.316468304668378,-7.5,-152.5));
#215=CARTESIAN_POINT('Ctrl Pts',(9.71445146547012E-16,-7.5,-152.5));
#216=CARTESIAN_POINT('',(2.49999999999999,7.07106781186548,-150.));
#217=CARTESIAN_POINT('',(2.5,0.,-150.));
#218=CARTESIAN_POINT('',(0.,7.5,-152.5));
#219=CARTESIAN_POINT('Ctrl Pts',(-1.38777878078145E-16,7.5,-152.5));
#220=CARTESIAN_POINT('Ctrl Pts',(0.316468304668377,7.5,-152.5));
#221=CARTESIAN_POINT('Ctrl Pts',(0.652415343052143,7.4780059485864,-152.436261052008));
#222=CARTESIAN_POINT('Ctrl Pts',(1.26769452989351,7.3985923882585,-152.180358715291));
#223=CARTESIAN_POINT('Ctrl Pts',(1.54721004786252,7.34218277539207,-151.98832385807));
#224=CARTESIAN_POINT('Ctrl Pts',(1.98842619999926,7.23517214015746,-151.547107705933));
#225=CARTESIAN_POINT('Ctrl Pts',(2.18038226906586,7.17732603190583,-151.267632949894));
#226=CARTESIAN_POINT('Ctrl Pts',(2.43622584817202,7.09456695717814,-150.652504933659));
#227=CARTESIAN_POINT('Ctrl Pts',(2.5,7.07106781186548,-150.31661515102));
#228=CARTESIAN_POINT('Ctrl Pts',(2.5,7.07106781186548,-150.));
#229=CARTESIAN_POINT('',(0.,7.5,-147.5));
#230=CARTESIAN_POINT('Ctrl Pts',(-1.04083408558608E-15,7.5,-147.5));
#231=CARTESIAN_POINT('Ctrl Pts',(-0.316468304668378,7.5,-147.5));
#232=CARTESIAN_POINT('Ctrl Pts',(-0.652415343052143,7.4780059485864,-147.563738947992));
#233=CARTESIAN_POINT('Ctrl Pts',(-1.26769452989351,7.3985923882585,-147.819641284709));
#234=CARTESIAN_POINT('Ctrl Pts',(-1.54721004786252,7.34218277539207,-148.01167614193));
#235=CARTESIAN_POINT('Ctrl Pts',(-1.98842619999926,7.23517214015746,-148.452892294067));
#236=CARTESIAN_POINT('Ctrl Pts',(-2.18038226906588,7.17732603190582,-148.732367050106));
#237=CARTESIAN_POINT('Ctrl Pts',(-2.43622584817203,7.09456695717814,-149.347495066341));
#238=CARTESIAN_POINT('Ctrl Pts',(-2.5,7.07106781186548,-149.68338484898));
#239=CARTESIAN_POINT('Ctrl Pts',(-2.5,7.07106781186548,-150.));
#240=CARTESIAN_POINT('Ctrl Pts',(-2.5,7.07106781186548,-150.31661515102));
#241=CARTESIAN_POINT('Ctrl Pts',(-2.43622584817202,7.09456695717814,-150.652504933659));
#242=CARTESIAN_POINT('Ctrl Pts',(-2.18038226906586,7.17732603190583,-151.267632949894));
#243=CARTESIAN_POINT('Ctrl Pts',(-1.98842619999926,7.23517214015746,-151.547107705933));
#244=CARTESIAN_POINT('Ctrl Pts',(-1.54721004786252,7.34218277539207,-151.98832385807));
#245=CARTESIAN_POINT('Ctrl Pts',(-1.26769452989351,7.39859238825851,-152.180358715291));
#246=CARTESIAN_POINT('Ctrl Pts',(-0.652415343052142,7.4780059485864,-152.436261052008));
#247=CARTESIAN_POINT('Ctrl Pts',(-0.316468304668379,7.5,-152.5));
#248=CARTESIAN_POINT('Ctrl Pts',(-1.45716771982052E-15,7.5,-152.5));
#249=CARTESIAN_POINT('Ctrl Pts',(2.5,7.07106781186548,-150.));
#250=CARTESIAN_POINT('Ctrl Pts',(2.5,7.07106781186548,-149.68338484898));
#251=CARTESIAN_POINT('Ctrl Pts',(2.43622584817202,7.09456695717814,-149.347495066341));
#252=CARTESIAN_POINT('Ctrl Pts',(2.18038226906586,7.17732603190583,-148.732367050106));
#253=CARTESIAN_POINT('Ctrl Pts',(1.98842619999926,7.23517214015746,-148.452892294067));
#254=CARTESIAN_POINT('Ctrl Pts',(1.54721004786252,7.34218277539207,-148.01167614193));
#255=CARTESIAN_POINT('Ctrl Pts',(1.26769452989351,7.3985923882585,-147.819641284709));
#256=CARTESIAN_POINT('Ctrl Pts',(0.652415343052143,7.4780059485864,-147.563738947992));
#257=CARTESIAN_POINT('Ctrl Pts',(0.316468304668378,7.5,-147.5));
#258=CARTESIAN_POINT('Ctrl Pts',(9.71445146547012E-16,7.5,-147.5));
#259=CARTESIAN_POINT('Ctrl Pts',(-9.71445146547012E-16,-7.5,-147.5));
#260=CARTESIAN_POINT('Ctrl Pts',(0.316468304668376,-7.5,-147.5));
#261=CARTESIAN_POINT('Ctrl Pts',(0.652415343052143,-7.4780059485864,-147.563738947992));
#262=CARTESIAN_POINT('Ctrl Pts',(1.26769452989351,-7.3985923882585,-147.819641284709));
#263=CARTESIAN_POINT('Ctrl Pts',(1.54721004786252,-7.34218277539207,-148.01167614193));
#264=CARTESIAN_POINT('Ctrl Pts',(1.98842619999926,-7.23517214015746,-148.452892294067));
#265=CARTESIAN_POINT('Ctrl Pts',(2.18038226906586,-7.17732603190583,-148.732367050106));
#266=CARTESIAN_POINT('Ctrl Pts',(2.43622584817202,-7.09456695717814,-149.347495066341));
#267=CARTESIAN_POINT('Ctrl Pts',(2.5,-7.07106781186548,-149.68338484898));
#268=CARTESIAN_POINT('Ctrl Pts',(2.5,-7.07106781186548,-150.));
#269=CARTESIAN_POINT('Origin',(0.,0.,150.));
#270=CARTESIAN_POINT('',(0.,-7.5,147.5));
#271=CARTESIAN_POINT('',(0.,-7.5,152.5));
#272=CARTESIAN_POINT('Ctrl Pts',(1.38777878078145E-15,-7.5,147.5));
#273=CARTESIAN_POINT('Ctrl Pts',(-0.316468304668377,-7.5,147.5));
#274=CARTESIAN_POINT('Ctrl Pts',(-0.652415343052148,-7.4780059485864,147.563738947992));
#275=CARTESIAN_POINT('Ctrl Pts',(-1.26769452989351,-7.3985923882585,147.819641284709));
#276=CARTESIAN_POINT('Ctrl Pts',(-1.54721004786253,-7.34218277539207,148.01167614193));
#277=CARTESIAN_POINT('Ctrl Pts',(-1.98842619999927,-7.23517214015746,148.452892294067));
#278=CARTESIAN_POINT('Ctrl Pts',(-2.18038226906589,-7.17732603190582,148.732367050106));
#279=CARTESIAN_POINT('Ctrl Pts',(-2.43622584817204,-7.09456695717813,149.347495066341));
#280=CARTESIAN_POINT('Ctrl Pts',(-2.5,-7.07106781186547,149.68338484898));
#281=CARTESIAN_POINT('Ctrl Pts',(-2.5,-7.07106781186547,150.));
#282=CARTESIAN_POINT('Ctrl Pts',(-2.5,-7.07106781186547,150.31661515102));
#283=CARTESIAN_POINT('Ctrl Pts',(-2.43622584817203,-7.09456695717813,150.652504933659));
#284=CARTESIAN_POINT('Ctrl Pts',(-2.18038226906587,-7.17732603190583,151.267632949894));
#285=CARTESIAN_POINT('Ctrl Pts',(-1.98842619999927,-7.23517214015746,151.547107705933));
#286=CARTESIAN_POINT('Ctrl Pts',(-1.54721004786253,-7.34218277539207,151.98832385807));
#287=CARTESIAN_POINT('Ctrl Pts',(-1.26769452989351,-7.3985923882585,152.180358715291));
#288=CARTESIAN_POINT('Ctrl Pts',(-0.652415343052148,-7.4780059485864,152.436261052008));
#289=CARTESIAN_POINT('Ctrl Pts',(-0.316468304668378,-7.5,152.5));
#290=CARTESIAN_POINT('Ctrl Pts',(1.73472347597681E-16,-7.5,152.5));
#291=CARTESIAN_POINT('',(2.5,-7.07106781186547,150.));
#292=CARTESIAN_POINT('Ctrl Pts',(2.50000000000001,-7.07106781186547,150.));
#293=CARTESIAN_POINT('Ctrl Pts',(2.50000000000001,-7.07106781186547,149.68338484898));
#294=CARTESIAN_POINT('Ctrl Pts',(2.43622584817202,-7.09456695717814,149.347495066341));
#295=CARTESIAN_POINT('Ctrl Pts',(2.18038226906585,-7.17732603190583,148.732367050106));
#296=CARTESIAN_POINT('Ctrl Pts',(1.98842619999926,-7.23517214015746,148.452892294067));
#297=CARTESIAN_POINT('Ctrl Pts',(1.54721004786253,-7.34218277539206,148.01167614193));
#298=CARTESIAN_POINT('Ctrl Pts',(1.26769452989351,-7.3985923882585,147.819641284709));
#299=CARTESIAN_POINT('Ctrl Pts',(0.652415343052148,-7.4780059485864,147.563738947992));
#300=CARTESIAN_POINT('Ctrl Pts',(0.316468304668376,-7.5,147.5));
#301=CARTESIAN_POINT('Ctrl Pts',(-1.73472347597681E-15,-7.5,147.5));
#302=CARTESIAN_POINT('',(2.5,7.07106781186547,150.));
#303=CARTESIAN_POINT('',(2.5,0.,150.));
#304=CARTESIAN_POINT('',(0.,7.5,147.5));
#305=CARTESIAN_POINT('Ctrl Pts',(9.0205620750794E-16,7.5,147.5));
#306=CARTESIAN_POINT('Ctrl Pts',(0.316468304668379,7.5,147.5));
#307=CARTESIAN_POINT('Ctrl Pts',(0.652415343052148,7.4780059485864,147.563738947992));
#308=CARTESIAN_POINT('Ctrl Pts',(1.26769452989351,7.3985923882585,147.819641284709));
#309=CARTESIAN_POINT('Ctrl Pts',(1.54721004786253,7.34218277539207,148.01167614193));
#310=CARTESIAN_POINT('Ctrl Pts',(1.98842619999927,7.23517214015746,148.452892294067));
#311=CARTESIAN_POINT('Ctrl Pts',(2.18038226906585,7.17732603190583,148.732367050106));
#312=CARTESIAN_POINT('Ctrl Pts',(2.43622584817202,7.09456695717814,149.347495066341));
#313=CARTESIAN_POINT('Ctrl Pts',(2.5,7.07106781186547,149.68338484898));
#314=CARTESIAN_POINT('Ctrl Pts',(2.5,7.07106781186547,150.));
#315=CARTESIAN_POINT('',(0.,7.5,152.5));
#316=CARTESIAN_POINT('Ctrl Pts',(1.73472347597681E-16,7.5,152.5));
#317=CARTESIAN_POINT('Ctrl Pts',(-0.316468304668378,7.5,152.5));
#318=CARTESIAN_POINT('Ctrl Pts',(-0.652415343052148,7.4780059485864,152.436261052008));
#319=CARTESIAN_POINT('Ctrl Pts',(-1.26769452989351,7.3985923882585,152.180358715291));
#320=CARTESIAN_POINT('Ctrl Pts',(-1.54721004786253,7.34218277539207,151.98832385807));
#321=CARTESIAN_POINT('Ctrl Pts',(-1.98842619999926,7.23517214015746,151.547107705934));
#322=CARTESIAN_POINT('Ctrl Pts',(-2.18038226906587,7.17732603190583,151.267632949894));
#323=CARTESIAN_POINT('Ctrl Pts',(-2.43622584817203,7.09456695717814,150.652504933659));
#324=CARTESIAN_POINT('Ctrl Pts',(-2.5,7.07106781186547,150.31661515102));
#325=CARTESIAN_POINT('Ctrl Pts',(-2.5,7.07106781186547,150.));
#326=CARTESIAN_POINT('Ctrl Pts',(-2.5,7.07106781186547,149.68338484898));
#327=CARTESIAN_POINT('Ctrl Pts',(-2.43622584817203,7.09456695717813,149.347495066341));
#328=CARTESIAN_POINT('Ctrl Pts',(-2.18038226906587,7.17732603190583,148.732367050106));
#329=CARTESIAN_POINT('Ctrl Pts',(-1.98842619999927,7.23517214015746,148.452892294067));
#330=CARTESIAN_POINT('Ctrl Pts',(-1.54721004786253,7.34218277539207,148.01167614193));
#331=CARTESIAN_POINT('Ctrl Pts',(-1.26769452989351,7.3985923882585,147.819641284709));
#332=CARTESIAN_POINT('Ctrl Pts',(-0.652415343052147,7.4780059485864,147.563738947992));
#333=CARTESIAN_POINT('Ctrl Pts',(-0.316468304668377,7.5,147.5));
#334=CARTESIAN_POINT('Ctrl Pts',(1.87350135405495E-15,7.5,147.5));
#335=CARTESIAN_POINT('Ctrl Pts',(2.5,7.07106781186547,150.));
#336=CARTESIAN_POINT('Ctrl Pts',(2.5,7.07106781186547,150.31661515102));
#337=CARTESIAN_POINT('Ctrl Pts',(2.43622584817203,7.09456695717813,150.652504933659));
#338=CARTESIAN_POINT('Ctrl Pts',(2.18038226906589,7.17732603190582,151.267632949894));
#339=CARTESIAN_POINT('Ctrl Pts',(1.98842619999926,7.23517214015746,151.547107705933));
#340=CARTESIAN_POINT('Ctrl Pts',(1.54721004786253,7.34218277539207,151.98832385807));
#341=CARTESIAN_POINT('Ctrl Pts',(1.26769452989351,7.3985923882585,152.180358715291));
#342=CARTESIAN_POINT('Ctrl Pts',(0.652415343052147,7.4780059485864,152.436261052008));
#343=CARTESIAN_POINT('Ctrl Pts',(0.316468304668378,7.5,152.5));
#344=CARTESIAN_POINT('Ctrl Pts',(-4.5102810375397E-16,7.5,152.5));
#345=CARTESIAN_POINT('Ctrl Pts',(4.16333634234434E-16,-7.5,152.5));
#346=CARTESIAN_POINT('Ctrl Pts',(0.316468304668379,-7.5,152.5));
#347=CARTESIAN_POINT('Ctrl Pts',(0.652415343052147,-7.4780059485864,152.436261052008));
#348=CARTESIAN_POINT('Ctrl Pts',(1.26769452989351,-7.3985923882585,152.180358715291));
#349=CARTESIAN_POINT('Ctrl Pts',(1.54721004786253,-7.34218277539207,151.98832385807));
#350=CARTESIAN_POINT('Ctrl Pts',(1.98842619999926,-7.23517214015746,151.547107705933));
#351=CARTESIAN_POINT('Ctrl Pts',(2.18038226906589,-7.17732603190582,151.267632949894));
#352=CARTESIAN_POINT('Ctrl Pts',(2.43622584817203,-7.09456695717813,150.652504933659));
#353=CARTESIAN_POINT('Ctrl Pts',(2.50000000000001,-7.07106781186547,150.31661515102));
#354=CARTESIAN_POINT('Ctrl Pts',(2.50000000000001,-7.07106781186547,150.));
#355=CARTESIAN_POINT('Origin',(0.,0.,0.));
#356=CARTESIAN_POINT('',(-7.5,-9.18485099360515E-16,200.));
#357=CARTESIAN_POINT('Origin',(0.,0.,200.));
#358=CARTESIAN_POINT('',(-7.5,-9.18485099360515E-16,-200.));
#359=CARTESIAN_POINT('',(-7.5,-9.18485099360515E-16,0.));
#360=CARTESIAN_POINT('Origin',(0.,0.,-200.));
#361=CARTESIAN_POINT('Origin',(0.,0.,-200.));
#362=CARTESIAN_POINT('Origin',(0.,0.,200.));
#363=UNCERTAINTY_MEASURE_WITH_UNIT(LENGTH_MEASURE(0.01),#367,
'DISTANCE_ACCURACY_VALUE',
'Maximum model space distance between geometric entities at asserted c
onnectivities');
#364=UNCERTAINTY_MEASURE_WITH_UNIT(LENGTH_MEASURE(0.01),#367,
'DISTANCE_ACCURACY_VALUE',
'Maximum model space distance between geometric entities at asserted c
onnectivities');
#365=(
GEOMETRIC_REPRESENTATION_CONTEXT(3)
GLOBAL_UNCERTAINTY_ASSIGNED_CONTEXT((#363))
GLOBAL_UNIT_ASSIGNED_CONTEXT((#367,#369,#370))
REPRESENTATION_CONTEXT('','3D')
);
#366=(
GEOMETRIC_REPRESENTATION_CONTEXT(3)
GLOBAL_UNCERTAINTY_ASSIGNED_CONTEXT((#364))
GLOBAL_UNIT_ASSIGNED_CONTEXT((#367,#369,#370))
REPRESENTATION_CONTEXT('','3D')
);
#367=(
LENGTH_UNIT()
NAMED_UNIT(*)
SI_UNIT(.MILLI.,.METRE.)
);
#368=(
LENGTH_UNIT()
NAMED_UNIT(*)
SI_UNIT(.CENTI.,.METRE.)
);
#369=(
NAMED_UNIT(*)
PLANE_ANGLE_UNIT()
SI_UNIT($,.RADIAN.)
);
#370=(
NAMED_UNIT(*)
SI_UNIT($,.STERADIAN.)
SOLID_ANGLE_UNIT()
);
#371=SHAPE_DEFINITION_REPRESENTATION(#372,#373);
#372=PRODUCT_DEFINITION_SHAPE('',$,#375);
#373=SHAPE_REPRESENTATION('',(#155),#365);
#374=PRODUCT_DEFINITION_CONTEXT('part definition',#379,'design');
#375=PRODUCT_DEFINITION('Stange test','Lenkstange',#376,#374);
#376=PRODUCT_DEFINITION_FORMATION('',$,#381);
#377=PRODUCT_RELATED_PRODUCT_CATEGORY('Lenkstange','Lenkstange',(#381));
#378=APPLICATION_PROTOCOL_DEFINITION('international standard',
'automotive_design',2009,#379);
#379=APPLICATION_CONTEXT(
'Core Data for Automotive Mechanical Design Process');
#380=PRODUCT_CONTEXT('part definition',#379,'mechanical');
#381=PRODUCT('Stange test','Lenkstange',$,(#380));
#382=PRESENTATION_STYLE_ASSIGNMENT((#384));
#383=PRESENTATION_STYLE_ASSIGNMENT((#385));
#384=SURFACE_STYLE_USAGE(.BOTH.,#390);
#385=SURFACE_STYLE_USAGE(.BOTH.,#391);
#386=SURFACE_STYLE_RENDERING_WITH_PROPERTIES($,#398,(#388));
#387=SURFACE_STYLE_RENDERING_WITH_PROPERTIES($,#399,(#389));
#388=SURFACE_STYLE_TRANSPARENT(0.);
#389=SURFACE_STYLE_TRANSPARENT(0.);
#390=SURFACE_SIDE_STYLE('',(#392,#386));
#391=SURFACE_SIDE_STYLE('',(#393,#387));
#392=SURFACE_STYLE_FILL_AREA(#394);
#393=SURFACE_STYLE_FILL_AREA(#395);
#394=FILL_AREA_STYLE('',(#396));
#395=FILL_AREA_STYLE('',(#397));
#396=FILL_AREA_STYLE_COLOUR('',#398);
#397=FILL_AREA_STYLE_COLOUR('',#399);
#398=COLOUR_RGB('',0.749019607843137,0.749019607843137,0.749019607843137);
#399=COLOUR_RGB('',0.956862745098039,0.956862745098039,0.956862745098039);
ENDSEC;
END-ISO-10303-21;
