ISO-10303-21;
HEADER;
/* Generated by software containing ST-Developer
 * from STEP Tools, Inc. (www.steptools.com) 
 */

FILE_DESCRIPTION(
/* description */ (''),
/* implementation_level */ '2;1');

FILE_NAME(
/* name */ 'Ruder_passende_Mae.stp',
/* time_stamp */ '2026-09-02T21:24:03+02:00',
/* author */ ('bluhm'),
/* organization */ (''),
/* preprocessor_version */ 'ST-DEVELOPER v20.1',
/* originating_system */ 'Autodesk Inventor 2026',
/* authorisation */ '');

FILE_SCHEMA (('AUTOMOTIVE_DESIGN { 1 0 10303 214 3 1 1 }'));
ENDSEC;

DATA;
#10=MECHANICAL_DESIGN_GEOMETRIC_PRESENTATION_REPRESENTATION('',(#297,#298,
#299,#300,#301,#302,#303,#304,#305,#306,#307,#308,#309,#310,#311,#312,#313,
#314,#315,#316),#859);
#11=SHAPE_REPRESENTATION_RELATIONSHIP('SRR','None',#866,#12);
#12=ADVANCED_BREP_SHAPE_REPRESENTATION('',(#13),#858);
#13=MANIFOLD_SOLID_BREP('Volumenk\X\F6rper1',#336);
#14=B_SPLINE_SURFACE_WITH_KNOTS('',3,3,((#698,#699,#700,#701,#702,#703,
#704,#705,#706,#707),(#708,#709,#710,#711,#712,#713,#714,#715,#716,#717),
(#718,#719,#720,#721,#722,#723,#724,#725,#726,#727),(#728,#729,#730,#731,
#732,#733,#734,#735,#736,#737),(#738,#739,#740,#741,#742,#743,#744,#745,
#746,#747)),.UNSPECIFIED.,.F.,.F.,.F.,(4,1,4),(4,2,1,1,1,1,4),(0.,0.571428571428571,
1.),(-0.0022755191231586,0.,0.281781257828582,0.563562515657163,0.845343773485745,
1.12712503131433,1.40890628914291),.UNSPECIFIED.);
#15=B_SPLINE_SURFACE_WITH_KNOTS('',3,3,((#764,#765,#766,#767,#768,#769,
#770,#771,#772,#773,#774,#775),(#776,#777,#778,#779,#780,#781,#782,#783,
#784,#785,#786,#787),(#788,#789,#790,#791,#792,#793,#794,#795,#796,#797,
#798,#799),(#800,#801,#802,#803,#804,#805,#806,#807,#808,#809,#810,#811),
(#812,#813,#814,#815,#816,#817,#818,#819,#820,#821,#822,#823)),
 .UNSPECIFIED.,.F.,.F.,.F.,(4,1,4),(4,1,1,1,1,1,1,2,4),(0.,0.571428571428571,
1.),(0.,0.281781257828544,0.563562515657088,0.845343773485632,0.986234402399903,
1.12712503131418,1.26801566022845,1.40890628914272,1.41118180826557),
 .UNSPECIFIED.);
#16=PLANE('',#372);
#17=PLANE('',#373);
#18=PLANE('',#381);
#19=PLANE('',#384);
#20=PLANE('',#387);
#21=PLANE('',#388);
#22=PLANE('',#389);
#23=TOROIDAL_SURFACE('',#368,18.,2.);
#24=TOROIDAL_SURFACE('',#375,22.,2.);
#25=ELLIPSE('',#367,18.0000000000001,2.);
#26=ELLIPSE('',#379,18.0000000000001,2.);
#27=FACE_BOUND('',#63,.T.);
#28=FACE_BOUND('',#64,.T.);
#29=FACE_BOUND('',#65,.T.);
#30=CIRCLE('',#361,20.);
#31=CIRCLE('',#362,20.);
#32=CIRCLE('',#363,20.);
#33=CIRCLE('',#364,20.);
#34=CIRCLE('',#366,2.);
#35=CIRCLE('',#369,2.);
#36=CIRCLE('',#370,18.);
#37=CIRCLE('',#374,2.);
#38=CIRCLE('',#376,2.00000000000001);
#39=CIRCLE('',#377,22.);
#40=CIRCLE('',#383,4.99999999999999);
#41=CIRCLE('',#386,5.00000000000002);
#42=FACE_OUTER_BOUND('',#61,.T.);
#43=FACE_OUTER_BOUND('',#62,.T.);
#44=FACE_OUTER_BOUND('',#66,.T.);
#45=FACE_OUTER_BOUND('',#67,.T.);
#46=FACE_OUTER_BOUND('',#68,.T.);
#47=FACE_OUTER_BOUND('',#69,.T.);
#48=FACE_OUTER_BOUND('',#70,.T.);
#49=FACE_OUTER_BOUND('',#71,.T.);
#50=FACE_OUTER_BOUND('',#72,.T.);
#51=FACE_OUTER_BOUND('',#73,.T.);
#52=FACE_OUTER_BOUND('',#74,.T.);
#53=FACE_OUTER_BOUND('',#75,.T.);
#54=FACE_OUTER_BOUND('',#76,.T.);
#55=FACE_OUTER_BOUND('',#77,.T.);
#56=FACE_OUTER_BOUND('',#78,.T.);
#57=FACE_OUTER_BOUND('',#79,.T.);
#58=FACE_OUTER_BOUND('',#80,.T.);
#59=FACE_OUTER_BOUND('',#81,.T.);
#60=FACE_OUTER_BOUND('',#82,.T.);
#61=EDGE_LOOP('',(#201,#202,#203,#204,#205,#206,#207,#208));
#62=EDGE_LOOP('',(#209,#210,#211,#212,#213,#214,#215,#216,#217,#218,#219,
#220,#221,#222,#223,#224));
#63=EDGE_LOOP('',(#225,#226));
#64=EDGE_LOOP('',(#227,#228));
#65=EDGE_LOOP('',(#229,#230));
#66=EDGE_LOOP('',(#231,#232,#233,#234));
#67=EDGE_LOOP('',(#235,#236,#237,#238,#239));
#68=EDGE_LOOP('',(#240,#241,#242,#243));
#69=EDGE_LOOP('',(#244,#245,#246,#247));
#70=EDGE_LOOP('',(#248,#249,#250));
#71=EDGE_LOOP('',(#251,#252,#253));
#72=EDGE_LOOP('',(#254,#255,#256,#257));
#73=EDGE_LOOP('',(#258,#259,#260));
#74=EDGE_LOOP('',(#261,#262,#263,#264));
#75=EDGE_LOOP('',(#265,#266,#267,#268));
#76=EDGE_LOOP('',(#269,#270,#271,#272));
#77=EDGE_LOOP('',(#273,#274,#275,#276,#277));
#78=EDGE_LOOP('',(#278));
#79=EDGE_LOOP('',(#279,#280,#281,#282,#283));
#80=EDGE_LOOP('',(#284));
#81=EDGE_LOOP('',(#285));
#82=EDGE_LOOP('',(#286,#287,#288));
#83=LINE('',#494,#99);
#84=LINE('',#566,#100);
#85=LINE('',#594,#101);
#86=LINE('',#596,#102);
#87=LINE('',#598,#103);
#88=LINE('',#680,#104);
#89=LINE('',#684,#105);
#90=LINE('',#691,#106);
#91=LINE('',#692,#107);
#92=LINE('',#695,#108);
#93=LINE('',#696,#109);
#94=LINE('',#838,#110);
#95=LINE('',#840,#111);
#96=LINE('',#842,#112);
#97=LINE('',#847,#113);
#98=LINE('',#852,#114);
#99=VECTOR('',#394,7.50000000000001);
#100=VECTOR('',#399,10.);
#101=VECTOR('',#402,10.);
#102=VECTOR('',#405,20.);
#103=VECTOR('',#406,20.);
#104=VECTOR('',#411,10.);
#105=VECTOR('',#414,10.);
#106=VECTOR('',#425,10.);
#107=VECTOR('',#426,10.);
#108=VECTOR('',#429,10.);
#109=VECTOR('',#430,10.);
#110=VECTOR('',#443,10.);
#111=VECTOR('',#446,10.);
#112=VECTOR('',#449,10.);
#113=VECTOR('',#456,4.99999999999999);
#114=VECTOR('',#463,5.00000000000002);
#115=B_SPLINE_CURVE_WITH_KNOTS('',3,(#474,#475,#476,#477,#478,#479,#480,
#481,#482,#483,#484,#485,#486,#487,#488,#489,#490,#491,#492),
 .UNSPECIFIED.,.F.,.F.,(4,2,2,2,3,2,2,2,4),(3.42679037056607,3.71224685423683,
3.99770333790759,4.28337858266451,4.56905382742142,4.85472907217834,5.14040431693525,
5.42586080060602,5.71131728427678),.UNSPECIFIED.);
#116=B_SPLINE_CURVE_WITH_KNOTS('',3,(#496,#497,#498,#499,#500,#501,#502,
#503,#504,#505,#506,#507,#508,#509,#510,#511,#512,#513,#514),
 .UNSPECIFIED.,.F.,.F.,(4,2,2,2,3,2,2,2,4),(3.42679037056607,3.71224685423683,
3.99770333790759,4.28337858266451,4.56905382742142,4.85472907217834,5.14040431693525,
5.42586080060601,5.71131728427678),.UNSPECIFIED.);
#117=B_SPLINE_CURVE_WITH_KNOTS('',3,(#516,#517,#518,#519),.UNSPECIFIED.,
 .F.,.F.,(4,4),(3.20823910865949,3.42679037056607),.UNSPECIFIED.);
#118=B_SPLINE_CURVE_WITH_KNOTS('',3,(#521,#522,#523,#524,#525,#526,#527,
#528,#529,#530,#531,#532,#533,#534,#535,#536,#537,#538),.UNSPECIFIED.,.F.,
 .F.,(4,2,2,2,2,2,2,2,4),(1.36081471876193,1.42771994052612,1.71317642419688,
1.9988516689538,2.28452691371071,2.57020215846763,2.85587740322454,3.1413338868953,
3.20823910865949),.UNSPECIFIED.);
#119=B_SPLINE_CURVE_WITH_KNOTS('',3,(#539,#540,#541,#542),.UNSPECIFIED.,
 .F.,.F.,(4,4),(1.14226345685536,1.36081471876193),.UNSPECIFIED.);
#120=B_SPLINE_CURVE_WITH_KNOTS('',3,(#543,#544,#545,#546,#547,#548,#549,
#550,#551,#552,#553,#554,#555,#556,#557,#558,#559,#560),.UNSPECIFIED.,.F.,
 .F.,(4,2,2,2,2,2,2,2,4),(1.14226345685536,1.42771994052612,1.71317642419688,
1.9988516689538,2.28452691371071,2.57020215846763,2.85587740322454,3.1413338868953,
3.42679037056607),.UNSPECIFIED.);
#121=B_SPLINE_CURVE_WITH_KNOTS('',3,(#568,#569,#570,#571,#572,#573,#574,
#575,#576,#577,#578,#579),.UNSPECIFIED.,.F.,.F.,(4,1,1,1,1,1,1,2,4),(0.,
0.281781257828544,0.563562515657088,0.845343773485632,0.986234402399903,
1.12712503131418,1.26801566022845,1.40890628914272,1.41118180826557),
 .UNSPECIFIED.);
#122=B_SPLINE_CURVE_WITH_KNOTS('',3,(#583,#584,#585,#586,#587,#588,#589,
#590,#591,#592),.UNSPECIFIED.,.F.,.F.,(4,2,1,1,1,1,4),(-0.0022755191231586,
0.,0.281781257828582,0.563562515657163,0.845343773485745,1.12712503131433,
1.40890628914291),.UNSPECIFIED.);
#123=B_SPLINE_CURVE_WITH_KNOTS('',3,(#602,#603,#604,#605,#606,#607,#608,
#609,#610,#611,#612,#613,#614,#615,#616,#617,#618,#619),.UNSPECIFIED.,.F.,
 .F.,(4,2,2,2,2,2,2,2,4),(0.75684355026488,0.946041209379736,1.13523886849459,
1.32446298451218,1.51368710052976,1.70291121654735,1.89213533256493,2.08133299167979,
2.27053065079464),.UNSPECIFIED.);
#124=B_SPLINE_CURVE_WITH_KNOTS('',3,(#620,#621,#622,#623,#624,#625,#626,
#627,#628,#629,#630,#631,#632,#633,#634,#635,#636,#637,#638),
 .UNSPECIFIED.,.F.,.F.,(4,2,2,2,3,2,2,2,4),(2.27053065079464,2.4597283099095,
2.64892596902435,2.83815008504194,3.02737420105953,3.21659831707711,3.40582243309469,
3.59502009220955,3.78421775132441),.UNSPECIFIED.);
#125=B_SPLINE_CURVE_WITH_KNOTS('',3,(#641,#642,#643,#644,#645,#646,#647,
#648,#649,#650,#651,#652,#653,#654,#655,#656,#657,#658),.UNSPECIFIED.,.F.,
 .F.,(4,2,2,2,2,2,2,2,4),(0.756843550264887,0.946041209379743,1.1352388684946,
1.32446298451219,1.51368710052977,1.70291121654736,1.89213533256495,2.08133299167981,
2.27053065079466),.UNSPECIFIED.);
#126=B_SPLINE_CURVE_WITH_KNOTS('',3,(#659,#660,#661,#662,#663,#664,#665,
#666,#667,#668,#669,#670,#671,#672,#673,#674,#675,#676,#677),
 .UNSPECIFIED.,.F.,.F.,(4,2,2,2,3,2,2,2,4),(2.27053065079466,2.45972830990952,
2.64892596902437,2.83815008504196,3.02737420105955,3.21659831707714,3.40582243309473,
3.59502009220958,3.78421775132444),.UNSPECIFIED.);
#127=B_SPLINE_CURVE_WITH_KNOTS('',3,(#750,#751,#752,#753,#754,#755,#756,
#757,#758,#759),.UNSPECIFIED.,.F.,.F.,(4,1,1,1,1,2,4),(-1.40890628914291,
-1.12712503131433,-0.845343773485745,-0.563562515657163,-0.281781257828582,
0.,0.0022755191231586),.UNSPECIFIED.);
#128=B_SPLINE_CURVE_WITH_KNOTS('',3,(#824,#825,#826,#827,#828,#829,#830,
#831,#832,#833,#834,#835),.UNSPECIFIED.,.F.,.F.,(4,2,1,1,1,1,1,1,4),(-1.41118180826557,
-1.40890628914272,-1.26801566022845,-1.12712503131418,-0.986234402399903,
-0.845343773485632,-0.563562515657088,-0.281781257828544,0.),
 .UNSPECIFIED.);
#129=VERTEX_POINT('',#472);
#130=VERTEX_POINT('',#473);
#131=VERTEX_POINT('',#493);
#132=VERTEX_POINT('',#495);
#133=VERTEX_POINT('',#515);
#134=VERTEX_POINT('',#520);
#135=VERTEX_POINT('',#562);
#136=VERTEX_POINT('',#563);
#137=VERTEX_POINT('',#565);
#138=VERTEX_POINT('',#567);
#139=VERTEX_POINT('',#580);
#140=VERTEX_POINT('',#582);
#141=VERTEX_POINT('',#593);
#142=VERTEX_POINT('',#597);
#143=VERTEX_POINT('',#600);
#144=VERTEX_POINT('',#601);
#145=VERTEX_POINT('',#639);
#146=VERTEX_POINT('',#640);
#147=VERTEX_POINT('',#679);
#148=VERTEX_POINT('',#681);
#149=VERTEX_POINT('',#683);
#150=VERTEX_POINT('',#687);
#151=VERTEX_POINT('',#694);
#152=VERTEX_POINT('',#748);
#153=VERTEX_POINT('',#761);
#154=VERTEX_POINT('',#837);
#155=VERTEX_POINT('',#845);
#156=VERTEX_POINT('',#850);
#157=EDGE_CURVE('',#129,#130,#115,.T.);
#158=EDGE_CURVE('',#129,#131,#83,.T.);
#159=EDGE_CURVE('',#132,#131,#116,.T.);
#160=EDGE_CURVE('',#133,#132,#117,.T.);
#161=EDGE_CURVE('',#134,#133,#118,.T.);
#162=EDGE_CURVE('',#131,#134,#119,.T.);
#163=EDGE_CURVE('',#130,#129,#120,.T.);
#164=EDGE_CURVE('',#135,#136,#30,.T.);
#165=EDGE_CURVE('',#137,#135,#84,.T.);
#166=EDGE_CURVE('',#138,#137,#121,.T.);
#167=EDGE_CURVE('',#139,#138,#31,.T.);
#168=EDGE_CURVE('',#140,#139,#122,.T.);
#169=EDGE_CURVE('',#140,#141,#85,.T.);
#170=EDGE_CURVE('',#136,#141,#32,.T.);
#171=EDGE_CURVE('',#136,#133,#86,.T.);
#172=EDGE_CURVE('',#134,#142,#87,.T.);
#173=EDGE_CURVE('',#142,#142,#33,.T.);
#174=EDGE_CURVE('',#143,#144,#123,.T.);
#175=EDGE_CURVE('',#144,#143,#124,.T.);
#176=EDGE_CURVE('',#145,#146,#125,.T.);
#177=EDGE_CURVE('',#146,#145,#126,.T.);
#178=EDGE_CURVE('',#147,#135,#88,.T.);
#179=EDGE_CURVE('',#135,#148,#34,.T.);
#180=EDGE_CURVE('',#148,#149,#89,.T.);
#181=EDGE_CURVE('',#149,#147,#25,.T.);
#182=EDGE_CURVE('',#141,#150,#35,.T.);
#183=EDGE_CURVE('',#150,#148,#36,.T.);
#184=EDGE_CURVE('',#149,#150,#90,.T.);
#185=EDGE_CURVE('',#141,#147,#91,.T.);
#186=EDGE_CURVE('',#151,#147,#92,.T.);
#187=EDGE_CURVE('',#137,#151,#93,.T.);
#188=EDGE_CURVE('',#139,#152,#37,.T.);
#189=EDGE_CURVE('',#152,#140,#127,.T.);
#190=EDGE_CURVE('',#138,#153,#38,.T.);
#191=EDGE_CURVE('',#153,#152,#39,.T.);
#192=EDGE_CURVE('',#137,#153,#128,.T.);
#193=EDGE_CURVE('',#152,#154,#94,.T.);
#194=EDGE_CURVE('',#154,#151,#26,.T.);
#195=EDGE_CURVE('',#151,#140,#95,.T.);
#196=EDGE_CURVE('',#154,#153,#96,.T.);
#197=EDGE_CURVE('',#155,#155,#40,.T.);
#198=EDGE_CURVE('',#155,#144,#97,.T.);
#199=EDGE_CURVE('',#156,#156,#41,.T.);
#200=EDGE_CURVE('',#156,#146,#98,.T.);
#201=ORIENTED_EDGE('',*,*,#157,.F.);
#202=ORIENTED_EDGE('',*,*,#158,.T.);
#203=ORIENTED_EDGE('',*,*,#159,.F.);
#204=ORIENTED_EDGE('',*,*,#160,.F.);
#205=ORIENTED_EDGE('',*,*,#161,.F.);
#206=ORIENTED_EDGE('',*,*,#162,.F.);
#207=ORIENTED_EDGE('',*,*,#158,.F.);
#208=ORIENTED_EDGE('',*,*,#163,.F.);
#209=ORIENTED_EDGE('',*,*,#164,.F.);
#210=ORIENTED_EDGE('',*,*,#165,.F.);
#211=ORIENTED_EDGE('',*,*,#166,.F.);
#212=ORIENTED_EDGE('',*,*,#167,.F.);
#213=ORIENTED_EDGE('',*,*,#168,.F.);
#214=ORIENTED_EDGE('',*,*,#169,.T.);
#215=ORIENTED_EDGE('',*,*,#170,.F.);
#216=ORIENTED_EDGE('',*,*,#171,.T.);
#217=ORIENTED_EDGE('',*,*,#160,.T.);
#218=ORIENTED_EDGE('',*,*,#159,.T.);
#219=ORIENTED_EDGE('',*,*,#162,.T.);
#220=ORIENTED_EDGE('',*,*,#172,.T.);
#221=ORIENTED_EDGE('',*,*,#173,.F.);
#222=ORIENTED_EDGE('',*,*,#172,.F.);
#223=ORIENTED_EDGE('',*,*,#161,.T.);
#224=ORIENTED_EDGE('',*,*,#171,.F.);
#225=ORIENTED_EDGE('',*,*,#163,.T.);
#226=ORIENTED_EDGE('',*,*,#157,.T.);
#227=ORIENTED_EDGE('',*,*,#174,.T.);
#228=ORIENTED_EDGE('',*,*,#175,.T.);
#229=ORIENTED_EDGE('',*,*,#176,.T.);
#230=ORIENTED_EDGE('',*,*,#177,.T.);
#231=ORIENTED_EDGE('',*,*,#178,.T.);
#232=ORIENTED_EDGE('',*,*,#179,.T.);
#233=ORIENTED_EDGE('',*,*,#180,.T.);
#234=ORIENTED_EDGE('',*,*,#181,.T.);
#235=ORIENTED_EDGE('',*,*,#182,.T.);
#236=ORIENTED_EDGE('',*,*,#183,.T.);
#237=ORIENTED_EDGE('',*,*,#179,.F.);
#238=ORIENTED_EDGE('',*,*,#164,.T.);
#239=ORIENTED_EDGE('',*,*,#170,.T.);
#240=ORIENTED_EDGE('',*,*,#184,.T.);
#241=ORIENTED_EDGE('',*,*,#182,.F.);
#242=ORIENTED_EDGE('',*,*,#185,.T.);
#243=ORIENTED_EDGE('',*,*,#181,.F.);
#244=ORIENTED_EDGE('',*,*,#178,.F.);
#245=ORIENTED_EDGE('',*,*,#186,.F.);
#246=ORIENTED_EDGE('',*,*,#187,.F.);
#247=ORIENTED_EDGE('',*,*,#165,.T.);
#248=ORIENTED_EDGE('',*,*,#180,.F.);
#249=ORIENTED_EDGE('',*,*,#183,.F.);
#250=ORIENTED_EDGE('',*,*,#184,.F.);
#251=ORIENTED_EDGE('',*,*,#188,.T.);
#252=ORIENTED_EDGE('',*,*,#189,.T.);
#253=ORIENTED_EDGE('',*,*,#168,.T.);
#254=ORIENTED_EDGE('',*,*,#190,.T.);
#255=ORIENTED_EDGE('',*,*,#191,.T.);
#256=ORIENTED_EDGE('',*,*,#188,.F.);
#257=ORIENTED_EDGE('',*,*,#167,.T.);
#258=ORIENTED_EDGE('',*,*,#166,.T.);
#259=ORIENTED_EDGE('',*,*,#192,.T.);
#260=ORIENTED_EDGE('',*,*,#190,.F.);
#261=ORIENTED_EDGE('',*,*,#189,.F.);
#262=ORIENTED_EDGE('',*,*,#193,.T.);
#263=ORIENTED_EDGE('',*,*,#194,.T.);
#264=ORIENTED_EDGE('',*,*,#195,.T.);
#265=ORIENTED_EDGE('',*,*,#192,.F.);
#266=ORIENTED_EDGE('',*,*,#187,.T.);
#267=ORIENTED_EDGE('',*,*,#194,.F.);
#268=ORIENTED_EDGE('',*,*,#196,.T.);
#269=ORIENTED_EDGE('',*,*,#185,.F.);
#270=ORIENTED_EDGE('',*,*,#169,.F.);
#271=ORIENTED_EDGE('',*,*,#195,.F.);
#272=ORIENTED_EDGE('',*,*,#186,.T.);
#273=ORIENTED_EDGE('',*,*,#197,.F.);
#274=ORIENTED_EDGE('',*,*,#198,.T.);
#275=ORIENTED_EDGE('',*,*,#174,.F.);
#276=ORIENTED_EDGE('',*,*,#175,.F.);
#277=ORIENTED_EDGE('',*,*,#198,.F.);
#278=ORIENTED_EDGE('',*,*,#197,.T.);
#279=ORIENTED_EDGE('',*,*,#199,.F.);
#280=ORIENTED_EDGE('',*,*,#200,.T.);
#281=ORIENTED_EDGE('',*,*,#176,.F.);
#282=ORIENTED_EDGE('',*,*,#177,.F.);
#283=ORIENTED_EDGE('',*,*,#200,.F.);
#284=ORIENTED_EDGE('',*,*,#199,.T.);
#285=ORIENTED_EDGE('',*,*,#173,.T.);
#286=ORIENTED_EDGE('',*,*,#191,.F.);
#287=ORIENTED_EDGE('',*,*,#196,.F.);
#288=ORIENTED_EDGE('',*,*,#193,.F.);
#289=CYLINDRICAL_SURFACE('',#359,7.50000000000001);
#290=CYLINDRICAL_SURFACE('',#360,20.);
#291=CYLINDRICAL_SURFACE('',#365,2.);
#292=CYLINDRICAL_SURFACE('',#371,2.);
#293=CYLINDRICAL_SURFACE('',#378,2.);
#294=CYLINDRICAL_SURFACE('',#380,2.);
#295=CYLINDRICAL_SURFACE('',#382,4.99999999999999);
#296=CYLINDRICAL_SURFACE('',#385,5.00000000000002);
#297=STYLED_ITEM('',(#876),#317);
#298=STYLED_ITEM('',(#876),#318);
#299=STYLED_ITEM('',(#876),#319);
#300=STYLED_ITEM('',(#876),#320);
#301=STYLED_ITEM('',(#876),#321);
#302=STYLED_ITEM('',(#876),#322);
#303=STYLED_ITEM('',(#876),#323);
#304=STYLED_ITEM('',(#876),#324);
#305=STYLED_ITEM('',(#876),#325);
#306=STYLED_ITEM('',(#876),#326);
#307=STYLED_ITEM('',(#876),#327);
#308=STYLED_ITEM('',(#876),#328);
#309=STYLED_ITEM('',(#876),#329);
#310=STYLED_ITEM('',(#876),#330);
#311=STYLED_ITEM('',(#876),#331);
#312=STYLED_ITEM('',(#876),#332);
#313=STYLED_ITEM('',(#876),#333);
#314=STYLED_ITEM('',(#876),#334);
#315=STYLED_ITEM('',(#876),#335);
#316=STYLED_ITEM('',(#875),#13);
#317=ADVANCED_FACE('',(#42),#289,.F.);
#318=ADVANCED_FACE('',(#43,#27,#28,#29),#290,.T.);
#319=ADVANCED_FACE('',(#44),#291,.T.);
#320=ADVANCED_FACE('',(#45),#23,.T.);
#321=ADVANCED_FACE('',(#46),#292,.T.);
#322=ADVANCED_FACE('',(#47),#16,.T.);
#323=ADVANCED_FACE('',(#48),#17,.T.);
#324=ADVANCED_FACE('',(#49),#14,.T.);
#325=ADVANCED_FACE('',(#50),#24,.F.);
#326=ADVANCED_FACE('',(#51),#15,.T.);
#327=ADVANCED_FACE('',(#52),#293,.T.);
#328=ADVANCED_FACE('',(#53),#294,.T.);
#329=ADVANCED_FACE('',(#54),#18,.T.);
#330=ADVANCED_FACE('',(#55),#295,.F.);
#331=ADVANCED_FACE('',(#56),#19,.T.);
#332=ADVANCED_FACE('',(#57),#296,.F.);
#333=ADVANCED_FACE('',(#58),#20,.T.);
#334=ADVANCED_FACE('',(#59),#21,.T.);
#335=ADVANCED_FACE('',(#60),#22,.F.);
#336=CLOSED_SHELL('',(#317,#318,#319,#320,#321,#322,#323,#324,#325,#326,
#327,#328,#329,#330,#331,#332,#333,#334,#335));
#337=DERIVED_UNIT_ELEMENT(#340,1.);
#338=DERIVED_UNIT_ELEMENT(#861,-3.);
#339=DIMENSIONAL_EXPONENTS(0.,1.,0.,0.,0.,0.,0.);
#340=(
CONVERSION_BASED_UNIT('gram',#342)
MASS_UNIT()
NAMED_UNIT(#339)
);
#341=(
MASS_UNIT()
NAMED_UNIT(*)
SI_UNIT(.KILO.,.GRAM.)
);
#342=MASS_MEASURE_WITH_UNIT(MASS_MEASURE(0.001),#341);
#343=DERIVED_UNIT((#337,#338));
#344=MEASURE_REPRESENTATION_ITEM('density measure',
POSITIVE_RATIO_MEASURE(1.),#343);
#345=PROPERTY_DEFINITION_REPRESENTATION(#350,#347);
#346=PROPERTY_DEFINITION_REPRESENTATION(#351,#348);
#347=REPRESENTATION('material name',(#349),#858);
#348=REPRESENTATION('density',(#344),#858);
#349=DESCRIPTIVE_REPRESENTATION_ITEM('Generisch','Generisch');
#350=PROPERTY_DEFINITION('material property','material name',#868);
#351=PROPERTY_DEFINITION('material property','density of part',#868);
#352=DATE_TIME_ROLE('creation_date');
#353=APPLIED_DATE_AND_TIME_ASSIGNMENT(#354,#352,(#868));
#354=DATE_AND_TIME(#355,#356);
#355=CALENDAR_DATE(2026,15,1);
#356=LOCAL_TIME(0,0,0.,#357);
#357=COORDINATED_UNIVERSAL_TIME_OFFSET(0,0,.BEHIND.);
#358=AXIS2_PLACEMENT_3D('',#470,#390,#391);
#359=AXIS2_PLACEMENT_3D('',#471,#392,#393);
#360=AXIS2_PLACEMENT_3D('',#561,#395,#396);
#361=AXIS2_PLACEMENT_3D('',#564,#397,#398);
#362=AXIS2_PLACEMENT_3D('',#581,#400,#401);
#363=AXIS2_PLACEMENT_3D('',#595,#403,#404);
#364=AXIS2_PLACEMENT_3D('',#599,#407,#408);
#365=AXIS2_PLACEMENT_3D('',#678,#409,#410);
#366=AXIS2_PLACEMENT_3D('',#682,#412,#413);
#367=AXIS2_PLACEMENT_3D('',#685,#415,#416);
#368=AXIS2_PLACEMENT_3D('',#686,#417,#418);
#369=AXIS2_PLACEMENT_3D('',#688,#419,#420);
#370=AXIS2_PLACEMENT_3D('',#689,#421,#422);
#371=AXIS2_PLACEMENT_3D('',#690,#423,#424);
#372=AXIS2_PLACEMENT_3D('',#693,#427,#428);
#373=AXIS2_PLACEMENT_3D('',#697,#431,#432);
#374=AXIS2_PLACEMENT_3D('',#749,#433,#434);
#375=AXIS2_PLACEMENT_3D('',#760,#435,#436);
#376=AXIS2_PLACEMENT_3D('',#762,#437,#438);
#377=AXIS2_PLACEMENT_3D('',#763,#439,#440);
#378=AXIS2_PLACEMENT_3D('',#836,#441,#442);
#379=AXIS2_PLACEMENT_3D('',#839,#444,#445);
#380=AXIS2_PLACEMENT_3D('',#841,#447,#448);
#381=AXIS2_PLACEMENT_3D('',#843,#450,#451);
#382=AXIS2_PLACEMENT_3D('',#844,#452,#453);
#383=AXIS2_PLACEMENT_3D('',#846,#454,#455);
#384=AXIS2_PLACEMENT_3D('',#848,#457,#458);
#385=AXIS2_PLACEMENT_3D('',#849,#459,#460);
#386=AXIS2_PLACEMENT_3D('',#851,#461,#462);
#387=AXIS2_PLACEMENT_3D('',#853,#464,#465);
#388=AXIS2_PLACEMENT_3D('',#854,#466,#467);
#389=AXIS2_PLACEMENT_3D('',#855,#468,#469);
#390=DIRECTION('axis',(0.,0.,1.));
#391=DIRECTION('refdir',(1.,0.,0.));
#392=DIRECTION('center_axis',(0.,0.,1.));
#393=DIRECTION('ref_axis',(1.,0.,0.));
#394=DIRECTION('',(0.,0.,1.));
#395=DIRECTION('center_axis',(1.,0.,0.));
#396=DIRECTION('ref_axis',(0.,-0.111111111111111,-0.993807989999907));
#397=DIRECTION('center_axis',(1.,0.,0.));
#398=DIRECTION('ref_axis',(0.,1.,-1.38777878078145E-17));
#399=DIRECTION('',(1.,0.,0.));
#400=DIRECTION('center_axis',(1.,0.,0.));
#401=DIRECTION('ref_axis',(0.,-1.,-3.82856869892695E-16));
#402=DIRECTION('',(1.,0.,0.));
#403=DIRECTION('center_axis',(1.,0.,0.));
#404=DIRECTION('ref_axis',(0.,1.,-1.38777878078145E-17));
#405=DIRECTION('',(-1.,0.,0.));
#406=DIRECTION('',(-1.,0.,0.));
#407=DIRECTION('center_axis',(-1.,0.,0.));
#408=DIRECTION('ref_axis',(0.,0.,1.));
#409=DIRECTION('center_axis',(0.,0.993807989999907,-0.111111111111111));
#410=DIRECTION('ref_axis',(0.70710678118654,-0.0785674201318391,-0.702728368926314));
#411=DIRECTION('',(0.,0.993807989999907,-0.111111111111111));
#412=DIRECTION('center_axis',(0.,-0.993807989999906,0.111111111111114));
#413=DIRECTION('ref_axis',(0.,-0.111111111111114,-0.993807989999906));
#414=DIRECTION('',(0.,-0.993807989999907,0.111111111111111));
#415=DIRECTION('center_axis',(1.94289029309403E-15,1.57977055708695E-16,
-1.));
#416=DIRECTION('ref_axis',(2.17221738409137E-16,-1.,-1.57977055708695E-16));
#417=DIRECTION('center_axis',(1.,0.,0.));
#418=DIRECTION('ref_axis',(0.,1.,1.83697019872103E-16));
#419=DIRECTION('center_axis',(0.,0.993807989999906,0.111111111111112));
#420=DIRECTION('ref_axis',(0.,-0.111111111111112,0.993807989999906));
#421=DIRECTION('center_axis',(-1.,0.,0.));
#422=DIRECTION('ref_axis',(0.,1.,-1.38777878078145E-17));
#423=DIRECTION('center_axis',(0.,-0.993807989999907,-0.111111111111111));
#424=DIRECTION('ref_axis',(0.70710678118654,-0.0785674201318392,0.702728368926314));
#425=DIRECTION('',(0.,0.993807989999907,0.111111111111111));
#426=DIRECTION('',(0.,-0.993807989999907,-0.111111111111111));
#427=DIRECTION('center_axis',(0.,-0.111111111111111,-0.993807989999907));
#428=DIRECTION('ref_axis',(0.,0.993807989999907,-0.111111111111111));
#429=DIRECTION('',(1.,0.,0.));
#430=DIRECTION('',(0.,-0.993807989999907,0.111111111111111));
#431=DIRECTION('center_axis',(1.,0.,0.));
#432=DIRECTION('ref_axis',(0.,0.,-1.));
#433=DIRECTION('center_axis',(6.2242686381041E-13,-0.749231231006474,-0.662308510049904));
#434=DIRECTION('ref_axis',(0.,0.662308510049904,-0.749231231006474));
#435=DIRECTION('center_axis',(1.,0.,0.));
#436=DIRECTION('ref_axis',(0.,0.,-1.));
#437=DIRECTION('center_axis',(9.65036061694055E-17,0.749231231006623,-0.662308510049735));
#438=DIRECTION('ref_axis',(0.,0.662308510049735,0.749231231006623));
#439=DIRECTION('center_axis',(-1.,0.,0.));
#440=DIRECTION('ref_axis',(0.,-1.,-3.82856869892695E-16));
#441=DIRECTION('center_axis',(0.,-0.993807989999907,-0.111111111111111));
#442=DIRECTION('ref_axis',(-0.707106781186548,-0.0785674201318383,0.702728368926306));
#443=DIRECTION('',(0.,-0.993807989999907,-0.111111111111111));
#444=DIRECTION('center_axis',(-6.71358684138147E-32,-3.77941339964563E-18,
1.));
#445=DIRECTION('ref_axis',(7.50601827508854E-33,1.,3.77941339964563E-18));
#446=DIRECTION('',(0.,0.993807989999907,0.111111111111111));
#447=DIRECTION('center_axis',(0.,0.993807989999907,-0.111111111111111));
#448=DIRECTION('ref_axis',(-0.707106781186548,-0.0785674201318383,-0.702728368926306));
#449=DIRECTION('',(0.,0.993807989999907,-0.111111111111111));
#450=DIRECTION('center_axis',(0.,-0.111111111111111,0.993807989999907));
#451=DIRECTION('ref_axis',(0.,-0.993807989999907,-0.111111111111111));
#452=DIRECTION('center_axis',(0.,1.,0.));
#453=DIRECTION('ref_axis',(-1.,0.,0.));
#454=DIRECTION('center_axis',(0.,1.,0.));
#455=DIRECTION('ref_axis',(-1.,0.,0.));
#456=DIRECTION('',(0.,1.,0.));
#457=DIRECTION('center_axis',(0.,1.,0.));
#458=DIRECTION('ref_axis',(0.,0.,1.));
#459=DIRECTION('center_axis',(0.,1.,0.));
#460=DIRECTION('ref_axis',(-1.,0.,0.));
#461=DIRECTION('center_axis',(0.,1.,0.));
#462=DIRECTION('ref_axis',(-1.,0.,0.));
#463=DIRECTION('',(0.,1.,0.));
#464=DIRECTION('center_axis',(0.,1.,0.));
#465=DIRECTION('ref_axis',(0.,0.,1.));
#466=DIRECTION('center_axis',(-1.,0.,0.));
#467=DIRECTION('ref_axis',(0.,0.,1.));
#468=DIRECTION('center_axis',(1.,0.,0.));
#469=DIRECTION('ref_axis',(0.,0.,-1.));
#470=CARTESIAN_POINT('',(0.,0.,0.));
#471=CARTESIAN_POINT('Origin',(-650.,0.,0.));
#472=CARTESIAN_POINT('',(-657.5,0.,-20.));
#473=CARTESIAN_POINT('',(-642.5,0.,-20.));
#474=CARTESIAN_POINT('Ctrl Pts',(-657.5,-9.71445146547012E-16,-20.));
#475=CARTESIAN_POINT('Ctrl Pts',(-657.5,-0.951521612235875,-20.));
#476=CARTESIAN_POINT('Ctrl Pts',(-657.307949696509,-1.96029850240435,-19.9255262378151));
#477=CARTESIAN_POINT('Ctrl Pts',(-656.539584264913,-3.80561887362882,-19.656719742078));
#478=CARTESIAN_POINT('Ctrl Pts',(-655.963756510862,-4.64284520693658,-19.4656923867292));
#479=CARTESIAN_POINT('Ctrl Pts',(-654.642339063254,-5.96426265454393,-19.1022899702787));
#480=CARTESIAN_POINT('Ctrl Pts',(-653.805308380685,-6.53970417385872,-18.9050212944397));
#481=CARTESIAN_POINT('Ctrl Pts',(-651.960735486216,-7.30777711787876,-18.6215994150666));
#482=CARTESIAN_POINT('Ctrl Pts',(-650.952250815856,-7.50000000000001,-18.5404962177392));
#483=CARTESIAN_POINT('Ctrl Pts',(-650.,-7.50000000000001,-18.5404962177392));
#484=CARTESIAN_POINT('Ctrl Pts',(-649.047749184144,-7.50000000000001,-18.5404962177392));
#485=CARTESIAN_POINT('Ctrl Pts',(-648.039264513784,-7.30777711787876,-18.6215994150666));
#486=CARTESIAN_POINT('Ctrl Pts',(-646.194691619315,-6.53970417385872,-18.9050212944397));
#487=CARTESIAN_POINT('Ctrl Pts',(-645.357660936746,-5.96426265454393,-19.1022899702787));
#488=CARTESIAN_POINT('Ctrl Pts',(-644.036243489138,-4.64284520693659,-19.4656923867292));
#489=CARTESIAN_POINT('Ctrl Pts',(-643.460415735087,-3.80561887362882,-19.656719742078));
#490=CARTESIAN_POINT('Ctrl Pts',(-642.692050303491,-1.96029850240436,-19.9255262378151));
#491=CARTESIAN_POINT('Ctrl Pts',(-642.5,-0.951521612235875,-20.));
#492=CARTESIAN_POINT('Ctrl Pts',(-642.5,-4.16333634234434E-16,-20.));
#493=CARTESIAN_POINT('',(-657.5,0.,20.));
#494=CARTESIAN_POINT('',(-657.5,-9.18485099360516E-16,0.));
#495=CARTESIAN_POINT('',(-642.5,0.,20.));
#496=CARTESIAN_POINT('Ctrl Pts',(-642.5,1.11022302462516E-15,20.));
#497=CARTESIAN_POINT('Ctrl Pts',(-642.5,-0.951521612235873,20.));
#498=CARTESIAN_POINT('Ctrl Pts',(-642.692050303491,-1.96029850240435,19.9255262378151));
#499=CARTESIAN_POINT('Ctrl Pts',(-643.460415735087,-3.80561887362882,19.656719742078));
#500=CARTESIAN_POINT('Ctrl Pts',(-644.036243489138,-4.64284520693659,19.4656923867292));
#501=CARTESIAN_POINT('Ctrl Pts',(-645.357660936746,-5.96426265454393,19.1022899702787));
#502=CARTESIAN_POINT('Ctrl Pts',(-646.194691619315,-6.53970417385872,18.9050212944397));
#503=CARTESIAN_POINT('Ctrl Pts',(-648.039264513784,-7.30777711787876,18.6215994150666));
#504=CARTESIAN_POINT('Ctrl Pts',(-649.047749184144,-7.50000000000001,18.5404962177392));
#505=CARTESIAN_POINT('Ctrl Pts',(-650.,-7.50000000000001,18.5404962177392));
#506=CARTESIAN_POINT('Ctrl Pts',(-650.952250815856,-7.50000000000001,18.5404962177392));
#507=CARTESIAN_POINT('Ctrl Pts',(-651.960735486216,-7.30777711787876,18.6215994150666));
#508=CARTESIAN_POINT('Ctrl Pts',(-653.805308380685,-6.53970417385872,18.9050212944397));
#509=CARTESIAN_POINT('Ctrl Pts',(-654.642339063254,-5.96426265454393,19.1022899702787));
#510=CARTESIAN_POINT('Ctrl Pts',(-655.963756510862,-4.64284520693658,19.4656923867292));
#511=CARTESIAN_POINT('Ctrl Pts',(-656.539584264913,-3.80561887362882,19.656719742078));
#512=CARTESIAN_POINT('Ctrl Pts',(-657.307949696509,-1.96029850240435,19.9255262378151));
#513=CARTESIAN_POINT('Ctrl Pts',(-657.5,-0.951521612235874,20.));
#514=CARTESIAN_POINT('Ctrl Pts',(-657.5,2.77555756156289E-16,20.));
#515=CARTESIAN_POINT('',(-642.83677946718,2.22222222146198,19.8761598000831));
#516=CARTESIAN_POINT('Ctrl Pts',(-642.83677946718,2.22222222070177,19.8761598001681));
#517=CARTESIAN_POINT('Ctrl Pts',(-642.610091197334,1.49150408910202,19.957856570844));
#518=CARTESIAN_POINT('Ctrl Pts',(-642.5,0.728504206355247,20.));
#519=CARTESIAN_POINT('Ctrl Pts',(-642.5,1.80411241501588E-15,20.));
#520=CARTESIAN_POINT('',(-657.16322053282,2.22222222146198,19.8761598000831));
#521=CARTESIAN_POINT('Ctrl Pts',(-657.16322053282,2.22222222070179,19.8761598001681));
#522=CARTESIAN_POINT('Ctrl Pts',(-657.093824324201,2.44591737677319,19.8511499214248));
#523=CARTESIAN_POINT('Ctrl Pts',(-657.01381163294,2.66670581634395,19.8226243907514));
#524=CARTESIAN_POINT('Ctrl Pts',(-656.539584264913,3.80561887362882,19.656719742078));
#525=CARTESIAN_POINT('Ctrl Pts',(-655.963756510862,4.64284520693659,19.4656923867292));
#526=CARTESIAN_POINT('Ctrl Pts',(-654.642339063254,5.96426265454393,19.1022899702787));
#527=CARTESIAN_POINT('Ctrl Pts',(-653.805308380685,6.53970417385872,18.9050212944397));
#528=CARTESIAN_POINT('Ctrl Pts',(-651.960735486216,7.30777711787876,18.6215994150666));
#529=CARTESIAN_POINT('Ctrl Pts',(-650.952250815856,7.50000000000001,18.5404962177392));
#530=CARTESIAN_POINT('Ctrl Pts',(-649.047749184144,7.50000000000001,18.5404962177392));
#531=CARTESIAN_POINT('Ctrl Pts',(-648.039264513784,7.30777711787876,18.6215994150666));
#532=CARTESIAN_POINT('Ctrl Pts',(-646.194691619315,6.53970417385872,18.9050212944397));
#533=CARTESIAN_POINT('Ctrl Pts',(-645.357660936746,5.96426265454393,19.1022899702787));
#534=CARTESIAN_POINT('Ctrl Pts',(-644.036243489138,4.64284520693659,19.4656923867292));
#535=CARTESIAN_POINT('Ctrl Pts',(-643.460415735087,3.80561887362882,19.656719742078));
#536=CARTESIAN_POINT('Ctrl Pts',(-642.98618836706,2.66670581634395,19.8226243907514));
#537=CARTESIAN_POINT('Ctrl Pts',(-642.906175675799,2.44591737677318,19.8511499214248));
#538=CARTESIAN_POINT('Ctrl Pts',(-642.83677946718,2.22222222070178,19.8761598001681));
#539=CARTESIAN_POINT('Ctrl Pts',(-657.5,-1.66533453693773E-15,20.));
#540=CARTESIAN_POINT('Ctrl Pts',(-657.5,0.728504206355242,20.));
#541=CARTESIAN_POINT('Ctrl Pts',(-657.389908802666,1.49150408910207,19.957856570844));
#542=CARTESIAN_POINT('Ctrl Pts',(-657.16322053282,2.22222222070178,19.8761598001681));
#543=CARTESIAN_POINT('Ctrl Pts',(-642.5,7.7715611723761E-15,-20.));
#544=CARTESIAN_POINT('Ctrl Pts',(-642.5,0.951521612235882,-20.));
#545=CARTESIAN_POINT('Ctrl Pts',(-642.692050303491,1.96029850240436,-19.9255262378151));
#546=CARTESIAN_POINT('Ctrl Pts',(-643.460415735087,3.80561887362882,-19.656719742078));
#547=CARTESIAN_POINT('Ctrl Pts',(-644.036243489138,4.64284520693659,-19.4656923867292));
#548=CARTESIAN_POINT('Ctrl Pts',(-645.357660936746,5.96426265454393,-19.1022899702787));
#549=CARTESIAN_POINT('Ctrl Pts',(-646.194691619315,6.53970417385872,-18.9050212944397));
#550=CARTESIAN_POINT('Ctrl Pts',(-648.039264513784,7.30777711787876,-18.6215994150666));
#551=CARTESIAN_POINT('Ctrl Pts',(-649.047749184144,7.50000000000001,-18.5404962177392));
#552=CARTESIAN_POINT('Ctrl Pts',(-650.952250815856,7.50000000000001,-18.5404962177392));
#553=CARTESIAN_POINT('Ctrl Pts',(-651.960735486216,7.30777711787876,-18.6215994150666));
#554=CARTESIAN_POINT('Ctrl Pts',(-653.805308380685,6.53970417385872,-18.9050212944397));
#555=CARTESIAN_POINT('Ctrl Pts',(-654.642339063254,5.96426265454393,-19.1022899702787));
#556=CARTESIAN_POINT('Ctrl Pts',(-655.963756510862,4.64284520693659,-19.4656923867292));
#557=CARTESIAN_POINT('Ctrl Pts',(-656.539584264913,3.80561887362882,-19.656719742078));
#558=CARTESIAN_POINT('Ctrl Pts',(-657.307949696509,1.96029850240436,-19.9255262378151));
#559=CARTESIAN_POINT('Ctrl Pts',(-657.5,0.951521612235877,-20.));
#560=CARTESIAN_POINT('Ctrl Pts',(-657.5,3.05311331771918E-15,-20.));
#561=CARTESIAN_POINT('Origin',(0.,0.,0.));
#562=CARTESIAN_POINT('',(198.,-2.22222222222222,-19.8761597999981));
#563=CARTESIAN_POINT('',(198.,2.22222222222222,19.8761597999981));
#564=CARTESIAN_POINT('Origin',(198.,0.,0.));
#565=CARTESIAN_POINT('',(2.,-2.22222222222222,-19.8761597999981));
#566=CARTESIAN_POINT('',(0.,-2.22222222222222,-19.8761597999981));
#567=CARTESIAN_POINT('',(-2.,-13.2461702009947,-14.9846246201325));
#568=CARTESIAN_POINT('Ctrl Pts',(-2.00000000000001,-13.2461702009947,-14.9846246201325));
#569=CARTESIAN_POINT('Ctrl Pts',(-2.,-12.6064146898509,-15.5501583323517));
#570=CARTESIAN_POINT('Ctrl Pts',(-1.78356010486612,-11.244896362006,-16.6039112064941));
#571=CARTESIAN_POINT('Ctrl Pts',(-1.08734646711713,-9.09959246636251,-17.8663453786814));
#572=CARTESIAN_POINT('Ctrl Pts',(-0.317263299340156,-7.23407236555663,-18.6760443294359));
#573=CARTESIAN_POINT('Ctrl Pts',(0.359404804426702,-5.72127174920107,-19.1764845536791));
#574=CARTESIAN_POINT('Ctrl Pts',(0.89118128473517,-4.5713764971531,-19.482651888008));
#575=CARTESIAN_POINT('Ctrl Pts',(1.43791602781486,-3.4105454551761,-19.7188489360509));
#576=CARTESIAN_POINT('Ctrl Pts',(1.80686874078874,-2.63138792231484,-19.8300298132207));
#577=CARTESIAN_POINT('Ctrl Pts',(1.99404978743664,-2.23482923179946,-19.8747472433151));
#578=CARTESIAN_POINT('Ctrl Pts',(1.99702489379018,-2.22852589435425,-19.8754550280284));
#579=CARTESIAN_POINT('Ctrl Pts',(2.,-2.22222222222218,-19.8761597999981));
#580=CARTESIAN_POINT('',(-2.,-13.2461702009981,14.9846246201295));
#581=CARTESIAN_POINT('Origin',(-2.,0.,0.));
#582=CARTESIAN_POINT('',(2.,-2.22222222222223,19.8761597999981));
#583=CARTESIAN_POINT('Ctrl Pts',(2.,-2.2222222222222,19.8761597999981));
#584=CARTESIAN_POINT('Ctrl Pts',(1.99702489379476,-2.22852589436367,19.8754550280273));
#585=CARTESIAN_POINT('Ctrl Pts',(1.99404962976739,-2.23482973445462,19.8747469715477));
#586=CARTESIAN_POINT('Ctrl Pts',(1.62269127118742,-3.02155304413127,19.78607197665));
#587=CARTESIAN_POINT('Ctrl Pts',(0.883476963610142,-4.57776302504442,19.5169857336028));
#588=CARTESIAN_POINT('Ctrl Pts',(-0.164028710502887,-6.86295876945873,18.8369325674684));
#589=CARTESIAN_POINT('Ctrl Pts',(-1.08655278665228,-9.09810427920834,17.8670682473631));
#590=CARTESIAN_POINT('Ctrl Pts',(-1.78401572902736,-11.2458376459104,16.6034569071761));
#591=CARTESIAN_POINT('Ctrl Pts',(-2.00000000000039,-12.6064146898543,15.5501583323489));
#592=CARTESIAN_POINT('Ctrl Pts',(-2.,-13.2461702009981,14.9846246201295));
#593=CARTESIAN_POINT('',(198.,-2.22222222222223,19.8761597999981));
#594=CARTESIAN_POINT('',(0.,-2.22222222222223,19.8761597999981));
#595=CARTESIAN_POINT('Origin',(198.,0.,0.));
#596=CARTESIAN_POINT('',(0.,2.22222222222222,19.8761597999981));
#597=CARTESIAN_POINT('',(-700.,2.22222222222222,19.8761597999981));
#598=CARTESIAN_POINT('',(0.,2.22222222222222,19.8761597999981));
#599=CARTESIAN_POINT('Origin',(-700.,0.,0.));
#600=CARTESIAN_POINT('',(-405.,20.,0.));
#601=CARTESIAN_POINT('',(-395.,20.,0.));
#602=CARTESIAN_POINT('Ctrl Pts',(-405.,20.,2.77555756156289E-16));
#603=CARTESIAN_POINT('Ctrl Pts',(-405.,20.,-0.630658863716185));
#604=CARTESIAN_POINT('Ctrl Pts',(-404.87341685515,19.9671830048978,-1.30155327908247));
#605=CARTESIAN_POINT('Ctrl Pts',(-404.362306296536,19.8486251890168,-2.53268952301021));
#606=CARTESIAN_POINT('Ctrl Pts',(-403.977923676508,19.7644752333872,-3.09314413535763));
#607=CARTESIAN_POINT('Ctrl Pts',(-403.093082272736,19.6055530258171,-3.97798553912907));
#608=CARTESIAN_POINT('Ctrl Pts',(-402.532653425152,19.5202238889465,-4.36231992558064));
#609=CARTESIAN_POINT('Ctrl Pts',(-401.301608540053,19.3989431732842,-4.87339527044975));
#610=CARTESIAN_POINT('Ctrl Pts',(-400.630747053392,19.3649167310371,-4.99999999999999));
#611=CARTESIAN_POINT('Ctrl Pts',(-399.369252946608,19.3649167310371,-4.99999999999999));
#612=CARTESIAN_POINT('Ctrl Pts',(-398.698391459947,19.3989431732842,-4.87339527044974));
#613=CARTESIAN_POINT('Ctrl Pts',(-397.467346574848,19.5202238889465,-4.36231992558063));
#614=CARTESIAN_POINT('Ctrl Pts',(-396.906917727264,19.6055530258171,-3.97798553912907));
#615=CARTESIAN_POINT('Ctrl Pts',(-396.022076323492,19.7644752333872,-3.09314413535763));
#616=CARTESIAN_POINT('Ctrl Pts',(-395.637693703464,19.8486251890168,-2.53268952301021));
#617=CARTESIAN_POINT('Ctrl Pts',(-395.12658314485,19.9671830048978,-1.30155327908247));
#618=CARTESIAN_POINT('Ctrl Pts',(-395.,20.,-0.630658863716187));
#619=CARTESIAN_POINT('Ctrl Pts',(-395.,20.,-2.08166817117217E-15));
#620=CARTESIAN_POINT('Ctrl Pts',(-395.,20.,-2.84494650060196E-15));
#621=CARTESIAN_POINT('Ctrl Pts',(-395.,20.,0.630658863716178));
#622=CARTESIAN_POINT('Ctrl Pts',(-395.12658314485,19.9671830048978,1.30155327908245));
#623=CARTESIAN_POINT('Ctrl Pts',(-395.637693703464,19.8486251890168,2.53268952301019));
#624=CARTESIAN_POINT('Ctrl Pts',(-396.022076323492,19.7644752333872,3.09314413535763));
#625=CARTESIAN_POINT('Ctrl Pts',(-396.906917727264,19.6055530258171,3.97798553912909));
#626=CARTESIAN_POINT('Ctrl Pts',(-397.467346574848,19.5202238889465,4.36231992558067));
#627=CARTESIAN_POINT('Ctrl Pts',(-398.698391459948,19.3989431732842,4.87339527044976));
#628=CARTESIAN_POINT('Ctrl Pts',(-399.369252946608,19.3649167310371,4.99999999999999));
#629=CARTESIAN_POINT('Ctrl Pts',(-400.,19.3649167310371,4.99999999999999));
#630=CARTESIAN_POINT('Ctrl Pts',(-400.630747053392,19.3649167310371,4.99999999999999));
#631=CARTESIAN_POINT('Ctrl Pts',(-401.301608540053,19.3989431732842,4.87339527044975));
#632=CARTESIAN_POINT('Ctrl Pts',(-402.532653425152,19.5202238889465,4.36231992558064));
#633=CARTESIAN_POINT('Ctrl Pts',(-403.093082272736,19.6055530258171,3.97798553912907));
#634=CARTESIAN_POINT('Ctrl Pts',(-403.977923676508,19.7644752333872,3.09314413535763));
#635=CARTESIAN_POINT('Ctrl Pts',(-404.362306296536,19.8486251890168,2.53268952301021));
#636=CARTESIAN_POINT('Ctrl Pts',(-404.87341685515,19.9671830048978,1.30155327908247));
#637=CARTESIAN_POINT('Ctrl Pts',(-405.,20.,0.63065886371619));
#638=CARTESIAN_POINT('Ctrl Pts',(-405.,20.,4.57966997657877E-15));
#639=CARTESIAN_POINT('',(-555.,20.,0.));
#640=CARTESIAN_POINT('',(-545.,20.,0.));
#641=CARTESIAN_POINT('Ctrl Pts',(-555.,20.,5.55111512312578E-15));
#642=CARTESIAN_POINT('Ctrl Pts',(-555.,20.,-0.630658863716179));
#643=CARTESIAN_POINT('Ctrl Pts',(-554.87341685515,19.9671830048978,-1.30155327908247));
#644=CARTESIAN_POINT('Ctrl Pts',(-554.362306296536,19.8486251890168,-2.53268952301023));
#645=CARTESIAN_POINT('Ctrl Pts',(-553.977923676508,19.7644752333872,-3.09314413535766));
#646=CARTESIAN_POINT('Ctrl Pts',(-553.093082272736,19.605553025817,-3.97798553912911));
#647=CARTESIAN_POINT('Ctrl Pts',(-552.532653425152,19.5202238889465,-4.36231992558075));
#648=CARTESIAN_POINT('Ctrl Pts',(-551.301608540052,19.3989431732842,-4.87339527044982));
#649=CARTESIAN_POINT('Ctrl Pts',(-550.630747053392,19.3649167310371,-5.00000000000002));
#650=CARTESIAN_POINT('Ctrl Pts',(-549.369252946608,19.3649167310371,-5.00000000000002));
#651=CARTESIAN_POINT('Ctrl Pts',(-548.698391459948,19.3989431732842,-4.87339527044979));
#652=CARTESIAN_POINT('Ctrl Pts',(-547.467346574848,19.5202238889465,-4.36231992558068));
#653=CARTESIAN_POINT('Ctrl Pts',(-546.906917727264,19.605553025817,-3.97798553912911));
#654=CARTESIAN_POINT('Ctrl Pts',(-546.022076323492,19.7644752333872,-3.09314413535766));
#655=CARTESIAN_POINT('Ctrl Pts',(-545.637693703464,19.8486251890168,-2.53268952301023));
#656=CARTESIAN_POINT('Ctrl Pts',(-545.12658314485,19.9671830048978,-1.30155327908247));
#657=CARTESIAN_POINT('Ctrl Pts',(-545.,20.,-0.630658863716176));
#658=CARTESIAN_POINT('Ctrl Pts',(-545.,20.,8.74300631892311E-15));
#659=CARTESIAN_POINT('Ctrl Pts',(-545.,20.,-9.43689570931383E-15));
#660=CARTESIAN_POINT('Ctrl Pts',(-545.,20.,0.630658863716176));
#661=CARTESIAN_POINT('Ctrl Pts',(-545.12658314485,19.9671830048978,1.30155327908247));
#662=CARTESIAN_POINT('Ctrl Pts',(-545.637693703464,19.8486251890168,2.53268952301023));
#663=CARTESIAN_POINT('Ctrl Pts',(-546.022076323492,19.7644752333872,3.09314413535766));
#664=CARTESIAN_POINT('Ctrl Pts',(-546.906917727264,19.605553025817,3.97798553912911));
#665=CARTESIAN_POINT('Ctrl Pts',(-547.467346574848,19.5202238889465,4.36231992558073));
#666=CARTESIAN_POINT('Ctrl Pts',(-548.698391459948,19.3989431732842,4.87339527044979));
#667=CARTESIAN_POINT('Ctrl Pts',(-549.369252946608,19.3649167310371,5.00000000000002));
#668=CARTESIAN_POINT('Ctrl Pts',(-550.,19.3649167310371,5.00000000000002));
#669=CARTESIAN_POINT('Ctrl Pts',(-550.630747053392,19.3649167310371,5.00000000000002));
#670=CARTESIAN_POINT('Ctrl Pts',(-551.301608540052,19.3989431732842,4.87339527044979));
#671=CARTESIAN_POINT('Ctrl Pts',(-552.532653425152,19.5202238889465,4.36231992558068));
#672=CARTESIAN_POINT('Ctrl Pts',(-553.093082272736,19.605553025817,3.97798553912911));
#673=CARTESIAN_POINT('Ctrl Pts',(-553.977923676508,19.7644752333872,3.09314413535766));
#674=CARTESIAN_POINT('Ctrl Pts',(-554.362306296536,19.8486251890168,2.53268952301023));
#675=CARTESIAN_POINT('Ctrl Pts',(-554.87341685515,19.9671830048978,1.30155327908247));
#676=CARTESIAN_POINT('Ctrl Pts',(-555.,20.,0.630658863716187));
#677=CARTESIAN_POINT('Ctrl Pts',(-555.,20.,2.08166817117217E-15));
#678=CARTESIAN_POINT('Origin',(198.,-130.395061728395,-3.53353951999968));
#679=CARTESIAN_POINT('',(198.,-180.,-2.44929359829471E-14));
#680=CARTESIAN_POINT('',(198.,-130.617283950617,-5.5211554999995));
#681=CARTESIAN_POINT('',(200.,-1.99999999999999,-17.8885438199983));
#682=CARTESIAN_POINT('Origin',(198.,-1.99999999999999,-17.8885438199983));
#683=CARTESIAN_POINT('',(200.,-162.,-1.77635683940025E-14));
#684=CARTESIAN_POINT('',(200.,-130.395061728395,-3.53353951999968));
#685=CARTESIAN_POINT('Origin',(198.,-162.,-2.16493489801906E-14));
#686=CARTESIAN_POINT('Origin',(198.,0.,0.));
#687=CARTESIAN_POINT('',(200.,-2.,17.8885438199983));
#688=CARTESIAN_POINT('Origin',(198.,-2.,17.8885438199983));
#689=CARTESIAN_POINT('Origin',(200.,0.,0.));
#690=CARTESIAN_POINT('Origin',(198.,-41.5061728395062,13.4716194199987));
#691=CARTESIAN_POINT('',(200.,-41.5061728395062,13.4716194199987));
#692=CARTESIAN_POINT('',(198.,-41.7283950617284,15.4592353999985));
#693=CARTESIAN_POINT('Origin',(0.,-180.,-2.44257464113978E-14));
#694=CARTESIAN_POINT('',(2.,-180.,-2.44929359829471E-14));
#695=CARTESIAN_POINT('',(0.,-180.,-2.44929359829471E-14));
#696=CARTESIAN_POINT('',(2.,-130.617283950617,-5.5211554999995));
#697=CARTESIAN_POINT('Origin',(200.,-80.,0.));
#698=CARTESIAN_POINT('Ctrl Pts',(2.,-2.2222222222222,19.8761597999981));
#699=CARTESIAN_POINT('Ctrl Pts',(1.99851244689722,-2.22915626157866,19.8753845508302));
#700=CARTESIAN_POINT('Ctrl Pts',(1.9970248148837,-2.23609068401459,19.8746074626803));
#701=CARTESIAN_POINT('Ctrl Pts',(1.8113456355937,-3.10152984905354,19.7774542623133));
#702=CARTESIAN_POINT('Ctrl Pts',(1.44173848180507,-4.81913630706145,19.5331168495787));
#703=CARTESIAN_POINT('Ctrl Pts',(0.91798564474855,-7.35863633675315,19.0156838316681));
#704=CARTESIAN_POINT('Ctrl Pts',(0.456723606673862,-9.86102197249983,18.3399265119714));
#705=CARTESIAN_POINT('Ctrl Pts',(0.107992135486323,-12.2856878428681,17.5059225290762));
#706=CARTESIAN_POINT('Ctrl Pts',(-1.92651931288359E-13,-13.8370537825205,
16.8368247538386));
#707=CARTESIAN_POINT('Ctrl Pts',(-5.55111512312578E-16,-14.5707872210981,
16.4830870821438));
#708=CARTESIAN_POINT('Ctrl Pts',(2.,-2.2222222222222,19.8761597999981));
#709=CARTESIAN_POINT('Ctrl Pts',(1.99822911587305,-2.22903667454881,19.8753983116281));
#710=CARTESIAN_POINT('Ctrl Pts',(1.99645810175084,-2.23584993916643,19.8746332136745));
#711=CARTESIAN_POINT('Ctrl Pts',(1.77541499264205,-3.08632042030188,19.7790643962512));
#712=CARTESIAN_POINT('Ctrl Pts',(1.33545436648663,-4.7717780025842,19.5181126582409));
#713=CARTESIAN_POINT('Ctrl Pts',(0.731276920151779,-7.25327378729389,18.9212199370857));
#714=CARTESIAN_POINT('Ctrl Pts',(0.240252076737538,-9.68326279604959,18.1222205135278));
#715=CARTESIAN_POINT('Ctrl Pts',(-0.0599005296966941,-12.0166485133466,
17.1463433346182));
#716=CARTESIAN_POINT('Ctrl Pts',(-0.0666248994377196,-13.4876461008293,
16.4032494121044));
#717=CARTESIAN_POINT('Ctrl Pts',(3.48982694121584E-13,-14.1744627354631,
16.0347481619208));
#718=CARTESIAN_POINT('Ctrl Pts',(2.,-2.2222222222222,19.8761597999981));
#719=CARTESIAN_POINT('Ctrl Pts',(1.99773276667094,-2.22882630093805,19.8754213668369));
#720=CARTESIAN_POINT('Ctrl Pts',(1.99546692253807,-2.23542984873743,19.8746799297426));
#721=CARTESIAN_POINT('Ctrl Pts',(1.71249209710685,-3.05963605303831,19.7818221694404));
#722=CARTESIAN_POINT('Ctrl Pts',(1.14945176811549,-4.69033781729795,19.5040096369213));
#723=CARTESIAN_POINT('Ctrl Pts',(0.375551878373247,-7.07537278404563,18.8144977894459));
#724=CARTESIAN_POINT('Ctrl Pts',(-0.251435282314817,-9.38499313817501,17.8536662680035));
#725=CARTESIAN_POINT('Ctrl Pts',(-0.625468245325206,-11.5617561900977,16.6489046108812));
#726=CARTESIAN_POINT('Ctrl Pts',(-0.608311129516423,-12.8883466259722,15.717516743107));
#727=CARTESIAN_POINT('Ctrl Pts',(-0.502209817316162,-13.4882717098154,15.2585000252132));
#728=CARTESIAN_POINT('Ctrl Pts',(2.,-2.2222222222222,19.8761597999981));
#729=CARTESIAN_POINT('Ctrl Pts',(1.99723700570607,-2.22861602297441,19.8754448264847));
#730=CARTESIAN_POINT('Ctrl Pts',(1.99447508156208,-2.23500975113601,19.8747268611158));
#731=CARTESIAN_POINT('Ctrl Pts',(1.64961438234153,-3.03297559880419,19.7847780477769));
#732=CARTESIAN_POINT('Ctrl Pts',(0.963287401701216,-4.61123343809663,19.5104519789567));
#733=CARTESIAN_POINT('Ctrl Pts',(-0.002172162209166,-6.92231343939094,18.81633003465));
#734=CARTESIAN_POINT('Ctrl Pts',(-0.836068223437233,-9.16914583614353,17.8312790220859));
#735=CARTESIAN_POINT('Ctrl Pts',(-1.43660477852126,-11.305068412569,16.5619991736044));
#736=CARTESIAN_POINT('Ctrl Pts',(-1.58299314625595,-12.632516623543,15.5272444264815));
#737=CARTESIAN_POINT('Ctrl Pts',(-1.55120104948701,-13.246170200998,14.9846246201296));
#738=CARTESIAN_POINT('Ctrl Pts',(2.,-2.2222222222222,19.8761597999981));
#739=CARTESIAN_POINT('Ctrl Pts',(1.99702489379476,-2.22852589436367,19.8754550280273));
#740=CARTESIAN_POINT('Ctrl Pts',(1.99404962976739,-2.23482973445462,19.8747469715477));
#741=CARTESIAN_POINT('Ctrl Pts',(1.62269127118742,-3.02155304413127,19.78607197665));
#742=CARTESIAN_POINT('Ctrl Pts',(0.883476963610142,-4.57776302504442,19.5169857336028));
#743=CARTESIAN_POINT('Ctrl Pts',(-0.164028710502887,-6.86295876945873,18.8369325674684));
#744=CARTESIAN_POINT('Ctrl Pts',(-1.08655278665228,-9.09810427920834,17.8670682473631));
#745=CARTESIAN_POINT('Ctrl Pts',(-1.78401572902736,-11.2458376459104,16.6034569071761));
#746=CARTESIAN_POINT('Ctrl Pts',(-2.00000000000039,-12.6064146898543,15.5501583323489));
#747=CARTESIAN_POINT('Ctrl Pts',(-2.,-13.2461702009981,14.9846246201295));
#748=CARTESIAN_POINT('',(-6.76542155630872E-16,-14.5707872210981,16.4830870821445));
#749=CARTESIAN_POINT('Origin',(-2.,-14.5707872210979,16.4830870821424));
#750=CARTESIAN_POINT('Ctrl Pts',(-5.55111512312578E-16,-14.5707872210981,
16.4830870821438));
#751=CARTESIAN_POINT('Ctrl Pts',(-1.92651931288359E-13,-13.8370537825205,
16.8368247538386));
#752=CARTESIAN_POINT('Ctrl Pts',(0.107992135486323,-12.2856878428681,17.5059225290762));
#753=CARTESIAN_POINT('Ctrl Pts',(0.456723606673862,-9.86102197249983,18.3399265119714));
#754=CARTESIAN_POINT('Ctrl Pts',(0.91798564474855,-7.35863633675315,19.0156838316681));
#755=CARTESIAN_POINT('Ctrl Pts',(1.44173848180507,-4.81913630706145,19.5331168495787));
#756=CARTESIAN_POINT('Ctrl Pts',(1.8113456355937,-3.10152984905354,19.7774542623133));
#757=CARTESIAN_POINT('Ctrl Pts',(1.9970248148837,-2.23609068401459,19.8746074626803));
#758=CARTESIAN_POINT('Ctrl Pts',(1.99851244689722,-2.22915626157866,19.8753845508302));
#759=CARTESIAN_POINT('Ctrl Pts',(2.,-2.2222222222222,19.8761597999981));
#760=CARTESIAN_POINT('Origin',(-2.,0.,0.));
#761=CARTESIAN_POINT('',(0.,-14.5707872210942,-16.4830870821457));
#762=CARTESIAN_POINT('Origin',(-2.,-14.5707872210942,-16.4830870821457));
#763=CARTESIAN_POINT('Origin',(0.,0.,0.));
#764=CARTESIAN_POINT('Ctrl Pts',(-1.38777878078145E-15,-14.5707872210941,
-16.4830870821457));
#765=CARTESIAN_POINT('Ctrl Pts',(4.76226459631864E-16,-13.8370537825165,
-16.8368247538404));
#766=CARTESIAN_POINT('Ctrl Pts',(0.108219947566941,-12.2846312311781,-17.5062326451724));
#767=CARTESIAN_POINT('Ctrl Pts',(0.456326766441429,-9.86269277516928,-18.3394336441893));
#768=CARTESIAN_POINT('Ctrl Pts',(0.841368350329919,-7.7741125641101,-18.9035641151569));
#769=CARTESIAN_POINT('Ctrl Pts',(1.17970240221335,-6.08991089780804,-19.2740807712734));
#770=CARTESIAN_POINT('Ctrl Pts',(1.44559064236758,-4.8142396791987,-19.5143879746008));
#771=CARTESIAN_POINT('Ctrl Pts',(1.71895801390743,-3.53086283217177,-19.7164005737525));
#772=CARTESIAN_POINT('Ctrl Pts',(1.90343437039438,-2.67232780583851,-19.8256253369551));
#773=CARTESIAN_POINT('Ctrl Pts',(1.99702489371832,-2.23609011800183,-19.8746076445253));
#774=CARTESIAN_POINT('Ctrl Pts',(1.99851244689424,-2.22915626157181,-19.8753845508309));
#775=CARTESIAN_POINT('Ctrl Pts',(2.,-2.22222222222218,-19.8761597999981));
#776=CARTESIAN_POINT('Ctrl Pts',(-5.00137016599461E-15,-14.1744627354594,
-16.0347481619228));
#777=CARTESIAN_POINT('Ctrl Pts',(-0.0681568983887153,-13.4883503814896,
-16.402848009331));
#778=CARTESIAN_POINT('Ctrl Pts',(-0.0611536384650426,-12.0159403463279,
-17.1465625951455));
#779=CARTESIAN_POINT('Ctrl Pts',(0.239019546001396,-9.68517497450853,-18.1217175835063));
#780=CARTESIAN_POINT('Ctrl Pts',(0.6491040077312,-7.65685910355241,-18.7888519524493));
#781=CARTESIAN_POINT('Ctrl Pts',(1.03292406463934,-6.0135976562362,-19.2194689516326));
#782=CARTESIAN_POINT('Ctrl Pts',(1.34225321788661,-4.7657393504495,-19.4926918194834));
#783=CARTESIAN_POINT('Ctrl Pts',(1.66536021100146,-3.5076310486013,-19.7139147773829));
#784=CARTESIAN_POINT('Ctrl Pts',(1.88503099263903,-2.66452726143996,-19.8264237292182));
#785=CARTESIAN_POINT('Ctrl Pts',(1.99645831230281,-2.23584987810945,-19.8746337946876));
#786=CARTESIAN_POINT('Ctrl Pts',(1.99822910344585,-2.22903619162561,-19.875397975059));
#787=CARTESIAN_POINT('Ctrl Pts',(2.,-2.22222222222218,-19.8761597999981));
#788=CARTESIAN_POINT('Ctrl Pts',(-0.501576661482415,-13.4880116064663,-15.2582057853757));
#789=CARTESIAN_POINT('Ctrl Pts',(-0.60671180825928,-12.8879178232755,-15.7168771021651));
#790=CARTESIAN_POINT('Ctrl Pts',(-0.624754645754958,-11.5605323204696,-16.6493058415468));
#791=CARTESIAN_POINT('Ctrl Pts',(-0.25147839217836,-9.38640595850661,-17.8526123682333));
#792=CARTESIAN_POINT('Ctrl Pts',(0.27156750636498,-7.458772743338,-18.6549677243158));
#793=CARTESIAN_POINT('Ctrl Pts',(0.762431362861704,-5.88373694533053,-19.1587479701385));
#794=CARTESIAN_POINT('Ctrl Pts',(1.15832162691943,-4.68244678033417,-19.4700428766407));
#795=CARTESIAN_POINT('Ctrl Pts',(1.57179902826145,-3.46723286713595,-19.712412099995));
#796=CARTESIAN_POINT('Ctrl Pts',(1.85285582455611,-2.65087240413257,-19.8278479102751));
#797=CARTESIAN_POINT('Ctrl Pts',(1.99546647011401,-2.23542959607512,-19.8746801399938));
#798=CARTESIAN_POINT('Ctrl Pts',(1.99773325241116,-2.22882606921976,-19.8754214674582));
#799=CARTESIAN_POINT('Ctrl Pts',(2.,-2.22222222222218,-19.8761597999981));
#800=CARTESIAN_POINT('Ctrl Pts',(-1.55120104948718,-13.2461702009947,-14.9846246201325));
#801=CARTESIAN_POINT('Ctrl Pts',(-1.58242452226592,-12.6328715158281,-15.5275178914177));
#802=CARTESIAN_POINT('Ctrl Pts',(-1.43606458491073,-11.3043483046216,-16.5627426205751));
#803=CARTESIAN_POINT('Ctrl Pts',(-0.836564855415035,-9.17079175713785,-17.8306744742783));
#804=CARTESIAN_POINT('Ctrl Pts',(-0.140583855832601,-7.29545935208995,-18.653019308791));
#805=CARTESIAN_POINT('Ctrl Pts',(0.480332155227872,-5.76772595932707,-19.1629734835001));
#806=CARTESIAN_POINT('Ctrl Pts',(0.971336469945249,-4.60398114382755,-19.4753642594452));
#807=CARTESIAN_POINT('Ctrl Pts',(1.47808695841716,-3.4274908788058,-19.7162667024299));
#808=CARTESIAN_POINT('Ctrl Pts',(1.82066556470852,-2.63723402246423,-19.8293672242451));
#809=CARTESIAN_POINT('Ctrl Pts',(1.99447478490339,-2.23500931119692,-19.874727001717));
#810=CARTESIAN_POINT('Ctrl Pts',(1.99723740137647,-2.22861594681391,-19.8754449598573));
#811=CARTESIAN_POINT('Ctrl Pts',(2.,-2.22222222222218,-19.8761597999981));
#812=CARTESIAN_POINT('Ctrl Pts',(-2.00000000000001,-13.2461702009947,-14.9846246201325));
#813=CARTESIAN_POINT('Ctrl Pts',(-2.,-12.6064146898509,-15.5501583323517));
#814=CARTESIAN_POINT('Ctrl Pts',(-1.78356010486612,-11.244896362006,-16.6039112064941));
#815=CARTESIAN_POINT('Ctrl Pts',(-1.08734646711713,-9.09959246636251,-17.8663453786814));
#816=CARTESIAN_POINT('Ctrl Pts',(-0.317263299340156,-7.23407236555663,-18.6760443294359));
#817=CARTESIAN_POINT('Ctrl Pts',(0.359404804426702,-5.72127174920107,-19.1764845536791));
#818=CARTESIAN_POINT('Ctrl Pts',(0.89118128473517,-4.5713764971531,-19.482651888008));
#819=CARTESIAN_POINT('Ctrl Pts',(1.43791602781486,-3.4105454551761,-19.7188489360509));
#820=CARTESIAN_POINT('Ctrl Pts',(1.80686874078874,-2.63138792231484,-19.8300298132207));
#821=CARTESIAN_POINT('Ctrl Pts',(1.99404978743664,-2.23482923179946,-19.8747472433151));
#822=CARTESIAN_POINT('Ctrl Pts',(1.99702489379018,-2.22852589435425,-19.8754550280284));
#823=CARTESIAN_POINT('Ctrl Pts',(2.,-2.22222222222218,-19.8761597999981));
#824=CARTESIAN_POINT('Ctrl Pts',(2.,-2.22222222222218,-19.8761597999981));
#825=CARTESIAN_POINT('Ctrl Pts',(1.99851244689424,-2.22915626157181,-19.8753845508309));
#826=CARTESIAN_POINT('Ctrl Pts',(1.99702489371832,-2.23609011800183,-19.8746076445253));
#827=CARTESIAN_POINT('Ctrl Pts',(1.90343437039438,-2.67232780583851,-19.8256253369551));
#828=CARTESIAN_POINT('Ctrl Pts',(1.71895801390743,-3.53086283217177,-19.7164005737525));
#829=CARTESIAN_POINT('Ctrl Pts',(1.44559064236758,-4.8142396791987,-19.5143879746008));
#830=CARTESIAN_POINT('Ctrl Pts',(1.17970240221335,-6.08991089780804,-19.2740807712734));
#831=CARTESIAN_POINT('Ctrl Pts',(0.841368350329919,-7.7741125641101,-18.9035641151569));
#832=CARTESIAN_POINT('Ctrl Pts',(0.456326766441429,-9.86269277516928,-18.3394336441893));
#833=CARTESIAN_POINT('Ctrl Pts',(0.108219947566941,-12.2846312311781,-17.5062326451724));
#834=CARTESIAN_POINT('Ctrl Pts',(4.76226459631864E-16,-13.8370537825165,
-16.8368247538404));
#835=CARTESIAN_POINT('Ctrl Pts',(-1.38777878078145E-15,-14.5707872210941,
-16.4830870821457));
#836=CARTESIAN_POINT('Origin',(2.,-41.5061728395062,13.4716194199987));
#837=CARTESIAN_POINT('',(0.,-162.,-2.38697950294409E-14));
#838=CARTESIAN_POINT('',(0.,-41.5061728395062,13.4716194199987));
#839=CARTESIAN_POINT('Origin',(2.,-162.,-2.44249065417534E-14));
#840=CARTESIAN_POINT('',(2.,-41.7283950617284,15.4592353999985));
#841=CARTESIAN_POINT('Origin',(2.,-130.395061728395,-3.53353951999969));
#842=CARTESIAN_POINT('',(0.,-130.395061728395,-3.53353951999969));
#843=CARTESIAN_POINT('Origin',(0.,-2.22222222222223,19.8761597999981));
#844=CARTESIAN_POINT('Origin',(-400.,0.,0.));
#845=CARTESIAN_POINT('',(-395.,0.,-6.12323399573675E-16));
#846=CARTESIAN_POINT('Origin',(-400.,0.,0.));
#847=CARTESIAN_POINT('',(-395.,0.,-6.12323399573675E-16));
#848=CARTESIAN_POINT('Origin',(-400.,0.,0.));
#849=CARTESIAN_POINT('Origin',(-550.,0.,0.));
#850=CARTESIAN_POINT('',(-545.,0.,-6.12323399573679E-16));
#851=CARTESIAN_POINT('Origin',(-550.,0.,0.));
#852=CARTESIAN_POINT('',(-545.,0.,-6.12323399573679E-16));
#853=CARTESIAN_POINT('Origin',(-550.,0.,0.));
#854=CARTESIAN_POINT('Origin',(-700.,-6.66133814775094E-15,0.));
#855=CARTESIAN_POINT('Origin',(0.,-80.,0.));
#856=UNCERTAINTY_MEASURE_WITH_UNIT(LENGTH_MEASURE(0.01),#860,
'DISTANCE_ACCURACY_VALUE',
'Maximum model space distance between geometric entities at asserted c
onnectivities');
#857=UNCERTAINTY_MEASURE_WITH_UNIT(LENGTH_MEASURE(0.01),#860,
'DISTANCE_ACCURACY_VALUE',
'Maximum model space distance between geometric entities at asserted c
onnectivities');
#858=(
GEOMETRIC_REPRESENTATION_CONTEXT(3)
GLOBAL_UNCERTAINTY_ASSIGNED_CONTEXT((#856))
GLOBAL_UNIT_ASSIGNED_CONTEXT((#860,#862,#863))
REPRESENTATION_CONTEXT('','3D')
);
#859=(
GEOMETRIC_REPRESENTATION_CONTEXT(3)
GLOBAL_UNCERTAINTY_ASSIGNED_CONTEXT((#857))
GLOBAL_UNIT_ASSIGNED_CONTEXT((#860,#862,#863))
REPRESENTATION_CONTEXT('','3D')
);
#860=(
LENGTH_UNIT()
NAMED_UNIT(*)
SI_UNIT(.MILLI.,.METRE.)
);
#861=(
LENGTH_UNIT()
NAMED_UNIT(*)
SI_UNIT(.CENTI.,.METRE.)
);
#862=(
NAMED_UNIT(*)
PLANE_ANGLE_UNIT()
SI_UNIT($,.RADIAN.)
);
#863=(
NAMED_UNIT(*)
SI_UNIT($,.STERADIAN.)
SOLID_ANGLE_UNIT()
);
#864=SHAPE_DEFINITION_REPRESENTATION(#865,#866);
#865=PRODUCT_DEFINITION_SHAPE('',$,#868);
#866=SHAPE_REPRESENTATION('',(#358),#858);
#867=PRODUCT_DEFINITION_CONTEXT('part definition',#872,'design');
#868=PRODUCT_DEFINITION('Ruder passende Ma\X\DFe',
'Ruder_passende_Ma\X\DFe',#869,#867);
#869=PRODUCT_DEFINITION_FORMATION('',$,#874);
#870=PRODUCT_RELATED_PRODUCT_CATEGORY('Ruder_passende_Ma\X\DFe',
'Ruder_passende_Ma\X\DFe',(#874));
#871=APPLICATION_PROTOCOL_DEFINITION('international standard',
'automotive_design',2009,#872);
#872=APPLICATION_CONTEXT(
'Core Data for Automotive Mechanical Design Process');
#873=PRODUCT_CONTEXT('part definition',#872,'mechanical');
#874=PRODUCT('Ruder passende Ma\X\DFe','Ruder_passende_Ma\X\DFe',$,(#873));
#875=PRESENTATION_STYLE_ASSIGNMENT((#877));
#876=PRESENTATION_STYLE_ASSIGNMENT((#878));
#877=SURFACE_STYLE_USAGE(.BOTH.,#883);
#878=SURFACE_STYLE_USAGE(.BOTH.,#884);
#879=SURFACE_STYLE_RENDERING_WITH_PROPERTIES($,#891,(#881));
#880=SURFACE_STYLE_RENDERING_WITH_PROPERTIES($,#892,(#882));
#881=SURFACE_STYLE_TRANSPARENT(0.);
#882=SURFACE_STYLE_TRANSPARENT(0.);
#883=SURFACE_SIDE_STYLE('',(#885,#879));
#884=SURFACE_SIDE_STYLE('',(#886,#880));
#885=SURFACE_STYLE_FILL_AREA(#887);
#886=SURFACE_STYLE_FILL_AREA(#888);
#887=FILL_AREA_STYLE('',(#889));
#888=FILL_AREA_STYLE('',(#890));
#889=FILL_AREA_STYLE_COLOUR('',#891);
#890=FILL_AREA_STYLE_COLOUR('',#892);
#891=COLOUR_RGB('',0.749019607843137,0.749019607843137,0.749019607843137);
#892=COLOUR_RGB('',0.956862745098039,0.956862745098039,0.956862745098039);
ENDSEC;
END-ISO-10303-21;
