ISO-10303-21;
HEADER;
/* Generated by software containing ST-Developer
 * from STEP Tools, Inc. (www.steptools.com) 
 */

FILE_DESCRIPTION(
/* description */ (''),
/* implementation_level */ '2;1');

FILE_NAME(
/* name */ 'se.stp',
/* time_stamp */ '2026-09-02T21:24:23+02:00',
/* author */ ('bluhm'),
/* organization */ (''),
/* preprocessor_version */ 'ST-DEVELOPER v20.1',
/* originating_system */ 'Autodesk Inventor 2026',
/* authorisation */ '');

FILE_SCHEMA (('AUTOMOTIVE_DESIGN { 1 0 10303 214 3 1 1 }','MODEL_BASED_INTEGRATED_MANUFACTURING_SCHEMA'));
ENDSEC;

DATA;
#10=MECHANICAL_DESIGN_GEOMETRIC_PRESENTATION_REPRESENTATION('',(#237,#238,
#239,#240,#241,#242,#243,#244,#245,#246,#247,#248),#976);
#11=SHAPE_REPRESENTATION_RELATIONSHIP('SRR','None',#983,#12);
#12=ADVANCED_BREP_SHAPE_REPRESENTATION('',(#13),#975);
#13=MANIFOLD_SOLID_BREP('Volumenk\X\F6rper1',#260);
#14=CYLINDRICAL_SURFACE('',#289,5.);
#15=CYLINDRICAL_SURFACE('',#294,3.);
#16=CYLINDRICAL_SURFACE('',#297,5.);
#17=LINE('',#612,#22);
#18=LINE('',#713,#23);
#19=LINE('',#727,#24);
#20=LINE('',#967,#25);
#21=LINE('',#972,#26);
#22=VECTOR('',#312,10.);
#23=VECTOR('',#313,10.);
#24=VECTOR('',#316,10.);
#25=VECTOR('',#327,3.);
#26=VECTOR('',#334,5.);
#27=FACE_BOUND('',#45,.T.);
#28=FACE_BOUND('',#51,.T.);
#29=PLANE('',#285);
#30=PLANE('',#292);
#31=PLANE('',#295);
#32=FACE_OUTER_BOUND('',#43,.T.);
#33=FACE_OUTER_BOUND('',#44,.T.);
#34=FACE_OUTER_BOUND('',#46,.T.);
#35=FACE_OUTER_BOUND('',#47,.T.);
#36=FACE_OUTER_BOUND('',#48,.T.);
#37=FACE_OUTER_BOUND('',#49,.T.);
#38=FACE_OUTER_BOUND('',#50,.T.);
#39=FACE_OUTER_BOUND('',#52,.T.);
#40=FACE_OUTER_BOUND('',#53,.T.);
#41=FACE_OUTER_BOUND('',#54,.T.);
#42=FACE_OUTER_BOUND('',#55,.T.);
#43=EDGE_LOOP('',(#156,#157,#158,#159,#160,#161,#162));
#44=EDGE_LOOP('',(#163,#164,#165,#166,#167));
#45=EDGE_LOOP('',(#168));
#46=EDGE_LOOP('',(#169,#170,#171,#172,#173,#174,#175,#176,#177,#178));
#47=EDGE_LOOP('',(#179,#180,#181));
#48=EDGE_LOOP('',(#182,#183,#184,#185,#186,#187,#188,#189));
#49=EDGE_LOOP('',(#190,#191,#192,#193,#194,#195));
#50=EDGE_LOOP('',(#196,#197,#198,#199));
#51=EDGE_LOOP('',(#200));
#52=EDGE_LOOP('',(#201,#202,#203,#204,#205,#206,#207,#208,#209,#210));
#53=EDGE_LOOP('',(#211,#212,#213,#214));
#54=EDGE_LOOP('',(#215));
#55=EDGE_LOOP('',(#216,#217,#218,#219,#220,#221,#222,#223,#224,#225,#226,
#227,#228,#229,#230,#231));
#56=CIRCLE('',#283,5.);
#57=CIRCLE('',#284,5.);
#58=CIRCLE('',#286,5.);
#59=CIRCLE('',#287,3.);
#60=CIRCLE('',#288,2.);
#61=CIRCLE('',#290,5.);
#62=CIRCLE('',#291,5.);
#63=CIRCLE('',#293,3.);
#64=CIRCLE('',#296,5.);
#65=B_SPLINE_CURVE_WITH_KNOTS('',3,(#398,#399,#400,#401,#402,#403,#404,
#405,#406,#407,#408,#409,#410,#411,#412,#413,#414,#415,#416,#417),
 .UNSPECIFIED.,.F.,.F.,(4,2,2,2,2,2,2,2,2,4),(0.164476749533438,0.188980174276271,
0.20829660515421,0.215190353765395,0.220843823641813,0.223560038803969,
0.224795174879694,0.22537723070438,0.22546968775345,0.225506212471665),
 .UNSPECIFIED.);
#66=B_SPLINE_CURVE_WITH_KNOTS('',3,(#423,#424,#425,#426,#427,#428,#429,
#430,#431,#432,#433,#434,#435,#436,#437,#438,#439,#440,#441,#442),
 .UNSPECIFIED.,.F.,.F.,(4,2,2,2,2,2,2,2,2,4),(-9.24538746008504E-6,0.,2.38437653353143E-5,
0.00021563843184387,0.000642174493798771,0.00161518410745744,0.00366546921860592,
0.00790443321533204,0.016792261360212,0.0280633790622648),.UNSPECIFIED.);
#67=B_SPLINE_CURVE_WITH_KNOTS('',3,(#444,#445,#446,#447,#448,#449,#450,
#451,#452,#453),.UNSPECIFIED.,.F.,.F.,(4,2,2,2,4),(-0.147246406297117,-0.125118948044519,
-0.106628308566052,-0.0756359367322968,0.),.UNSPECIFIED.);
#68=B_SPLINE_CURVE_WITH_KNOTS('',3,(#455,#456,#457,#458,#459,#460,#461,
#462),.UNSPECIFIED.,.F.,.F.,(4,1,1,1,1,4),(-2.64656021929555,-2.58404146831674,
-2.41732142378334,-2.25060137924994,-2.08388133471653,-2.02123876762131),
 .UNSPECIFIED.);
#69=B_SPLINE_CURVE_WITH_KNOTS('',3,(#463,#464,#465,#466,#467,#468,#469,
#470,#471,#472,#473,#474),.UNSPECIFIED.,.F.,.F.,(4,2,2,2,2,4),(-0.195438327480125,
-0.122048435126334,-0.07805879886032,-0.046449285804653,-0.0199672943006854,
0.),.UNSPECIFIED.);
#70=B_SPLINE_CURVE_WITH_KNOTS('',3,(#477,#478,#479,#480,#481,#482,#483,
#484),.UNSPECIFIED.,.F.,.F.,(4,2,2,4),(0.0139421582294923,0.0640818759780394,
0.145918676799645,0.234674934155112),.UNSPECIFIED.);
#71=B_SPLINE_CURVE_WITH_KNOTS('',3,(#486,#487,#488,#489,#490,#491,#492,
#493,#494,#495),.UNSPECIFIED.,.F.,.F.,(4,2,2,2,4),(-0.283017219607223,-0.281163529650768,
-0.276245228354868,-0.258610995394429,-0.234681234066132),.UNSPECIFIED.);
#72=B_SPLINE_CURVE_WITH_KNOTS('',3,(#498,#499,#500,#501,#502,#503,#504,
#505,#506,#507,#508,#509,#510,#511),.UNSPECIFIED.,.F.,.F.,(4,2,2,2,2,2,
4),(-0.213779508767786,-0.201380506217847,-0.186072752286624,-0.173168402119853,
-0.154548306889367,-0.078098000311794,0.),.UNSPECIFIED.);
#73=B_SPLINE_CURVE_WITH_KNOTS('',3,(#614,#615,#616,#617,#618,#619,#620,
#621,#622,#623),.UNSPECIFIED.,.F.,.F.,(4,3,3,4),(0.222740543898118,0.233209168616592,
0.239341720398177,0.240014072332353),.UNSPECIFIED.);
#74=B_SPLINE_CURVE_WITH_KNOTS('',3,(#625,#626,#627,#628,#629,#630,#631,
#632),.UNSPECIFIED.,.F.,.F.,(4,2,2,4),(0.000526578613734106,0.00191212899878279,
0.00549023471653169,0.0171954651445737),.UNSPECIFIED.);
#75=B_SPLINE_CURVE_WITH_KNOTS('',3,(#634,#635,#636,#637,#638,#639,#640,
#641,#642,#643),.UNSPECIFIED.,.F.,.F.,(4,2,2,2,4),(-0.147350665371371,-0.125166859299268,
-0.106631238849871,-0.0755750174171686,0.),.UNSPECIFIED.);
#76=B_SPLINE_CURVE_WITH_KNOTS('',3,(#645,#646,#647,#648),.UNSPECIFIED.,
 .F.,.F.,(4,4),(0.193184881424922,0.222353265535555),.UNSPECIFIED.);
#77=B_SPLINE_CURVE_WITH_KNOTS('',3,(#650,#651,#652,#653,#654,#655,#656,
#657,#658,#659,#660,#661,#662),.UNSPECIFIED.,.F.,.F.,(4,1,1,1,1,1,1,1,1,
1,4),(-0.193184881424922,-0.140136308374499,-0.126165369746819,-0.112194431119139,
-0.0842525538637785,-0.0283687993530577,0.0275149551576632,0.0554568324130236,
0.0694277710407038,0.083398709668384,0.191864135506153),.UNSPECIFIED.);
#78=B_SPLINE_CURVE_WITH_KNOTS('',3,(#663,#664,#665,#666,#667),
 .UNSPECIFIED.,.F.,.F.,(4,1,4),(-0.221062904221855,-0.195166218689826,-0.191864135506153),
 .UNSPECIFIED.);
#79=B_SPLINE_CURVE_WITH_KNOTS('',3,(#716,#717,#718,#719,#720,#721,#722,
#723,#724,#725),.UNSPECIFIED.,.F.,.F.,(4,3,3,4),(0.222740532493596,0.234134206079522,
0.239341688559783,0.240014072164139),.UNSPECIFIED.);
#80=B_SPLINE_CURVE_WITH_KNOTS('',3,(#729,#730,#731,#732,#733,#734,#735,
#736,#737,#738),.UNSPECIFIED.,.F.,.F.,(4,3,3,4),(-0.000668361171222638,
0.,0.0110390098524889,0.0164858285866646),.UNSPECIFIED.);
#81=B_SPLINE_CURVE_WITH_KNOTS('',3,(#802,#803,#804,#805,#806,#807,#808,
#809,#810,#811,#812,#813,#814,#815,#816,#817,#818,#819,#820,#821),
 .UNSPECIFIED.,.F.,.F.,(4,2,2,2,2,2,2,2,2,4),(0.164476749529837,0.188980174270757,
0.208296605155738,0.217508185773819,0.221965913133465,0.224084446274645,
0.225013995544707,0.225429742873076,0.225483292799265,0.225507478552846),
 .UNSPECIFIED.);
#82=B_SPLINE_CURVE_WITH_KNOTS('',3,(#824,#825,#826,#827,#828,#829,#830,
#831,#832,#833,#834,#835,#836,#837,#838,#839,#840,#841,#842,#843),
 .UNSPECIFIED.,.F.,.F.,(4,2,2,2,2,2,2,2,2,4),(-9.24538583807823E-6,0.,2.38437656129991E-5,
0.000215638400875989,0.000642174392864767,0.00161518384416196,0.00366546860965539,
0.00790443189609623,0.0167922585548676,0.028063374373611),.UNSPECIFIED.);
#83=B_SPLINE_CURVE_WITH_KNOTS('',3,(#845,#846,#847,#848,#849,#850,#851,
#852),.UNSPECIFIED.,.F.,.F.,(4,1,1,1,1,4),(-2.64697929838657,-2.58404146840733,
-2.41732142388484,-2.25060137936234,-2.08388133483985,-2.02106598999019),
 .UNSPECIFIED.);
#84=B_SPLINE_CURVE_WITH_KNOTS('',3,(#853,#854,#855,#856,#857,#858,#859,
#860,#861,#862,#863,#864),.UNSPECIFIED.,.F.,.F.,(4,2,2,2,2,4),(-0.195438356058392,
-0.122048360835513,-0.0780588662256511,-0.0464493481271039,-0.0199673328406056,
0.),.UNSPECIFIED.);
#85=B_SPLINE_CURVE_WITH_KNOTS('',3,(#866,#867,#868,#869,#870,#871,#872,
#873,#874,#875),.UNSPECIFIED.,.F.,.F.,(4,2,2,2,4),(0.234674335934218,0.258767695752989,
0.276303320656142,0.281197186484294,0.283033765019332),.UNSPECIFIED.);
#86=B_SPLINE_CURVE_WITH_KNOTS('',3,(#949,#950,#951,#952,#953),
 .UNSPECIFIED.,.F.,.F.,(4,1,4),(0.191425849857691,0.202315675183671,0.220587195003155),
 .UNSPECIFIED.);
#87=B_SPLINE_CURVE_WITH_KNOTS('',3,(#955,#956,#957,#958,#959,#960),
 .UNSPECIFIED.,.F.,.F.,(4,1,1,4),(-0.191425849857691,-0.0666426558232192,
0.0690303635372327,0.193720562718727),.UNSPECIFIED.);
#88=B_SPLINE_CURVE_WITH_KNOTS('',3,(#961,#962,#963,#964,#965),
 .UNSPECIFIED.,.F.,.F.,(4,1,4),(-0.222938958344352,-0.204703382897685,-0.193720562718728),
 .UNSPECIFIED.);
#89=VERTEX_POINT('',#396);
#90=VERTEX_POINT('',#397);
#91=VERTEX_POINT('',#418);
#92=VERTEX_POINT('',#420);
#93=VERTEX_POINT('',#422);
#94=VERTEX_POINT('',#443);
#95=VERTEX_POINT('',#454);
#96=VERTEX_POINT('',#476);
#97=VERTEX_POINT('',#485);
#98=VERTEX_POINT('',#496);
#99=VERTEX_POINT('',#512);
#100=VERTEX_POINT('',#609);
#101=VERTEX_POINT('',#611);
#102=VERTEX_POINT('',#613);
#103=VERTEX_POINT('',#624);
#104=VERTEX_POINT('',#633);
#105=VERTEX_POINT('',#644);
#106=VERTEX_POINT('',#649);
#107=VERTEX_POINT('',#715);
#108=VERTEX_POINT('',#726);
#109=VERTEX_POINT('',#728);
#110=VERTEX_POINT('',#800);
#111=VERTEX_POINT('',#801);
#112=VERTEX_POINT('',#822);
#113=VERTEX_POINT('',#844);
#114=VERTEX_POINT('',#876);
#115=VERTEX_POINT('',#948);
#116=VERTEX_POINT('',#954);
#117=VERTEX_POINT('',#969);
#118=EDGE_CURVE('',#89,#90,#65,.F.);
#119=EDGE_CURVE('',#91,#89,#56,.T.);
#120=EDGE_CURVE('',#92,#91,#57,.T.);
#121=EDGE_CURVE('',#92,#93,#66,.T.);
#122=EDGE_CURVE('',#94,#93,#67,.F.);
#123=EDGE_CURVE('',#94,#95,#68,.T.);
#124=EDGE_CURVE('',#95,#90,#69,.T.);
#125=EDGE_CURVE('',#96,#95,#70,.T.);
#126=EDGE_CURVE('',#97,#94,#71,.T.);
#127=EDGE_CURVE('',#97,#98,#58,.T.);
#128=EDGE_CURVE('',#96,#98,#72,.T.);
#129=EDGE_CURVE('',#99,#99,#59,.T.);
#130=EDGE_CURVE('',#96,#100,#60,.T.);
#131=EDGE_CURVE('',#100,#101,#17,.T.);
#132=EDGE_CURVE('',#101,#102,#73,.F.);
#133=EDGE_CURVE('',#102,#103,#74,.T.);
#134=EDGE_CURVE('',#103,#104,#75,.F.);
#135=EDGE_CURVE('',#104,#105,#76,.F.);
#136=EDGE_CURVE('',#105,#106,#77,.T.);
#137=EDGE_CURVE('',#90,#106,#78,.T.);
#138=EDGE_CURVE('',#98,#100,#18,.T.);
#139=EDGE_CURVE('',#107,#97,#79,.F.);
#140=EDGE_CURVE('',#108,#107,#19,.T.);
#141=EDGE_CURVE('',#108,#109,#80,.T.);
#142=EDGE_CURVE('',#109,#102,#61,.T.);
#143=EDGE_CURVE('',#110,#111,#81,.F.);
#144=EDGE_CURVE('',#112,#110,#62,.T.);
#145=EDGE_CURVE('',#112,#104,#82,.T.);
#146=EDGE_CURVE('',#103,#113,#83,.T.);
#147=EDGE_CURVE('',#113,#111,#84,.T.);
#148=EDGE_CURVE('',#113,#109,#85,.T.);
#149=EDGE_CURVE('',#114,#114,#63,.T.);
#150=EDGE_CURVE('',#93,#115,#86,.F.);
#151=EDGE_CURVE('',#115,#116,#87,.T.);
#152=EDGE_CURVE('',#111,#116,#88,.T.);
#153=EDGE_CURVE('',#114,#99,#20,.T.);
#154=EDGE_CURVE('',#117,#117,#64,.T.);
#155=EDGE_CURVE('',#91,#117,#21,.T.);
#156=ORIENTED_EDGE('',*,*,#118,.F.);
#157=ORIENTED_EDGE('',*,*,#119,.F.);
#158=ORIENTED_EDGE('',*,*,#120,.F.);
#159=ORIENTED_EDGE('',*,*,#121,.T.);
#160=ORIENTED_EDGE('',*,*,#122,.F.);
#161=ORIENTED_EDGE('',*,*,#123,.T.);
#162=ORIENTED_EDGE('',*,*,#124,.T.);
#163=ORIENTED_EDGE('',*,*,#125,.T.);
#164=ORIENTED_EDGE('',*,*,#123,.F.);
#165=ORIENTED_EDGE('',*,*,#126,.F.);
#166=ORIENTED_EDGE('',*,*,#127,.T.);
#167=ORIENTED_EDGE('',*,*,#128,.F.);
#168=ORIENTED_EDGE('',*,*,#129,.T.);
#169=ORIENTED_EDGE('',*,*,#130,.T.);
#170=ORIENTED_EDGE('',*,*,#131,.T.);
#171=ORIENTED_EDGE('',*,*,#132,.T.);
#172=ORIENTED_EDGE('',*,*,#133,.T.);
#173=ORIENTED_EDGE('',*,*,#134,.T.);
#174=ORIENTED_EDGE('',*,*,#135,.T.);
#175=ORIENTED_EDGE('',*,*,#136,.T.);
#176=ORIENTED_EDGE('',*,*,#137,.F.);
#177=ORIENTED_EDGE('',*,*,#124,.F.);
#178=ORIENTED_EDGE('',*,*,#125,.F.);
#179=ORIENTED_EDGE('',*,*,#128,.T.);
#180=ORIENTED_EDGE('',*,*,#138,.T.);
#181=ORIENTED_EDGE('',*,*,#130,.F.);
#182=ORIENTED_EDGE('',*,*,#127,.F.);
#183=ORIENTED_EDGE('',*,*,#139,.F.);
#184=ORIENTED_EDGE('',*,*,#140,.F.);
#185=ORIENTED_EDGE('',*,*,#141,.T.);
#186=ORIENTED_EDGE('',*,*,#142,.T.);
#187=ORIENTED_EDGE('',*,*,#132,.F.);
#188=ORIENTED_EDGE('',*,*,#131,.F.);
#189=ORIENTED_EDGE('',*,*,#138,.F.);
#190=ORIENTED_EDGE('',*,*,#143,.F.);
#191=ORIENTED_EDGE('',*,*,#144,.F.);
#192=ORIENTED_EDGE('',*,*,#145,.T.);
#193=ORIENTED_EDGE('',*,*,#134,.F.);
#194=ORIENTED_EDGE('',*,*,#146,.T.);
#195=ORIENTED_EDGE('',*,*,#147,.T.);
#196=ORIENTED_EDGE('',*,*,#146,.F.);
#197=ORIENTED_EDGE('',*,*,#133,.F.);
#198=ORIENTED_EDGE('',*,*,#142,.F.);
#199=ORIENTED_EDGE('',*,*,#148,.F.);
#200=ORIENTED_EDGE('',*,*,#149,.T.);
#201=ORIENTED_EDGE('',*,*,#126,.T.);
#202=ORIENTED_EDGE('',*,*,#122,.T.);
#203=ORIENTED_EDGE('',*,*,#150,.T.);
#204=ORIENTED_EDGE('',*,*,#151,.T.);
#205=ORIENTED_EDGE('',*,*,#152,.F.);
#206=ORIENTED_EDGE('',*,*,#147,.F.);
#207=ORIENTED_EDGE('',*,*,#148,.T.);
#208=ORIENTED_EDGE('',*,*,#141,.F.);
#209=ORIENTED_EDGE('',*,*,#140,.T.);
#210=ORIENTED_EDGE('',*,*,#139,.T.);
#211=ORIENTED_EDGE('',*,*,#149,.F.);
#212=ORIENTED_EDGE('',*,*,#153,.T.);
#213=ORIENTED_EDGE('',*,*,#129,.F.);
#214=ORIENTED_EDGE('',*,*,#153,.F.);
#215=ORIENTED_EDGE('',*,*,#154,.T.);
#216=ORIENTED_EDGE('',*,*,#136,.F.);
#217=ORIENTED_EDGE('',*,*,#135,.F.);
#218=ORIENTED_EDGE('',*,*,#145,.F.);
#219=ORIENTED_EDGE('',*,*,#144,.T.);
#220=ORIENTED_EDGE('',*,*,#143,.T.);
#221=ORIENTED_EDGE('',*,*,#152,.T.);
#222=ORIENTED_EDGE('',*,*,#151,.F.);
#223=ORIENTED_EDGE('',*,*,#150,.F.);
#224=ORIENTED_EDGE('',*,*,#121,.F.);
#225=ORIENTED_EDGE('',*,*,#120,.T.);
#226=ORIENTED_EDGE('',*,*,#155,.T.);
#227=ORIENTED_EDGE('',*,*,#154,.F.);
#228=ORIENTED_EDGE('',*,*,#155,.F.);
#229=ORIENTED_EDGE('',*,*,#119,.T.);
#230=ORIENTED_EDGE('',*,*,#118,.T.);
#231=ORIENTED_EDGE('',*,*,#137,.T.);
#232=B_SPLINE_SURFACE_WITH_KNOTS('',3,3,((#336,#337,#338,#339,#340,#341,
#342,#343,#344,#345,#346,#347),(#348,#349,#350,#351,#352,#353,#354,#355,
#356,#357,#358,#359),(#360,#361,#362,#363,#364,#365,#366,#367,#368,#369,
#370,#371),(#372,#373,#374,#375,#376,#377,#378,#379,#380,#381,#382,#383),
(#384,#385,#386,#387,#388,#389,#390,#391,#392,#393,#394,#395)),
 .UNSPECIFIED.,.F.,.F.,.F.,(4,1,4),(4,1,1,1,1,1,1,1,1,4),(0.,0.571428571428571,
1.),(-2.91748155738355,-2.83412153511685,-2.75076151285014,-2.58404146831674,
-2.41732142378334,-2.25060137924994,-2.08388133471653,-1.91716129018313,
-1.83380126791643,-1.75044124564973),.UNSPECIFIED.);
#233=B_SPLINE_SURFACE_WITH_KNOTS('',3,3,((#514,#515,#516,#517,#518,#519,
#520,#521,#522,#523,#524,#525,#526,#527,#528,#529,#530,#531,#532),(#533,
#534,#535,#536,#537,#538,#539,#540,#541,#542,#543,#544,#545,#546,#547,#548,
#549,#550,#551),(#552,#553,#554,#555,#556,#557,#558,#559,#560,#561,#562,
#563,#564,#565,#566,#567,#568,#569,#570),(#571,#572,#573,#574,#575,#576,
#577,#578,#579,#580,#581,#582,#583,#584,#585,#586,#587,#588,#589),(#590,
#591,#592,#593,#594,#595,#596,#597,#598,#599,#600,#601,#602,#603,#604,#605,
#606,#607,#608)),.UNSPECIFIED.,.F.,.F.,.F.,(4,1,4),(4,1,1,1,1,1,1,1,1,1,
1,1,1,1,1,1,4),(0.,0.571428571428571,1.),(-0.306933727711267,-0.251049973200547,
-0.195166218689826,-0.083398709668384,-0.0694277710407038,-0.0554568324130236,
-0.0275149551576632,0.0283687993530577,0.0842525538637785,0.112194431119139,
0.126165369746819,0.140136308374499,0.223961940140581,0.251903817395941,
0.363671326417383,0.419555080928104,0.475438835438824),.UNSPECIFIED.);
#234=B_SPLINE_SURFACE_WITH_KNOTS('',3,3,((#668,#669,#670,#671,#672,#673,
#674,#675,#676),(#677,#678,#679,#680,#681,#682,#683,#684,#685),(#686,#687,
#688,#689,#690,#691,#692,#693,#694),(#695,#696,#697,#698,#699,#700,#701,
#702,#703),(#704,#705,#706,#707,#708,#709,#710,#711,#712)),
 .UNSPECIFIED.,.F.,.F.,.F.,(4,1,4),(4,1,1,1,1,1,4),(0.,0.408020532291912,
0.952047908681127),(-0.128337690772938,-0.0641688453864692,-0.0183339558247055,
-0.0137504668685291,-0.00916697791235274,-0.00458348895617637,0.),
 .UNSPECIFIED.);
#235=B_SPLINE_SURFACE_WITH_KNOTS('',3,3,((#740,#741,#742,#743,#744,#745,
#746,#747,#748,#749,#750,#751),(#752,#753,#754,#755,#756,#757,#758,#759,
#760,#761,#762,#763),(#764,#765,#766,#767,#768,#769,#770,#771,#772,#773,
#774,#775),(#776,#777,#778,#779,#780,#781,#782,#783,#784,#785,#786,#787),
(#788,#789,#790,#791,#792,#793,#794,#795,#796,#797,#798,#799)),
 .UNSPECIFIED.,.F.,.F.,.F.,(4,1,4),(4,1,1,1,1,1,1,1,1,4),(0.,0.571428571428571,
1.),(-2.91748155745232,-2.83412153519107,-2.75076151292983,-2.58404146840733,
-2.41732142388484,-2.25060137936234,-2.08388133483985,-1.91716129031735,
-1.83380126805611,-1.75044124579486),.UNSPECIFIED.);
#236=B_SPLINE_SURFACE_WITH_KNOTS('',3,3,((#878,#879,#880,#881,#882,#883,
#884,#885,#886,#887,#888,#889,#890,#891),(#892,#893,#894,#895,#896,#897,
#898,#899,#900,#901,#902,#903,#904,#905),(#906,#907,#908,#909,#910,#911,
#912,#913,#914,#915,#916,#917,#918,#919),(#920,#921,#922,#923,#924,#925,
#926,#927,#928,#929,#930,#931,#932,#933),(#934,#935,#936,#937,#938,#939,
#940,#941,#942,#943,#944,#945,#946,#947)),.UNSPECIFIED.,.F.,.F.,.F.,(4,
1,4),(4,1,1,1,1,1,1,1,1,1,1,4),(0.,0.571428571428571,1.),(-0.476049421618588,
-0.408212911938362,-0.340376402258136,-0.272539892577911,-0.204703382897685,
-0.0690303635372327,0.0666426558232192,0.202315675183671,0.270152184863897,
0.337988694544123,0.405825204224349,0.473661713904575),.UNSPECIFIED.);
#237=STYLED_ITEM('',(#993),#249);
#238=STYLED_ITEM('',(#993),#250);
#239=STYLED_ITEM('',(#993),#251);
#240=STYLED_ITEM('',(#993),#252);
#241=STYLED_ITEM('',(#993),#253);
#242=STYLED_ITEM('',(#993),#254);
#243=STYLED_ITEM('',(#993),#255);
#244=STYLED_ITEM('',(#993),#256);
#245=STYLED_ITEM('',(#993),#257);
#246=STYLED_ITEM('',(#993),#258);
#247=STYLED_ITEM('',(#993),#259);
#248=STYLED_ITEM('',(#992),#13);
#249=ADVANCED_FACE('',(#32),#232,.T.);
#250=ADVANCED_FACE('',(#33,#27),#29,.F.);
#251=ADVANCED_FACE('',(#34),#233,.F.);
#252=ADVANCED_FACE('',(#35),#234,.F.);
#253=ADVANCED_FACE('',(#36),#14,.T.);
#254=ADVANCED_FACE('',(#37),#235,.T.);
#255=ADVANCED_FACE('',(#38,#28),#30,.T.);
#256=ADVANCED_FACE('',(#39),#236,.F.);
#257=ADVANCED_FACE('',(#40),#15,.F.);
#258=ADVANCED_FACE('',(#41),#31,.T.);
#259=ADVANCED_FACE('',(#42),#16,.T.);
#260=CLOSED_SHELL('',(#249,#250,#251,#252,#253,#254,#255,#256,#257,#258,
#259));
#261=DERIVED_UNIT_ELEMENT(#264,1.);
#262=DERIVED_UNIT_ELEMENT(#978,-3.);
#263=DIMENSIONAL_EXPONENTS(0.,1.,0.,0.,0.,0.,0.);
#264=(
CONVERSION_BASED_UNIT('gram',#266)
MASS_UNIT()
NAMED_UNIT(#263)
);
#265=(
MASS_UNIT()
NAMED_UNIT(*)
SI_UNIT(.KILO.,.GRAM.)
);
#266=MASS_MEASURE_WITH_UNIT(MASS_MEASURE(0.001),#265);
#267=DERIVED_UNIT((#261,#262));
#268=MEASURE_REPRESENTATION_ITEM('density measure',
POSITIVE_RATIO_MEASURE(1.),#267);
#269=PROPERTY_DEFINITION_REPRESENTATION(#274,#271);
#270=PROPERTY_DEFINITION_REPRESENTATION(#275,#272);
#271=REPRESENTATION('material name',(#273),#975);
#272=REPRESENTATION('density',(#268),#975);
#273=DESCRIPTIVE_REPRESENTATION_ITEM('Generisch','Generisch');
#274=PROPERTY_DEFINITION('material property','material name',#985);
#275=PROPERTY_DEFINITION('material property','density of part',#985);
#276=DATE_TIME_ROLE('creation_date');
#277=APPLIED_DATE_AND_TIME_ASSIGNMENT(#278,#276,(#985));
#278=DATE_AND_TIME(#279,#280);
#279=CALENDAR_DATE(2026,19,1);
#280=LOCAL_TIME(0,0,0.,#281);
#281=COORDINATED_UNIVERSAL_TIME_OFFSET(0,0,.BEHIND.);
#282=AXIS2_PLACEMENT_3D('',#335,#298,#299);
#283=AXIS2_PLACEMENT_3D('',#419,#300,#301);
#284=AXIS2_PLACEMENT_3D('',#421,#302,#303);
#285=AXIS2_PLACEMENT_3D('',#475,#304,#305);
#286=AXIS2_PLACEMENT_3D('',#497,#306,#307);
#287=AXIS2_PLACEMENT_3D('',#513,#308,#309);
#288=AXIS2_PLACEMENT_3D('',#610,#310,#311);
#289=AXIS2_PLACEMENT_3D('',#714,#314,#315);
#290=AXIS2_PLACEMENT_3D('',#739,#317,#318);
#291=AXIS2_PLACEMENT_3D('',#823,#319,#320);
#292=AXIS2_PLACEMENT_3D('',#865,#321,#322);
#293=AXIS2_PLACEMENT_3D('',#877,#323,#324);
#294=AXIS2_PLACEMENT_3D('',#966,#325,#326);
#295=AXIS2_PLACEMENT_3D('',#968,#328,#329);
#296=AXIS2_PLACEMENT_3D('',#970,#330,#331);
#297=AXIS2_PLACEMENT_3D('',#971,#332,#333);
#298=DIRECTION('axis',(0.,0.,1.));
#299=DIRECTION('refdir',(1.,0.,0.));
#300=DIRECTION('center_axis',(0.,0.,-1.));
#301=DIRECTION('ref_axis',(1.,0.,0.));
#302=DIRECTION('center_axis',(0.,0.,-1.));
#303=DIRECTION('ref_axis',(1.,0.,0.));
#304=DIRECTION('center_axis',(1.,0.,0.));
#305=DIRECTION('ref_axis',(0.,0.,-1.));
#306=DIRECTION('center_axis',(-1.,0.,0.));
#307=DIRECTION('ref_axis',(0.,1.,0.));
#308=DIRECTION('center_axis',(1.,0.,0.));
#309=DIRECTION('ref_axis',(0.,-1.,0.));
#310=DIRECTION('center_axis',(0.781840888515763,0.593693835026123,-0.190400775462855));
#311=DIRECTION('ref_axis',(-0.604756990117523,0.796410059519588,-1.88737914186277E-13));
#312=DIRECTION('',(1.,0.,0.));
#313=DIRECTION('',(1.,0.,0.));
#314=DIRECTION('center_axis',(1.,0.,0.));
#315=DIRECTION('ref_axis',(0.,5.0532154980743E-16,1.));
#316=DIRECTION('',(-1.,0.,0.));
#317=DIRECTION('center_axis',(-1.,0.,0.));
#318=DIRECTION('ref_axis',(0.,1.,0.));
#319=DIRECTION('center_axis',(0.,0.,-1.));
#320=DIRECTION('ref_axis',(1.,0.,0.));
#321=DIRECTION('center_axis',(1.,0.,0.));
#322=DIRECTION('ref_axis',(0.,0.,-1.));
#323=DIRECTION('center_axis',(-1.,0.,0.));
#324=DIRECTION('ref_axis',(0.,-1.,0.));
#325=DIRECTION('center_axis',(1.,0.,0.));
#326=DIRECTION('ref_axis',(0.,-1.,0.));
#327=DIRECTION('',(-1.,0.,0.));
#328=DIRECTION('center_axis',(0.,0.,-1.));
#329=DIRECTION('ref_axis',(-1.,0.,0.));
#330=DIRECTION('center_axis',(0.,0.,-1.));
#331=DIRECTION('ref_axis',(-1.,0.,0.));
#332=DIRECTION('center_axis',(0.,0.,1.));
#333=DIRECTION('ref_axis',(1.,0.,0.));
#334=DIRECTION('',(0.,0.,-1.));
#335=CARTESIAN_POINT('',(0.,0.,0.));
#336=CARTESIAN_POINT('Ctrl Pts',(-3.57142884296626,-3.49927505189159,24.));
#337=CARTESIAN_POINT('Ctrl Pts',(-3.57142857142857,-3.49927106111882,24.));
#338=CARTESIAN_POINT('Ctrl Pts',(-3.63408701366344,-3.43698171677668,24.));
#339=CARTESIAN_POINT('Ctrl Pts',(-3.94489839216291,-3.09313757524431,24.));
#340=CARTESIAN_POINT('Ctrl Pts',(-4.49396817093603,-2.32503930526412,24.));
#341=CARTESIAN_POINT('Ctrl Pts',(-5.02191299786408,-0.870942283248327,24.));
#342=CARTESIAN_POINT('Ctrl Pts',(-5.0186498142302,0.870675820293559,24.));
#343=CARTESIAN_POINT('Ctrl Pts',(-4.49460705257699,2.32518627579046,24.));
#344=CARTESIAN_POINT('Ctrl Pts',(-3.94340056728582,3.09412764526703,24.));
#345=CARTESIAN_POINT('Ctrl Pts',(-3.63392625688255,3.43726357850438,24.));
#346=CARTESIAN_POINT('Ctrl Pts',(-3.57142857142857,3.49927106111882,24.));
#347=CARTESIAN_POINT('Ctrl Pts',(-3.57142884296626,3.49927505189159,24.));
#348=CARTESIAN_POINT('Ctrl Pts',(-3.36475339139078,-3.71020803344817,24.));
#349=CARTESIAN_POINT('Ctrl Pts',(-3.36475339139078,-3.71020803344817,24.0421559685082));
#350=CARTESIAN_POINT('Ctrl Pts',(-3.4059949670196,-3.6237474027942,24.1254755833516));
#351=CARTESIAN_POINT('Ctrl Pts',(-3.614094561735,-3.17975899090104,24.2044104747015));
#352=CARTESIAN_POINT('Ctrl Pts',(-4.00031017229994,-2.32601105952706,24.1415619271615));
#353=CARTESIAN_POINT('Ctrl Pts',(-4.41708766454868,-0.872519314823359,23.9901321510402));
#354=CARTESIAN_POINT('Ctrl Pts',(-4.41439391058533,0.870951874600889,23.9924095316434));
#355=CARTESIAN_POINT('Ctrl Pts',(-3.99964019839628,2.32433582788983,24.1418834546905));
#356=CARTESIAN_POINT('Ctrl Pts',(-3.61283627181263,3.18147693081294,24.2043721325294));
#357=CARTESIAN_POINT('Ctrl Pts',(-3.40576430572398,3.62420661140874,24.1251109282584));
#358=CARTESIAN_POINT('Ctrl Pts',(-3.36475339139078,3.71020803344817,24.0420841176619));
#359=CARTESIAN_POINT('Ctrl Pts',(-3.36475339139078,3.71020803344817,24.));
#360=CARTESIAN_POINT('Ctrl Pts',(-3.08644513190857,-4.16059570448764,24.));
#361=CARTESIAN_POINT('Ctrl Pts',(-3.08644513190857,-4.16059570448764,24.1323254861687));
#362=CARTESIAN_POINT('Ctrl Pts',(-3.09637419946389,-4.03527280742154,24.3937128625029));
#363=CARTESIAN_POINT('Ctrl Pts',(-3.14804599059209,-3.42203700617532,24.7103279794214));
#364=CARTESIAN_POINT('Ctrl Pts',(-3.24832730862266,-2.37289499921731,24.719143692141));
#365=CARTESIAN_POINT('Ctrl Pts',(-3.37055635120218,-0.86337519018116,24.4943272668126));
#366=CARTESIAN_POINT('Ctrl Pts',(-3.36947050636053,0.86133628758695,24.4973250537345));
#367=CARTESIAN_POINT('Ctrl Pts',(-3.24788166124522,2.36880545153616,24.7199568170159));
#368=CARTESIAN_POINT('Ctrl Pts',(-3.14772450663535,3.42464837087551,24.7104174994217));
#369=CARTESIAN_POINT('Ctrl Pts',(-3.09622976555811,4.03583925705907,24.3922507695871));
#370=CARTESIAN_POINT('Ctrl Pts',(-3.08644513190857,4.16059570448764,24.1320999499395));
#371=CARTESIAN_POINT('Ctrl Pts',(-3.08644513190857,4.16059570448764,24.));
#372=CARTESIAN_POINT('Ctrl Pts',(-3.,-4.67749566462054,24.));
#373=CARTESIAN_POINT('Ctrl Pts',(-3.,-4.67749566462054,24.2357335453813));
#374=CARTESIAN_POINT('Ctrl Pts',(-3.00006230432446,-4.51657557346275,24.7026204335021));
#375=CARTESIAN_POINT('Ctrl Pts',(-3.00008774328063,-3.74250705150825,25.3446768788578));
#376=CARTESIAN_POINT('Ctrl Pts',(-3.00000137691139,-2.46501278767011,25.602061854133));
#377=CARTESIAN_POINT('Ctrl Pts',(-2.99905646173975,-0.843228442664258,25.5496161156583));
#378=CARTESIAN_POINT('Ctrl Pts',(-2.99921520921113,0.842225924150472,25.5521167251901));
#379=CARTESIAN_POINT('Ctrl Pts',(-3.00001078239798,2.45905028707455,25.6013997292979));
#380=CARTESIAN_POINT('Ctrl Pts',(-3.00004778616385,3.74572234474128,25.3437865920061));
#381=CARTESIAN_POINT('Ctrl Pts',(-3.00008504004533,4.51703328475389,24.6996904623343));
#382=CARTESIAN_POINT('Ctrl Pts',(-3.,4.67749566462054,24.2353317599319));
#383=CARTESIAN_POINT('Ctrl Pts',(-3.,4.67749566462054,24.));
#384=CARTESIAN_POINT('Ctrl Pts',(-3.,-4.89897948556635,24.));
#385=CARTESIAN_POINT('Ctrl Pts',(-3.,-4.89897948556635,24.2800370349401));
#386=CARTESIAN_POINT('Ctrl Pts',(-3.,-4.72279422123419,24.8350021752054));
#387=CARTESIAN_POINT('Ctrl Pts',(-3.,-3.87973955968417,25.6164492326507));
#388=CARTESIAN_POINT('Ctrl Pts',(-3.,-2.50438317975842,25.9799555210712));
#389=CARTESIAN_POINT('Ctrl Pts',(-3.,-0.834633070502227,26.0004404864091));
#390=CARTESIAN_POINT('Ctrl Pts',(-3.,0.834068752643902,26.0028000674591));
#391=CARTESIAN_POINT('Ctrl Pts',(-3.,2.49760821242449,25.9786597354344));
#392=CARTESIAN_POINT('Ctrl Pts',(-3.,3.88321753985456,25.6151182347383));
#393=CARTESIAN_POINT('Ctrl Pts',(-3.,4.72320467197609,24.8314519242939));
#394=CARTESIAN_POINT('Ctrl Pts',(-3.,4.89897948556635,24.2795597383986));
#395=CARTESIAN_POINT('Ctrl Pts',(-3.,4.89897948556635,24.));
#396=CARTESIAN_POINT('',(-3.57142857142857,3.49927106111882,24.));
#397=CARTESIAN_POINT('',(-3.36625506768357,3.6968026924348,24.1591352970545));
#398=CARTESIAN_POINT('Ctrl Pts',(-3.36642319464483,3.69691694179857,24.1591548583063));
#399=CARTESIAN_POINT('Ctrl Pts',(-3.39403963422204,3.67176933253121,24.1245906174998));
#400=CARTESIAN_POINT('Ctrl Pts',(-3.42104186093141,3.64660790619167,24.0958065954274));
#401=CARTESIAN_POINT('Ctrl Pts',(-3.4673282431,3.60255856426011,24.053949683072));
#402=CARTESIAN_POINT('Ctrl Pts',(-3.48896920878927,3.58162531712885,24.0371033854483));
#403=CARTESIAN_POINT('Ctrl Pts',(-3.51868477779348,3.55232007713363,24.0192241188761));
#404=CARTESIAN_POINT('Ctrl Pts',(-3.52669042180079,3.54437344171154,24.0148986990989));
#405=CARTESIAN_POINT('Ctrl Pts',(-3.54127871284181,3.52979198388677,24.0081666231693));
#406=CARTESIAN_POINT('Ctrl Pts',(-3.54807751854353,3.52295843357954,24.0054543550796));
#407=CARTESIAN_POINT('Ctrl Pts',(-3.55796549043458,3.51296205367533,24.0024162245261));
#408=CARTESIAN_POINT('Ctrl Pts',(-3.56127900831509,3.50960295208022,24.0015431175971));
#409=CARTESIAN_POINT('Ctrl Pts',(-3.56596019164149,3.50484411430529,24.0006207887352));
#410=CARTESIAN_POINT('Ctrl Pts',(-3.56747738678596,3.50329978736865,24.0003678438607));
#411=CARTESIAN_POINT('Ctrl Pts',(-3.56961543118582,3.50112076763473,24.0001155786842));
#412=CARTESIAN_POINT('Ctrl Pts',(-3.57034643830797,3.50037529027461,24.0000459840827));
#413=CARTESIAN_POINT('Ctrl Pts',(-3.57109965162901,3.49960673503363,24.0000090609109));
#414=CARTESIAN_POINT('Ctrl Pts',(-3.57120784071972,3.49949633221867,24.0000046646291));
#415=CARTESIAN_POINT('Ctrl Pts',(-3.57134875513318,3.49935252189021,24.0000010294869));
#416=CARTESIAN_POINT('Ctrl Pts',(-3.57146848031188,3.49923032928536,24.));
#417=CARTESIAN_POINT('Ctrl Pts',(-3.57142857142857,3.49927106111882,24.));
#418=CARTESIAN_POINT('',(-5.,-6.12323399573677E-16,24.));
#419=CARTESIAN_POINT('Origin',(0.,0.,24.));
#420=CARTESIAN_POINT('',(-3.57142857142857,-3.49927106111882,24.));
#421=CARTESIAN_POINT('Origin',(0.,0.,24.));
#422=CARTESIAN_POINT('',(-3.36652877260767,-3.69707080942874,24.1593049365551));
#423=CARTESIAN_POINT('Ctrl Pts',(-3.57142857142857,-3.49927106111882,24.));
#424=CARTESIAN_POINT('Ctrl Pts',(-3.57140700335071,-3.49929307394611,24.));
#425=CARTESIAN_POINT('Ctrl Pts',(-3.57137203660252,-3.49932876093731,24.0000006354838));
#426=CARTESIAN_POINT('Ctrl Pts',(-3.57129485110675,-3.49940753453696,24.0000022436723));
#427=CARTESIAN_POINT('Ctrl Pts',(-3.57123595843852,-3.49946763603852,24.0000040772867));
#428=CARTESIAN_POINT('Ctrl Pts',(-3.57072463916049,-3.49998942476981,24.0000231071936));
#429=CARTESIAN_POINT('Ctrl Pts',(-3.57020267605124,-3.50052186630122,24.0000639144655));
#430=CARTESIAN_POINT('Ctrl Pts',(-3.56863132952483,-3.50212404554217,24.0002173934235));
#431=CARTESIAN_POINT('Ctrl Pts',(-3.5674936704952,-3.50328293905071,24.0003780048325));
#432=CARTESIAN_POINT('Ctrl Pts',(-3.56390134633595,-3.50693882057687,24.0009802882267));
#433=CARTESIAN_POINT('Ctrl Pts',(-3.56131886574334,-3.50956131063041,24.0015683329143));
#434=CARTESIAN_POINT('Ctrl Pts',(-3.55355429435815,-3.51742918531334,24.0036382311088));
#435=CARTESIAN_POINT('Ctrl Pts',(-3.54817348111,-3.52285671588788,24.0055148234523));
#436=CARTESIAN_POINT('Ctrl Pts',(-3.53219545381765,-3.53890211904937,24.0119739756178));
#437=CARTESIAN_POINT('Ctrl Pts',(-3.5213286784603,-3.54971261536458,24.0176340099932));
#438=CARTESIAN_POINT('Ctrl Pts',(-3.48897554225668,-3.58161921680797,24.0370981637178));
#439=CARTESIAN_POINT('Ctrl Pts',(-3.46732882824618,-3.60255805487696,24.0539487595518));
#440=CARTESIAN_POINT('Ctrl Pts',(-3.42103874915941,-3.64661080734351,24.0958099096311));
#441=CARTESIAN_POINT('Ctrl Pts',(-3.39403802666947,-3.67177079637337,24.1245926294824));
#442=CARTESIAN_POINT('Ctrl Pts',(-3.36642319463303,-3.69691694180931,24.159154858321));
#443=CARTESIAN_POINT('',(-3.,-3.11771928344603,25.7898751828506));
#444=CARTESIAN_POINT('Ctrl Pts',(-3.36642319463327,-3.6969169418091,24.1591548583208));
#445=CARTESIAN_POINT('Ctrl Pts',(-3.32611728793918,-3.73361961631097,24.2096010087399));
#446=CARTESIAN_POINT('Ctrl Pts',(-3.28758904466125,-3.76408446711101,24.2745501026253));
#447=CARTESIAN_POINT('Ctrl Pts',(-3.22205937256944,-3.79921441395245,24.4170014309377));
#448=CARTESIAN_POINT('Ctrl Pts',(-3.19638296929259,-3.80606988899541,24.4857244337624));
#449=CARTESIAN_POINT('Ctrl Pts',(-3.13636556765004,-3.80269945071207,24.6725671694433));
#450=CARTESIAN_POINT('Ctrl Pts',(-3.10338653767601,-3.77762944315028,24.8075074765427));
#451=CARTESIAN_POINT('Ctrl Pts',(-3.0106570281628,-3.57170229880024,25.3179636838682));
#452=CARTESIAN_POINT('Ctrl Pts',(-3.,-3.28019227232564,25.5970879531277));
#453=CARTESIAN_POINT('Ctrl Pts',(-3.,-3.11771928344603,25.7898751828506));
#454=CARTESIAN_POINT('',(-3.,3.11771928344603,25.7898751828506));
#455=CARTESIAN_POINT('Ctrl Pts',(-3.,-3.11797340530533,25.7908405482989));
#456=CARTESIAN_POINT('Ctrl Pts',(-3.,-2.91572373770173,25.8438399125917));
#457=CARTESIAN_POINT('Ctrl Pts',(-3.,-2.15651434814038,25.9842232740232));
#458=CARTESIAN_POINT('Ctrl Pts',(-3.,-0.834633070502227,26.0004404864091));
#459=CARTESIAN_POINT('Ctrl Pts',(-3.,0.834068752643902,26.0028000674591));
#460=CARTESIAN_POINT('Ctrl Pts',(-3.,2.15144509593104,25.9836830563528));
#461=CARTESIAN_POINT('Ctrl Pts',(-3.,2.9140533253187,25.8426165327073));
#462=CARTESIAN_POINT('Ctrl Pts',(-3.,3.11757431460811,25.7893215806766));
#463=CARTESIAN_POINT('Ctrl Pts',(-3.,3.11771928344603,25.7898751828506));
#464=CARTESIAN_POINT('Ctrl Pts',(-3.,3.22354878167052,25.6642999969298));
#465=CARTESIAN_POINT('Ctrl Pts',(-3.00604153477472,3.37512404459685,25.5118046092309));
#466=CARTESIAN_POINT('Ctrl Pts',(-3.03616585688721,3.58981186442144,25.2135100417943));
#467=CARTESIAN_POINT('Ctrl Pts',(-3.05412887722834,3.68059483172182,25.066538299342));
#468=CARTESIAN_POINT('Ctrl Pts',(-3.11178312475044,3.78294162271272,24.7743394465551));
#469=CARTESIAN_POINT('Ctrl Pts',(-3.1401158576514,3.8023515266253,24.6616577438212));
#470=CARTESIAN_POINT('Ctrl Pts',(-3.1995013717569,3.80668932120976,24.4754072722917));
#471=CARTESIAN_POINT('Ctrl Pts',(-3.23127703733868,3.79670495759021,24.3921313494617));
#472=CARTESIAN_POINT('Ctrl Pts',(-3.29811169005736,3.75529640545861,24.2578837514819));
#473=CARTESIAN_POINT('Ctrl Pts',(-3.33030415734919,3.72980704099034,24.2043607980272));
#474=CARTESIAN_POINT('Ctrl Pts',(-3.36642319463326,3.6969169418091,24.1591548583208));
#475=CARTESIAN_POINT('Origin',(-3.,0.,30.));
#476=CARTESIAN_POINT('',(-3.,3.99413689455629,24.2308974751305));
#477=CARTESIAN_POINT('Ctrl Pts',(-3.,3.99413689455628,24.2308974751305));
#478=CARTESIAN_POINT('Ctrl Pts',(-3.,3.98017686923441,24.3964211858092));
#479=CARTESIAN_POINT('Ctrl Pts',(-3.,3.9416508383671,24.558726536772));
#480=CARTESIAN_POINT('Ctrl Pts',(-3.,3.78382663094947,24.971144248112));
#481=CARTESIAN_POINT('Ctrl Pts',(-3.,3.64103737958238,25.1803314896914));
#482=CARTESIAN_POINT('Ctrl Pts',(-3.,3.36650039016738,25.5227174352296));
#483=CARTESIAN_POINT('Ctrl Pts',(-3.,3.21953600505495,25.6690614781616));
#484=CARTESIAN_POINT('Ctrl Pts',(-3.,3.11771928344603,25.7898751828506));
#485=CARTESIAN_POINT('',(-2.9999999856717,-2.99283080878769,25.9946331316631));
#486=CARTESIAN_POINT('Ctrl Pts',(-3.,-2.99283080629636,25.9946331314753));
#487=CARTESIAN_POINT('Ctrl Pts',(-3.,-2.9930679678475,25.9914860280062));
#488=CARTESIAN_POINT('Ctrl Pts',(-3.,-2.99350482437113,25.9883748196299));
#489=CARTESIAN_POINT('Ctrl Pts',(-3.,-2.99567470560253,25.9770359583608));
#490=CARTESIAN_POINT('Ctrl Pts',(-2.99999999999999,-2.99841054565099,25.9686411217575));
#491=CARTESIAN_POINT('Ctrl Pts',(-2.99999999999999,-3.01240379828251,25.9330522078899));
#492=CARTESIAN_POINT('Ctrl Pts',(-2.99999999999608,-3.03131960045582,25.9033747593213));
#493=CARTESIAN_POINT('Ctrl Pts',(-2.99999999999608,-3.06606703429132,25.8531398008482));
#494=CARTESIAN_POINT('Ctrl Pts',(-3.,-3.09026875903733,25.8224474312698));
#495=CARTESIAN_POINT('Ctrl Pts',(-3.,-3.11771928344603,25.7898751828506));
#496=CARTESIAN_POINT('',(-3.,3.,26.));
#497=CARTESIAN_POINT('Origin',(-3.,0.,30.));
#498=CARTESIAN_POINT('Ctrl Pts',(-3.,3.99413689455516,24.2308974751439));
#499=CARTESIAN_POINT('Ctrl Pts',(-3.,3.99150562502353,24.2620963796291));
#500=CARTESIAN_POINT('Ctrl Pts',(-3.,3.98901477715567,24.3017452056994));
#501=CARTESIAN_POINT('Ctrl Pts',(-3.,3.9820614435541,24.3981129526698));
#502=CARTESIAN_POINT('Ctrl Pts',(-3.,3.97813890146866,24.4446606402545));
#503=CARTESIAN_POINT('Ctrl Pts',(-3.,3.96696133019651,24.5387982926336));
#504=CARTESIAN_POINT('Ctrl Pts',(-3.,3.96074835941315,24.5810219910025));
#505=CARTESIAN_POINT('Ctrl Pts',(-3.,3.94216009893494,24.6848290723937));
#506=CARTESIAN_POINT('Ctrl Pts',(-3.,3.92850276891142,24.7453332199041));
#507=CARTESIAN_POINT('Ctrl Pts',(-3.,3.84436706348221,25.0515773829082));
#508=CARTESIAN_POINT('Ctrl Pts',(-3.,3.731050117907,25.2817520444292));
#509=CARTESIAN_POINT('Ctrl Pts',(-3.,3.42017241153394,25.6925710084118));
#510=CARTESIAN_POINT('Ctrl Pts',(-3.,3.22409523537229,25.8675186828178));
#511=CARTESIAN_POINT('Ctrl Pts',(-3.,3.,26.));
#512=CARTESIAN_POINT('',(-3.,3.,30.));
#513=CARTESIAN_POINT('Origin',(-3.,0.,30.));
#514=CARTESIAN_POINT('Ctrl Pts',(-2.51606582702447,3.,26.));
#515=CARTESIAN_POINT('Ctrl Pts',(-2.43606846110722,3.,26.));
#516=CARTESIAN_POINT('Ctrl Pts',(-2.23747912619262,3.,26.));
#517=CARTESIAN_POINT('Ctrl Pts',(-1.70532802317864,3.,26.));
#518=CARTESIAN_POINT('Ctrl Pts',(-1.15053915479455,3.,26.));
#519=CARTESIAN_POINT('Ctrl Pts',(-0.699740941224301,2.99999999999999,26.));
#520=CARTESIAN_POINT('Ctrl Pts',(-0.516753216882558,3.,26.));
#521=CARTESIAN_POINT('Ctrl Pts',(-0.191547785726364,3.,26.));
#522=CARTESIAN_POINT('Ctrl Pts',(0.27578201577816,3.,26.));
#523=CARTESIAN_POINT('Ctrl Pts',(0.741750171740799,3.,26.));
#524=CARTESIAN_POINT('Ctrl Pts',(1.05223171978986,3.,26.));
#525=CARTESIAN_POINT('Ctrl Pts',(1.22384425489488,3.,26.));
#526=CARTESIAN_POINT('Ctrl Pts',(1.56302038705671,2.99999999999999,26.));
#527=CARTESIAN_POINT('Ctrl Pts',(1.90941346761128,3.,26.));
#528=CARTESIAN_POINT('Ctrl Pts',(2.41219437955114,3.,26.));
#529=CARTESIAN_POINT('Ctrl Pts',(2.69017882074448,3.,26.));
#530=CARTESIAN_POINT('Ctrl Pts',(2.8095348549878,3.,26.));
#531=CARTESIAN_POINT('Ctrl Pts',(2.82842712474619,3.,26.));
#532=CARTESIAN_POINT('Ctrl Pts',(2.82843103799735,3.00000015433928,26.00000081403));
#533=CARTESIAN_POINT('Ctrl Pts',(-2.92553833226452,3.14182785928787,25.8673492733353));
#534=CARTESIAN_POINT('Ctrl Pts',(-2.8335826644807,3.17521362487988,25.8586413345697));
#535=CARTESIAN_POINT('Ctrl Pts',(-2.60796281074045,3.25280045304228,25.8506955502141));
#536=CARTESIAN_POINT('Ctrl Pts',(-2.00752810574045,3.41655885385722,25.8836140472601));
#537=CARTESIAN_POINT('Ctrl Pts',(-1.36993028093293,3.52175849426635,25.9460986410731));
#538=CARTESIAN_POINT('Ctrl Pts',(-0.836458953576636,3.56709365000539,25.9780215998961));
#539=CARTESIAN_POINT('Ctrl Pts',(-0.619063863717633,3.58228997785244,25.9891622211687));
#540=CARTESIAN_POINT('Ctrl Pts',(-0.230396325406655,3.60030698564378,26.0030342823752));
#541=CARTESIAN_POINT('Ctrl Pts',(0.33157690044923,3.60068455448046,26.0035960581728));
#542=CARTESIAN_POINT('Ctrl Pts',(0.886994711399645,3.56654718700312,25.9773463879528));
#543=CARTESIAN_POINT('Ctrl Pts',(1.25146955259783,3.52675117877736,25.950928376062));
#544=CARTESIAN_POINT('Ctrl Pts',(1.45137555012309,3.50010940642695,25.9349124809316));
#545=CARTESIAN_POINT('Ctrl Pts',(1.84426691365736,3.44113664264554,25.9019649786867));
#546=CARTESIAN_POINT('Ctrl Pts',(2.23764265639214,3.35573240000933,25.8677553754342));
#547=CARTESIAN_POINT('Ctrl Pts',(2.80515428085154,3.19201345950815,25.845951973274));
#548=CARTESIAN_POINT('Ctrl Pts',(3.12516593099647,3.06525401216859,25.8861304374227));
#549=CARTESIAN_POINT('Ctrl Pts',(3.27344210012583,3.00882524341796,25.954013781437));
#550=CARTESIAN_POINT('Ctrl Pts',(3.29736404563791,3.,25.9847295713269));
#551=CARTESIAN_POINT('Ctrl Pts',(3.29736404563791,3.,26.));
#552=CARTESIAN_POINT('Ctrl Pts',(-3.63969137570862,3.19778260441218,25.431349373783));
#553=CARTESIAN_POINT('Ctrl Pts',(-3.52684984855415,3.3048197983993,25.3887775434116));
#554=CARTESIAN_POINT('Ctrl Pts',(-3.2536078405877,3.54598498245462,25.3293839767842));
#555=CARTESIAN_POINT('Ctrl Pts',(-2.53269916249749,4.04557458824782,25.3238269395244));
#556=CARTESIAN_POINT('Ctrl Pts',(-1.74878534161434,4.38140145261755,25.4135970572288));
#557=CARTESIAN_POINT('Ctrl Pts',(-1.07218187341014,4.53004518313544,25.4613080221777));
#558=CARTESIAN_POINT('Ctrl Pts',(-0.795349522900482,4.57993417164644,25.4780396968476));
#559=CARTESIAN_POINT('Ctrl Pts',(-0.297416219905156,4.63966329799152,25.4994157338399));
#560=CARTESIAN_POINT('Ctrl Pts',(0.427776860328712,4.6409551334041,25.4999022167793));
#561=CARTESIAN_POINT('Ctrl Pts',(1.13803467079041,4.52777296349168,25.4589355681502));
#562=CARTESIAN_POINT('Ctrl Pts',(1.59632218686504,4.39879144661769,25.4206106366719));
#563=CARTESIAN_POINT('Ctrl Pts',(1.84553754579051,4.31347977506865,25.3986284844727));
#564=CARTESIAN_POINT('Ctrl Pts',(2.33235361378941,4.12593834816675,25.3547683206213));
#565=CARTESIAN_POINT('Ctrl Pts',(2.8087457815062,3.8611962442543,25.3191242280396));
#566=CARTESIAN_POINT('Ctrl Pts',(3.49055384834241,3.36215552029873,25.3500083889648));
#567=CARTESIAN_POINT('Ctrl Pts',(3.88416966421875,2.95710568054954,25.5142600724353));
#568=CARTESIAN_POINT('Ctrl Pts',(4.08216642510473,2.73620879078556,25.7892610332612));
#569=CARTESIAN_POINT('Ctrl Pts',(4.11482123123921,2.69919937611829,25.9293790212238));
#570=CARTESIAN_POINT('Ctrl Pts',(4.11482123123921,2.69919937611829,26.));
#571=CARTESIAN_POINT('Ctrl Pts',(-4.0791956850206,2.89899453189816,24.8067490937978));
#572=CARTESIAN_POINT('Ctrl Pts',(-3.95088455966448,3.0777655557374,24.7132933698529));
#573=CARTESIAN_POINT('Ctrl Pts',(-3.63577712937101,3.46542299848803,24.5644415355282));
#574=CARTESIAN_POINT('Ctrl Pts',(-2.79636755701303,4.21515083043781,24.4200277327259));
#575=CARTESIAN_POINT('Ctrl Pts',(-1.90524156097279,4.67003087560295,24.428990235455));
#576=CARTESIAN_POINT('Ctrl Pts',(-1.16262002797719,4.86523449917163,24.4388074910192));
#577=CARTESIAN_POINT('Ctrl Pts',(-0.860181345631966,4.93035717999014,24.4428960397051));
#578=CARTESIAN_POINT('Ctrl Pts',(-0.319966835398962,5.00731787823318,24.4489274681491));
#579=CARTESIAN_POINT('Ctrl Pts',(0.460462737263414,5.00902596891108,24.4490789821202));
#580=CARTESIAN_POINT('Ctrl Pts',(1.23289941215403,4.86343970714717,24.4370708785622));
#581=CARTESIAN_POINT('Ctrl Pts',(1.74083107183433,4.69181391450324,24.4311341647646));
#582=CARTESIAN_POINT('Ctrl Pts',(2.01967119764325,4.576162474347,24.4304681982522));
#583=CARTESIAN_POINT('Ctrl Pts',(2.56806447071043,4.31937103874033,24.4336218772004));
#584=CARTESIAN_POINT('Ctrl Pts',(3.11813705614516,3.94108144484732,24.464071723485));
#585=CARTESIAN_POINT('Ctrl Pts',(3.91137432338897,3.18153019516244,24.6431755773104));
#586=CARTESIAN_POINT('Ctrl Pts',(4.35784981027011,2.49732302149871,24.983152322857));
#587=CARTESIAN_POINT('Ctrl Pts',(4.56367039544765,2.07208140986968,25.5456450574815));
#588=CARTESIAN_POINT('Ctrl Pts',(4.59681097768739,1.99825514337794,25.8480564006202));
#589=CARTESIAN_POINT('Ctrl Pts',(4.59681097768739,1.99825514337794,26.));
#590=CARTESIAN_POINT('Ctrl Pts',(-4.19344304504078,2.72305626603621,24.5393187193468));
#591=CARTESIAN_POINT('Ctrl Pts',(-4.06011410184537,2.92837972428385,24.4240960568546));
#592=CARTESIAN_POINT('Ctrl Pts',(-3.72913187698767,3.36838017753637,24.2369488510258));
#593=CARTESIAN_POINT('Ctrl Pts',(-2.84221337196443,4.19362888107141,24.033320326138));
#594=CARTESIAN_POINT('Ctrl Pts',(-1.91756525799095,4.66590925197973,24.0078859073865));
#595=CARTESIAN_POINT('Ctrl Pts',(-1.16623490204048,4.86401888274199,24.0016497704499));
#596=CARTESIAN_POINT('Ctrl Pts',(-0.861255361470919,4.9297932018059,24.000392965205));
#597=CARTESIAN_POINT('Ctrl Pts',(-0.319246309543928,5.00686621351157,23.9999342411695));
#598=CARTESIAN_POINT('Ctrl Pts',(0.459636692963699,5.00846659594507,23.9999650050045));
#599=CARTESIAN_POINT('Ctrl Pts',(1.23625028623473,4.86271215585083,24.0002238065704));
#600=CARTESIAN_POINT('Ctrl Pts',(1.75371953298318,4.68702105739604,24.0080071261856));
#601=CARTESIAN_POINT('Ctrl Pts',(2.03974042482487,4.56720366966583,24.0163732387782));
#602=CARTESIAN_POINT('Ctrl Pts',(2.60503397842795,4.29927578249485,24.0394829921774));
#603=CARTESIAN_POINT('Ctrl Pts',(3.1823557793523,3.89391820775612,24.0980671865819));
#604=CARTESIAN_POINT('Ctrl Pts',(4.02032396591864,3.05175250893084,24.3404771779181));
#605=CARTESIAN_POINT('Ctrl Pts',(4.48363136790833,2.26119618664293,24.7557619896171));
#606=CARTESIAN_POINT('Ctrl Pts',(4.68255809164687,1.75515625778011,25.4413592597264));
#607=CARTESIAN_POINT('Ctrl Pts',(4.71404520791032,1.66666666666666,25.8132638750013));
#608=CARTESIAN_POINT('Ctrl Pts',(4.71404520791032,1.66666666666666,26.));
#609=CARTESIAN_POINT('',(-1.81427097035252,3.,26.));
#610=CARTESIAN_POINT('Origin',(-1.81427097035252,2.3892301785588,24.0955420127457));
#611=CARTESIAN_POINT('',(2.82842712474619,3.,26.));
#612=CARTESIAN_POINT('',(0.,3.,26.));
#613=CARTESIAN_POINT('',(3.,2.99283080641577,25.9946331298908));
#614=CARTESIAN_POINT('Ctrl Pts',(2.99987258860692,2.99259571232264,25.9946579402352));
#615=CARTESIAN_POINT('Ctrl Pts',(2.9653028370656,2.99554123417114,25.9967925180258));
#616=CARTESIAN_POINT('Ctrl Pts',(2.93066589453073,2.997633543173,25.9983029378204));
#617=CARTESIAN_POINT('Ctrl Pts',(2.89601566268473,2.9988275469146,25.9991609811157));
#618=CARTESIAN_POINT('Ctrl Pts',(2.87571745286692,2.99952699789023,25.9996636254536));
#619=CARTESIAN_POINT('Ctrl Pts',(2.85541378545147,2.99991803868533,25.9999423121688));
#620=CARTESIAN_POINT('Ctrl Pts',(2.8351076803862,2.99998854933323,25.9999925332985));
#621=CARTESIAN_POINT('Ctrl Pts',(2.83288222107317,2.99999627698842,25.9999980373122));
#622=CARTESIAN_POINT('Ctrl Pts',(2.8306567082956,3.00000015360675,26.0000008101664));
#623=CARTESIAN_POINT('Ctrl Pts',(2.82843103799735,3.00000015433928,26.00000081403));
#624=CARTESIAN_POINT('',(3.,3.11771928344603,25.7898751828506));
#625=CARTESIAN_POINT('Ctrl Pts',(3.,2.99283080641577,25.9946331298908));
#626=CARTESIAN_POINT('Ctrl Pts',(3.,2.99319326958844,25.9898232912997));
#627=CARTESIAN_POINT('Ctrl Pts',(3.,2.99404800485374,25.9847060267194));
#628=CARTESIAN_POINT('Ctrl Pts',(3.,2.99927365381434,25.9642305429914));
#629=CARTESIAN_POINT('Ctrl Pts',(2.99999999999889,3.00631724864002,25.9486140034486));
#630=CARTESIAN_POINT('Ctrl Pts',(2.99999999999889,3.03651725864543,25.8910078977721));
#631=CARTESIAN_POINT('Ctrl Pts',(3.,3.07546431124107,25.8400140957221));
#632=CARTESIAN_POINT('Ctrl Pts',(3.,3.11771928344603,25.7898751828506));
#633=CARTESIAN_POINT('',(3.36646251505598,3.6969113906291,24.1588848653519));
#634=CARTESIAN_POINT('Ctrl Pts',(3.36642319463327,3.6969169418091,24.1591548583208));
#635=CARTESIAN_POINT('Ctrl Pts',(3.32606842772944,3.73366410855842,24.2096621613027));
#636=CARTESIAN_POINT('Ctrl Pts',(3.28749601871186,3.76415806429352,24.2747071925625));
#637=CARTESIAN_POINT('Ctrl Pts',(3.22190353041441,3.79927805614646,24.4173780690922));
#638=CARTESIAN_POINT('Ctrl Pts',(3.19621007481458,3.80610527051565,24.4862006966045));
#639=CARTESIAN_POINT('Ctrl Pts',(3.13617764658367,3.80261285246288,24.6732567268454));
#640=CARTESIAN_POINT('Ctrl Pts',(3.10318966761709,3.77742427389825,24.8083678598525));
#641=CARTESIAN_POINT('Ctrl Pts',(3.01065289005953,3.57112557811356,25.3185327600232));
#642=CARTESIAN_POINT('Ctrl Pts',(3.,3.28006141200134,25.597243229396));
#643=CARTESIAN_POINT('Ctrl Pts',(3.,3.11771928344603,25.7898751828506));
#644=CARTESIAN_POINT('',(2.99992265828646,3.99981539605614,24.0918627050095));
#645=CARTESIAN_POINT('Ctrl Pts',(2.99992265828646,3.99981539605614,24.0918627050095));
#646=CARTESIAN_POINT('Ctrl Pts',(3.128035972638,3.90380459434222,24.1099984481373));
#647=CARTESIAN_POINT('Ctrl Pts',(3.25060007878376,3.80253439686231,24.1319415633803));
#648=CARTESIAN_POINT('Ctrl Pts',(3.36679436013607,3.69706707397556,24.1585458576207));
#649=CARTESIAN_POINT('',(-2.99978502170029,3.99973897877801,24.0922585520265));
#650=CARTESIAN_POINT('Ctrl Pts',(2.99992265828646,3.99981539605614,24.0918627050095));
#651=CARTESIAN_POINT('Ctrl Pts',(2.76692282911073,4.17443034932309,24.0588792085467));
#652=CARTESIAN_POINT('Ctrl Pts',(2.44937091459884,4.37305422121305,24.0331193338701));
#653=CARTESIAN_POINT('Ctrl Pts',(2.03974042482487,4.56720366966583,24.0163732387782));
#654=CARTESIAN_POINT('Ctrl Pts',(1.75371953298318,4.68702105739604,24.0080071261856));
#655=CARTESIAN_POINT('Ctrl Pts',(1.23625028623473,4.86271215585083,24.0002238065704));
#656=CARTESIAN_POINT('Ctrl Pts',(0.459636692963699,5.00846659594507,23.9999650050045));
#657=CARTESIAN_POINT('Ctrl Pts',(-0.319246309543928,5.00686621351157,23.9999342411695));
#658=CARTESIAN_POINT('Ctrl Pts',(-0.861255361470919,4.9297932018059,24.000392965205));
#659=CARTESIAN_POINT('Ctrl Pts',(-1.16623490204048,4.86401888274199,24.0016497704499));
#660=CARTESIAN_POINT('Ctrl Pts',(-1.89980728624773,4.67059164661117,24.0077385139761));
#661=CARTESIAN_POINT('Ctrl Pts',(-2.52405923730769,4.35601649953905,24.0245777752206));
#662=CARTESIAN_POINT('Ctrl Pts',(-2.99978502170029,3.99973897877801,24.0922585520265));
#663=CARTESIAN_POINT('Ctrl Pts',(-3.36616198228712,3.69667738137095,24.1593406515502));
#664=CARTESIAN_POINT('Ctrl Pts',(-3.26341792332708,3.7902512013218,24.1355433472572));
#665=CARTESIAN_POINT('Ctrl Pts',(-3.14169923107847,3.89234714506004,24.1129710032062));
#666=CARTESIAN_POINT('Ctrl Pts',(-3.01426784975862,3.98889259154504,24.094319001734));
#667=CARTESIAN_POINT('Ctrl Pts',(-2.99978502170029,3.99973897877801,24.0922585520265));
#668=CARTESIAN_POINT('Ctrl Pts',(-3.,3.,26.));
#669=CARTESIAN_POINT('Ctrl Pts',(-2.78565362522225,3.,26.));
#670=CARTESIAN_POINT('Ctrl Pts',(-2.4159649178068,3.,26.));
#671=CARTESIAN_POINT('Ctrl Pts',(-2.07700136015833,3.,26.));
#672=CARTESIAN_POINT('Ctrl Pts',(-1.92450040115745,3.,26.));
#673=CARTESIAN_POINT('Ctrl Pts',(-1.88715545436474,3.,26.));
#674=CARTESIAN_POINT('Ctrl Pts',(-1.85032497080796,3.,26.));
#675=CARTESIAN_POINT('Ctrl Pts',(-1.82621616727918,3.,26.));
#676=CARTESIAN_POINT('Ctrl Pts',(-1.81427097035252,3.,26.));
#677=CARTESIAN_POINT('Ctrl Pts',(-3.00389660557777,3.24277915951561,25.8564730625192));
#678=CARTESIAN_POINT('Ctrl Pts',(-2.82465518549864,3.24309694621463,25.8567721413689));
#679=CARTESIAN_POINT('Ctrl Pts',(-2.5160830466949,3.25225058540055,25.863744472971));
#680=CARTESIAN_POINT('Ctrl Pts',(-2.24342000775736,3.26484941186454,25.886824727645));
#681=CARTESIAN_POINT('Ctrl Pts',(-2.12417748266456,3.26752958832241,25.9017732783739));
#682=CARTESIAN_POINT('Ctrl Pts',(-2.09514014369337,3.26802255007872,25.9056664664105));
#683=CARTESIAN_POINT('Ctrl Pts',(-2.06667233646267,3.26831731782455,25.9097171944066));
#684=CARTESIAN_POINT('Ctrl Pts',(-2.04815228450606,3.26836738102676,25.9125139989556));
#685=CARTESIAN_POINT('Ctrl Pts',(-2.03900424042011,3.26835272699873,25.9139378509533));
#686=CARTESIAN_POINT('Ctrl Pts',(-3.01299219770642,3.73773416271362,25.4000831598925));
#687=CARTESIAN_POINT('Ctrl Pts',(-2.91571405946701,3.73866001366311,25.4004350190816));
#688=CARTESIAN_POINT('Ctrl Pts',(-2.74961873085561,3.76497128585167,25.4082935877544));
#689=CARTESIAN_POINT('Ctrl Pts',(-2.63189440507058,3.80563452772132,25.4437353478256));
#690=CARTESIAN_POINT('Ctrl Pts',(-2.59040288471921,3.81777739717298,25.4698477028128));
#691=CARTESIAN_POINT('Ctrl Pts',(-2.58080048498002,3.82039437348832,25.4767043988181));
#692=CARTESIAN_POINT('Ctrl Pts',(-2.57189443219286,3.82255445982173,25.4839670256621));
#693=CARTESIAN_POINT('Ctrl Pts',(-2.56644949923781,3.82364558159898,25.4890522129666));
#694=CARTESIAN_POINT('Ctrl Pts',(-2.56384745534246,3.82409495479319,25.4916541140083));
#695=CARTESIAN_POINT('Ctrl Pts',(-3.0201939063855,3.96092772348426,24.7533594420293));
#696=CARTESIAN_POINT('Ctrl Pts',(-2.98793131311496,3.96158711909734,24.7526652346136));
#697=CARTESIAN_POINT('Ctrl Pts',(-2.93243925223981,3.9791226811644,24.732440351942));
#698=CARTESIAN_POINT('Ctrl Pts',(-2.91034077687277,4.00888676844085,24.7048900462556));
#699=CARTESIAN_POINT('Ctrl Pts',(-2.90905906934682,4.01863748340111,24.6961800867685));
#700=CARTESIAN_POINT('Ctrl Pts',(-2.9092362955239,4.02087572570472,24.6942177730222));
#701=CARTESIAN_POINT('Ctrl Pts',(-2.90981421365948,4.02281390413331,24.692495656477));
#702=CARTESIAN_POINT('Ctrl Pts',(-2.91048618482973,4.02389399161263,24.6915165590439));
#703=CARTESIAN_POINT('Ctrl Pts',(-2.91090034003651,4.02438215321855,24.6910751225631));
#704=CARTESIAN_POINT('Ctrl Pts',(-3.02305674351389,3.97958693489359,24.3777557928129));
#705=CARTESIAN_POINT('Ctrl Pts',(-3.01649618450831,3.9797292213298,24.3764184267805));
#706=CARTESIAN_POINT('Ctrl Pts',(-3.0054487124288,3.98370875076155,24.3399757646011));
#707=CARTESIAN_POINT('Ctrl Pts',(-3.00139269262634,3.9901195480212,24.273151698276));
#708=CARTESIAN_POINT('Ctrl Pts',(-3.00146456234239,3.99223443144485,24.2424956208832));
#709=CARTESIAN_POINT('Ctrl Pts',(-3.0015767473067,3.99271052861666,24.2349119486762));
#710=CARTESIAN_POINT('Ctrl Pts',(-3.00177871509954,3.99312564349563,24.2274672817589));
#711=CARTESIAN_POINT('Ctrl Pts',(-3.00197370656037,3.99335636651143,24.2226134315309));
#712=CARTESIAN_POINT('Ctrl Pts',(-3.002086211556,3.99345924036449,24.2202178725692));
#713=CARTESIAN_POINT('',(0.,3.,26.));
#714=CARTESIAN_POINT('Origin',(0.,0.,30.));
#715=CARTESIAN_POINT('',(-2.82842712474619,-3.,26.));
#716=CARTESIAN_POINT('Ctrl Pts',(-2.99998797280427,-2.99257029882103,25.9946380636714));
#717=CARTESIAN_POINT('Ctrl Pts',(-2.96232475891202,-2.99579004162485,25.996970613738));
#718=CARTESIAN_POINT('Ctrl Pts',(-2.92458654158207,-2.99799303972609,25.9985611036208));
#719=CARTESIAN_POINT('Ctrl Pts',(-2.88684923187678,-2.99912184666003,25.9993713855281));
#720=CARTESIAN_POINT('Ctrl Pts',(-2.86960138133407,-2.99963776826229,25.999741725156));
#721=CARTESIAN_POINT('Ctrl Pts',(-2.85235303466687,-2.99992910786868,25.9999491984756));
#722=CARTESIAN_POINT('Ctrl Pts',(-2.83510835890088,-2.9999890643799,25.9999917578018));
#723=CARTESIAN_POINT('Ctrl Pts',(-2.83288258018317,-2.99999680299606,25.9999972509548));
#724=CARTESIAN_POINT('Ctrl Pts',(-2.83065683870251,-3.00000069300561,26.));
#725=CARTESIAN_POINT('Ctrl Pts',(-2.8284310636739,-3.00000069631062,26.));
#726=CARTESIAN_POINT('',(2.82842712474619,-3.,26.));
#727=CARTESIAN_POINT('',(0.,-3.,26.));
#728=CARTESIAN_POINT('',(3.,-2.99283080641577,25.9946331298908));
#729=CARTESIAN_POINT('Ctrl Pts',(2.8284310636739,-3.00000069631062,26.));
#730=CARTESIAN_POINT('Ctrl Pts',(2.83065891553121,-3.00000069300252,26.));
#731=CARTESIAN_POINT('Ctrl Pts',(2.83288672806659,-2.99999679572716,25.9999972458322));
#732=CARTESIAN_POINT('Ctrl Pts',(2.83511457358318,-2.99998904276638,25.9999917443933));
#733=CARTESIAN_POINT('Ctrl Pts',(2.8719223521616,-2.99986095073228,25.9999008513117));
#734=CARTESIAN_POINT('Ctrl Pts',(2.90875340854862,-2.99867992814859,25.9990583973118));
#735=CARTESIAN_POINT('Ctrl Pts',(2.94555371595354,-2.99650649580469,25.9974950858547));
#736=CARTESIAN_POINT('Ctrl Pts',(2.96371155859297,-2.99543409056488,25.9967237237266));
#737=CARTESIAN_POINT('Ctrl Pts',(2.98186118982327,-2.99411976186703,25.9957771264095));
#738=CARTESIAN_POINT('Ctrl Pts',(2.9999915164579,-2.99256972713745,25.9946591758156));
#739=CARTESIAN_POINT('Origin',(3.,0.,30.));
#740=CARTESIAN_POINT('Ctrl Pts',(3.57142884296626,3.49927505189159,24.));
#741=CARTESIAN_POINT('Ctrl Pts',(3.57142857142857,3.49927106111882,24.));
#742=CARTESIAN_POINT('Ctrl Pts',(3.63386968723719,3.43727478435487,24.));
#743=CARTESIAN_POINT('Ctrl Pts',(3.94445505223243,3.09374399320285,24.));
#744=CARTESIAN_POINT('Ctrl Pts',(4.49555238746726,2.32291658427734,24.));
#745=CARTESIAN_POINT('Ctrl Pts',(5.02206288871695,0.870740474551073,24.));
#746=CARTESIAN_POINT('Ctrl Pts',(5.0189729161469,-0.871108668583373,24.));
#747=CARTESIAN_POINT('Ctrl Pts',(4.49468192731585,-2.32528689868545,24.));
#748=CARTESIAN_POINT('Ctrl Pts',(3.94344881584607,-3.09419229712968,24.));
#749=CARTESIAN_POINT('Ctrl Pts',(3.63394399451345,-3.43728740006509,24.));
#750=CARTESIAN_POINT('Ctrl Pts',(3.57142857142857,-3.49927106111882,24.));
#751=CARTESIAN_POINT('Ctrl Pts',(3.57142884296626,-3.49927505189159,24.));
#752=CARTESIAN_POINT('Ctrl Pts',(3.36475339139078,3.71020803344818,24.));
#753=CARTESIAN_POINT('Ctrl Pts',(3.36475339139078,3.71020803344818,24.0421559687428));
#754=CARTESIAN_POINT('Ctrl Pts',(3.40587228840284,3.62423345791741,24.1255542163074));
#755=CARTESIAN_POINT('Ctrl Pts',(3.61385261688926,3.18109529027336,24.2041737423576));
#756=CARTESIAN_POINT('Ctrl Pts',(4.00107122542581,2.32187571848953,24.1416099447734));
#757=CARTESIAN_POINT('Ctrl Pts',(4.41714632856578,0.872057833417155,23.9902072396515));
#758=CARTESIAN_POINT('Ctrl Pts',(4.41454749040982,-0.871799249063034,23.9924226999299));
#759=CARTESIAN_POINT('Ctrl Pts',(3.99967195994632,-2.32455324489599,24.1419077707334));
#760=CARTESIAN_POINT('Ctrl Pts',(3.61285907859575,-3.18160416591888,24.2043747949193));
#761=CARTESIAN_POINT('Ctrl Pts',(3.40577204735097,-3.62425692462867,24.1251154780488));
#762=CARTESIAN_POINT('Ctrl Pts',(3.36475339139078,-3.71020803344817,24.042084118503));
#763=CARTESIAN_POINT('Ctrl Pts',(3.36475339139078,-3.71020803344817,24.));
#764=CARTESIAN_POINT('Ctrl Pts',(3.08644513190857,4.16059570448764,24.));
#765=CARTESIAN_POINT('Ctrl Pts',(3.08644513190857,4.16059570448764,24.1323254869049));
#766=CARTESIAN_POINT('Ctrl Pts',(3.09630919299773,4.03597550976331,24.3936381205408));
#767=CARTESIAN_POINT('Ctrl Pts',(3.14807697412191,3.42421861914582,24.7102696756456));
#768=CARTESIAN_POINT('Ctrl Pts',(3.24851136244027,2.36641816381196,24.7196313034573));
#769=CARTESIAN_POINT('Ctrl Pts',(3.37054065131881,0.862603152061998,24.4943669929289));
#770=CARTESIAN_POINT('Ctrl Pts',(3.36950614671159,-0.862666757897858,24.4974250072657));
#771=CARTESIAN_POINT('Ctrl Pts',(3.24787999898272,-2.36916140547758,24.7199778867494));
#772=CARTESIAN_POINT('Ctrl Pts',(3.14772950341874,-3.4248486217814,24.7104323575308));
#773=CARTESIAN_POINT('Ctrl Pts',(3.09622993562997,-4.03592088060196,24.3922558740185));
#774=CARTESIAN_POINT('Ctrl Pts',(3.08644513190857,-4.16059570448764,24.1320999525797));
#775=CARTESIAN_POINT('Ctrl Pts',(3.08644513190857,-4.16059570448764,24.));
#776=CARTESIAN_POINT('Ctrl Pts',(3.,4.67749566462054,24.));
#777=CARTESIAN_POINT('Ctrl Pts',(3.,4.67749566462054,24.2357335466927));
#778=CARTESIAN_POINT('Ctrl Pts',(3.00008033128049,4.51737361460153,24.7024276417041));
#779=CARTESIAN_POINT('Ctrl Pts',(3.00004450429237,3.74516648725644,25.3446124172591));
#780=CARTESIAN_POINT('Ctrl Pts',(2.99999086638569,2.45724521359267,25.6029168925918));
#781=CARTESIAN_POINT('Ctrl Pts',(2.99906894633428,0.842267894370137,25.5496352335414));
#782=CARTESIAN_POINT('Ctrl Pts',(2.99921366114078,-0.843824130390833,25.5522878633074));
#783=CARTESIAN_POINT('Ctrl Pts',(3.00001449644477,-2.45948804417708,25.6014208144359));
#784=CARTESIAN_POINT('Ctrl Pts',(3.00004768823656,-3.74596322736398,25.3438115379091));
#785=CARTESIAN_POINT('Ctrl Pts',(3.00008568839797,-4.51713316577058,24.6996965025703));
#786=CARTESIAN_POINT('Ctrl Pts',(3.,-4.67749566462054,24.2353317646352));
#787=CARTESIAN_POINT('Ctrl Pts',(3.,-4.67749566462054,24.));
#788=CARTESIAN_POINT('Ctrl Pts',(3.,4.89897948556636,24.));
#789=CARTESIAN_POINT('Ctrl Pts',(3.,4.89897948556636,24.2800370364981));
#790=CARTESIAN_POINT('Ctrl Pts',(3.,4.72363313923992,24.8347668689301));
#791=CARTESIAN_POINT('Ctrl Pts',(3.,3.88260699069188,25.6163604485041));
#792=CARTESIAN_POINT('Ctrl Pts',(3.,2.49605629203358,25.9809648744888));
#793=CARTESIAN_POINT('Ctrl Pts',(3.,0.833590597071049,26.0004568462636));
#794=CARTESIAN_POINT('Ctrl Pts',(3.,-0.835782985232299,26.0030013413056));
#795=CARTESIAN_POINT('Ctrl Pts',(3.,-2.49808149154175,25.9786826684614));
#796=CARTESIAN_POINT('Ctrl Pts',(3.,-3.88347603302418,25.6151475114855));
#797=CARTESIAN_POINT('Ctrl Pts',(3.,-4.72331247798038,24.8314586922289));
#798=CARTESIAN_POINT('Ctrl Pts',(3.,-4.89897948556635,24.2795597439859));
#799=CARTESIAN_POINT('Ctrl Pts',(3.,-4.89897948556635,24.));
#800=CARTESIAN_POINT('',(3.57142857142857,-3.49927106111882,24.));
#801=CARTESIAN_POINT('',(3.36662190838091,-3.69725253077206,24.1596189171225));
#802=CARTESIAN_POINT('Ctrl Pts',(3.36642319463327,-3.6969169418091,24.1591548583207));
#803=CARTESIAN_POINT('Ctrl Pts',(3.39403963420816,-3.67176933254401,24.1245906175158));
#804=CARTESIAN_POINT('Ctrl Pts',(3.4210418609154,-3.64660790620666,24.0958065954439));
#805=CARTESIAN_POINT('Ctrl Pts',(3.46732824308973,-3.60255856427008,24.0539496830797));
#806=CARTESIAN_POINT('Ctrl Pts',(3.48896920878768,-3.58162531713051,24.0371033854484));
#807=CARTESIAN_POINT('Ctrl Pts',(3.52131260020748,-3.54972854114462,24.0176430104199));
#808=CARTESIAN_POINT('Ctrl Pts',(3.53217473011701,-3.53892277730286,24.0119843241131));
#809=CARTESIAN_POINT('Ctrl Pts',(3.54814924122976,-3.52288113168098,24.0055236720888));
#810=CARTESIAN_POINT('Ctrl Pts',(3.55353051402655,-3.51745321204686,24.0036458702837));
#811=CARTESIAN_POINT('Ctrl Pts',(3.56129983471886,-3.50958062788633,24.0015727927162));
#812=CARTESIAN_POINT('Ctrl Pts',(3.56388636420332,-3.50695405178746,24.0009832613103));
#813=CARTESIAN_POINT('Ctrl Pts',(3.56748544772605,-3.50329131426893,24.0003791825407));
#814=CARTESIAN_POINT('Ctrl Pts',(3.56862601741003,-3.50212946024461,24.0002179929252));
#815=CARTESIAN_POINT('Ctrl Pts',(3.57019869294118,-3.50052592830052,24.0000642675786));
#816=CARTESIAN_POINT('Ctrl Pts',(3.57071899481345,-3.49999518310564,24.0000235185993));
#817=CARTESIAN_POINT('Ctrl Pts',(3.57123203588173,-3.49947163910324,24.0000041988152));
#818=CARTESIAN_POINT('Ctrl Pts',(3.57129309099127,-3.49940933087209,24.0000022792005));
#819=CARTESIAN_POINT('Ctrl Pts',(3.57137660229496,-3.49932410130276,24.000000540875));
#820=CARTESIAN_POINT('Ctrl Pts',(3.57145455630722,-3.49924454041311,24.));
#821=CARTESIAN_POINT('Ctrl Pts',(3.57142857142857,-3.49927106111882,24.));
#822=CARTESIAN_POINT('',(3.57142857142857,3.49927106111882,24.));
#823=CARTESIAN_POINT('Origin',(0.,0.,24.));
#824=CARTESIAN_POINT('Ctrl Pts',(3.57142857142857,3.49927106111882,24.));
#825=CARTESIAN_POINT('Ctrl Pts',(3.5714070033545,3.49929307394225,24.));
#826=CARTESIAN_POINT('Ctrl Pts',(3.57137203660315,3.49932876093668,24.0000006354838));
#827=CARTESIAN_POINT('Ctrl Pts',(3.5712948511105,3.49940753453313,24.0000022436722));
#828=CARTESIAN_POINT('Ctrl Pts',(3.57123595844359,3.49946763603335,24.0000040772865));
#829=CARTESIAN_POINT('Ctrl Pts',(3.57072463915222,3.49998942477825,24.000023107194));
#830=CARTESIAN_POINT('Ctrl Pts',(3.5702026760406,3.50052186631207,24.0000639144664));
#831=CARTESIAN_POINT('Ctrl Pts',(3.56863132950802,3.50212404555931,24.0002173934256));
#832=CARTESIAN_POINT('Ctrl Pts',(3.56749367047453,3.50328293907176,24.0003780048356));
#833=CARTESIAN_POINT('Ctrl Pts',(3.56390134631048,3.50693882060274,24.000980288232));
#834=CARTESIAN_POINT('Ctrl Pts',(3.56131886571715,3.50956131065699,24.0015683329205));
#835=CARTESIAN_POINT('Ctrl Pts',(3.55355429433846,3.5174291853332,24.0036382311155));
#836=CARTESIAN_POINT('Ctrl Pts',(3.54817348109851,3.52285671589944,24.0055148234568));
#837=CARTESIAN_POINT('Ctrl Pts',(3.53219545381759,3.5389021190494,24.0119739756182));
#838=CARTESIAN_POINT('Ctrl Pts',(3.52132867846451,3.54971261536038,24.0176340099911));
#839=CARTESIAN_POINT('Ctrl Pts',(3.48897554226517,3.5816192167997,24.0370981637118));
#840=CARTESIAN_POINT('Ctrl Pts',(3.46732882825495,3.60255805486852,24.0539487595446));
#841=CARTESIAN_POINT('Ctrl Pts',(3.42103874916579,3.64661080733756,24.0958099096243));
#842=CARTESIAN_POINT('Ctrl Pts',(3.39403802667277,3.67177079637036,24.1245926294782));
#843=CARTESIAN_POINT('Ctrl Pts',(3.36642319463303,3.69691694180931,24.159154858321));
#844=CARTESIAN_POINT('',(3.,-3.11771928344602,25.7898751828506));
#845=CARTESIAN_POINT('Ctrl Pts',(3.,3.11942009546917,25.7902048762256));
#846=CARTESIAN_POINT('Ctrl Pts',(3.,2.91489144668534,25.8438546704363));
#847=CARTESIAN_POINT('Ctrl Pts',(3.,2.15109802797768,25.9850094191473));
#848=CARTESIAN_POINT('Ctrl Pts',(3.,0.833590597071049,26.0004568462636));
#849=CARTESIAN_POINT('Ctrl Pts',(3.,-0.835782985232299,26.0030013413056));
#850=CARTESIAN_POINT('Ctrl Pts',(3.,-2.15275083547221,25.9837346992586));
#851=CARTESIAN_POINT('Ctrl Pts',(3.,-2.9156744511519,25.8424408124041));
#852=CARTESIAN_POINT('Ctrl Pts',(3.,-3.11967444523935,25.7889130684307));
#853=CARTESIAN_POINT('Ctrl Pts',(3.,-3.11771928344603,25.7898751828506));
#854=CARTESIAN_POINT('Ctrl Pts',(3.,-3.22354890178793,25.6642998544009));
#855=CARTESIAN_POINT('Ctrl Pts',(3.00604154636219,-3.37512439204372,25.5118042595371));
#856=CARTESIAN_POINT('Ctrl Pts',(3.03616590220938,-3.58981202866039,25.213509733839));
#857=CARTESIAN_POINT('Ctrl Pts',(3.05412887619024,-3.68059466653691,25.0665384678028));
#858=CARTESIAN_POINT('Ctrl Pts',(3.11178297200494,-3.78294146893373,24.7743401034185));
#859=CARTESIAN_POINT('Ctrl Pts',(3.14011568707108,-3.80235144483153,24.6616583735852));
#860=CARTESIAN_POINT('Ctrl Pts',(3.19950118118898,-3.80668936537629,24.4754077905692));
#861=CARTESIAN_POINT('Ctrl Pts',(3.23127685388391,-3.79670504322436,24.392131775769));
#862=CARTESIAN_POINT('Ctrl Pts',(3.29811156593365,-3.75529650349476,24.2578839572147));
#863=CARTESIAN_POINT('Ctrl Pts',(3.33030408763396,-3.72980710447324,24.2043608852816));
#864=CARTESIAN_POINT('Ctrl Pts',(3.36642319463327,-3.6969169418091,24.1591548583207));
#865=CARTESIAN_POINT('Origin',(3.,0.,30.));
#866=CARTESIAN_POINT('Ctrl Pts',(3.,-3.11771928344603,25.7898751828506));
#867=CARTESIAN_POINT('Ctrl Pts',(3.,-3.09008055066506,25.8226707555956));
#868=CARTESIAN_POINT('Ctrl Pts',(3.00000000000002,-3.0657372001719,25.8535581480791));
#869=CARTESIAN_POINT('Ctrl Pts',(3.00000000000002,-3.0310424586706,25.9038190319413));
#870=CARTESIAN_POINT('Ctrl Pts',(3.,-3.01225746107567,25.9333479057862));
#871=CARTESIAN_POINT('Ctrl Pts',(3.,-2.99836215575403,25.9687858432763));
#872=CARTESIAN_POINT('Ctrl Pts',(3.,-2.99564654709761,25.9771462994794));
#873=CARTESIAN_POINT('Ctrl Pts',(3.,-2.99349742193949,25.9884275551454));
#874=CARTESIAN_POINT('Ctrl Pts',(3.,-2.99306595148156,25.9915127858193));
#875=CARTESIAN_POINT('Ctrl Pts',(3.,-2.99283080641577,25.9946331298908));
#876=CARTESIAN_POINT('',(3.,3.,30.));
#877=CARTESIAN_POINT('Origin',(3.,0.,30.));
#878=CARTESIAN_POINT('Ctrl Pts',(2.8284310636739,-3.00000069631062,26.));
#879=CARTESIAN_POINT('Ctrl Pts',(2.82842712474619,-3.,26.));
#880=CARTESIAN_POINT('Ctrl Pts',(2.80255647306344,-3.,26.));
#881=CARTESIAN_POINT('Ctrl Pts',(2.66129073294223,-3.,26.));
#882=CARTESIAN_POINT('Ctrl Pts',(2.36418883834818,-3.,26.));
#883=CARTESIAN_POINT('Ctrl Pts',(1.75109901240531,-3.,26.));
#884=CARTESIAN_POINT('Ctrl Pts',(0.699861227706346,-3.,26.));
#885=CARTESIAN_POINT('Ctrl Pts',(-0.694553897074093,-3.,26.));
#886=CARTESIAN_POINT('Ctrl Pts',(-1.75062129927494,-3.,26.));
#887=CARTESIAN_POINT('Ctrl Pts',(-2.36432743480272,-3.,26.));
#888=CARTESIAN_POINT('Ctrl Pts',(-2.66125914903769,-3.,26.));
#889=CARTESIAN_POINT('Ctrl Pts',(-2.80257604689875,-3.,26.));
#890=CARTESIAN_POINT('Ctrl Pts',(-2.82842712474619,-3.,26.));
#891=CARTESIAN_POINT('Ctrl Pts',(-2.8284310636739,-3.00000069631062,26.));
#892=CARTESIAN_POINT('Ctrl Pts',(3.29736404563791,-3.,26.));
#893=CARTESIAN_POINT('Ctrl Pts',(3.29736404563791,-3.,25.9814955320653));
#894=CARTESIAN_POINT('Ctrl Pts',(3.2637652672618,-3.01180145050515,25.9436509419873));
#895=CARTESIAN_POINT('Ctrl Pts',(3.09213051424204,-3.07968271284763,25.8812433073028));
#896=CARTESIAN_POINT('Ctrl Pts',(2.75052990223073,-3.20785465915207,25.8476284512145));
#897=CARTESIAN_POINT('Ctrl Pts',(2.06122757564189,-3.41165525256657,25.8734868382883));
#898=CARTESIAN_POINT('Ctrl Pts',(0.850710149760062,-3.60792584071836,26.0069807937423));
#899=CARTESIAN_POINT('Ctrl Pts',(-0.844558070906886,-3.60888932836681,26.0086850451982));
#900=CARTESIAN_POINT('Ctrl Pts',(-2.06038078339813,-3.41174451340259,25.8741087279174));
#901=CARTESIAN_POINT('Ctrl Pts',(-2.75066000634069,-3.20789889540906,25.8475702167852));
#902=CARTESIAN_POINT('Ctrl Pts',(-3.09202197484812,-3.07953641396141,25.8819160568517));
#903=CARTESIAN_POINT('Ctrl Pts',(-3.26381019888804,-3.01179803341347,25.943226298484));
#904=CARTESIAN_POINT('Ctrl Pts',(-3.29736404563791,-3.,25.9814651865599));
#905=CARTESIAN_POINT('Ctrl Pts',(-3.29736404563791,-3.,26.));
#906=CARTESIAN_POINT('Ctrl Pts',(4.11482123123921,-2.69919937611829,26.));
#907=CARTESIAN_POINT('Ctrl Pts',(4.11482123123921,-2.69919937611829,25.9144225964274));
#908=CARTESIAN_POINT('Ctrl Pts',(4.06784472792539,-2.75185373699546,25.7432481904605));
#909=CARTESIAN_POINT('Ctrl Pts',(3.84363061325437,-3.00246167745628,25.5004037439918));
#910=CARTESIAN_POINT('Ctrl Pts',(3.42429990922789,-3.41100405872958,25.3436088514007));
#911=CARTESIAN_POINT('Ctrl Pts',(2.60003852765074,-4.02772098440657,25.305441723785));
#912=CARTESIAN_POINT('Ctrl Pts',(1.10949666257679,-4.66226145005871,25.5027989803808));
#913=CARTESIAN_POINT('Ctrl Pts',(-1.10155894118364,-4.66615188877364,25.5061763457131));
#914=CARTESIAN_POINT('Ctrl Pts',(-2.59878137257747,-4.02837175166419,25.3051126153085));
#915=CARTESIAN_POINT('Ctrl Pts',(-3.42434246710496,-3.41103461573112,25.3439238416475));
#916=CARTESIAN_POINT('Ctrl Pts',(-3.84357164774015,-3.00228526277761,25.5005411722922));
#917=CARTESIAN_POINT('Ctrl Pts',(-4.06782930910795,-2.75175374831871,25.7427559682452));
#918=CARTESIAN_POINT('Ctrl Pts',(-4.11482123123921,-2.69919937611829,25.9142822579118));
#919=CARTESIAN_POINT('Ctrl Pts',(-4.11482123123921,-2.69919937611829,26.));
#920=CARTESIAN_POINT('Ctrl Pts',(4.59681097768739,-1.99825514337794,26.));
#921=CARTESIAN_POINT('Ctrl Pts',(4.59681097768739,-1.99825514337794,25.8158771097523));
#922=CARTESIAN_POINT('Ctrl Pts',(4.55033085896628,-2.10573829767493,25.4473770434547));
#923=CARTESIAN_POINT('Ctrl Pts',(4.31168274798694,-2.57534262763703,24.9587146733249));
#924=CARTESIAN_POINT('Ctrl Pts',(3.83507068573669,-3.25644933346688,24.6188835043759));
#925=CARTESIAN_POINT('Ctrl Pts',(2.87134480378621,-4.19864930637251,24.4053162865751));
#926=CARTESIAN_POINT('Ctrl Pts',(1.17969677834834,-5.04038916032608,24.4478969875155));
#927=CARTESIAN_POINT('Ctrl Pts',(-1.17106065524958,-5.04392653447104,24.4500120052372));
#928=CARTESIAN_POINT('Ctrl Pts',(-2.87022075620914,-4.19966201026228,24.4043065147001));
#929=CARTESIAN_POINT('Ctrl Pts',(-3.83524949576206,-3.2560933239665,24.6191162994629));
#930=CARTESIAN_POINT('Ctrl Pts',(-4.31157351971653,-2.57497519070218,24.9587725101675));
#931=CARTESIAN_POINT('Ctrl Pts',(-4.55037063387507,-2.10589620951788,25.4464339659241));
#932=CARTESIAN_POINT('Ctrl Pts',(-4.59681097768739,-1.99825514337794,25.8155751663416));
#933=CARTESIAN_POINT('Ctrl Pts',(-4.59681097768739,-1.99825514337794,26.));
#934=CARTESIAN_POINT('Ctrl Pts',(4.71404520791032,-1.66666666666666,26.));
#935=CARTESIAN_POINT('Ctrl Pts',(4.71404520791032,-1.66666666666666,25.7737160684045));
#936=CARTESIAN_POINT('Ctrl Pts',(4.67092745510794,-1.79590496783547,25.3207199575915));
#937=CARTESIAN_POINT('Ctrl Pts',(4.43548455490432,-2.35223917416917,24.7267339150299));
#938=CARTESIAN_POINT('Ctrl Pts',(3.94031473058113,-3.13473098952709,24.3085877955986));
#939=CARTESIAN_POINT('Ctrl Pts',(2.91849835400917,-4.18209581332932,24.0200850920963));
#940=CARTESIAN_POINT('Ctrl Pts',(1.166435379511,-5.04241697992648,23.9970969361098));
#941=CARTESIAN_POINT('Ctrl Pts',(-1.15758982845665,-5.04498270492545,23.9986748996024));
#942=CARTESIAN_POINT('Ctrl Pts',(-2.9177021654575,-4.18285880643536,24.0188448286413));
#943=CARTESIAN_POINT('Ctrl Pts',(-3.94054572467056,-3.1342346714796,24.3087694358907));
#944=CARTESIAN_POINT('Ctrl Pts',(-4.43543191506178,-2.35157890996679,24.7268089954356));
#945=CARTESIAN_POINT('Ctrl Pts',(-4.67096007816278,-1.79627113761393,25.3195560500182));
#946=CARTESIAN_POINT('Ctrl Pts',(-4.71404520791032,-1.66666666666666,25.7733449850374));
#947=CARTESIAN_POINT('Ctrl Pts',(-4.71404520791032,-1.66666666666666,26.));
#948=CARTESIAN_POINT('',(-3.0002662951101,-4.00029994086126,24.0919419035903));
#949=CARTESIAN_POINT('Ctrl Pts',(-3.0002662951101,-4.00029994086126,24.0919419035903));
#950=CARTESIAN_POINT('Ctrl Pts',(-3.04807581730631,-3.96458654819069,24.098784036731));
#951=CARTESIAN_POINT('Ctrl Pts',(-3.17401614870577,-3.86681360211531,24.1185595805595));
#952=CARTESIAN_POINT('Ctrl Pts',(-3.29402387612009,-3.76351338705942,24.1425513353561));
#953=CARTESIAN_POINT('Ctrl Pts',(-3.36662832282932,-3.69721589229779,24.1594464463856));
#954=CARTESIAN_POINT('',(3.00040916674177,-4.00059046050008,24.0923461337872));
#955=CARTESIAN_POINT('Ctrl Pts',(-3.0002662951101,-4.00029994086126,24.0919419035903));
#956=CARTESIAN_POINT('Ctrl Pts',(-2.45243153134468,-4.40952883791342,24.01353998237));
#957=CARTESIAN_POINT('Ctrl Pts',(-1.09541036028324,-5.0449140587613,23.9986326810712));
#958=CARTESIAN_POINT('Ctrl Pts',(1.10372492297663,-5.04248621230205,23.9971395151708));
#959=CARTESIAN_POINT('Ctrl Pts',(2.45437926924673,-4.40875016194491,24.0140305875381));
#960=CARTESIAN_POINT('Ctrl Pts',(3.00040916674177,-4.00059046050008,24.0923461337872));
#961=CARTESIAN_POINT('Ctrl Pts',(3.36671182669822,-3.69740438536298,24.1598289045395));
#962=CARTESIAN_POINT('Ctrl Pts',(3.29437048578637,-3.76348098406558,24.1430220726398));
#963=CARTESIAN_POINT('Ctrl Pts',(3.17437330126342,-3.86683606526515,24.1190452104783));
#964=CARTESIAN_POINT('Ctrl Pts',(3.04850395058115,-3.96463940231995,24.0992442345787));
#965=CARTESIAN_POINT('Ctrl Pts',(3.00040916674178,-4.00059046050008,24.0923461337872));
#966=CARTESIAN_POINT('Origin',(0.,0.,30.));
#967=CARTESIAN_POINT('',(0.,3.,30.));
#968=CARTESIAN_POINT('Origin',(0.,0.,-4.));
#969=CARTESIAN_POINT('',(-5.,0.,-4.));
#970=CARTESIAN_POINT('Origin',(0.,0.,-4.));
#971=CARTESIAN_POINT('Origin',(0.,0.,16.));
#972=CARTESIAN_POINT('',(-5.,-6.12323399573677E-16,16.));
#973=UNCERTAINTY_MEASURE_WITH_UNIT(LENGTH_MEASURE(0.01),#977,
'DISTANCE_ACCURACY_VALUE',
'Maximum model space distance between geometric entities at asserted c
onnectivities');
#974=UNCERTAINTY_MEASURE_WITH_UNIT(LENGTH_MEASURE(0.01),#977,
'DISTANCE_ACCURACY_VALUE',
'Maximum model space distance between geometric entities at asserted c
onnectivities');
#975=(
GEOMETRIC_REPRESENTATION_CONTEXT(3)
GLOBAL_UNCERTAINTY_ASSIGNED_CONTEXT((#973))
GLOBAL_UNIT_ASSIGNED_CONTEXT((#977,#979,#980))
REPRESENTATION_CONTEXT('','3D')
);
#976=(
GEOMETRIC_REPRESENTATION_CONTEXT(3)
GLOBAL_UNCERTAINTY_ASSIGNED_CONTEXT((#974))
GLOBAL_UNIT_ASSIGNED_CONTEXT((#977,#979,#980))
REPRESENTATION_CONTEXT('','3D')
);
#977=(
LENGTH_UNIT()
NAMED_UNIT(*)
SI_UNIT(.MILLI.,.METRE.)
);
#978=(
LENGTH_UNIT()
NAMED_UNIT(*)
SI_UNIT(.CENTI.,.METRE.)
);
#979=(
NAMED_UNIT(*)
PLANE_ANGLE_UNIT()
SI_UNIT($,.RADIAN.)
);
#980=(
NAMED_UNIT(*)
SI_UNIT($,.STERADIAN.)
SOLID_ANGLE_UNIT()
);
#981=SHAPE_DEFINITION_REPRESENTATION(#982,#983);
#982=PRODUCT_DEFINITION_SHAPE('',$,#985);
#983=SHAPE_REPRESENTATION('',(#282),#975);
#984=PRODUCT_DEFINITION_CONTEXT('part definition',#989,'design');
#985=PRODUCT_DEFINITION('\X\D6se','\X\D6se',#986,#984);
#986=PRODUCT_DEFINITION_FORMATION('',$,#991);
#987=PRODUCT_RELATED_PRODUCT_CATEGORY('\X\D6se','\X\D6se',(#991));
#988=APPLICATION_PROTOCOL_DEFINITION('international standard',
'automotive_design',2009,#989);
#989=APPLICATION_CONTEXT(
'Core Data for Automotive Mechanical Design Process');
#990=PRODUCT_CONTEXT('part definition',#989,'mechanical');
#991=PRODUCT('\X\D6se','\X\D6se',$,(#990));
#992=PRESENTATION_STYLE_ASSIGNMENT((#994));
#993=PRESENTATION_STYLE_ASSIGNMENT((#995));
#994=SURFACE_STYLE_USAGE(.BOTH.,#1000);
#995=SURFACE_STYLE_USAGE(.BOTH.,#1001);
#996=SURFACE_STYLE_RENDERING_WITH_PROPERTIES($,#1008,(#998));
#997=SURFACE_STYLE_RENDERING_WITH_PROPERTIES($,#1009,(#999));
#998=SURFACE_STYLE_TRANSPARENT(0.);
#999=SURFACE_STYLE_TRANSPARENT(0.);
#1000=SURFACE_SIDE_STYLE('',(#1002,#996));
#1001=SURFACE_SIDE_STYLE('',(#1003,#997));
#1002=SURFACE_STYLE_FILL_AREA(#1004);
#1003=SURFACE_STYLE_FILL_AREA(#1005);
#1004=FILL_AREA_STYLE('',(#1006));
#1005=FILL_AREA_STYLE('',(#1007));
#1006=FILL_AREA_STYLE_COLOUR('',#1008);
#1007=FILL_AREA_STYLE_COLOUR('',#1009);
#1008=COLOUR_RGB('',0.749019607843137,0.749019607843137,0.749019607843137);
#1009=COLOUR_RGB('',0.956862745098039,0.956862745098039,0.956862745098039);
ENDSEC;
END-ISO-10303-21;
